<svg id="App_Store" data-name="App Store" xmlns="http://www.w3.org/2000/svg" width="160" height="46.252" viewBox="0 0 160 46.252">
  <rect id="Rectangle_861" data-name="Rectangle 861" width="160" height="46.252" rx="6"/>
  <path id="Path_1770" data-name="Path 1770" d="M70.888,15.455l-.667,2.222H68.74L71.251,9.87h1.815L75.6,17.663H74.066l-.741-2.222Zm2.222-1.074L72.5,12.455c-.156-.474-.281-1-.393-1.481h0c-.111.452-.23.993-.37,1.481l-.585,1.956Z" transform="translate(-17.821 -2.559)" fill="#fff"/>
  <path id="Path_1771" data-name="Path 1771" d="M80.323,12.79l.919,2.852a14.407,14.407,0,0,1,.378,1.415h0c.1-.467.23-.9.378-1.415l.9-2.852h1.481l-2.148,5.63H80.879L78.79,12.79Z" transform="translate(-20.427 -3.316)" fill="#fff"/>
  <path id="Path_1772" data-name="Path 1772" d="M92.416,17.02a7.926,7.926,0,0,0,.089,1.356H91.223l-.1-.622h0a2.059,2.059,0,0,1-1.667.741A1.667,1.667,0,0,1,87.69,16.82c0-1.415,1.259-2.141,3.341-2.133V14.6c0-.37-.156-.985-1.148-.985a2.963,2.963,0,0,0-1.481.422l-.281-.926a4.015,4.015,0,0,1,2.037-.5A2.106,2.106,0,0,1,92.483,15Zm-1.393-1.4c-1,0-1.963.2-1.963,1.052a.741.741,0,0,0,.807.815,1.178,1.178,0,0,0,1.126-.778,1.111,1.111,0,0,0,0-.311Z" transform="translate(-22.734 -3.271)" fill="#fff"/>
  <path id="Path_1773" data-name="Path 1773" d="M97.454,11.13a.741.741,0,0,1-.785-.741.8.8,0,1,1,.8.741Zm-.741,6.444v-5.63h1.459v5.63Z" transform="translate(-25.062 -2.471)" fill="#fff"/>
  <path id="Path_1774" data-name="Path 1774" d="M101.46,9.29h1.422v8.222H101.46Z" transform="translate(-26.304 -2.409)" fill="#fff"/>
  <path id="Path_1775" data-name="Path 1775" d="M110.4,17.02a7.17,7.17,0,0,0,.1,1.356h-1.289l-.1-.622h0a2.074,2.074,0,0,1-1.667.741,1.674,1.674,0,0,1-1.77-1.674c0-1.415,1.259-2.141,3.341-2.133V14.6c0-.37-.148-.985-1.141-.985a2.963,2.963,0,0,0-1.481.422l-.274-.926a3.985,3.985,0,0,1,2.03-.5A2.106,2.106,0,0,1,110.47,15Zm-1.385-1.4c-1.007,0-1.97.2-1.97,1.052a.741.741,0,0,0,.815.815,1.163,1.163,0,0,0,1.119-.778.9.9,0,0,0,0-.311Z" transform="translate(-27.396 -3.271)" fill="#fff"/>
  <path id="Path_1776" data-name="Path 1776" d="M114.754,9.29h1.422v3.363h0a2.022,2.022,0,0,1,1.8-.9c1.378,0,2.363,1.141,2.348,2.852,0,2.022-1.281,3.03-2.556,3.03a1.926,1.926,0,0,1-1.778-.97h0l-.067.844H114.71c0-.385.044-1.007.044-1.57Zm1.422,5.926a1.586,1.586,0,0,0,0,.333,1.3,1.3,0,0,0,1.259,1c.9,0,1.437-.741,1.437-1.852,0-.993-.474-1.807-1.422-1.807a1.326,1.326,0,0,0-1.259,1.044,1.719,1.719,0,0,0-.052.37Z" transform="translate(-29.74 -2.409)" fill="#fff"/>
  <path id="Path_1777" data-name="Path 1777" d="M124.59,9.29h1.422v8.222H124.59Z" transform="translate(-32.301 -2.409)" fill="#fff"/>
  <path id="Path_1778" data-name="Path 1778" d="M130.168,15.971c0,1.015.83,1.481,1.733,1.481a4.548,4.548,0,0,0,1.556-.252l.215.97a5.119,5.119,0,0,1-1.97.356,2.667,2.667,0,0,1-2.9-2.844,2.786,2.786,0,0,1,2.756-3.022,2.448,2.448,0,0,1,2.43,2.733,2.964,2.964,0,0,1-.052.607Zm2.481-1a1.215,1.215,0,0,0-1.17-1.37,1.378,1.378,0,0,0-1.3,1.37Z" transform="translate(-33.39 -3.282)" fill="#fff"/>
  <path id="Path_1779" data-name="Path 1779" d="M144.28,18.505a2.726,2.726,0,0,1-2.822-2.9,2.778,2.778,0,0,1,2.911-2.963,2.7,2.7,0,0,1,2.8,2.889,2.785,2.785,0,0,1-2.881,2.963Zm.044-1.03c.807,0,1.378-.785,1.378-1.933,0-.874-.393-1.9-1.363-1.9s-1.415.985-1.415,1.926c0,1.081.548,1.9,1.393,1.9Z" transform="translate(-36.673 -3.276)" fill="#fff"/>
  <path id="Path_1780" data-name="Path 1780" d="M151.414,14.42c0-.644,0-1.193-.044-1.674h1.207l.067.844h.037a2.052,2.052,0,0,1,1.807-.97c.978,0,2,.63,2,2.415v3.341H155.1V15.2c0-.815-.3-1.422-1.081-1.422a1.185,1.185,0,0,0-1.1.83,1.208,1.208,0,0,0-.074.452v3.319h-1.422Z" transform="translate(-39.244 -3.272)" fill="#fff"/>
  <path id="Path_1781" data-name="Path 1781" d="M166.393,10.84v1.444h1.363v1.059H166.4v2.474c0,.7.185,1.044.741,1.044a1.926,1.926,0,0,0,.556-.059v1.074a3.126,3.126,0,0,1-1.03.148,1.637,1.637,0,0,1-1.23-.459,2.222,2.222,0,0,1-.452-1.585V13.344H164.2V12.284h.793V11.233Z" transform="translate(-42.57 -2.81)" fill="#fff"/>
  <path id="Path_1782" data-name="Path 1782" d="M171.122,9.29h1.422v3.356h0a1.822,1.822,0,0,1,.7-.607,1.985,1.985,0,0,1,.985-.252c.956,0,1.963.63,1.963,2.437v3.319h-1.422v-3.2c0-.807-.3-1.43-1.089-1.43a1.193,1.193,0,0,0-1.111.793,1.341,1.341,0,0,0-.052.43v3.378H171.1Z" transform="translate(-44.359 -2.409)" fill="#fff"/>
  <path id="Path_1783" data-name="Path 1783" d="M181.618,15.971c0,1.015.83,1.481,1.733,1.481a4.629,4.629,0,0,0,1.563-.252l.207.97a5.1,5.1,0,0,1-1.97.356,2.667,2.667,0,0,1-2.9-2.844A2.786,2.786,0,0,1,183,12.66a2.448,2.448,0,0,1,2.43,2.733,3.784,3.784,0,0,1-.044.607Zm2.474-1a1.215,1.215,0,0,0-1.17-1.37,1.385,1.385,0,0,0-1.3,1.37Z" transform="translate(-46.729 -3.282)" fill="#fff"/>
  <path id="Path_1784" data-name="Path 1784" d="M40.512,27.486a6.911,6.911,0,0,1,3.3-5.815,7.1,7.1,0,0,0-5.6-3.03c-2.348-.244-4.637,1.407-5.83,1.407s-3.074-1.385-5.03-1.341a7.452,7.452,0,0,0-6.267,3.822c-2.711,4.7-.689,11.593,1.9,15.393,1.3,1.859,2.822,3.933,4.807,3.859s2.674-1.237,5.022-1.237,3.007,1.237,5.037,1.193,3.393-1.867,4.652-3.748a15.089,15.089,0,0,0,2.126-4.333,6.667,6.667,0,0,1-4.089-6.17" transform="translate(-5.134 -4.827)" fill="#fff"/>
  <path id="Path_1785" data-name="Path 1785" d="M41,13.566a6.8,6.8,0,0,0,1.556-4.9A6.963,6.963,0,0,0,38.063,11a6.5,6.5,0,0,0-1.607,4.719A5.756,5.756,0,0,0,41,13.566" transform="translate(-9.448 -2.248)" fill="#fff"/>
  <path id="Path_1786" data-name="Path 1786" d="M81.01,43.911h-2.7l-1.481-4.667H71.64l-1.415,4.667H67.61L72.721,28h3.156Zm-4.637-6.622-1.341-4.148c-.148-.422-.415-1.422-.8-2.963H74.18c-.156.674-.407,1.674-.741,2.963l-1.319,4.148Z" transform="translate(-17.529 -7.259)" fill="#fff"/>
  <path id="Path_1787" data-name="Path 1787" d="M99.592,39.522a6.519,6.519,0,0,1-1.578,4.615A4.6,4.6,0,0,1,94.5,45.618,3.519,3.519,0,0,1,91.251,44h-.044v6.03H88.659V37.707c0-1.23,0-2.481-.089-3.77h2.222l.141,1.815h.044a4.526,4.526,0,0,1,7.244-.452,6.326,6.326,0,0,1,1.356,4.222m-2.593.089a4.778,4.778,0,0,0-.741-2.756,2.607,2.607,0,0,0-2.222-1.133,2.659,2.659,0,0,0-1.711.63,2.881,2.881,0,0,0-1,1.637,3.156,3.156,0,0,0-.119.741v1.9a3.044,3.044,0,0,0,.741,2.111,2.533,2.533,0,0,0,1.993.859,2.593,2.593,0,0,0,2.222-1.1,4.889,4.889,0,0,0,.8-2.963" transform="translate(-22.963 -8.737)" fill="#fff"/>
  <path id="Path_1788" data-name="Path 1788" d="M117.38,39.522a6.519,6.519,0,0,1-1.578,4.615,4.6,4.6,0,0,1-3.511,1.481,3.511,3.511,0,0,1-3.23-1.6h-.044v6.03h-2.548V37.707c0-1.23,0-2.481-.089-3.77H108.6l.141,1.815h.052a4.519,4.519,0,0,1,7.237-.452,6.326,6.326,0,0,1,1.356,4.222m-2.593.089a4.726,4.726,0,0,0-.741-2.756,2.593,2.593,0,0,0-2.222-1.133,2.652,2.652,0,0,0-1.7.63,2.882,2.882,0,0,0-1,1.637,3.156,3.156,0,0,0-.119.741v1.9a3.044,3.044,0,0,0,.741,2.111,2.526,2.526,0,0,0,1.993.859,2.593,2.593,0,0,0,2.222-1.1,4.889,4.889,0,0,0,.8-2.963" transform="translate(-27.58 -8.737)" fill="#fff"/>
  <path id="Path_1789" data-name="Path 1789" d="M137.662,39.377a4.222,4.222,0,0,1-1.415,3.3,6.237,6.237,0,0,1-4.319,1.385,7.585,7.585,0,0,1-4.119-.985l.585-2.119a7,7,0,0,0,3.7,1.007,3.5,3.5,0,0,0,2.222-.644,2.148,2.148,0,0,0,.793-1.733,2.222,2.222,0,0,0-.652-1.63,6.17,6.17,0,0,0-2.222-1.23q-4.163-1.556-4.163-4.556a4.015,4.015,0,0,1,1.481-3.207,5.748,5.748,0,0,1,3.889-1.252,7.667,7.667,0,0,1,3.6.741l-.637,2.074a6.222,6.222,0,0,0-3.037-.741,3.089,3.089,0,0,0-2.1.659,1.9,1.9,0,0,0-.637,1.437,1.933,1.933,0,0,0,.741,1.556,8.326,8.326,0,0,0,2.3,1.23,7.911,7.911,0,0,1,3.022,1.926,4.081,4.081,0,0,1,.963,2.756" transform="translate(-33.136 -7.184)" fill="#fff"/>
  <path id="Path_1790" data-name="Path 1790" d="M150.02,34.931h-2.8v5.563c0,1.415.5,2.119,1.481,2.119a4.393,4.393,0,0,0,1.133-.119l.067,1.933a5.6,5.6,0,0,1-1.978.281,3.044,3.044,0,0,1-2.356-.919,4.5,4.5,0,0,1-.844-3.081V34.931H143.05V33.012h1.674V30.931l2.5-.741v2.822h2.8Z" transform="translate(-37.087 -7.827)" fill="#fff"/>
  <path id="Path_1791" data-name="Path 1791" d="M165.628,39.567a6.259,6.259,0,0,1-1.481,4.333,5.378,5.378,0,0,1-4.193,1.741,5.118,5.118,0,0,1-4.015-1.667,6.089,6.089,0,0,1-1.481-4.215,6.23,6.23,0,0,1,1.5-4.356,5.326,5.326,0,0,1,4.156-1.7,5.185,5.185,0,0,1,4.052,1.7A6.015,6.015,0,0,1,165.65,39.6m-2.637.081a5.185,5.185,0,0,0-.681-2.719,2.63,2.63,0,0,0-4.615,0,5.244,5.244,0,0,0-.681,2.77,5.118,5.118,0,0,0,.681,2.711,2.575,2.575,0,0,0,4.548-.052,5.185,5.185,0,0,0,.7-2.741" transform="translate(-40.043 -8.738)" fill="#fff"/>
  <path id="Path_1792" data-name="Path 1792" d="M178.558,36.131a4.585,4.585,0,0,0-.8-.074,2.422,2.422,0,0,0-2.081,1.015,3.837,3.837,0,0,0-.63,2.222V45.3H172.5V37.465c0-1.326,0-2.526-.089-3.607h2.222l.1,2.222h.067a3.845,3.845,0,0,1,1.274-1.815,3.081,3.081,0,0,1,1.837-.615,4.155,4.155,0,0,1,.637.044Z" transform="translate(-44.699 -8.724)" fill="#fff"/>
  <path id="Path_1793" data-name="Path 1793" d="M192.517,39.095a6.244,6.244,0,0,1-.1,1.156h-7.63a3.326,3.326,0,0,0,1.1,2.593,3.756,3.756,0,0,0,2.5.8,8.4,8.4,0,0,0,3.089-.541l.4,1.77a9.63,9.63,0,0,1-3.844.7,5.556,5.556,0,0,1-4.178-1.563,5.785,5.785,0,0,1-1.482-4.207,6.541,6.541,0,0,1,1.415-4.311,4.859,4.859,0,0,1,4-1.837,4.252,4.252,0,0,1,3.748,1.837,6.156,6.156,0,0,1,.978,3.6m-2.43-.659a3.467,3.467,0,0,0-.489-1.956,2.222,2.222,0,0,0-2.03-1.059,2.437,2.437,0,0,0-2.03,1.037,3.785,3.785,0,0,0-.741,1.978Z" transform="translate(-47.28 -8.724)" fill="#fff"/>
</svg>
