<?xml version="1.0" encoding="utf-8"?>
<!-- Generator: Adobe Illustrator 24.3.0, SVG Export Plug-In . SVG Version: 6.00 Build 0)  -->
<svg version="1.1" xmlns="http://www.w3.org/2000/svg" xmlns:xlink="http://www.w3.org/1999/xlink" x="0px" y="0px"
	 viewBox="0 0 460 270" style="enable-background:new 0 0 460 270;" xml:space="preserve">
<style type="text/css">
	.st0{fill:#00217E;}
	.st1{opacity:0.18;fill:#0000FF;}
	.st2{fill:#0000FF;}
	.st3{fill:#F96701;}
	.st4{fill:#C8E0FF;}
	.st5{fill:none;stroke:#FFFFFF;stroke-linecap:round;stroke-miterlimit:10;}
	.st6{fill:none;stroke:#00217E;stroke-linecap:round;stroke-miterlimit:10;}
	.st7{fill:none;stroke:#F96701;stroke-linecap:round;stroke-miterlimit:10;}
	.st8{fill:#FFFFFF;}
	.st9{fill:none;stroke:#F96701;stroke-miterlimit:10;}
	.st10{fill:none;stroke:#FFD721;stroke-miterlimit:10;}
</style>
<g id="Layer_1">
</g>
<g id="Layer_3">
</g>
<g id="Layer_2">
	<polygon class="st0" points="307.5,57.5 219.5,47.5 167.5,169.5 162.5,212.5 296.5,222.5 	"/>
	<polygon class="st1" points="302.6,51.4 214.7,41.1 162.2,162.9 157.1,205.9 291,216.4 	"/>
	<polygon class="st2" points="136.5,39.5 269.5,27.5 285.5,191.5 151.5,205.5 	"/>
	<polygon class="st3" points="338.4,122.4 407.4,152.4 402.4,164.4 332.4,134.4 	"/>
	<polygon class="st2" points="308.4,190.4 376.4,221.4 402.4,164.4 332.4,134.4 	"/>
	<path class="st0" d="M132.1,209.5L70.9,229c-2,0.6-4.2-0.5-4.8-2.5L29.4,111.6c-0.6-2,0.5-4.2,2.5-4.8l61.2-19.5
		c2-0.6,4.2,0.5,4.8,2.5l36.6,114.9C135.2,206.6,134.1,208.8,132.1,209.5z"/>
	<path class="st4" d="M91.5,140.4l-4.8,1.5l1.9,4.8l-6-3.5l-45.8,14.6c-2.9,0.9-5.9-0.7-6.9-3.6L25,139c-0.5-1.4,0.3-3,1.7-3.4
		l57.3-18.3c2.9-0.9,6,0.7,6.9,3.6l4.1,12.7C95.9,136.5,94.3,139.5,91.5,140.4z"/>
	<path class="st4" d="M103.7,176.4l-5.3,1.7l1.3,3.2l-4-2.3L49,193.9c-2.9,0.9-6-0.7-6.9-3.6L37.3,175c-0.5-1.4,0.3-3,1.8-3.4
		l57.3-18.3c2.9-0.9,5.9,0.7,6.9,3.6l4.1,12.7C108.2,172.4,106.6,175.5,103.7,176.4z"/>
	<line class="st5" x1="84.3" y1="216.4" x2="114.1" y2="207"/>
	<line class="st5" x1="37.1" y1="111.2" x2="54.9" y2="105.6"/>
	<line class="st5" x1="85.1" y1="96.3" x2="93.5" y2="93.6"/>
	<line class="st6" x1="52" y1="135.5" x2="84.3" y2="125.6"/>
	<line class="st6" x1="66" y1="137.6" x2="53.3" y2="141.2"/>
	<line class="st6" x1="96.5" y1="160.8" x2="63.5" y2="171.2"/>
	<line class="st6" x1="77.8" y1="173.6" x2="66" y2="177"/>
	<polyline class="st7" points="33.8,144.5 40.9,147.5 45.1,135.5 	"/>
	<polyline class="st7" points="46,179.2 52,182.3 56.9,172.3 	"/>
	
		<rect x="196.2" y="65.3" transform="matrix(0.9956 -9.354700e-02 9.354700e-02 0.9956 -5.29 21.3881)" class="st8" width="58.6" height="3.7"/>
	
		<rect x="197.1" y="75.6" transform="matrix(0.9956 -9.354700e-02 9.354700e-02 0.9956 -6.28 20.8182)" class="st8" width="43.6" height="3.7"/>
	
		<rect x="200.5" y="107" transform="matrix(0.9956 -9.354700e-02 9.354700e-02 0.9956 -9.1735 21.9798)" class="st8" width="58.6" height="3.7"/>
	
		<rect x="201.5" y="117.3" transform="matrix(0.9956 -9.354700e-02 9.354700e-02 0.9956 -10.1635 21.4099)" class="st8" width="43.6" height="3.7"/>
	
		<rect x="204.6" y="151.3" transform="matrix(0.9956 -9.354700e-02 9.354700e-02 0.9956 -13.3727 21.0112)" class="st8" width="25.6" height="3.7"/>
	
		<rect x="205.5" y="160" transform="matrix(0.9956 -9.354700e-02 9.354700e-02 0.9956 -14.146 21.9733)" class="st8" width="43.6" height="3.7"/>
	<polygon class="st3" points="161.6,74.8 159.5,77.4 170,87 183.9,68.4 180.4,65.9 169.6,81.1 	"/>
	<polygon class="st3" points="166,110.6 173.3,116 178.9,108.8 182.2,111 176.9,118.4 184.5,124.4 182,127.7 174.3,122 168.7,129.9 
		165.3,127.5 170.2,120 163.2,113.9 	"/>
	<polygon class="st3" points="169.2,158.7 167.1,161.4 177.6,170.9 191.5,152.3 188,149.8 177.2,165.1 	"/>
	<polygon class="st9" points="360,174.2 368,177.9 364,186.4 356.2,182.5 	"/>
	<polygon class="st9" points="346.2,167.2 354.1,170.9 350.1,179.4 342.3,175.5 	"/>
	<polygon class="st10" points="331.9,161.1 339.9,164.8 335.9,173.3 328.1,169.4 	"/>
	<polygon class="st0" points="352.1,154 360,157.7 356,166.2 348.2,162.3 	"/>
	<polygon class="st0" points="365.9,160.5 373.9,164.2 369.9,172.7 362.1,168.8 	"/>
	<polygon class="st9" points="373.7,180.3 381.7,184 377.7,192.5 369.9,188.6 	"/>
	<polygon class="st10" points="340.3,180.4 348.2,184 344.2,192.6 336.4,188.7 	"/>
	<polygon class="st10" points="354.1,186.4 362.1,190.1 358.1,198.6 350.3,194.7 	"/>
	<polygon class="st9" points="326,173.3 334,177 330,185.5 322.1,181.6 	"/>
	<polygon class="st0" points="339.1,146.8 347,150.5 343.1,159 335.2,155.1 	"/>
	<polygon class="st1" points="296.4,45.6 208.4,35 156,160 150.8,204.1 284.8,214.9 	"/>
	<g>
	</g>
	<g>
	</g>
	<g>
	</g>
	<g>
	</g>
	<g>
	</g>
	<g>
	</g>
	<g>
	</g>
	<g>
	</g>
	<g>
	</g>
	<g>
	</g>
	<g>
	</g>
	<g>
	</g>
	<g>
	</g>
	<g>
	</g>
	<g>
	</g>
</g>
</svg>
