<?xml version="1.0" encoding="utf-8"?>
<!-- Generator: Adobe Illustrator 24.3.0, SVG Export Plug-In . SVG Version: 6.00 Build 0)  -->
<svg version="1.1" xmlns="http://www.w3.org/2000/svg" xmlns:xlink="http://www.w3.org/1999/xlink" x="0px" y="0px"
	 viewBox="0 0 460 270" style="enable-background:new 0 0 460 270;" xml:space="preserve">
<style type="text/css">
	.st0{fill:none;}
	.st1{fill:#FF9898;}
	.st2{fill:#F96701;}
	.st3{fill:#FFACB6;}
	.st4{fill:#0000FF;}
	.st5{fill:#00217E;}
	.st6{fill:#FFFFFF;}
</style>
<g id="Layer_1">
	<rect class="st0" width="460" height="270"/>
</g>
<g id="Layer_2">
</g>
<g id="Layer_3">
</g>
<g id="Layer_4">
	<g>
		<path class="st1" d="M117.4,100.5c0,0-51.7-3.1-27.3,19C90.2,119.5,117.6,112.3,117.4,100.5z"/>
		<path class="st2" d="M112.3,118c0.2-5.3,4.1-8.3,8.5-8.2c4.4,0.2,8,3.5,7.8,8.8c-0.2,5.3-4.1,8.5-8.5,8.3
			C115.7,126.8,112.1,123.3,112.3,118z"/>
		<path class="st3" d="M114.6,117.3c-1,1.9-1.9,4.1-2.6,7.1c-4,17.2-14.5,15.9-19.8,21.1c-5.3,5.3-6.4,6.7-6.4,6.7s-24,1.3-18-19.2
			c0,0,0.7-0.2,1.7-1.1c2.2-1.9,6-7.1,6.9-20.7C77.6,91.3,119.9,94,119.9,94l5.3,1.3c0,0-9.2,6.6-10.6,6.6s-17.2,1.3-17.2,1.3
			l-7.9,6.6c0,0,2.6,10.6,14.5,1.3s21.1-18.5,22.5-9.2C127.6,109.6,119.6,108.2,114.6,117.3z"/>
		<path class="st1" d="M114.6,117.3c-1,1.9-1.9,4.1-2.6,7.1c-4,17.2-14.5,15.9-19.8,21.1c-5.3,5.3-8.6,8.6-8.6,8.6
			s-21.8-0.7-15.9-21.1c0,0,0.7-0.2,1.7-1.1c0,0,9.5,19.2,20.7,11.1c11.2-8.1,13.9-5.4,16.5-14.7c2.6-9.2,7.6-11.8,7.6-11.8
			L114.6,117.3z"/>
		<path class="st2" d="M141.7,66c1.4-6.8-1.7-13-9.5-14.6c-5.5-1.2-10.7,0.6-15.5,4.2l-4.2-6.8c6-4.9,13.6-7.7,21.9-6
			c12,2.5,18.5,11.9,16.1,23.9c-3.4,17.1-23.7,16.5-25.1,33.1l-7.9-1.7C118.7,79.8,139.1,78.8,141.7,66z"/>
		<path class="st4" d="M90.2,154.1c0,0-15.9,30.4-34.4,34.4l-9.5-19L36,148.8L67.7,133c0,0,4,18.5,17.2,19.8
			C86.3,152.9,89,153.8,90.2,154.1z"/>
		<path class="st5" d="M90.2,154.1c0,0-15.9,30.4-34.4,34.4l-9.5-19c15.8,32.1,35.4-15.5,38.6-16.7C87.5,154.1,89,153.8,90.2,154.1z
			"/>
		<g>
			<path class="st4" d="M265.1,266.4c-0.2,0.9-34.1,0.6-57.7,0.3h-0.1c-12.7-0.2-22.5-0.3-22.5-0.3s-1.5-45.6,11.3-66.3
				c0.8-1.2,23.1,3.8,40.7,0.3c3.3-0.6,6.4-1.6,9.2-2.9C246.1,197.5,267.9,252.5,265.1,266.4z"/>
			<path class="st5" d="M265.1,266.4c-0.2,0.9-34.1,0.6-57.7,0.3c1.8-0.2,3.9-0.3,6.3-0.3c59.5-0.7,22.2-62.4,23.2-66
				c3.3-0.6,6.4-1.6,9.2-2.9C246.1,197.5,267.9,252.5,265.1,266.4z"/>
		</g>
		<path class="st3" d="M246.1,206.9c-0.3,0.9-2.6,1.5-6.1,2c-12.7,1.7-40.7,1.2-40.7,1.2s8.5-17.7,1.9-36.2s-2.6-38.3-2.6-41
			c0,0,5.9-24.4,11.1-36.2c5.2-11.8,6.4,0,6.4,0l0.8,3l6,21.5l8.9,32.2l6.1,21.9l0.3,1.2c0,0,14.5-7.9,17.2-9.2
			c2.6-1.3-2.6,7.9-9.2,14.5C239.5,188.4,247.4,203,246.1,206.9z"/>
		<path class="st1" d="M246.1,206.9c-0.3,0.9-2.6,1.5-6.1,2c0,0-0.6-15.5-6.9-31.1c-2.5-6.2-6-12.5-10.6-17.8
			c-0.7-0.8-1.3-1.6-1.9-2.4c-13.7-19.7-4.5-60.9-4.5-60.9s0.5,0.4,1.5,1.2c2.4,2,7.5,6.3,13.9,12.2c-0.5,3.3-0.4,6.8,0.2,10.7
			l-5.4,0.2l5.5,32.4c4.6,0.7,8.5,4,9.8,9.7c1.1,5.1-0.5,9.5-3.7,12.2l0.3,1.2c0,0,14.5-17.2,21.1-17.2c5.3,0-6.6,15.9-13.2,22.4
			C239.5,188.4,247.4,203,246.1,206.9z"/>
		<path class="st2" d="M237.8,175.3c-1.3,1.1-3,2-4.8,2.5c-0.2,0.1-0.3,0.1-0.5,0.1c-6.3,1.4-12.7-2.2-14.3-9.7
			c-0.9-4.3,0.1-8,2.3-10.6c1.7-2,4-3.4,6.7-4c1.5-0.3,3.1-0.4,4.5-0.2c4.6,0.7,8.5,4,9.8,9.7C242.6,168.3,241,172.6,237.8,175.3z"
			/>
		<path class="st2" d="M231.7,120.8l-8.9,0.4l-7.3,0.3c-1.7-8.4-0.9-15.5,1.3-21.8c0.2-0.6,0.4-1.2,0.7-1.8
			c8-19.7,29.6-31.4,28.5-50.9c-0.8-13.9-9.8-24.3-25.7-23.6c-11.3,0.5-20.5,6.6-28,15.9l-11.5-11.1c9.3-12.5,22.6-21.9,39.6-22.6
			c24.6-1.1,42.1,13.8,43.4,38.3c1.7,30.8-29,41.4-32.4,66.2C231,113.4,231,117,231.7,120.8z"/>
		<path class="st3" d="M236.8,110.5c0,0-35.7,27.7-17.2,31.7c0,0-2.6,17.2,9.2,10.6c0,0-10.6,14.5,5.3,13.2c0,0-7.9,11.8,2.6,9.9
			c8.3-1.5,18.3-10,22.1-13.6c1.1-1,1.7-2.4,1.6-3.9c-0.2-2.8-0.8-7.3-2.6-8.2c0,0,6.6-13.2-5.3-15.9c0,0,5.3-14.5-6.6-14.5
			C246.1,119.7,250,105.2,236.8,110.5z"/>
		<g>
			<path class="st1" d="M246.1,119.7c-1.7,2.4-3.5,4.7-5.5,6.9c-1.9,2.2-4,4.3-6.1,6.3c-2.2,2-4.4,3.9-6.9,5.5
				c-2.4,1.6-5.1,3.1-7.9,3.8c0.7-0.3,1.3-0.6,2-0.9c0.6-0.3,1.3-0.7,1.9-1.1c1.2-0.8,2.5-1.5,3.6-2.4c2.3-1.7,4.5-3.6,6.6-5.6
				c2.1-2,4.2-4,6.3-6.1c1-1,2-2.1,3-3.2C244.1,121.9,245.1,120.8,246.1,119.7z"/>
		</g>
		<g>
			<path class="st1" d="M252.7,134.3c-3,2.9-6.1,5.6-9.4,8.3c-3.2,2.6-6.6,5.1-10.1,7.5c-1.8,1.1-3.6,2.2-5.5,3.1
				c-1,0.4-1.9,0.9-3,1.1c-0.5,0.1-1.1,0.2-1.7,0.2c-0.6-0.1-1.2-0.2-1.6-0.5c-1-0.5-1.8-1.5-2.2-2.5c-0.4-1-0.4-2.1-0.3-3.2
				c0.2-2.1,0.8-4.1,1.7-6c-0.7,2-1.2,4-1.2,6.1c0,1,0.1,2,0.4,2.9c0.4,0.9,1,1.7,1.9,2c0.2,0.1,0.4,0.2,0.7,0.3
				c0.2,0.1,0.4,0.1,0.7,0.1c0.5,0,0.9-0.1,1.4-0.2c1-0.2,1.9-0.7,2.8-1.1c1.8-0.9,3.6-2,5.3-3.1c3.5-2.2,6.8-4.7,10.1-7.2
				c1.7-1.2,3.3-2.5,4.9-3.8L252.7,134.3z"/>
		</g>
		<g>
			<path class="st1" d="M258,150.1c-2.5,2.3-5.1,4.5-7.9,6.5c-2.7,2-5.6,3.9-8.6,5.6c-3,1.6-6.1,3.2-9.6,3.6
				c-0.9,0.1-1.8,0.1-2.6-0.1c-0.9-0.2-1.7-0.7-2.3-1.3c-1.2-1.4-1.3-3.3-1.3-4.9c0.1,1.7,0.5,3.4,1.6,4.6c1.1,1.2,2.9,1.3,4.5,1
				c1.6-0.3,3.2-0.8,4.7-1.5c1.5-0.7,3-1.4,4.5-2.2c2.9-1.6,5.8-3.5,8.6-5.3c1.4-0.9,2.8-1.9,4.2-2.9
				C255.2,152.1,256.6,151.1,258,150.1z"/>
		</g>
		<g>
			<path class="st1" d="M260.5,161c-2.3,2.3-4.8,4.3-7.4,6.3c-2.5,2-5.2,3.9-8,5.6c-2.8,1.6-5.7,3.3-9,3.9c-0.8,0.1-1.7,0.1-2.6-0.2
				c-0.9-0.3-1.5-1.1-1.8-1.9c-0.5-1.7-0.1-3.3,0.3-4.9c-0.2,1.6-0.4,3.3,0.2,4.7c0.3,0.7,0.8,1.3,1.5,1.5c0.7,0.2,1.5,0.2,2.2,0
				c1.5-0.3,3-0.9,4.4-1.6c1.4-0.7,2.8-1.5,4.2-2.3c2.7-1.7,5.4-3.5,8-5.4c1.3-0.9,2.6-1.9,3.9-2.8C257.9,163,259.2,162,260.5,161z"
				/>
		</g>
		<path class="st6" d="M218.6,131.3l5,7.2c-0.1,0.3-3.3,2.6-5.7,2.3C215.6,140.6,213.4,136.2,218.6,131.3z"/>
		<path class="st6" d="M224.2,143.5l4.7,6.7c-0.1,0.3-3.1,2.3-5.3,2.1C221.3,152.1,219.2,148,224.2,143.5z"/>
		<path class="st6" d="M229.3,155.2l4.7,6.7c-0.1,0.3-3.1,2.3-5.3,2.1C226.4,163.8,224.3,159.8,229.3,155.2z"/>
		<path class="st6" d="M235.5,167.1l4,5.7c-0.1,0.2-2.7,2-4.6,1.8C233,174.5,231.2,171,235.5,167.1z"/>
		<path class="st6" d="M207.4,102.4c4.9,1.1,6.9-9,6.9-10.6v0c0-0.4-0.3-0.5-0.8-0.3c-0.4,0.2-1,0.6-1.6,1.1L207.4,102.4z"/>
		<path class="st6" d="M119.2,101.2l4,5.3c0,0,3.1-4,1.6-5.3C123.2,99.9,121.9,98.6,119.2,101.2z"/>
		<path class="st1" d="M343.2,103.5c0,0,51.7-3.1,27.3,19C370.5,122.5,343.1,115.3,343.2,103.5z"/>
		<path class="st2" d="M340.5,129.9c-4.4,0.2-8.3-3-8.5-8.3c-0.2-5.3,3.4-8.6,7.8-8.8c4.4-0.2,8.3,2.9,8.5,8.2
			C348.5,126.3,344.9,129.8,340.5,129.9z"/>
		<path class="st3" d="M346.1,120.3c1,1.9,1.9,4.1,2.6,7.1c4,17.2,14.5,15.9,19.8,21.1c5.3,5.3,6.4,6.7,6.4,6.7s24,1.3,18-19.2
			c0,0-0.7-0.2-1.7-1.1c-2.2-1.9-6-7.1-6.9-20.7C383,94.4,340.8,97,340.8,97l-5.3,1.3c0,0,9.2,6.6,10.6,6.6s17.2,1.3,17.2,1.3
			l7.9,6.6c0,0-2.6,10.6-14.5,1.3s-21.1-18.5-22.5-9.2C333,112.6,341.1,111.2,346.1,120.3z"/>
		<path class="st1" d="M346.1,120.3c1,1.9,1.9,4.1,2.6,7.1c4,17.2,14.5,15.9,19.8,21.1c5.3,5.3,8.6,8.6,8.6,8.6s21.8-0.7,15.9-21.1
			c0,0-0.7-0.2-1.7-1.1c0,0-9.5,19.2-20.7,11.1c-11.2-8.1-13.9-5.4-16.5-14.7c-2.6-9.2-7.6-11.8-7.6-11.8L346.1,120.3z"/>
		<path class="st2" d="M333,64.1c-3-6.3-9.1-9.4-16.3-6.1c-5.1,2.3-8.2,6.9-9.9,12.6l-7.4-3c1.9-7.5,6.3-14.3,14-17.9
			c11.1-5.1,22-1.5,27.2,9.5c7.5,15.8-9.1,27.4-0.3,41.6l-7.3,3.4C322.8,88.8,338.6,75.9,333,64.1z"/>
		<path class="st4" d="M370.5,157.1c0,0,15.9,30.4,34.4,34.4l9.5-19l10.3-20.6L392.9,136c0,0-4,18.5-17.2,19.8
			C374.4,155.9,371.7,156.8,370.5,157.1z"/>
		<path class="st5" d="M370.5,157.1c0,0,15.9,30.4,34.4,34.4l9.5-19c-15.8,32.1-35.4-15.5-38.6-16.7
			C373.1,157.1,371.7,156.8,370.5,157.1z"/>
		<path class="st6" d="M341.4,104.3l-4,5.3c0,0-3.1-4-1.6-5.3C337.4,102.9,338.8,101.6,341.4,104.3z"/>
	</g>
	<g>
	</g>
	<g>
	</g>
	<g>
	</g>
	<g>
	</g>
	<g>
	</g>
	<g>
	</g>
	<g>
	</g>
	<g>
	</g>
	<g>
	</g>
	<g>
	</g>
	<g>
	</g>
	<g>
	</g>
	<g>
	</g>
	<g>
	</g>
	<g>
	</g>
</g>
</svg>
