<?xml version="1.0" encoding="utf-8"?>
<!-- Generator: Adobe Illustrator 24.3.0, SVG Export Plug-In . SVG Version: 6.00 Build 0)  -->
<svg version="1.1" xmlns="http://www.w3.org/2000/svg" xmlns:xlink="http://www.w3.org/1999/xlink" x="0px" y="0px"
	 viewBox="0 0 460 270" style="enable-background:new 0 0 460 270;" xml:space="preserve">
<style type="text/css">
	.st0{fill:#00217E;}
	.st1{fill:#0000FF;}
	.st2{fill:#FFFFFF;}
	.st3{fill:#F96701;}
	.st4{fill:none;stroke:#FFFFFF;stroke-miterlimit:10;}
	.st5{fill:none;}
</style>
<g id="Layer_1">
</g>
<g id="Layer_2">
	<path class="st0" d="M191.6,202.3c0,0,5.5,46.2-43.7,46.2H38c-12.5,0-20.5,0-20.5,0V44.3h138.8c0,0,34.2,4.3,35.3,40.6
		C192.8,121,191.6,202.3,191.6,202.3z"/>
	<path class="st1" d="M38,44.3v204.2c-12.5,0-20.5,0-20.5,0V44.3H38z"/>
	<rect x="299.9" y="110.9" class="st0" width="59.4" height="59.4"/>
	<rect x="379.6" y="110.9" class="st1" width="59.4" height="59.4"/>
	<rect x="299.9" y="189.1" class="st1" width="59.4" height="59.4"/>
	<rect x="379.6" y="189.1" class="st0" width="59.4" height="59.4"/>
	<g>
		<path class="st2" d="M332.3,129v10.9h11.2v2.8h-11.2v11h-3.2v-11h-11.2v-2.8h11.2V129H332.3z"/>
	</g>
	<path class="st3" d="M150.4,74c4.7-1.2,89-28.8,89-28.8L282,68L321,190.1l-120.4,45.5c-2.5,1-5.3-0.4-6.2-3L146.1,83.9
		c0,0-3.3-7,2.3-9.1L150.4,74z"/>
	<g>
		<path class="st2" d="M252.2,76.4c-1.6,0-3-1-3.6-2.6l-9.3-27.6l40.4,21.7l-26.4,8.3C252.9,76.3,252.5,76.4,252.2,76.4L252.2,76.4z
			"/>
		<path class="st3" d="M240.2,47.2l38.2,20.5l-25.3,8c-0.3,0.1-0.6,0.2-1,0.2c-1.4,0-2.6-0.9-3.1-2.2L240.2,47.2 M238.5,45.1
			l9.7,28.8c0.6,1.8,2.2,2.9,4,2.9c0.4,0,0.9-0.1,1.3-0.2L281,68L238.5,45.1L238.5,45.1z"/>
	</g>
	<g>
		<path class="st2" d="M423.7,138.4v3.5h-24.9v-3.5H423.7z"/>
	</g>
	<g>
	</g>
	<g>
		<path class="st2" d="M322.8,209.8l8,8.1l7.7-7.6l2,2.1l-7.7,7.6l8.1,8.2l-2.2,2.2l-8.1-8.2l-7.7,7.6l-2-2.1l7.7-7.6l-8-8.1
			L322.8,209.8z"/>
	</g>
	<g>
		<path class="st2" d="M422.9,217.4v3.5H398v-3.5H422.9z"/>
	</g>
	<circle class="st2" cx="410" cy="209.4" r="3.6"/>
	<circle class="st2" cx="410" cy="229.7" r="3.6"/>
	<path class="st4" d="M234.8,80.3c-3.8,1.3-57.2,18.3-57.2,18.3"/>
	<path class="st4" d="M241.6,98.9c-3.8,1.3-57.2,18.3-57.2,18.3"/>
	<path class="st4" d="M248.9,117.7c-3.8,1.3-57.2,18.3-57.2,18.3"/>
	<path class="st4" d="M254.7,136.5c-3.8,1.3-57.2,18.3-57.2,18.3"/>
	<g>
		<path class="st2" d="M61.5,75.4c1.5,2.9,0.7,5.2-1.2,6.2c-1.8,0.9-4.1,0.4-5.6-2.4C53.2,76.4,54,74,55.9,73
			C58,72,60.1,72.7,61.5,75.4z M56.2,78.3c0.9,1.8,2.3,2.8,3.5,2.1c1.3-0.7,1.2-2.3,0.2-4.1c-0.9-1.7-2.1-2.8-3.5-2.1
			C55.2,74.8,55.3,76.5,56.2,78.3z M63.1,87.4l1.1-18.7l1.3-0.7l-1.1,18.7L63.1,87.4z M73.9,76.1c1.5,2.9,0.7,5.2-1.2,6.2
			c-1.8,0.9-4.1,0.4-5.6-2.4c-1.5-2.8-0.7-5.1,1.3-6.2C70.4,72.7,72.5,73.5,73.9,76.1z M68.6,79c0.9,1.8,2.3,2.7,3.5,2.1
			c1.3-0.7,1.2-2.3,0.2-4.1c-0.9-1.7-2.1-2.8-3.5-2.1C67.7,75.6,67.7,77.3,68.6,79z"/>
	</g>
	<g>
		<path class="st2" d="M101.1,225.4l1.2-7.3h-3.8V216h4.2l0.9-5.4h-3.9v-2.2h4.4l1.2-7.1h2.7l-1.1,7.1h4.8l1.2-7.1h2.7l-1.1,7.1h3.8
			v2.2h-4.2L113,216h3.9v2.2h-4.4l-1.2,7.3h-2.8l1.2-7.3H105l-1.2,7.3H101.1z M110.2,216l0.9-5.4h-4.8l-0.9,5.4H110.2z"/>
	</g>
	<g>
		<path class="st2" d="M117.3,114.8c2.1,1.8,3.2,1.1,3.8,0.3c0.5-0.6,1-1.4,1.4-2.1c0.4-0.7,0.8-1.5,1.4-2.1
			c1.8-2.1,4.3-1.5,6.8,0.6l0.6,0.5l-1.1,1.3l-0.5-0.4c-1.8-1.5-3-1.2-4,0c-0.4,0.5-0.8,1.2-1.2,1.8c-0.4,0.7-0.7,1.3-1.3,1.9
			c-1.2,1.5-2.7,1.5-4.2,0.7l0,0c1.1,1.4,1.3,2.9,0,4.3c-0.5,0.6-1.1,1.1-1.7,1.6c-0.6,0.5-1.1,0.9-1.6,1.5c-1.1,1.3-1,2.6,0.7,4
			l0.5,0.4l-1.1,1.3l-0.6-0.5c-2.5-2.1-3.6-4.4-1.7-6.8c0.5-0.6,1.2-1.2,1.8-1.7c0.6-0.5,1.3-1,1.8-1.7c0.6-0.7,1.1-1.9-1-3.7
			L117.3,114.8z"/>
		<path class="st2" d="M137.8,134.1c-2.1-1.8-3.2-1-3.8-0.3c-0.5,0.6-0.9,1.3-1.3,2.1c-0.4,0.7-0.8,1.5-1.3,2.1
			c-1.9,2.3-4.5,1.6-7-0.5l-0.6-0.5l1.1-1.3l0.5,0.4c1.7,1.4,3,1.3,4.1,0c0.5-0.6,0.8-1.2,1.2-1.8c0.3-0.7,0.7-1.3,1.2-1.9
			c1.2-1.5,2.7-1.6,4.2-0.7l0,0c-1.1-1.4-1.3-2.8-0.1-4.3c0.5-0.6,1.1-1.1,1.7-1.5c0.6-0.5,1.1-0.9,1.6-1.5c1-1.2,1-2.5-0.7-3.9
			l-0.5-0.4l1.1-1.3l0.6,0.5c2.5,2.1,3.6,4.5,1.8,6.7c-0.5,0.6-1.2,1.2-1.8,1.7c-0.7,0.5-1.3,1.1-1.9,1.7c-0.7,0.8-1.1,1.9,1,3.7
			L137.8,134.1z"/>
	</g>
	<g>
		<rect x="51.6" y="129.4" class="st5" width="36.1" height="38.7"/>
		<path class="st2" d="M67.5,153c-1.7,0.9-3.4,1.2-5.4,1.2c-5,0-9.2-3.6-9.2-9.5c0-6.3,4.3-11.7,11.1-11.7c5.3,0,8.8,3.7,8.8,8.8
			c0,4.6-2.6,7.2-5.4,7.2c-1.2,0-2.3-0.8-2.3-2.7h-0.1c-1.1,1.8-2.5,2.7-4.3,2.7c-1.8,0-3.3-1.4-3.3-3.8c0-3.8,3-7.2,7.2-7.2
			c1.3,0,2.5,0.3,3.3,0.6l-1,5.5c-0.5,2.3-0.1,3.4,0.9,3.4c1.6,0,3.3-2,3.3-5.6c0-4.4-2.6-7.6-7.4-7.6c-5,0-9.1,3.9-9.1,10.1
			c0,5.1,3.3,8.2,7.8,8.2c1.7,0,3.3-0.4,4.6-1.1L67.5,153z M65.9,139.9c-0.3-0.1-0.8-0.2-1.5-0.2c-2.7,0-4.8,2.5-4.8,5.5
			c0,1.3,0.7,2.3,2,2.3c1.8,0,3.4-2.2,3.7-4.1L65.9,139.9z"/>
	</g>
	<g>
		<path class="st2" d="M162.6,163.1l2.2,6.5l6.7-2.3l0.6,1.7l-6.7,2.3l2.2,6.5l-1.9,0.6l-2.2-6.5l-6.7,2.3l-0.6-1.7l6.7-2.3
			l-2.2-6.5L162.6,163.1z"/>
	</g>
	<g>
	</g>
	<g>
	</g>
	<g>
	</g>
	<g>
	</g>
	<g>
	</g>
	<g>
	</g>
	<g>
	</g>
	<g>
	</g>
	<g>
	</g>
	<g>
	</g>
	<g>
	</g>
	<g>
	</g>
	<g>
	</g>
	<g>
	</g>
	<g>
	</g>
</g>
</svg>
