<?xml version="1.0" encoding="utf-8"?>
<!-- Generator: Adobe Illustrator 24.3.0, SVG Export Plug-In . SVG Version: 6.00 Build 0)  -->
<svg version="1.1" xmlns="http://www.w3.org/2000/svg" xmlns:xlink="http://www.w3.org/1999/xlink" x="0px" y="0px"
	 viewBox="0 0 460 270" style="enable-background:new 0 0 460 270;" xml:space="preserve">
<style type="text/css">
	.st0{fill:#C8E0FF;}
	.st1{fill:#A5D1FE;}
	.st2{fill:#0000FF;}
	.st3{stroke:#FFFFFF;stroke-width:3;stroke-linecap:round;stroke-miterlimit:10;}
	.st4{fill:none;stroke:#FFFFFF;stroke-width:3;stroke-linecap:round;stroke-miterlimit:10;}
	.st5{fill:#F96701;}
	.st6{fill:#FF9898;}
	.st7{fill:#FFACB6;}
	.st8{fill:none;stroke:#F96701;stroke-width:10;stroke-linecap:round;stroke-miterlimit:10;}
</style>
<g id="Layer_1">
</g>
<g id="Layer_2">
	<path class="st0" d="M302.7,21.8c0,0,14.3-0.4,14.3,32.2v174.4c0,6.2,2.2,12.2,6.5,16.7c1.9,2,3.8,3.2,5.2,2.4h-69.9l-3-225.7
		L302.7,21.8z"/>
	<path class="st1" d="M292.3,24.7c0,0,8.3,4,7.4,20.9c-0.9,16.9,0.1,189.3,0.1,189.3s-0.5,11.7,11.2,12.6H183.8
		c0,0-17.4-2.6-17.8-20.4c-0.4-17.8,0-205.3,0-205.3L292.3,24.7z"/>
	<path class="st0" d="M351.4,53.9c0,0,11,0.1,11.7,20.4c0.6,17,0.2,67.1,0,82.7c0,5.2,2,10.2,5.9,13.6c2.4,2.1,5.6,3.8,9.9,3.9
		h-40.3C338.5,174.6,302.2,59.6,351.4,53.9z"/>
	<path class="st1" d="M344.9,57.8c0,0,6.9,5.6,6.5,23c-0.4,15.2-0.1,65.6,0,77.7c0,2.9,0.6,5.8,1.7,8.5c1.6,3.6,4.6,7.6,10,7.6
		h-24.6C338.5,174.6,317.9,60.9,344.9,57.8z"/>
	<path class="st2" d="M153.4,21.8c0,0-9.7-1.2-16.1,9.4c-2.3,3.9-3.4,8.4-3.4,13v165.2h150.6V37.4c0,0,0.9-14.8,18.2-15.7
		L153.4,21.8z"/>
	<line class="st3" x1="191.6" y1="61.6" x2="261.7" y2="61.6"/>
	<line class="st3" x1="191.6" y1="72" x2="261.7" y2="72"/>
	<line class="st4" x1="191.6" y1="102.4" x2="261.7" y2="102.4"/>
	<line class="st4" x1="192.3" y1="112.2" x2="230.7" y2="112.2"/>
	<line class="st4" x1="191.6" y1="123.8" x2="244.6" y2="123.8"/>
	<line class="st4" x1="191.6" y1="145.2" x2="261.7" y2="145.2"/>
	<rect x="156" y="59.6" class="st4" width="25.2" height="22"/>
	<rect x="156" y="100.9" class="st4" width="25.2" height="25.2"/>
	<rect x="156" y="142" class="st4" width="25.2" height="23.4"/>
	<path class="st2" d="M317.1,53.9h34.3c0,0-12.6,2.2-12.6,23c0,18.6-0.3,126.8-0.4,150.1c0,4.4-0.8,8.8-2.4,12.9
		c-2.3,5.7-6.4,11.2-12.8,4.6c-4-4-6-9.6-6-15.2V53.9z"/>
	<line class="st4" x1="190.3" y1="155.3" x2="227.4" y2="155.3"/>
	<rect x="27.5" y="109.6" class="st5" width="18.6" height="143"/>
	<rect x="57.6" y="133.3" class="st6" width="15" height="119.2"/>
	<rect x="87.7" y="162.8" class="st7" width="15" height="89.7"/>
	<line class="st8" x1="377.5" y1="235" x2="436.9" y2="172.2"/>
	<polygon class="st2" points="380.4,240.1 370.8,247 363.1,252.5 367.4,243.4 372.6,232.5 	"/>
	<polygon class="st0" points="374.2,229.9 382.4,238 380.4,240.1 372.6,232.5 	"/>
	<polygon class="st0" points="369.1,248.1 363.1,252.5 366.5,245.2 	"/>
	<g>
	</g>
	<g>
	</g>
	<g>
	</g>
	<g>
	</g>
	<g>
	</g>
	<g>
	</g>
	<g>
	</g>
	<g>
	</g>
	<g>
	</g>
	<g>
	</g>
	<g>
	</g>
	<g>
	</g>
	<g>
	</g>
	<g>
	</g>
	<g>
	</g>
</g>
</svg>
