<?xml version="1.0" encoding="utf-8"?>
<!-- Generator: Adobe Illustrator 24.3.0, SVG Export Plug-In . SVG Version: 6.00 Build 0)  -->
<svg version="1.1" xmlns="http://www.w3.org/2000/svg" xmlns:xlink="http://www.w3.org/1999/xlink" x="0px" y="0px"
	 viewBox="0 0 460 270" style="enable-background:new 0 0 460 270;" xml:space="preserve">
<style type="text/css">
	.st0{fill:#00217E;}
	.st1{fill:#A5D1FE;}
	.st2{fill:#FFFFFF;}
	.st3{fill:none;stroke:#FFFFFF;stroke-miterlimit:10;}
	.st4{fill:#F96701;}
	.st5{fill:#C8E0FF;}
	.st6{fill:#F1F7FF;}
	.st7{fill:#0000FF;}
</style>
<g id="Layer_1">
</g>
<g id="Layer_2">
	<path class="st0" d="M399.7,38.4v191.9c0,6.8-5.6,12.3-12.3,12.3H72.7c-6.8,0-12.3-5.6-12.3-12.3V38.4c0-6.8,5.6-12.3,12.3-12.3
		h314.7C394.1,26,399.7,31.6,399.7,38.4z"/>
	<path class="st1" d="M222.8,51.3h-33.7c-2.7,0-4.9-2.2-4.9-4.9v-0.3c0-2.7,2.2-4.9,4.9-4.9h33.7c2.7,0,4.9,2.2,4.9,4.9v0.3
		C227.7,49.1,225.5,51.3,222.8,51.3z"/>
	<path class="st2" d="M295.8,115.5H187.5c-1.8,0-3.3-1.5-3.3-3.3V65.2c0-1.8,1.5-3.3,3.3-3.3h108.4c1.8,0,3.3,1.5,3.3,3.3v47.1
		C299.1,114.1,297.6,115.5,295.8,115.5z"/>
	<path class="st3" d="M295.8,205.8H187.5c-1.8,0-3.3-1.5-3.3-3.3v-74.7c0-1.8,1.5-3.3,3.3-3.3h108.4c1.8,0,3.3,1.5,3.3,3.3v74.7
		C299.1,204.4,297.6,205.8,295.8,205.8z"/>
	<path class="st2" d="M295.8,230.1H187.5c-1.8,0-3.3-1.5-3.3-3.3v-10.6c0-1.8,1.5-3.3,3.3-3.3h108.4c1.8,0,3.3,1.5,3.3,3.3v10.6
		C299.1,228.6,297.6,230.1,295.8,230.1z"/>
	<path class="st4" d="M376.3,230.1h-64.6c-1.8,0-3.3-1.5-3.3-3.3v-10.6c0-1.8,1.5-3.3,3.3-3.3h64.6c1.8,0,3.3,1.5,3.3,3.3v10.6
		C379.6,228.6,378.1,230.1,376.3,230.1z"/>
	<path class="st2" d="M376.3,205.8h-64.6c-1.8,0-3.3-1.5-3.3-3.3v-96.2c0-1.8,1.5-3.3,3.3-3.3h64.6c1.8,0,3.3,1.5,3.3,3.3v96.2
		C379.6,204.4,378.1,205.8,376.3,205.8z"/>
	<path class="st2" d="M376.3,96h-64.6c-1.8,0-3.3-1.5-3.3-3.3V63.9c0-1.8,1.5-3.3,3.3-3.3h64.6c1.8,0,3.3,1.5,3.3,3.3v28.8
		C379.6,94.5,378.1,96,376.3,96z"/>
	<path class="st1" d="M216.9,72h-20.3c-1,0-1.8-0.8-1.8-1.8v-0.1c0-1,0.8-1.8,1.8-1.8h20.3c1,0,1.8,0.8,1.8,1.8v0.1
		C218.7,71.2,217.9,72,216.9,72z"/>
	<path class="st1" d="M246.7,88.8h-15.4c-0.7,0-1.3-0.6-1.3-1.3v-0.1c0-0.7,0.6-1.3,1.3-1.3h15.4c0.7,0,1.3,0.6,1.3,1.3v0.1
		C247.9,88.2,247.4,88.8,246.7,88.8z"/>
	<path class="st5" d="M284.9,96h-54.2c-0.4,0-0.7-0.3-0.7-0.7v0c0-0.4,0.3-0.7,0.7-0.7h54.2c0.4,0,0.7,0.3,0.7,0.7v0
		C285.6,95.7,285.3,96,284.9,96z"/>
	<path class="st1" d="M276.3,103.1h-45c-0.7,0-1.3-0.6-1.3-1.3v-0.1c0-0.7,0.6-1.3,1.3-1.3h45c0.7,0,1.3,0.6,1.3,1.3v0.1
		C277.6,102.5,277,103.1,276.3,103.1z"/>
	<path class="st1" d="M341.3,72h-21.6c-1,0-1.8-0.8-1.8-1.8v-0.1c0-1,0.8-1.8,1.8-1.8h21.6c1,0,1.8,0.8,1.8,1.8v0.1
		C343.2,71.2,342.3,72,341.3,72z"/>
	<path class="st5" d="M333.1,84H319c-0.6,0-1-0.5-1-1v-0.1c0-0.6,0.5-1,1-1h14.1c0.6,0,1,0.5,1,1v0.1C334.1,83.5,333.7,84,333.1,84z
		"/>
	<path class="st1" d="M349.1,88.8h-30.6c-0.4,0-0.6-0.3-0.6-0.6v0c0-0.4,0.3-0.6,0.6-0.6h30.6c0.4,0,0.6,0.3,0.6,0.6v0
		C349.8,88.5,349.5,88.8,349.1,88.8z"/>
	<path class="st5" d="M343.7,115.5h-11.6c-0.9,0-1.5-0.7-1.5-1.5v-0.1c0-0.9,0.7-1.5,1.5-1.5h11.6c0.9,0,1.5,0.7,1.5,1.5v0.1
		C345.3,114.9,344.6,115.5,343.7,115.5z"/>
	<path class="st1" d="M355.9,120.1h-24.8c-0.3,0-0.5-0.2-0.5-0.5v0c0-0.3,0.2-0.5,0.5-0.5h24.8c0.3,0,0.5,0.2,0.5,0.5v0
		C356.4,119.8,356.2,120.1,355.9,120.1z"/>
	<path class="st5" d="M344.3,133.7h-11.6c-0.9,0-1.5-0.7-1.5-1.5V132c0-0.9,0.7-1.5,1.5-1.5h11.6c0.9,0,1.5,0.7,1.5,1.5v0.1
		C345.9,133,345.2,133.7,344.3,133.7z"/>
	<path class="st1" d="M356.5,138.2h-24.8c-0.3,0-0.5-0.2-0.5-0.5v0c0-0.3,0.2-0.5,0.5-0.5h24.8c0.3,0,0.5,0.2,0.5,0.5v0
		C357,138,356.8,138.2,356.5,138.2z"/>
	<path class="st5" d="M344.3,153.8h-11.6c-0.9,0-1.5-0.7-1.5-1.5v-0.1c0-0.9,0.7-1.5,1.5-1.5h11.6c0.9,0,1.5,0.7,1.5,1.5v0.1
		C345.9,153.1,345.2,153.8,344.3,153.8z"/>
	<path class="st1" d="M356.5,158.3h-24.8c-0.3,0-0.5-0.2-0.5-0.5v0c0-0.3,0.2-0.5,0.5-0.5h24.8c0.3,0,0.5,0.2,0.5,0.5v0
		C357,158.1,356.8,158.3,356.5,158.3z"/>
	<path class="st5" d="M343.7,172.7h-11.6c-0.9,0-1.5-0.7-1.5-1.5v-0.1c0-0.9,0.7-1.5,1.5-1.5h11.6c0.9,0,1.5,0.7,1.5,1.5v0.1
		C345.3,172,344.6,172.7,343.7,172.7z"/>
	<path class="st1" d="M355.6,176.7h-24.8c-0.3,0-0.5-0.2-0.5-0.5v0c0-0.3,0.2-0.5,0.5-0.5h24.8c0.3,0,0.5,0.2,0.5,0.5v0
		C356.1,176.5,355.9,176.7,355.6,176.7z"/>
	<path class="st5" d="M344.3,192h-11.6c-0.9,0-1.5-0.7-1.5-1.5v-0.1c0-0.9,0.7-1.5,1.5-1.5h11.6c0.9,0,1.5,0.7,1.5,1.5v0.1
		C345.9,191.3,345.2,192,344.3,192z"/>
	<path class="st1" d="M356.5,196.5h-24.8c-0.3,0-0.5-0.2-0.5-0.5v0c0-0.3,0.2-0.5,0.5-0.5h24.8c0.3,0,0.5,0.2,0.5,0.5v0
		C357,196.3,356.8,196.5,356.5,196.5z"/>
	<path class="st5" d="M216.1,141.4h-20.3c-1,0-1.8-0.8-1.8-1.8v-0.1c0-1,0.8-1.8,1.8-1.8h20.3c1,0,1.8,0.8,1.8,1.8v0.1
		C217.9,140.6,217.1,141.4,216.1,141.4z"/>
	<rect x="194.8" y="146.9" class="st5" width="95" height="0.8"/>
	<rect x="210.7" y="154.5" class="st5" width="7.2" height="36"/>
	<rect x="225.9" y="162.8" class="st1" width="6.6" height="27.7"/>
	<rect x="239" y="171.1" class="st5" width="6.8" height="19.3"/>
	<rect x="253.8" y="157.2" class="st6" width="6.8" height="33.2"/>
	<rect x="269.4" y="154.5" class="st1" width="6.1" height="36"/>
	<rect x="194.2" y="191.6" class="st5" width="95" height="0.8"/>
	<path class="st7" d="M166.2,26v216.6H72.7c-6.8,0-12.3-5.6-12.3-12.3V38.4c0-6.8,5.6-12.3,12.3-12.3H166.2z"/>
	<circle class="st5" cx="206.8" cy="97.1" r="11"/>
	<path class="st2" d="M145.1,125.6h-43.2c-2.7,0-4.9-2.2-4.9-4.9v-0.3c0-2.7,2.2-4.9,4.9-4.9h43.2c2.7,0,4.9,2.2,4.9,4.9v0.3
		C150,123.4,147.8,125.6,145.1,125.6z"/>
	<path class="st2" d="M144.1,192.4h-43.2c-2.7,0-4.9-2.2-4.9-4.9v-0.3c0-2.7,2.2-4.9,4.9-4.9h43.2c2.7,0,4.9,2.2,4.9,4.9v0.3
		C149,190.2,146.8,192.4,144.1,192.4z"/>
	<path class="st4" d="M156.6,103.9H67.8c-1.2,0-2.2-1-2.2-2.2V87.5c0-1.2,1-2.2,2.2-2.2h88.8c1.2,0,2.2,1,2.2,2.2v14.2
		C158.8,102.9,157.8,103.9,156.6,103.9z"/>
	<path class="st2" d="M148.6,100.3h-43.2c-2.7,0-4.9-2.2-4.9-4.9v-0.3c0-2.7,2.2-4.9,4.9-4.9h43.2c2.7,0,4.9,2.2,4.9,4.9v0.3
		C153.5,98.1,151.3,100.3,148.6,100.3z"/>
	<circle class="st4" cx="80.2" cy="70.2" r="5"/>
	<circle class="st4" cx="80.2" cy="120.1" r="5"/>
	<circle class="st4" cx="80.2" cy="187.4" r="5"/>
	<rect x="65.8" y="140.1" class="st5" width="95" height="0.8"/>
	<rect x="65.8" y="147.7" class="st5" width="95" height="0.8"/>
	<rect x="65.8" y="154.8" class="st5" width="95" height="0.8"/>
	<rect x="79" y="204" class="st5" width="68.5" height="1.2"/>
	<rect x="79" y="215.4" class="st5" width="68.5" height="1.2"/>
	<rect x="79" y="226.1" class="st5" width="68.5" height="1.2"/>
	<rect x="97" y="57.5" class="st5" width="44.1" height="0.8"/>
	<rect x="97" y="64.7" class="st5" width="44.1" height="0.8"/>
	<rect x="97" y="71.6" class="st5" width="44.1" height="0.8"/>
	<path class="st4" d="M274.6,51.3h-33.7c-2.7,0-4.9-2.2-4.9-4.9v-0.3c0-2.7,2.2-4.9,4.9-4.9h33.7c2.7,0,4.9,2.2,4.9,4.9v0.3
		C279.6,49.1,277.3,51.3,274.6,51.3z"/>
	<g>
	</g>
	<g>
	</g>
	<g>
	</g>
	<g>
	</g>
	<g>
	</g>
	<g>
	</g>
	<g>
	</g>
	<g>
	</g>
	<g>
	</g>
	<g>
	</g>
	<g>
	</g>
	<g>
	</g>
	<g>
	</g>
	<g>
	</g>
	<g>
	</g>
</g>
</svg>
