<svg id="Google_Play" data-name="Google Play" xmlns="http://www.w3.org/2000/svg" xmlns:xlink="http://www.w3.org/1999/xlink" width="160" height="46.252" viewBox="0 0 160 46.252">
  <defs>
    <linearGradient id="linear-gradient" x1="0.807" y1="0.5" x2="-1.572" y2="0.5" gradientUnits="objectBoundingBox">
      <stop offset="0" stop-color="#fee000"/>
      <stop offset="0.42" stop-color="#fbbc0e"/>
      <stop offset="0.78" stop-color="#faa418"/>
      <stop offset="1" stop-color="#f99b1c"/>
    </linearGradient>
    <linearGradient id="linear-gradient-2" x1="0.862" y1="0.179" x2="-0.502" y2="1.951" gradientUnits="objectBoundingBox">
      <stop offset="0" stop-color="#ef4547"/>
      <stop offset="1" stop-color="#c6186d"/>
    </linearGradient>
    <linearGradient id="linear-gradient-3" x1="-0.507" y1="-0.957" x2="0.606" y2="0.489" gradientUnits="objectBoundingBox">
      <stop offset="0" stop-color="#279e6f"/>
      <stop offset="0.04" stop-color="#2ba06f"/>
      <stop offset="0.46" stop-color="#53b26c"/>
      <stop offset="0.8" stop-color="#6bbd6a"/>
      <stop offset="1" stop-color="#74c169"/>
    </linearGradient>
  </defs>
  <rect id="Rectangle_862" data-name="Rectangle 862" width="160" height="46.252" rx="6"/>
  <path id="Path_1794" data-name="Path 1794" d="M97.635,32.256a5.067,5.067,0,1,0,5.081,5.067,5,5,0,0,0-5.081-5.067Zm0,8.148a3.081,3.081,0,1,1,2.859-3.074A2.963,2.963,0,0,1,97.635,40.4ZM86.524,32.256a5.067,5.067,0,1,0,5.089,5.067,5,5,0,0,0-5.089-5.067Zm0,8.148a3.081,3.081,0,1,1,2.859-3.074A2.963,2.963,0,0,1,86.524,40.4ZM73.317,33.812V35.96h5.141a4.444,4.444,0,0,1-1.17,2.711,5.259,5.259,0,0,1-3.97,1.57,5.719,5.719,0,1,1,0-11.437,5.452,5.452,0,0,1,3.874,1.533l1.481-1.519a7.481,7.481,0,0,0-5.393-2.17,7.874,7.874,0,1,0,0,15.741,7.17,7.17,0,0,0,5.489-2.222,7.081,7.081,0,0,0,1.859-5.03,7.259,7.259,0,0,0-.111-1.341Zm53.948,1.667a4.711,4.711,0,0,0-4.333-3.222,4.815,4.815,0,0,0-4.785,5.067,4.963,4.963,0,0,0,5.03,5.067,5.022,5.022,0,0,0,4.222-2.222l-1.726-1.148a2.9,2.9,0,0,1-2.5,1.4,2.57,2.57,0,0,1-2.452-1.541l6.77-2.8Zm-6.911,1.689a2.785,2.785,0,0,1,2.652-2.963,1.963,1.963,0,0,1,1.881,1.081Zm-5.5,4.919h2.222v-14.9H114.85Zm-3.652-8.7h-.074a3.519,3.519,0,0,0-2.667-1.133,5.074,5.074,0,0,0,0,10.133,3.444,3.444,0,0,0,2.667-1.148h.074v.741c0,1.941-1.03,2.963-2.7,2.963a2.807,2.807,0,0,1-2.556-1.807l-1.9.807a4.815,4.815,0,0,0,4.489,2.963c2.615,0,4.822-1.533,4.822-5.274V32.567h-2.119ZM108.65,40.4a3.081,3.081,0,0,1,0-6.141,2.874,2.874,0,0,1,2.7,3.089A2.83,2.83,0,0,1,108.68,40.4Zm29.044-13.207h-5.326v14.9h2.222V36.441h3.1a4.63,4.63,0,1,0,0-9.252Zm.059,7.178h-3.163v-5.1h3.163a2.556,2.556,0,1,1,0,5.1Zm13.741-2.141a4.178,4.178,0,0,0-3.97,2.281l1.978.822a2.1,2.1,0,0,1,2.03-1.089,2.134,2.134,0,0,1,2.333,1.919v.148a4.9,4.9,0,0,0-2.319-.57c-2.126,0-4.289,1.17-4.289,3.348a3.44,3.44,0,0,0,3.7,3.281,3.141,3.141,0,0,0,2.837-1.481h.074v1.148h2.148v-5.7c.022-2.622-1.948-4.1-4.5-4.1Zm-.267,8.148c-.741,0-1.748-.363-1.748-1.259,0-1.156,1.267-1.593,2.356-1.593a3.933,3.933,0,0,1,2.1.5,2.689,2.689,0,0,1-2.674,2.37Zm12.593-7.837-2.481,6.474h-.081l-2.644-6.459H156.22l3.963,9.03L157.961,46.6h2.319l6.111-14.074Zm-20,9.533h2.222V27.189H143.82Z" transform="translate(-16.894 -6.908)" fill="#fff"/>
  <path id="Path_1795" data-name="Path 1795" d="M15.967,11.349a2.393,2.393,0,0,0-.548,1.667V39.341a2.4,2.4,0,0,0,.548,1.674l.089.089L30.8,26.356v-.348L16.056,11.26Z" transform="translate(-3.996 -2.919)" fill="#5bc9f4"/>
  <path id="Path_1796" data-name="Path 1796" d="M41.109,34.715,36.19,29.8v-.348l4.919-4.919.111.067,5.822,3.3c1.667.948,1.667,2.5,0,3.437l-5.807,3.311Z" transform="translate(-9.383 -6.36)" fill="url(#linear-gradient)"/>
  <path id="Path_1797" data-name="Path 1797" d="M36.049,36.43,31,31.4,16.19,46.215a1.937,1.937,0,0,0,2.474.074L36.049,36.43" transform="translate(-4.197 -8.141)" fill="url(#linear-gradient-2)"/>
  <path id="Path_1798" data-name="Path 1798" d="M36.041,21.02,18.634,11.139a1.924,1.924,0,0,0-2.474.074L30.975,26.028Z" transform="translate(-4.19 -2.783)" fill="url(#linear-gradient-3)"/>
  <path id="Path_1799" data-name="Path 1799" d="M71.326,11.966a2.57,2.57,0,0,0-1.689-.652,2.63,2.63,0,0,0-2.593,2.7A2.615,2.615,0,0,0,69.637,16.7a2.037,2.037,0,0,0,2.222-1.9H69.882V13.98h3.067c0,2.467-1.311,3.622-3.311,3.622a3.6,3.6,0,0,1,0-7.193,3.467,3.467,0,0,1,2.341.926Z" transform="translate(-17.163 -2.699)" fill="#fff"/>
  <path id="Path_1800" data-name="Path 1800" d="M81.208,10.52v.889h-3.2v2.222H80.8v.881H78.008v2.119h3.3v.911H77.06V10.52Z" transform="translate(-19.979 -2.727)" fill="#fff"/>
  <path id="Path_1801" data-name="Path 1801" d="M89.162,10.52v.9H87v6.126h-.956V11.416H83.91v-.9Z" transform="translate(-21.754 -2.727)" fill="#fff"/>
  <path id="Path_1802" data-name="Path 1802" d="M96.741,10.52v7.022H95.8V10.52Z" transform="translate(-24.837 -2.727)" fill="#fff"/>
  <path id="Path_1803" data-name="Path 1803" d="M103.957,10.52v.9h-2.126v6.126h-.956V11.416H98.75v-.9Z" transform="translate(-25.602 -2.727)" fill="#fff"/>
  <path id="Path_1804" data-name="Path 1804" d="M113.548,10.41A3.6,3.6,0,1,1,110,14.01a3.556,3.556,0,0,1,3.548-3.6Zm0,6.274a2.615,2.615,0,0,0,2.607-2.674,2.6,2.6,0,1,0-5.185,0,2.607,2.607,0,0,0,2.578,2.674Z" transform="translate(-28.518 -2.699)" fill="#fff"/>
  <path id="Path_1805" data-name="Path 1805" d="M125.7,17.542l-3.193-5.274v5.274h-.948V10.52h.941l3.163,5.237V10.52h.941v7.022Z" transform="translate(-31.516 -2.727)" fill="#fff"/>
</svg>
