<svg xmlns="http://www.w3.org/2000/svg" xmlns:xlink="http://www.w3.org/1999/xlink" width="665.376" height="591.421" viewBox="0 0 665.376 591.421">
  <defs>
    <linearGradient id="linear-gradient" x1="0.464" y1="0.073" x2="0.547" y2="1.077" gradientUnits="objectBoundingBox">
      <stop offset="0" stop-color="#0b39fa"/>
      <stop offset="0.99" stop-color="#00165e"/>
    </linearGradient>
    <linearGradient id="linear-gradient-2" x1="-3.652" y1="0.365" x2="-4.617" y2="1.371" gradientUnits="objectBoundingBox">
      <stop offset="0" stop-color="#486fff"/>
      <stop offset="1" stop-color="#6c9dff"/>
    </linearGradient>
    <linearGradient id="linear-gradient-3" x1="-73.91" y1="0.196" x2="-74.764" y2="1.682" xlink:href="#linear-gradient-2"/>
    <linearGradient id="linear-gradient-4" x1="-1.586" y1="0.488" x2="-2.41" y2="1.371" xlink:href="#linear-gradient-2"/>
    <linearGradient id="linear-gradient-5" x1="-49.919" y1="0.283" x2="-50.45" y2="1.914" xlink:href="#linear-gradient-2"/>
    <linearGradient id="linear-gradient-6" x1="-125.357" y1="0.5" x2="-124.026" y2="0.5" gradientUnits="objectBoundingBox">
      <stop offset="0" stop-color="#0b39fa"/>
      <stop offset="0.47" stop-color="#062bd7"/>
      <stop offset="1" stop-color="#001cae"/>
    </linearGradient>
    <linearGradient id="linear-gradient-7" x1="4.642" y1="0.054" x2="4.605" y2="0.301" gradientUnits="objectBoundingBox">
      <stop offset="0" stop-color="#0b39fa"/>
      <stop offset="1" stop-color="#486fff"/>
    </linearGradient>
    <linearGradient id="linear-gradient-8" x1="5.024" y1="0.217" x2="4.958" y2="0.563" xlink:href="#linear-gradient-7"/>
    <linearGradient id="linear-gradient-9" x1="9.365" y1="0.5" x2="10.365" y2="0.5" gradientUnits="objectBoundingBox">
      <stop offset="0" stop-color="#00165e"/>
      <stop offset="1" stop-color="#001cae"/>
    </linearGradient>
    <linearGradient id="linear-gradient-10" x1="15.839" y1="0.501" x2="16.838" y2="0.501" xlink:href="#linear-gradient-9"/>
    <linearGradient id="linear-gradient-11" x1="1.546" y1="0.186" x2="1.533" y2="0.638" xlink:href="#linear-gradient-7"/>
    <linearGradient id="linear-gradient-12" x1="2.406" y1="0.5" x2="3.406" y2="0.5" xlink:href="#linear-gradient-9"/>
    <linearGradient id="linear-gradient-13" x1="11.023" y1="0.5" x2="12.023" y2="0.5" xlink:href="#linear-gradient-7"/>
    <linearGradient id="linear-gradient-14" x1="11.064" y1="0.326" x2="10.921" y2="0.647" xlink:href="#linear-gradient-7"/>
    <linearGradient id="linear-gradient-15" x1="19.793" y1="0.5" x2="20.793" y2="0.5" xlink:href="#linear-gradient-9"/>
    <linearGradient id="linear-gradient-16" x1="-2.974" y1="0.31" x2="-3.033" y2="0.59" xlink:href="#linear-gradient-7"/>
    <linearGradient id="linear-gradient-17" x1="-3.714" y1="0.081" x2="-3.782" y2="0.52" xlink:href="#linear-gradient-7"/>
    <linearGradient id="linear-gradient-18" x1="-9.459" y1="1.243" x2="-8.459" y2="1.243" gradientUnits="objectBoundingBox">
      <stop offset="0" stop-color="#001cae"/>
      <stop offset="0.99" stop-color="#00165e"/>
    </linearGradient>
    <linearGradient id="linear-gradient-19" x1="-16.435" y1="0.421" x2="-15.331" y2="0.515" xlink:href="#linear-gradient-7"/>
    <linearGradient id="linear-gradient-20" x1="-17.03" y1="0.547" x2="-17.954" y2="0.496" xlink:href="#linear-gradient-7"/>
    <linearGradient id="linear-gradient-21" x1="-4.516" y1="0.501" x2="-3.516" y2="0.501" xlink:href="#linear-gradient-9"/>
    <linearGradient id="linear-gradient-22" x1="8.356" y1="0.322" x2="8.241" y2="0.897" xlink:href="#linear-gradient-18"/>
    <linearGradient id="linear-gradient-23" x1="8.874" y1="0.5" x2="9.874" y2="0.5" xlink:href="#linear-gradient-6"/>
    <linearGradient id="linear-gradient-24" x1="4.726" y1="-0.042" x2="4.511" y2="1.03" xlink:href="#linear-gradient-18"/>
    <linearGradient id="linear-gradient-25" x1="3.781" y1="0.5" x2="4.782" y2="0.5" xlink:href="#linear-gradient-6"/>
    <linearGradient id="linear-gradient-26" x1="2.131" y1="0.274" x2="2.016" y2="0.848" xlink:href="#linear-gradient-18"/>
    <linearGradient id="linear-gradient-27" x1="0.47" y1="0.216" x2="1.229" y2="0.878" xlink:href="#linear-gradient-6"/>
    <linearGradient id="linear-gradient-28" x1="-0.472" y1="-0.042" x2="-0.687" y2="1.03" xlink:href="#linear-gradient-18"/>
    <linearGradient id="linear-gradient-29" x1="-3.321" y1="0.501" x2="-2.321" y2="0.501" xlink:href="#linear-gradient-6"/>
    <linearGradient id="linear-gradient-30" x1="5.864" y1="0.5" x2="6.864" y2="0.5" xlink:href="#linear-gradient-7"/>
    <linearGradient id="linear-gradient-31" x1="3.732" y1="0.5" x2="4.732" y2="0.5" xlink:href="#linear-gradient-7"/>
    <linearGradient id="linear-gradient-32" x1="4.079" y1="0.035" x2="4.169" y2="0.634" xlink:href="#linear-gradient-7"/>
    <linearGradient id="linear-gradient-33" x1="2.905" y1="0.259" x2="2.813" y2="0.752" xlink:href="#linear-gradient-7"/>
    <linearGradient id="linear-gradient-34" x1="3.007" y1="1.54" x2="4.007" y2="1.54" xlink:href="#linear-gradient-18"/>
    <linearGradient id="linear-gradient-35" x1="5.657" y1="0.499" x2="6.658" y2="0.499" xlink:href="#linear-gradient-9"/>
    <linearGradient id="linear-gradient-36" x1="5.935" y1="0.018" x2="5.825" y2="0.37" xlink:href="#linear-gradient-7"/>
    <linearGradient id="linear-gradient-37" x1="6.02" y1="0.239" x2="5.919" y2="0.613" xlink:href="#linear-gradient-7"/>
    <linearGradient id="linear-gradient-38" x1="10.248" y1="0.499" x2="11.248" y2="0.499" xlink:href="#linear-gradient-9"/>
    <linearGradient id="linear-gradient-39" x1="5.829" y1="0.311" x2="5.714" y2="0.885" xlink:href="#linear-gradient-18"/>
    <linearGradient id="linear-gradient-40" x1="5.398" y1="0.5" x2="6.398" y2="0.5" xlink:href="#linear-gradient-6"/>
    <linearGradient id="linear-gradient-41" x1="3.138" y1="0.251" x2="3.023" y2="0.825" gradientUnits="objectBoundingBox">
      <stop offset="0" stop-color="#001cae"/>
      <stop offset="0.23" stop-color="#001ba1"/>
      <stop offset="0.64" stop-color="#00187f"/>
      <stop offset="0.99" stop-color="#00165e"/>
    </linearGradient>
    <linearGradient id="linear-gradient-42" x1="1.674" y1="0.5" x2="2.674" y2="0.5" xlink:href="#linear-gradient-6"/>
  </defs>
  <g id="landing_page_illustration" data-name="landing page illustration" transform="translate(-126.917 11.997)">
    <g id="Students_Image" data-name="Students Image" transform="translate(358.209 153.738)">
      <path id="Path_224" data-name="Path 224" d="M457.614,203a27.215,27.215,0,0,1,.427,8.9c1.329-.142,2.183-.579,1.4-3.8-1.747-7.082.74-4.433.74-4.433.38,9.161,6.645,9.911,6.645,9.911-2.744-12.246,1.4-5.573,1.4-5.573-.721,6.285,12.2,9.93,15.493,10.2.655.066.949,0,.646-.237-1.747-1.31-.646-6.721-.646-6.721,0-11.041-5.838-11.392-9.626-13.746-5.335-3.323,1.481-1.016,1.481-1.016l6.152,2.364s-1.956-9.626-13.547-10.015,3.123-4.348,3.123-4.348a7.178,7.178,0,0,0-2.117-1.737,9.389,9.389,0,0,0-6.949-.408,26.1,26.1,0,0,0-7.974,4.016,6.93,6.93,0,0,0-6.123,1.414A25.755,25.755,0,0,1,457.614,203Z" transform="translate(-398.68 -181.855)" fill="#9cc3fa"/>
      <path id="Path_225" data-name="Path 225" d="M428.279,210.665a50.058,50.058,0,0,0-3.8,11.325c-1.253-.38-1.9-1.073.085-5.069,4.452-8.81.949-5.8.949-5.8-3.883,11.715-10.348,11.715-10.348,11.715,7.414-15.265.769-7.348.769-7.348-1.709,8.164-15.816,10.822-19.167,10.661-.665,0-.949-.171-.541-.408,2.231-1.414,3.228-8.544,3.228-8.544,4.253-14.145,10.12-13.7,14.753-16.139,6.541-3.437-1.063-1.528-1.063-1.528l-6.958,2.07s5.629-12.028,17.192-10.737-1.4-6.057-1.4-6.057a9.6,9.6,0,0,1,2.753-1.9,7.4,7.4,0,0,1,6.987.551,20.373,20.373,0,0,1,6.3,6.379A5.126,5.126,0,0,1,443.5,192.6C437.687,196.254,432.152,202.6,428.279,210.665Z" transform="translate(-396.041 -181.876)" fill="#9cc3fa"/>
      <path id="Path_226" data-name="Path 226" d="M424.73,249l4.68,21.834s10.67,14.135,24.967,0l4.851-21.35Z" transform="translate(-397.495 -185.257)" fill="#9cc3fa"/>
      <path id="Path_227" data-name="Path 227" d="M442.746,215.87v23.116s-6.5,2.9,0,3.389.845-3.389.845-3.389l.076-23.116Z" transform="translate(-398.261 -183.578)" fill="#a3bde2"/>
      <path id="Path_228" data-name="Path 228" d="M473.634,216.6a3.408,3.408,0,0,1-.949,1.775,17.182,17.182,0,0,0-3.161,4.7,56.868,56.868,0,0,0-4.111,13.471l-12.531-9.1c-12.664-11.772-.256-18.4-4.139-18.986-2.924-.456-3.437,7.718-3.513,11.81v2.25c-3.5-7.756-8.9,1.69-8.648-7.4s-1.9-5.212-1.9-5.212c1.756,11.268-5.012,13.813-5.012,13.813.123-15.635-2.848-6.417-2.848-6.417,2.3,7.471-11.174,15.284-14.771,16.48-.721.247-1.054.218-.778-.123,1.633-2.06-.883-8.364-.883-8.364-2.63-13.452,3.8-15.4,7.4-19.271,5.136-5.449-1.9-.835-1.9-.835l-6.256,4.471a16.678,16.678,0,0,1,12.654-15.749c12.787-3.512-4.509-4.481-4.509-4.481a8.751,8.751,0,0,1,1.9-2.668,9.93,9.93,0,0,1,7.595-2.316,27.719,27.719,0,0,1,9.816,2.848c4.69-2.544,8.705,1.206,8.705,1.206,4.13-16.138,21.692,4.12,21.692,4.12-5.516-.361-5.9.949-5.9.949,16.29,4.965,11.392,15.749,11.392,15.749-5.639-7.879-12.911-8.848-12.911-8.848C462.925,201.294,474.9,210.939,473.634,216.6Z" transform="translate(-396.73 -181.875)" fill="#bed7ff"/>
      <path id="Path_229" data-name="Path 229" d="M445.334,223.38c-3.389-7.756-9.493,1.69-9.218-7.4s-1.813-5.212-1.813-5.212c1.7,11.268-4.851,13.813-4.851,13.813.123-15.635-2.782-6.417-2.782-6.417,2.221,7.471-10.8,15.284-14.24,16.48,4.5-7.813,13.87-26.913,17.382-34.176a1.244,1.244,0,0,1,2.307.18l1.614,5.269a1.566,1.566,0,0,0,2.7.541l5.411-6.493c-.351.608-8.164,14.99-2.772,15.73S445.334,223.38,445.334,223.38Z" transform="translate(-396.871 -182.763)" fill="#9cc3fa"/>
      <path id="Path_230" data-name="Path 230" d="M476.431,218.007a3.484,3.484,0,0,1-.949,1.775,17.41,17.41,0,0,0-3.057,4.7c-4.367-5.326-9.113-14.468-7.12-14.4C465.3,210.08,472.634,212.51,476.431,218.007Z" transform="translate(-399.527 -183.285)" fill="#9cc3fa"/>
      <path id="Path_231" data-name="Path 231" d="M436.16,190.156a9.389,9.389,0,0,1,7.091-3.066,4.329,4.329,0,0,1,1.471,2.06C447.058,195.283,444.391,189.482,436.16,190.156Z" transform="translate(-398.074 -182.12)" fill="#9cc3fa"/>
      <g id="pot" transform="translate(22.859 46.911)">
        <path id="Path_232" data-name="Path 232" d="M420.13,242.389h0a11.26,11.26,0,0,0,6.883,10.044c6.892,3.2,18.161,6.256,30.075.389A11.81,11.81,0,0,0,464,242.38H420.13" transform="translate(-420.12 -231.833)" fill="#bed7ff"/>
        <ellipse id="Ellipse_21" data-name="Ellipse 21" cx="21.939" cy="10.547" rx="21.939" ry="10.547" fill="#9cc3fa"/>
        <ellipse id="Ellipse_22" data-name="Ellipse 22" cx="17.449" cy="7.879" rx="17.449" ry="7.879" transform="translate(4.376 2.914)" fill="#bed7ff"/>
      </g>
    </g>
    <g id="monitor" transform="translate(455.46 -11.997)">
      <path id="Path_233" data-name="Path 233" d="M587.294,300.31,550.51,321.183l87,50.477,39.2-22.551L608.51,309.9Z" transform="translate(-485.754 -29.424)" fill="#bed7ff"/>
      <path id="Path_234" data-name="Path 234" d="M630.342,320.4,591.32,298.68l.244,32.545,38.67,22.018Z" transform="translate(-489.752 -29.264)" fill="#afcdff"/>
      <path id="Path_235" data-name="Path 235" d="M657.011,342.248,634.46,355.67V323.45l22.551,11.816Z" transform="translate(-493.979 -31.691)" fill="#9cc3fa"/>
      <path id="Path_236" data-name="Path 236" d="M686.162,354.41l-39.2,22.551v13.963l39.2-22.551Z" transform="translate(-495.204 -34.724)" fill="#9cc3fa"/>
      <path id="Path_237" data-name="Path 237" d="M637.51,373.927l-87-50.477v13.963l87,50.477Z" transform="translate(-485.754 -31.691)" fill="#afcdff"/>
      <path id="Path_238" data-name="Path 238" d="M747.82,158.085,478.72,8.8V214.055l97.725,54.175L747.82,363.24Z" transform="translate(-478.72 -0.862)" fill="#fff"/>
      <path id="Path_239" data-name="Path 239" d="M787.9,161.91,776.75,172.815l.271,205.426,10.878-8.948Z" transform="translate(-507.921 -15.864)" fill="#9cc3fa"/>
      <path id="Path_240" data-name="Path 240" d="M747.549,156.952,758.7,146.046,494.857,0,478.72,7.938Z" transform="translate(-478.72)" fill="#9cc3fa"/>
      <path id="Path_241" data-name="Path 241" d="M740.262,162.369,488.21,22.33V212.224L740.577,352.506Z" transform="translate(-479.65 -2.188)" fill="url(#linear-gradient)"/>
      <path id="Path_242" data-name="Path 242" d="M699.845,169.591,617.03,123.48v133l82.815,45.209Z" transform="translate(-492.271 -12.098)" fill="#fff"/>
      <path id="Path_243" data-name="Path 243" d="M706.493,166.784,622.767,120.42l-5.737,2.76,82.815,46.111Z" transform="translate(-492.271 -11.799)" fill="url(#linear-gradient-2)"/>
      <path id="Path_244" data-name="Path 244" d="M709.066,307.177l6.422-2.959V171.82l-6.648,2.508Z" transform="translate(-501.267 -16.835)" fill="url(#linear-gradient-3)"/>
      <path id="Path_245" data-name="Path 245" d="M682.47,189.863l-12.89-7.523v4.294l12.89,7.523Z" transform="translate(-497.42 -17.865)" fill="#7dafff"/>
      <path id="Path_246" data-name="Path 246" d="M665.22,180.333l-12.89-7.523v3.761l12.89,7.523Z" transform="translate(-495.73 -16.932)" fill="#7dafff"/>
      <path id="Path_247" data-name="Path 247" d="M641.741,166.277l-9.661-5.367V165.2l9.661,5.367Z" transform="translate(-493.746 -15.766)" fill="#7dafff"/>
      <path id="Path_248" data-name="Path 248" d="M641.741,173.417l-9.661-5.367v4.294l9.661,5.376Z" transform="translate(-493.746 -16.465)" fill="#7dafff"/>
      <path id="Path_249" data-name="Path 249" d="M641.741,182.947l-9.661-5.367v10.2l9.661,5.367Z" transform="translate(-493.746 -17.399)" fill="#7dafff"/>
      <path id="Path_250" data-name="Path 250" d="M641.741,204.386l-9.661-5.376v10.2l9.661,5.376Z" transform="translate(-493.746 -19.499)" fill="#7dafff"/>
      <path id="Path_251" data-name="Path 251" d="M641.741,221.647l-9.661-5.367v10.2l9.661,5.367Z" transform="translate(-493.746 -21.191)" fill="#7dafff"/>
      <path id="Path_252" data-name="Path 252" d="M664.136,195.93l-11.816-6.44v4.294l11.816,6.44Z" transform="translate(-495.729 -18.566)" fill="#7dafff"/>
      <path id="Path_253" data-name="Path 253" d="M682.529,206.592,670.18,199.61V203.9l12.349,6.982Z" transform="translate(-497.479 -19.557)" fill="#7dafff"/>
      <path id="Path_254" data-name="Path 254" d="M682.529,227.431,670.18,220.44v4.3l12.349,6.982Z" transform="translate(-497.479 -21.598)" fill="#7dafff"/>
      <path id="Path_255" data-name="Path 255" d="M664.978,217,652.62,210.03v4.294l12.358,6.982Z" transform="translate(-495.759 -20.578)" fill="#7dafff"/>
      <path id="Path_256" data-name="Path 256" d="M681.938,244.093,669.58,237.12v4.294l12.358,6.982Z" transform="translate(-497.42 -23.233)" fill="#7dafff"/>
      <path id="Path_257" data-name="Path 257" d="M664.978,234.272,652.62,227.29v4.3l12.358,6.973Z" transform="translate(-495.759 -22.27)" fill="#7dafff"/>
      <path id="Path_258" data-name="Path 258" d="M687.228,217.034l-34.908-20.4v4.294l34.908,20.413Z" transform="translate(-495.729 -19.265)" fill="#7dafff"/>
      <path id="Path_259" data-name="Path 259" d="M687.228,201.343,652.32,180.93v4.3l34.908,20.4Z" transform="translate(-495.729 -17.727)" fill="#7dafff"/>
      <path id="Path_260" data-name="Path 260" d="M687.228,236.315,652.32,216.57v4.158l34.908,19.745Z" transform="translate(-495.729 -21.219)" fill="#7dafff"/>
      <path id="Path_261" data-name="Path 261" d="M687.228,254.176,652.32,234.44v4.149l34.908,19.745Z" transform="translate(-495.729 -22.97)" fill="#7dafff"/>
      <path id="Path_262" data-name="Path 262" d="M690.436,211.76l-5.376-3.22v4.294l5.376,2.688Z" transform="translate(-498.937 -20.432)" fill="#cc440e"/>
      <path id="Path_263" data-name="Path 263" d="M690.436,232l-5.376-3.22v4.294l5.376,2.688Z" transform="translate(-498.937 -22.415)" fill="#cc440e"/>
      <path id="Path_264" data-name="Path 264" d="M690.436,249.27l-5.376-3.22v4.294l5.376,2.688Z" transform="translate(-498.937 -24.108)" fill="#cc440e"/>
      <path id="Path_265" data-name="Path 265" d="M671.211,272.5a7.437,7.437,0,0,0-7.279,2.706c-2.057,2.2-3.554,5.926-1.118,12.349,4.51,11.816,12.322,18.8,21.288,17.184s2.959-19.006-2.246-25.257C677.372,274.111,674,272.938,671.211,272.5Z" transform="translate(-513.511 -44.646)" fill="#cc440e"/>
      <path id="Path_266" data-name="Path 266" d="M669.474,273.216c-3.22-.541-5.2.686-6.982,2.706-1.975,2.21-3.41,5.935-1.073,12.358,4.294,11.817,11.816,18.8,20.413,17.184s2.832-19.006-2.156-25.257C675.355,274.813,672.144,273.658,669.474,273.216Z" transform="translate(-513.379 -44.716)" fill="#ec6423"/>
      <path id="Path_267" data-name="Path 267" d="M588.385,108.173,506.473,62.91l-.8,131.632,82.715,46.193Z" transform="translate(-481.361 -6.164)" fill="#fff"/>
      <path id="Path_268" data-name="Path 268" d="M594.3,105.1,511.341,59.25l-4.781,3.3,81.912,45.263Z" transform="translate(-481.448 -5.805)" fill="url(#linear-gradient-4)"/>
      <path id="Path_269" data-name="Path 269" d="M597.37,245.356l5.827-1.515V110.08L597.37,112.8Z" transform="translate(-490.345 -10.785)" fill="url(#linear-gradient-5)"/>
      <path id="Path_270" data-name="Path 270" d="M573.52,125.554l-12.89-7.514v4.294l12.89,7.523Z" transform="translate(-486.745 -11.565)" fill="#7dafff"/>
      <path id="Path_271" data-name="Path 271" d="M556.46,115.734l-12.89-7.514v3.752l12.89,7.523Z" transform="translate(-485.074 -10.603)" fill="#7dafff"/>
      <path id="Path_272" data-name="Path 272" d="M532.79,101.977l-9.67-5.367V100.9l9.67,5.367Z" transform="translate(-483.07 -9.466)" fill="#7dafff"/>
      <path id="Path_273" data-name="Path 273" d="M532.79,109.117l-9.67-5.367v4.294l9.67,5.376Z" transform="translate(-483.07 -10.165)" fill="#7dafff"/>
      <path id="Path_274" data-name="Path 274" d="M532.79,118.647l-9.67-5.367v10.2l9.67,5.367Z" transform="translate(-483.07 -11.099)" fill="#7dafff"/>
      <path id="Path_275" data-name="Path 275" d="M532.79,140.077l-9.67-5.367v10.2l9.67,5.367Z" transform="translate(-483.07 -13.199)" fill="#7dafff"/>
      <path id="Path_276" data-name="Path 276" d="M532.79,157.346l-9.67-5.376v10.211l9.67,5.367Z" transform="translate(-483.07 -14.89)" fill="#7dafff"/>
      <path id="Path_277" data-name="Path 277" d="M554.878,131.03l-11.807-6.44v4.294l11.807,6.449Z" transform="translate(-485.025 -12.207)" fill="#7dafff"/>
      <path id="Path_278" data-name="Path 278" d="M573.578,142.283,561.22,135.31V139.6l12.358,6.982Z" transform="translate(-486.803 -13.257)" fill="#7dafff"/>
      <path id="Path_279" data-name="Path 279" d="M578.178,136.314l-34.908-20.4V120.2l34.908,20.4Z" transform="translate(-485.045 -11.357)" fill="#7dafff"/>
      <path id="Path_280" data-name="Path 280" d="M573.578,163.122,561.22,156.14v4.3l12.358,6.982Z" transform="translate(-486.803 -15.298)" fill="#7dafff"/>
      <path id="Path_281" data-name="Path 281" d="M555.119,152.412,542.77,145.43v4.294l12.349,6.982Z" transform="translate(-484.996 -14.249)" fill="#7dafff"/>
      <path id="Path_282" data-name="Path 282" d="M572.979,179.792,560.63,172.81v4.3l12.349,6.982Z" transform="translate(-486.745 -16.932)" fill="#7dafff"/>
      <path id="Path_283" data-name="Path 283" d="M555.119,169.672,542.77,162.69v4.3l12.349,6.973Z" transform="translate(-484.996 -15.94)" fill="#7dafff"/>
      <path id="Path_284" data-name="Path 284" d="M578.268,152.734l-34.908-20.4v4.294l34.908,20.413Z" transform="translate(-485.053 -12.965)" fill="#7dafff"/>
      <path id="Path_285" data-name="Path 285" d="M578.268,172.015,543.36,152.27v4.158l34.908,19.745Z" transform="translate(-485.053 -14.919)" fill="#7dafff"/>
      <path id="Path_286" data-name="Path 286" d="M578.268,189.875,543.36,170.13v4.158l34.908,19.745Z" transform="translate(-485.053 -16.669)" fill="#7dafff"/>
      <path id="Path_287" data-name="Path 287" d="M581.477,147.46l-5.367-3.22v4.294l5.367,2.679Z" transform="translate(-488.262 -14.132)" fill="#ec6423"/>
      <path id="Path_288" data-name="Path 288" d="M581.477,167.7l-5.367-3.22v4.294l5.367,2.688Z" transform="translate(-488.262 -16.115)" fill="#ec6423"/>
      <path id="Path_289" data-name="Path 289" d="M581.477,184.97l-5.367-3.22v4.294l5.367,2.688Z" transform="translate(-488.262 -17.808)" fill="#ec6423"/>
      <path id="Path_290" data-name="Path 290" d="M560.331,209.266a7.437,7.437,0,0,0-7.279,2.706c-2.057,2.21-3.554,5.935-1.119,12.349,4.51,11.816,12.322,18.8,21.288,17.193s2.959-19.015-2.246-25.257C566.5,210.881,563.118,209.717,560.331,209.266Z" transform="translate(-502.647 -38.451)" fill="#cc440e"/>
      <path id="Path_291" data-name="Path 291" d="M558.594,209.986c-3.22-.541-5.187.686-6.982,2.706-1.976,2.21-3.41,5.935-1.073,12.358,4.294,11.817,11.817,18.8,20.413,17.184s2.832-19.006-2.156-25.257C564.5,211.592,561.264,210.428,558.594,209.986Z" transform="translate(-502.515 -38.521)" fill="#ec6423"/>
      <g id="Layer_8" data-name="Layer 8" transform="translate(54.554 114.665)">
        <path id="Path_292" data-name="Path 292" d="M685.4,191.42l-.18,4.239,5.367,3.1v-4.357L685.4,191.42" transform="translate(-553.507 -133.42)" fill="#cc440e"/>
        <path id="Path_293" data-name="Path 293" d="M649.31,270.442l.361,5.665,3.707.758,11.4-6.449-3.861-1.335-7.938,5.223-.271-4.249Z" transform="translate(-549.989 -141.029)" fill="#fff"/>
        <path id="Path_294" data-name="Path 294" d="M576.449,127.12l-.189,4.24,5.376,3.094v-4.348l-5.187-2.986" transform="translate(-542.831 -127.12)" fill="#ec6423"/>
        <path id="Path_295" data-name="Path 295" d="M549.934,204.37l1.073,3.22-9.661,4.835-2.147-2.688Z" transform="translate(-539.2 -134.689)" fill="#fff"/>
        <path id="Path_296" data-name="Path 296" d="M540.806,199.01l11.275,17.725-1.867,1.164L539.2,200.083Z" transform="translate(-539.2 -134.164)" fill="#fff"/>
      </g>
      <path id="Path_297" data-name="Path 297" d="M870.85,145.1" transform="translate(-534.017 -32.176)" fill="#9cc3fa"/>
    </g>
    <g id="Clock" transform="translate(666.917 53.592)">
      <path id="Path_298" data-name="Path 298" d="M769.22,156.517c8.817-19.679,32.622-19.679,38.9-18.559,39.807,7.053,66.5,65.129,49.082,98.13-2.91,5.5-9.919,11.347-15.676,13.7-22.368,9.152-13.9-2.645-26.212-8.817C792.743,229.7,787.788,195.857,769.22,156.517Z" transform="translate(-763.134 -137.568)" fill="#cc440e"/>
      <path id="Path_299" data-name="Path 299" d="M772.238,152.922c4.461-4.347,13.225-7.75,19.4-7.327,35.558,2.433,69.035,64.662,51.622,97.671a20.746,20.746,0,0,1-14.354,10.58c-7.371,1.455-15.218.511-27.526-5.643C778.833,236.883,745.5,178.975,772.238,152.922Z" transform="translate(-762.317 -138.514)" fill="#ec6423"/>
      <path id="Path_300" data-name="Path 300" d="M768.826,169.277c3.051-12.564,16.038-21.045,28.381-17.184,10.307,3.227,22.668,11.9,32.622,29.016,16.928,29.025,16.3,62.7,1.208,67.721-14.512,4.84-37.489-2.416-55.624-38.7C766.657,192.615,766.446,179.038,768.826,169.277Z" transform="translate(-762.934 -139.175)" fill="#fff"/>
      <line id="Line_1" data-name="Line 1" x2="3.624" y2="8.464" transform="translate(25.183 15.934)" fill="none" opacity="0.84"/>
      <line id="Line_2" data-name="Line 2" x2="4.84" y2="6.048" transform="translate(13.087 24.398)" fill="none" opacity="0.84"/>
      <line id="Line_3" data-name="Line 3" x2="6.039" y2="3.632" transform="translate(7.047 41.326)" fill="none" opacity="0.84"/>
      <line id="Line_4" data-name="Line 4" x2="6.048" transform="translate(11.879 64.302)" fill="none" opacity="0.84"/>
      <line id="Line_5" data-name="Line 5" x1="3.632" y2="4.611" transform="translate(25.06 82.667)" fill="none" opacity="0.84"/>
      <line id="Line_6" data-name="Line 6" y2="8.464" transform="translate(43.204 94.534)" fill="none" opacity="0.84"/>
      <line id="Line_7" data-name="Line 7" x2="2.425" y2="8.464" transform="translate(57.831 99.375)" fill="none" opacity="0.84"/>
      <line id="Line_8" data-name="Line 8" x2="4.832" y2="7.256" transform="translate(68.72 93.326)" fill="none" opacity="0.84"/>
      <line id="Line_9" data-name="Line 9" x2="6.048" y2="3.632" transform="translate(72.344 78.814)" fill="none" opacity="0.84"/>
      <line id="Line_10" data-name="Line 10" x2="7.256" transform="translate(67.503 60.678)" fill="none" opacity="0.84"/>
      <line id="Line_11" data-name="Line 11" y1="4.832" x2="3.632" transform="translate(57.831 36.494)" fill="none" opacity="0.84"/>
      <path id="Path_301" data-name="Path 301" d="M786.553,180.656,766.68,157.68l18.383,24.2Z" transform="translate(-746.337 -122.394)" fill="#0b39fa"/>
      <path id="Path_302" data-name="Path 302" d="M794.169,190.32l7.371,25.075-9.319-24.546Z" transform="translate(-749.359 -126.256)" fill="#0b39fa"/>
      <ellipse id="Ellipse_23" data-name="Ellipse 23" cx="2.557" cy="4.267" rx="2.557" ry="4.267" transform="matrix(0.755, -0.656, 0.656, 0.755, 37.315, 60.359)" fill="url(#linear-gradient-6)"/>
      <line id="Line_12" data-name="Line 12" y2="7.256" transform="translate(43.319 21.982)" fill="none" opacity="0.84"/>
    </g>
    <g id="Notes" transform="translate(567.202 399.722)">
      <path id="Path_303" data-name="Path 303" d="M730.684,491.319,672.775,457.01s-4.006,30.559-55.545,53.855l57.909,34.309S728.339,517.624,730.684,491.319Z" transform="translate(-616.243 -441.783)" fill="#9cc3fa"/>
      <path id="Path_304" data-name="Path 304" d="M710.934,456.8l.987,16.955L598.448,493.292l-.968-16.1Z" transform="translate(-597.48 -422.871)" fill="#9cc3fa"/>
      <path id="Path_305" data-name="Path 305" d="M730.684,475.279,672.775,440.97s-4.006,30.549-55.545,53.846l57.909,34.318S728.339,501.584,730.684,475.279Z" transform="translate(-616.243 -440.97)" fill="#bed7ff"/>
      <line id="Line_13" data-name="Line 13" x2="44.286" y2="25.1" transform="translate(51.975 27.758)" fill="none"/>
      <line id="Line_14" data-name="Line 14" x2="32.362" y2="18.398" transform="translate(67.193 26.913)" fill="none"/>
    </g>
    <g id="Magnifying_Glass" data-name="Magnifying Glass" transform="translate(546.714 432.813)">
      <path id="Path_306" data-name="Path 306" d="M670.486,490.385a2.288,2.288,0,0,1,2.279,2.326c0,2.316-.228,5.7-1.025,7.082-1.547,2.63-8.392,11.088-27.056,9.493-16.338-1.357-20.382-9.3-21.141-11.268a2.527,2.527,0,0,1-.152-.8v-4.8a2.288,2.288,0,0,1,2.307-2.307Z" transform="translate(-596.067 -476.552)" fill="#00165e"/>
      <path id="Path_307" data-name="Path 307" d="M670.407,496a10.68,10.68,0,0,0,2.089-8.629,10.918,10.918,0,0,0-4.329-6.085c-6.826-5.041-16.139-5.81-21.664-5.345-12.721.095-24.948,9.095-23.2,15.863s10.3,15.189,28.09,13.347C662.366,504.025,667.824,499.392,670.407,496Z" transform="translate(-596.054 -475.828)" fill="#0b39fa"/>
      <path id="Path_308" data-name="Path 308" d="M668.918,493.426c.351-.152,4.519-8.658-7.386-12.806s-26.3-2.335-32.192,3.645S628.1,495.8,628.1,495.8Z" transform="translate(-596.217 -475.957)" fill="#00165e"/>
      <path id="Path_309" data-name="Path 309" d="M669.171,492.605s2.183-7.291-9.711-10.585-27.986-1.481-32.154,8.724S669.171,492.605,669.171,492.605Z" transform="translate(-596.252 -476.066)" fill="#0b39fa"/>
      <path id="Path_310" data-name="Path 310" d="M668.228,495.117a4.908,4.908,0,0,0,.532-4.87c-1.2-2.668-4.747-6.246-14.8-7.68-16.974-2.411-29.818,5.8-26.182,12.92C631.223,502.247,657.557,508.825,668.228,495.117Z" transform="translate(-596.258 -476.147)" fill="#486fff"/>
      <g id="Layer_11" data-name="Layer 11" transform="translate(0 23.564)">
        <path id="Path_311" data-name="Path 311" d="M630.418,503.175l-.826,3.4L598.36,524.611s-5.079.047-3.418-4.206L627.01,500.65Z" transform="translate(-594.608 -500.65)" fill="#00165e"/>
        <path id="Path_312" data-name="Path 312" d="M630.472,503.176l-32.922,18.91s-2.544,0-1.709-1.68l31.223-19.746a3.7,3.7,0,0,1,3.408,2.516Z" transform="translate(-594.662 -500.651)" fill="#0b39fa"/>
      </g>
      <g id="A_GRADE" data-name="A+ GRADE" transform="translate(43.044 8.707)">
        <line id="Line_15" data-name="Line 15" x2="5.117" y2="3.351" transform="translate(15.151 4.405)" fill="none"/>
        <line id="Line_16" data-name="Line 16" x1="4.215" y2="2.573" transform="translate(15.607 4.794)" fill="none"/>
        <path id="Path_313" data-name="Path 313" d="M653.228,494.675l-1.073,1.566s-7.5-5.62-7.775-7.661Z" transform="translate(-640.174 -485.181)" fill="#fff"/>
        <path id="Path_314" data-name="Path 314" d="M652.623,485l-4.747,15.6-1.443-1.9,4.177-11.392s-7.661,5.772-10.661,2.782Z" transform="translate(-639.95 -485)" fill="#fdfdff"/>
      </g>
    </g>
    <g id="PONY_GIRL" data-name="PONY GIRL" transform="translate(195.106 260.289)">
      <path id="Path_315" data-name="Path 315" d="M357.981,301.081,347.13,295.66l-3.551,18.493,10.841,5.421Z" transform="translate(-212.517 -275.272)" fill="#163891"/>
      <path id="Path_316" data-name="Path 316" d="M356.644,301.59l-8.61-4.31-3.123,16.461,8.572,4.281Z" transform="translate(-212.584 -275.354)" fill="#bed7ff"/>
      <path id="Path_317" data-name="Path 317" d="M367.08,375.235s-10.139-11.259-20.268-10.139-26.932,9.246-26.932,9.246l22.423,27.92Z" transform="translate(-229.078 -297.688)" fill="url(#linear-gradient-7)"/>
      <path id="Path_318" data-name="Path 318" d="M335.763,380.689s22.527-14.639,38.3-4.509c0,0-37.166,29.287-38.3,27.037S335.763,380.689,335.763,380.689Z" transform="translate(-229.857 -298.073)" fill="url(#linear-gradient-8)"/>
      <path id="Path_319" data-name="Path 319" d="M328.852,315.874a4.4,4.4,0,0,0,.418.218l.332.161c9.607,4.367,9.731-5.487,9.284-10.139h0a22.352,22.352,0,0,0-.275-2.24c-3.076-4.1-7.794-3.066-10.851-.209l-.066.085a10.215,10.215,0,0,0-2.089,2.848C324.039,309.713,324.438,313.52,328.852,315.874Z" transform="translate(-229.326 -294.452)" fill="#fcc1ac"/>
      <path id="Path_320" data-name="Path 320" d="M323.139,317.562a15.549,15.549,0,0,1-.655,2.63c-2.259,6.759,11.069,8.7,9.009,2.259a6.352,6.352,0,0,1-.237-.949,7.831,7.831,0,0,1,.475-3.921,9.285,9.285,0,0,1,.883-1.9l-8.468-2.535h0l-2.715-.8C321.838,312.53,323.746,313.594,323.139,317.562Z" transform="translate(-229.156 -295.019)" fill="#fcc1ac"/>
      <path id="Path_321" data-name="Path 321" d="M324.949,314.461a4.405,4.405,0,0,0,2.763,1.9c.408-.114.095.674.456.456.133.076.949-.826,1.111-.759,2.221-1.12,3.2-3.8,3.446-4.652a.712.712,0,0,0,0-.465c-.949-2.411.845-2.725.845-2.725,3.152.3,4.652-.949,5.354-2.136h0a4.623,4.623,0,0,0,.627-1.9c-2.744-6.275-8.117-4.471-11.772-.579l-.066.085a16.139,16.139,0,0,0-2.089,2.848C323.9,309.354,323.316,312.515,324.949,314.461Z" transform="translate(-229.286 -294.396)" fill="#dd988e"/>
      <path id="Path_322" data-name="Path 322" d="M330.689,321.4l.646.19a7.832,7.832,0,0,1,.475-3.921c-2.459-.532-10.091-3.731-8.639-2.924,3.114,1.737-1.994-.617,3.8,4.747a9.314,9.314,0,0,0,3.721,1.908Z" transform="translate(-229.235 -295.134)" fill="#dd988e"/>
      <path id="Path_323" data-name="Path 323" d="M320.846,311.947c2.544,3.8,4.747,4.595,6.55,4.092a4.33,4.33,0,0,0,1.149-.522,10.946,10.946,0,0,0,3.465-4.462.494.494,0,0,0-.048-.456c-1.956-3.152,1.272-3.152,1.272-3.152a8.876,8.876,0,0,0,5.345-1.69h0l.294-.218a7.215,7.215,0,0,0,2.706-6.114c-.5-7.205-12.294-5.354-16.252-4.357C320.846,296.179,314.049,301.818,320.846,311.947Z" transform="translate(-228.981 -294.094)" fill="url(#linear-gradient-9)"/>
      <path id="Path_324" data-name="Path 324" d="M342.424,347.421s-2.259,23.657-6.759,21.4-1.13-30.378-1.13-30.378Z" transform="translate(-229.759 -296.341)" fill="#cc440e"/>
      <path id="Path_325" data-name="Path 325" d="M372.57,340.338l2.563,1.576s4.386-10.12,2.032-9.854a2.069,2.069,0,0,0-.731.294c-2.3,1.386-3.683-1.718-3.854,6.266C372.57,339.151,372.57,339.711,372.57,340.338Z" transform="translate(-231.748 -296.018)" fill="#fcc1ac"/>
      <path id="Path_326" data-name="Path 326" d="M372.57,340.338l2.563,1.576s4.386-10.12,2.032-9.854c-.228,2.212-1.253,10.053-4.509,6.645l-.076-.076C372.57,339.151,372.57,339.711,372.57,340.338Z" transform="translate(-231.748 -296.018)" fill="#dd988e"/>
      <path id="Path_327" data-name="Path 327" d="M308.488,343.09c2.1,28.233,19.784,48.283,25.907,36.074,4.747-9.493,2.3-29.353,1.4-35.391-.123-.835-.209-1.405-.256-1.642a.463.463,0,0,1,0-.1l7.595,13.509a24.306,24.306,0,0,0,4.462,4.576,10.063,10.063,0,0,0,11.572-1.206c6.759-5.629,12.389-12.389,13.518-18.037l-.532-.228-3.418-1.462s-11.819,15.189-15.768,13.518c-6.75-3.38-10.129-23.657-20.828-27.6,0,0-11.268,1.13-12.389-4.509a8.306,8.306,0,0,0-.949-.437l-.152-.057c-2.6-.883-8.876-1.6-10.148,11.534,0,.351-.066.721-.095,1.092a71.728,71.728,0,0,0,.076,10.367Z" transform="translate(-228.489 -295.39)" fill="#ec6423"/>
      <path id="Path_328" data-name="Path 328" d="M331.686,323.426l1.813,1.946s-12.009,1.9-13.129-4.823c0,0,1.452-2.155,2.411-.513S323.816,322.923,331.686,323.426Z" transform="translate(-229.103 -295.377)" fill="#cc440e"/>
      <path id="Path_329" data-name="Path 329" d="M308.423,331.432c0,.351-.066.721-.095,1.092a5.544,5.544,0,0,0,3.522,1.367c6.066.37,6.9-8.667,6.873-13.936l-.152-.057.133-1.149c-.047-1.481-.142-2.449-.142-2.449l-10.072,3.2C307.227,324.559,306.761,329.106,308.423,331.432Z" transform="translate(-228.443 -295.219)" fill="#cc440e"/>
      <path id="Path_330" data-name="Path 330" d="M308.423,330.406a3.665,3.665,0,0,0,2.373,1.509,4.861,4.861,0,0,0,5.183-2.649c1.4-2.677,2.1-6.5,2.592-10.443l.133-1.149c.892-7.462,1.2-14.762,4.386-14.116l-1.13-4.509s-4.509-6.759-6.759,0c-1.092,3.266-4.823,11.8-6.712,19.376C307.227,323.533,306.761,328.08,308.423,330.406Z" transform="translate(-228.443 -294.193)" fill="url(#linear-gradient-10)"/>
      <path id="Path_331" data-name="Path 331" d="M321.97,306.454s0-9.009-3.38-10.139c0,0,6.75-1.12,6.75,4.509S321.97,306.454,321.97,306.454Z" transform="translate(-229.012 -294.202)" fill="#dd5081"/>
      <path id="Path_332" data-name="Path 332" d="M355.571,412.248c2.478-.237,3.332-1.585,3.456-3.342.18-2.4-1.035-5.544-1.357-7.547a4.348,4.348,0,0,0-2.44-2.744c-1.471-.807-3.323-.949-3.446,3.123,0,1.073-.066,2.079-.095,3C351.527,409.827,351.7,412.751,355.571,412.248Z" transform="translate(-230.688 -299.368)" fill="#efbcae"/>
      <path id="Path_333" data-name="Path 333" d="M358.907,409.561s-2.079,5.943-6.7,1.728c0,0-2.506,5.335,1.063,7a4.481,4.481,0,0,0,4.082-.313c3.474-2.041,11.9-7.414,7.595-9.2C364.925,408.773,363.15,407.691,358.907,409.561Z" transform="translate(-230.673 -299.89)" fill="#00165e"/>
      <path id="Path_334" data-name="Path 334" d="M231.877,461.795s2.051,12.645-3.1,11.458c-4.595.57-4.376-3.892-4.177-10.746S231.877,461.795,231.877,461.795Z" transform="translate(-224.245 -302.464)" fill="#efbcae"/>
      <path id="Path_335" data-name="Path 335" d="M232.556,470.281s-3.8,5.819-7.471,1.728c0,0-3.522,7.49,3.74,7.481,0,0,14.373-7.775,8.981-10C237.758,469.493,236.752,468.411,232.556,470.281Z" transform="translate(-224.231 -302.967)" fill="#00165e"/>
      <path id="Path_336" data-name="Path 336" d="M237.243,477.7c1.9.418,2.772-.949,3.19-2.848.759-3.427-.085-8.6-.085-8.6s-6.892-5.99-7.253.465v.247C232.877,473.812,232.649,478.226,237.243,477.7Z" transform="translate(-224.675 -302.69)" fill="#efbcae"/>
      <path id="Path_337" data-name="Path 337" d="M237.243,477.863c1.9.418,2.772-.949,3.19-2.848-8.307,6.1-5.819-7.87-5.819-7.87a3.162,3.162,0,0,0-1.519-.266v.247C232.877,473.971,232.649,478.385,237.243,477.863Z" transform="translate(-224.675 -302.85)" fill="#dd988e"/>
      <path id="Path_338" data-name="Path 338" d="M240.966,474.711s-3.8,5.829-7.471,1.728c0,0-3.522,7.5,3.731,7.49,0,0,14.382-7.775,8.99-10.006C246.215,473.923,245.209,472.841,240.966,474.711Z" transform="translate(-224.657 -303.191)" fill="#00165e"/>
      <path id="Path_339" data-name="Path 339" d="M337.256,344.912c-.123-.835-.209-1.4-.256-1.642A12.013,12.013,0,0,0,337.256,344.912Z" transform="translate(-229.945 -296.586)" fill="#dd988e"/>
      <path id="Path_340" data-name="Path 340" d="M337,343.089h0l6.712,12.455a11.856,11.856,0,0,0,1.956,2.7,18.172,18.172,0,0,0,3.408,2.933,10.063,10.063,0,0,0,11.553-1.149c6.759-5.629,12.389-12.389,13.518-18.037l-.532-.228a34.859,34.859,0,0,1-15,18.2c-8.848,5.468-15.047-6.066-15.047-6.066Z" transform="translate(-229.945 -296.509)" fill="#cc440e"/>
      <path id="Path_341" data-name="Path 341" d="M355.571,412.6c2.478-.237,3.332-1.585,3.456-3.342l-.095.1c-6.93,6.883-6.038-4.025-6.038-4.025a11.268,11.268,0,0,0-1.206-.247C351.527,410.178,351.7,413.1,355.571,412.6Z" transform="translate(-230.688 -299.719)" fill="#dd988e"/>
    </g>
    <g id="last_row_girl_copy" data-name="last row girl copy" transform="translate(352.598 306.908)">
      <path id="Path_342" data-name="Path 342" d="M436.4,452.46s-3.712,3.588-6.645,1.177c0,0-2.952,8.449,3.342,7.11S451.407,444.694,436.4,452.46Z" transform="translate(-392.103 -348.624)" fill="#00165e"/>
      <path id="Path_343" data-name="Path 343" d="M450.8,457.675s9.493-7.595,9.968-.864c0,0-14.012,14.477-16.831,6.807S450.8,457.675,450.8,457.675Z" transform="translate(-392.831 -348.817)" fill="#00165e"/>
      <path id="Path_344" data-name="Path 344" d="M428.471,448.635c.351,2.6,1.054,4.917,2.459,5.6,1.13.551,5.468.1,5.392-2.354a.427.427,0,0,1,0-.114c-.427-4.937-3.493-12.816-3.493-12.816s-4.794-1.633-4.69.883a70.441,70.441,0,0,0,.332,8.8Z" transform="translate(-392.056 -348.027)" fill="#efbcae"/>
      <path id="Path_345" data-name="Path 345" d="M419.167,365.458s-5.506,4.832-1.414,15.189c3.655,9.208-15.313-16.718-15.313-16.718S417.563,357.541,419.167,365.458Z" transform="translate(-390.754 -344.128)" fill="#dd988e"/>
      <path id="Path_346" data-name="Path 346" d="M436.694,435.537c1.8-.949,3.161.19,4.205,2.421,2.639,5.582,3.3,17.743,3.987,19.053a2.949,2.949,0,0,0,5.516-.579,5.081,5.081,0,0,0,.19-1.215c.361-6.569-4.338-31.242-2.753-34.337,6.228-12.2-12.256-7.595-12.256-7.595S433.02,437.549,436.694,435.537Z" transform="translate(-392.39 -346.709)" fill="#efbcae"/>
      <path id="Path_347" data-name="Path 347" d="M443.637,422.216c.228-.646-6.807-17.581-15.341-12.673s-40.346,2.9-24.635,21.293S437.058,440.813,443.637,422.216Z" transform="translate(-390.599 -346.518)" fill="url(#linear-gradient-11)"/>
      <path id="Path_348" data-name="Path 348" d="M422.385,410.547a89.128,89.128,0,0,0,2.44,12.512c3.8,13.585,24.246,2.307,27.122-5.079.6-1.519.446-2.354-.218-2.7-2.544-1.348-12.683,4.462-17.515,5.7-3.8.949-3.351-18.483-3.351-18.483l-9.3-5.867a92.709,92.709,0,0,0,.826,13.917Z" transform="translate(-391.723 -345.909)" fill="#f9c4b6"/>
      <path id="Path_349" data-name="Path 349" d="M420.2,393.7s2.089,47.732-6.161,24.92S413.124,389.577,420.2,393.7Z" transform="translate(-391.157 -345.7)" fill="#cc440e"/>
      <path id="Path_350" data-name="Path 350" d="M411.433,434.661c5.126-1.063,8.544-8.25,7.737-15.626s-1.557-23.287-1.557-23.287l2.478,13.291,1.566-.256,8.2-1.376a154.31,154.31,0,0,0-1.414-19.081c-1.434-10.443-18.113-15.521-18.113-15.521l-7.034-2.734s-5.269-7.3-11.781,10.148S403.107,436.379,411.433,434.661Z" transform="translate(-390.131 -344.486)" fill="#ec6423"/>
      <path id="Path_351" data-name="Path 351" d="M416.01,374.83s-3.294,10.2-13.851,2.43,0-11.791,0-11.791Z" transform="translate(-390.502 -344.33)" fill="#cc440e"/>
      <path id="Path_352" data-name="Path 352" d="M411.764,368.779a15.91,15.91,0,0,0,4.3.456c7-.361,7.841-7.044,7.528-11.781a27.891,27.891,0,0,0-.665-4.661l-.18-.114c-1.253,0-2.99-.076-5.354-.19C405.935,351.919,404.577,364.223,411.764,368.779Z" transform="translate(-391.003 -343.671)" fill="#efbcae"/>
      <path id="Path_353" data-name="Path 353" d="M412.779,368.88l.541.057c2.041.218,2.174.38,2.848-1.4a20.552,20.552,0,0,0,1.234-5.7,2.487,2.487,0,0,0-.427-1.434c-.636-1.168-1.671-3.579,1.272-2.4h.057a4.165,4.165,0,0,0,5.364-4.414,1.186,1.186,0,0,0-.721-.873l-.18-.114c-1.253,0-2.99-.076-5.354-.19-10.936-.541-12.683,10.575-6.645,15.578a3.8,3.8,0,0,0,2.013.883Z" transform="translate(-391.002 -343.667)" fill="#dd988e"/>
      <path id="Path_354" data-name="Path 354" d="M416.13,356.585c1.348-.19,2.649.56,3.93.095,2.848-1.025,6.911-3.513,4.063-8.952-4.167-7.984-20.562-5.031-23.22,5.9-1.69,6.93-1.775,8.5-3.294,15.189-.845,3.721,18.986,20.553,18.417-6.921a2.163,2.163,0,0,1,.057-.6C415.133,359.367,413.7,356.927,416.13,356.585Z" transform="translate(-390.508 -343.201)" fill="url(#linear-gradient-12)"/>
      <path id="Path_355" data-name="Path 355" d="M400.37,377.28l2.478,13.329,1.566-.266Z" transform="translate(-372.888 -326.027)" fill="#cc440e"/>
      <path id="Path_356" data-name="Path 356" d="M422.41,411.1a91.416,91.416,0,0,0,2.459,12.683c3.8,13.585,24.246,2.307,27.122-5.079.6-1.519.446-2.354-.218-2.7.323,6.873-10.946,12.635-19.062,12.711a6.427,6.427,0,0,1-5.876-3.532c-2.535-5.126-3.579-14.24-3.579-14.24a6.121,6.121,0,0,0-.845.152Z" transform="translate(-391.766 -346.634)" fill="#dd988e"/>
      <path id="Path_357" data-name="Path 357" d="M441.23,439.293c2.639,5.582,3.3,17.743,3.987,19.053a2.949,2.949,0,0,0,5.516-.579,5.081,5.081,0,0,0,.19-1.215c-.085.114-.161.228-.237.351-5.924,9.009-6.285-15.464-6.285-15.464C443.86,438.714,442.645,438.268,441.23,439.293Z" transform="translate(-392.72 -348.045)" fill="#dd988e"/>
      <path id="Path_358" data-name="Path 358" d="M428.49,449.118c.351,2.6,1.054,4.918,2.459,5.6,1.13.551,5.468.1,5.392-2.354-.5.351-6.436,4.224-7.4-4.4A11.38,11.38,0,0,0,428.49,449.118Z" transform="translate(-392.075 -348.51)" fill="#dd988e"/>
    </g>
    <g id="right_row_boy" data-name="right row boy" transform="translate(150.512 322.692)">
      <path id="Path_359" data-name="Path 359" d="M229.836,442.207c-.484-1.006,2.582-12.161-6.152-11.25S189.29,455.8,189.29,455.8Z" transform="translate(-177.866 -363.43)" fill="url(#linear-gradient-13)"/>
      <path id="Path_360" data-name="Path 360" d="M243.486,444.734s-1.044-12.816-12.968-6.7-27.2,20.221-27.2,20.221l19.053,10.443Z" transform="translate(-178.577 -363.707)" fill="url(#linear-gradient-14)"/>
      <path id="Path_361" data-name="Path 361" d="M240.215,405.846l-11.5,15.085-9.208-6.541,11.99-14.98Z" transform="translate(-161.635 -342.933)" fill="#00165e"/>
      <path id="Path_362" data-name="Path 362" d="M238.238,406.836l-9.18,12.028-7.348-5.212,9.569-11.952Z" transform="translate(-161.747 -343.049)" fill="#bed7ff"/>
      <path id="Path_363" data-name="Path 363" d="M206.976,393.572h0a1.9,1.9,0,0,0,.437-2.6c-.095-.19-.19-.389-.275-.579a9.493,9.493,0,0,1-.408-6.807,8.762,8.762,0,0,1,1.49-2.848l-9.076-9.787s.085,4.262-.427,10.034c-.1,1.329-.247,2.734-.437,4.187-.085.665-.18,1.339-.285,2.032C197.046,393.781,204.508,395.386,206.976,393.572Z" transform="translate(-178.303 -360.392)" fill="#efbcae"/>
      <path id="Path_364" data-name="Path 364" d="M198.629,382.972a4.433,4.433,0,0,0,1.975,4.158c2.155,1.405,6.37,3.683,6.579,3.74a9.493,9.493,0,0,1-.408-6.807,6.427,6.427,0,0,1-3.076-2.478c-.835-1.2-3.209-.949-4.936-.133C198.724,381.937,198.676,382.46,198.629,382.972Z" transform="translate(-178.338 -360.889)" fill="#dd988e"/>
      <path id="Path_365" data-name="Path 365" d="M212.7,370.641s5.326,18.407-10.063,11.506S201.769,363.018,212.7,370.641Z" transform="translate(-178.203 -360.254)" fill="#efbcae"/>
      <path id="Path_366" data-name="Path 366" d="M213.942,370.776s.123,5.031-6.693,3.8c0,0-2.193-.37-2.278,1.358s2.5,1.452,2.677,2.848c.294,2.155-2.335,6.759-5.212,3.683s-5.639-15.92,6.038-14.24Z" transform="translate(-178.405 -360.246)" fill="#dd988e"/>
      <path id="Path_367" data-name="Path 367" d="M215.386,363.532a9.645,9.645,0,0,0-7.784-3.7c-3.569,0-8.819.779-12,4.927-4.747,6.209-1.49,18.635,6.332,19.357a3.8,3.8,0,0,0,3.361-1.614c1.272-1.747,2.763-4.424.37-4.8-3.588-.579-1.614-5.867,1.348-4.234C209.538,374.858,219.99,369.769,215.386,363.532Z" transform="translate(-178.074 -359.828)" fill="url(#linear-gradient-15)"/>
      <path id="Path_368" data-name="Path 368" d="M206.2,454.048l.845-.513c15.265-9.55,11.164-8.7,9.1-16.68h0c-.161-.579-.294-1.225-.418-1.9-.047-.237-.076-.475-.114-.721v-.057c-.114-.816-.2-1.737-.256-2.706-.7-11.6,2.3-32.087,2.3-32.087-2.848-3.883-11.6-8.259-11.6-8.259-7.851-1.006-9.038-3.579-9.038-3.579l-6.826-.788C160.561,386.143,188.737,464.9,206.2,454.048Z" transform="translate(-177.256 -361.193)" fill="#ec6423"/>
      <path id="Path_369" data-name="Path 369" d="M216.47,428.5s.085.788.256,2.079c.883,7.044,4.471,29.249,13.689,24.151,8.734-4.823,22.024-10.9,22.6-14.809a1.557,1.557,0,0,0-.361-1.32c-.665-.8-2.848-1.794-3.693-1.158-1.329,1-5.971,6.845-14.354,7.946a4.111,4.111,0,0,1-4.168-2.136c-3.864-7.063-3.256-18.607-3.256-18.607Z" transform="translate(-179.243 -363.113)" fill="#efbcae"/>
      <path id="Path_370" data-name="Path 370" d="M217,433.2c1.149,7.471,4.2,27.037,13.414,21.939,8.734-4.823,22.024-10.9,22.6-14.809-4.187,5.041-22.072,15.047-26.676,13.518-5.231-1.728-7.784-21-7.784-21C217.826,432.109,217.5,433.685,217,433.2Z" transform="translate(-179.27 -363.518)" fill="#dd988e"/>
      <path id="Path_371" data-name="Path 371" d="M227.487,428.5,216.38,431.6l-5.7-19.518a16.328,16.328,0,0,1-.513-8.544c.74-3.332,2.611-6.645,7.234-5.392C225.911,400.471,227.487,428.5,227.487,428.5Z" transform="translate(-178.907 -361.756)" fill="#cc440e"/>
      <path id="Path_372" data-name="Path 372" d="M208.611,456.185c15.265-9.55,10.908-8.544,8.9-17.135.788,5.012.816,11.971-5.278,12.341C208.516,451.591,207.642,453.926,208.611,456.185Z" transform="translate(-178.826 -363.843)" fill="#cc440e"/>
    </g>
    <g id="Layer_26_copy" data-name="Layer 26 copy" transform="translate(434.665 347.893)">
      <path id="Path_388" data-name="Path 388" d="M530.381,471.315s4.747-13.642-7.595-11.487-27.606,21.834-27.606,21.834Z" transform="translate(-477.521 -390.084)" fill="url(#linear-gradient-16)"/>
      <path id="Path_389" data-name="Path 389" d="M544.093,475.211s1.9-13.376-9.132-12.075-26.581,14.24-26.581,14.24l9.332,17.771Z" transform="translate(-478.19 -390.259)" fill="url(#linear-gradient-17)"/>
      <path id="Path_390" data-name="Path 390" d="M552.605,508.6c2.316-.7,5.962.522,1.68,5.012-6.038,6.332-16.5,12.341-15.578,1.956.56-6.474,4.481-4.747,6.645-3.674C547.061,512.768,547.669,510.091,552.605,508.6Z" transform="translate(-479.724 -392.558)" fill="#00165e"/>
      <path id="Path_391" data-name="Path 391" d="M531.838,401.026l-9.132-7.746-8.145,17.581,9.208,7.87Z" transform="translate(-460.741 -367.823)" fill="url(#linear-gradient-18)"/>
      <path id="Path_392" data-name="Path 392" d="M533.8,501.85a4.9,4.9,0,0,1,2.981-1.12c2.421,0,5.962.532,1.68,5.022-6.047,6.322-16.5,12.341-15.588,1.946.57-6.465,4.49-4.747,6.645-3.674,1.69.845,2.791-.949,4.253-2.174Z" transform="translate(-478.921 -392.169)" fill="#00165e"/>
      <path id="Path_393" data-name="Path 393" d="M545.624,482.09l1.025,28.613s-5.506,7.329-7.016.864c-.171-.721-4.054-29.477-4.054-29.477Z" transform="translate(-479.568 -391.224)" fill="url(#linear-gradient-19)"/>
      <path id="Path_394" data-name="Path 394" d="M531.231,485.27v18.407s-5.535,3.427-7.025-.18c-.275-.683-1.386-14.847-1.386-14.847Z" transform="translate(-478.921 -391.385)" fill="url(#linear-gradient-20)"/>
      <path id="Path_395" data-name="Path 395" d="M530.3,401.836l-7.319-6.256L515.97,410.8l7.291,6.237Z" transform="translate(-460.812 -367.939)" fill="#bed7ff"/>
      <path id="Path_396" data-name="Path 396" d="M542.335,443.417s.456-.266,1.139-.7c2.7-1.756,8.857-6.341,2.848-8a11.989,11.989,0,0,0-1.187-.266,6.228,6.228,0,0,0-1.357-.066,3.18,3.18,0,0,0-3.019,2.335c-.123.342-.218.7-.313,1.063-.19.807-.3,1.633-.475,2.316h0a2.212,2.212,0,0,1-.826,1.452C537.152,442.733,542.335,443.417,542.335,443.417Z" transform="translate(-479.726 -388.806)" fill="#fec2b1"/>
      <path id="Path_397" data-name="Path 397" d="M494,416.184s16.68,13.9,13.423,7.291c-1.756-3.55-1.509-7.917-.949-11.221.095-.551.209-1.054.313-1.538h0a29.147,29.147,0,0,1,.949-3.323s-5.459-12.73-7.765-2.573c-.095.4-.2.8-.285,1.177-.057.209-.1.4-.161.589a30.181,30.181,0,0,1-1.642,4.69C495.946,415.576,494,416.184,494,416.184Z" transform="translate(-477.461 -387.109)" fill="#fec2b1"/>
      <path id="Path_398" data-name="Path 398" d="M511.14,410.859l-.19.18a.947.947,0,0,0,.218-.2Z" transform="translate(-478.32 -387.613)" fill="#dd988e"/>
      <path id="Path_399" data-name="Path 399" d="M498.12,411.59c2.221.807,4.747,1.291,8.117,5.4.1-.551.646-5.449.75-5.933a18.264,18.264,0,0,1-5.611-3.085,14.3,14.3,0,0,0-1.614-1.073A30.177,30.177,0,0,1,498.12,411.59Z" transform="translate(-477.67 -387.414)" fill="#dd988e"/>
      <path id="Path_400" data-name="Path 400" d="M502.742,408.243a16.661,16.661,0,0,0,2.848,1.614c7.006,3.2,7.784-4.747,7.651-9.569a7.7,7.7,0,0,0-.057-1.168,5.328,5.328,0,0,0-.048-.57c-.066-1.006-.152-1.652-.152-1.652C506.331,389.038,489.755,399.015,502.742,408.243Z" transform="translate(-477.659 -386.763)" fill="#fec2b1"/>
      <path id="Path_401" data-name="Path 401" d="M503.763,405.908c2.24,2.278,3.19,2.117,3.579,1.291a6.4,6.4,0,0,0,.114-2.848s-1.49-4.452,1.044-3.209c1.462.721,3.456,0,4.889-.7a7.709,7.709,0,0,0-.057-1.168,5.463,5.463,0,0,0,.608-.37l-.655-.2c-.788-.237-1.832-.56-3.218-.949C502.567,395.551,498.912,400.962,503.763,405.908Z" transform="translate(-477.844 -386.925)" fill="#dd988e"/>
      <path id="Path_402" data-name="Path 402" d="M495.484,406.391c2.687,5.316,7.31,5.193,9.759,3.076a4.557,4.557,0,0,0,1.6-2.848,4.081,4.081,0,0,0-.437-2.468c-1.851-3.617.247-4.215,1.737-4.224a9.01,9.01,0,0,0,3.4-.6,9.615,9.615,0,0,0,1.291-.627,5.452,5.452,0,0,0,.608-.37c3.18-2.155,3.066-5.373,1.69-8.648-1.253-2.781-9.493-5.269-17.638-1.063S491.165,397.857,495.484,406.391Z" transform="translate(-477.35 -386.374)" fill="url(#linear-gradient-21)"/>
      <path id="Path_403" data-name="Path 403" d="M495.834,425.286l-.332,22.6L482.42,412.6l9.1-1.433Z" transform="translate(-459.112 -368.729)" fill="#cc440e"/>
      <path id="Path_404" data-name="Path 404" d="M535.69,444.712c.5,1.528,2.212,2.516,5.9,1.31l1.1-.38c.845-1.452,1.32-2.411,1.32-2.411l-.683-.513c2.7-1.756,8.857-6.341,2.848-8a11.818,11.818,0,0,0-1.177-.266h0s5.43,2.99.085,5.629c-3.513,1.006-1.367,2.487-4.652.171-.152-.114-.418,0-.6-.161h0a2.2,2.2,0,0,0-1-.37A46.054,46.054,0,0,1,535.69,444.712Z" transform="translate(-479.574 -388.81)" fill="#dd988e"/>
      <path id="Path_405" data-name="Path 405" d="M493.117,489.471l15.427-5.164a6.379,6.379,0,0,0,4.367-6.246c-.19-6.921.456-13.661-.123-19.936a36.328,36.328,0,0,0-.826-5.335l-1.044-4.357-.949-3.8-1.9-8.136c.522,1.832,1.063,3.531,1.6,5.1h0c.351,1.025.712,2,1.082,2.914,10.594,26.818,24.113,8.145,28.688.475.095-.161.19-.323.266-.465.845-1.452,1.32-2.411,1.32-2.411l-.683-.513-.389-.294-2.573-1.946-.513-.38h0l-.949-.693a1.734,1.734,0,0,0-.133.266,46.047,46.047,0,0,1-3.1,5.041c-9.712,13.385-13.291-6.3-14.819-14.8-1.642-9.4-22.2-15.047-22.2-15.047-8.886-3.256-13.29-.665-18.3,14.192S493.117,489.471,493.117,489.471Z" transform="translate(-476.578 -387.697)" fill="#ec6423"/>
      <path id="Path_406" data-name="Path 406" d="M512.5,446.059c10.594,26.818,24.113,8.145,28.688.475.095-.161.19-.323.266-.465.845-1.452,1.32-2.411,1.32-2.411l-.684-.513-.389-.294s-8.677,14.534-17.8,14.031c-2.914-.161-5.06-3.076-7-5.24a66.582,66.582,0,0,1-5.487-8.5C511.771,444.17,512.132,445.147,512.5,446.059Z" transform="translate(-478.344 -389.236)" fill="#cc440e"/>
      <path id="Path_407" data-name="Path 407" d="M512.659,450.127l-.949-3.8a70.855,70.855,0,0,0,2.781,13.5,36.338,36.338,0,0,0-.826-5.335Z" transform="translate(-478.358 -389.412)" fill="#cc440e"/>
    </g>
    <g id="c" transform="translate(126.917 362.255)">
      <path id="Path_408" data-name="Path 408" d="M246.69,458.226l5.525,40.821a1.044,1.044,0,0,1-.731,1.13,3.237,3.237,0,0,1-2.013,0,1.215,1.215,0,0,1-.664-.873c-1.244-5.7-4.367-41.153-4.367-41.153Z" transform="translate(-157.066 -404.373)" fill="#2edfcb"/>
      <path id="Path_409" data-name="Path 409" d="M211.23,479.771l-6.323,48.8a1.244,1.244,0,0,1-1.035,1.13,2.715,2.715,0,0,1-1.965-.437,1.424,1.424,0,0,1-.4-1.177c.427-6.911,7.519-48.862,7.519-48.862Z" transform="translate(-154.89 -405.441)" fill="#00165e"/>
      <path id="Path_410" data-name="Path 410" d="M168.481,453.671l-6.322,48.8a1.244,1.244,0,0,1-1.025,1.139,2.715,2.715,0,0,1-1.965-.437,1.424,1.424,0,0,1-.4-1.177c.427-6.911,7.519-48.862,7.519-48.862Z" transform="translate(-152.724 -404.119)" fill="#00165e"/>
      <path id="Path_411" data-name="Path 411" d="M215.748,467.583,201.11,431.508s-4.471-8.971-10.167-11.221-28.157-15.768-28.157-15.768-12.36-10.139-10.11,6.759c1.9,13.936,5.25,30.939,6.389,36.464a19.661,19.661,0,0,0,9.379,13.091c10.139,5.629,38.3,21.4,38.3,21.4Z" transform="translate(-152.402 -401.503)" fill="url(#linear-gradient-22)"/>
      <path id="Path_412" data-name="Path 412" d="M246.52,461.369l-34.916,21.4s-7.879-3.38-1.12-13.518c5.99-8.99,31.461-23.287,37.156-26.41a4.319,4.319,0,0,1,3.8-.275c1.595.693,3.076,2.582,1.842,7.538C251.029,459.1,246.52,461.369,246.52,461.369Z" transform="translate(-155.206 -403.567)" fill="url(#linear-gradient-23)"/>
    </g>
    <g id="c-2" data-name="c" transform="translate(244.206 13.461)">
      <path id="Path_413" data-name="Path 413" d="M334.682,413.33l-5,43.46a1.082,1.082,0,0,1-1,.949,2.971,2.971,0,0,1-1.956-.446,1.272,1.272,0,0,1-.427-1.063c.237-6.161,6.2-43.47,6.2-43.47Z" transform="translate(-278.503 -53.28)" fill="#00165e"/>
      <path id="Path_414" data-name="Path 414" d="M291.9,387.232l-6.313,48.8a1.282,1.282,0,0,1-1.035,1.139,2.7,2.7,0,0,1-1.956-.446,1.4,1.4,0,0,1-.4-1.177c.418-6.9,7.519-48.852,7.519-48.852Z" transform="translate(-276.268 -51.959)" fill="#00165e"/>
      <path id="Path_415" data-name="Path 415" d="M339.3,393.912,324.65,357.838s-4.5-9.009-10.129-11.259-28.157-15.74-28.157-15.74S273.976,320.7,276.225,337.6c1.9,13.936,5.25,30.938,6.379,36.464a19.689,19.689,0,0,0,9.389,13.091c10.139,5.629,38.286,21.4,38.286,21.4Z" transform="translate(-275.952 -48.975)" fill="url(#linear-gradient-24)"/>
      <path id="Path_416" data-name="Path 416" d="M369.929,394.977l-34.935,21.35s-7.889-3.38-1.13-13.518c5.99-8.981,31.47-23.287,37.156-26.41a4.348,4.348,0,0,1,3.8-.275c1.585.7,3.076,2.592,1.832,7.547C374.409,392.68,369.929,394.977,369.929,394.977Z" transform="translate(-278.748 -51.407)" fill="url(#linear-gradient-25)"/>
      <path id="Path_417" data-name="Path 417" d="M578.22,364.9" transform="translate(-291.27 -50.854)" fill="none"/>
      <path id="Path_418" data-name="Path 418" d="M578.05,34.09" transform="translate(-291.262 -34.09)" fill="none"/>
    </g>
    <g id="c-3" data-name="c" transform="translate(324.394 335.977)">
      <path id="Path_419" data-name="Path 419" d="M418.866,453.671l-6.047,47.647a1.225,1.225,0,0,1-1.025,1.1,2.706,2.706,0,0,1-1.956-.446,1.376,1.376,0,0,1-.408-1.149c.38-6.74,7.234-47.694,7.234-47.694Z" transform="translate(-362.903 -377.842)" fill="#00165e"/>
      <path id="Path_420" data-name="Path 420" d="M376.133,427.569l-6.474,49.365a1.253,1.253,0,0,1-1.035,1.149,2.706,2.706,0,0,1-1.956-.437,1.462,1.462,0,0,1-.4-1.2c.446-6.987,7.671-49.46,7.671-49.46Z" transform="translate(-360.716 -376.517)" fill="#00165e"/>
      <path id="Path_421" data-name="Path 421" d="M423.759,439.874,409.12,403.8s-4.481-8.924-10.177-11.221-28.109-15.74-28.109-15.74S358.436,366.7,360.7,383.6c1.9,13.936,5.25,30.938,6.379,36.464a19.688,19.688,0,0,0,9.389,13.091c10.129,5.629,38.286,21.4,38.286,21.4Z" transform="translate(-360.42 -373.822)" fill="url(#linear-gradient-26)"/>
      <path id="Path_422" data-name="Path 422" d="M454.14,435.269l-34.916,21.4s-7.889-3.38-1.13-13.518c5.99-8.99,31.47-23.287,37.166-26.41a4.319,4.319,0,0,1,3.8-.275c1.585.693,3.076,2.582,1.832,7.538C458.687,433.01,454.14,435.269,454.14,435.269Z" transform="translate(-363.204 -375.967)" fill="url(#linear-gradient-27)"/>
    </g>
    <g id="c-4" data-name="c" transform="translate(408.838 382.713)">
      <path id="Path_423" data-name="Path 423" d="M542.1,484.336l5.525,40.821a1.044,1.044,0,0,1-.731,1.13,3.238,3.238,0,0,1-2.013,0,1.168,1.168,0,0,1-.664-.873c-1.244-5.7-4.367-41.144-4.367-41.144Z" transform="translate(-453.957 -426.155)" fill="#00165e"/>
      <path id="Path_424" data-name="Path 424" d="M506.684,505.87l-5.535,45.567a1.158,1.158,0,0,1-1.006,1.054,2.9,2.9,0,0,1-1.956-.446,1.32,1.32,0,0,1-.418-1.111c.313-6.455,6.721-45.624,6.721-45.624Z" transform="translate(-451.825 -427.221)" fill="#00165e"/>
      <path id="Path_425" data-name="Path 425" d="M463.954,479.771l-5.886,47.048a1.206,1.206,0,0,1-1.025,1.082,2.753,2.753,0,0,1-1.956-.437,1.367,1.367,0,0,1-.408-1.139c.361-6.645,7.082-47.1,7.082-47.1Z" transform="translate(-449.641 -425.899)" fill="#00165e"/>
      <path id="Path_426" data-name="Path 426" d="M512.737,489.142,498.1,453.068s-4.462-8.981-10.158-11.231-28.157-15.768-28.157-15.768-12.389-10.139-10.139,6.759c1.9,13.936,5.25,30.938,6.379,36.464a19.689,19.689,0,0,0,9.389,13.091c10.139,5.63,38.3,21.4,38.3,21.4Z" transform="translate(-449.372 -423.052)" fill="url(#linear-gradient-28)"/>
      <path id="Path_427" data-name="Path 427" d="M541.93,487.468l-34.916,21.369s-7.879-3.38-1.13-13.518c6-8.99,31.47-23.287,37.166-26.41a4.319,4.319,0,0,1,3.8-.275c1.595.693,3.076,2.582,1.842,7.538C546.43,485.208,541.93,487.468,541.93,487.468Z" transform="translate(-452.098 -425.346)" fill="url(#linear-gradient-29)"/>
    </g>
    <g id="Layer_27" data-name="Layer 27" transform="translate(316.898 420.161)">
      <path id="Path_428" data-name="Path 428" d="M409.414,580.695s-4.4,3.883-7.016,0c0,0-4.747,14.24,9.171,5.61S418.907,574.372,409.414,580.695Z" transform="translate(-355.013 -468.323)" fill="#00165e"/>
      <path id="Path_429" data-name="Path 429" d="M408.285,551.16l1.006,28.708s-4.12,4.6-7.016,0L394.9,551.445Z" transform="translate(-354.672 -466.993)" fill="url(#linear-gradient-30)"/>
      <path id="Path_430" data-name="Path 430" d="M424.456,559.08l1.006,28.708s-4.12,4.595-7.016,0l-7.376-28.423Z" transform="translate(-355.492 -467.395)" fill="url(#linear-gradient-31)"/>
      <path id="Path_431" data-name="Path 431" d="M404.935,543.179s3.38-11.069-5.411-9.864-22.784,12.4-22.784,12.4l10.11,16.775Z" transform="translate(-353.752 -466.084)" fill="url(#linear-gradient-32)"/>
      <path id="Path_432" data-name="Path 432" d="M417.426,549.956c.275-.408,4.073-11.591-6.427-11.117s-30,26.211-30,26.211S397.139,579.423,417.426,549.956Z" transform="translate(-353.968 -466.368)" fill="url(#linear-gradient-33)"/>
      <path id="Path_433" data-name="Path 433" d="M410.225,517.89,396.09,529.31l-10.5-6.75,14.62-11.42Z" transform="translate(-336.439 -446.064)" fill="url(#linear-gradient-34)"/>
      <path id="Path_434" data-name="Path 434" d="M408.446,518.128l-12.18,9.826-8.686-5.592,12.73-9.712Z" transform="translate(-336.54 -446.141)" fill="#bed7ff"/>
      <path id="Path_435" data-name="Path 435" d="M390.179,528c.076,1.035.2,2.212.38,3.484,1.585,11.392,7.281,30.378,14.99,22.983.275-.266.56-.513.845-.741a15.948,15.948,0,0,1,8.3-3.351c3.152-.437,6.2-.37,8.6-1.187h0a6.389,6.389,0,0,0,3.569-2.725,9.654,9.654,0,0,0,1.225-3.342,5.217,5.217,0,0,0,.114-1.13c-.2-7.718-26.353,17.7-26.448-6.133.095-4.092.095-16.471-3.1-15.863C394.555,520.806,389.751,521.812,390.179,528Z" transform="translate(-354.432 -465.413)" fill="#efbcae"/>
      <path id="Path_436" data-name="Path 436" d="M369.59,492.418s13.366,12.541,11.914,6.218a17.612,17.612,0,0,1-.114-6.313,33.073,33.073,0,0,1,1.187-5.288,32.3,32.3,0,0,1,1.1-3.085s-6.332-12.92-7.053-4.376a17.458,17.458,0,0,1-.74,3.854,18.492,18.492,0,0,1-2.307,4.747A16.983,16.983,0,0,1,369.59,492.418Z" transform="translate(-353.39 -463.217)" fill="#efbcae"/>
      <path id="Path_437" data-name="Path 437" d="M376.016,482.68a23.72,23.72,0,0,0,2.079,1.633,22.782,22.782,0,0,0,3.465,2.07h0c8.1,3.8,7.68-5.592,6.9-10.765-.142-.949-.3-1.775-.418-2.345C374.127,470.766,373.406,477.915,376.016,482.68Z" transform="translate(-353.655 -463.02)" fill="#efbcae"/>
      <path id="Path_438" data-name="Path 438" d="M372.566,485.9c1.149,1.367,6.047,5.478,8.734,6.645a.19.19,0,0,0,.256-.142,33.232,33.232,0,0,1,1.1-4.908.171.171,0,0,0-.085-.209,21.832,21.832,0,0,1-5-3.019C377.294,484.065,370.3,483.211,372.566,485.9Z" transform="translate(-353.518 -463.589)" fill="#dd988e"/>
      <path id="Path_439" data-name="Path 439" d="M376.016,482.68a23.72,23.72,0,0,0,2.079,1.633,22.782,22.782,0,0,0,3.465,2.07h0a1.02,1.02,0,0,0,.18-.066c5.174-2.516-2.7-9.351,2.193-8.629,2.611.389,3.9-.845,4.528-2.07-.142-.949-.3-1.775-.418-2.345C374.127,470.766,373.406,477.915,376.016,482.68Z" transform="translate(-353.655 -463.02)" fill="#dd988e"/>
      <path id="Path_440" data-name="Path 440" d="M385.151,476.5a3.642,3.642,0,0,1-1.063.1c-1.206-.066-4.68,0-1.9,3.8,3.3,4.462-6.9,14.088-12.341.579-4.747-11.772,2.051-19.328,13.291-18.407a8.107,8.107,0,0,1,7.595,7.4C390.971,474.6,386.822,476.094,385.151,476.5Z" transform="translate(-353.325 -462.5)" fill="url(#linear-gradient-35)"/>
      <path id="Path_441" data-name="Path 441" d="M394.752,525.464s-8.838,12.341-8.2,19.651c.541,6.057-13.357-31.821-4.566-35.894S394.752,525.464,394.752,525.464Z" transform="translate(-353.87 -464.84)" fill="#cc440e"/>
      <path id="Path_442" data-name="Path 442" d="M390.58,532.092c1.585,11.392,7.281,30.378,14.99,22.983.275-.266.56-.513.845-.74-3.465.845-5.136,1.576-7.519-1.766-10.6-14.876,2.914-19.622,2.914-19.622S391.387,531.5,390.58,532.092Z" transform="translate(-354.453 -466.02)" fill="#dd988e"/>
      <path id="Path_443" data-name="Path 443" d="M386.553,554.893c.56,4.69-2.316-32.277-2.706-36.72-.256-2.848-.313-4.879-.313-4.879s.18,1.4.522,3.484c.892,5.7,2.848,16.442,5.212,17.933,2.981,1.946,10.4-3.8,11.24-4.433h0l.066-.057v-.2h0a62.958,62.958,0,0,0-2.392-18.113c-3.085-11.183-15.389-16.784-26.885-21.834s-15.825,6.731-15.825,6.731C340.872,521.866,385.186,543.672,386.553,554.893Z" transform="translate(-352.525 -463.834)" fill="#ec6423"/>
      <path id="Path_444" data-name="Path 444" d="M425.814,589.144s-4.4,3.883-7.016,0c0,0-4.747,14.24,9.17,5.6S435.307,582.812,425.814,589.144Z" transform="translate(-355.844 -468.751)" fill="#00165e"/>
      <path id="Path_449" data-name="Path 449" d="M416,551.553c3.152-.437,6.2-.37,8.6-1.187h0c1.3-.949,2.5-1.9,3.569-2.725a9.654,9.654,0,0,0,1.225-3.342,5.213,5.213,0,0,0,.114-1.13A118.271,118.271,0,0,1,416,551.553Z" transform="translate(-355.742 -466.588)" fill="#dd988e"/>
      <path id="Path_450" data-name="Path 450" d="M385.74,518.27c.892,5.7,2.848,16.442,5.212,17.933,2.981,1.946,10.4-3.8,11.24-4.433h0l.076-.256h0C402.059,531.579,391,541.88,385.74,518.27Z" transform="translate(-354.208 -465.326)" fill="#cc440e"/>
    </g>
    <g id="Layer_31" data-name="Layer 31" transform="translate(271.554 60.709)">
      <g id="Layer_34" data-name="Layer 34">
        <path id="Path_456" data-name="Path 456" d="M318.431,426.242l-17.98,20.116-14.4-8.724L304.8,417.66Z" transform="translate(-286.05 -81.875)" fill="#00165e"/>
        <path id="Path_457" data-name="Path 457" d="M315.322,427.565l-14.335,16.044L289.51,436.65l14.942-15.93Z" transform="translate(-286.225 -82.03)" fill="#bed7ff"/>
        <ellipse id="Ellipse_24" data-name="Ellipse 24" cx="0.892" cy="0.892" rx="0.892" ry="0.892" transform="translate(6.93 357.933)" fill="#fff"/>
        <path id="Path_458" data-name="Path 458" d="M551.55,83.86" transform="translate(-317.267 -83.86)" fill="none"/>
        <path id="Path_459" data-name="Path 459" d="M789.54,185" transform="translate(-329.327 -88.985)" fill="none"/>
        <path id="Path_460" data-name="Path 460" d="M565.85,354.3" transform="translate(-317.991 -97.565)" fill="none"/>
        <path id="Path_461" data-name="Path 461" d="M717.92,427.67" transform="translate(-325.698 -101.283)" fill="none"/>
        <path id="Path_462" data-name="Path 462" d="M518.1,368.92" transform="translate(-315.571 -98.306)" fill="none"/>
        <path id="Path_463" data-name="Path 463" d="M789.77,509.19" transform="translate(-329.339 -105.414)" fill="none"/>
      </g>
    </g>
    <g id="long_hair_girl" data-name="long hair girl" transform="translate(236.772 372.799)">
      <path id="Path_464" data-name="Path 464" d="M311.35,531.37l1.69,2.848A28.717,28.717,0,0,0,319.2,533c.665-.294.949-.646.6-1.035v-.047a7.889,7.889,0,0,1-1.633-2.848h0a20.8,20.8,0,0,1-.589-8.364c-.161-1.263-7.462-2.079-5.753.826a4.188,4.188,0,0,1,.465,1.253C312.992,526.044,311.35,531.37,311.35,531.37Z" transform="translate(-270.312 -418.029)" fill="#fec2ae"/>
      <path id="Path_465" data-name="Path 465" d="M311.35,531.5l1.69,2.848s6.541-1.9,6.721-2.3a7.89,7.89,0,0,1-1.633-2.848c-6.816,6.351-4.557-7.025-4.557-7.025a10.182,10.182,0,0,0-1.32.731C312.992,526.177,311.35,531.5,311.35,531.5Z" transform="translate(-270.312 -418.162)" fill="#dd988e"/>
      <path id="Path_468" data-name="Path 468" d="M318.129,529.448s-2.174,4.936-6.645,1.557c0,0-2.07,9.493,4.5,6.759C343.817,526.126,325.913,525.717,318.129,529.448Z" transform="translate(-270.303 -418.424)" fill="#00165e"/>
      <path id="Path_469" data-name="Path 469" d="M307.32,449.645a1.9,1.9,0,0,0,.437.475c2.554,2.145,9.787-.949,7.595-3.9a4.292,4.292,0,0,0-1.272-1.082C308.44,441.765,307.32,449.645,307.32,449.645Z" transform="translate(-270.108 -414.215)" fill="#f8d5c8"/>
      <path id="Path_470" data-name="Path 470" d="M307.78,450.222c2.554,2.146,9.788-.949,7.595-3.9A9.151,9.151,0,0,1,307.78,450.222Z" transform="translate(-270.131 -414.318)" fill="#dd988e"/>
      <path id="Path_471" data-name="Path 471" d="M300.408,454.075c.418,1.566,1.481,4.747,3.18,4.747a1.414,1.414,0,0,0,.627-.171c1.9-.9,4.623-5.212,5.7-6.968a1.092,1.092,0,0,0-.171-1.348l-.275-.285-1.377-1.377a1.082,1.082,0,0,0-1.614.085c-1.177,1.576-4.13,3.285-5.516,4.035A1.111,1.111,0,0,0,300.408,454.075Z" transform="translate(-269.755 -414.421)" fill="#ec6423"/>
      <path id="Path_472" data-name="Path 472" d="M324.54,464.545a.568.568,0,0,0,.076.18,6.218,6.218,0,0,0,2.44,2.155,2.516,2.516,0,0,0,1.994-.949,5.606,5.606,0,0,0,.351-.475h0c1.642-2.345,4.49-7.974,2.63-9.18a2.145,2.145,0,0,0-1.566-.171c-.522.1-1.766,1.481-2.193,1.813-1.329,1.054-3.475,2.639-3.864,4.747a3.883,3.883,0,0,0,.133,1.88Z" transform="translate(-270.971 -414.81)" fill="#f8d5c8"/>
      <path id="Path_473" data-name="Path 473" d="M291.287,446.3a16.47,16.47,0,0,1,.18-6.342,14.892,14.892,0,0,1,.873-2.687,11.873,11.873,0,0,1,1.206-2.24l-9.019-12.389L280,439.538Z" transform="translate(-268.723 -413.118)" fill="#f8d5c8"/>
      <path id="Path_474" data-name="Path 474" d="M328.59,533s-3.38,5.63,0,9.009,13.518-4.509,13.518-4.509Z" transform="translate(-271.11 -418.71)" fill="#00165e"/>
      <path id="Path_475" data-name="Path 475" d="M289.632,435.827h0a6.493,6.493,0,0,0,3.076,1.272c6.123.873,6.123-9.142,5.819-13.642-.057-.883-.123-1.547-.161-1.9v-.247c-3.38-5.629-12.389,2.25-12.389,2.25S285.16,432.4,289.632,435.827Z" transform="translate(-269.023 -412.948)" fill="#efbcae"/>
      <path id="Path_476" data-name="Path 476" d="M291.827,440.546a14.9,14.9,0,0,1,.873-2.687,6.266,6.266,0,0,1-4.5-2.848C286.567,432.533,285.96,436.862,291.827,440.546Z" transform="translate(-269.082 -413.708)" fill="#dd988e"/>
      <path id="Path_477" data-name="Path 477" d="M293.661,444.94s-2.259-4.5-9.019-4.5S286.9,444.94,293.661,444.94Z" transform="translate(-268.837 -414.02)" fill="#cc440e"/>
      <path id="Path_478" data-name="Path 478" d="M302.089,465.8s-2.25,20.268-2.25,27.018c0,8.544-6.759-40.546-6.759-40.546S302.089,448.905,302.089,465.8Z" transform="translate(-269.386 -414.606)" fill="#cc440e"/>
      <path id="Path_479" data-name="Path 479" d="M316.652,509.328c1.358-.456,3.266,2.914,5.126,7.253,2.763,6.446,5.459,15.047,6.133,16.395,1.13,2.25,5.629,2.25,5.629,2.25v-.532c-.152-3.655-1.139-25.328-3.361-34.309a16.347,16.347,0,0,0-10.129-11.534C311.022,485.263,313.272,510.448,316.652,509.328Z" transform="translate(-270.43 -416.455)" fill="#fec2ae"/>
      <path id="Path_480" data-name="Path 480" d="M289.718,435.948h0l2.753-5.7a1.12,1.12,0,0,0,.057-.873,1.785,1.785,0,0,1,2.155-2.288c.892.123,2.373-1.652,3.484-2.962a1.747,1.747,0,0,0,.4-1.263c-.047-.522-.085-.949-.114-1.158-1.32-.123-3.712,0-7.595,1.576C284.468,425.857,289.462,435.454,289.718,435.948Z" transform="translate(-269.109 -413.069)" fill="#dd988e"/>
      <path id="Path_481" data-name="Path 481" d="M324.714,497.849s-5.421-13.509-18.037-13.509c-13.509,0-33.786,2.25-33.786,2.25l29.287,36.074Z" transform="translate(-268.363 -416.244)" fill="url(#linear-gradient-36)"/>
      <path id="Path_482" data-name="Path 482" d="M331.415,506.592s-6.759-24.777-23.648-13.518S283,508.842,283,508.842l23.648,11.269Z" transform="translate(-268.875 -416.538)" fill="url(#linear-gradient-37)"/>
      <path id="Path_483" data-name="Path 483" d="M322.23,465.5a11.658,11.658,0,0,0,5.611,4.063,7.1,7.1,0,0,0,1.452-4.168h0c1.642-2.345,4.49-7.974,2.63-9.18-.275,1.642,1.092,2.06-2.971,7.955-.949,1.386-2.563,1.785-4.443.532a8.036,8.036,0,0,1-1.063-.864C323.084,464.375,322.676,464.935,322.23,465.5Z" transform="translate(-270.863 -414.819)" fill="#dd988e"/>
      <path id="Path_484" data-name="Path 484" d="M304.378,458.781c1.9-.9,4.623-5.212,5.7-6.968a1.092,1.092,0,0,0-.171-1.348l-.275-.285s-2.364,5.943-5.383,6.038C303.239,456.246,303.466,457.471,304.378,458.781Z" transform="translate(-269.919 -414.513)" fill="#cc440e"/>
      <path id="Path_485" data-name="Path 485" d="M268.728,474.865c2.25,24.777,31.185,44.618,30.378,15.768-.209-7.984-.674-14.24-1.177-18.911-.408-4.054-.864-6.911-1.177-8.7,1.547,6.7,7.1,25.489,19.252,15.189,4.68-3.959,7.528-7.006,9.066-9.37a7.1,7.1,0,0,0,1.452-4.168h0a3.209,3.209,0,0,0-.342-1.225,4.813,4.813,0,0,0-2.269-1.994,2.051,2.051,0,0,0-2.383.446,2.811,2.811,0,0,0-.228.285c-.18.285-.389.6-.627.949-.361.513-.769,1.073-1.215,1.671-3.009,3.873-7.927,8.962-10.775,6.114-1.69-1.69-4.576-11.933-4.509-14.639.076-3.361-1.9-9.047-15.189-12.949C269.9,437.7,266.478,450.088,268.728,474.865Z" transform="translate(-268.121 -414.098)" fill="#ec6423"/>
      <path id="Path_486" data-name="Path 486" d="M293.2,426.1a2.183,2.183,0,0,0-2.07,2.933,1.158,1.158,0,0,1-.066.8,43.612,43.612,0,0,0-4.319,15.426c-.6,8.99-4.158,22.613-13.167,18.1s-4.851-16.974-1.471-27.113,4.5-30.378,22.527-21.4c0,0,8.838,4.424-.845,11.069A1.3,1.3,0,0,1,293.2,426.1Z" transform="translate(-268.123 -412.609)" fill="url(#linear-gradient-38)"/>
      <path id="Path_487" data-name="Path 487" d="M298.31,464.15c1.547,6.7,7.1,25.489,19.252,15.189,4.68-3.959,7.528-7.006,9.066-9.37a7.1,7.1,0,0,0,1.452-4.168h0a3.209,3.209,0,0,0-.342-1.225c-.085,5.886-11.933,17.543-18.312,16.585C303.256,480.26,298.6,465.1,298.31,464.15Z" transform="translate(-269.651 -415.221)" fill="#cc440e"/>
      <path id="Path_488" data-name="Path 488" d="M322.21,517.9c2.763,6.446,5.459,15.047,6.133,16.395,1.13,2.25,5.629,2.25,5.629,2.25v-.532l-.19.047c-5.041,1.443-10.443-21.464-10.443-21.464a26.761,26.761,0,0,0-1.13,3.3Z" transform="translate(-270.862 -417.778)" fill="#dd988e"/>
    </g>
    <g id="c-5" data-name="c" transform="translate(207.04 407.2)">
      <path id="Path_504" data-name="Path 504" d="M330.88,509.246l5.525,40.821a1.035,1.035,0,0,1-.731,1.13,3.142,3.142,0,0,1-2,0,1.186,1.186,0,0,1-.674-.873c-1.234-5.7-4.367-41.144-4.367-41.144Z" transform="translate(-241.456 -451.904)" fill="#0b39fa"/>
      <path id="Path_505" data-name="Path 505" d="M295.533,531.971,290.169,576.9a1.139,1.139,0,0,1-1.006,1.035,2.962,2.962,0,0,1-1.956-.446,1.3,1.3,0,0,1-.418-1.1c.285-6.361,6.56-44.96,6.56-44.96Z" transform="translate(-239.335 -453.032)" fill="#00165e"/>
      <path id="Path_506" data-name="Path 506" d="M252.779,504.682l-5.81,46.726a1.187,1.187,0,0,1-1.016,1.082,2.847,2.847,0,0,1-1.956-.437,1.348,1.348,0,0,1-.408-1.139c.351-6.645,7.006-46.764,7.006-46.764Z" transform="translate(-237.146 -451.649)" fill="#00165e"/>
      <path id="Path_507" data-name="Path 507" d="M300.148,514.97,285.5,478.9s-4.5-9.009-10.139-11.268-28.147-15.768-28.147-15.768-12.389-10.129-10.139,6.759c1.9,13.936,5.25,30.938,6.379,36.464a19.689,19.689,0,0,0,9.389,13.091c10.129,5.63,38.286,21.4,38.286,21.4Z" transform="translate(-236.802 -448.847)" fill="url(#linear-gradient-39)"/>
      <path id="Path_508" data-name="Path 508" d="M330.75,512.38l-34.907,21.4s-7.889-3.38-1.13-13.509c5.99-8.99,31.47-23.3,37.156-26.42a4.377,4.377,0,0,1,3.8-.275c1.585.7,3.076,2.592,1.832,7.594C335.26,510.1,330.75,512.38,330.75,512.38Z" transform="translate(-239.598 -451.098)" fill="url(#linear-gradient-40)"/>
    </g>
    <g id="c-6" data-name="c" transform="translate(292.631 454.043)">
      <path id="Path_509" data-name="Path 509" d="M421.09,559.076l5.516,40.821a1.025,1.025,0,0,1-.731,1.13,3.142,3.142,0,0,1-2,0,1.149,1.149,0,0,1-.665-.873c-1.244-5.7-4.367-41.144-4.367-41.144Z" transform="translate(-331.618 -501.273)" fill="#00165e"/>
      <path id="Path_510" data-name="Path 510" d="M385.668,580.612l-5.639,46.023a1.177,1.177,0,0,1-1.016,1.063,2.905,2.905,0,0,1-1.956-.446,1.329,1.329,0,0,1-.408-1.12c.323-6.522,6.826-46.052,6.826-46.052Z" transform="translate(-329.48 -502.341)" fill="#00165e"/>
      <path id="Path_511" data-name="Path 511" d="M342.921,554.514,336.6,603.366a1.263,1.263,0,0,1-1.035,1.139,2.716,2.716,0,0,1-1.956-.446,1.424,1.424,0,0,1-.4-1.177c.427-6.9,7.519-48.862,7.519-48.862Z" transform="translate(-327.278 -501.02)" fill="#00165e"/>
      <path id="Path_512" data-name="Path 512" d="M390.308,564.31,375.67,528.236s-4.509-9.009-10.139-11.259-28.157-15.768-28.157-15.768-12.389-10.139-10.139,6.75c1.9,13.946,5.25,30.948,6.379,36.473A19.725,19.725,0,0,0,343,557.523c10.139,5.629,38.3,21.4,38.3,21.4Z" transform="translate(-326.962 -498.191)" fill="url(#linear-gradient-41)"/>
      <path id="Path_513" data-name="Path 513" d="M420.93,562.209l-34.916,21.4s-7.879-3.38-1.13-13.518c6-8.981,31.47-23.287,37.166-26.41a4.32,4.32,0,0,1,3.8-.275c1.595.7,3.076,2.592,1.842,7.595C425.42,559.959,420.93,562.209,420.93,562.209Z" transform="translate(-329.759 -500.466)" fill="url(#linear-gradient-42)"/>
    </g>
  </g>
</svg>
