<svg id="Layer_2" data-name="Layer 2" xmlns="http://www.w3.org/2000/svg" viewBox="0 0 47.94 47.94"><defs><style>.cls-1{fill:#707070;}</style></defs><path id="right_arrow_icn" data-name="right arrow icn" class="cls-1" d="M526.92,304.43a24,24,0,1,0,24-24h0A24,24,0,0,0,526.92,304.43Zm2,0a21.94,21.94,0,1,1,21.94,21.95A21.94,21.94,0,0,1,529,304.43Zm24.31-10.34-9.64,9.63a1.07,1.07,0,0,0-.3.72,1.09,1.09,0,0,0,.08.39,1,1,0,0,0,.22.32l9.63,9.64a1,1,0,0,0,1.44,0,1,1,0,0,0,0-1.44l-8.9-8.9s.09-.12,1-1l7.9-7.9a1,1,0,0,0,0-1.44,1,1,0,0,0-1.44,0h0Z" transform="translate(-526.92 -280.47)"/></svg>
