<?xml version="1.0" encoding="utf-8"?>
<!-- Generator: Adobe Illustrator 24.3.0, SVG Export Plug-In . SVG Version: 6.00 Build 0)  -->
<svg version="1.1" id="Layer_1" xmlns="http://www.w3.org/2000/svg" xmlns:xlink="http://www.w3.org/1999/xlink" x="0px" y="0px"
	 viewBox="0 0 92.4 38.4" style="enable-background:new 0 0 92.4 38.4;" xml:space="preserve">
<style type="text/css">
	.st0{fill:url(#Path_629_1_);}
	.st1{fill:#486FFF;}
	.st2{fill:#FFFFFF;}
	.st3{fill:#0B39FA;}
</style>
<g id="LOGO_SVG" transform="translate(-165 -38.247)">
	<g id="logo_svg-2" transform="translate(158.3 26.222)">
		
			<radialGradient id="Path_629_1_" cx="-346.7423" cy="305.2869" r="0.7855" gradientTransform="matrix(33.7711 0 0 -33.7686 11740.9531 10338.0127)" gradientUnits="userSpaceOnUse">
			<stop  offset="0" style="stop-color:#0B39FA"/>
			<stop  offset="1" style="stop-color:#001CAE"/>
		</radialGradient>
		<path id="Path_629" class="st0" d="M7.5,24.4l22.7-12.1c0.5-0.3,1.2-0.3,1.7,0l22.7,12.1c0.4,0.2,0.5,0.7,0.3,1
			c0,0.1-0.1,0.1-0.2,0.2L31.1,45.8L7.4,25.7c-0.3-0.3-0.4-0.8-0.1-1.1C7.4,24.5,7.5,24.4,7.5,24.4z"/>
		<path id="Path_630" class="st1" d="M35.2,27.6l-4.1,3.6l-4.1-3.6l4.1-7.3L35.2,27.6z"/>
		<path id="Path_631" class="st2" d="M40.6,37.3v13.1H21.6V37.3l5.4-9.8l4.1,3.6l4.1-3.6L40.6,37.3z"/>
		<path id="Path_632" class="st3" d="M55.6,25.5c0,0.5-0.1,23.5-0.1,23.5c0,0.1,0,1.4-2.3,1.4H9.1c-2.4,0-2.4-1.4-2.4-1.4V25.5
			c0-1,0.8-1,0.8-1l14.2,12.7l5.6,5.1l3.8,3.4l3.7-3.3l5.6-5.1l14.3-12.7C55.2,24.6,55.6,25,55.6,25.5
			C55.6,25.5,55.6,25.5,55.6,25.5z"/>
		<path id="Path_633" class="st1" d="M40.5,37.4v13.1h-5.6v-8.1L40.5,37.4z"/>
		<path id="Path_634" class="st1" d="M27.3,42.4v8.1h-5.6V37.3L27.3,42.4z"/>
	</g>
</g>
<g>
	<path d="M52.7,35.7c0.8,0.5,1.9,0.9,3.1,0.9c1.8,0,2.8-0.9,2.8-2.3c0-1.2-0.7-2-2.5-2.7c-2.2-0.8-3.6-2-3.6-3.8
		c0-2.1,1.7-3.7,4.4-3.7c1.4,0,2.4,0.3,3,0.7l-0.5,1.4c-0.4-0.3-1.3-0.6-2.5-0.6c-1.8,0-2.5,1.1-2.5,2c0,1.3,0.8,1.9,2.7,2.6
		c2.3,0.9,3.4,2,3.4,4c0,2.1-1.5,3.9-4.7,3.9c-1.3,0-2.7-0.4-3.4-0.9L52.7,35.7z"/>
	<path d="M65,33.5l-1.4,4.2h-1.8l4.6-13.5h2.1l4.6,13.5h-1.9l-1.4-4.2H65z M69.4,32.2l-1.3-3.9c-0.3-0.9-0.5-1.7-0.7-2.5h0
		c-0.2,0.8-0.4,1.6-0.7,2.4l-1.3,3.9H69.4z"/>
	<path d="M75,24.3h7.3v1.5h-5.5v4.5h5.1v1.4h-5.1v6.1H75V24.3z"/>
	<path d="M91.8,31.5h-5.2v4.9h5.8v1.5h-7.6V24.3h7.3v1.5h-5.5V30h5.2V31.5z"/>
</g>
</svg>
