<svg id="Layer_2" data-name="Layer 2" xmlns="http://www.w3.org/2000/svg" viewBox="0 0 47.94 47.94"><defs><style>.cls-1{fill:#0b39fa;}</style></defs><path id="right_arrow_icn" data-name="right arrow icn" class="cls-1" d="M392.5,260.06a24,24,0,1,0-24,24h0A24,24,0,0,0,392.5,260.06Zm-2,0a21.94,21.94,0,1,1-21.94-21.94A21.94,21.94,0,0,1,390.47,260.06Zm-24.31,10.35,9.64-9.63a1,1,0,0,0,.3-.72,1,1,0,0,0-.08-.39.91.91,0,0,0-.22-.33l-9.63-9.63a1,1,0,0,0-1.44,1.43l8.9,8.9s-.09.13-1,1l-7.9,7.9a1,1,0,0,0,0,1.44,1,1,0,0,0,1.44,0h0Z" transform="translate(-344.56 -236.09)"/></svg>