<svg xmlns="http://www.w3.org/2000/svg" viewBox="0 0 219.18 277.38"><defs><style>.cls-1,.cls-14,.cls-15{isolation:isolate;}.cls-2{fill:#fff;}.cls-3{fill:#f4f8ff;}.cls-4{fill:#d3cccc;}.cls-5{fill:#cdd6e3;}.cls-6{fill:#f2f2f2;}.cls-7{fill:#ffacb6;}.cls-8{fill:#ff9898;}.cls-15,.cls-9{fill:#e5e5e5;}.cls-10{fill:blue;}.cls-11,.cls-14{fill:#00217e;}.cls-12{fill:#d8d8d8;}.cls-13,.cls-17{fill:none;}.cls-14,.cls-15{opacity:0.69;}.cls-16{fill:#bfbebe;}.cls-17{stroke:#bfbebe;stroke-miterlimit:10;}.cls-18{fill:#333a41;}</style></defs><g id="Layer_2" data-name="Layer 2"><g id="Layer_5" data-name="Layer 5"><g id="point_1" data-name="point 1"><g id="_Authority_teacher_uploads_exam_on_server" data-name=" Authority teacher uploads exam on server" class="cls-1"><g class="cls-1"><path class="cls-2" d="M5,248.1l-3.6,8.64a.85.85,0,0,1-.29.4.74.74,0,0,1-.43.14.69.69,0,0,1-.53-.2.77.77,0,0,1-.19-.5.91.91,0,0,1,.05-.26l4.06-9.82a.94.94,0,0,1,.33-.42.72.72,0,0,1,.47-.13.82.82,0,0,1,.75.55l4,9.68a.87.87,0,0,1,.06.32.7.7,0,0,1-.23.56.72.72,0,0,1-.52.22.73.73,0,0,1-.44-.15.87.87,0,0,1-.29-.39l-3.64-8.6Zm-3,6.36.72-1.53H7.33l.27,1.53Z"/><path class="cls-2" d="M17.65,248.8a.81.81,0,0,1,.57.23.82.82,0,0,1,.23.59v4.2a3.52,3.52,0,0,1-.93,2.6,3.5,3.5,0,0,1-2.62.94,3.45,3.45,0,0,1-2.6-.94,3.52,3.52,0,0,1-.92-2.6v-4.2a.82.82,0,0,1,.22-.59.78.78,0,0,1,.58-.23.77.77,0,0,1,.56.23.79.79,0,0,1,.24.59v4.2a2.22,2.22,0,0,0,.48,1.56,1.92,1.92,0,0,0,1.44.51,1.93,1.93,0,0,0,1.45-.51,2.18,2.18,0,0,0,.5-1.56v-4.2a.82.82,0,0,1,.22-.59A.78.78,0,0,1,17.65,248.8Z"/><path class="cls-2" d="M21,248.9h3.76a.76.76,0,0,1,.54.21.75.75,0,0,1,.21.54.69.69,0,0,1-.21.51.76.76,0,0,1-.54.21H21a.73.73,0,0,1-.54-.22.76.76,0,0,1,0-1.05A.76.76,0,0,1,21,248.9Zm1.68-2.08a.76.76,0,0,1,.58.23.79.79,0,0,1,.22.58v7.43a.9.9,0,0,0,.1.46.47.47,0,0,0,.26.24,1,1,0,0,0,.34.06.79.79,0,0,0,.32-.06.79.79,0,0,1,.32-.06.47.47,0,0,1,.36.17.73.73,0,0,1,.16.48.71.71,0,0,1-.42.63,1.78,1.78,0,0,1-.9.24,5.58,5.58,0,0,1-.64-.05,1.93,1.93,0,0,1-.71-.24,1.5,1.5,0,0,1-.57-.62,2.58,2.58,0,0,1-.22-1.19v-7.49a.8.8,0,0,1,.23-.58A.77.77,0,0,1,22.64,246.82Z"/><path class="cls-2" d="M31.89,248.66a2.72,2.72,0,0,1,1.71.47,2.56,2.56,0,0,1,.86,1.27,6.09,6.09,0,0,1,.24,1.76v4.24a.76.76,0,0,1-.23.58.8.8,0,0,1-1.14,0,.8.8,0,0,1-.23-.58v-4.24a3.31,3.31,0,0,0-.15-1,1.43,1.43,0,0,0-.53-.74,1.76,1.76,0,0,0-1-.27,2.29,2.29,0,0,0-1.12.27,2,2,0,0,0-.75.74,2.09,2.09,0,0,0-.26,1v4.24A.8.8,0,0,1,29,257a.78.78,0,0,1-.57.24.75.75,0,0,1-.58-.24.79.79,0,0,1-.22-.58V246.19a.79.79,0,0,1,.22-.58.75.75,0,0,1,.58-.23.77.77,0,0,1,.57.23.8.8,0,0,1,.23.58v4.37l-.29.16a2.52,2.52,0,0,1,.38-.72,2.94,2.94,0,0,1,.65-.67,3.1,3.1,0,0,1,.87-.49A2.9,2.9,0,0,1,31.89,248.66Z"/><path class="cls-2" d="M45.33,253a4.41,4.41,0,0,1-.57,2.26,4.32,4.32,0,0,1-5.84,1.55,4.17,4.17,0,0,1-1.54-1.55,4.88,4.88,0,0,1,0-4.54,4.09,4.09,0,0,1,1.54-1.55,4.25,4.25,0,0,1,5.84,1.55A4.44,4.44,0,0,1,45.33,253Zm-1.6,0a3.2,3.2,0,0,0-.35-1.53,2.77,2.77,0,0,0-1-1,2.5,2.5,0,0,0-1.35-.38,2.46,2.46,0,0,0-1.33.38,2.77,2.77,0,0,0-1,1,3.37,3.37,0,0,0,0,3,2.73,2.73,0,0,0,1,1,2.53,2.53,0,0,0,1.33.36,2.57,2.57,0,0,0,1.35-.36,2.73,2.73,0,0,0,1-1A3.19,3.19,0,0,0,43.73,253Z"/><path class="cls-2" d="M48.26,257.22a.75.75,0,0,1-.58-.24.79.79,0,0,1-.22-.58v-6.78a.82.82,0,0,1,.22-.59.78.78,0,0,1,.58-.23.77.77,0,0,1,.56.23.79.79,0,0,1,.24.59v1.79l-.16-.69a2.53,2.53,0,0,1,.39-.83,2.67,2.67,0,0,1,.63-.67,2.52,2.52,0,0,1,.82-.45,2.8,2.8,0,0,1,1-.16,1.2,1.2,0,0,1,.72.22.68.68,0,0,1,.3.56.83.83,0,0,1-.22.63.71.71,0,0,1-.5.2,1,1,0,0,1-.46-.1A1.25,1.25,0,0,0,51,250a1.47,1.47,0,0,0-.69.17,2,2,0,0,0-.64.52,2.9,2.9,0,0,0-.46.81,3.11,3.11,0,0,0-.16,1v3.84a.77.77,0,0,1-.24.58A.74.74,0,0,1,48.26,257.22Z"/><path class="cls-2" d="M55.23,247.68a1.08,1.08,0,0,1-.67-.17.68.68,0,0,1-.21-.57v-.25a.63.63,0,0,1,.23-.56,1.1,1.1,0,0,1,.67-.16,1.06,1.06,0,0,1,.69.17.68.68,0,0,1,.2.55v.25a.69.69,0,0,1-.21.58A1.19,1.19,0,0,1,55.23,247.68Zm.82,8.72a.8.8,0,0,1-.23.58.8.8,0,0,1-1.14,0,.76.76,0,0,1-.23-.58v-6.85a.76.76,0,0,1,.23-.58.82.82,0,0,1,1.14,0,.8.8,0,0,1,.23.58Z"/><path class="cls-2" d="M58.5,248.9h3.76a.72.72,0,0,1,.53.21.72.72,0,0,1,.22.54.67.67,0,0,1-.22.51.72.72,0,0,1-.53.21H58.5a.7.7,0,0,1-.54-.22.73.73,0,0,1,.54-1.25Zm1.68-2.08a.74.74,0,0,1,.57.23.8.8,0,0,1,.23.58v7.43a1,1,0,0,0,.09.46.48.48,0,0,0,.27.24,1,1,0,0,0,.34.06.75.75,0,0,0,.31-.06.81.81,0,0,1,.33-.06.45.45,0,0,1,.35.17.68.68,0,0,1,.16.48.72.72,0,0,1-.41.63,1.78,1.78,0,0,1-.9.24,5.42,5.42,0,0,1-.64-.05,1.87,1.87,0,0,1-.71-.24,1.5,1.5,0,0,1-.57-.62,2.58,2.58,0,0,1-.22-1.19v-7.49a.76.76,0,0,1,.23-.58A.74.74,0,0,1,60.18,246.82Z"/><path class="cls-2" d="M71.44,248.74A.76.76,0,0,1,72,249a.83.83,0,0,1,.22.58v6.88a4.34,4.34,0,0,1-.54,2.29A3.1,3.1,0,0,1,70.26,260a4.92,4.92,0,0,1-2,.41,6.48,6.48,0,0,1-1.15-.11,3.61,3.61,0,0,1-.94-.29,1.26,1.26,0,0,1-.55-.44.61.61,0,0,1,0-.56.79.79,0,0,1,.38-.52.68.68,0,0,1,.56,0l.72.29a3,3,0,0,0,1,.17,3.1,3.1,0,0,0,1.33-.25,1.79,1.79,0,0,0,.83-.8,3.16,3.16,0,0,0,.27-1.41v-1.1l.26.38a2.57,2.57,0,0,1-.67.88,3,3,0,0,1-1,.54,3.87,3.87,0,0,1-1.26.2,2.72,2.72,0,0,1-1.51-.4,2.54,2.54,0,0,1-1-1.08,3.72,3.72,0,0,1-.34-1.6v-4.75a.8.8,0,0,1,.23-.58.82.82,0,0,1,1.14,0,.76.76,0,0,1,.23.58v4.32a2.19,2.19,0,0,0,.47,1.55,1.83,1.83,0,0,0,1.37.48,2.1,2.1,0,0,0,1.06-.25,1.84,1.84,0,0,0,.7-.71,2.17,2.17,0,0,0,.26-1.07v-4.32a.8.8,0,0,1,.23-.58A.77.77,0,0,1,71.44,248.74Z"/><path class="cls-2" d="M83.44,260.18a.61.61,0,0,1-.37-.12A7.92,7.92,0,0,1,81,258.21a8.22,8.22,0,0,1-1.3-2.4,8.6,8.6,0,0,1-.43-2.72,8.47,8.47,0,0,1,.43-2.72A8,8,0,0,1,81,248a8.69,8.69,0,0,1,2.11-1.88.61.61,0,0,1,.37-.12.59.59,0,0,1,.5.24.85.85,0,0,1,.17.47.65.65,0,0,1-.29.54,7.35,7.35,0,0,0-1.66,1.63,7,7,0,0,0-1,2,7.52,7.52,0,0,0,0,4.44,6.6,6.6,0,0,0,1,2,6.13,6.13,0,0,0,1.69,1.59.63.63,0,0,1,.29.56.69.69,0,0,1-.19.46A.62.62,0,0,1,83.44,260.18Z"/><path class="cls-2" d="M85.82,248.9h3.76a.73.73,0,0,1,.54.21.75.75,0,0,1,.21.54.69.69,0,0,1-.21.51.73.73,0,0,1-.54.21H85.82a.74.74,0,0,1-.53-1.27A.72.72,0,0,1,85.82,248.9Zm1.68-2.08a.75.75,0,0,1,.58.23.79.79,0,0,1,.22.58v7.43a.9.9,0,0,0,.1.46.47.47,0,0,0,.26.24,1,1,0,0,0,.35.06.78.78,0,0,0,.31-.06.81.81,0,0,1,.33-.06.47.47,0,0,1,.35.17.73.73,0,0,1,.16.48.71.71,0,0,1-.42.63,1.72,1.72,0,0,1-.89.24,5.42,5.42,0,0,1-.64-.05,1.92,1.92,0,0,1-.72-.24,1.55,1.55,0,0,1-.56-.62,2.56,2.56,0,0,1-.23-1.19v-7.49a.77.77,0,0,1,.24-.58A.73.73,0,0,1,87.5,246.82Z"/><path class="cls-2" d="M96.27,257.38a4.57,4.57,0,0,1-2.29-.56,3.79,3.79,0,0,1-1.53-1.52,4.54,4.54,0,0,1-.53-2.21,4.8,4.8,0,0,1,.57-2.41A4,4,0,0,1,94,249.14a3.85,3.85,0,0,1,1.94-.53,3.64,3.64,0,0,1,1.48.31,4.16,4.16,0,0,1,1.25.86,4,4,0,0,1,.87,1.3,4.34,4.34,0,0,1,.33,1.62.71.71,0,0,1-.25.53.83.83,0,0,1-.56.21H92.83l-.38-1.36h6l-.3.29V252a1.76,1.76,0,0,0-.39-1,2.18,2.18,0,0,0-.82-.65,2.28,2.28,0,0,0-1-.23,2.92,2.92,0,0,0-.93.15,1.88,1.88,0,0,0-.78.49,2.41,2.41,0,0,0-.55.88,3.91,3.91,0,0,0-.21,1.37,3.16,3.16,0,0,0,.37,1.54,2.66,2.66,0,0,0,2.39,1.37,3.3,3.3,0,0,0,1-.12,2.37,2.37,0,0,0,.64-.29,4.54,4.54,0,0,0,.44-.34,1.11,1.11,0,0,1,.48-.14.59.59,0,0,1,.48.2.65.65,0,0,1,.2.47.82.82,0,0,1-.35.64,4,4,0,0,1-1.2.74A4.07,4.07,0,0,1,96.27,257.38Z"/><path class="cls-2" d="M108.88,248.67a.81.81,0,0,1,.57.23.82.82,0,0,1,.23.59v6.91a.8.8,0,0,1-.23.58.78.78,0,0,1-.57.24.75.75,0,0,1-.58-.24.79.79,0,0,1-.22-.58v-1.15l.32.05a1.25,1.25,0,0,1-.23.64,3.35,3.35,0,0,1-.64.68,3.56,3.56,0,0,1-.94.54,3.2,3.2,0,0,1-1.17.22,3.56,3.56,0,0,1-2-.57,4,4,0,0,1-1.39-1.56,5.21,5.21,0,0,1,0-4.54,4,4,0,0,1,1.38-1.54,3.46,3.46,0,0,1,1.94-.56,3.53,3.53,0,0,1,2.29.8,2.87,2.87,0,0,1,.67.74,1.43,1.43,0,0,1,.24.75l-.49,0v-1.45a.81.81,0,0,1,.22-.58A.75.75,0,0,1,108.88,248.67Zm-3.27,7.23a2.23,2.23,0,0,0,1.32-.38,2.55,2.55,0,0,0,.89-1.05,3.25,3.25,0,0,0,.32-1.48,3.29,3.29,0,0,0-.32-1.49,2.65,2.65,0,0,0-.89-1,2.3,2.3,0,0,0-1.32-.38,2.36,2.36,0,0,0-1.31.38,2.65,2.65,0,0,0-.89,1,3.29,3.29,0,0,0-.32,1.49,3.25,3.25,0,0,0,.32,1.48,2.6,2.6,0,0,0,.88,1.05A2.27,2.27,0,0,0,105.61,255.9Z"/><path class="cls-2" d="M116,248.61a5.82,5.82,0,0,1,1.52.18,2.71,2.71,0,0,1,1.05.51,1,1,0,0,1,.39.76.87.87,0,0,1-.17.51.56.56,0,0,1-.47.23,1,1,0,0,1-.4-.08,1.73,1.73,0,0,1-.28-.19,1.77,1.77,0,0,0-.32-.23,2.16,2.16,0,0,0-.52-.16,3.58,3.58,0,0,0-.61-.06,2.77,2.77,0,0,0-1.47.38,2.74,2.74,0,0,0-1,1,3.43,3.43,0,0,0,0,3,2.72,2.72,0,0,0,1,1,2.49,2.49,0,0,0,1.4.38,3.5,3.5,0,0,0,.79-.07,2.41,2.41,0,0,0,.52-.18,2.54,2.54,0,0,0,.42-.3.64.64,0,0,1,.46-.15.67.67,0,0,1,.54.22.79.79,0,0,1,.18.53.89.89,0,0,1-.42.68,3.5,3.5,0,0,1-1.13.54,5.43,5.43,0,0,1-1.55.21,4,4,0,0,1-2.17-.58,3.87,3.87,0,0,1-1.43-1.57,5,5,0,0,1-.5-2.24,4.73,4.73,0,0,1,.53-2.25,4.08,4.08,0,0,1,1.47-1.56A4.15,4.15,0,0,1,116,248.61Z"/><path class="cls-2" d="M125.18,248.66a2.68,2.68,0,0,1,1.71.47,2.43,2.43,0,0,1,.86,1.27,5.76,5.76,0,0,1,.25,1.76v4.24a.8.8,0,0,1-.23.58.78.78,0,0,1-.57.24.75.75,0,0,1-.58-.24.79.79,0,0,1-.22-.58v-4.24a3.31,3.31,0,0,0-.15-1,1.43,1.43,0,0,0-.53-.74,1.77,1.77,0,0,0-1-.27,2.23,2.23,0,0,0-1.11.27,1.84,1.84,0,0,0-.75.74,2,2,0,0,0-.27,1v4.24a.76.76,0,0,1-.23.58.8.8,0,0,1-1.14,0,.8.8,0,0,1-.23-.58V246.19a.8.8,0,0,1,.23-.58.82.82,0,0,1,1.14,0,.76.76,0,0,1,.23.58v4.37l-.29.16a2.8,2.8,0,0,1,.38-.72,3,3,0,0,1,.66-.67,3.1,3.1,0,0,1,.87-.49A2.88,2.88,0,0,1,125.18,248.66Z"/><path class="cls-2" d="M134.46,257.38a4.57,4.57,0,0,1-2.29-.56,3.71,3.71,0,0,1-1.52-1.52,4.44,4.44,0,0,1-.54-2.21,4.8,4.8,0,0,1,.57-2.41,4,4,0,0,1,1.49-1.54,3.85,3.85,0,0,1,1.94-.53,3.61,3.61,0,0,1,1.48.31,4.34,4.34,0,0,1,1.26.86,4.15,4.15,0,0,1,.86,1.3,4.34,4.34,0,0,1,.34,1.62.72.72,0,0,1-.26.53.83.83,0,0,1-.56.21H131l-.38-1.36h6l-.3.29V252a1.83,1.83,0,0,0-.38-1,2.39,2.39,0,0,0-1.86-.88,2.92,2.92,0,0,0-.93.15,1.88,1.88,0,0,0-.78.49,2.41,2.41,0,0,0-.55.88,4.17,4.17,0,0,0-.2,1.37,3.16,3.16,0,0,0,.36,1.54,2.69,2.69,0,0,0,2.39,1.37,3.3,3.3,0,0,0,1-.12,2.37,2.37,0,0,0,.64-.29c.17-.12.32-.23.45-.34a1,1,0,0,1,.48-.14.62.62,0,0,1,.48.2.68.68,0,0,1,.19.47.82.82,0,0,1-.35.64,4,4,0,0,1-1.2.74A4.07,4.07,0,0,1,134.46,257.38Z"/><path class="cls-2" d="M141,257.22a.75.75,0,0,1-.57-.24.8.8,0,0,1-.23-.58v-6.78a.82.82,0,0,1,.23-.59.8.8,0,0,1,1.37.59v1.79l-.16-.69a2.77,2.77,0,0,1,.4-.83,2.67,2.67,0,0,1,.63-.67,2.52,2.52,0,0,1,.82-.45,2.79,2.79,0,0,1,.95-.16,1.16,1.16,0,0,1,.72.22.67.67,0,0,1,.31.56.79.79,0,0,1-.23.63.69.69,0,0,1-.49.2,1.1,1.1,0,0,1-.47-.1,1.21,1.21,0,0,0-.52-.1,1.47,1.47,0,0,0-.69.17,2,2,0,0,0-.64.52,2.67,2.67,0,0,0-.46.81,3.11,3.11,0,0,0-.17,1v3.84a.76.76,0,0,1-.23.58A.75.75,0,0,1,141,257.22Z"/><path class="cls-2" d="M147.12,260.18a.58.58,0,0,1-.5-.24.78.78,0,0,1-.17-.47.64.64,0,0,1,.28-.54,6.9,6.9,0,0,0,2.66-3.64,7.56,7.56,0,0,0,.34-2.22,7.89,7.89,0,0,0-.32-2.22,7.08,7.08,0,0,0-1-2,5.75,5.75,0,0,0-1.69-1.6.62.62,0,0,1-.28-.55.69.69,0,0,1,.19-.46.62.62,0,0,1,.48-.23.82.82,0,0,1,.37.1,8.17,8.17,0,0,1,2.12,1.87,8,8,0,0,1,1.29,2.4,8.33,8.33,0,0,1,.44,2.72,8.2,8.2,0,0,1-.45,2.71,8,8,0,0,1-1.3,2.4,8.46,8.46,0,0,1-2.1,1.88A.61.61,0,0,1,147.12,260.18Z"/><path class="cls-2" d="M164.59,248.8a.81.81,0,0,1,.57.23.82.82,0,0,1,.23.59v4.2a3.24,3.24,0,0,1-3.55,3.54,3.45,3.45,0,0,1-2.6-.94,3.52,3.52,0,0,1-.92-2.6v-4.2a.82.82,0,0,1,.22-.59.78.78,0,0,1,.58-.23.81.81,0,0,1,.57.23.82.82,0,0,1,.23.59v4.2a2.18,2.18,0,0,0,.49,1.56,1.88,1.88,0,0,0,1.43.51,1.93,1.93,0,0,0,1.45-.51,2.18,2.18,0,0,0,.5-1.56v-4.2A.82.82,0,0,1,164,249,.78.78,0,0,1,164.59,248.8Z"/><path class="cls-2" d="M172.25,248.66a3.59,3.59,0,0,1,2,.56,4,4,0,0,1,1.38,1.52,4.78,4.78,0,0,1,.51,2.25,4.87,4.87,0,0,1-.51,2.27,4,4,0,0,1-1.38,1.54,3.51,3.51,0,0,1-1.95.56,3.38,3.38,0,0,1-1.15-.19,3.66,3.66,0,0,1-1-.51,3.29,3.29,0,0,1-.68-.66,1.57,1.57,0,0,1-.33-.66l.43-.2v4.46a.76.76,0,0,1-.23.58.8.8,0,0,1-1.14,0,.8.8,0,0,1-.23-.58v-10a.81.81,0,0,1,.23-.57.8.8,0,0,1,1.14,0,.77.77,0,0,1,.23.57v1.11l-.25-.15a1.39,1.39,0,0,1,.3-.63,3.51,3.51,0,0,1,1.55-1.08A3,3,0,0,1,172.25,248.66Zm-.17,1.47a2.39,2.39,0,0,0-1.34.37,2.6,2.6,0,0,0-.89,1,3.31,3.31,0,0,0-.32,1.47,3.38,3.38,0,0,0,.32,1.48,2.53,2.53,0,0,0,.89,1,2.39,2.39,0,0,0,1.34.38,2.29,2.29,0,0,0,1.31-.38,2.6,2.6,0,0,0,.89-1,3.25,3.25,0,0,0,.33-1.48,3.17,3.17,0,0,0-.33-1.46,2.71,2.71,0,0,0-.89-1A2.29,2.29,0,0,0,172.08,250.13Z"/><path class="cls-2" d="M180,256.4a.8.8,0,0,1-.23.58.78.78,0,0,1-.57.24.75.75,0,0,1-.57-.24.8.8,0,0,1-.23-.58V246.19a.8.8,0,0,1,.81-.81.71.71,0,0,1,.57.23.79.79,0,0,1,.22.58Z"/><path class="cls-2" d="M190.62,253a4.41,4.41,0,0,1-.57,2.26,4.11,4.11,0,0,1-1.52,1.55,4.24,4.24,0,0,1-2.16.56,4.29,4.29,0,0,1-2.16-.56,4.21,4.21,0,0,1-1.53-1.55,4.81,4.81,0,0,1,0-4.54,4.14,4.14,0,0,1,1.53-1.55,4.2,4.2,0,0,1,2.16-.57,4.15,4.15,0,0,1,2.16.57,4,4,0,0,1,1.52,1.55A4.44,4.44,0,0,1,190.62,253Zm-1.6,0a3.2,3.2,0,0,0-.35-1.53,2.67,2.67,0,0,0-.95-1,2.5,2.5,0,0,0-1.35-.38,2.46,2.46,0,0,0-1.34.38,2.77,2.77,0,0,0-1,1,3.37,3.37,0,0,0,0,3,2.73,2.73,0,0,0,1,1,2.54,2.54,0,0,0,1.34.36,2.57,2.57,0,0,0,1.35-.36,2.63,2.63,0,0,0,.95-1A3.19,3.19,0,0,0,189,253Z"/><path class="cls-2" d="M199.58,248.67a.79.79,0,0,1,.57.23.82.82,0,0,1,.23.59v6.91a.8.8,0,0,1-.23.58.76.76,0,0,1-.57.24A.73.73,0,0,1,199,257a.8.8,0,0,1-.23-.58v-1.15l.32.05a1.25,1.25,0,0,1-.23.64,3.28,3.28,0,0,1-.63.68,3.63,3.63,0,0,1-1,.54,3.19,3.19,0,0,1-1.16.22,3.59,3.59,0,0,1-2-.57,4,4,0,0,1-1.39-1.56,5.31,5.31,0,0,1,0-4.54,4,4,0,0,1,1.38-1.54,3.71,3.71,0,0,1,3.22-.34,3.62,3.62,0,0,1,1,.58,3.06,3.06,0,0,1,.67.74,1.43,1.43,0,0,1,.24.75l-.5,0v-1.45a.82.82,0,0,1,.23-.58A.73.73,0,0,1,199.58,248.67Zm-3.26,7.23a2.27,2.27,0,0,0,1.32-.38,2.62,2.62,0,0,0,.89-1.05,3.38,3.38,0,0,0,.32-1.48,3.43,3.43,0,0,0-.32-1.49,2.73,2.73,0,0,0-.89-1,2.47,2.47,0,0,0-2.63,0,2.6,2.6,0,0,0-.9,1,3.43,3.43,0,0,0-.32,1.49,3.38,3.38,0,0,0,.32,1.48,2.55,2.55,0,0,0,.89,1.05A2.27,2.27,0,0,0,196.32,255.9Z"/><path class="cls-2" d="M209.84,245.38a.77.77,0,0,1,.8.81V256.4a.8.8,0,0,1-.23.58.78.78,0,0,1-.57.24.75.75,0,0,1-.58-.24.79.79,0,0,1-.22-.58v-1.15h.32a1.25,1.25,0,0,1-.23.65,3.42,3.42,0,0,1-.64.7,3.33,3.33,0,0,1-.94.55,3.2,3.2,0,0,1-1.17.22,3.57,3.57,0,0,1-2-.57,4,4,0,0,1-1.4-1.55,5.19,5.19,0,0,1,0-4.53,3.93,3.93,0,0,1,1.38-1.55,3.64,3.64,0,0,1,3.2-.35,3.62,3.62,0,0,1,1,.58,3.34,3.34,0,0,1,.68.74,1.43,1.43,0,0,1,.24.75l-.49,0v-4.75a.79.79,0,0,1,.22-.58A.75.75,0,0,1,209.84,245.38Zm-3.27,10.52a2.25,2.25,0,0,0,1.32-.38,2.58,2.58,0,0,0,.89-1,3.63,3.63,0,0,0,0-3,2.65,2.65,0,0,0-.89-1,2.33,2.33,0,0,0-1.32-.38,2.36,2.36,0,0,0-1.31.38,2.65,2.65,0,0,0-.89,1,3.63,3.63,0,0,0,0,3,2.58,2.58,0,0,0,.89,1A2.29,2.29,0,0,0,206.57,255.9Z"/><path class="cls-2" d="M212.77,255.9a.83.83,0,0,1-.13-.52.65.65,0,0,1,.33-.5.7.7,0,0,1,.48-.12.81.81,0,0,1,.47.25,3.52,3.52,0,0,0,1,.78,2.87,2.87,0,0,0,1.33.29,3.76,3.76,0,0,0,.66-.1,1.38,1.38,0,0,0,.58-.32.92.92,0,0,0,.24-.68.84.84,0,0,0-.26-.64,2,2,0,0,0-.67-.4c-.28-.1-.58-.19-.9-.28s-.68-.2-1-.32a3.89,3.89,0,0,1-.94-.45,2.38,2.38,0,0,1-.68-.73,2.21,2.21,0,0,1-.26-1.1,2,2,0,0,1,.42-1.3,2.87,2.87,0,0,1,1.11-.85,3.59,3.59,0,0,1,1.48-.3,4.22,4.22,0,0,1,1,.12,4.17,4.17,0,0,1,1,.37,2.85,2.85,0,0,1,.83.68.91.91,0,0,1,.18.49.57.57,0,0,1-.26.51.64.64,0,0,1-.47.15.65.65,0,0,1-.44-.18,2.27,2.27,0,0,0-.79-.6,2.68,2.68,0,0,0-1.09-.21,2.37,2.37,0,0,0-.63.08,1.22,1.22,0,0,0-.55.32.87.87,0,0,0-.23.65.81.81,0,0,0,.27.64,2,2,0,0,0,.7.4,8.76,8.76,0,0,0,.94.29c.33.09.66.19,1,.3a3.5,3.5,0,0,1,.88.46,2.22,2.22,0,0,1,.64.72,2.17,2.17,0,0,1,.25,1.11,2.07,2.07,0,0,1-.45,1.34,2.9,2.9,0,0,1-1.16.84,3.8,3.8,0,0,1-1.46.29,5.31,5.31,0,0,1-1.82-.33A3.28,3.28,0,0,1,212.77,255.9Z"/></g><g class="cls-1"><path class="cls-2" d="M52.94,277.38a4.61,4.61,0,0,1-2.3-.56,3.77,3.77,0,0,1-1.52-1.52,4.44,4.44,0,0,1-.54-2.21,4.8,4.8,0,0,1,.57-2.41,4.09,4.09,0,0,1,1.49-1.54,3.85,3.85,0,0,1,1.94-.53,3.57,3.57,0,0,1,1.48.31,4.09,4.09,0,0,1,1.26.86,4.28,4.28,0,0,1,1.2,2.92.72.72,0,0,1-.26.53.81.81,0,0,1-.56.21H49.5l-.39-1.36h6l-.31.29V272a1.83,1.83,0,0,0-.38-1,2.26,2.26,0,0,0-.82-.65,2.32,2.32,0,0,0-1-.23,2.82,2.82,0,0,0-.92.15,2,2,0,0,0-.79.49,2.53,2.53,0,0,0-.54.88,3.91,3.91,0,0,0-.21,1.37,3.05,3.05,0,0,0,.37,1.54,2.6,2.6,0,0,0,1,1,2.74,2.74,0,0,0,1.39.36,3.21,3.21,0,0,0,1-.12,2.24,2.24,0,0,0,.64-.29c.17-.12.32-.23.45-.34a1,1,0,0,1,.48-.14.62.62,0,0,1,.48.2.64.64,0,0,1,.19.47.82.82,0,0,1-.35.64,4.05,4.05,0,0,1-1.19.74A4.14,4.14,0,0,1,52.94,277.38Z"/><path class="cls-2" d="M58.65,268.75a.78.78,0,0,1,.65.34L64.76,276a.72.72,0,0,1,.18.48.76.76,0,0,1-.26.56.81.81,0,0,1-.56.24.82.82,0,0,1-.66-.34L58,270a.72.72,0,0,1-.18-.48.75.75,0,0,1,.25-.57A.81.81,0,0,1,58.65,268.75Zm0,8.5a.81.81,0,0,1-.52-.21.64.64,0,0,1-.26-.51.75.75,0,0,1,.19-.5l2.55-3.15.81,1.31-2.13,2.72A.76.76,0,0,1,58.66,277.25Zm5.44-8.5a.75.75,0,0,1,.56.22.69.69,0,0,1,.21.5.84.84,0,0,1,0,.27.51.51,0,0,1-.15.24l-2.51,3.16L61.34,272l2.12-2.83A.8.8,0,0,1,64.1,268.75Z"/><path class="cls-2" d="M73.62,268.67a.79.79,0,0,1,.8.82v6.91a.76.76,0,0,1-.23.58.8.8,0,0,1-1.14,0,.8.8,0,0,1-.23-.58v-1.15l.32.05a1.16,1.16,0,0,1-.23.64,3,3,0,0,1-.63.68,3.73,3.73,0,0,1-.94.54,3.29,3.29,0,0,1-1.17.22,3.59,3.59,0,0,1-2-.57,4,4,0,0,1-1.39-1.56,5.31,5.31,0,0,1,0-4.54,3.91,3.91,0,0,1,1.39-1.54,3.69,3.69,0,0,1,3.21-.34,3.62,3.62,0,0,1,1,.58,2.87,2.87,0,0,1,.67.74,1.43,1.43,0,0,1,.24.75l-.5,0v-1.45a.82.82,0,0,1,.23-.58A.75.75,0,0,1,73.62,268.67Zm-3.26,7.23a2.27,2.27,0,0,0,1.32-.38,2.62,2.62,0,0,0,.89-1,3.38,3.38,0,0,0,.32-1.48,3.43,3.43,0,0,0-.32-1.49,2.73,2.73,0,0,0-.89-1,2.47,2.47,0,0,0-2.63,0,2.67,2.67,0,0,0-.9,1,3.43,3.43,0,0,0-.32,1.49,3.38,3.38,0,0,0,.32,1.48,2.62,2.62,0,0,0,.89,1A2.27,2.27,0,0,0,70.36,275.9Z"/><path class="cls-2" d="M81.27,268.66a2.63,2.63,0,0,1,1.83.58,2.82,2.82,0,0,1,.84,1.58l-.25-.08.11-.26a3.29,3.29,0,0,1,.63-.84,3.42,3.42,0,0,1,1-.7,2.83,2.83,0,0,1,1.26-.28,2.68,2.68,0,0,1,1.71.47,2.39,2.39,0,0,1,.85,1.26,6.11,6.11,0,0,1,.24,1.77v4.24a.79.79,0,0,1-.22.58.75.75,0,0,1-.58.24.78.78,0,0,1-.57-.24.8.8,0,0,1-.23-.58v-4.22a3.33,3.33,0,0,0-.15-1,1.43,1.43,0,0,0-.53-.74,1.66,1.66,0,0,0-1-.28,2.13,2.13,0,0,0-1.11.28,1.93,1.93,0,0,0-.76.74,2,2,0,0,0-.27,1v4.22a.8.8,0,0,1-.23.58.81.81,0,0,1-1.15,0,.79.79,0,0,1-.22-.58v-4.24a3.3,3.3,0,0,0-.16-1,1.42,1.42,0,0,0-.52-.74,1.67,1.67,0,0,0-1-.27,2.19,2.19,0,0,0-1.1.27,2,2,0,0,0-.75.74,2.09,2.09,0,0,0-.26,1v4.24a.8.8,0,0,1-.23.58.78.78,0,0,1-.57.24.75.75,0,0,1-.58-.24.79.79,0,0,1-.22-.58v-6.78a.82.82,0,0,1,.22-.59.78.78,0,0,1,.58-.23.81.81,0,0,1,.57.23.82.82,0,0,1,.23.59v.94l-.31.18a2.74,2.74,0,0,1,.37-.72,3.2,3.2,0,0,1,.65-.68,3.69,3.69,0,0,1,.87-.49A2.75,2.75,0,0,1,81.27,268.66Z"/><path class="cls-2" d="M105,273a4.41,4.41,0,0,1-.57,2.26,4.15,4.15,0,0,1-3.69,2.11,4.26,4.26,0,0,1-2.15-.56,4.14,4.14,0,0,1-1.53-1.55,4.81,4.81,0,0,1,0-4.54,4.07,4.07,0,0,1,1.53-1.55,4.25,4.25,0,0,1,5.84,1.55A4.44,4.44,0,0,1,105,273Zm-1.6,0a3.2,3.2,0,0,0-.35-1.53,2.75,2.75,0,0,0-1-1,2.53,2.53,0,0,0-1.36-.38,2.46,2.46,0,0,0-1.33.38,2.77,2.77,0,0,0-1,1,3.37,3.37,0,0,0,0,3,2.73,2.73,0,0,0,1,1,2.53,2.53,0,0,0,1.33.36,2.61,2.61,0,0,0,1.36-.36,2.7,2.7,0,0,0,1-1A3.19,3.19,0,0,0,103.4,273Z"/><path class="cls-2" d="M111.46,268.61a2.88,2.88,0,0,1,1.76.47,2.48,2.48,0,0,1,.88,1.26,6.11,6.11,0,0,1,.24,1.77v4.29a.76.76,0,0,1-.23.58.8.8,0,0,1-1.14,0,.8.8,0,0,1-.23-.58v-4.27a3,3,0,0,0-.16-1,1.45,1.45,0,0,0-.55-.74,1.83,1.83,0,0,0-1.09-.28,2.29,2.29,0,0,0-1.16.28,2,2,0,0,0-.77.74,1.87,1.87,0,0,0-.28,1v4.27a.8.8,0,0,1-.23.58.78.78,0,0,1-.57.24.75.75,0,0,1-.58-.24.79.79,0,0,1-.22-.58v-6.78a.82.82,0,0,1,.22-.59.78.78,0,0,1,.58-.23.81.81,0,0,1,.57.23.82.82,0,0,1,.23.59v.89l-.29.16a2.4,2.4,0,0,1,.39-.71,3.93,3.93,0,0,1,.68-.67,3.58,3.58,0,0,1,.9-.5A3,3,0,0,1,111.46,268.61Z"/><path class="cls-2" d="M121.32,275.9a.83.83,0,0,1-.13-.52.64.64,0,0,1,.34-.5.67.67,0,0,1,.47-.12.81.81,0,0,1,.47.25,3.52,3.52,0,0,0,1,.78,2.88,2.88,0,0,0,1.34.29,3.8,3.8,0,0,0,.65-.1,1.32,1.32,0,0,0,.58-.32.92.92,0,0,0,.24-.68.84.84,0,0,0-.26-.64,1.89,1.89,0,0,0-.67-.4c-.28-.1-.57-.19-.89-.28s-.69-.2-1-.32a4,4,0,0,1-.93-.45,2.16,2.16,0,0,1-.68-.73,2.11,2.11,0,0,1-.27-1.1,2.05,2.05,0,0,1,.43-1.3,2.84,2.84,0,0,1,1.1-.85,3.63,3.63,0,0,1,1.48-.3,4.3,4.3,0,0,1,1,.12,4.09,4.09,0,0,1,1,.37,2.73,2.73,0,0,1,.83.68.92.92,0,0,1,.19.49.6.6,0,0,1-.27.51.63.63,0,0,1-.46.15.7.7,0,0,1-.45-.18,2.14,2.14,0,0,0-.78-.6,2.72,2.72,0,0,0-1.09-.21,2.27,2.27,0,0,0-.63.08,1.25,1.25,0,0,0-.56.32.87.87,0,0,0-.22.65.84.84,0,0,0,.26.64,2,2,0,0,0,.7.4,9.53,9.53,0,0,0,.94.29l1,.3a3.67,3.67,0,0,1,.88.46,2.34,2.34,0,0,1,.64.72,2.28,2.28,0,0,1,.25,1.11,2.07,2.07,0,0,1-.46,1.34,2.86,2.86,0,0,1-1.15.84,3.85,3.85,0,0,1-1.47.29,5.25,5.25,0,0,1-1.81-.33A3.3,3.3,0,0,1,121.32,275.9Z"/><path class="cls-2" d="M133.7,277.38a4.57,4.57,0,0,1-2.29-.56,3.71,3.71,0,0,1-1.52-1.52,4.44,4.44,0,0,1-.54-2.21,4.8,4.8,0,0,1,.57-2.41,4,4,0,0,1,1.49-1.54,3.85,3.85,0,0,1,1.94-.53,3.61,3.61,0,0,1,1.48.31,4.09,4.09,0,0,1,1.26.86,4.15,4.15,0,0,1,.86,1.3,4.34,4.34,0,0,1,.34,1.62.72.72,0,0,1-.26.53.81.81,0,0,1-.56.21h-6.21l-.38-1.36h6l-.31.29V272a1.83,1.83,0,0,0-.38-1,2.39,2.39,0,0,0-1.86-.88,2.92,2.92,0,0,0-.93.15,1.88,1.88,0,0,0-.78.49,2.39,2.39,0,0,0-.54.88,3.91,3.91,0,0,0-.21,1.37,3.05,3.05,0,0,0,.37,1.54,2.6,2.6,0,0,0,1,1,2.72,2.72,0,0,0,1.39.36,3.3,3.3,0,0,0,1-.12,2.37,2.37,0,0,0,.64-.29c.17-.12.32-.23.45-.34a1,1,0,0,1,.48-.14.62.62,0,0,1,.48.2.64.64,0,0,1,.19.47.82.82,0,0,1-.35.64,4.05,4.05,0,0,1-1.19.74A4.15,4.15,0,0,1,133.7,277.38Z"/><path class="cls-2" d="M140.22,277.22a.75.75,0,0,1-.58-.24.79.79,0,0,1-.22-.58v-6.78a.82.82,0,0,1,.22-.59.78.78,0,0,1,.58-.23.77.77,0,0,1,.56.23.79.79,0,0,1,.24.59v1.79l-.17-.69a2.77,2.77,0,0,1,.4-.83,2.67,2.67,0,0,1,.63-.67,2.52,2.52,0,0,1,.82-.45,2.79,2.79,0,0,1,1-.16,1.21,1.21,0,0,1,.73.22.68.68,0,0,1,.3.56.83.83,0,0,1-.22.63.71.71,0,0,1-.5.2,1,1,0,0,1-.46-.1,1.25,1.25,0,0,0-.53-.1,1.47,1.47,0,0,0-.69.17,2,2,0,0,0-.64.52,2.9,2.9,0,0,0-.46.81,3.11,3.11,0,0,0-.16,1v3.84a.77.77,0,0,1-.24.58A.74.74,0,0,1,140.22,277.22Z"/><path class="cls-2" d="M147.49,268.72a.84.84,0,0,1,.46.13.66.66,0,0,1,.31.38l2.51,5.81-.3.14,2.55-5.93a.71.71,0,0,1,.71-.51.72.72,0,0,1,.54.2.68.68,0,0,1,.22.52.51.51,0,0,1,0,.2.84.84,0,0,1-.08.2l-3,6.84a.77.77,0,0,1-.68.52.73.73,0,0,1-.47-.11.88.88,0,0,1-.37-.41l-3-6.84a1.62,1.62,0,0,1-.06-.17.87.87,0,0,1,0-.25.79.79,0,0,1,.8-.72Z"/><path class="cls-2" d="M160.28,277.38a4.61,4.61,0,0,1-2.3-.56,3.83,3.83,0,0,1-1.52-1.52,4.54,4.54,0,0,1-.53-2.21,4.91,4.91,0,0,1,.56-2.41,4.09,4.09,0,0,1,1.49-1.54,3.89,3.89,0,0,1,2-.53,3.64,3.64,0,0,1,1.48.31,4.1,4.1,0,0,1,2.12,2.16,4.34,4.34,0,0,1,.33,1.62.71.71,0,0,1-.25.53.83.83,0,0,1-.56.21h-6.21l-.38-1.36h6l-.3.29V272a1.76,1.76,0,0,0-.39-1,2.26,2.26,0,0,0-.82-.65,2.31,2.31,0,0,0-1-.23,2.92,2.92,0,0,0-.93.15,1.88,1.88,0,0,0-.78.49,2.41,2.41,0,0,0-.55.88,3.91,3.91,0,0,0-.21,1.37,3.16,3.16,0,0,0,.37,1.54,2.66,2.66,0,0,0,2.39,1.37,3.3,3.3,0,0,0,1-.12,2.3,2.3,0,0,0,.63-.29,3.75,3.75,0,0,0,.45-.34,1,1,0,0,1,.48-.14.59.59,0,0,1,.48.2.65.65,0,0,1,.2.47.81.81,0,0,1-.36.64,3.92,3.92,0,0,1-1.19.74A4.14,4.14,0,0,1,160.28,277.38Z"/><path class="cls-2" d="M166.79,277.22a.73.73,0,0,1-.57-.24.76.76,0,0,1-.23-.58v-6.78a.78.78,0,0,1,.23-.59.76.76,0,0,1,.57-.23.79.79,0,0,1,.57.23.82.82,0,0,1,.23.59v1.79l-.16-.69a3,3,0,0,1,.39-.83,3.09,3.09,0,0,1,.63-.67,2.68,2.68,0,0,1,.83-.45,2.75,2.75,0,0,1,.95-.16,1.16,1.16,0,0,1,.72.22.68.68,0,0,1,.3.56.79.79,0,0,1-.22.63.69.69,0,0,1-.5.2,1.06,1.06,0,0,1-.46-.1,1.22,1.22,0,0,0-.53-.1,1.52,1.52,0,0,0-.69.17,2,2,0,0,0-.63.52,2.48,2.48,0,0,0-.46.81,3.11,3.11,0,0,0-.17,1v3.84a.8.8,0,0,1-.23.58A.76.76,0,0,1,166.79,277.22Z"/></g></g><g id="illustration_1" data-name="illustration 1"><g id="Group_242" data-name="Group 242"><g id="Group_241" data-name="Group 241"><g id="Group_240" data-name="Group 240"><path id="Path_1104" data-name="Path 1104" class="cls-3" d="M62.87,136.79s-3.62,11.69-.83,22.32S73.2,178.64,95.7,174.89s46.42-6.36,46.42-6.36l-66.87-45.9Z"/></g><path id="Path_1105" data-name="Path 1105" class="cls-4" d="M90.25,173.19l-1.36,35.66h7.72l-2.88-37.18Z"/><ellipse id="Ellipse_94" data-name="Ellipse 94" class="cls-5" cx="92.73" cy="212.29" rx="23.1" ry="4.23"/></g></g><path id="Path_1106" data-name="Path 1106" class="cls-6" d="M144.69,145.25c-7.67-.48-59.28-2.83-59.28-2.83l-13,2.35V160.2s19,3.58,26.11,7.72S111,171.49,111,171.49s1.79,7.72,4.75,10.68,16,23.72,16,28.47h.4l12.64-.57h0l8.28-.61,4.1-49C157.16,159.9,159,151.31,144.69,145.25ZM129.3,167.92H137l2.35,20.75.31,1.26Z"/><path id="Path_1107" data-name="Path 1107" class="cls-7" d="M90.2,88.06l.61,13.6-7.67,4.14L74.9,88.62s3.1-2.7,2.7-6.54a6.91,6.91,0,0,0-1-2.92c-3-5.31-3-5.93-1.78-8.28s5.31-11.25,8.84-10.07,11.69-.7,12,7.06v.57C95.74,71.32,95.43,84.35,90.2,88.06Z"/><path id="Path_1108" data-name="Path 1108" class="cls-8" d="M80.09,85.05s2.35,6.54,10.07,3C90.16,88,82.44,93.94,80.09,85.05Z"/><path id="Path_1109" data-name="Path 1109" class="cls-8" d="M112.43,141.59l-1.87,2.35-11.77-.48c-12.17,1.31-20.67,1-26.46.22,8.76-.13,21.92-.44,23.45-1.26S107.81,140.28,112.43,141.59Z"/><path id="Path_1110" data-name="Path 1110" class="cls-8" d="M95.74,68.44c-.18-.78-.92-2.75-4.45-2-4.36.87-10-1.74-10,0s.87,6.54-2.18,5.67-3.93,0-3,2.18c.74,1.83,3.92,8.63,1.56,7.85a6.89,6.89,0,0,0-.95-2.93c-3-5.31-3-5.92-1.79-8.28s5.32-11.25,8.85-10.07,11.68-.7,12,7.06Z"/><path id="Path_1111" data-name="Path 1111" d="M79.78,70.49c2.36,0-2.35-5.93,2.36-5.93S90.73,66,94,65.17c1.44-.39,1.79,3.58,1.79,3.58s.57-15-14.91-10.07a7.11,7.11,0,0,0-3.62,2.52C75.86,63,71,71.88,76.21,78.42c.91.31-.61-3.88-.87-4.8C74.07,69.23,78.21,70.49,79.78,70.49Z"/><path id="Path_1112" data-name="Path 1112" class="cls-9" d="M132.09,210.59h-.39c0-4.75-13-25.5-16-28.46S111,171.45,111,171.45s-5.32.61-12.47-3.58-26.11-7.71-26.11-7.71V147.08l8-3.05c-.22.3-10.16,12.82-4.1,14.52s35.66,11.77,35.49,12.64,3.74,3.48,11.16,18.31C129.09,201.92,135.27,208.5,132.09,210.59Z"/><path id="Path_1113" data-name="Path 1113" class="cls-10" d="M72.07,88.28h3l8.29,3.57,5.31,7.72,1.79-8.9V89.5l1.18.61.61,3.57s13.64,4.14,15.43,8.89,5.93,16,5.93,16-4.75,2.36-7.72,2.36l5.93,21.93S89.85,136.93,80.35,144s-7.71,16.61-7.71,16.61S66.1,150,69.06,139.28a70.81,70.81,0,0,0,2.35-20.75l-16.61,3s-2.35-15.43,3.58-23.71l13-6.54Z"/><path id="Path_1114" data-name="Path 1114" class="cls-7" d="M118.93,133.39l-6.5,8.2L110.56,144l-11.77-.48c-12.17,1.31-20.67,1-26.46.22a48.36,48.36,0,0,1-6-1.09c-.08,0-.13,0-.21,0a.85.85,0,0,1-.31-.09c-1.13-.3-2-.56-2.62-.78-3.57-1.18-7.75-20.27-7.75-20.27l13.25-2.35h0l2.79-.48c1.17,1.17,1.17,11.85,1.17,11.85s19.58,7.72,24.33,5.32,12.86.17,12.86.17-4.54-15.6-3.92-15c.87.31,7.71-2.35,7.71-2.35.09.17.22.35.35.61C115.7,122.67,118.93,133.39,118.93,133.39Z"/><path id="Path_1115" data-name="Path 1115" class="cls-11" d="M70.28,106.1s3,5.93,1.18,10.68C71.46,116.78,71.46,108.46,70.28,106.1Z"/><path id="Path_1116" data-name="Path 1116" class="cls-11" d="M107.07,109.64s1.79,7.1-.61,10.07C106.46,119.75,108.25,112,107.07,109.64Z"/><path id="Path_1117" data-name="Path 1117" class="cls-11" d="M85.1,132.78s13.65-2.35,18.4,0C103.5,132.78,86.89,132.17,85.1,132.78Z"/><path id="Path_1118" data-name="Path 1118" class="cls-12" d="M161,115.56,143.82,147l-35,2.35-20.79-4.14v-.91l22.53-.88,16.05-27.29,30.9-.52Z"/><path id="Path_1119" data-name="Path 1119" class="cls-13" d="M153,209.59l4.14-49.82s.61-9.5-12.47-14.35"/><path id="Path_1120" data-name="Path 1120" class="cls-13" d="M157.2,159.77s0-10.68-12.46-14.35"/><path id="Path_1121" data-name="Path 1121" class="cls-9" d="M144.13,157.41s-3,5.93-5.93,8.29C138.2,165.7,143.56,158,144.13,157.41Z"/><path id="Path_1122" data-name="Path 1122" class="cls-14" d="M111.52,163.34s1.18,1.79-1.79,3.58A23,23,0,0,0,111.52,163.34Z"/><path id="Path_1123" data-name="Path 1123" class="cls-14" d="M113.31,166.31s1.17,1.78-1.79,3.57A22.91,22.91,0,0,0,113.31,166.31Z"/><path id="Path_1124" data-name="Path 1124" class="cls-15" d="M119.8,149.7s5.15,1.48,9.68,18.83l-1.79-8.63c-.87-3.06-1.44-7-4.49-8.5Z"/><path id="Path_1125" data-name="Path 1125" class="cls-2" d="M131.66,209.55s-2.88,4.88,0,6.32,14.08,0,14.08,0,5.4-5.93-1.66-7.37A22.3,22.3,0,0,0,131.66,209.55Z"/><path id="Path_1126" data-name="Path 1126" class="cls-2" d="M142.16,210.2s-3.4,4.45,0,5.76,16.57,0,16.57,0,6.32-5.41-1.92-6.72A32.72,32.72,0,0,0,142.16,210.2Z"/><path id="Path_1127" data-name="Path 1127" class="cls-8" d="M65.79,142.46c-1.13-.3-2-.57-2.62-.78-3.57-1.18-7.75-20.27-7.75-20.27l13.25-2.36c-4,1.44-10.16,3.88-10,5.45C58.82,126.72,60.25,140.8,65.79,142.46Z"/><path id="Path_1128" data-name="Path 1128" class="cls-8" d="M108.51,125a73.4,73.4,0,0,1,.92,9.11s-4.15-13.77-3.58-13.2c.87.3,7.72-2.36,7.72-2.36.08.18.21.35.35.61C112,119.44,107.81,120.58,108.51,125Z"/><g id="Group_243" data-name="Group 243"><path id="Path_1129" data-name="Path 1129" class="cls-8" d="M65.79,130.25a9.42,9.42,0,0,1,3.66-.3,20.5,20.5,0,0,1,3.66.57c.61.13,1.18.3,1.79.48s1.18.39,1.75.61l1.7.7c.56.26,1.13.52,1.65.78-1.18-.39-2.35-.78-3.49-1.13s-2.35-.7-3.53-1a27,27,0,0,0-3.57-.66,14.07,14.07,0,0,0-1.83-.13A5.12,5.12,0,0,0,65.79,130.25Z"/></g><path id="Path_1130" data-name="Path 1130" class="cls-11" d="M72.07,88.28h3l8.28,3.57s5.1,7.54,5.32,7.72,1.79-8.9,1.79-8.9l-.22-1.3,1.4.7.61,3.57-2.31,10.9-8-10.46S71.5,91.5,71.46,91.29,72.07,88.28,72.07,88.28Z"/><path id="Path_1131" data-name="Path 1131" class="cls-9" d="M126.38,155.1s2.18,13.52,11.82,11.77l4,41.94s-2.18-18.18-3.1-19.4S137,167.87,137,167.87l-7.5.61Z"/><path id="Path_1132" data-name="Path 1132" class="cls-16" d="M161,115.56,143.82,147l-35,2.35.87-1.65c32.87,1.87,45-24.59,47.82-32.09Z"/><line id="Line_71" data-name="Line 71" class="cls-17" x1="108.86" y1="149.39" x2="126.65" y2="116.17"/><ellipse id="Ellipse_95" data-name="Ellipse 95" class="cls-16" cx="137.24" cy="131.55" rx="3.09" ry="2.01" transform="translate(-29.65 222.59) rotate(-72.4)"/><path id="Path_1133" data-name="Path 1133" class="cls-16" d="M88.07,144.33l21.8,4-.7,1.09-21.1-3.88Z"/></g><circle id="point_1_circle" data-name="point 1 circle" class="cls-2" cx="96.34" cy="16.5" r="16.5"/><g id="_1" data-name=" 1" class="cls-1"><g class="cls-1"><path class="cls-18" d="M97.2,24a1.07,1.07,0,0,1-.76-.29,1,1,0,0,1-.3-.73V12.26l.26.36-1.92,1.14a.89.89,0,0,1-.52.16,1,1,0,0,1-.73-.33,1.08,1.08,0,0,1-.29-.71,1,1,0,0,1,.52-.86l3.14-1.88a1.42,1.42,0,0,1,.74-.14.91.91,0,0,1,.69.29,1,1,0,0,1,.27.73V23a1,1,0,0,1-.31.73A1.11,1.11,0,0,1,97.2,24Z"/></g></g></g></g></g></svg>