<svg id="Layer_1" data-name="Layer 1" xmlns="http://www.w3.org/2000/svg" viewBox="0 0 300 300"><defs><style>.cls-1{fill:#fff;}.cls-2{fill:#333a41;}.cls-3{fill:#f4f8ff;}.cls-4{fill:#d3cccc;}.cls-5{fill:#cdd6e3;}.cls-6{fill:#f2f2f2;}.cls-7{fill:#ffacb6;}.cls-8{fill:#ff9898;}.cls-15,.cls-9{fill:#e5e5e5;}.cls-10{fill:blue;}.cls-11,.cls-14{fill:#00217e;}.cls-12{fill:#d8d8d8;}.cls-13,.cls-18{fill:none;}.cls-14,.cls-15{opacity:0.69;isolation:isolate;}.cls-16{fill:#090d16;}.cls-17{fill:#bfbebe;}.cls-18{stroke:#bfbebe;stroke-miterlimit:10;}</style></defs><g id="_Authority_teacher_uploads_exam_on_server" data-name=" Authority teacher uploads exam on server"><path class="cls-1" d="M45.49,263.54l-3.66,8.78a.76.76,0,0,1-.73.55.69.69,0,0,1-.54-.2.78.78,0,0,1-.19-.51.75.75,0,0,1,.05-.26l4.13-10a.92.92,0,0,1,.33-.42.75.75,0,0,1,.48-.14.83.83,0,0,1,.76.56l4.07,9.84a1,1,0,0,1,.06.33.72.72,0,0,1-.23.57.75.75,0,0,1-.53.22.74.74,0,0,1-.45-.15.9.9,0,0,1-.29-.4l-3.7-8.74ZM42.44,270l.74-1.56h4.68l.28,1.56Z"/><path class="cls-1" d="M58.35,264.25a.78.78,0,0,1,.58.24.83.83,0,0,1,.24.6v4.27a3.59,3.59,0,0,1-1,2.64,3.54,3.54,0,0,1-2.66.95,3.47,3.47,0,0,1-2.64-.95,3.58,3.58,0,0,1-.94-2.64v-4.27a.81.81,0,0,1,.22-.6.78.78,0,0,1,.59-.24.76.76,0,0,1,.57.24.82.82,0,0,1,.25.6v4.27a2.25,2.25,0,0,0,.48,1.58,2.34,2.34,0,0,0,2.94,0,2.22,2.22,0,0,0,.51-1.58v-4.27a.81.81,0,0,1,.22-.6A.78.78,0,0,1,58.35,264.25Z"/><path class="cls-1" d="M61.76,264.35h3.82a.8.8,0,0,1,.55.22.78.78,0,0,1,.22.55.7.7,0,0,1-.22.51.75.75,0,0,1-.55.22H61.76a.76.76,0,0,1-.55-.23.77.77,0,0,1,0-1.06A.81.81,0,0,1,61.76,264.35Zm1.71-2.11a.78.78,0,0,1,.59.23.81.81,0,0,1,.22.59v7.56a.91.91,0,0,0,.1.46.51.51,0,0,0,.27.25,1,1,0,0,0,.34.06.92.92,0,0,0,.33-.06.59.59,0,0,1,.32-.06.47.47,0,0,1,.37.17.72.72,0,0,1,.16.49.71.71,0,0,1-.42.64,1.86,1.86,0,0,1-.92.24,4.74,4.74,0,0,1-.65-.05,2,2,0,0,1-.72-.24,1.53,1.53,0,0,1-.58-.63,2.67,2.67,0,0,1-.23-1.21v-7.62a.82.82,0,0,1,.24-.59.76.76,0,0,1,.54-.23Z"/><path class="cls-1" d="M72.83,264.11a2.76,2.76,0,0,1,1.74.48,2.55,2.55,0,0,1,.87,1.29,6.34,6.34,0,0,1,.25,1.79V272a.78.78,0,0,1-.24.59.82.82,0,0,1-1.15,0h0a.82.82,0,0,1-.24-.59v-4.31a3.5,3.5,0,0,0-.15-1,1.41,1.41,0,0,0-.54-.75,1.83,1.83,0,0,0-1-.28,2.36,2.36,0,0,0-1.13.28,2.05,2.05,0,0,0-.77.75,2.12,2.12,0,0,0-.26,1V272a.82.82,0,0,1-.3.61.83.83,0,0,1-1.17,0,.81.81,0,0,1-.22-.59V261.6a.81.81,0,0,1,.22-.59.83.83,0,0,1,1.17,0,.82.82,0,0,1,.24.59V266l-.3.16a2.57,2.57,0,0,1,.39-.73,2.84,2.84,0,0,1,.66-.68,3.34,3.34,0,0,1,.88-.5A3,3,0,0,1,72.83,264.11Z"/><path class="cls-1" d="M86.5,268.52a4.6,4.6,0,0,1-.58,2.3A4.39,4.39,0,0,1,80,272.39a4.3,4.3,0,0,1-1.57-1.57,5,5,0,0,1,0-4.62A4.15,4.15,0,0,1,80,264.63a4.32,4.32,0,0,1,5.91,1.53l0,0A4.7,4.7,0,0,1,86.5,268.52Zm-1.63,0a3.21,3.21,0,0,0-.36-1.55,2.67,2.67,0,0,0-1-1,2.6,2.6,0,0,0-1.38-.39,2.52,2.52,0,0,0-1.35.39,2.77,2.77,0,0,0-1,1,3.48,3.48,0,0,0,0,3,2.82,2.82,0,0,0,1,1,2.7,2.7,0,0,0,2.73,0,2.72,2.72,0,0,0,1-1A3.28,3.28,0,0,0,84.87,268.52Z"/><path class="cls-1" d="M89.47,272.81a.78.78,0,0,1-.59-.24.81.81,0,0,1-.22-.59v-6.89a.81.81,0,0,1,.22-.6.78.78,0,0,1,.59-.24.76.76,0,0,1,.57.24.79.79,0,0,1,.25.6v1.82l-.17-.71a2.6,2.6,0,0,1,.4-.84,2.76,2.76,0,0,1,.64-.68,2.65,2.65,0,0,1,.84-.46,2.89,2.89,0,0,1,1-.16,1.19,1.19,0,0,1,.73.22.69.69,0,0,1,.31.57.83.83,0,0,1-.22.64.75.75,0,0,1-.51.21,1.08,1.08,0,0,1-.47-.11,1.33,1.33,0,0,0-.59-.12,1.54,1.54,0,0,0-.7.17,2.08,2.08,0,0,0-.65.53,3,3,0,0,0-.47.83,3.14,3.14,0,0,0-.16,1v3.91a.83.83,0,0,1-.25.59A.72.72,0,0,1,89.47,272.81Z"/><path class="cls-1" d="M96.56,263.11a1.08,1.08,0,0,1-.68-.17.66.66,0,0,1-.21-.58v-.25a.62.62,0,0,1,.23-.57,1.45,1.45,0,0,1,1.38,0,.68.68,0,0,1,.21.56v.25a.72.72,0,0,1-.22.59A1.17,1.17,0,0,1,96.56,263.11Zm.83,8.87a.81.81,0,0,1-1.38.6h0a.78.78,0,0,1-.23-.59v-7a.78.78,0,0,1,.23-.59.84.84,0,0,1,1.16,0,.81.81,0,0,1,.23.59Z"/><path class="cls-1" d="M99.88,264.35h3.83a.75.75,0,0,1,.54.22.74.74,0,0,1,.22.55.7.7,0,0,1-.22.51.75.75,0,0,1-.54.22H99.88a.7.7,0,0,1-.54-.23.73.73,0,0,1,0-1.05A.8.8,0,0,1,99.88,264.35Zm1.71-2.11a.74.74,0,0,1,.58.23.82.82,0,0,1,.24.59v7.56a.9.9,0,0,0,.09.46.47.47,0,0,0,.27.25,1,1,0,0,0,.35.06.81.81,0,0,0,.31-.06.66.66,0,0,1,.34-.06.43.43,0,0,1,.35.17.67.67,0,0,1,.17.49.74.74,0,0,1-.42.64,1.83,1.83,0,0,1-.92.24,4.87,4.87,0,0,1-.65-.05,1.86,1.86,0,0,1-.72-.24,1.53,1.53,0,0,1-.58-.63,2.66,2.66,0,0,1-.22-1.21v-7.62a.78.78,0,0,1,.23-.59.74.74,0,0,1,.58-.23Z"/><path class="cls-1" d="M113,264.19a.77.77,0,0,1,.57.26.84.84,0,0,1,.22.59v7a4.32,4.32,0,0,1-.55,2.33,3.12,3.12,0,0,1-1.44,1.27,4.88,4.88,0,0,1-2,.41,5.66,5.66,0,0,1-1.17-.11,3.66,3.66,0,0,1-1-.29,1.29,1.29,0,0,1-.56-.45.64.64,0,0,1,0-.57.84.84,0,0,1,.39-.53.71.71,0,0,1,.57,0l.73.3a3.21,3.21,0,0,0,1,.17,3.15,3.15,0,0,0,1.35-.25,1.8,1.8,0,0,0,.84-.82,3.21,3.21,0,0,0,.28-1.43V271l.26.39a2.58,2.58,0,0,1-.68.89,3,3,0,0,1-1,.55,3.69,3.69,0,0,1-1.28.2,2.74,2.74,0,0,1-1.53-.4,2.58,2.58,0,0,1-1-1.1,3.82,3.82,0,0,1-.34-1.63V265a.81.81,0,0,1,.23-.59.84.84,0,0,1,1.16,0,.78.78,0,0,1,.23.59v4.4a2.23,2.23,0,0,0,.48,1.57,1.84,1.84,0,0,0,1.39.49,2.23,2.23,0,0,0,1.08-.25,1.78,1.78,0,0,0,.71-.73,2.25,2.25,0,0,0,.27-1.08V265a.81.81,0,0,1,.23-.59A.8.8,0,0,1,113,264.19Z"/><path class="cls-1" d="M125.24,275.82a.64.64,0,0,1-.38-.12,8.2,8.2,0,0,1-2.1-1.88,8.49,8.49,0,0,1-1.32-2.44,8.68,8.68,0,0,1-.44-2.77,8.35,8.35,0,0,1,.44-2.76,8,8,0,0,1,1.32-2.41,8.66,8.66,0,0,1,2.14-1.91.58.58,0,0,1,.38-.12.6.6,0,0,1,.51.24.9.9,0,0,1,.17.48.68.68,0,0,1-.29.55,7.35,7.35,0,0,0-1.69,1.65,7.1,7.1,0,0,0-1,2,7.7,7.7,0,0,0,0,4.51,6.68,6.68,0,0,0,1,2,6,6,0,0,0,1.72,1.62.64.64,0,0,1,.29.57.7.7,0,0,1-.19.47A.64.64,0,0,1,125.24,275.82Z"/><path class="cls-1" d="M127.66,264.35h3.82a.74.74,0,0,1,.55.22.73.73,0,0,1,.21.55.66.66,0,0,1-.21.51.7.7,0,0,1-.55.22h-3.82a.76.76,0,0,1-.77-.74.75.75,0,0,1,.23-.55A.72.72,0,0,1,127.66,264.35Zm1.71-2.11a.78.78,0,0,1,.59.23.81.81,0,0,1,.22.59v7.56a.91.91,0,0,0,.1.46.51.51,0,0,0,.27.25,1,1,0,0,0,.35.06.87.87,0,0,0,.32-.06.63.63,0,0,1,.33-.06.46.46,0,0,1,.36.17.74.74,0,0,1-.27,1.13,1.76,1.76,0,0,1-.9.24,4.62,4.62,0,0,1-.65-.05,1.85,1.85,0,0,1-.73-.24,1.64,1.64,0,0,1-.57-.63,2.55,2.55,0,0,1-.24-1.21v-7.62a.83.83,0,0,1,.25-.59.74.74,0,0,1,.57-.23Z"/><path class="cls-1" d="M138.28,273a4.58,4.58,0,0,1-2.32-.56,3.94,3.94,0,0,1-1.56-1.55,4.62,4.62,0,0,1-.54-2.25,5,5,0,0,1,.58-2.45A4,4,0,0,1,136,264.6a3.86,3.86,0,0,1,2-.54,3.66,3.66,0,0,1,1.5.31,4,4,0,0,1,1.27.88,4.21,4.21,0,0,1,.89,1.32,4.42,4.42,0,0,1,.33,1.65.72.72,0,0,1-.25.54.91.91,0,0,1-.57.21h-6.33l-.39-1.38h6.1l-.31.29v-.38a1.78,1.78,0,0,0-.39-1,2.17,2.17,0,0,0-.84-.66,2.21,2.21,0,0,0-1-.24,2.83,2.83,0,0,0-.95.16,1.92,1.92,0,0,0-.79.49,2.48,2.48,0,0,0-.56.9,3.88,3.88,0,0,0-.21,1.39,3.27,3.27,0,0,0,.37,1.57,2.72,2.72,0,0,0,2.43,1.39,3.48,3.48,0,0,0,1-.12,2.56,2.56,0,0,0,.65-.3,3.79,3.79,0,0,0,.45-.34,1,1,0,0,1,.49-.14.56.56,0,0,1,.48.2.67.67,0,0,1,.21.48.85.85,0,0,1-.36.65,4.14,4.14,0,0,1-1.22.75A4,4,0,0,1,138.28,273Z"/><path class="cls-1" d="M151.1,264.12a.82.82,0,0,1,.58.23.85.85,0,0,1,.24.6v7a.82.82,0,0,1-.24.59.78.78,0,0,1-.58.24.77.77,0,0,1-.59-.24.81.81,0,0,1-.22-.59v-1.17l.33.05a1.29,1.29,0,0,1-.24.65,3.27,3.27,0,0,1-.65.69,3.52,3.52,0,0,1-1,.55,3.17,3.17,0,0,1-1.18.22,3.54,3.54,0,0,1-2-.58,4.05,4.05,0,0,1-1.41-1.58,5.28,5.28,0,0,1,0-4.62,4.12,4.12,0,0,1,1.4-1.56,3.54,3.54,0,0,1,2-.57,3.58,3.58,0,0,1,2.33.81,3,3,0,0,1,.68.75,1.5,1.5,0,0,1,.25.77h-.5v-1.48a.81.81,0,0,1,.22-.59A.77.77,0,0,1,151.1,264.12Zm-3.32,7.35a2.2,2.2,0,0,0,1.34-.39A2.6,2.6,0,0,0,150,270a3.72,3.72,0,0,0,0-3,2.79,2.79,0,0,0-.91-1,2.38,2.38,0,0,0-1.34-.39,2.41,2.41,0,0,0-1.33.39,2.7,2.7,0,0,0-.91,1,3.72,3.72,0,0,0,0,3,2.64,2.64,0,0,0,.9,1.06A2.26,2.26,0,0,0,147.78,271.47Z"/><path class="cls-1" d="M158.34,264.06a5.81,5.81,0,0,1,1.55.18,2.63,2.63,0,0,1,1.06.52,1,1,0,0,1,.4.77.87.87,0,0,1-.17.52.56.56,0,0,1-.48.23.84.84,0,0,1-.41-.08A1.73,1.73,0,0,1,160,266a1.5,1.5,0,0,0-.33-.23,2.34,2.34,0,0,0-.53-.17,6.2,6.2,0,0,0-.62-.06A2.85,2.85,0,0,0,156,267a3.54,3.54,0,0,0,0,3.05,2.82,2.82,0,0,0,1,1,2.56,2.56,0,0,0,1.42.39,3.7,3.7,0,0,0,.81-.07,2.1,2.1,0,0,0,.53-.19,2,2,0,0,0,.42-.3.62.62,0,0,1,.47-.15.67.67,0,0,1,.55.22.8.8,0,0,1,.18.54.9.9,0,0,1-.42.69,3.59,3.59,0,0,1-1.15.55,5.33,5.33,0,0,1-1.58.21,4,4,0,0,1-2.21-.59,4,4,0,0,1-1.45-1.59,5.14,5.14,0,0,1-.51-2.28,5,5,0,0,1,.54-2.29,4.07,4.07,0,0,1,1.5-1.58A4.21,4.21,0,0,1,158.34,264.06Z"/><path class="cls-1" d="M167.67,264.11a2.76,2.76,0,0,1,1.74.48,2.43,2.43,0,0,1,.88,1.29,6,6,0,0,1,.25,1.79V272a.81.81,0,0,1-.23.59.78.78,0,0,1-.58.24.77.77,0,0,1-.59-.24.86.86,0,0,1-.23-.59v-4.31a3.19,3.19,0,0,0-.15-1,1.41,1.41,0,0,0-.54-.75,1.79,1.79,0,0,0-1-.28,2.31,2.31,0,0,0-1.13.28,1.83,1.83,0,0,0-.76.75,2,2,0,0,0-.28,1V272a.78.78,0,0,1-.23.59.82.82,0,0,1-1.15,0h0a.82.82,0,0,1-.24-.59V261.6a.82.82,0,0,1,.24-.59.84.84,0,0,1,1.16,0,.76.76,0,0,1,.23.59V266l-.29.16a3,3,0,0,1,.38-.73,3.32,3.32,0,0,1,.67-.68,3.39,3.39,0,0,1,.89-.5A3,3,0,0,1,167.67,264.11Z"/><path class="cls-1" d="M177.11,273a4.61,4.61,0,0,1-2.33-.56,3.77,3.77,0,0,1-1.54-1.55,4.41,4.41,0,0,1-.55-2.25,4.77,4.77,0,0,1,.58-2.45,4,4,0,0,1,1.51-1.56,3.92,3.92,0,0,1,2-.54,3.75,3.75,0,0,1,1.51.31,4.5,4.5,0,0,1,1.28.88,4.15,4.15,0,0,1,.87,1.32,4.43,4.43,0,0,1,.35,1.65.73.73,0,0,1-.27.54.88.88,0,0,1-.56.21h-6.34l-.38-1.38h6.09l-.3.29v-.38a1.81,1.81,0,0,0-.39-1,2.42,2.42,0,0,0-1.89-.9,2.73,2.73,0,0,0-.94.16,1.85,1.85,0,0,0-.8.49,2.63,2.63,0,0,0-.56.9,4.37,4.37,0,0,0-.2,1.39,3.19,3.19,0,0,0,.37,1.57,2.73,2.73,0,0,0,2.43,1.39,3.45,3.45,0,0,0,1-.12,2.56,2.56,0,0,0,.65-.3,5,5,0,0,0,.46-.34,1,1,0,0,1,.49-.14.62.62,0,0,1,.49.2.71.71,0,0,1,.19.48.84.84,0,0,1-.35.65,4.27,4.27,0,0,1-1.22.75A4.14,4.14,0,0,1,177.11,273Z"/><path class="cls-1" d="M183.76,272.81a.75.75,0,0,1-.58-.24.82.82,0,0,1-.24-.59v-6.89a.83.83,0,0,1,.24-.6.81.81,0,0,1,1.39.6v1.82l-.16-.71a2.73,2.73,0,0,1,.41-.84,3.05,3.05,0,0,1,1.47-1.14,2.9,2.9,0,0,1,1-.16,1.21,1.21,0,0,1,.73.22.69.69,0,0,1,.31.57.8.8,0,0,1-.23.64.71.71,0,0,1-.5.21,1.16,1.16,0,0,1-.48-.11,1.32,1.32,0,0,0-.53-.1,1.57,1.57,0,0,0-.7.17,2.08,2.08,0,0,0-.65.53,3,3,0,0,0-.47.83,3.15,3.15,0,0,0-.17,1v3.91a.87.87,0,0,1-.81.87Z"/><path class="cls-1" d="M190,275.82a.6.6,0,0,1-.51-.24.78.78,0,0,1-.17-.48.63.63,0,0,1,.28-.55,7,7,0,0,0,2.71-3.7,7.83,7.83,0,0,0,.34-2.26,8.16,8.16,0,0,0-.32-2.25,7.1,7.1,0,0,0-1-2,5.78,5.78,0,0,0-1.72-1.62.66.66,0,0,1-.28-.56.68.68,0,0,1,.19-.47.62.62,0,0,1,.49-.23.75.75,0,0,1,.38.1,8,8,0,0,1,3.46,4.34,8.6,8.6,0,0,1,0,5.52,8.14,8.14,0,0,1-1.32,2.44,8.62,8.62,0,0,1-2.13,1.91A.6.6,0,0,1,190,275.82Z"/><path class="cls-1" d="M207.74,264.25a.8.8,0,0,1,.81.84v4.27a3.29,3.29,0,0,1-3,3.6,2.91,2.91,0,0,1-.66,0,3.49,3.49,0,0,1-2.64-.95,3.57,3.57,0,0,1-.93-2.64v-4.27a.81.81,0,0,1,.22-.6.78.78,0,0,1,.59-.24.8.8,0,0,1,.58.24.82.82,0,0,1,.23.6v4.27a2.26,2.26,0,0,0,.5,1.58,1.91,1.91,0,0,0,1.45.52,2,2,0,0,0,1.48-.52,2.22,2.22,0,0,0,.51-1.58v-4.27a.87.87,0,0,1,.21-.64A.81.81,0,0,1,207.74,264.25Z"/><path class="cls-1" d="M215.53,264.11a3.57,3.57,0,0,1,2,.57,4,4,0,0,1,1.4,1.54,4.81,4.81,0,0,1,.52,2.29,4.89,4.89,0,0,1-.52,2.31,4,4,0,0,1-1.4,1.56,3.49,3.49,0,0,1-2,.57,3.34,3.34,0,0,1-1.17-.19,3.64,3.64,0,0,1-1-.52,3.37,3.37,0,0,1-.69-.67,1.51,1.51,0,0,1-.33-.67l.43-.2v4.53a.76.76,0,0,1-.23.59.81.81,0,0,1-1.15,0h0a.81.81,0,0,1-.23-.59V265.06a.81.81,0,0,1,1.38-.58h0a.77.77,0,0,1,.23.57v1.13l-.25-.15a1.35,1.35,0,0,1,.3-.64,3.66,3.66,0,0,1,1.58-1.1A3.14,3.14,0,0,1,215.53,264.11Zm-.17,1.49A2.45,2.45,0,0,0,214,266a2.62,2.62,0,0,0-.9,1,3.45,3.45,0,0,0-.33,1.49,3.57,3.57,0,0,0,.33,1.51,2.58,2.58,0,0,0,.9,1,2.45,2.45,0,0,0,1.37.39,2.35,2.35,0,0,0,1.33-.39,2.66,2.66,0,0,0,.9-1,3.3,3.3,0,0,0,.34-1.51,3.18,3.18,0,0,0-.34-1.48,2.76,2.76,0,0,0-.9-1A2.35,2.35,0,0,0,215.36,265.6Z"/><path class="cls-1" d="M223.41,272a.82.82,0,0,1-.24.59.78.78,0,0,1-.58.24.75.75,0,0,1-.58-.24.86.86,0,0,1-.23-.59V261.6a.82.82,0,0,1,.8-.83h0a.73.73,0,0,1,.58.24.78.78,0,0,1,.23.59Z"/><path class="cls-1" d="M234.2,268.52a4.4,4.4,0,0,1-.58,2.3,4.07,4.07,0,0,1-1.54,1.57,4.51,4.51,0,0,1-4.39,0,4.2,4.2,0,0,1-1.56-1.57,4.91,4.91,0,0,1,0-4.62,4.28,4.28,0,0,1,3.75-2.15,4.26,4.26,0,0,1,2.2.58,4.07,4.07,0,0,1,1.54,1.57A4.5,4.5,0,0,1,234.2,268.52Zm-1.62,0a3.21,3.21,0,0,0-.36-1.55,2.77,2.77,0,0,0-1-1,2.6,2.6,0,0,0-1.38-.39,2.53,2.53,0,0,0-1.36.39,2.77,2.77,0,0,0-1,1,3.48,3.48,0,0,0,0,3,2.82,2.82,0,0,0,1,1,2.51,2.51,0,0,0,1.36.37,2.58,2.58,0,0,0,1.38-.37,2.66,2.66,0,0,0,1-1,3.26,3.26,0,0,0,.34-1.5Z"/><path class="cls-1" d="M243.31,264.12a.82.82,0,0,1,.58.23.85.85,0,0,1,.24.6v7a.82.82,0,0,1-.24.59.75.75,0,0,1-.58.24.73.73,0,0,1-.59-.22.81.81,0,0,1-.23-.59v-1.17l.32.05a1.19,1.19,0,0,1-.23.65,3.22,3.22,0,0,1-.64.69,3.6,3.6,0,0,1-1,.55,3.13,3.13,0,0,1-1.18.22,3.65,3.65,0,0,1-2-.57,4.15,4.15,0,0,1-1.41-1.59,5.41,5.41,0,0,1,0-4.62,4,4,0,0,1,1.4-1.56,3.78,3.78,0,0,1,3.27-.35,3.58,3.58,0,0,1,1,.59,3,3,0,0,1,.68.75,1.5,1.5,0,0,1,.25.77h-.51v-1.48a.86.86,0,0,1,.23-.59A.76.76,0,0,1,243.31,264.12ZM240,271.47a2.28,2.28,0,0,0,1.34-.39,2.75,2.75,0,0,0,.91-1.06,3.72,3.72,0,0,0,0-3,2.88,2.88,0,0,0-.91-1,2.52,2.52,0,0,0-2.67,0,2.59,2.59,0,0,0-.92,1,3.72,3.72,0,0,0,0,3,2.53,2.53,0,0,0,.91,1.06A2.26,2.26,0,0,0,240,271.47Z"/><path class="cls-1" d="M253.74,260.77a.79.79,0,0,1,.82.76V272a.82.82,0,0,1-.24.59.83.83,0,0,1-1.17,0,.81.81,0,0,1-.22-.59v-1.17h.33a1.29,1.29,0,0,1-.24.66,3.14,3.14,0,0,1-.65.71,3.32,3.32,0,0,1-2.14.78,3.54,3.54,0,0,1-2-.58,4.13,4.13,0,0,1-1.42-1.57,5.26,5.26,0,0,1,0-4.61,4,4,0,0,1,1.4-1.57,3.72,3.72,0,0,1,3.26-.36,3.66,3.66,0,0,1,1,.59,3.5,3.5,0,0,1,.69.75,1.5,1.5,0,0,1,.25.77h-.5v-4.83a.81.81,0,0,1,.22-.59A.76.76,0,0,1,253.74,260.77Zm-3.32,10.7a2.26,2.26,0,0,0,1.34-.39,2.6,2.6,0,0,0,.91-1,3.69,3.69,0,0,0,0-3.05,2.79,2.79,0,0,0-.91-1,2.36,2.36,0,0,0-1.34-.39,2.41,2.41,0,0,0-1.33.39,2.7,2.7,0,0,0-.91,1,3.69,3.69,0,0,0,0,3.05,2.6,2.6,0,0,0,.91,1,2.33,2.33,0,0,0,1.33.39Z"/><path class="cls-1" d="M256.72,271.47a.83.83,0,0,1-.13-.53.67.67,0,0,1,.34-.51.68.68,0,0,1,.48-.12.83.83,0,0,1,.48.25,3.45,3.45,0,0,0,1,.8,3,3,0,0,0,1.35.29,3.74,3.74,0,0,0,.67-.1,1.48,1.48,0,0,0,.59-.32,1,1,0,0,0,.25-.7.89.89,0,0,0-.27-.65,2,2,0,0,0-.68-.4c-.29-.1-.59-.2-.92-.29s-.69-.2-1-.32a4.24,4.24,0,0,1-1-.46,2.56,2.56,0,0,1-.69-.74,2.31,2.31,0,0,1-.26-1.12,2,2,0,0,1,.42-1.32,2.92,2.92,0,0,1,1.13-.87,3.74,3.74,0,0,1,1.51-.3,4.29,4.29,0,0,1,1,.12,4,4,0,0,1,1,.38,2.8,2.8,0,0,1,.84.69.91.91,0,0,1,.19.5.57.57,0,0,1-.27.51.64.64,0,0,1-.48.16.68.68,0,0,1-.44-.19,2.44,2.44,0,0,0-.81-.61,2.76,2.76,0,0,0-1.1-.21,2.67,2.67,0,0,0-.64.08,1.18,1.18,0,0,0-.56.33.89.89,0,0,0-.24.66.82.82,0,0,0,.28.65,2.1,2.1,0,0,0,.71.41c.31.11.63.21.95.29s.68.19,1,.31a3.82,3.82,0,0,1,.9.46,2.51,2.51,0,0,1,.65.73,2.23,2.23,0,0,1,.25,1.13,2.12,2.12,0,0,1-.46,1.37,3,3,0,0,1-1.18.85,3.94,3.94,0,0,1-1.48.29,5.31,5.31,0,0,1-1.85-.33A3.3,3.3,0,0,1,256.72,271.47Z"/><path class="cls-1" d="M94.23,293.31a4.79,4.79,0,0,1-2.34-.57,3.83,3.83,0,0,1-1.54-1.55A4.4,4.4,0,0,1,89.8,289a4.74,4.74,0,0,1,.58-2.45,4.21,4.21,0,0,1,1.51-1.57,3.93,3.93,0,0,1,2-.54,3.71,3.71,0,0,1,1.5.32,4.15,4.15,0,0,1,1.28.87,4.34,4.34,0,0,1,1.22,3,.75.75,0,0,1-.26.54.81.81,0,0,1-.57.21H90.73l-.39-1.38h6.1l-.32.29v-.37a1.87,1.87,0,0,0-.38-1,2.4,2.4,0,0,0-1.85-.89,3,3,0,0,0-.94.15,2,2,0,0,0-.8.5,2.56,2.56,0,0,0-.55.89,3.88,3.88,0,0,0-.21,1.39,3.06,3.06,0,0,0,.37,1.57,2.63,2.63,0,0,0,1,1,2.79,2.79,0,0,0,1.41.36,3.21,3.21,0,0,0,1-.12,2.23,2.23,0,0,0,.65-.29l.46-.35a.9.9,0,0,1,.48-.14.63.63,0,0,1,.49.2.67.67,0,0,1,.2.48.88.88,0,0,1-.36.65,4.22,4.22,0,0,1-1.21.75A4.27,4.27,0,0,1,94.23,293.31Z"/><path class="cls-1" d="M100,284.53a.8.8,0,0,1,.66.35l5.55,7a.74.74,0,0,1,.18.49.77.77,0,0,1-.26.57.88.88,0,0,1-.57.25.83.83,0,0,1-.67-.35l-5.55-7.06a.71.71,0,0,1-.19-.48.75.75,0,0,1,.26-.58A.8.8,0,0,1,100,284.53Zm0,8.65a.85.85,0,0,1-.53-.22.66.66,0,0,1-.27-.52.76.76,0,0,1,.2-.51l2.59-3.2.82,1.33-2.16,2.77a.82.82,0,0,1-.64.35Zm5.53-8.65a.81.81,0,0,1,.57.23.72.72,0,0,1,.21.51.62.62,0,0,1,0,.27.55.55,0,0,1-.15.24L103.65,289l-.88-1.16,2.16-2.88a.83.83,0,0,1,.65-.43Z"/><path class="cls-1" d="M115.26,284.45a.81.81,0,0,1,.81.79v7.07a.8.8,0,0,1-.23.59.82.82,0,0,1-1.15,0h0a.82.82,0,0,1-.24-.59v-1.17l.33.05a1.1,1.1,0,0,1-.24.65,2.63,2.63,0,0,1-.64.69,3.62,3.62,0,0,1-1,.55,3.23,3.23,0,0,1-1.19.23,3.64,3.64,0,0,1-2-.58,4,4,0,0,1-1.42-1.59,5.39,5.39,0,0,1,0-4.61,4,4,0,0,1,1.42-1.57,3.68,3.68,0,0,1,4.28.24,3.09,3.09,0,0,1,.68.76,1.45,1.45,0,0,1,.24.76h-.51v-1.47a.81.81,0,0,1,.24-.59A.76.76,0,0,1,115.26,284.45Zm-3.32,7.35a2.26,2.26,0,0,0,1.34-.38,2.7,2.7,0,0,0,.91-1,3.72,3.72,0,0,0,0-3,2.7,2.7,0,0,0-.91-1,2.52,2.52,0,0,0-2.67,0,2.7,2.7,0,0,0-.91,1,3.62,3.62,0,0,0,0,3,2.68,2.68,0,0,0,.9,1,2.3,2.3,0,0,0,1.34.38Z"/><path class="cls-1" d="M123,284.44a2.7,2.7,0,0,1,1.86.59,2.8,2.8,0,0,1,.86,1.61l-.26-.08.12-.27a3.69,3.69,0,0,1,1.65-1.56,2.85,2.85,0,0,1,1.28-.29,2.76,2.76,0,0,1,1.74.48,2.42,2.42,0,0,1,.87,1.28,6.1,6.1,0,0,1,.24,1.8v4.31a.81.81,0,0,1-.22.59.77.77,0,0,1-.59.24.75.75,0,0,1-.58-.24.82.82,0,0,1-.24-.59V288a3.55,3.55,0,0,0-.15-1,1.45,1.45,0,0,0-.54-.75,1.65,1.65,0,0,0-1-.28,2.21,2.21,0,0,0-1.13.28,2.08,2.08,0,0,0-.78.75,2.13,2.13,0,0,0-.27,1v4.29a.81.81,0,0,1-.23.59.83.83,0,0,1-1.17,0h0a.81.81,0,0,1-.23-.59V288a3.24,3.24,0,0,0-.16-1,1.43,1.43,0,0,0-.53-.75,1.66,1.66,0,0,0-1-.27,2.18,2.18,0,0,0-1.12.27,2,2,0,0,0-1,1.77v4.31a.81.81,0,0,1-.23.59.83.83,0,0,1-1.17,0,.81.81,0,0,1-.23-.59v-6.89a.88.88,0,0,1,.23-.6.81.81,0,0,1,.59-.24.86.86,0,0,1,.58.24.82.82,0,0,1,.23.6v.95l-.31.19a2.7,2.7,0,0,1,.37-.74,3.6,3.6,0,0,1,.66-.69,3.67,3.67,0,0,1,.89-.49A2.73,2.73,0,0,1,123,284.44Z"/><path class="cls-1" d="M147.16,288.85a4.6,4.6,0,0,1-.58,2.3,4.22,4.22,0,0,1-3.75,2.15,4.42,4.42,0,0,1-2.19-.57,4.13,4.13,0,0,1-1.55-1.58,4.83,4.83,0,0,1,0-4.61,4.06,4.06,0,0,1,1.55-1.58,4.33,4.33,0,0,1,5.92,1.54l0,0A4.44,4.44,0,0,1,147.16,288.85Zm-1.63,0a3.32,3.32,0,0,0-.35-1.55,2.93,2.93,0,0,0-1-1,2.66,2.66,0,0,0-2.74,0,2.82,2.82,0,0,0-1,1,3.41,3.41,0,0,0,0,3.05,2.82,2.82,0,0,0,1,1,2.59,2.59,0,0,0,1.36.36,2.69,2.69,0,0,0,1.38-.36,2.93,2.93,0,0,0,1-1A3.37,3.37,0,0,0,145.53,288.85Z"/><path class="cls-1" d="M153.73,284.39a2.92,2.92,0,0,1,1.79.48,2.58,2.58,0,0,1,.89,1.28,6.06,6.06,0,0,1,.24,1.8v4.36a.76.76,0,0,1-.23.59.82.82,0,0,1-1.15,0h0a.81.81,0,0,1-.23-.59V288a3,3,0,0,0-.17-1,1.42,1.42,0,0,0-.55-.75,1.81,1.81,0,0,0-1.11-.28,2.31,2.31,0,0,0-1.18.28,2,2,0,0,0-.78.75,2,2,0,0,0-.29,1v4.34a.81.81,0,0,1-.23.59.83.83,0,0,1-1.17,0,.86.86,0,0,1-.23-.59v-6.89a.88.88,0,0,1,.23-.6.81.81,0,0,1,.59-.24.86.86,0,0,1,.58.24.82.82,0,0,1,.23.6v.9l-.29.17a2.44,2.44,0,0,1,.39-.73,4.44,4.44,0,0,1,.69-.68,3.93,3.93,0,0,1,.92-.51A3.21,3.21,0,0,1,153.73,284.39Z"/><path class="cls-1" d="M163.75,291.8a.81.81,0,0,1-.13-.53.64.64,0,0,1,.34-.5.69.69,0,0,1,.48-.13.85.85,0,0,1,.48.26,3.58,3.58,0,0,0,1,.79,2.91,2.91,0,0,0,1.36.3,3.79,3.79,0,0,0,.66-.11,1.27,1.27,0,0,0,.59-.32.93.93,0,0,0,.24-.69.83.83,0,0,0-.26-.65,2.06,2.06,0,0,0-.68-.41c-.29-.1-.58-.19-.91-.28s-.7-.21-1-.33a3.63,3.63,0,0,1-1-.46,2.22,2.22,0,0,1-.69-.74,2.19,2.19,0,0,1-.28-1.12,2.1,2.1,0,0,1,.44-1.32,2.86,2.86,0,0,1,1.12-.86,3.7,3.7,0,0,1,1.5-.31,4.31,4.31,0,0,1,1,.12,4,4,0,0,1,1,.38,2.8,2.8,0,0,1,.84.69.91.91,0,0,1,.19.5.61.61,0,0,1-.27.52.72.72,0,0,1-.92,0,2.17,2.17,0,0,0-.8-.61,2.79,2.79,0,0,0-1.75-.14,1.32,1.32,0,0,0-.57.33.89.89,0,0,0-.22.66.84.84,0,0,0,.27.65,2,2,0,0,0,.71.41c.31.11.63.21.95.29l1,.31a3.3,3.3,0,0,1,.89.47,2.17,2.17,0,0,1,.65.73,2.32,2.32,0,0,1,.26,1.13,2.12,2.12,0,0,1-.47,1.36,2.84,2.84,0,0,1-1.17.85,3.81,3.81,0,0,1-1.49.3,5.5,5.5,0,0,1-1.84-.34A3.29,3.29,0,0,1,163.75,291.8Z"/><path class="cls-1" d="M176.34,293.31a4.7,4.7,0,0,1-2.33-.57,3.74,3.74,0,0,1-1.55-1.55,4.61,4.61,0,0,1-.55-2.24,5,5,0,0,1,.58-2.45,4.09,4.09,0,0,1,1.52-1.57,3.92,3.92,0,0,1,2-.54,3.76,3.76,0,0,1,1.51.32,4.27,4.27,0,0,1,1.28.87,4.15,4.15,0,0,1,.87,1.32,4.43,4.43,0,0,1,.35,1.65.77.77,0,0,1-.27.54.79.79,0,0,1-.57.21h-6.31l-.39-1.38h6.1l-.31.29v-.37a1.89,1.89,0,0,0-.39-1,2.39,2.39,0,0,0-1.89-.89,3.09,3.09,0,0,0-1,.15,1.94,1.94,0,0,0-.79.5,2.56,2.56,0,0,0-.55.89,4.12,4.12,0,0,0-.21,1.39,3,3,0,0,0,.38,1.57,2.61,2.61,0,0,0,1,1,2.8,2.8,0,0,0,1.42.36,3.45,3.45,0,0,0,1-.12,2.23,2.23,0,0,0,.65-.29c.18-.13.33-.24.46-.35a1,1,0,0,1,.49-.14.66.66,0,0,1,.49.2.71.71,0,0,1,.19.48.82.82,0,0,1-.36.65A4,4,0,0,1,178,293,4.25,4.25,0,0,1,176.34,293.31Z"/><path class="cls-1" d="M183,293.14a.75.75,0,0,1-.58-.24.78.78,0,0,1-.23-.59v-6.89a.8.8,0,0,1,.23-.6.78.78,0,0,1,.58-.24.84.84,0,0,1,.82.84v1.82l-.17-.7a2.65,2.65,0,0,1,.4-.85,2.76,2.76,0,0,1,.64-.68,2.65,2.65,0,0,1,.84-.46,2.89,2.89,0,0,1,1-.16,1.14,1.14,0,0,1,.74.23.68.68,0,0,1,.31.56.83.83,0,0,1-.22.64.71.71,0,0,1-.51.21,1.1,1.1,0,0,1-.47-.1,1.24,1.24,0,0,0-.54-.11,1.46,1.46,0,0,0-.7.18,2.08,2.08,0,0,0-.65.53,2.78,2.78,0,0,0-.47.82,3.2,3.2,0,0,0-.16,1v3.9a.75.75,0,0,1-.25.59A.72.72,0,0,1,183,293.14Z"/><path class="cls-1" d="M190.36,284.5a.86.86,0,0,1,.46.14.67.67,0,0,1,.32.38l2.55,5.91-.3.14,2.59-6a.72.72,0,0,1,.72-.52.76.76,0,0,1,.55.21.66.66,0,0,1,.22.53.34.34,0,0,1,0,.2.7.7,0,0,1-.08.2l-3,7a.77.77,0,0,1-.69.52.73.73,0,0,1-.48-.11.87.87,0,0,1-.37-.41l-3.05-7a.87.87,0,0,1-.07-.17,1,1,0,0,1,0-.25.82.82,0,0,1,.82-.74Z"/><path class="cls-1" d="M203.36,293.31a4.77,4.77,0,0,1-2.34-.57,3.89,3.89,0,0,1-1.54-1.55,4.5,4.5,0,0,1-.54-2.24,4.84,4.84,0,0,1,.57-2.45,4.14,4.14,0,0,1,1.51-1.57,3.93,3.93,0,0,1,2-.54,3.76,3.76,0,0,1,1.51.32,4.15,4.15,0,0,1,2.15,2.19,4.42,4.42,0,0,1,.34,1.65.74.74,0,0,1-.25.54.86.86,0,0,1-.57.21h-6.32l-.38-1.38h6.1l-.31.29v-.37a1.75,1.75,0,0,0-.4-1,2.23,2.23,0,0,0-.83-.66,2.38,2.38,0,0,0-1-.23,3,3,0,0,0-.94.15,1.87,1.87,0,0,0-.79.5,2.44,2.44,0,0,0-.56.89,3.89,3.89,0,0,0-.22,1.39,3.17,3.17,0,0,0,.38,1.57,2.69,2.69,0,0,0,2.43,1.39,3.56,3.56,0,0,0,1-.12,2.3,2.3,0,0,0,.64-.29,3.87,3.87,0,0,0,.45-.35,1,1,0,0,1,.49-.14.6.6,0,0,1,.49.2.67.67,0,0,1,.2.48.82.82,0,0,1-.36.65,4,4,0,0,1-1.21.75A4.28,4.28,0,0,1,203.36,293.31Z"/><path class="cls-1" d="M210,293.14a.75.75,0,0,1-.58-.24.77.77,0,0,1-.24-.59v-6.89a.82.82,0,0,1,.82-.84.86.86,0,0,1,.58.24.84.84,0,0,1,.23.6v1.82l-.16-.7a3.28,3.28,0,0,1,.39-.85,3.74,3.74,0,0,1,.64-.68,3,3,0,0,1,.85-.46,2.89,2.89,0,0,1,1-.16,1.16,1.16,0,0,1,.74.23.67.67,0,0,1,.3.56.79.79,0,0,1-.22.64.71.71,0,0,1-.51.21,1.1,1.1,0,0,1-.47-.1,1.24,1.24,0,0,0-.54-.11,1.73,1.73,0,0,0-.7.18,2,2,0,0,0-.64.53,2.58,2.58,0,0,0-.47.82,3.21,3.21,0,0,0-.17,1v3.9a.81.81,0,0,1-.23.59A.79.79,0,0,1,210,293.14Z"/></g><circle id="point_1_circle" data-name="point 1 circle" class="cls-1" cx="152.11" cy="28.08" r="16.77"/><g id="_1" data-name=" 1"><path class="cls-2" d="M153,35.71a1.07,1.07,0,0,1-.77-.3,1,1,0,0,1-.31-.74V23.77l.27.37-1.95,1.16a.92.92,0,0,1-.53.16,1,1,0,0,1-.74-.33,1.11,1.11,0,0,1-.3-.73,1,1,0,0,1,.53-.87l3.19-1.91a1.42,1.42,0,0,1,.75-.14.94.94,0,0,1,.71.29,1.06,1.06,0,0,1,.27.74V34.69a1.06,1.06,0,0,1-.31.75A1.14,1.14,0,0,1,153,35.71Z"/></g><g id="illustration_1" data-name="illustration 1"><g id="Group_242" data-name="Group 242"><g id="Group_241" data-name="Group 241"><g id="Group_240" data-name="Group 240"><path id="Path_1104" data-name="Path 1104" class="cls-3" d="M108.66,146.28s-4.07,13.13-.93,25.07,12.53,21.94,37.8,17.73,52.14-7.15,52.14-7.15l-75.11-51.55Z"/></g><path id="Path_1105" data-name="Path 1105" class="cls-4" d="M139.41,187.17l-1.52,40.05h8.67l-3.24-41.76Z"/><ellipse id="Ellipse_94" data-name="Ellipse 94" class="cls-5" cx="142.2" cy="231.09" rx="25.95" ry="4.75"/></g></g><path id="Path_1106" data-name="Path 1106" class="cls-6" d="M200.56,155.79c-8.61-.54-66.58-3.18-66.58-3.18l-14.61,2.64v17.33s21.35,4,29.33,8.67,14,4,14,4,2,8.67,5.34,12,18,26.64,18,32h.45l14.19-.64h0l9.3-.68,4.61-55C214.57,172.24,216.63,162.59,200.56,155.79Zm-17.28,25.46h8.64l2.64,23.31.35,1.41Z"/><path id="Path_1107" data-name="Path 1107" class="cls-7" d="M139.36,91.55l.68,15.27-8.61,4.65-9.26-19.29s3.48-3,3-7.35a7.73,7.73,0,0,0-1.12-3.28c-3.37-6-3.37-6.66-2-9.3s6-12.63,9.93-11.31,13.13-.79,13.48,7.93v.64C145.58,72.75,145.23,87.38,139.36,91.55Z"/><path id="Path_1108" data-name="Path 1108" class="cls-8" d="M128,88.17s2.64,7.34,11.31,3.37C139.31,91.48,130.64,98.15,128,88.17Z"/><path id="Path_1109" data-name="Path 1109" class="cls-8" d="M164.33,151.67l-2.1,2.64L149,153.78c-13.67,1.47-23.22,1.12-29.73.24,9.84-.14,24.63-.49,26.34-1.41S159.14,150.2,164.33,151.67Z"/><path id="Path_1110" data-name="Path 1110" class="cls-8" d="M145.58,69.51c-.2-.88-1-3.09-5-2.25-4.9,1-11.23-2-11.23,0s1,7.35-2.45,6.37-4.41,0-3.37,2.45c.83,2.06,4.4,9.69,1.75,8.82a7.68,7.68,0,0,0-1.06-3.29c-3.37-6-3.37-6.65-2-9.3s6-12.64,9.94-11.31,13.12-.79,13.47,7.93Z"/><path id="Path_1111" data-name="Path 1111" d="M127.65,71.81c2.65,0-2.64-6.66,2.65-6.66s9.65,1.62,13.33.69c1.61-.44,2,4,2,4s.64-16.85-16.75-11.31a8,8,0,0,0-4.07,2.83c-1.57,2-7,12-1.18,19.34,1,.35-.68-4.36-1-5.39C121.24,70.4,125.89,71.81,127.65,71.81Z"/><path id="Path_1112" data-name="Path 1112" class="cls-9" d="M186.41,229.18H186c0-5.34-14.6-28.65-18-32s-5.28-12-5.28-12-6,.69-14-4-29.32-8.66-29.32-8.66V157.84l9-3.42c-.25.33-11.41,14.4-4.6,16.3s40.05,13.22,39.86,14.2,4.2,3.91,12.54,20.57C183,219.44,190,226.83,186.41,229.18Z"/><path id="Path_1113" data-name="Path 1113" class="cls-10" d="M119,91.8h3.37l9.31,4,6,8.67,2-10V93.17l1.32.68.69,4s15.32,4.65,17.33,10,6.66,18,6.66,18-5.33,2.65-8.67,2.65l6.66,24.63s-24.68-6.66-35.35,1.28S119.63,173,119.63,173s-7.34-11.92-4-24a79.35,79.35,0,0,0,2.64-23.31l-18.66,3.37s-2.63-17.33,4-26.63l14.6-7.34Z"/><path id="Path_1114" data-name="Path 1114" class="cls-7" d="M171.63,142.46l-7.3,9.21-2.1,2.71L149,153.84c-13.67,1.47-23.22,1.13-29.73.25a56.47,56.47,0,0,1-6.73-1.22h-.24a1.1,1.1,0,0,1-.35-.11q-1.9-.49-2.94-.87c-4-1.33-8.71-22.77-8.71-22.77l14.89-2.64h0l3.13-.54c1.31,1.32,1.31,13.31,1.31,13.31s22,8.67,27.33,6,14.45.19,14.45.19-5.1-17.52-4.41-16.85c1,.35,8.66-2.64,8.66-2.64.11.19.25.39.4.69C168,130.42,171.63,142.46,171.63,142.46Z"/><path id="Path_1115" data-name="Path 1115" class="cls-11" d="M117,111.81s3.37,6.66,1.33,12C118.31,123.81,118.31,114.46,117,111.81Z"/><path id="Path_1116" data-name="Path 1116" class="cls-11" d="M158.31,115.79s2,8-.69,11.31C157.62,127.14,159.63,118.44,158.31,115.79Z"/><path id="Path_1117" data-name="Path 1117" class="cls-11" d="M133.63,141.78s15.33-2.64,20.67,0C154.3,141.78,135.64,141.09,133.63,141.78Z"/><path id="Path_1118" data-name="Path 1118" class="cls-12" d="M218.88,122.44l-19.3,35.31-39.31,2.64-23.35-4.65v-1l25.31-1,18-30.65,34.71-.59Z"/><path id="Path_1119" data-name="Path 1119" class="cls-13" d="M209.9,228.05l4.65-56s.68-10.67-14-16.11"/><path id="Path_1120" data-name="Path 1120" class="cls-13" d="M214.61,172.09s0-12-14-16.11"/><path id="Path_1121" data-name="Path 1121" class="cls-9" d="M199.93,169.44s-3.37,6.66-6.66,9.32C193.27,178.76,199.29,170.11,199.93,169.44Z"/><path id="Path_1122" data-name="Path 1122" class="cls-14" d="M163.3,176.1s1.33,2-2,4A25.24,25.24,0,0,0,163.3,176.1Z"/><path id="Path_1123" data-name="Path 1123" class="cls-14" d="M165.31,179.44s1.32,2-2,4A25,25,0,0,0,165.31,179.44Z"/><path id="Path_1124" data-name="Path 1124" class="cls-15" d="M172.6,160.78s5.79,1.67,10.88,21.15l-2-9.69c-1-3.44-1.62-7.86-5.05-9.55Z"/><path id="Path_1125" data-name="Path 1125" class="cls-16" d="M185.93,228s-3.24,5.48,0,7.1,15.81,0,15.81,0,6.07-6.66-1.86-8.28A25.06,25.06,0,0,0,185.93,228Z"/><path id="Path_1126" data-name="Path 1126" class="cls-16" d="M197.72,228.74s-3.82,5,0,6.47,18.61,0,18.61,0,7.1-6.08-2.15-7.55A36.81,36.81,0,0,0,197.72,228.74Z"/><path id="Path_1127" data-name="Path 1127" class="cls-8" d="M111.94,152.65c-1.27-.34-2.25-.64-2.94-.87-4-1.33-8.71-22.77-8.71-22.77l14.88-2.65c-4.49,1.61-11.41,4.36-11.23,6.12C104.11,135,105.72,150.79,111.94,152.65Z"/><path id="Path_1128" data-name="Path 1128" class="cls-8" d="M159.92,133a81.7,81.7,0,0,1,1,10.23s-4.66-15.46-4-14.82c1,.33,8.67-2.65,8.67-2.65.09.2.23.39.39.68C163.84,126.8,159.14,128.08,159.92,133Z"/><g id="Group_243" data-name="Group 243"><path id="Path_1129" data-name="Path 1129" class="cls-8" d="M111.94,138.94a10.56,10.56,0,0,1,4.11-.34,22.83,22.83,0,0,1,4.11.64c.69.15,1.33.34,2,.54s1.33.44,2,.68l1.91.79c.63.29,1.27.59,1.85.88-1.33-.44-2.64-.88-3.92-1.27s-2.64-.79-4-1.13a31.65,31.65,0,0,0-4-.74,15.84,15.84,0,0,0-2.06-.14A5.66,5.66,0,0,0,111.94,138.94Z"/></g><path id="Path_1130" data-name="Path 1130" class="cls-11" d="M119,91.8h3.37l9.3,4s5.73,8.46,6,8.67,2-10,2-10L139.4,93l1.57.79.69,4-2.6,12.24-9-11.75s-11.73-2.9-11.77-3.13S119,91.8,119,91.8Z"/><path id="Path_1131" data-name="Path 1131" class="cls-9" d="M180,166.85s2.44,15.19,13.27,13.22l4.49,47.11s-2.44-20.42-3.48-21.79-2.36-24.2-2.36-24.2l-8.42.69Z"/><path id="Path_1132" data-name="Path 1132" class="cls-17" d="M218.88,122.44l-19.3,35.31-39.31,2.64,1-1.85c36.92,2.1,50.54-27.62,53.71-36Z"/><line id="Line_71" data-name="Line 71" class="cls-18" x1="160.32" y1="160.44" x2="180.3" y2="123.12"/><ellipse id="Ellipse_95" data-name="Ellipse 95" class="cls-17" cx="192.19" cy="140.4" rx="3.47" ry="2.26" transform="translate(0.25 281.14) rotate(-72.4)"/><path id="Path_1133" data-name="Path 1133" class="cls-17" d="M137,154.75l24.49,4.5-.79,1.22L137,156.11Z"/></g><rect class="cls-13" width="300" height="300"/></svg>