<svg xmlns="http://www.w3.org/2000/svg" viewBox="0 0 299.45 255.2"><defs><style>.cls-1,.cls-10{isolation:isolate;}.cls-2{fill:#fff;}.cls-3{fill:#f1f7ff;}.cls-4{fill:#c8e0ff;}.cls-10,.cls-5{fill:#a5d1fe;}.cls-6{fill:#ffacb6;}.cls-7{fill:#ff9898;}.cls-8{fill:blue;}.cls-9{fill:#00217e;}.cls-10{opacity:0.43;}.cls-11{fill:#333a41;}</style></defs><g id="Layer_2" data-name="Layer 2"><g id="Layer_6" data-name="Layer 6"><g id="point_2" data-name="point 2"><g id="Candidates_Students_opens_the_SAFE_app_on_their_smart-phones_and_downloads_the_question_paper." data-name="Candidates Students opens the SAFE app on their smart-phones and downloads the question paper." class="cls-1"><g class="cls-1"><path class="cls-2" d="M8.75,201.54a.53.53,0,0,1,.31.43.65.65,0,0,1-.15.53.49.49,0,0,1-.37.22.79.79,0,0,1-.44-.1,5.06,5.06,0,0,0-1.14-.5,4.5,4.5,0,0,0-1.28-.18,4.59,4.59,0,0,0-1.73.32,4.25,4.25,0,0,0-1.36.92,4.28,4.28,0,0,0-.89,1.41,4.82,4.82,0,0,0-.32,1.81,5.13,5.13,0,0,0,.33,1.89,4.31,4.31,0,0,0,.92,1.41,3.87,3.87,0,0,0,1.36.89,4.46,4.46,0,0,0,1.69.31,4.36,4.36,0,0,0,1.26-.18,5,5,0,0,0,1.16-.51.7.7,0,0,1,.44-.08.6.6,0,0,1,.39.22.68.68,0,0,1,.14.54.53.53,0,0,1-.3.41,7,7,0,0,1-.91.44,7.73,7.73,0,0,1-1.07.31,6,6,0,0,1-1.11.11,5.9,5.9,0,0,1-2.18-.4,5.48,5.48,0,0,1-1.8-1.15,5.3,5.3,0,0,1-1.24-1.82,6.38,6.38,0,0,1,0-4.68,5.58,5.58,0,0,1,1.21-1.81,5.72,5.72,0,0,1,1.81-1.2,5.92,5.92,0,0,1,3.85-.2A5.42,5.42,0,0,1,8.75,201.54Z"/><path class="cls-2" d="M17.92,203.65a.6.6,0,0,1,.46.18.65.65,0,0,1,.18.46v7.05a.66.66,0,0,1-.18.47.65.65,0,0,1-.92,0,.66.66,0,0,1-.18-.47v-1.52l.3,0a1.56,1.56,0,0,1-.24.77,3.14,3.14,0,0,1-.65.78,3.81,3.81,0,0,1-1,.59,3.22,3.22,0,0,1-1.21.23,3.49,3.49,0,0,1-2-.57,3.86,3.86,0,0,1-1.37-1.54,4.85,4.85,0,0,1-.5-2.23,4.73,4.73,0,0,1,.51-2.23,3.85,3.85,0,0,1,1.36-1.52,3.45,3.45,0,0,1,1.92-.55,3.49,3.49,0,0,1,2.32.83,3,3,0,0,1,.68.85,2,2,0,0,1,.24.93l-.42-.1v-1.74a.62.62,0,0,1,.64-.64ZM14.62,211a2.45,2.45,0,0,0,1.42-.42,2.9,2.9,0,0,0,1-1.13,3.83,3.83,0,0,0,0-3.2,2.87,2.87,0,0,0-1-1.12,2.52,2.52,0,0,0-1.42-.41,2.57,2.57,0,0,0-1.4.4,2.74,2.74,0,0,0-1,1.11,3.78,3.78,0,0,0,0,3.22,2.8,2.8,0,0,0,1,1.13A2.43,2.43,0,0,0,14.62,211Z"/><path class="cls-2" d="M25.44,203.52a2.85,2.85,0,0,1,1.71.45,2.44,2.44,0,0,1,.89,1.2,4.94,4.94,0,0,1,.26,1.68v4.49a.66.66,0,0,1-.18.47.6.6,0,0,1-.46.19.58.58,0,0,1-.45-.19.63.63,0,0,1-.19-.47v-4.46a3.17,3.17,0,0,0-.18-1.1,1.67,1.67,0,0,0-.61-.78,2,2,0,0,0-1.16-.3,2.54,2.54,0,0,0-1.23.3,2.63,2.63,0,0,0-.9.78,1.92,1.92,0,0,0-.33,1.1v4.46a.63.63,0,0,1-.19.47A.58.58,0,0,1,22,212a.6.6,0,0,1-.46-.19.66.66,0,0,1-.18-.47v-7a.65.65,0,0,1,.18-.46.63.63,0,0,1,.46-.18.62.62,0,0,1,.46.18.65.65,0,0,1,.18.46v1.13l-.32.36a2.07,2.07,0,0,1,.37-.84,3,3,0,0,1,.72-.76,3.22,3.22,0,0,1,1-.54A3.15,3.15,0,0,1,25.44,203.52Z"/><path class="cls-2" d="M37.81,200.16a.62.62,0,0,1,.46.18.65.65,0,0,1,.18.46v10.54a.63.63,0,0,1-.19.47.58.58,0,0,1-.45.19.6.6,0,0,1-.46-.19.66.66,0,0,1-.18-.47v-1.52l.3-.11a1.72,1.72,0,0,1-.23.81,2.84,2.84,0,0,1-.66.79,3.6,3.6,0,0,1-1,.61,3.05,3.05,0,0,1-1.22.24,3.55,3.55,0,0,1-2-.56,4,4,0,0,1-1.37-1.54,4.84,4.84,0,0,1-.5-2.22,4.89,4.89,0,0,1,.5-2.24,4,4,0,0,1,1.36-1.53,3.68,3.68,0,0,1,3.19-.33,3.65,3.65,0,0,1,1,.61,3.08,3.08,0,0,1,.7.85,2,2,0,0,1,.24.93l-.41-.1V200.8a.65.65,0,0,1,.18-.46A.63.63,0,0,1,37.81,200.16ZM34.51,211a2.53,2.53,0,0,0,1.43-.41,2.93,2.93,0,0,0,1-1.12,3.9,3.9,0,0,0,0-3.23,2.91,2.91,0,0,0-1-1.11,2.54,2.54,0,0,0-1.42-.41,2.5,2.5,0,0,0-1.4.41,2.91,2.91,0,0,0-1,1.11,3.64,3.64,0,0,0-.35,1.62,3.57,3.57,0,0,0,.35,1.59,2.9,2.9,0,0,0,1,1.13A2.43,2.43,0,0,0,34.51,211Z"/><path class="cls-2" d="M41.81,202.53a.92.92,0,0,1-.59-.16.61.61,0,0,1-.2-.5v-.22a.59.59,0,0,1,.21-.5,1,1,0,0,1,.59-.16.93.93,0,0,1,.58.16.61.61,0,0,1,.19.5v.22a.61.61,0,0,1-.2.5A1,1,0,0,1,41.81,202.53Zm.64,8.81a.63.63,0,0,1-.19.47.58.58,0,0,1-.45.19.61.61,0,0,1-.47-.19.7.7,0,0,1-.17-.47v-7.1a.65.65,0,0,1,.18-.46.63.63,0,0,1,.46-.18.61.61,0,0,1,.45.18.62.62,0,0,1,.19.46Z"/><path class="cls-2" d="M51.89,200.16a.62.62,0,0,1,.46.18.65.65,0,0,1,.18.46v10.54a.63.63,0,0,1-.19.47.58.58,0,0,1-.45.19.6.6,0,0,1-.46-.19.66.66,0,0,1-.18-.47v-1.52l.3-.11a1.72,1.72,0,0,1-.23.81,2.67,2.67,0,0,1-.66.79,3.6,3.6,0,0,1-1,.61,3.05,3.05,0,0,1-1.22.24,3.55,3.55,0,0,1-2-.56,4,4,0,0,1-1.37-1.54,4.84,4.84,0,0,1-.5-2.22,4.89,4.89,0,0,1,.5-2.24,4,4,0,0,1,1.36-1.53,3.68,3.68,0,0,1,3.19-.33,3.65,3.65,0,0,1,1,.61,3.08,3.08,0,0,1,.7.85,2,2,0,0,1,.24.93l-.41-.1V200.8a.65.65,0,0,1,.18-.46A.63.63,0,0,1,51.89,200.16ZM48.59,211a2.53,2.53,0,0,0,1.43-.41,2.93,2.93,0,0,0,1-1.12,3.9,3.9,0,0,0,0-3.23,2.91,2.91,0,0,0-1-1.11,2.54,2.54,0,0,0-1.42-.41,2.5,2.5,0,0,0-1.4.41,2.91,2.91,0,0,0-1,1.11,3.64,3.64,0,0,0-.35,1.62,3.57,3.57,0,0,0,.35,1.59,2.9,2.9,0,0,0,1,1.13A2.43,2.43,0,0,0,48.59,211Z"/><path class="cls-2" d="M62,203.65a.64.64,0,0,1,.47.18.69.69,0,0,1,.17.46v7.05a.66.66,0,0,1-.18.47A.6.6,0,0,1,62,212a.58.58,0,0,1-.45-.19.63.63,0,0,1-.19-.47v-1.52l.31,0a1.56,1.56,0,0,1-.24.77,3,3,0,0,1-.66.78,3.65,3.65,0,0,1-1,.59,3.22,3.22,0,0,1-1.21.23,3.49,3.49,0,0,1-2-.57,3.93,3.93,0,0,1-1.37-1.54,4.85,4.85,0,0,1-.5-2.23,4.73,4.73,0,0,1,.51-2.23,3.93,3.93,0,0,1,1.36-1.52,3.46,3.46,0,0,1,1.93-.55,3.44,3.44,0,0,1,2.31.83,3,3,0,0,1,.68.85,2,2,0,0,1,.24.93l-.42-.1v-1.74a.62.62,0,0,1,.19-.46A.61.61,0,0,1,62,203.65ZM58.74,211a2.44,2.44,0,0,0,1.41-.42,2.9,2.9,0,0,0,1-1.13,3.83,3.83,0,0,0,0-3.2,2.87,2.87,0,0,0-1-1.12,2.51,2.51,0,0,0-1.41-.41,2.55,2.55,0,0,0-1.4.4,2.69,2.69,0,0,0-1,1.11,3.88,3.88,0,0,0,0,3.22,2.74,2.74,0,0,0,1,1.13A2.41,2.41,0,0,0,58.74,211Z"/><path class="cls-2" d="M65.12,203.78h3.76a.57.57,0,0,1,.42.17.57.57,0,0,1,.17.42.54.54,0,0,1-.17.42.57.57,0,0,1-.42.17H65.12a.58.58,0,0,1-.42-.18.6.6,0,0,1-.17-.43.58.58,0,0,1,.17-.41A.6.6,0,0,1,65.12,203.78Zm1.68-2.18a.61.61,0,0,1,.45.18.69.69,0,0,1,.17.46V210a1.08,1.08,0,0,0,.12.57.58.58,0,0,0,.29.27.92.92,0,0,0,.36.07.61.61,0,0,0,.28-.06.78.78,0,0,1,.28,0,.4.4,0,0,1,.3.15.56.56,0,0,1,.13.39.58.58,0,0,1-.33.49,1.51,1.51,0,0,1-.76.2l-.55,0a1.56,1.56,0,0,1-.64-.21,1.33,1.33,0,0,1-.54-.58,2.45,2.45,0,0,1-.22-1.15v-7.79a.66.66,0,0,1,.19-.46A.67.67,0,0,1,66.8,201.6Z"/><path class="cls-2" d="M75.31,212.16a4.5,4.5,0,0,1-2.24-.54,3.9,3.9,0,0,1-1.49-1.5,4.47,4.47,0,0,1-.52-2.2,4.79,4.79,0,0,1,.55-2.38A4,4,0,0,1,73,204a3.59,3.59,0,0,1,1.87-.52,3.83,3.83,0,0,1,1.43.27,3.77,3.77,0,0,1,1.22.79,4.09,4.09,0,0,1,.86,1.25,4.27,4.27,0,0,1,.33,1.63.61.61,0,0,1-.21.43.6.6,0,0,1-.44.17H71.78l-.29-1.1h6.16l-.26.22v-.35A2,2,0,0,0,77,205.7a2.59,2.59,0,0,0-.92-.72,2.68,2.68,0,0,0-1.14-.26,2.84,2.84,0,0,0-1,.17,2.2,2.2,0,0,0-.85.54,2.76,2.76,0,0,0-.6,1,4,4,0,0,0-.22,1.42,3.45,3.45,0,0,0,.37,1.64,2.81,2.81,0,0,0,1,1.11,3.23,3.23,0,0,0,2.55.26,2.49,2.49,0,0,0,.71-.36,3.14,3.14,0,0,0,.5-.44.78.78,0,0,1,.42-.14.55.55,0,0,1,.54.54.61.61,0,0,1-.25.48,4.2,4.2,0,0,1-1.23.87A3.66,3.66,0,0,1,75.31,212.16Z"/><path class="cls-2" d="M80.53,210.69a.67.67,0,0,1-.13-.44.54.54,0,0,1,.27-.41.6.6,0,0,1,.38-.1.63.63,0,0,1,.39.21,3.69,3.69,0,0,0,1,.84,2.94,2.94,0,0,0,1.41.31,3.43,3.43,0,0,0,.77-.12,1.46,1.46,0,0,0,.65-.4,1,1,0,0,0,.26-.74.93.93,0,0,0-.27-.71,2,2,0,0,0-.7-.43,7.58,7.58,0,0,0-1-.3c-.35-.1-.7-.21-1-.33a3.77,3.77,0,0,1-.92-.46,2.11,2.11,0,0,1-.65-.71,1.94,1.94,0,0,1-.25-1,2.07,2.07,0,0,1,.39-1.25,2.49,2.49,0,0,1,1.06-.81,3.6,3.6,0,0,1,1.44-.29,4.49,4.49,0,0,1,.94.1,3.56,3.56,0,0,1,1,.36,2.64,2.64,0,0,1,.82.68.66.66,0,0,1,.16.4.51.51,0,0,1-.21.43.61.61,0,0,1-.39.11.5.5,0,0,1-.36-.16,2.36,2.36,0,0,0-.84-.62,2.89,2.89,0,0,0-1.11-.21,2.79,2.79,0,0,0-.76.11,1.38,1.38,0,0,0-.61.38,1,1,0,0,0-.25.72,1,1,0,0,0,.29.71A1.92,1.92,0,0,0,83,207c.31.11.65.22,1,.33a9.34,9.34,0,0,1,1,.29,3.49,3.49,0,0,1,.86.44,2.06,2.06,0,0,1,.61.7,2.38,2.38,0,0,1,.22,1.06,2,2,0,0,1-.42,1.27,2.59,2.59,0,0,1-1.09.82,3.77,3.77,0,0,1-1.47.28,4.59,4.59,0,0,1-1.73-.34A3.43,3.43,0,0,1,80.53,210.69Z"/><path class="cls-2" d="M97.58,215a.67.67,0,0,1-.3-.08,7.28,7.28,0,0,1-2.19-1.83,7.83,7.83,0,0,1-1.33-2.44,8.77,8.77,0,0,1-.45-2.79,8.23,8.23,0,0,1,1.82-5.17,8.49,8.49,0,0,1,2.15-1.88.56.56,0,0,1,.3-.08.48.48,0,0,1,.4.18.59.59,0,0,1,.15.38.57.57,0,0,1-.26.46,6.68,6.68,0,0,0-1.78,1.65A7.29,7.29,0,0,0,95,205.53a7.44,7.44,0,0,0-.37,2.34,8,8,0,0,0,.36,2.37,7.07,7.07,0,0,0,1.08,2.14A6.6,6.6,0,0,0,97.87,214a.5.5,0,0,1,.24.45.59.59,0,0,1-.14.38A.48.48,0,0,1,97.58,215Z"/><path class="cls-2" d="M103.55,212.16a5.15,5.15,0,0,1-3.81-1.47,1.44,1.44,0,0,1-.18-.25.6.6,0,0,1-.07-.3.64.64,0,0,1,.18-.45.59.59,0,0,1,.86,0,4.3,4.3,0,0,0,1.35.93,3.9,3.9,0,0,0,1.64.32,3.42,3.42,0,0,0,1.27-.22,2.25,2.25,0,0,0,.91-.63,1.39,1.39,0,0,0,.33-.92,1.62,1.62,0,0,0-.37-1.06,2.83,2.83,0,0,0-1-.7,9,9,0,0,0-1.46-.47,8.22,8.22,0,0,1-1.35-.43,4.14,4.14,0,0,1-1.07-.63,2.56,2.56,0,0,1-.69-.91,2.92,2.92,0,0,1-.25-1.26,2.72,2.72,0,0,1,.48-1.6,3.07,3.07,0,0,1,1.33-1.06,4.74,4.74,0,0,1,1.95-.38,5.41,5.41,0,0,1,1.85.32,3.57,3.57,0,0,1,1.4.88.86.86,0,0,1,.32.59.69.69,0,0,1-.66.64.45.45,0,0,1-.32-.13,2.76,2.76,0,0,0-.69-.54,3.71,3.71,0,0,0-.91-.38,3.4,3.4,0,0,0-1-.15,3.51,3.51,0,0,0-1.3.22,1.93,1.93,0,0,0-.87.61,1.43,1.43,0,0,0-.31.93,1.45,1.45,0,0,0,.35,1,2.56,2.56,0,0,0,1,.64,9.56,9.56,0,0,0,1.31.44,14.51,14.51,0,0,1,1.44.44,4.32,4.32,0,0,1,1.15.62,2.41,2.41,0,0,1,.74.93,3.27,3.27,0,0,1,.27,1.4,2.62,2.62,0,0,1-.5,1.57,3.31,3.31,0,0,1-1.35,1.08A4.75,4.75,0,0,1,103.55,212.16Z"/><path class="cls-2" d="M109.33,203.78h3.76a.57.57,0,0,1,.42.17.61.61,0,0,1,.17.42.58.58,0,0,1-.59.59h-3.76a.58.58,0,0,1-.42-.18.56.56,0,0,1-.17-.43.54.54,0,0,1,.17-.41A.6.6,0,0,1,109.33,203.78ZM111,201.6a.61.61,0,0,1,.45.18.69.69,0,0,1,.17.46V210a1.2,1.2,0,0,0,.11.57.64.64,0,0,0,.3.27.92.92,0,0,0,.36.07.61.61,0,0,0,.28-.06.78.78,0,0,1,.28,0,.38.38,0,0,1,.29.15.52.52,0,0,1,.14.39.57.57,0,0,1-.34.49,1.45,1.45,0,0,1-.75.2l-.55,0a1.65,1.65,0,0,1-.65-.21,1.37,1.37,0,0,1-.53-.58,2.45,2.45,0,0,1-.22-1.15v-7.79a.66.66,0,0,1,.19-.46A.67.67,0,0,1,111,201.6Z"/><path class="cls-2" d="M122.05,203.73a.62.62,0,0,1,.46.18.65.65,0,0,1,.18.46v4.37a3.36,3.36,0,0,1-.91,2.5,4,4,0,0,1-5,0,3.36,3.36,0,0,1-.91-2.5v-4.37a.66.66,0,0,1,.19-.46.68.68,0,0,1,.92,0,.64.64,0,0,1,.17.46v4.37a2.23,2.23,0,0,0,.56,1.64,2.11,2.11,0,0,0,1.57.56,2.08,2.08,0,0,0,1.59-.56,2.23,2.23,0,0,0,.56-1.64v-4.37a.65.65,0,0,1,.18-.46A.63.63,0,0,1,122.05,203.73Z"/><path class="cls-2" d="M132.19,200.16a.6.6,0,0,1,.46.18.65.65,0,0,1,.18.46v10.54a.66.66,0,0,1-.18.47.65.65,0,0,1-.92,0,.66.66,0,0,1-.18-.47v-1.52l.3-.11a1.61,1.61,0,0,1-.23.81,2.79,2.79,0,0,1-.65.79,3.66,3.66,0,0,1-1,.61,3,3,0,0,1-1.21.24,3.56,3.56,0,0,1-2-.56,3.85,3.85,0,0,1-1.36-1.54,4.72,4.72,0,0,1-.51-2.22,4.77,4.77,0,0,1,.51-2.24,3.89,3.89,0,0,1,1.36-1.53,3.66,3.66,0,0,1,3.18-.33,3.65,3.65,0,0,1,1,.61,3.08,3.08,0,0,1,.7.85,2,2,0,0,1,.25.93l-.42-.1V200.8a.62.62,0,0,1,.64-.64ZM128.89,211a2.53,2.53,0,0,0,1.43-.41,2.93,2.93,0,0,0,1-1.12,3.9,3.9,0,0,0,0-3.23,2.91,2.91,0,0,0-1-1.11,2.52,2.52,0,0,0-1.42-.41,2.47,2.47,0,0,0-1.39.41,2.75,2.75,0,0,0-1,1.11,3.51,3.51,0,0,0-.36,1.62,3.45,3.45,0,0,0,.36,1.59,2.74,2.74,0,0,0,1,1.13A2.4,2.4,0,0,0,128.89,211Z"/><path class="cls-2" d="M139.34,212.16a4.5,4.5,0,0,1-2.24-.54,3.81,3.81,0,0,1-1.48-1.5,4.37,4.37,0,0,1-.53-2.2,4.79,4.79,0,0,1,.55-2.38,4,4,0,0,1,1.43-1.5,3.59,3.59,0,0,1,1.87-.52,3.92,3.92,0,0,1,1.44.27,3.83,3.83,0,0,1,1.21.79,4.09,4.09,0,0,1,.86,1.25,4.27,4.27,0,0,1,.33,1.63.64.64,0,0,1-.2.43.63.63,0,0,1-.45.17h-6.32l-.29-1.1h6.16l-.26.22v-.35a2,2,0,0,0-.42-1.13,2.59,2.59,0,0,0-.92-.72,2.64,2.64,0,0,0-1.14-.26,2.89,2.89,0,0,0-.95.17,2.28,2.28,0,0,0-.85.54,2.76,2.76,0,0,0-.6,1,4,4,0,0,0-.22,1.42,3.45,3.45,0,0,0,.37,1.64,2.88,2.88,0,0,0,1.05,1.11,3.23,3.23,0,0,0,2.55.26,2.49,2.49,0,0,0,.71-.36,3.14,3.14,0,0,0,.5-.44.78.78,0,0,1,.42-.14.55.55,0,0,1,.54.54.61.61,0,0,1-.25.48,4.2,4.2,0,0,1-1.23.87A3.63,3.63,0,0,1,139.34,212.16Z"/><path class="cls-2" d="M149.13,203.52a2.9,2.9,0,0,1,1.72.45,2.43,2.43,0,0,1,.88,1.2,4.93,4.93,0,0,1,.27,1.68v4.49a.63.63,0,0,1-.19.47.58.58,0,0,1-.45.19.62.62,0,0,1-.46-.19.66.66,0,0,1-.18-.47v-4.46a3,3,0,0,0-.19-1.1,1.65,1.65,0,0,0-.6-.78,2,2,0,0,0-1.16-.3,2.61,2.61,0,0,0-1.24.3,2.5,2.5,0,0,0-.89.78,1.93,1.93,0,0,0-.34,1.1v4.46a.66.66,0,0,1-.18.47.6.6,0,0,1-.46.19.58.58,0,0,1-.45-.19.63.63,0,0,1-.19-.47v-7a.62.62,0,0,1,.19-.46.61.61,0,0,1,.45-.18.64.64,0,0,1,.47.18.69.69,0,0,1,.17.46v1.13l-.32.36a2.38,2.38,0,0,1,.37-.84,3,3,0,0,1,.72-.76,3.49,3.49,0,0,1,1-.54A3.15,3.15,0,0,1,149.13,203.52Z"/><path class="cls-2" d="M154.45,203.78h3.76a.57.57,0,0,1,.42.17.61.61,0,0,1,.17.42.58.58,0,0,1-.59.59h-3.76a.58.58,0,0,1-.42-.18.57.57,0,0,1-.18-.43.55.55,0,0,1,.18-.41A.6.6,0,0,1,154.45,203.78Zm1.68-2.18a.61.61,0,0,1,.45.18.69.69,0,0,1,.17.46V210a1.2,1.2,0,0,0,.11.57.64.64,0,0,0,.3.27.92.92,0,0,0,.36.07.64.64,0,0,0,.28-.06.78.78,0,0,1,.28,0,.41.41,0,0,1,.3.15.61.61,0,0,1,.13.39.57.57,0,0,1-.34.49,1.45,1.45,0,0,1-.75.2l-.55,0a1.65,1.65,0,0,1-.65-.21,1.37,1.37,0,0,1-.53-.58,2.45,2.45,0,0,1-.22-1.15v-7.79a.66.66,0,0,1,.19-.46A.67.67,0,0,1,156.13,201.6Z"/><path class="cls-2" d="M160.83,210.69a.67.67,0,0,1-.13-.44.54.54,0,0,1,.27-.41.62.62,0,0,1,.38-.1.63.63,0,0,1,.39.21,3.59,3.59,0,0,0,1,.84,2.87,2.87,0,0,0,1.4.31,3.34,3.34,0,0,0,.77-.12,1.46,1.46,0,0,0,.65-.4,1,1,0,0,0,.26-.74.93.93,0,0,0-.27-.71,1.94,1.94,0,0,0-.7-.43,7.09,7.09,0,0,0-.95-.3c-.35-.1-.69-.21-1-.33a4,4,0,0,1-.92-.46,2.11,2.11,0,0,1-.65-.71,1.94,1.94,0,0,1-.25-1,2.07,2.07,0,0,1,.39-1.25,2.55,2.55,0,0,1,1.06-.81,3.61,3.61,0,0,1,1.45-.29,4.4,4.4,0,0,1,.93.1,3.44,3.44,0,0,1,.95.36,2.53,2.53,0,0,1,.82.68.6.6,0,0,1,.16.4.51.51,0,0,1-.21.43.61.61,0,0,1-.39.11.54.54,0,0,1-.36-.16,2.2,2.2,0,0,0-.84-.62,2.89,2.89,0,0,0-1.11-.21,2.67,2.67,0,0,0-.75.11,1.41,1.41,0,0,0-.62.38,1,1,0,0,0-.25.72,1,1,0,0,0,.29.71,2,2,0,0,0,.74.44l1,.33a9.34,9.34,0,0,1,1,.29,3.49,3.49,0,0,1,.86.44,2,2,0,0,1,.61.7,2.25,2.25,0,0,1,.22,1.06,2,2,0,0,1-.41,1.27,2.68,2.68,0,0,1-1.1.82,3.72,3.72,0,0,1-1.46.28,4.61,4.61,0,0,1-1.74-.34A3.49,3.49,0,0,1,160.83,210.69Z"/><path class="cls-2" d="M169,215a.48.48,0,0,1-.4-.19.64.64,0,0,1-.15-.39.54.54,0,0,1,.24-.45,6.63,6.63,0,0,0,1.8-1.65,7.17,7.17,0,0,0,1.11-2.12,7.54,7.54,0,0,0,.37-2.35,7.9,7.9,0,0,0-.36-2.36,6.88,6.88,0,0,0-1.09-2.14,6,6,0,0,0-1.83-1.62.51.51,0,0,1-.24-.46.55.55,0,0,1,.15-.38.52.52,0,0,1,.7-.08,7,7,0,0,1,2.18,1.82,7.72,7.72,0,0,1,1.32,2.44,8.66,8.66,0,0,1,.45,2.78,8.49,8.49,0,0,1-.45,2.76,8.24,8.24,0,0,1-1.35,2.42,7.87,7.87,0,0,1-2.17,1.87A.42.42,0,0,1,169,215Z"/><path class="cls-2" d="M188.14,207.84a4.5,4.5,0,0,1-.54,2.22,4,4,0,0,1-1.48,1.54,4.27,4.27,0,0,1-4.23,0,4,4,0,0,1-1.48-1.54,4.68,4.68,0,0,1,0-4.44,4.1,4.1,0,0,1,7.19,0A4.5,4.5,0,0,1,188.14,207.84Zm-1.28,0a3.41,3.41,0,0,0-.37-1.63,2.9,2.9,0,0,0-1-1.11,2.86,2.86,0,0,0-2.92,0,2.83,2.83,0,0,0-1,1.11,3.66,3.66,0,0,0,0,3.25,2.83,2.83,0,0,0,1,1.11,2.8,2.8,0,0,0,2.92,0,2.9,2.9,0,0,0,1-1.11A3.4,3.4,0,0,0,186.86,207.84Z"/><path class="cls-2" d="M194.48,203.6a3.62,3.62,0,0,1,2,.54,3.92,3.92,0,0,1,1.37,1.51,5.11,5.11,0,0,1,0,4.41,4,4,0,0,1-1.36,1.52,3.56,3.56,0,0,1-1.93.55,3.12,3.12,0,0,1-1.11-.19,3.85,3.85,0,0,1-1-.48,3,3,0,0,1-.71-.67,2.62,2.62,0,0,1-.41-.74l.35-.23v4.72a.66.66,0,0,1-.18.47.59.59,0,0,1-.46.19.65.65,0,0,1-.46-.18.66.66,0,0,1-.18-.48V204.32a.62.62,0,0,1,.64-.64.62.62,0,0,1,.46.18.65.65,0,0,1,.18.46v1.42l-.24-.12a2.08,2.08,0,0,1,.39-.77,3.06,3.06,0,0,1,.69-.65,3.34,3.34,0,0,1,.91-.44A3.39,3.39,0,0,1,194.48,203.6Zm-.15,1.18a2.58,2.58,0,0,0-1.41.4,2.75,2.75,0,0,0-1,1.09,3.51,3.51,0,0,0-.35,1.59,3.56,3.56,0,0,0,.35,1.58,2.65,2.65,0,0,0,1,1.1,2.5,2.5,0,0,0,1.41.4,2.46,2.46,0,0,0,1.41-.4,2.65,2.65,0,0,0,1-1.1,3.43,3.43,0,0,0,.35-1.58,3.39,3.39,0,0,0-.35-1.59,2.75,2.75,0,0,0-1-1.09A2.53,2.53,0,0,0,194.33,204.78Z"/><path class="cls-2" d="M204.29,212.16a4.48,4.48,0,0,1-2.24-.54,3.84,3.84,0,0,1-1.49-1.5,4.48,4.48,0,0,1-.53-2.2,4.79,4.79,0,0,1,.55-2.38A4.05,4.05,0,0,1,202,204a3.6,3.6,0,0,1,1.88-.52,3.86,3.86,0,0,1,1.43.27,3.73,3.73,0,0,1,1.21.79,3.93,3.93,0,0,1,.86,1.25,4.47,4.47,0,0,1,.34,1.63.65.65,0,0,1-.21.43.63.63,0,0,1-.45.17h-6.32l-.29-1.1h6.16l-.25.22v-.35a2.08,2.08,0,0,0-.43-1.13A2.59,2.59,0,0,0,205,205a2.63,2.63,0,0,0-1.13-.26,2.94,2.94,0,0,0-1,.17,2.24,2.24,0,0,0-.84.54,2.5,2.5,0,0,0-.6,1,4,4,0,0,0-.23,1.42,3.45,3.45,0,0,0,.38,1.64,2.81,2.81,0,0,0,1.05,1.11,2.91,2.91,0,0,0,1.55.41,3,3,0,0,0,1-.15,2.37,2.37,0,0,0,.71-.36,3.24,3.24,0,0,0,.51-.44.72.72,0,0,1,.41-.14.55.55,0,0,1,.55.54.62.62,0,0,1-.26.48,4.29,4.29,0,0,1-1.22.87A3.69,3.69,0,0,1,204.29,212.16Z"/><path class="cls-2" d="M214.08,203.52a2.89,2.89,0,0,1,1.71.45,2.44,2.44,0,0,1,.89,1.2,5.2,5.2,0,0,1,.26,1.68v4.49a.66.66,0,0,1-.18.47.62.62,0,0,1-.46.19.58.58,0,0,1-.45-.19.63.63,0,0,1-.19-.47v-4.46a3.17,3.17,0,0,0-.18-1.1,1.67,1.67,0,0,0-.61-.78,2,2,0,0,0-1.16-.3,2.61,2.61,0,0,0-2.13,1.08,1.92,1.92,0,0,0-.33,1.1v4.46a.67.67,0,0,1-.19.47.58.58,0,0,1-.45.19.59.59,0,0,1-.46-.19.66.66,0,0,1-.18-.47v-7a.65.65,0,0,1,.18-.46.68.68,0,0,1,.92,0,.65.65,0,0,1,.18.46v1.13l-.32.36a2.18,2.18,0,0,1,.36-.84,3.59,3.59,0,0,1,1.68-1.3A3.21,3.21,0,0,1,214.08,203.52Z"/><path class="cls-2" d="M219.25,210.69a.67.67,0,0,1-.13-.44.54.54,0,0,1,.27-.41.6.6,0,0,1,.38-.1.63.63,0,0,1,.39.21,3.69,3.69,0,0,0,1,.84,2.94,2.94,0,0,0,1.41.31,3.43,3.43,0,0,0,.77-.12,1.51,1.51,0,0,0,.65-.4,1,1,0,0,0,.26-.74.93.93,0,0,0-.27-.71,2,2,0,0,0-.71-.43,6.93,6.93,0,0,0-.94-.3c-.35-.1-.7-.21-1-.33a3.77,3.77,0,0,1-.92-.46,2.24,2.24,0,0,1-.66-.71,2,2,0,0,1-.24-1,2.07,2.07,0,0,1,.39-1.25,2.52,2.52,0,0,1,1.05-.81,3.68,3.68,0,0,1,1.45-.29,4.49,4.49,0,0,1,.94.1,3.56,3.56,0,0,1,1,.36,2.64,2.64,0,0,1,.82.68.66.66,0,0,1,.16.4.51.51,0,0,1-.21.43.61.61,0,0,1-.39.11.5.5,0,0,1-.36-.16,2.36,2.36,0,0,0-.84-.62,2.9,2.9,0,0,0-1.12-.21,2.78,2.78,0,0,0-.75.11,1.38,1.38,0,0,0-.61.38,1.08,1.08,0,0,0,0,1.43,1.92,1.92,0,0,0,.73.44c.31.11.65.22,1,.33a10.11,10.11,0,0,1,1,.29,3.67,3.67,0,0,1,.86.44,2,2,0,0,1,.6.7,2.25,2.25,0,0,1,.23,1.06,2,2,0,0,1-.42,1.27,2.65,2.65,0,0,1-1.09.82,3.81,3.81,0,0,1-1.47.28,4.59,4.59,0,0,1-1.73-.34A3.43,3.43,0,0,1,219.25,210.69Z"/><path class="cls-2" d="M232.17,203.78h3.76a.6.6,0,0,1,.43.17.61.61,0,0,1,.17.42.57.57,0,0,1-.17.42.6.6,0,0,1-.43.17h-3.76a.55.55,0,0,1-.41-.18.57.57,0,0,1-.18-.43.55.55,0,0,1,.18-.41A.57.57,0,0,1,232.17,203.78Zm1.68-2.18a.6.6,0,0,1,.45.18.65.65,0,0,1,.18.46V210a1.09,1.09,0,0,0,.11.57.56.56,0,0,0,.3.27.92.92,0,0,0,.36.07.64.64,0,0,0,.28-.06.78.78,0,0,1,.28,0,.4.4,0,0,1,.29.15.55.55,0,0,1-.2.88,1.45,1.45,0,0,1-.75.2l-.55,0a1.6,1.6,0,0,1-.65-.21,1.45,1.45,0,0,1-.54-.58,2.6,2.6,0,0,1-.21-1.15v-7.79a.62.62,0,0,1,.19-.46A.65.65,0,0,1,233.85,201.6Z"/><path class="cls-2" d="M242.7,203.6a2.69,2.69,0,0,1,1.67.46,2.45,2.45,0,0,1,.88,1.21,5,5,0,0,1,.27,1.69v4.38a.63.63,0,0,1-.19.47.58.58,0,0,1-.45.19.6.6,0,0,1-.46-.19.66.66,0,0,1-.18-.47V207a3.17,3.17,0,0,0-.18-1.1,1.68,1.68,0,0,0-.58-.78,1.85,1.85,0,0,0-1.11-.3,2.43,2.43,0,0,0-1.2.3,2.36,2.36,0,0,0-.87.78A2,2,0,0,0,240,207v4.38a.66.66,0,0,1-.18.47.62.62,0,0,1-.46.19.58.58,0,0,1-.45-.19.63.63,0,0,1-.19-.47V200.8a.62.62,0,0,1,.19-.46.61.61,0,0,1,.45-.18.64.64,0,0,1,.47.18.69.69,0,0,1,.17.46v4.78l-.32.36a2.32,2.32,0,0,1,.35-.84,2.92,2.92,0,0,1,.69-.76,3.33,3.33,0,0,1,.93-.54A3,3,0,0,1,242.7,203.6Z"/><path class="cls-2" d="M252,212.16a4.5,4.5,0,0,1-2.24-.54,3.84,3.84,0,0,1-1.49-1.5,4.48,4.48,0,0,1-.53-2.2,4.79,4.79,0,0,1,.56-2.38,3.9,3.9,0,0,1,1.43-1.5,3.57,3.57,0,0,1,1.87-.52,3.83,3.83,0,0,1,1.43.27,3.88,3.88,0,0,1,1.22.79,4.08,4.08,0,0,1,1.19,2.88.61.61,0,0,1-.21.43.63.63,0,0,1-.45.17h-6.32l-.28-1.1h6.16l-.26.22v-.35a2,2,0,0,0-.42-1.13,2.68,2.68,0,0,0-.92-.72,2.71,2.71,0,0,0-1.14-.26,2.84,2.84,0,0,0-.95.17,2.2,2.2,0,0,0-.85.54,2.76,2.76,0,0,0-.6,1,4,4,0,0,0-.23,1.42,3.45,3.45,0,0,0,.38,1.64,2.81,2.81,0,0,0,1.05,1.11A2.94,2.94,0,0,0,252,211a2.87,2.87,0,0,0,1-.15,2.43,2.43,0,0,0,.72-.36,3.65,3.65,0,0,0,.5-.44.78.78,0,0,1,.42-.14.52.52,0,0,1,.38.16.49.49,0,0,1,.16.38.62.62,0,0,1-.26.48,4.15,4.15,0,0,1-1.22.87A3.66,3.66,0,0,1,252,212.16Z"/><path class="cls-2" d="M266,212.16a5.73,5.73,0,0,1-2.08-.35,5.62,5.62,0,0,1-1.73-1.12,1.1,1.1,0,0,1-.19-.25.73.73,0,0,1-.07-.3.61.61,0,0,1,.19-.45.58.58,0,0,1,.85,0,4.46,4.46,0,0,0,1.36.93,3.89,3.89,0,0,0,1.63.32,3.47,3.47,0,0,0,1.28-.22,2.15,2.15,0,0,0,.9-.63,1.34,1.34,0,0,0,.34-.92,1.63,1.63,0,0,0-.38-1.06,2.79,2.79,0,0,0-1-.7,8.78,8.78,0,0,0-1.47-.47,8.22,8.22,0,0,1-1.35-.43,4.07,4.07,0,0,1-1.06-.63,2.71,2.71,0,0,1-.7-.91,3.08,3.08,0,0,1-.24-1.26,2.79,2.79,0,0,1,.47-1.6,3.13,3.13,0,0,1,1.33-1.06,4.81,4.81,0,0,1,2-.38,5.37,5.37,0,0,1,1.85.32,3.57,3.57,0,0,1,1.4.88.82.82,0,0,1,.32.59.69.69,0,0,1-.65.64.44.44,0,0,1-.32-.13,2.76,2.76,0,0,0-.69-.54A3.88,3.88,0,0,0,267,202a3.67,3.67,0,0,0-2.29.07,1.88,1.88,0,0,0-.87.61,1.43,1.43,0,0,0-.31.93,1.4,1.4,0,0,0,.35,1,2.52,2.52,0,0,0,.94.64,10,10,0,0,0,1.31.44,14,14,0,0,1,1.45.44,4.26,4.26,0,0,1,1.14.62,2.53,2.53,0,0,1,.75.93,3.43,3.43,0,0,1,.26,1.4,2.61,2.61,0,0,1-.49,1.57,3.28,3.28,0,0,1-1.36,1.08A4.74,4.74,0,0,1,266,212.16Z"/><path class="cls-2" d="M276.19,202.46l-3.76,9.16a.61.61,0,0,1-.22.3.55.55,0,0,1-.34.11.58.58,0,0,1-.45-.16.56.56,0,0,1-.14-.38.5.5,0,0,1,0-.24l4.14-10.08a.66.66,0,0,1,.25-.33.62.62,0,0,1,.38-.09.67.67,0,0,1,.37.11.59.59,0,0,1,.23.31l4.13,10a.8.8,0,0,1,.05.26.55.55,0,0,1-.19.45.6.6,0,0,1-.43.17.59.59,0,0,1-.36-.11.73.73,0,0,1-.24-.32l-3.8-9.15Zm-3,6.55.54-1.25h4.76l.23,1.25Z"/><path class="cls-2" d="M283.68,212a.61.61,0,0,1-.47-.19.63.63,0,0,1-.19-.47v-9.9a.62.62,0,0,1,.19-.46.61.61,0,0,1,.45-.18h5.62a.65.65,0,0,1,.46.18.55.55,0,0,1,.19.44.58.58,0,0,1-.19.44.69.69,0,0,1-.46.17h-5l.09-.13v3.92l-.08-.17h4.31a.65.65,0,0,1,.46.18.62.62,0,0,1,.19.46.55.55,0,0,1-.19.42.62.62,0,0,1-.46.19h-4.34l.11-.15v4.59a.63.63,0,0,1-.19.47A.62.62,0,0,1,283.68,212Z"/><path class="cls-2" d="M293.1,200.8h5.7a.65.65,0,0,1,.46.18.55.55,0,0,1,.19.44.53.53,0,0,1-.19.44.64.64,0,0,1-.46.17h-5.16l.15-.27v4.05l-.16-.18h4.45a.65.65,0,0,1,.46.18.58.58,0,0,1,.19.45.56.56,0,0,1-.19.44.68.68,0,0,1-.46.16h-4.4l.11-.14v4.14l-.1-.11h5.11a.66.66,0,0,1,.46.19.61.61,0,0,1,.19.44.55.55,0,0,1-.19.44.65.65,0,0,1-.46.18h-5.7a.62.62,0,0,1-.46-.19.66.66,0,0,1-.18-.47v-9.9a.62.62,0,0,1,.64-.64Z"/></g><g class="cls-1"><path class="cls-2" d="M35.25,223.65a.62.62,0,0,1,.46.18.65.65,0,0,1,.18.46v7.05a.63.63,0,0,1-.19.47.58.58,0,0,1-.45.19.6.6,0,0,1-.46-.19.66.66,0,0,1-.18-.47v-1.52l.3,0a1.56,1.56,0,0,1-.24.77,3.14,3.14,0,0,1-.65.78,3.81,3.81,0,0,1-1,.59,3.23,3.23,0,0,1-1.22.23,3.54,3.54,0,0,1-2-.57,3.91,3.91,0,0,1-1.36-1.54,5.22,5.22,0,0,1,0-4.46,4,4,0,0,1,1.36-1.52,3.48,3.48,0,0,1,1.93-.55,3.55,3.55,0,0,1,1.28.22,3.39,3.39,0,0,1,1,.61,2.83,2.83,0,0,1,.68.85,2,2,0,0,1,.24.93l-.41-.1v-1.74a.65.65,0,0,1,.18-.46A.63.63,0,0,1,35.25,223.65ZM32,231a2.45,2.45,0,0,0,1.42-.42,2.9,2.9,0,0,0,1-1.13,3.83,3.83,0,0,0,0-3.2,2.87,2.87,0,0,0-1-1.12A2.52,2.52,0,0,0,32,224.7a2.57,2.57,0,0,0-1.4.4,2.84,2.84,0,0,0-1,1.11,3.88,3.88,0,0,0,0,3.22,2.9,2.9,0,0,0,1,1.13A2.43,2.43,0,0,0,32,231Z"/><path class="cls-2" d="M42.74,223.6a3.62,3.62,0,0,1,1.95.54,4,4,0,0,1,1.37,1.51,5.11,5.11,0,0,1,0,4.41,4,4,0,0,1-1.36,1.52,3.59,3.59,0,0,1-1.93.55,3.08,3.08,0,0,1-1.11-.19,3.69,3.69,0,0,1-.95-.48,3,3,0,0,1-.71-.67,3,3,0,0,1-.42-.74l.36-.23v4.72a.66.66,0,0,1-.18.47.59.59,0,0,1-.46.19.62.62,0,0,1-.46-.18.66.66,0,0,1-.18-.48V224.32a.65.65,0,0,1,.18-.46.68.68,0,0,1,.92,0,.65.65,0,0,1,.18.46v1.42l-.24-.12a2.08,2.08,0,0,1,.39-.77,2.69,2.69,0,0,1,.69-.65,3.34,3.34,0,0,1,.91-.44A3.3,3.3,0,0,1,42.74,223.6Zm-.15,1.18a2.58,2.58,0,0,0-1.41.4,2.75,2.75,0,0,0-1,1.09,3.51,3.51,0,0,0-.35,1.59,3.56,3.56,0,0,0,.35,1.58,2.65,2.65,0,0,0,1,1.1,2.69,2.69,0,0,0,2.82,0,2.65,2.65,0,0,0,1-1.1,3.56,3.56,0,0,0,.35-1.58,3.51,3.51,0,0,0-.35-1.59,2.75,2.75,0,0,0-1-1.09A2.58,2.58,0,0,0,42.59,224.78Z"/><path class="cls-2" d="M52.88,223.6a3.6,3.6,0,0,1,1.95.54,3.92,3.92,0,0,1,1.37,1.51,5.11,5.11,0,0,1,0,4.41,4,4,0,0,1-1.36,1.52,3.54,3.54,0,0,1-1.93.55,3.16,3.16,0,0,1-1.11-.19,3.62,3.62,0,0,1-.94-.48,3.08,3.08,0,0,1-.72-.67,2.62,2.62,0,0,1-.41-.74l.35-.23v4.72a.66.66,0,0,1-.18.47.58.58,0,0,1-.46.19A.65.65,0,0,1,49,235a.66.66,0,0,1-.18-.48V224.32a.62.62,0,0,1,.64-.64.6.6,0,0,1,.46.18.65.65,0,0,1,.18.46v1.42l-.24-.12a2.08,2.08,0,0,1,.39-.77,3.06,3.06,0,0,1,.69-.65,3.49,3.49,0,0,1,.91-.44A3.39,3.39,0,0,1,52.88,223.6Zm-.14,1.18a2.59,2.59,0,0,0-1.42.4,2.75,2.75,0,0,0-1,1.09,3.51,3.51,0,0,0-.34,1.59,3.55,3.55,0,0,0,.34,1.58,2.65,2.65,0,0,0,1,1.1,2.51,2.51,0,0,0,1.42.4,2.45,2.45,0,0,0,1.4-.4,2.65,2.65,0,0,0,1-1.1,3.43,3.43,0,0,0,.36-1.58,3.39,3.39,0,0,0-.36-1.59,2.75,2.75,0,0,0-1-1.09A2.53,2.53,0,0,0,52.74,224.78Z"/><path class="cls-2" d="M71.52,227.84a4.5,4.5,0,0,1-.54,2.22,4.11,4.11,0,0,1-7.2,0,4.76,4.76,0,0,1,0-4.44,4.16,4.16,0,0,1,1.49-1.54,4.27,4.27,0,0,1,4.23,0A4.13,4.13,0,0,1,71,225.62,4.5,4.5,0,0,1,71.52,227.84Zm-1.28,0a3.41,3.41,0,0,0-.38-1.63,2.88,2.88,0,0,0-1-1.11,2.86,2.86,0,0,0-2.92,0,2.83,2.83,0,0,0-1,1.11,3.66,3.66,0,0,0,0,3.25,2.83,2.83,0,0,0,1,1.11,2.8,2.8,0,0,0,2.92,0,2.88,2.88,0,0,0,1-1.11A3.4,3.4,0,0,0,70.24,227.84Z"/><path class="cls-2" d="M77.89,223.52a2.89,2.89,0,0,1,1.71.45,2.44,2.44,0,0,1,.89,1.2,5.2,5.2,0,0,1,.26,1.68v4.49a.66.66,0,0,1-.18.47.62.62,0,0,1-.46.19.58.58,0,0,1-.45-.19.63.63,0,0,1-.19-.47v-4.46a3.17,3.17,0,0,0-.18-1.1,1.67,1.67,0,0,0-.61-.78,2,2,0,0,0-1.16-.3,2.61,2.61,0,0,0-2.13,1.08,1.92,1.92,0,0,0-.33,1.1v4.46a.67.67,0,0,1-.19.47.58.58,0,0,1-.45.19.59.59,0,0,1-.46-.19.66.66,0,0,1-.18-.47v-7a.65.65,0,0,1,.18-.46.68.68,0,0,1,.92,0,.65.65,0,0,1,.18.46v1.13l-.32.36a2.18,2.18,0,0,1,.36-.84,3.59,3.59,0,0,1,1.68-1.3A3.21,3.21,0,0,1,77.89,223.52Z"/><path class="cls-2" d="M88,223.78h3.76a.57.57,0,0,1,.42.17.61.61,0,0,1,.17.42.58.58,0,0,1-.59.59H88a.58.58,0,0,1-.42-.18.6.6,0,0,1-.17-.43.58.58,0,0,1,.17-.41A.6.6,0,0,1,88,223.78Zm1.68-2.18a.61.61,0,0,1,.45.18.69.69,0,0,1,.17.46V230a1.08,1.08,0,0,0,.12.57.58.58,0,0,0,.29.27.92.92,0,0,0,.36.07.61.61,0,0,0,.28-.06.78.78,0,0,1,.28,0,.4.4,0,0,1,.3.15.56.56,0,0,1,.13.39.58.58,0,0,1-.33.49,1.51,1.51,0,0,1-.76.2l-.55,0a1.56,1.56,0,0,1-.64-.21,1.33,1.33,0,0,1-.54-.58A2.45,2.45,0,0,1,89,230v-7.79a.66.66,0,0,1,.19-.46A.67.67,0,0,1,89.68,221.6Z"/><path class="cls-2" d="M98.53,223.6a2.71,2.71,0,0,1,1.67.46,2.51,2.51,0,0,1,.88,1.21,5.3,5.3,0,0,1,.26,1.69v4.38a.66.66,0,0,1-.18.47.6.6,0,0,1-.46.19.58.58,0,0,1-.45-.19.63.63,0,0,1-.19-.47V227a3.43,3.43,0,0,0-.17-1.1,1.63,1.63,0,0,0-.59-.78,1.83,1.83,0,0,0-1.11-.3,2.43,2.43,0,0,0-1.2.3,2.4,2.4,0,0,0-.86.78,1.92,1.92,0,0,0-.32,1.1v4.38a.63.63,0,0,1-.19.47.58.58,0,0,1-.45.19.6.6,0,0,1-.46-.19.66.66,0,0,1-.18-.47V220.8a.65.65,0,0,1,.18-.46.63.63,0,0,1,.46-.18.62.62,0,0,1,.46.18.65.65,0,0,1,.18.46v4.78l-.32.36a2.32,2.32,0,0,1,.35-.84,2.92,2.92,0,0,1,.69-.76,3.07,3.07,0,0,1,.93-.54A3,3,0,0,1,98.53,223.6Z"/><path class="cls-2" d="M107.86,232.16a4.45,4.45,0,0,1-2.24-.54,3.77,3.77,0,0,1-1.49-1.5,4.48,4.48,0,0,1-.53-2.2,4.79,4.79,0,0,1,.55-2.38,4.05,4.05,0,0,1,1.43-1.5,3.6,3.6,0,0,1,1.88-.52,3.86,3.86,0,0,1,1.43.27,3.73,3.73,0,0,1,1.21.79,3.93,3.93,0,0,1,.86,1.25,4.27,4.27,0,0,1,.33,1.63.64.64,0,0,1-.2.43.63.63,0,0,1-.45.17h-6.32L104,227h6.16l-.26.22v-.35a2,2,0,0,0-.42-1.13,2.59,2.59,0,0,0-.92-.72,2.63,2.63,0,0,0-1.13-.26,2.9,2.9,0,0,0-1,.17,2.24,2.24,0,0,0-.84.54,2.64,2.64,0,0,0-.61,1,4.28,4.28,0,0,0-.22,1.42,3.45,3.45,0,0,0,.38,1.64,2.85,2.85,0,0,0,1,1.11,3,3,0,0,0,1.56.41,3,3,0,0,0,1-.15,2.37,2.37,0,0,0,.71-.36,2.75,2.75,0,0,0,.5-.44.78.78,0,0,1,.42-.14.53.53,0,0,1,.39.16.52.52,0,0,1,.15.38.61.61,0,0,1-.25.48,4.29,4.29,0,0,1-1.22.87A3.69,3.69,0,0,1,107.86,232.16Z"/><path class="cls-2" d="M114.13,222.53a.92.92,0,0,1-.59-.16.61.61,0,0,1-.2-.5v-.22a.59.59,0,0,1,.21-.5,1,1,0,0,1,.59-.16.93.93,0,0,1,.58.16.61.61,0,0,1,.19.5v.22a.61.61,0,0,1-.2.5A1,1,0,0,1,114.13,222.53Zm.64,8.81a.63.63,0,0,1-.19.47.58.58,0,0,1-.45.19.6.6,0,0,1-.47-.19.65.65,0,0,1-.17-.47v-7.1a.65.65,0,0,1,.18-.46.63.63,0,0,1,.46-.18.61.61,0,0,1,.45.18.62.62,0,0,1,.19.46Z"/><path class="cls-2" d="M118.11,232a.58.58,0,0,1-.45-.19.63.63,0,0,1-.19-.47v-7a.62.62,0,0,1,.19-.46.61.61,0,0,1,.45-.18.64.64,0,0,1,.47.18.69.69,0,0,1,.17.46v2.11l-.19-.34a3.44,3.44,0,0,1,.34-1,3.33,3.33,0,0,1,.64-.85,2.67,2.67,0,0,1,.88-.59,2.58,2.58,0,0,1,1.08-.22,1.31,1.31,0,0,1,.65.17.52.52,0,0,1,.3.47.65.65,0,0,1-.18.5.61.61,0,0,1-.4.16.93.93,0,0,1-.4-.09,1.14,1.14,0,0,0-.48-.09,1.55,1.55,0,0,0-.79.22,2.55,2.55,0,0,0-.72.61,3.29,3.29,0,0,0-.53.91,2.92,2.92,0,0,0-.2,1.08v3.88a.66.66,0,0,1-.18.47A.62.62,0,0,1,118.11,232Z"/><path class="cls-2" d="M128.62,230.69a.73.73,0,0,1-.13-.44.56.56,0,0,1,.28-.41.57.57,0,0,1,.37-.1.59.59,0,0,1,.39.21,3.59,3.59,0,0,0,1,.84,2.88,2.88,0,0,0,1.41.31,3.34,3.34,0,0,0,.76-.12,1.4,1.4,0,0,0,.65-.4,1,1,0,0,0,.27-.74.93.93,0,0,0-.27-.71,2.07,2.07,0,0,0-.71-.43,7.41,7.41,0,0,0-.94-.3c-.35-.1-.7-.21-1-.33a3.6,3.6,0,0,1-.92-.46,2.14,2.14,0,0,1-.66-.71,2,2,0,0,1-.25-1,2.07,2.07,0,0,1,.39-1.25,2.62,2.62,0,0,1,1.06-.81,3.64,3.64,0,0,1,1.45-.29,4.33,4.33,0,0,1,.93.1,3.5,3.5,0,0,1,1,.36,2.5,2.5,0,0,1,.81.68.6.6,0,0,1,.16.4.53.53,0,0,1-.2.43.62.62,0,0,1-.4.11.54.54,0,0,1-.36-.16,2.2,2.2,0,0,0-.84-.62,2.82,2.82,0,0,0-1.11-.21,2.67,2.67,0,0,0-.75.11,1.41,1.41,0,0,0-.62.38,1,1,0,0,0-.25.72,1.07,1.07,0,0,0,.29.71,2,2,0,0,0,.74.44l1,.33a10.31,10.31,0,0,1,1,.29,3.42,3.42,0,0,1,.85.44,2,2,0,0,1,.61.7,2.25,2.25,0,0,1,.22,1.06,2,2,0,0,1-.41,1.27,2.62,2.62,0,0,1-1.1.82,3.72,3.72,0,0,1-1.46.28,4.61,4.61,0,0,1-1.74-.34A3.49,3.49,0,0,1,128.62,230.69Z"/><path class="cls-2" d="M141,223.6a2.51,2.51,0,0,1,2.67,2.11h-.24l.12-.29a2.47,2.47,0,0,1,.65-.86,4.09,4.09,0,0,1,1.07-.69,3.12,3.12,0,0,1,1.27-.27,2.66,2.66,0,0,1,1.66.46,2.43,2.43,0,0,1,.87,1.21,5.11,5.11,0,0,1,.27,1.71v4.36a.63.63,0,0,1-.19.47.58.58,0,0,1-.45.19.61.61,0,0,1-.47-.19.7.7,0,0,1-.17-.47V227a3.12,3.12,0,0,0-.19-1.13,1.65,1.65,0,0,0-.59-.8,1.83,1.83,0,0,0-1.11-.3,2.43,2.43,0,0,0-1.2.3,2.29,2.29,0,0,0-.86.8,2,2,0,0,0-.32,1.13v4.33a.66.66,0,0,1-.18.47.59.59,0,0,1-.46.19.6.6,0,0,1-.46-.19.66.66,0,0,1-.18-.47V227a3.43,3.43,0,0,0-.17-1.1,1.59,1.59,0,0,0-.57-.78,1.8,1.8,0,0,0-1.1-.3,2.32,2.32,0,0,0-1.17.3,2.46,2.46,0,0,0-.85.78,2,2,0,0,0-.32,1.1v4.38a.66.66,0,0,1-.18.47.65.65,0,0,1-.92,0,.66.66,0,0,1-.18-.47v-7a.62.62,0,0,1,.64-.64.6.6,0,0,1,.46.18.65.65,0,0,1,.18.46v1.21L138,226a2,2,0,0,1,.33-.83,3.06,3.06,0,0,1,.68-.77,3.2,3.2,0,0,1,.92-.56A2.9,2.9,0,0,1,141,223.6Z"/><path class="cls-2" d="M158.86,223.65a.64.64,0,0,1,.47.18.69.69,0,0,1,.17.46v7.05a.66.66,0,0,1-.18.47.6.6,0,0,1-.46.19.58.58,0,0,1-.45-.19.63.63,0,0,1-.19-.47v-1.52l.31,0a1.56,1.56,0,0,1-.24.77,3,3,0,0,1-.66.78,3.65,3.65,0,0,1-1,.59,3.18,3.18,0,0,1-1.21.23,3.49,3.49,0,0,1-2-.57,3.93,3.93,0,0,1-1.37-1.54,4.85,4.85,0,0,1-.5-2.23,4.73,4.73,0,0,1,.51-2.23,3.93,3.93,0,0,1,1.36-1.52,3.46,3.46,0,0,1,1.93-.55,3.44,3.44,0,0,1,2.31.83,3,3,0,0,1,.68.85,2,2,0,0,1,.24.93l-.42-.1v-1.74a.62.62,0,0,1,.19-.46A.61.61,0,0,1,158.86,223.65ZM155.57,231a2.44,2.44,0,0,0,1.41-.42,2.82,2.82,0,0,0,1-1.13,3.83,3.83,0,0,0,0-3.2,2.79,2.79,0,0,0-1-1.12,2.51,2.51,0,0,0-1.41-.41,2.55,2.55,0,0,0-1.4.4,2.76,2.76,0,0,0-1,1.11,3.88,3.88,0,0,0,0,3.22,2.82,2.82,0,0,0,1,1.13A2.41,2.41,0,0,0,155.57,231Z"/><path class="cls-2" d="M162.91,232a.62.62,0,0,1-.46-.19.66.66,0,0,1-.18-.47v-7a.62.62,0,0,1,.64-.64.6.6,0,0,1,.46.18.65.65,0,0,1,.18.46v2.11l-.19-.34a3.44,3.44,0,0,1,.34-1,3.54,3.54,0,0,1,.63-.85,2.89,2.89,0,0,1,.88-.59,2.62,2.62,0,0,1,1.09-.22,1.31,1.31,0,0,1,.65.17.52.52,0,0,1,.3.47.65.65,0,0,1-.18.5.61.61,0,0,1-.4.16.93.93,0,0,1-.4-.09,1.14,1.14,0,0,0-.48-.09,1.55,1.55,0,0,0-.79.22,2.55,2.55,0,0,0-.72.61,3.29,3.29,0,0,0-.53.91,2.92,2.92,0,0,0-.2,1.08v3.88a.66.66,0,0,1-.18.47A.62.62,0,0,1,162.91,232Z"/><path class="cls-2" d="M168.77,223.78h3.76a.57.57,0,0,1,.42.17.61.61,0,0,1,.17.42.58.58,0,0,1-.59.59h-3.76a.58.58,0,0,1-.42-.18.57.57,0,0,1-.18-.43.55.55,0,0,1,.18-.41A.6.6,0,0,1,168.77,223.78Zm1.68-2.18a.57.57,0,0,1,.44.18.65.65,0,0,1,.18.46V230a1.2,1.2,0,0,0,.11.57.6.6,0,0,0,.3.27.92.92,0,0,0,.36.07.64.64,0,0,0,.28-.06.78.78,0,0,1,.28,0,.4.4,0,0,1,.29.15.55.55,0,0,1-.2.88,1.45,1.45,0,0,1-.75.2l-.55,0a1.6,1.6,0,0,1-.65-.21,1.37,1.37,0,0,1-.53-.58,2.45,2.45,0,0,1-.22-1.15v-7.79a.62.62,0,0,1,.19-.46A.66.66,0,0,1,170.45,221.6Z"/><path class="cls-2" d="M175.63,228.22a.65.65,0,0,1-.46-.18.64.64,0,0,1-.18-.47.61.61,0,0,1,.18-.45.65.65,0,0,1,.46-.18h3.23a.61.61,0,0,1,.46.2.63.63,0,0,1,.18.46.61.61,0,0,1-.18.45.63.63,0,0,1-.46.17Z"/><path class="cls-2" d="M186.05,223.6a3.62,3.62,0,0,1,1.95.54,4,4,0,0,1,1.37,1.51,5.11,5.11,0,0,1,0,4.41,4,4,0,0,1-1.36,1.52,3.59,3.59,0,0,1-1.93.55,3.08,3.08,0,0,1-1.11-.19,3.69,3.69,0,0,1-.95-.48,3,3,0,0,1-.71-.67,3,3,0,0,1-.42-.74l.36-.23v4.72a.66.66,0,0,1-.18.47.59.59,0,0,1-.46.19.62.62,0,0,1-.46-.18.66.66,0,0,1-.18-.48V224.32a.65.65,0,0,1,.18-.46.68.68,0,0,1,.92,0,.65.65,0,0,1,.18.46v1.42l-.24-.12a2.08,2.08,0,0,1,.39-.77,2.69,2.69,0,0,1,.69-.65,3.34,3.34,0,0,1,.91-.44A3.3,3.3,0,0,1,186.05,223.6Zm-.15,1.18a2.58,2.58,0,0,0-1.41.4,2.67,2.67,0,0,0-1,1.09,3.51,3.51,0,0,0-.35,1.59,3.56,3.56,0,0,0,.35,1.58,2.58,2.58,0,0,0,1,1.1,2.69,2.69,0,0,0,2.82,0,2.72,2.72,0,0,0,1-1.1,3.56,3.56,0,0,0,.35-1.58,3.51,3.51,0,0,0-.35-1.59,2.82,2.82,0,0,0-1-1.09A2.58,2.58,0,0,0,185.9,224.78Z"/><path class="cls-2" d="M196.11,223.6a2.71,2.71,0,0,1,1.67.46,2.45,2.45,0,0,1,.88,1.21,5,5,0,0,1,.27,1.69v4.38a.67.67,0,0,1-.19.47.58.58,0,0,1-.45.19.59.59,0,0,1-.46-.19.66.66,0,0,1-.18-.47V227a3.17,3.17,0,0,0-.18-1.1,1.68,1.68,0,0,0-.58-.78,1.88,1.88,0,0,0-1.12-.3,2.48,2.48,0,0,0-1.2.3,2.4,2.4,0,0,0-.86.78,2,2,0,0,0-.32,1.1v4.38a.66.66,0,0,1-.18.47.65.65,0,0,1-.92,0,.66.66,0,0,1-.18-.47V220.8a.62.62,0,0,1,.64-.64.6.6,0,0,1,.46.18.65.65,0,0,1,.18.46v4.78l-.32.36a2.32,2.32,0,0,1,.35-.84,2.92,2.92,0,0,1,.69-.76,3.33,3.33,0,0,1,.93-.54A3,3,0,0,1,196.11,223.6Z"/><path class="cls-2" d="M209.47,227.84a4.5,4.5,0,0,1-.54,2.22,4.11,4.11,0,0,1-7.2,0,4.76,4.76,0,0,1,0-4.44,4.16,4.16,0,0,1,1.49-1.54,4.27,4.27,0,0,1,4.23,0,4.13,4.13,0,0,1,1.48,1.54A4.5,4.5,0,0,1,209.47,227.84Zm-1.28,0a3.41,3.41,0,0,0-.38-1.63,2.88,2.88,0,0,0-1-1.11,2.86,2.86,0,0,0-2.92,0,2.83,2.83,0,0,0-1,1.11,3.66,3.66,0,0,0,0,3.25,2.83,2.83,0,0,0,1,1.11,2.8,2.8,0,0,0,2.92,0,2.88,2.88,0,0,0,1-1.11A3.4,3.4,0,0,0,208.19,227.84Z"/><path class="cls-2" d="M215.84,223.52a2.89,2.89,0,0,1,1.71.45,2.51,2.51,0,0,1,.89,1.2,5.2,5.2,0,0,1,.26,1.68v4.49a.66.66,0,0,1-.18.47.62.62,0,0,1-.46.19.58.58,0,0,1-.45-.19.63.63,0,0,1-.19-.47v-4.46a3.17,3.17,0,0,0-.18-1.1,1.74,1.74,0,0,0-.61-.78,2,2,0,0,0-1.16-.3,2.61,2.61,0,0,0-2.13,1.08,1.93,1.93,0,0,0-.34,1.1v4.46a.66.66,0,0,1-.18.47.58.58,0,0,1-.45.19.59.59,0,0,1-.46-.19.66.66,0,0,1-.18-.47v-7a.65.65,0,0,1,.18-.46.68.68,0,0,1,.92,0,.64.64,0,0,1,.17.46v1.13l-.31.36a2.18,2.18,0,0,1,.36-.84,3.59,3.59,0,0,1,1.68-1.3A3.17,3.17,0,0,1,215.84,223.52Z"/><path class="cls-2" d="M225.21,232.16a4.5,4.5,0,0,1-2.24-.54,3.81,3.81,0,0,1-1.48-1.5,4.37,4.37,0,0,1-.53-2.2,4.79,4.79,0,0,1,.55-2.38,4,4,0,0,1,1.43-1.5,3.59,3.59,0,0,1,1.87-.52,3.92,3.92,0,0,1,1.44.27,3.83,3.83,0,0,1,1.21.79,4.09,4.09,0,0,1,.86,1.25,4.27,4.27,0,0,1,.33,1.63.64.64,0,0,1-.2.43.63.63,0,0,1-.45.17h-6.32l-.29-1.1h6.16l-.26.22v-.35a2,2,0,0,0-.42-1.13A2.59,2.59,0,0,0,226,225a2.64,2.64,0,0,0-1.14-.26,2.89,2.89,0,0,0-.95.17,2.28,2.28,0,0,0-.85.54,2.76,2.76,0,0,0-.6,1,4,4,0,0,0-.22,1.42,3.34,3.34,0,0,0,.38,1.64,2.85,2.85,0,0,0,1,1.11,3,3,0,0,0,1.56.41,3,3,0,0,0,1-.15,2.49,2.49,0,0,0,.71-.36,3.14,3.14,0,0,0,.5-.44.78.78,0,0,1,.42-.14.55.55,0,0,1,.54.54.61.61,0,0,1-.25.48,4.2,4.2,0,0,1-1.23.87A3.63,3.63,0,0,1,225.21,232.16Z"/><path class="cls-2" d="M230.43,230.69a.67.67,0,0,1-.13-.44.54.54,0,0,1,.27-.41.62.62,0,0,1,.38-.1.63.63,0,0,1,.39.21,3.59,3.59,0,0,0,1,.84,2.87,2.87,0,0,0,1.4.31,3.34,3.34,0,0,0,.77-.12,1.46,1.46,0,0,0,.65-.4,1,1,0,0,0,.26-.74.93.93,0,0,0-.27-.71,1.94,1.94,0,0,0-.7-.43,7.58,7.58,0,0,0-.95-.3c-.35-.1-.7-.21-1-.33a4,4,0,0,1-.92-.46,2.11,2.11,0,0,1-.65-.71,1.94,1.94,0,0,1-.25-1,2.07,2.07,0,0,1,.39-1.25,2.49,2.49,0,0,1,1.06-.81,3.61,3.61,0,0,1,1.45-.29,4.4,4.4,0,0,1,.93.1,3.44,3.44,0,0,1,.95.36,2.64,2.64,0,0,1,.82.68.6.6,0,0,1,.16.4.51.51,0,0,1-.21.43.61.61,0,0,1-.39.11.54.54,0,0,1-.36-.16,2.27,2.27,0,0,0-.84-.62,2.89,2.89,0,0,0-1.11-.21,2.67,2.67,0,0,0-.75.11,1.36,1.36,0,0,0-.62.38,1,1,0,0,0-.25.72,1,1,0,0,0,.29.71,2,2,0,0,0,.73.44c.31.11.66.22,1,.33a9.34,9.34,0,0,1,1,.29,3.49,3.49,0,0,1,.86.44,2.06,2.06,0,0,1,.61.7,2.25,2.25,0,0,1,.22,1.06,2,2,0,0,1-.41,1.27,2.68,2.68,0,0,1-1.1.82,3.72,3.72,0,0,1-1.46.28,4.61,4.61,0,0,1-1.74-.34A3.49,3.49,0,0,1,230.43,230.69Z"/><path class="cls-2" d="M250.41,223.65a.64.64,0,0,1,.47.18.69.69,0,0,1,.17.46v7.05a.66.66,0,0,1-.18.47.6.6,0,0,1-.46.19.58.58,0,0,1-.45-.19.63.63,0,0,1-.19-.47v-1.52l.31,0a1.56,1.56,0,0,1-.24.77,3,3,0,0,1-.66.78,3.75,3.75,0,0,1-1,.59,3.27,3.27,0,0,1-1.22.23,3.49,3.49,0,0,1-2-.57,3.93,3.93,0,0,1-1.37-1.54,4.85,4.85,0,0,1-.49-2.23,4.73,4.73,0,0,1,.5-2.23,3.93,3.93,0,0,1,1.36-1.52,3.46,3.46,0,0,1,1.93-.55,3.59,3.59,0,0,1,1.28.22,3.51,3.51,0,0,1,1,.61,3,3,0,0,1,.68.85,2,2,0,0,1,.24.93l-.42-.1v-1.74a.62.62,0,0,1,.19-.46A.61.61,0,0,1,250.41,223.65ZM247.12,231a2.44,2.44,0,0,0,1.41-.42,2.82,2.82,0,0,0,1-1.13,3.83,3.83,0,0,0,0-3.2,2.79,2.79,0,0,0-1-1.12,2.51,2.51,0,0,0-1.41-.41,2.55,2.55,0,0,0-1.4.4,2.76,2.76,0,0,0-1,1.11,3.88,3.88,0,0,0,0,3.22,2.82,2.82,0,0,0,1,1.13A2.41,2.41,0,0,0,247.12,231Z"/><path class="cls-2" d="M257.93,223.52a2.85,2.85,0,0,1,1.71.45,2.39,2.39,0,0,1,.89,1.2,4.93,4.93,0,0,1,.27,1.68v4.49a.63.63,0,0,1-.19.47.58.58,0,0,1-.45.19.6.6,0,0,1-.46-.19.66.66,0,0,1-.18-.47v-4.46a3,3,0,0,0-.19-1.1,1.61,1.61,0,0,0-.61-.78,1.94,1.94,0,0,0-1.15-.3,2.61,2.61,0,0,0-1.24.3,2.5,2.5,0,0,0-.89.78,1.86,1.86,0,0,0-.34,1.1v4.46a.66.66,0,0,1-.18.47.65.65,0,0,1-.92,0,.66.66,0,0,1-.18-.47v-7a.62.62,0,0,1,.64-.64.6.6,0,0,1,.46.18.65.65,0,0,1,.18.46v1.13l-.32.36a2.21,2.21,0,0,1,.37-.84,3,3,0,0,1,.72-.76,3.49,3.49,0,0,1,1-.54A3.15,3.15,0,0,1,257.93,223.52Z"/><path class="cls-2" d="M270.3,220.16a.6.6,0,0,1,.46.18.65.65,0,0,1,.18.46v10.54a.66.66,0,0,1-.18.47.65.65,0,0,1-.92,0,.66.66,0,0,1-.18-.47v-1.52l.3-.11a1.61,1.61,0,0,1-.23.81,2.79,2.79,0,0,1-.65.79,3.66,3.66,0,0,1-1,.61,3,3,0,0,1-1.21.24,3.56,3.56,0,0,1-2-.56,3.85,3.85,0,0,1-1.36-1.54,4.72,4.72,0,0,1-.51-2.22,4.77,4.77,0,0,1,.51-2.24,3.89,3.89,0,0,1,1.36-1.53,3.66,3.66,0,0,1,3.18-.33,3.65,3.65,0,0,1,1,.61,3.08,3.08,0,0,1,.7.85,2,2,0,0,1,.25.93l-.42-.1V220.8a.62.62,0,0,1,.64-.64ZM267,231a2.53,2.53,0,0,0,1.43-.41,2.93,2.93,0,0,0,1-1.12,3.9,3.9,0,0,0,0-3.23,2.91,2.91,0,0,0-1-1.11,2.52,2.52,0,0,0-1.42-.41,2.47,2.47,0,0,0-1.39.41,2.75,2.75,0,0,0-1,1.11,3.51,3.51,0,0,0-.35,1.62,3.44,3.44,0,0,0,.35,1.59,2.74,2.74,0,0,0,1,1.13A2.4,2.4,0,0,0,267,231Z"/></g><g class="cls-1"><path class="cls-2" d="M40.18,240.16a.63.63,0,0,1,.47.18.64.64,0,0,1,.17.46v10.54a.66.66,0,0,1-.18.47.59.59,0,0,1-.46.19.58.58,0,0,1-.45-.19.67.67,0,0,1-.19-.47v-1.52l.31-.11a1.72,1.72,0,0,1-.23.81,3,3,0,0,1-.66.79,3.6,3.6,0,0,1-1,.61,3.09,3.09,0,0,1-1.22.24,3.51,3.51,0,0,1-1.95-.56,3.87,3.87,0,0,1-1.37-1.54,4.71,4.71,0,0,1-.5-2.22,4.77,4.77,0,0,1,.5-2.24,4,4,0,0,1,1.36-1.53,3.66,3.66,0,0,1,3.18-.33,3.7,3.7,0,0,1,1,.61,3,3,0,0,1,.69.85,1.91,1.91,0,0,1,.25.93l-.42-.1V240.8a.66.66,0,0,1,.19-.46A.61.61,0,0,1,40.18,240.16ZM36.89,251a2.5,2.5,0,0,0,1.42-.41,2.77,2.77,0,0,0,1-1.12,3.9,3.9,0,0,0,0-3.23,2.83,2.83,0,0,0-1-1.11,2.61,2.61,0,0,0-2.81,0,2.83,2.83,0,0,0-1,1.11,3.64,3.64,0,0,0-.35,1.62,3.57,3.57,0,0,0,.35,1.59,2.82,2.82,0,0,0,1,1.13A2.43,2.43,0,0,0,36.89,251Z"/><path class="cls-2" d="M51.37,247.84a4.4,4.4,0,0,1-.55,2.22,3.92,3.92,0,0,1-1.48,1.54,4.11,4.11,0,0,1-5.71-1.54,4.76,4.76,0,0,1,0-4.44,4.16,4.16,0,0,1,1.49-1.54,4.26,4.26,0,0,1,4.22,0,4,4,0,0,1,1.48,1.54A4.4,4.4,0,0,1,51.37,247.84Zm-1.28,0a3.41,3.41,0,0,0-.38-1.63,2.88,2.88,0,0,0-1-1.11,2.86,2.86,0,0,0-2.92,0,2.83,2.83,0,0,0-1,1.11,3.66,3.66,0,0,0,0,3.25,2.83,2.83,0,0,0,1,1.11,2.8,2.8,0,0,0,2.92,0,2.88,2.88,0,0,0,1-1.11A3.4,3.4,0,0,0,50.09,247.84Z"/><path class="cls-2" d="M63.38,243.58a.6.6,0,0,1,.44.18.59.59,0,0,1,.19.46c0,.05,0,.09,0,.14a.74.74,0,0,1,0,.14l-2.46,7.08a.66.66,0,0,1-.27.32.6.6,0,0,1-.39.1.63.63,0,0,1-.56-.42l-2-5.05.32.05-1.82,5a.61.61,0,0,1-.56.42.65.65,0,0,1-.4-.1.55.55,0,0,1-.26-.32L53,244.5a1,1,0,0,1-.05-.28.6.6,0,0,1,.18-.44.63.63,0,0,1,.48-.2.71.71,0,0,1,.35.1.54.54,0,0,1,.23.3l2.16,6.31-.34,0,1.87-4.8a.6.6,0,0,1,.59-.4.57.57,0,0,1,.36.11.56.56,0,0,1,.2.29l2,4.8-.4,0L62.78,244A.58.58,0,0,1,63.38,243.58Z"/><path class="cls-2" d="M70.25,243.52A2.89,2.89,0,0,1,72,244a2.44,2.44,0,0,1,.89,1.2,5.2,5.2,0,0,1,.26,1.68v4.49a.66.66,0,0,1-.18.47.62.62,0,0,1-.46.19.58.58,0,0,1-.45-.19.63.63,0,0,1-.19-.47v-4.46a3.17,3.17,0,0,0-.18-1.1A1.74,1.74,0,0,0,71,245a2,2,0,0,0-1.16-.3,2.61,2.61,0,0,0-2.13,1.08,1.92,1.92,0,0,0-.33,1.1v4.46a.67.67,0,0,1-.19.47.58.58,0,0,1-.45.19.59.59,0,0,1-.46-.19.66.66,0,0,1-.18-.47v-7a.65.65,0,0,1,.18-.46.68.68,0,0,1,.92,0,.65.65,0,0,1,.18.46v1.13l-.32.36a2.18,2.18,0,0,1,.36-.84,3.59,3.59,0,0,1,1.68-1.3A3.21,3.21,0,0,1,70.25,243.52Z"/><path class="cls-2" d="M77.29,251.34a.67.67,0,0,1-.19.47.64.64,0,0,1-.47.19.58.58,0,0,1-.45-.19.7.7,0,0,1-.17-.47V240.8a.65.65,0,0,1,.18-.46.63.63,0,0,1,.46-.18.62.62,0,0,1,.46.18.65.65,0,0,1,.18.46Z"/><path class="cls-2" d="M87.78,247.84a4.5,4.5,0,0,1-.54,2.22,4,4,0,0,1-1.48,1.54,4.07,4.07,0,0,1-2.12.56,4,4,0,0,1-3.59-2.1,4.76,4.76,0,0,1,0-4.44,4.08,4.08,0,0,1,1.49-1.54,4,4,0,0,1,2.1-.56,4,4,0,0,1,3.6,2.1A4.5,4.5,0,0,1,87.78,247.84Zm-1.28,0a3.41,3.41,0,0,0-.37-1.63,2.83,2.83,0,0,0-1-1.11,2.78,2.78,0,0,0-1.46-.4,2.83,2.83,0,0,0-1.46.4,2.9,2.9,0,0,0-1,1.11,3.75,3.75,0,0,0,0,3.25,2.9,2.9,0,0,0,1,1.11,2.75,2.75,0,0,0,1.46.41,2.7,2.7,0,0,0,1.46-.41,2.83,2.83,0,0,0,1-1.11A3.4,3.4,0,0,0,86.5,247.84Z"/><path class="cls-2" d="M96.78,243.65a.62.62,0,0,1,.46.18.65.65,0,0,1,.18.46v7.05a.67.67,0,0,1-.19.47.58.58,0,0,1-.45.19.59.59,0,0,1-.46-.19.67.67,0,0,1-.19-.47v-1.52l.31,0a1.56,1.56,0,0,1-.24.77,3,3,0,0,1-.66.78,3.59,3.59,0,0,1-1,.59,3.27,3.27,0,0,1-1.22.23,3.51,3.51,0,0,1-2-.57A3.93,3.93,0,0,1,90,250.05a5.27,5.27,0,0,1,0-4.46,4,4,0,0,1,1.36-1.52,3.46,3.46,0,0,1,1.93-.55,3.59,3.59,0,0,1,1.28.22,3.51,3.51,0,0,1,1,.61,3,3,0,0,1,.68.85,2,2,0,0,1,.24.93l-.42-.1v-1.74a.66.66,0,0,1,.19-.46A.62.62,0,0,1,96.78,243.65ZM93.48,251a2.49,2.49,0,0,0,1.42-.42,2.8,2.8,0,0,0,1-1.13,3.83,3.83,0,0,0,0-3.2,2.77,2.77,0,0,0-1-1.12,2.66,2.66,0,0,0-2.82,0,2.84,2.84,0,0,0-1,1.11,3.88,3.88,0,0,0,0,3.22,2.9,2.9,0,0,0,1,1.13A2.43,2.43,0,0,0,93.48,251Z"/><path class="cls-2" d="M106.92,240.16a.6.6,0,0,1,.46.18.65.65,0,0,1,.18.46v10.54a.66.66,0,0,1-.18.47.65.65,0,0,1-.92,0,.66.66,0,0,1-.18-.47v-1.52l.3-.11a1.61,1.61,0,0,1-.23.81,2.79,2.79,0,0,1-.65.79,3.82,3.82,0,0,1-1,.61,3,3,0,0,1-1.21.24,3.56,3.56,0,0,1-2-.56,4,4,0,0,1-1.37-1.54,4.84,4.84,0,0,1-.5-2.22,4.89,4.89,0,0,1,.5-2.24,3.91,3.91,0,0,1,1.37-1.53,3.66,3.66,0,0,1,3.18-.33,3.65,3.65,0,0,1,1,.61,3.08,3.08,0,0,1,.7.85,2,2,0,0,1,.25.93l-.42-.1V240.8a.62.62,0,0,1,.64-.64ZM103.62,251a2.53,2.53,0,0,0,1.43-.41,2.93,2.93,0,0,0,1-1.12,3.9,3.9,0,0,0,0-3.23,2.91,2.91,0,0,0-1-1.11,2.63,2.63,0,0,0-2.82,0,2.91,2.91,0,0,0-1,1.11,3.64,3.64,0,0,0-.35,1.62,3.57,3.57,0,0,0,.35,1.59,2.9,2.9,0,0,0,1,1.13A2.43,2.43,0,0,0,103.62,251Z"/><path class="cls-2" d="M109.86,250.69a.66.66,0,0,1-.12-.44.54.54,0,0,1,.27-.41.57.57,0,0,1,.37-.1.63.63,0,0,1,.4.21,3.55,3.55,0,0,0,1,.84,2.88,2.88,0,0,0,1.41.31A3.52,3.52,0,0,0,114,251a1.42,1.42,0,0,0,.64-.4,1,1,0,0,0,.27-.74.93.93,0,0,0-.27-.71,2.07,2.07,0,0,0-.71-.43,7.41,7.41,0,0,0-.94-.3c-.35-.1-.7-.21-1-.33a3.77,3.77,0,0,1-.92-.46,2.24,2.24,0,0,1-.66-.71,2,2,0,0,1-.25-1,2,2,0,0,1,.4-1.25,2.52,2.52,0,0,1,1-.81,3.64,3.64,0,0,1,1.45-.29,4.49,4.49,0,0,1,.94.1,3.56,3.56,0,0,1,1,.36,2.5,2.5,0,0,1,.81.68.6.6,0,0,1,.16.4.53.53,0,0,1-.2.43.62.62,0,0,1-.4.11.54.54,0,0,1-.36-.16,2.2,2.2,0,0,0-.84-.62,2.82,2.82,0,0,0-1.11-.21,2.72,2.72,0,0,0-.75.11,1.41,1.41,0,0,0-.62.38,1,1,0,0,0-.25.72,1.07,1.07,0,0,0,.29.71,2,2,0,0,0,.74.44l1,.33a10.31,10.31,0,0,1,1,.29,3.42,3.42,0,0,1,.85.44,2,2,0,0,1,.61.7,2.25,2.25,0,0,1,.23,1.06,2,2,0,0,1-.42,1.27,2.62,2.62,0,0,1-1.1.82,3.72,3.72,0,0,1-1.46.28,4.61,4.61,0,0,1-1.74-.34A3.49,3.49,0,0,1,109.86,250.69Z"/><path class="cls-2" d="M122.79,243.78h3.76a.57.57,0,0,1,.42.17.57.57,0,0,1,.17.42.54.54,0,0,1-.17.42.57.57,0,0,1-.42.17h-3.76a.54.54,0,0,1-.41-.18.57.57,0,0,1-.18-.43.58.58,0,0,1,.59-.57Zm1.68-2.18a.61.61,0,0,1,.45.18.64.64,0,0,1,.17.46V250a1.08,1.08,0,0,0,.12.57.58.58,0,0,0,.29.27,1,1,0,0,0,.36.07.61.61,0,0,0,.28-.06.82.82,0,0,1,.28,0,.4.4,0,0,1,.3.15.56.56,0,0,1,.14.39.59.59,0,0,1-.34.49,1.5,1.5,0,0,1-.75.2l-.56,0a1.61,1.61,0,0,1-.64-.21,1.33,1.33,0,0,1-.54-.58,2.6,2.6,0,0,1-.21-1.15v-7.79a.62.62,0,0,1,.19-.46A.63.63,0,0,1,124.47,241.6Z"/><path class="cls-2" d="M133.32,243.6a2.71,2.71,0,0,1,1.67.46,2.45,2.45,0,0,1,.88,1.21,5,5,0,0,1,.26,1.69v4.38a.66.66,0,0,1-.18.47.58.58,0,0,1-.45.19.59.59,0,0,1-.46-.19.66.66,0,0,1-.18-.47V247a3.17,3.17,0,0,0-.18-1.1,1.63,1.63,0,0,0-.59-.78,1.83,1.83,0,0,0-1.11-.3,2.48,2.48,0,0,0-1.2.3,2.4,2.4,0,0,0-.86.78,2,2,0,0,0-.32,1.1v4.38a.66.66,0,0,1-.18.47.65.65,0,0,1-.92,0,.66.66,0,0,1-.18-.47V240.8a.62.62,0,0,1,.64-.64.6.6,0,0,1,.46.18.65.65,0,0,1,.18.46v4.78l-.32.36a2.32,2.32,0,0,1,.35-.84,2.92,2.92,0,0,1,.69-.76,3.33,3.33,0,0,1,.93-.54A3,3,0,0,1,133.32,243.6Z"/><path class="cls-2" d="M142.65,252.16a4.48,4.48,0,0,1-2.24-.54,3.84,3.84,0,0,1-1.49-1.5,4.48,4.48,0,0,1-.53-2.2,4.79,4.79,0,0,1,.55-2.38,4.05,4.05,0,0,1,1.43-1.5,3.6,3.6,0,0,1,1.88-.52,3.86,3.86,0,0,1,1.43.27,3.73,3.73,0,0,1,1.21.79,3.93,3.93,0,0,1,.86,1.25,4.27,4.27,0,0,1,.34,1.63.61.61,0,0,1-.21.43.63.63,0,0,1-.45.17h-6.32l-.29-1.1H145l-.25.22v-.35a2.08,2.08,0,0,0-.43-1.13,2.5,2.5,0,0,0-.92-.72,2.63,2.63,0,0,0-1.13-.26,2.94,2.94,0,0,0-1,.17,2.24,2.24,0,0,0-.84.54,2.76,2.76,0,0,0-.6,1,4,4,0,0,0-.23,1.42,3.45,3.45,0,0,0,.38,1.64,2.81,2.81,0,0,0,1.05,1.11,2.91,2.91,0,0,0,1.55.41,3,3,0,0,0,1-.15,2.25,2.25,0,0,0,.71-.36,3.24,3.24,0,0,0,.51-.44.75.75,0,0,1,.41-.14.55.55,0,0,1,.55.54.62.62,0,0,1-.26.48,4.29,4.29,0,0,1-1.22.87A3.69,3.69,0,0,1,142.65,252.16Z"/><path class="cls-2" d="M159.86,243.68a.64.64,0,0,1,.47.18.69.69,0,0,1,.17.46v10.22a.66.66,0,0,1-.18.47.6.6,0,0,1-.46.19.58.58,0,0,1-.45-.19.63.63,0,0,1-.19-.47v-4.72l.31-.11a1.63,1.63,0,0,1-.24.81,2.79,2.79,0,0,1-.65.79,3.51,3.51,0,0,1-1,.61,3,3,0,0,1-1.21.24,3.51,3.51,0,0,1-1.95-.56,3.87,3.87,0,0,1-1.37-1.54,4.72,4.72,0,0,1-.51-2.22,4.77,4.77,0,0,1,.51-2.24,4,4,0,0,1,1.36-1.53,3.66,3.66,0,0,1,3.18-.33,3.51,3.51,0,0,1,1,.61,2.91,2.91,0,0,1,.7.85,1.91,1.91,0,0,1,.25.93l-.42-.1v-1.71a.62.62,0,0,1,.19-.46A.61.61,0,0,1,159.86,243.68Zm-3.29,7.3a2.52,2.52,0,0,0,1.42-.41,2.77,2.77,0,0,0,1-1.12,3.9,3.9,0,0,0,0-3.23,2.83,2.83,0,0,0-1-1.11,2.51,2.51,0,0,0-1.41-.41,2.48,2.48,0,0,0-1.4.41,2.83,2.83,0,0,0-1,1.11,3.51,3.51,0,0,0-.35,1.62,3.44,3.44,0,0,0,.35,1.59,2.82,2.82,0,0,0,1,1.13A2.41,2.41,0,0,0,156.57,251Z"/><path class="cls-2" d="M169.46,243.73a.64.64,0,0,1,.47.18.69.69,0,0,1,.17.46v4.37a3.36,3.36,0,0,1-.9,2.5,4,4,0,0,1-5,0,3.36,3.36,0,0,1-.9-2.5v-4.37a.62.62,0,0,1,.64-.64.6.6,0,0,1,.46.18.65.65,0,0,1,.18.46v4.37a2.23,2.23,0,0,0,.56,1.64,2.51,2.51,0,0,0,3.16,0,2.23,2.23,0,0,0,.55-1.64v-4.37a.62.62,0,0,1,.19-.46A.61.61,0,0,1,169.46,243.73Z"/><path class="cls-2" d="M176.61,252.16a4.5,4.5,0,0,1-2.24-.54,3.81,3.81,0,0,1-1.48-1.5,4.37,4.37,0,0,1-.53-2.2,4.79,4.79,0,0,1,.55-2.38,4.05,4.05,0,0,1,1.43-1.5,3.59,3.59,0,0,1,1.87-.52,3.88,3.88,0,0,1,1.44.27,3.83,3.83,0,0,1,1.21.79,4.09,4.09,0,0,1,.86,1.25,4.27,4.27,0,0,1,.33,1.63.64.64,0,0,1-.2.43.63.63,0,0,1-.45.17h-6.32l-.29-1.1H179l-.26.22v-.35a2,2,0,0,0-.42-1.13,2.59,2.59,0,0,0-.92-.72,2.64,2.64,0,0,0-1.14-.26,2.89,2.89,0,0,0-1,.17,2.36,2.36,0,0,0-.85.54,2.76,2.76,0,0,0-.6,1,4.28,4.28,0,0,0-.22,1.42,3.45,3.45,0,0,0,.38,1.64,2.85,2.85,0,0,0,1,1.11,3,3,0,0,0,1.56.41,3,3,0,0,0,1-.15,2.37,2.37,0,0,0,.71-.36,2.75,2.75,0,0,0,.5-.44.78.78,0,0,1,.42-.14.55.55,0,0,1,.54.54.61.61,0,0,1-.25.48,4.2,4.2,0,0,1-1.23.87A3.63,3.63,0,0,1,176.61,252.16Z"/><path class="cls-2" d="M181.83,250.69a.67.67,0,0,1-.13-.44.54.54,0,0,1,.27-.41.62.62,0,0,1,.38-.1.63.63,0,0,1,.39.21,3.59,3.59,0,0,0,1,.84,2.87,2.87,0,0,0,1.4.31,3.34,3.34,0,0,0,.77-.12,1.46,1.46,0,0,0,.65-.4,1,1,0,0,0,.26-.74.93.93,0,0,0-.27-.71,1.94,1.94,0,0,0-.7-.43,7.09,7.09,0,0,0-.95-.3c-.35-.1-.69-.21-1-.33a4,4,0,0,1-.92-.46,2.11,2.11,0,0,1-.65-.71,1.94,1.94,0,0,1-.25-1,2.07,2.07,0,0,1,.39-1.25,2.55,2.55,0,0,1,1.06-.81,3.61,3.61,0,0,1,1.45-.29,4.4,4.4,0,0,1,.93.1,3.44,3.44,0,0,1,.95.36,2.53,2.53,0,0,1,.82.68.6.6,0,0,1,.16.4.51.51,0,0,1-.21.43.61.61,0,0,1-.39.11.54.54,0,0,1-.36-.16,2.2,2.2,0,0,0-.84-.62,2.89,2.89,0,0,0-1.11-.21,2.67,2.67,0,0,0-.75.11,1.41,1.41,0,0,0-.62.38,1,1,0,0,0-.25.72,1,1,0,0,0,.29.71,2,2,0,0,0,.74.44l1,.33a9.34,9.34,0,0,1,1,.29,3.49,3.49,0,0,1,.86.44,2,2,0,0,1,.61.7,2.25,2.25,0,0,1,.22,1.06,2,2,0,0,1-.41,1.27,2.68,2.68,0,0,1-1.1.82,3.72,3.72,0,0,1-1.46.28,4.61,4.61,0,0,1-1.74-.34A3.49,3.49,0,0,1,181.83,250.69Z"/><path class="cls-2" d="M190,243.78h3.76a.57.57,0,0,1,.42.17.61.61,0,0,1,.17.42.58.58,0,0,1-.59.59H190a.58.58,0,0,1-.42-.18.56.56,0,0,1-.17-.43.54.54,0,0,1,.17-.41A.6.6,0,0,1,190,243.78Zm1.68-2.18a.61.61,0,0,1,.45.18.69.69,0,0,1,.17.46V250a1.2,1.2,0,0,0,.11.57.64.64,0,0,0,.3.27.92.92,0,0,0,.36.07.61.61,0,0,0,.28-.06.78.78,0,0,1,.28,0,.4.4,0,0,1,.3.15.56.56,0,0,1,.13.39.58.58,0,0,1-.33.49,1.51,1.51,0,0,1-.76.2l-.55,0a1.65,1.65,0,0,1-.65-.21,1.37,1.37,0,0,1-.53-.58A2.45,2.45,0,0,1,191,250v-7.79a.66.66,0,0,1,.19-.46A.67.67,0,0,1,191.64,241.6Z"/><path class="cls-2" d="M197.08,242.53a.92.92,0,0,1-.59-.16.61.61,0,0,1-.2-.5v-.22a.59.59,0,0,1,.21-.5,1,1,0,0,1,.59-.16.93.93,0,0,1,.58.16.61.61,0,0,1,.19.5v.22a.61.61,0,0,1-.2.5A1,1,0,0,1,197.08,242.53Zm.64,8.81a.63.63,0,0,1-.19.47.58.58,0,0,1-.45.19.61.61,0,0,1-.47-.19.7.7,0,0,1-.17-.47v-7.1a.65.65,0,0,1,.18-.46.63.63,0,0,1,.46-.18.61.61,0,0,1,.45.18.62.62,0,0,1,.19.46Z"/><path class="cls-2" d="M208.2,247.84a4.4,4.4,0,0,1-.55,2.22,3.92,3.92,0,0,1-1.48,1.54,4.11,4.11,0,0,1-5.71-1.54,4.76,4.76,0,0,1,0-4.44,4.16,4.16,0,0,1,1.49-1.54,4.26,4.26,0,0,1,4.22,0,4,4,0,0,1,1.48,1.54A4.4,4.4,0,0,1,208.2,247.84Zm-1.28,0a3.41,3.41,0,0,0-.38-1.63,2.88,2.88,0,0,0-1-1.11,2.86,2.86,0,0,0-2.92,0,2.83,2.83,0,0,0-1,1.11,3.66,3.66,0,0,0,0,3.25,2.83,2.83,0,0,0,1,1.11,2.8,2.8,0,0,0,2.92,0,2.88,2.88,0,0,0,1-1.11A3.4,3.4,0,0,0,206.92,247.84Z"/><path class="cls-2" d="M214.57,243.52a2.89,2.89,0,0,1,1.71.45,2.51,2.51,0,0,1,.89,1.2,5.2,5.2,0,0,1,.26,1.68v4.49a.66.66,0,0,1-.18.47.65.65,0,0,1-.92,0,.66.66,0,0,1-.18-.47v-4.46a3.17,3.17,0,0,0-.18-1.1,1.74,1.74,0,0,0-.61-.78,2,2,0,0,0-1.16-.3,2.54,2.54,0,0,0-1.23.3,2.45,2.45,0,0,0-.9.78,1.93,1.93,0,0,0-.34,1.1v4.46a.66.66,0,0,1-.18.47.59.59,0,0,1-.46.19.58.58,0,0,1-.45-.19.63.63,0,0,1-.19-.47v-7a.62.62,0,0,1,.19-.46.61.61,0,0,1,.45-.18.63.63,0,0,1,.47.18.69.69,0,0,1,.17.46v1.13l-.32.36a2.38,2.38,0,0,1,.37-.84,3,3,0,0,1,.72-.76,3.49,3.49,0,0,1,1-.54A3.17,3.17,0,0,1,214.57,243.52Z"/><path class="cls-2" d="M229.08,243.6a3.62,3.62,0,0,1,1.95.54,3.92,3.92,0,0,1,1.37,1.51,5.11,5.11,0,0,1,0,4.41,4,4,0,0,1-1.36,1.52,3.56,3.56,0,0,1-1.93.55,3.08,3.08,0,0,1-1.11-.19,3.85,3.85,0,0,1-.95-.48,3,3,0,0,1-.71-.67,2.62,2.62,0,0,1-.41-.74l.35-.23v4.72a.66.66,0,0,1-.18.47.59.59,0,0,1-.46.19.63.63,0,0,1-.46-.18.66.66,0,0,1-.18-.48V244.32a.65.65,0,0,1,.18-.46.63.63,0,0,1,.46-.18.62.62,0,0,1,.46.18.65.65,0,0,1,.18.46v1.42l-.24-.12a2.08,2.08,0,0,1,.39-.77,3.06,3.06,0,0,1,.69-.65,3.48,3.48,0,0,1,2-.6Zm-.15,1.18a2.58,2.58,0,0,0-1.41.4,2.75,2.75,0,0,0-1,1.09,3.51,3.51,0,0,0-.35,1.59,3.56,3.56,0,0,0,.35,1.58,2.65,2.65,0,0,0,1,1.1,2.5,2.5,0,0,0,1.41.4,2.46,2.46,0,0,0,1.41-.4,2.65,2.65,0,0,0,1-1.1,3.43,3.43,0,0,0,.35-1.58,3.39,3.39,0,0,0-.35-1.59,2.75,2.75,0,0,0-1-1.09A2.53,2.53,0,0,0,228.93,244.78Z"/><path class="cls-2" d="M241.88,243.65a.62.62,0,0,1,.46.18.65.65,0,0,1,.18.46v7.05a.63.63,0,0,1-.19.47.58.58,0,0,1-.45.19.6.6,0,0,1-.46-.19.66.66,0,0,1-.18-.47v-1.52l.3,0a1.56,1.56,0,0,1-.24.77,3.14,3.14,0,0,1-.65.78,3.81,3.81,0,0,1-1,.59,3.23,3.23,0,0,1-1.22.23,3.54,3.54,0,0,1-2-.57,3.91,3.91,0,0,1-1.36-1.54,4.73,4.73,0,0,1-.5-2.23,4.85,4.85,0,0,1,.5-2.23,4,4,0,0,1,1.36-1.52,3.48,3.48,0,0,1,1.93-.55,3.55,3.55,0,0,1,1.28.22,3.39,3.39,0,0,1,1,.61,2.83,2.83,0,0,1,.68.85,2,2,0,0,1,.24.93l-.41-.1v-1.74a.65.65,0,0,1,.18-.46A.63.63,0,0,1,241.88,243.65Zm-3.3,7.33a2.45,2.45,0,0,0,1.42-.42,2.9,2.9,0,0,0,1-1.13,3.83,3.83,0,0,0,0-3.2,2.87,2.87,0,0,0-1-1.12,2.52,2.52,0,0,0-1.42-.41,2.57,2.57,0,0,0-1.4.4,2.84,2.84,0,0,0-1,1.11,3.88,3.88,0,0,0,0,3.22,2.9,2.9,0,0,0,1,1.13A2.43,2.43,0,0,0,238.58,251Z"/><path class="cls-2" d="M249.37,243.6a3.62,3.62,0,0,1,1.95.54,4,4,0,0,1,1.37,1.51,5.11,5.11,0,0,1,0,4.41,4,4,0,0,1-1.36,1.52,3.59,3.59,0,0,1-1.93.55,3.08,3.08,0,0,1-1.11-.19,3.69,3.69,0,0,1-.95-.48,3,3,0,0,1-.71-.67,3,3,0,0,1-.42-.74l.36-.23v4.72a.66.66,0,0,1-.18.47.59.59,0,0,1-.46.19.62.62,0,0,1-.46-.18.66.66,0,0,1-.18-.48V244.32a.65.65,0,0,1,.18-.46.68.68,0,0,1,.92,0,.65.65,0,0,1,.18.46v1.42l-.24-.12a2.08,2.08,0,0,1,.39-.77,2.69,2.69,0,0,1,.69-.65,3.34,3.34,0,0,1,.91-.44A3.3,3.3,0,0,1,249.37,243.6Zm-.15,1.18a2.58,2.58,0,0,0-1.41.4,2.75,2.75,0,0,0-1,1.09,3.51,3.51,0,0,0-.35,1.59,3.56,3.56,0,0,0,.35,1.58,2.65,2.65,0,0,0,1,1.1,2.69,2.69,0,0,0,2.82,0,2.65,2.65,0,0,0,1-1.1,3.56,3.56,0,0,0,.35-1.58,3.51,3.51,0,0,0-.35-1.59,2.75,2.75,0,0,0-1-1.09A2.58,2.58,0,0,0,249.22,244.78Z"/><path class="cls-2" d="M259.17,252.16a4.5,4.5,0,0,1-2.24-.54,3.81,3.81,0,0,1-1.48-1.5,4.37,4.37,0,0,1-.53-2.2,4.79,4.79,0,0,1,.55-2.38,4,4,0,0,1,1.43-1.5,3.59,3.59,0,0,1,1.87-.52,3.92,3.92,0,0,1,1.44.27,3.83,3.83,0,0,1,1.21.79,4.09,4.09,0,0,1,.86,1.25,4.27,4.27,0,0,1,.33,1.63.64.64,0,0,1-.2.43.63.63,0,0,1-.45.17h-6.32l-.29-1.1h6.16l-.26.22v-.35a2,2,0,0,0-.42-1.13,2.59,2.59,0,0,0-.92-.72,2.64,2.64,0,0,0-1.14-.26,2.89,2.89,0,0,0-.95.17,2.28,2.28,0,0,0-.85.54,2.76,2.76,0,0,0-.6,1,4,4,0,0,0-.22,1.42,3.34,3.34,0,0,0,.38,1.64,2.78,2.78,0,0,0,1,1.11,3.23,3.23,0,0,0,2.55.26,2.49,2.49,0,0,0,.71-.36,3.14,3.14,0,0,0,.5-.44.78.78,0,0,1,.42-.14.55.55,0,0,1,.54.54.61.61,0,0,1-.25.48,4.2,4.2,0,0,1-1.23.87A3.63,3.63,0,0,1,259.17,252.16Z"/><path class="cls-2" d="M265.49,252a.58.58,0,0,1-.45-.19.63.63,0,0,1-.19-.47v-7a.62.62,0,0,1,.19-.46.61.61,0,0,1,.45-.18.63.63,0,0,1,.47.18.69.69,0,0,1,.17.46v2.11l-.19-.34a3.18,3.18,0,0,1,.35-1,3.08,3.08,0,0,1,.63-.85,2.78,2.78,0,0,1,.88-.59,2.58,2.58,0,0,1,1.08-.22,1.29,1.29,0,0,1,.65.17.52.52,0,0,1,.3.47.65.65,0,0,1-.18.5.59.59,0,0,1-.4.16.93.93,0,0,1-.4-.09,1.08,1.08,0,0,0-.48-.09,1.58,1.58,0,0,0-.79.22,2.55,2.55,0,0,0-.72.61,3.56,3.56,0,0,0-.53.91,2.92,2.92,0,0,0-.2,1.08v3.88a.66.66,0,0,1-.18.47A.6.6,0,0,1,265.49,252Z"/><path class="cls-2" d="M270.29,252a.69.69,0,0,1-.52-.19.74.74,0,0,1-.18-.53v-.32a.77.77,0,0,1,.18-.54.69.69,0,0,1,.52-.19h.13a.67.67,0,0,1,.53.19.76.76,0,0,1,.17.54v.32a.74.74,0,0,1-.17.53.67.67,0,0,1-.53.19Z"/></g></g><g id="illustration_2" data-name="illustration 2"><g id="Group_251" data-name="Group 251"><path id="Path_1273" data-name="Path 1273" class="cls-3" d="M61.33,135.79l74.19-18.47,104,29.18-37,36.62Z"/><path id="Path_1274" data-name="Path 1274" class="cls-4" d="M61.33,140.23l141.26,48.3,36.86-36.8.12-5.23-37,36.62L61.33,135.79Z"/></g><path id="Path_1275" data-name="Path 1275" class="cls-5" d="M157.38,128.94c-1.42,1.38-14.1,10-14.1,10l12,6.94L170,134.82Z"/><path id="Path_1276" data-name="Path 1276" class="cls-6" d="M243.13,141.53a4.08,4.08,0,0,1-2.65,3.94c-8.77,3.21-36-2-37-2.2h0s-.09-.24-.26-.65c-.8-2.09-3.15-8.65-1.86-10.41a1.61,1.61,0,0,1,.42-.36c2.53-1.12,20.3-2.79,20.3-2.79-4.21-2.71-6-17.42-6-17.42l14.65-8.2s1,2.35,2.47,6C236.42,117.61,241.83,132.2,243.13,141.53Z"/><path id="Path_1277" data-name="Path 1277" class="cls-7" d="M243.13,141.53a4.09,4.09,0,0,1-2.65,3.94c-8.77,3.2-36-2-37-2.21h0c-9.26-1-19.26-2.35-19.26-2.35-10.68,1.06-14.86-4.36-14.86-4.36-2.27.71-3.47-.14-4.12-1.53,0,0,4.12-2.58,6.38,1.48s13.74.88,17.57,3.2c1.14.71,6.82,1.88,14,2.91,4.82.68,10.32,1.3,15.62,1.65,12.85.88,24.5.24,22.15-4.56-4.74-9.74-10.62-28.27-10.62-28.27l2.85-2C236.42,117.61,241.83,132.2,243.13,141.53Z"/><path id="Path_1278" data-name="Path 1278" class="cls-8" d="M162.55,102.05l18-13.36L198.62,78l3.76,3.29s14.12,1.79,19.83,7.5,11.94,23,11.94,23l-15.59,6.17,3.5,11.15-20.3,2.8-15,4s-3.56-24.33-6.85-26.3a25.7,25.7,0,0,1-3.74,2.24,27.8,27.8,0,0,0-4.59,2.76,6,6,0,0,1-.88.53C169.29,115.64,162.55,102.05,162.55,102.05Z"/><path id="Path_1279" data-name="Path 1279" class="cls-9" d="M169.58,113.23s9.86-3.27,11-7.68c0,0,4.7,21.77,9.41,24.71,4.12,2.56,32.06-1.18,32.06-1.18l-35.62,6-6.62-25.59L170.64,115Z"/><path id="Path_1280" data-name="Path 1280" class="cls-6" d="M196.21,76.07a5.25,5.25,0,0,1-1.09.39,6.86,6.86,0,0,1-.79,4.5c-7.42,14.5-11.12,10.32-11.12,10.32-10.21-9.56-7-12.18-9.71-14.82-1.15-1.12-1.62-3.12-1.79-5.06a28.43,28.43,0,0,1,.08-5.3,5.68,5.68,0,0,1,1-2.89,6.22,6.22,0,0,1,1.77-1.62c6.09-3.76,20.24-.14,22.94,6.06C199.91,73.19,197.71,75.31,196.21,76.07Z"/><path id="Path_1281" data-name="Path 1281" class="cls-7" d="M197.41,75.19a.7.7,0,0,1-1,0,.67.67,0,0,1-.21-.52h0a20,20,0,0,1,.47-4.29,1.11,1.11,0,0,0-2.15-.56,12.56,12.56,0,0,0,0,4.41l-1.09.41a2.26,2.26,0,0,1-2.93-1.28,2.81,2.81,0,0,1-.1-.31c-1-4.56-3.53-7.82-6.23-4.73-3,3.41-11.53,3.15-12.5,3.12a28.43,28.43,0,0,1,.08-5.3,5.68,5.68,0,0,1,1-2.89,10.88,10.88,0,0,1,1.77-1.62c6.09-3.76,20.24-.14,22.94,6.06C199.3,71.78,198.53,74,197.41,75.19Z"/><path id="Path_1282" data-name="Path 1282" d="M171.58,69.81s5.71,1.91,13.27-3.8c3.56-2.7,6.68,5.65,6.88,9.65l2.8-1.44a5.08,5.08,0,0,1-.92-3.44c1.24-6.88,4-.85,4.12-2.65S196.2,51,181.26,54.07a18.06,18.06,0,0,0-7.47,3.38C168.38,63.69,171.58,69.81,171.58,69.81Z"/><path id="Path_1283" data-name="Path 1283" class="cls-6" d="M198.62,81.22l-7,14.71-1.38-1.53-5.39-6.06L196.41,72.6l1.86,7.24Z"/><path id="Path_1284" data-name="Path 1284" class="cls-6" d="M218.8,144.26a2.06,2.06,0,0,1-.35.12c-1.53.27-8.06-.35-15-1.12h0c-9.27-1-19.27-2.35-19.27-2.35-10.68,1.06-14.86-4.35-14.86-4.35-2.26.7-3.47-.15-4.12-1.53-1.14-2.48-.38-6.62-.38-6.62s.91-.89,4.5-3.74,6.62,4.65,12.62,7.21c3.53,1.5,12.56,1,19.39.29,4.73-.47,8.41-1,8.41-1C223.39,128.67,222.15,142.76,218.8,144.26Z"/><path id="Path_1285" data-name="Path 1285" class="cls-7" d="M187.15,90.9s9.17-7.27,8-14.45C195.12,76.45,197.35,85.66,187.15,90.9Z"/><path id="Path_1286" data-name="Path 1286" class="cls-7" d="M222.06,129.05,234,140.17s-6.62-7.68-11.95-11.12"/><path id="Path_1287" data-name="Path 1287" class="cls-6" d="M163.88,103.43l6.76,11.62-7.17,5.68,8.11,4.12-5.32,9.76s-23.89-9.76-19.15-16.32S163.88,103.43,163.88,103.43Z"/><path id="Path_1288" data-name="Path 1288" class="cls-10" d="M156.49,131.2c-1.38,1.41-13.88,10.33-13.88,10.33l12.15,6.7,14.47-11.38Z"/><path id="Path_1289" data-name="Path 1289" class="cls-7" d="M198.62,81.22l-7,14.71-1.38-1.53c3.61-4.59,7-12.06,8-14.56Z"/><path id="Path_1290" data-name="Path 1290" class="cls-9" d="M214.59,107.52,218.71,118l15.33-6.3S218.86,119.67,214.59,107.52Z"/><path id="Path_1291" data-name="Path 1291" class="cls-7" d="M169.58,113.23c-1.32.56-5.64,7.32-13.62,7.91,0,0,6.83-.24,7.5-.41s7.21-5.62,7.18-5.68S169.58,113.23,169.58,113.23Z"/></g><circle id="point_2_circle_" data-name="point 2 circle " class="cls-2" cx="186.13" cy="16.5" r="16.5"/><g id="_2" data-name=" 2" class="cls-1"><g class="cls-1"><path class="cls-11" d="M189.91,22.14a.92.92,0,0,1,.67.27.9.9,0,0,1,.27.67.87.87,0,0,1-.27.66,1,1,0,0,1-.67.26h-7a.94.94,0,0,1-.7-.26.92.92,0,0,1-.26-.7,1,1,0,0,1,.28-.72l4.46-4.82A9.27,9.27,0,0,0,188,15.74a3.36,3.36,0,0,0,.48-1.64,2.52,2.52,0,0,0-.32-1.27,2.37,2.37,0,0,0-.88-.87,2.52,2.52,0,0,0-2.61.09,3.13,3.13,0,0,0-1.11,1.17,1,1,0,0,1-.38.35,1,1,0,0,1-.4.09,1,1,0,0,1-.68-.27.79.79,0,0,1-.32-.63.92.92,0,0,1,.18-.54,4.15,4.15,0,0,1,.46-.54,4.67,4.67,0,0,1,1.7-1.38,4.6,4.6,0,0,1,2-.5,4.77,4.77,0,0,1,2.35.54,3.9,3.9,0,0,1,1.5,1.49,4.41,4.41,0,0,1,.53,2.17,4.78,4.78,0,0,1-.3,1.63,8.1,8.1,0,0,1-.84,1.66A12.66,12.66,0,0,1,188.05,19L185,22.34l-.22-.2Z"/></g></g></g></g></g></svg>