<svg xmlns="http://www.w3.org/2000/svg" viewBox="0 0 300 300"><defs><style>.cls-1{fill:#f1f7ff;}.cls-2{fill:#c8e0ff;}.cls-3,.cls-8{fill:#a5d1fe;}.cls-4{fill:#ffacb6;}.cls-5{fill:#ff9898;}.cls-6{fill:blue;}.cls-7{fill:#00217e;}.cls-8{opacity:0.43;isolation:isolate;}.cls-9{fill:#fff;}.cls-10{fill:#333a41;}.cls-11{fill:none;}</style></defs><g id="Layer_2" data-name="Layer 2"><g id="illustration_2" data-name="illustration 2"><g id="Group_251" data-name="Group 251"><path id="Path_1273" data-name="Path 1273" class="cls-1" d="M36.6,167.49l88-21.92L248.06,180.2l-43.91,43.45Z"/><path id="Path_1274" data-name="Path 1274" class="cls-2" d="M36.6,172.76l167.63,57.31L248,186.4l.14-6.2-43.91,43.45L36.6,167.49Z"/></g><path id="Path_1275" data-name="Path 1275" class="cls-3" d="M150.58,159.36c-1.68,1.64-16.73,11.86-16.73,11.86l14.24,8.24,17.47-13.12Z"/><path id="Path_1276" data-name="Path 1276" class="cls-4" d="M252.34,174.3A4.83,4.83,0,0,1,249.2,179c-10.41,3.81-42.72-2.37-43.91-2.61h0l-.31-.77c-.95-2.48-3.74-10.26-2.21-12.35a1.87,1.87,0,0,1,.5-.43c3-1.33,24.09-3.31,24.09-3.31-5-3.22-7.12-20.67-7.12-20.67l17.39-9.73s1.19,2.78,2.93,7.12C244.38,145.91,250.8,163.23,252.34,174.3Z"/><path id="Path_1277" data-name="Path 1277" class="cls-5" d="M252.34,174.3A4.83,4.83,0,0,1,249.2,179c-10.41,3.8-42.72-2.37-43.91-2.62h0c-11-1.19-22.86-2.79-22.86-2.79-12.67,1.26-17.63-5.17-17.63-5.17-2.69.84-4.12-.17-4.89-1.82,0,0,4.89-3.06,7.57,1.76s16.31,1,20.85,3.8c1.36.84,8.1,2.23,16.62,3.45,5.72.81,12.24,1.54,18.53,2,15.25,1,29.08.28,26.29-5.41-5.63-11.56-12.6-33.55-12.6-33.55l3.38-2.38C244.38,145.91,250.8,163.23,252.34,174.3Z"/><path id="Path_1278" data-name="Path 1278" class="cls-6" d="M156.72,127.45l21.36-15.86,21.44-12.68,4.47,3.9s16.75,2.12,23.53,8.9S241.69,139,241.69,139l-18.5,7.32,4.15,13.23-24.09,3.32-17.8,4.75s-4.23-28.87-8.13-31.21a30.68,30.68,0,0,1-4.44,2.66,33.07,33.07,0,0,0-5.45,3.27,6.85,6.85,0,0,1-1,.63C164.72,143.57,156.72,127.45,156.72,127.45Z"/><path id="Path_1279" data-name="Path 1279" class="cls-7" d="M165.06,140.71s11.7-3.88,13.05-9.11c0,0,5.58,25.83,11.17,29.32,4.89,3,38.05-1.4,38.05-1.4l-42.27,7.12-7.86-30.36-10.88,6.53Z"/><path id="Path_1280" data-name="Path 1280" class="cls-4" d="M196.66,96.62a6.38,6.38,0,0,1-1.29.46,8.09,8.09,0,0,1-.94,5.34c-8.8,17.21-13.19,12.25-13.19,12.25-12.12-11.35-8.31-14.46-11.53-17.59-1.36-1.33-1.92-3.7-2.12-6a33.9,33.9,0,0,1,.09-6.29,6.83,6.83,0,0,1,1.19-3.43,7.4,7.4,0,0,1,2.1-1.92c7.23-4.46,24-.16,27.22,7.19C201.05,93.2,198.44,95.71,196.66,96.62Z"/><path id="Path_1281" data-name="Path 1281" class="cls-5" d="M198.09,95.57a.84.84,0,0,1-1.18,0h0a.79.79,0,0,1-.25-.62h0a23.56,23.56,0,0,1,.56-5.09,1.32,1.32,0,0,0-2.55-.66h0a14.82,14.82,0,0,0,0,5.23l-1.3.49a2.68,2.68,0,0,1-3.47-1.52h0a2.29,2.29,0,0,1-.12-.37c-1.19-5.41-4.19-9.28-7.4-5.61-3.56,4-13.68,3.74-14.83,3.7a33.9,33.9,0,0,1,.1-6.29,6.7,6.7,0,0,1,1.18-3.43,13.19,13.19,0,0,1,2.1-1.92c7.23-4.46,24-.17,27.23,7.19C200.33,91.52,199.42,94.16,198.09,95.57Z"/><path id="Path_1282" data-name="Path 1282" d="M167.43,89.19s6.78,2.26,15.75-4.51c4.23-3.21,7.93,6.7,8.17,11.45l3.32-1.71a6,6,0,0,1-1.09-4.08c1.47-8.17,4.74-1,4.89-3.15s-1.82-20.33-19.55-16.68a21.43,21.43,0,0,0-8.86,4C163.64,81.92,167.43,89.19,167.43,89.19Z"/><path id="Path_1283" data-name="Path 1283" class="cls-4" d="M199.52,102.73l-8.3,17.45-1.64-1.81-6.4-7.19L196.9,92.5l2.21,8.59Z"/><path id="Path_1284" data-name="Path 1284" class="cls-4" d="M223.47,177.54a2,2,0,0,1-.41.14c-1.82.32-9.57-.42-17.81-1.33h0c-11-1.19-22.86-2.79-22.86-2.79-12.68,1.26-17.64-5.16-17.64-5.16-2.68.83-4.12-.18-4.89-1.82-1.35-2.94-.45-7.85-.45-7.85s1.08-1.06,5.34-4.44,7.86,5.52,15,8.56c4.19,1.78,14.9,1.18,23,.34,5.61-.56,10-1.19,10-1.19C228.92,159,227.45,175.76,223.47,177.54Z"/><path id="Path_1285" data-name="Path 1285" class="cls-5" d="M185.91,114.21s10.88-8.62,9.5-17.14C195.37,97.07,198,108,185.91,114.21Z"/><path id="Path_1286" data-name="Path 1286" class="cls-5" d="M227.34,159.49l14.17,13.19s-7.86-9.11-14.18-13.19"/><path id="Path_1287" data-name="Path 1287" class="cls-4" d="M158.3,129.08l8,13.79-8.51,6.74,9.62,4.89-6.31,11.59s-28.35-11.59-22.73-19.37S158.3,129.08,158.3,129.08Z"/><path id="Path_1288" data-name="Path 1288" class="cls-8" d="M149.53,162c-1.64,1.67-16.48,12.26-16.48,12.26l14.42,7.95,17.18-13.51Z"/><path id="Path_1289" data-name="Path 1289" class="cls-5" d="M199.52,102.73l-8.3,17.45-1.64-1.81c4.28-5.45,8.31-14.31,9.49-17.28Z"/><path id="Path_1290" data-name="Path 1290" class="cls-7" d="M218.47,133.94l4.89,12.43,18.2-7.47S223.54,148.36,218.47,133.94Z"/><path id="Path_1291" data-name="Path 1291" class="cls-5" d="M165.06,140.71c-1.57.67-6.69,8.69-16.16,9.39,0,0,8.1-.28,8.9-.49s8.55-6.66,8.52-6.74Z"/></g></g><g id="Layer_1" data-name="Layer 1"><g id="point_2" data-name="point 2"><circle id="point_2_circle_" data-name="point 2 circle " class="cls-9" cx="150.62" cy="24.07" r="16.5"/><g id="_2" data-name=" 2"><path class="cls-10" d="M154.21,29.31a.94.94,0,0,1,.67.27.9.9,0,0,1,.27.67.86.86,0,0,1-.27.66,1,1,0,0,1-.67.26h-7a.92.92,0,0,1-.7-.26.94.94,0,0,1-.26-.7,1,1,0,0,1,.28-.72L151,24.67a8.66,8.66,0,0,0,1.31-1.76,3.26,3.26,0,0,0,.48-1.64,2.47,2.47,0,0,0-.32-1.27,2.37,2.37,0,0,0-.88-.87,2.52,2.52,0,0,0-2.61.09,3.19,3.19,0,0,0-1.11,1.17.92.92,0,0,1-.38.35.9.9,0,0,1-.4.09,1,1,0,0,1-.68-.27.79.79,0,0,1-.32-.63,1,1,0,0,1,.18-.54,4.69,4.69,0,0,1,.46-.54,4.9,4.9,0,0,1,3.7-1.88,4.78,4.78,0,0,1,2.35.54,3.9,3.9,0,0,1,1.5,1.49,4.44,4.44,0,0,1,.53,2.17,4.53,4.53,0,0,1-.3,1.63,7.84,7.84,0,0,1-.84,1.66,12.1,12.1,0,0,1-1.31,1.71l-3,3.34-.22-.2Z"/></g></g><rect class="cls-11" width="300" height="300"/></g><g id="Layer_3" data-name="Layer 3"><g id="Candidates_Students_opens_the_SAFE_app_on_their_smart-phones_and_downloads_the_question_paper." data-name="Candidates Students opens the SAFE app on their smart-phones and downloads the question paper."><path class="cls-9" d="M12.87,244.62a.5.5,0,0,1,.3.42.66.66,0,0,1-.14.52.49.49,0,0,1-.37.21.72.72,0,0,1-.43-.1,5.51,5.51,0,0,0-1.11-.49A4.83,4.83,0,0,0,9.87,245a4.49,4.49,0,0,0-1.7.31,4.17,4.17,0,0,0-1.33.9A4.25,4.25,0,0,0,6,247.6a4.69,4.69,0,0,0-.31,1.77A5,5,0,0,0,6,251.22a4.12,4.12,0,0,0,.9,1.38,3.82,3.82,0,0,0,1.33.88,4.48,4.48,0,0,0,1.66.3,4.31,4.31,0,0,0,1.23-.18,4.58,4.58,0,0,0,1.13-.5.65.65,0,0,1,.43-.07.56.56,0,0,1,.39.21.63.63,0,0,1,.13.53.51.51,0,0,1-.29.4,6.07,6.07,0,0,1-.89.43,6.3,6.3,0,0,1-1.05.3,5.65,5.65,0,0,1-1.08.11,5.8,5.8,0,0,1-2.14-.39A5.47,5.47,0,0,1,6,253.49a4.94,4.94,0,0,1-1.21-1.78,6.25,6.25,0,0,1,0-4.58,5.39,5.39,0,0,1,1.18-1.77,5.52,5.52,0,0,1,1.77-1.17,5.74,5.74,0,0,1,3.77-.2A5.13,5.13,0,0,1,12.87,244.62Z"/><path class="cls-9" d="M21.85,246.68a.6.6,0,0,1,.45.18.66.66,0,0,1,.17.45v6.9a.64.64,0,0,1-.17.46.63.63,0,0,1-.9,0h0a.61.61,0,0,1-.18-.46v-1.49h.29a1.57,1.57,0,0,1-.23.76,3.31,3.31,0,0,1-.64.76,3.84,3.84,0,0,1-1,.58,3.17,3.17,0,0,1-1.18.22,3.4,3.4,0,0,1-2-.56,3.8,3.8,0,0,1-1.34-1.5,4.87,4.87,0,0,1-.49-2.19,4.74,4.74,0,0,1,.5-2.18,3.75,3.75,0,0,1,1.33-1.49,3.38,3.38,0,0,1,1.88-.54,3.43,3.43,0,0,1,2.27.82,2.85,2.85,0,0,1,.67.83,1.92,1.92,0,0,1,.23.91l-.41-.1v-1.7a.61.61,0,0,1,.59-.63h0Zm-3.23,7.2a2.46,2.46,0,0,0,1.39-.41,2.89,2.89,0,0,0,1-1.11,3.72,3.72,0,0,0,0-3.13,2.79,2.79,0,0,0-1-1.1,2.47,2.47,0,0,0-1.39-.4,2.51,2.51,0,0,0-1.37.39,2.64,2.64,0,0,0-1,1.09,3.69,3.69,0,0,0,0,3.15,2.76,2.76,0,0,0,1,1.11A2.45,2.45,0,0,0,18.62,253.88Z"/><path class="cls-9" d="M29.21,246.56a2.75,2.75,0,0,1,1.67.44,2.36,2.36,0,0,1,.87,1.17,4.85,4.85,0,0,1,.26,1.64v4.4a.65.65,0,0,1-.18.46.64.64,0,0,1-.45.19.6.6,0,0,1-.44-.19.62.62,0,0,1-.19-.46v-4.37a3,3,0,0,0-.17-1.07A1.69,1.69,0,0,0,30,248a2,2,0,0,0-1.14-.29,2.5,2.5,0,0,0-1.2.29,2.61,2.61,0,0,0-.88.77,1.77,1.77,0,0,0-.32,1.07v4.37a.66.66,0,0,1-.19.46.59.59,0,0,1-.41.19.62.62,0,0,1-.45-.19.65.65,0,0,1-.18-.46v-6.85a.64.64,0,0,1,1.08-.45.67.67,0,0,1,.18.45v1.1l-.32.36a2.12,2.12,0,0,1,.36-.83,2.94,2.94,0,0,1,.71-.74,3.21,3.21,0,0,1,1-.53A2.85,2.85,0,0,1,29.21,246.56Z"/><path class="cls-9" d="M41.31,243.27a.58.58,0,0,1,.45.17.64.64,0,0,1,.18.45v10.32a.58.58,0,0,1-.19.46.6.6,0,0,1-.44.19.62.62,0,0,1-.62-.65v-1.49l.29-.11a1.71,1.71,0,0,1-.22.8,3,3,0,0,1-.65.77,3.64,3.64,0,0,1-1,.6,2.87,2.87,0,0,1-1.19.23,3.39,3.39,0,0,1-2-.55,3.88,3.88,0,0,1-1.34-1.5,5.12,5.12,0,0,1,0-4.37,3.84,3.84,0,0,1,1.33-1.5,3.39,3.39,0,0,1,4.1.28,2.91,2.91,0,0,1,.69.83,1.92,1.92,0,0,1,.23.91l-.4-.1v-5.12a.64.64,0,0,1,.18-.45A.6.6,0,0,1,41.31,243.27Zm-3.23,10.61a2.46,2.46,0,0,0,1.4-.4,2.88,2.88,0,0,0,1-1.1,3.79,3.79,0,0,0,0-3.16,2.78,2.78,0,0,0-1-1.09,2.58,2.58,0,0,0-2.76,0,2.94,2.94,0,0,0-1,1.09,3.6,3.6,0,0,0-.34,1.58,3.51,3.51,0,0,0,.34,1.56,2.91,2.91,0,0,0,1,1.11A2.44,2.44,0,0,0,38.08,253.88Z"/><path class="cls-9" d="M45.23,245.59a.91.91,0,0,1-.58-.16.57.57,0,0,1-.19-.49v-.22a.56.56,0,0,1,.2-.48.91.91,0,0,1,.58-.16.9.9,0,0,1,.57.16.57.57,0,0,1,.18.48v.22a.6.6,0,0,1-.19.49A1,1,0,0,1,45.23,245.59Zm.63,8.62a.66.66,0,0,1-.19.46.6.6,0,0,1-.44.19.62.62,0,0,1-.46-.19.71.71,0,0,1-.17-.46v-7a.62.62,0,0,1,.63-.63.62.62,0,0,1,.44.18.64.64,0,0,1,.19.45Z"/><path class="cls-9" d="M55.09,243.27a.6.6,0,0,1,.46.17.68.68,0,0,1,.17.45v10.32a.61.61,0,0,1-.18.46.64.64,0,0,1-.45.19.65.65,0,0,1-.45-.19.64.64,0,0,1-.17-.46v-1.49l.29-.11a1.71,1.71,0,0,1-.22.8,2.83,2.83,0,0,1-.65.77,3.64,3.64,0,0,1-1,.6,2.87,2.87,0,0,1-1.19.23,3.41,3.41,0,0,1-2-.55,3.88,3.88,0,0,1-1.34-1.5,4.83,4.83,0,0,1-.49-2.18,4.74,4.74,0,0,1,.49-2.19,3.92,3.92,0,0,1,1.33-1.5,3.39,3.39,0,0,1,4.1.28,2.91,2.91,0,0,1,.69.83,1.92,1.92,0,0,1,.23.91l-.4-.1v-5.12a.64.64,0,0,1,.18-.45A.6.6,0,0,1,55.09,243.27Zm-3.23,10.61a2.46,2.46,0,0,0,1.4-.4,2.88,2.88,0,0,0,1-1.1,3.79,3.79,0,0,0,0-3.16,2.78,2.78,0,0,0-1-1.09,2.58,2.58,0,0,0-2.76,0,2.83,2.83,0,0,0-1,1.09,3.47,3.47,0,0,0-.35,1.58,3.52,3.52,0,0,0,.35,1.56,2.89,2.89,0,0,0,1,1.11A2.47,2.47,0,0,0,51.86,253.88Z"/><path class="cls-9" d="M65,246.68a.65.65,0,0,1,.46.18.66.66,0,0,1,.17.45v6.9a.65.65,0,0,1-.18.46.64.64,0,0,1-.45.19.6.6,0,0,1-.44-.19.66.66,0,0,1-.19-.46v-1.49h.31a1.48,1.48,0,0,1-.24.76,3.31,3.31,0,0,1-.64.76,3.9,3.9,0,0,1-1,.58,3.22,3.22,0,0,1-1.19.22,3.39,3.39,0,0,1-1.95-.56,3.83,3.83,0,0,1-1.35-1.5,4.73,4.73,0,0,1-.48-2.19,4.61,4.61,0,0,1,.49-2.18,3.92,3.92,0,0,1,1.34-1.49,3.55,3.55,0,0,1,4.15.28,2.82,2.82,0,0,1,.66.83,2.06,2.06,0,0,1,.24.91l-.41-.1v-1.7a.59.59,0,0,1,.18-.45A.61.61,0,0,1,65,246.68Zm-3.19,7.2a2.51,2.51,0,0,0,1.38-.41,2.83,2.83,0,0,0,1-1.11,3.72,3.72,0,0,0,0-3.13,2.74,2.74,0,0,0-1-1.1,2.42,2.42,0,0,0-1.38-.4,2.45,2.45,0,0,0-1.37.39,2.65,2.65,0,0,0-1,1.09,3.77,3.77,0,0,0,0,3.15,2.77,2.77,0,0,0,1,1.11A2.45,2.45,0,0,0,61.8,253.88Z"/><path class="cls-9" d="M68,246.81h3.68a.59.59,0,0,1,.42.17.51.51,0,0,1,.16.41.53.53,0,0,1-.16.41.54.54,0,0,1-.42.16H68a.58.58,0,0,1-.41-.17.56.56,0,0,1-.16-.42.55.55,0,0,1,.57-.56Zm1.65-2.13a.61.61,0,0,1,.44.17.7.7,0,0,1,.17.45v7.6a1,1,0,0,0,.11.56.57.57,0,0,0,.29.26.84.84,0,0,0,.35.07.63.63,0,0,0,.27-.06.66.66,0,0,1,.28,0,.38.38,0,0,1,.29.15.52.52,0,0,1,.13.38.57.57,0,0,1-.32.48,1.42,1.42,0,0,1-.75.19h-.54a1.51,1.51,0,0,1-.62-.2,1.27,1.27,0,0,1-.53-.57A2.43,2.43,0,0,1,69,253v-7.62a.64.64,0,0,1,.19-.45A.61.61,0,0,1,69.69,244.68Z"/><path class="cls-9" d="M78,255a4.28,4.28,0,0,1-2.19-.53A3.73,3.73,0,0,1,74.37,253a4.41,4.41,0,0,1-.51-2.16,4.62,4.62,0,0,1,.54-2.33,3.85,3.85,0,0,1,1.36-1.5,3.37,3.37,0,0,1,1.83-.51,3.55,3.55,0,0,1,1.4.26,3.75,3.75,0,0,1,1.19.77,4,4,0,0,1,.84,1.23,4.31,4.31,0,0,1,.33,1.59.61.61,0,0,1-.21.42.54.54,0,0,1-.43.17H74.56l-.28-1.08h6l-.26.22v-.34a2,2,0,0,0-.38-1.07,2.61,2.61,0,0,0-.9-.71,2.73,2.73,0,0,0-2.09-.08,2.17,2.17,0,0,0-.83.52,2.68,2.68,0,0,0-.59,1,3.89,3.89,0,0,0-.22,1.39,3.45,3.45,0,0,0,.36,1.61,2.94,2.94,0,0,0,1,1.09,3.21,3.21,0,0,0,2.5.25,2.49,2.49,0,0,0,.69-.35,2.9,2.9,0,0,0,.49-.43.7.7,0,0,1,.41-.14.53.53,0,0,1,.53.53.59.59,0,0,1-.24.47,4.27,4.27,0,0,1-1.21.85A3.52,3.52,0,0,1,78,255Z"/><path class="cls-9" d="M83.13,253.57a.65.65,0,0,1-.13-.43.53.53,0,0,1,.26-.4.64.64,0,0,1,.38-.1.66.66,0,0,1,.38.21,3.38,3.38,0,0,0,1,.82,2.73,2.73,0,0,0,1.38.3,3.88,3.88,0,0,0,.75-.11,1.52,1.52,0,0,0,.64-.39,1,1,0,0,0,.25-.73.88.88,0,0,0-.26-.69,1.89,1.89,0,0,0-.69-.42,8,8,0,0,0-1-.3c-.34-.1-.68-.2-1-.32a4,4,0,0,1-.9-.45,2,2,0,0,1-.63-.7,1.84,1.84,0,0,1-.25-1,2.07,2.07,0,0,1,.38-1.22,2.45,2.45,0,0,1,1-.79,3.63,3.63,0,0,1,1.41-.29,4.71,4.71,0,0,1,.92.1,3.82,3.82,0,0,1,1,.35,2.72,2.72,0,0,1,.8.67.64.64,0,0,1,.16.39.46.46,0,0,1-.21.42.57.57,0,0,1-.38.11.48.48,0,0,1-.35-.16,2.42,2.42,0,0,0-.82-.6,2.93,2.93,0,0,0-1.09-.21,2.65,2.65,0,0,0-.74.11,1.38,1.38,0,0,0-.6.37,1,1,0,0,0-.24.71.94.94,0,0,0,.28.69,1.79,1.79,0,0,0,.68.43c.3.11.63.22,1,.32a10.11,10.11,0,0,1,1,.29,3.18,3.18,0,0,1,.84.43,2,2,0,0,1,.6.68,2.34,2.34,0,0,1,.22,1,2,2,0,0,1-.41,1.24,2.59,2.59,0,0,1-1.07.81,3.76,3.76,0,0,1-1.44.27,4.43,4.43,0,0,1-1.69-.33A3.37,3.37,0,0,1,83.13,253.57Z"/><path class="cls-9" d="M99.82,257.79a.61.61,0,0,1-.3-.08,7.23,7.23,0,0,1-2.14-1.79,7.51,7.51,0,0,1-1.3-2.39,8.18,8.18,0,0,1-.44-2.73,8,8,0,0,1,1.78-5.06,8.4,8.4,0,0,1,2.1-1.84.61.61,0,0,1,.3-.08.5.5,0,0,1,.39.18.57.57,0,0,1,.14.37.54.54,0,0,1-.25.45,6.55,6.55,0,0,0-1.74,1.62,7.08,7.08,0,0,0-1.07,2.08,7.45,7.45,0,0,0-.36,2.29,7.91,7.91,0,0,0,.35,2.32,6.92,6.92,0,0,0,1.06,2.1,6.33,6.33,0,0,0,1.76,1.58.49.49,0,0,1,.23.44.58.58,0,0,1-.13.38A.47.47,0,0,1,99.82,257.79Z"/><path class="cls-9" d="M105.66,255a5,5,0,0,1-3.73-1.44,1.08,1.08,0,0,1-.18-.24.6.6,0,0,1-.06-.3.61.61,0,0,1,.17-.44.58.58,0,0,1,.82,0l0,0a4.11,4.11,0,0,0,1.32.91,3.89,3.89,0,0,0,1.61.32,3.28,3.28,0,0,0,1.24-.22,2.22,2.22,0,0,0,.89-.61,1.39,1.39,0,0,0,.33-.9,1.58,1.58,0,0,0-.37-1,2.78,2.78,0,0,0-1-.69,10.35,10.35,0,0,0-1.43-.46,7.25,7.25,0,0,1-1.32-.42,4.06,4.06,0,0,1-1-.61,2.62,2.62,0,0,1-.68-.9,2.85,2.85,0,0,1-.24-1.23,2.61,2.61,0,0,1,.47-1.56,2.93,2.93,0,0,1,1.3-1,4.46,4.46,0,0,1,1.91-.37,5.07,5.07,0,0,1,1.81.31,3.39,3.39,0,0,1,1.37.86.82.82,0,0,1,.31.58.66.66,0,0,1-.64.62.43.43,0,0,1-.32-.12,2.66,2.66,0,0,0-.67-.53,3.64,3.64,0,0,0-.89-.37,3.28,3.28,0,0,0-1-.15,3.39,3.39,0,0,0-1.27.21,2,2,0,0,0-.86.6,1.42,1.42,0,0,0-.3.91,1.45,1.45,0,0,0,.34,1,2.62,2.62,0,0,0,1,.63,10.13,10.13,0,0,0,1.28.43,13.51,13.51,0,0,1,1.41.43,4,4,0,0,1,1.13.61,2.3,2.3,0,0,1,.72.91,3.22,3.22,0,0,1,.27,1.37,2.61,2.61,0,0,1-.49,1.53,3.24,3.24,0,0,1-1.32,1.06A4.58,4.58,0,0,1,105.66,255Z"/><path class="cls-9" d="M111.32,246.81H115a.58.58,0,0,1,.41.17.6.6,0,0,1,.16.41.55.55,0,0,1-.55.57h-3.7a.55.55,0,0,1-.41-.17.52.52,0,0,1-.17-.42.51.51,0,0,1,.17-.4A.56.56,0,0,1,111.32,246.81Zm1.63-2.13a.58.58,0,0,1,.44.17.7.7,0,0,1,.17.45v7.6a1.1,1.1,0,0,0,.11.56.61.61,0,0,0,.29.26.84.84,0,0,0,.35.07.67.67,0,0,0,.28-.06.62.62,0,0,1,.27,0,.35.35,0,0,1,.28.15.49.49,0,0,1,.14.38.56.56,0,0,1-.33.48,1.36,1.36,0,0,1-.74.19h-.53a1.55,1.55,0,0,1-.64-.2,1.3,1.3,0,0,1-.52-.57,2.3,2.3,0,0,1-.21-1.13v-7.62a.81.81,0,0,1,.64-.73Z"/><path class="cls-9" d="M123.77,246.76a.6.6,0,0,1,.45.18.62.62,0,0,1,.17.45v4.27a3.26,3.26,0,0,1-.89,2.45,3.9,3.9,0,0,1-4.89,0,3.3,3.3,0,0,1-.89-2.45v-4.27a.67.67,0,0,1,.18-.45.65.65,0,0,1,.9,0,.58.58,0,0,1,.17.45v4.27a2.2,2.2,0,0,0,.55,1.61,2.45,2.45,0,0,0,3.09,0,2.2,2.2,0,0,0,.55-1.61v-4.27a.63.63,0,0,1,.18-.45A.58.58,0,0,1,123.77,246.76Z"/><path class="cls-9" d="M133.69,243.27a.58.58,0,0,1,.45.17.64.64,0,0,1,.18.45v10.32a.65.65,0,0,1-.18.46.63.63,0,0,1-.9,0h0a.6.6,0,0,1-.17-.46v-1.49l.29-.11a1.52,1.52,0,0,1-.23.8,2.73,2.73,0,0,1-.63.77,3.64,3.64,0,0,1-1,.6,2.87,2.87,0,0,1-1.19.23,3.38,3.38,0,0,1-2-.55,3.63,3.63,0,0,1-1.33-1.5,5,5,0,0,1,0-4.37,3.78,3.78,0,0,1,1.33-1.5,3.59,3.59,0,0,1,3.11-.32,3.64,3.64,0,0,1,1,.6,2.88,2.88,0,0,1,.68.83,1.94,1.94,0,0,1,.25.91L133,249v-5.12a.6.6,0,0,1,.58-.62h.12Zm-3.23,10.61a2.46,2.46,0,0,0,1.4-.4,3,3,0,0,0,1-1.1,3.79,3.79,0,0,0,0-3.16,2.86,2.86,0,0,0-1-1.09,2.45,2.45,0,0,0-1.39-.4,2.35,2.35,0,0,0-1.36.4,2.71,2.71,0,0,0-1,1.09,3.44,3.44,0,0,0-.35,1.58,3.36,3.36,0,0,0,.35,1.56,2.77,2.77,0,0,0,1,1.11A2.41,2.41,0,0,0,130.46,253.88Z"/><path class="cls-9" d="M140.69,255a4.3,4.3,0,0,1-2.19-.53,3.7,3.7,0,0,1-1.45-1.46,4.29,4.29,0,0,1-.52-2.16,4.73,4.73,0,0,1,.54-2.33,4,4,0,0,1,1.4-1.47,3.45,3.45,0,0,1,1.83-.5,3.6,3.6,0,0,1,1.41.26,3.7,3.7,0,0,1,1.18.77,3.85,3.85,0,0,1,.84,1.23,3.94,3.94,0,0,1,.33,1.59.62.62,0,0,1-.2.42.66.66,0,0,1-.44.17h-6.18l-.29-1.08h6l-.25.22v-.34a2,2,0,0,0-.42-1.11,2.61,2.61,0,0,0-.9-.71,2.65,2.65,0,0,0-1.11-.25,2.69,2.69,0,0,0-.93.17,2.25,2.25,0,0,0-.83.52,2.68,2.68,0,0,0-.59,1,3.89,3.89,0,0,0-.22,1.39,3.46,3.46,0,0,0,.37,1.61,2.81,2.81,0,0,0,1,1.09,3.21,3.21,0,0,0,2.5.25,2.49,2.49,0,0,0,.69-.35,2.9,2.9,0,0,0,.49-.43.73.73,0,0,1,.42-.14.52.52,0,0,1,.52.53.59.59,0,0,1-.24.47,4.37,4.37,0,0,1-1.2.85A3.62,3.62,0,0,1,140.69,255Z"/><path class="cls-9" d="M150.27,246.56A2.81,2.81,0,0,1,152,247a2.4,2.4,0,0,1,.86,1.17,4.85,4.85,0,0,1,.26,1.64v4.4a.61.61,0,0,1-.18.46.63.63,0,0,1-.44.19.66.66,0,0,1-.46-.19.64.64,0,0,1-.17-.46v-4.37a3,3,0,0,0-.19-1.07,1.65,1.65,0,0,0-.58-.77,2,2,0,0,0-1.14-.29,2.66,2.66,0,0,0-1.21.29,2.39,2.39,0,0,0-.87.77,1.86,1.86,0,0,0-.34,1.07v4.37a.62.62,0,0,1-.62.65.6.6,0,0,1-.44-.19.58.58,0,0,1-.19-.46v-6.85a.6.6,0,0,1,.19-.45.59.59,0,0,1,.44-.18.62.62,0,0,1,.46.18.71.71,0,0,1,.16.45v1.1l-.31.36a2.46,2.46,0,0,1,.36-.83,2.94,2.94,0,0,1,.71-.74,3.27,3.27,0,0,1,1-.53A3.09,3.09,0,0,1,150.27,246.56Z"/><path class="cls-9" d="M155.48,246.81h3.68a.58.58,0,0,1,.41.17.57.57,0,0,1-.39,1h-3.7a.57.57,0,0,1-.41-.17.56.56,0,0,1-.18-.42.54.54,0,0,1,.18-.4A.57.57,0,0,1,155.48,246.81Zm1.64-2.13a.58.58,0,0,1,.44.17.7.7,0,0,1,.17.45v7.6a1.22,1.22,0,0,0,.11.56.66.66,0,0,0,.29.26.84.84,0,0,0,.35.07.67.67,0,0,0,.28-.06.61.61,0,0,1,.27,0,.4.4,0,0,1,.3.15.58.58,0,0,1,.12.38.56.56,0,0,1-.33.48,1.35,1.35,0,0,1-.73.19h-.54a1.6,1.6,0,0,1-.64-.2,1.43,1.43,0,0,1-.52-.57,2.42,2.42,0,0,1-.21-1.13v-7.62a.67.67,0,0,1,.18-.45.65.65,0,0,1,.46-.28Z"/><path class="cls-9" d="M161.72,253.57a.64.64,0,0,1-.12-.43.51.51,0,0,1,.26-.4.61.61,0,0,1,.37-.1.65.65,0,0,1,.39.21,3.47,3.47,0,0,0,1,.82,2.74,2.74,0,0,0,1.37.3,3.24,3.24,0,0,0,.76-.11,1.43,1.43,0,0,0,.63-.39,1,1,0,0,0,.26-.73.89.89,0,0,0-.27-.69,1.85,1.85,0,0,0-.68-.42,7.21,7.21,0,0,0-.93-.3c-.34-.1-.68-.2-1-.32a3.79,3.79,0,0,1-.9-.45,2.15,2.15,0,0,1-.64-.7,1.92,1.92,0,0,1-.24-1,2,2,0,0,1,.38-1.22,2.54,2.54,0,0,1,1-.79,3.64,3.64,0,0,1,1.42-.29,4.7,4.7,0,0,1,.91.1,3.49,3.49,0,0,1,.93.35,2.58,2.58,0,0,1,.8.67.64.64,0,0,1,.16.39.49.49,0,0,1-.21.42.57.57,0,0,1-.38.11.52.52,0,0,1-.35-.16,2.21,2.21,0,0,0-.82-.6,2.93,2.93,0,0,0-1.09-.21,2.65,2.65,0,0,0-.74.11,1.38,1.38,0,0,0-.6.37,1,1,0,0,0-.25.71.94.94,0,0,0,.29.69,1.82,1.82,0,0,0,.72.43l1,.32c.33.08.66.18,1,.29a3.34,3.34,0,0,1,.84.43,2.06,2.06,0,0,1,.6.68,2.21,2.21,0,0,1,.21,1,1.9,1.9,0,0,1-.4,1.24,2.56,2.56,0,0,1-1.08.81,3.62,3.62,0,0,1-1.42.27,4.53,4.53,0,0,1-1.71-.33A3.47,3.47,0,0,1,161.72,253.57Z"/><path class="cls-9" d="M169.72,257.79a.46.46,0,0,1-.39-.18.7.7,0,0,1-.15-.39.54.54,0,0,1,.24-.44,6.43,6.43,0,0,0,1.76-1.61,7.13,7.13,0,0,0,1.09-2.08,7.47,7.47,0,0,0,.36-2.3,7.89,7.89,0,0,0-.35-2.31,6.9,6.9,0,0,0-1.07-2.09,5.8,5.8,0,0,0-1.79-1.59.49.49,0,0,1-.24-.45.54.54,0,0,1,.83-.45,6.82,6.82,0,0,1,2.14,1.78,7.59,7.59,0,0,1,1.29,2.39,8.7,8.7,0,0,1,.44,2.72,8.26,8.26,0,0,1-.44,2.7,8,8,0,0,1-1.32,2.37,7.57,7.57,0,0,1-2.12,1.83A.42.42,0,0,1,169.72,257.79Z"/><path class="cls-9" d="M188.46,250.78a4.48,4.48,0,0,1-.53,2.18,3.94,3.94,0,0,1-1.45,1.5,4.14,4.14,0,0,1-4.14,0,3.94,3.94,0,0,1-1.45-1.5,4.59,4.59,0,0,1,0-4.35,4,4,0,0,1,7,0A4.47,4.47,0,0,1,188.46,250.78Zm-1.26,0a3.25,3.25,0,0,0-.36-1.59,2.86,2.86,0,0,0-1-1.09,2.82,2.82,0,0,0-2.86,0,2.86,2.86,0,0,0-1,1.09,3.62,3.62,0,0,0,0,3.18,2.94,2.94,0,0,0,1,1.09,2.77,2.77,0,0,0,2.86,0,2.86,2.86,0,0,0,1-1.09A3.37,3.37,0,0,0,187.2,250.78Z"/><path class="cls-9" d="M194.66,246.63a3.66,3.66,0,0,1,2,.53,3.89,3.89,0,0,1,1.34,1.48,5,5,0,0,1,0,4.32,4,4,0,0,1-1.33,1.48,3.43,3.43,0,0,1-1.89.54,3.12,3.12,0,0,1-1.09-.18,4.2,4.2,0,0,1-1-.47,2.88,2.88,0,0,1-.69-.66,2.55,2.55,0,0,1-.4-.72l.34-.23v4.62a.65.65,0,0,1-.18.46.58.58,0,0,1-.45.19.64.64,0,0,1-.45-.18.62.62,0,0,1-.17-.47v-10a.6.6,0,0,1,.58-.63h0a.62.62,0,0,1,.63.63v1.39l-.23-.12a2,2,0,0,1,.38-.75,3.13,3.13,0,0,1,.67-.64,3.48,3.48,0,0,1,.89-.43A3.31,3.31,0,0,1,194.66,246.63Zm-.15,1.16a2.53,2.53,0,0,0-1.38.39,2.81,2.81,0,0,0-1,1.07,3.44,3.44,0,0,0-.34,1.55,3.58,3.58,0,0,0,.34,1.55,2.69,2.69,0,0,0,1,1.08,2.64,2.64,0,0,0,2.76,0,2.55,2.55,0,0,0,1-1.08,3.61,3.61,0,0,0,0-3.1,2.66,2.66,0,0,0-1-1.07A2.49,2.49,0,0,0,194.51,247.79Z"/><path class="cls-9" d="M204.26,255a4.3,4.3,0,0,1-2.19-.53,3.79,3.79,0,0,1-1.46-1.46,4.53,4.53,0,0,1-.52-2.16,4.73,4.73,0,0,1,.54-2.33A3.93,3.93,0,0,1,202,247a3.43,3.43,0,0,1,1.84-.51,3.52,3.52,0,0,1,1.4.26,3.86,3.86,0,0,1,1.19.77,4,4,0,0,1,.84,1.23,4.31,4.31,0,0,1,.33,1.59.63.63,0,0,1-.21.42.62.62,0,0,1-.44.17h-6.18l-.29-1.08h6l-.24.22v-.34a2.1,2.1,0,0,0-.42-1.11A2.57,2.57,0,0,0,205,248a2.68,2.68,0,0,0-1.11-.25,2.77,2.77,0,0,0-1,.17,2.21,2.21,0,0,0-.82.52,2.6,2.6,0,0,0-.59,1,3.89,3.89,0,0,0-.22,1.39,3.46,3.46,0,0,0,.37,1.61,2.74,2.74,0,0,0,1,1.08,2.79,2.79,0,0,0,1.51.41,3.19,3.19,0,0,0,1-.15,2.55,2.55,0,0,0,.7-.35,3.43,3.43,0,0,0,.5-.43.63.63,0,0,1,.4-.14.54.54,0,0,1,.54.53.6.6,0,0,1-.26.47,4.18,4.18,0,0,1-1.19.85A3.64,3.64,0,0,1,204.26,255Z"/><path class="cls-9" d="M213.84,246.56a2.76,2.76,0,0,1,1.68.44,2.42,2.42,0,0,1,.87,1.17,5.1,5.1,0,0,1,.25,1.64v4.4a.6.6,0,0,1-.17.46.64.64,0,0,1-.45.19.6.6,0,0,1-.44-.19.62.62,0,0,1-.19-.46v-4.37a3,3,0,0,0-.17-1.07,1.69,1.69,0,0,0-.6-.77,2,2,0,0,0-1.14-.29,2.56,2.56,0,0,0-2.08,1.06,1.85,1.85,0,0,0-.33,1.07v4.37a.61.61,0,0,1-.18.46.6.6,0,0,1-.44.19.62.62,0,0,1-.45-.19.65.65,0,0,1-.18-.46v-6.85a.63.63,0,0,1,.18-.45.65.65,0,0,1,.9,0,.62.62,0,0,1,.17.45v1.1l-.31.36a2.26,2.26,0,0,1,.35-.83,3.52,3.52,0,0,1,1.65-1.27A3.08,3.08,0,0,1,213.84,246.56Z"/><path class="cls-9" d="M218.91,253.57a.6.6,0,0,1-.13-.43.51.51,0,0,1,.26-.4.61.61,0,0,1,.37-.1.65.65,0,0,1,.39.21,3.47,3.47,0,0,0,1,.82,2.78,2.78,0,0,0,1.38.3,3.87,3.87,0,0,0,.76-.11,1.52,1.52,0,0,0,.63-.39,1,1,0,0,0,.26-.73.89.89,0,0,0-.27-.69,1.81,1.81,0,0,0-.69-.42,7.6,7.6,0,0,0-.92-.3,10.26,10.26,0,0,1-1-.32,3.79,3.79,0,0,1-.9-.45,2.29,2.29,0,0,1-.65-.7,1.94,1.94,0,0,1-.23-1,2.07,2.07,0,0,1,.38-1.22,2.51,2.51,0,0,1,1-.79,3.64,3.64,0,0,1,1.42-.29,4.71,4.71,0,0,1,.92.1,3.82,3.82,0,0,1,1,.35,2.72,2.72,0,0,1,.8.67.71.71,0,0,1,.16.39.49.49,0,0,1-.21.42.57.57,0,0,1-.38.11.48.48,0,0,1-.35-.16,2.36,2.36,0,0,0-.83-.6,2.9,2.9,0,0,0-1.09-.21,2.65,2.65,0,0,0-.74.11,1.41,1.41,0,0,0-.59.37,1,1,0,0,0,0,1.4,1.79,1.79,0,0,0,.71.43c.31.11.64.22,1,.32s.66.18,1,.29a3.34,3.34,0,0,1,.84.43,1.93,1.93,0,0,1,.59.68,2.22,2.22,0,0,1,.22,1,1.91,1.91,0,0,1-.41,1.24,2.56,2.56,0,0,1-1.06.81,3.76,3.76,0,0,1-1.44.27,4.51,4.51,0,0,1-1.7-.33A3.33,3.33,0,0,1,218.91,253.57Z"/><path class="cls-9" d="M231.55,246.81h3.68a.59.59,0,0,1,.42.17.57.57,0,0,1,.17.41.58.58,0,0,1-.17.41.54.54,0,0,1-.42.16h-3.68a.51.51,0,0,1-.4-.17.56.56,0,0,1-.18-.42.54.54,0,0,1,.18-.4A.55.55,0,0,1,231.55,246.81Zm1.65-2.13a.57.57,0,0,1,.44.17.62.62,0,0,1,.17.45v7.6a1.1,1.1,0,0,0,.11.56.57.57,0,0,0,.29.26.92.92,0,0,0,.36.07.66.66,0,0,0,.27-.06.61.61,0,0,1,.27,0,.4.4,0,0,1,.29.15.54.54,0,0,1,0,.76.62.62,0,0,1-.16.1,1.33,1.33,0,0,1-.73.19h-.54a1.65,1.65,0,0,1-.64-.2,1.46,1.46,0,0,1-.53-.57,2.55,2.55,0,0,1-.2-1.13v-7.62a.84.84,0,0,1,.64-.73Z"/><path class="cls-9" d="M241.86,246.63a2.69,2.69,0,0,1,1.63.45,2.33,2.33,0,0,1,.86,1.19,4.65,4.65,0,0,1,.27,1.65v4.29a.62.62,0,0,1-.19.46.6.6,0,0,1-.44.19.64.64,0,0,1-.45-.19.6.6,0,0,1-.17-.46V250a3.31,3.31,0,0,0-.18-1.08,1.65,1.65,0,0,0-.57-.76,1.81,1.81,0,0,0-1.09-.29,2.43,2.43,0,0,0-2,1,2,2,0,0,0-.29,1.08v4.29a.67.67,0,0,1-.18.46.59.59,0,0,1-.45.18.55.55,0,0,1-.44-.18.62.62,0,0,1-.19-.46V243.89a.64.64,0,0,1,.19-.45.58.58,0,0,1,.44-.17.6.6,0,0,1,.46.17.7.7,0,0,1,.17.45v4.68l-.32.35a2.46,2.46,0,0,1,.34-.82,2.82,2.82,0,0,1,.68-.74,3.19,3.19,0,0,1,.91-.53A3,3,0,0,1,241.86,246.63Z"/><path class="cls-9" d="M251,255a4.3,4.3,0,0,1-2.19-.53,3.73,3.73,0,0,1-1.46-1.46,4.53,4.53,0,0,1-.52-2.16,4.74,4.74,0,0,1,.55-2.33,3.87,3.87,0,0,1,1.4-1.47,3.45,3.45,0,0,1,1.83-.5,3.55,3.55,0,0,1,1.4.26,3.75,3.75,0,0,1,1.19.77,4,4,0,0,1,1.17,2.82.57.57,0,0,1-.21.42.66.66,0,0,1-.44.17H247.5l-.28-1.08h6l-.25.22v-.34a2,2,0,0,0-.41-1.11,2.74,2.74,0,0,0-.91-.71,2.61,2.61,0,0,0-1.11-.25,2.69,2.69,0,0,0-.93.17,2.17,2.17,0,0,0-.83.52,2.68,2.68,0,0,0-.59,1,4.14,4.14,0,0,0-.23,1.39,3.35,3.35,0,0,0,.38,1.61,2.81,2.81,0,0,0,1,1.09,3,3,0,0,0,1.57.39,2.75,2.75,0,0,0,1-.15,2.55,2.55,0,0,0,.7-.35,4.07,4.07,0,0,0,.49-.43.7.7,0,0,1,.41-.14.55.55,0,0,1,.38.16.46.46,0,0,1,.15.37.59.59,0,0,1-.25.47,4.09,4.09,0,0,1-1.2.85A3.5,3.5,0,0,1,251,255Z"/><path class="cls-9" d="M264.66,255a5,5,0,0,1-3.73-1.44,1.08,1.08,0,0,1-.18-.24.73.73,0,0,1-.07-.3.63.63,0,0,1,.19-.44.57.57,0,0,1,.8,0l0,0a4,4,0,0,0,1.33.91,3.8,3.8,0,0,0,1.59.32,3.38,3.38,0,0,0,1.26-.22,2.15,2.15,0,0,0,.88-.61,1.3,1.3,0,0,0,.33-.9,1.63,1.63,0,0,0-.37-1,2.82,2.82,0,0,0-1-.69,8.94,8.94,0,0,0-1.44-.46,7.79,7.79,0,0,1-1.32-.42,4.18,4.18,0,0,1-1-.61,2.62,2.62,0,0,1-.68-.9,2.9,2.9,0,0,1-.24-1.23,2.69,2.69,0,0,1,.46-1.56,3.08,3.08,0,0,1,1.3-1,4.72,4.72,0,0,1,2-.37,5.07,5.07,0,0,1,1.81.31,3.39,3.39,0,0,1,1.37.86.8.8,0,0,1,.32.58.67.67,0,0,1-.64.62.39.39,0,0,1-.31-.12,2.9,2.9,0,0,0-.68-.53,3.79,3.79,0,0,0-3.21-.35,1.87,1.87,0,0,0-.85.59,1.37,1.37,0,0,0-.3.91,1.36,1.36,0,0,0,.34,1,2.44,2.44,0,0,0,.92.63,9.62,9.62,0,0,0,1.28.43,13.69,13.69,0,0,1,1.42.43,4.07,4.07,0,0,1,1.12.61,2.5,2.5,0,0,1,.73.91,3.21,3.21,0,0,1,.25,1.37,2.52,2.52,0,0,1-.47,1.53,3.3,3.3,0,0,1-1.34,1.06A4.46,4.46,0,0,1,264.66,255Z"/><path class="cls-9" d="M274.64,245.52l-3.68,9a.65.65,0,0,1-.22.3.48.48,0,0,1-.33.1.56.56,0,0,1-.44-.15.57.57,0,0,1-.14-.37.49.49,0,0,1,0-.24l4.05-9.86a.64.64,0,0,1,.25-.33.6.6,0,0,1,.37-.09.64.64,0,0,1,.36.11.56.56,0,0,1,.23.31l4,9.78a.75.75,0,0,1,.05.26.53.53,0,0,1-.19.44.54.54,0,0,1-.42.16.55.55,0,0,1-.35-.1.62.62,0,0,1-.23-.32l-3.72-8.95Zm-2.94,6.41.53-1.22h4.66l.22,1.22Z"/><path class="cls-9" d="M282,254.86a.65.65,0,0,1-.65-.65v-9.69a.64.64,0,0,1,.19-.45.59.59,0,0,1,.44-.18h5.5a.63.63,0,0,1,.45.18.58.58,0,0,1,0,.86.66.66,0,0,1-.45.17h-4.89l.08-.13v3.84l-.07-.17h4.21a.63.63,0,0,1,.45.18.58.58,0,0,1,.19.45.56.56,0,0,1-.19.41.57.57,0,0,1-.45.18h-4.24l.1-.14v4.49a.61.61,0,0,1-.18.46A.65.65,0,0,1,282,254.86Z"/><path class="cls-9" d="M291.19,243.89h5.58a.63.63,0,0,1,.45.18.55.55,0,0,1,.18.43.52.52,0,0,1-.18.43.68.68,0,0,1-.45.17h-5l.14-.27v4l-.15-.18h4.35a.63.63,0,0,1,.45.18.53.53,0,0,1,.19.44.52.52,0,0,1-.19.43.65.65,0,0,1-.45.15h-4.3l.1-.13v4.05l-.09-.11h5a.64.64,0,0,1,.45.19.58.58,0,0,1,.18.43.55.55,0,0,1-.18.43.67.67,0,0,1-.45.18h-5.58a.64.64,0,0,1-.45-.19.65.65,0,0,1-.18-.46v-9.69a.61.61,0,0,1,.59-.63Z"/><path class="cls-9" d="M38.81,266.26a.62.62,0,0,1,.45.17.65.65,0,0,1,.17.45v6.91a.62.62,0,0,1-.18.46.57.57,0,0,1-.44.18.57.57,0,0,1-.45-.18.67.67,0,0,1-.18-.46V272.3h.3a1.7,1.7,0,0,1-.24.75,2.76,2.76,0,0,1-.64.76,3.42,3.42,0,0,1-1,.58,3.28,3.28,0,0,1-1.2.23,3.52,3.52,0,0,1-2-.56,3.87,3.87,0,0,1-1.33-1.51,5.12,5.12,0,0,1,0-4.36,3.9,3.9,0,0,1,1.33-1.49,3.63,3.63,0,0,1,3.15-.32,3.32,3.32,0,0,1,1,.59,2.82,2.82,0,0,1,.67.83,2,2,0,0,1,.23.92l-.4-.1v-1.71a.64.64,0,0,1,.18-.45A.61.61,0,0,1,38.81,266.26Zm-3.18,7.19A2.38,2.38,0,0,0,37,273a3,3,0,0,0,1-1.1,3.82,3.82,0,0,0,0-3.14,2.94,2.94,0,0,0-1-1.09,2.39,2.39,0,0,0-1.39-.42,2.45,2.45,0,0,0-1.37.39,2.75,2.75,0,0,0-1,1.08,3.79,3.79,0,0,0,0,3.16,2.81,2.81,0,0,0,1,1.1A2.39,2.39,0,0,0,35.63,273.45Z"/><path class="cls-9" d="M46.14,266.21a3.51,3.51,0,0,1,1.91.53,4,4,0,0,1,1.34,1.48,5,5,0,0,1,0,4.31A4,4,0,0,1,48.06,274a3.52,3.52,0,0,1-1.89.54,3.13,3.13,0,0,1-1.09-.19,3.7,3.7,0,0,1-.93-.47,3,3,0,0,1-.69-.65,2.91,2.91,0,0,1-.41-.73l.35-.22v4.62a.67.67,0,0,1-.18.46.67.67,0,0,1-.9,0,.64.64,0,0,1-.17-.47v-10a.63.63,0,0,1,.17-.45.67.67,0,0,1,.9,0,.64.64,0,0,1,.18.45v1.39l-.24-.11a2.11,2.11,0,0,1,.39-.76,2.51,2.51,0,0,1,.67-.63,2.93,2.93,0,0,1,.89-.43A3.26,3.26,0,0,1,46.14,266.21ZM46,267.36a2.5,2.5,0,0,0-1.38.4,2.7,2.7,0,0,0-1,1.06,3.73,3.73,0,0,0,0,3.11,2.64,2.64,0,0,0,4.72,0,3.5,3.5,0,0,0,.34-1.55,3.38,3.38,0,0,0-.34-1.56,2.63,2.63,0,0,0-1-1.06A2.5,2.5,0,0,0,46,267.36Z"/><path class="cls-9" d="M56.06,266.21a3.47,3.47,0,0,1,1.91.53,3.75,3.75,0,0,1,1.34,1.48,4.94,4.94,0,0,1,0,4.31A3.82,3.82,0,0,1,58,274a3.49,3.49,0,0,1-1.89.54,3,3,0,0,1-1.08-.19,3.48,3.48,0,0,1-.92-.47,3.14,3.14,0,0,1-.71-.65,2.6,2.6,0,0,1-.4-.73l.34-.22v4.62a.66.66,0,0,1-.17.46.59.59,0,0,1-.45.18.57.57,0,0,1-.43-.19.65.65,0,0,1-.18-.47v-10a.6.6,0,0,1,.59-.62h0a.59.59,0,0,1,.45.17.63.63,0,0,1,.17.45v1.39l-.23-.11a2,2,0,0,1,.38-.76,2.91,2.91,0,0,1,.68-.63,3.19,3.19,0,0,1,.89-.43A3.08,3.08,0,0,1,56.06,266.21Zm-.13,1.15a2.53,2.53,0,0,0-1.39.4,2.63,2.63,0,0,0-1,1.06,3.37,3.37,0,0,0-.33,1.56,3.49,3.49,0,0,0,.33,1.55,2.59,2.59,0,0,0,1,1.07,2.64,2.64,0,0,0,2.76,0,2.66,2.66,0,0,0,1-1.07,3.32,3.32,0,0,0,.35-1.55,3.39,3.39,0,0,0-.35-1.56,2.78,2.78,0,0,0-1-1.06A2.49,2.49,0,0,0,55.93,267.36Z"/><path class="cls-9" d="M74.31,270.36a4.41,4.41,0,0,1-.53,2.17,4,4,0,0,1-7,0,4.69,4.69,0,0,1,0-4.34,4.14,4.14,0,0,1,1.46-1.51,4.19,4.19,0,0,1,4.14,0,4,4,0,0,1,1.47,1.51A4.42,4.42,0,0,1,74.31,270.36Zm-1.25,0a3.31,3.31,0,0,0-.38-1.6,2.8,2.8,0,0,0-1-1.08,2.69,2.69,0,0,0-3.84,1.08,3.58,3.58,0,0,0,0,3.19A2.69,2.69,0,0,0,71.71,273a2.8,2.8,0,0,0,1-1.08A3.27,3.27,0,0,0,73.06,270.36Z"/><path class="cls-9" d="M80.54,266.13a2.85,2.85,0,0,1,1.68.44,2.4,2.4,0,0,1,.87,1.18,5.06,5.06,0,0,1,.25,1.64v4.4a.66.66,0,0,1-.17.46.63.63,0,0,1-.45.18.55.55,0,0,1-.44-.18.6.6,0,0,1-.19-.46v-4.37a2.85,2.85,0,0,0-.18-1.08,1.58,1.58,0,0,0-.59-.76,2,2,0,0,0-1.14-.29,2.52,2.52,0,0,0-2.08,1,1.91,1.91,0,0,0-.33,1.08v4.37a.67.67,0,0,1-.18.46.57.57,0,0,1-.44.18.57.57,0,0,1-.45-.18.67.67,0,0,1-.18-.46v-6.86a.64.64,0,0,1,.18-.45.67.67,0,0,1,.9,0,.63.63,0,0,1,.17.45V268l-.31.35a2.29,2.29,0,0,1,.35-.82,3.52,3.52,0,0,1,1.65-1.27A3.05,3.05,0,0,1,80.54,266.13Z"/><path class="cls-9" d="M90.44,266.39h3.68a.53.53,0,0,1,.41.16.58.58,0,0,1,.17.41.57.57,0,0,1-.56.58h-3.7a.54.54,0,0,1-.41-.18.59.59,0,0,1-.17-.42.55.55,0,0,1,.58-.55Zm1.64-2.14a.59.59,0,0,1,.44.18.66.66,0,0,1,.17.45v7.59a1.07,1.07,0,0,0,.12.56.61.61,0,0,0,.28.27.83.83,0,0,0,.35.06.54.54,0,0,0,.28-.05.62.62,0,0,1,.27,0,.39.39,0,0,1,.3.14.59.59,0,0,1,.12.38.55.55,0,0,1-.32.48,1.49,1.49,0,0,1-.74.2h-.54a1.43,1.43,0,0,1-.63-.21,1.36,1.36,0,0,1-.53-.56,2.42,2.42,0,0,1-.23-1.27v-7.62a.67.67,0,0,1,.18-.45A.71.71,0,0,1,92.08,264.25Z"/><path class="cls-9" d="M100.75,266.21a2.62,2.62,0,0,1,1.63.45,2.47,2.47,0,0,1,.86,1.18,5.24,5.24,0,0,1,.26,1.66v4.29a.67.67,0,0,1-.18.46.59.59,0,0,1-.45.18.55.55,0,0,1-.44-.18.68.68,0,0,1-.19-.46v-4.25a3.29,3.29,0,0,0-.16-1.08,1.56,1.56,0,0,0-.58-.76,1.82,1.82,0,0,0-1.09-.3,2.4,2.4,0,0,0-1.17.3,2.27,2.27,0,0,0-.84.76,2,2,0,0,0-.32,1.08v4.28a.6.6,0,0,1-.18.46.54.54,0,0,1-.44.19.55.55,0,0,1-.45-.19.65.65,0,0,1-.18-.46V263.47a.64.64,0,0,1,1.08-.45.62.62,0,0,1,.17.45v4.68l-.31.35a2.46,2.46,0,0,1,.34-.82,2.86,2.86,0,0,1,.68-.75,3.16,3.16,0,0,1,.91-.52A2.88,2.88,0,0,1,100.75,266.21Z"/><path class="cls-9" d="M109.88,274.59a4.38,4.38,0,0,1-2.19-.53,3.63,3.63,0,0,1-1.46-1.47,4.25,4.25,0,0,1-.52-2.15,4.62,4.62,0,0,1,.54-2.33,4,4,0,0,1,1.4-1.47,3.5,3.5,0,0,1,1.84-.51,3.75,3.75,0,0,1,1.4.27,3.54,3.54,0,0,1,1.18.77,3.8,3.8,0,0,1,.84,1.22,4.4,4.4,0,0,1,.33,1.6.62.62,0,0,1-.2.42.6.6,0,0,1-.44.16h-6.19l-.31-1h6l-.26.21v-.34a2,2,0,0,0-.41-1.11,2.47,2.47,0,0,0-.9-.7,2.61,2.61,0,0,0-1.1-.26,2.93,2.93,0,0,0-1,.17,2.11,2.11,0,0,0-.82.53,2.55,2.55,0,0,0-.6,1,4.39,4.39,0,0,0-.22,1.39,3.28,3.28,0,0,0,.38,1.6,2.76,2.76,0,0,0,1,1.09,3,3,0,0,0,1.53.4,2.75,2.75,0,0,0,1-.15,2,2,0,0,0,.69-.35,2.52,2.52,0,0,0,.49-.43.91.91,0,0,1,.42-.14.55.55,0,0,1,.38.16.5.5,0,0,1,.14.37.58.58,0,0,1-.24.47,4.32,4.32,0,0,1-1.19.85A3.59,3.59,0,0,1,109.88,274.59Z"/><path class="cls-9" d="M116,265.16a.89.89,0,0,1-.57-.15.62.62,0,0,1-.2-.49v-.22a.58.58,0,0,1,.21-.49,1,1,0,0,1,.57-.16.93.93,0,0,1,.57.16.61.61,0,0,1,.19.49v.22a.62.62,0,0,1-.2.49A1,1,0,0,1,116,265.16Zm.63,8.63a.62.62,0,0,1-.18.46.59.59,0,0,1-.45.18.61.61,0,0,1-.46-.18.66.66,0,0,1-.16-.46v-7a.66.66,0,0,1,.17-.45.6.6,0,0,1,.45-.18.59.59,0,0,1,.45.18.61.61,0,0,1,.18.45Z"/><path class="cls-9" d="M119.91,274.43a.55.55,0,0,1-.44-.18.68.68,0,0,1-.19-.46v-6.86a.64.64,0,0,1,.19-.45.61.61,0,0,1,.44-.17.6.6,0,0,1,.46.17.7.7,0,0,1,.17.45V269l-.19-.33a3.24,3.24,0,0,1,.33-1,3.43,3.43,0,0,1,.63-.83,2.61,2.61,0,0,1,.86-.58,2.55,2.55,0,0,1,1.06-.22,1.27,1.27,0,0,1,.63.17.51.51,0,0,1,.3.46.64.64,0,0,1-.18.49.54.54,0,0,1-.39.15.88.88,0,0,1-.39-.08,1,1,0,0,0-.47-.09,1.49,1.49,0,0,0-.77.21,2.73,2.73,0,0,0-.71.6,3.46,3.46,0,0,0-.52.89,2.76,2.76,0,0,0-.19,1.06v3.8a.67.67,0,0,1-.18.46A.61.61,0,0,1,119.91,274.43Z"/><path class="cls-9" d="M130.2,273.15a.75.75,0,0,1-.13-.43.62.62,0,0,1,.64-.5.62.62,0,0,1,.38.2,3.41,3.41,0,0,0,1,.83,2.84,2.84,0,0,0,1.38.3,3.09,3.09,0,0,0,.74-.12,1.33,1.33,0,0,0,.64-.39,1,1,0,0,0,.26-.72.92.92,0,0,0-.26-.7,2.08,2.08,0,0,0-.7-.42,5.79,5.79,0,0,0-.92-.29c-.34-.1-.68-.21-1-.33a3.16,3.16,0,0,1-.9-.45,2,2,0,0,1-.64-.69,2,2,0,0,1-.25-1,2,2,0,0,1,.38-1.22,2.63,2.63,0,0,1,1-.8,3.63,3.63,0,0,1,1.42-.28,4,4,0,0,1,.91.1,3.48,3.48,0,0,1,1,.35,2.32,2.32,0,0,1,.79.67.55.55,0,0,1,.16.39.53.53,0,0,1-.2.42.6.6,0,0,1-.39.11.57.57,0,0,1-.35-.16,2.15,2.15,0,0,0-.82-.61,2.74,2.74,0,0,0-1.09-.2,2.57,2.57,0,0,0-.73.1,1.4,1.4,0,0,0-.61.38.94.94,0,0,0-.24.7,1,1,0,0,0,.28.7,2,2,0,0,0,.72.43l1,.32c.33.08.66.17,1,.28a3.44,3.44,0,0,1,.83.43,2,2,0,0,1,.6.69,2.19,2.19,0,0,1,.22,1,1.93,1.93,0,0,1-.41,1.24,2.48,2.48,0,0,1-1.07.8,3.72,3.72,0,0,1-1.43.28,4.48,4.48,0,0,1-1.7-.34A3.34,3.34,0,0,1,130.2,273.15Z"/><path class="cls-9" d="M142.31,266.21a2.46,2.46,0,0,1,2.62,2.06h-.24l.12-.28a2.51,2.51,0,0,1,.64-.84,4,4,0,0,1,1-.68,3.18,3.18,0,0,1,1.25-.26,2.59,2.59,0,0,1,1.62.45,2.39,2.39,0,0,1,.85,1.18,4.81,4.81,0,0,1,.27,1.68v4.27a.63.63,0,0,1-.19.46.55.55,0,0,1-.44.18.61.61,0,0,1-.46-.18.66.66,0,0,1-.16-.46v-4.25a3.24,3.24,0,0,0-.19-1.11,1.61,1.61,0,0,0-.58-.78,1.81,1.81,0,0,0-1.08-.3,2.41,2.41,0,0,0-1.18.3,2.25,2.25,0,0,0-.84.78,2,2,0,0,0-.31,1.11v4.24a.67.67,0,0,1-.18.46.65.65,0,0,1-.9,0,.67.67,0,0,1-.18-.46v-4.24a3.29,3.29,0,0,0-.16-1.08,1.58,1.58,0,0,0-.56-.76,1.81,1.81,0,0,0-1.08-.3,2.29,2.29,0,0,0-1.14.3,2.36,2.36,0,0,0-.84.76,2.05,2.05,0,0,0-.31,1.08v4.28a.63.63,0,0,1-1.07.47h0a.64.64,0,0,1-.17-.46V267a.6.6,0,0,1,.59-.62h0a.59.59,0,0,1,.45.17.68.68,0,0,1,.17.45v1.19l-.32.4a1.84,1.84,0,0,1,.32-.81,2.86,2.86,0,0,1,.67-.76,3.07,3.07,0,0,1,.9-.55A2.86,2.86,0,0,1,142.31,266.21Z"/><path class="cls-9" d="M159.8,266.26a.66.66,0,0,1,.46.17.75.75,0,0,1,.16.45v6.91a.66.66,0,0,1-.17.46.59.59,0,0,1-.45.18.55.55,0,0,1-.44-.18.6.6,0,0,1-.19-.46V272.3h.3a1.57,1.57,0,0,1-.23.75,2.79,2.79,0,0,1-.65.76,3.34,3.34,0,0,1-1,.58,3.18,3.18,0,0,1-1.18.23,3.49,3.49,0,0,1-2-.56,3.91,3.91,0,0,1-1.34-1.51,4.83,4.83,0,0,1-.49-2.18,4.68,4.68,0,0,1,.5-2.18,3.82,3.82,0,0,1,1.33-1.49,3.41,3.41,0,0,1,1.89-.54,3.34,3.34,0,0,1,2.26.81,3.14,3.14,0,0,1,.67.83,2,2,0,0,1,.23.92l-.41-.1v-1.71a.6.6,0,0,1,.19-.45A.59.59,0,0,1,159.8,266.26Zm-3.22,7.19A2.35,2.35,0,0,0,158,273a2.64,2.64,0,0,0,1-1.1,3.74,3.74,0,0,0,0-3.14,2.75,2.75,0,0,0-1-1.09,2.59,2.59,0,0,0-2.75,0,2.69,2.69,0,0,0-1,1.08,3.79,3.79,0,0,0,0,3.16,2.67,2.67,0,0,0,1,1.1A2.3,2.3,0,0,0,156.58,273.45Z"/><path class="cls-9" d="M163.76,274.43a.63.63,0,0,1-.45-.18.67.67,0,0,1-.18-.46v-6.86a.61.61,0,0,1,.59-.62h0a.58.58,0,0,1,.45.17.64.64,0,0,1,.18.45V269l-.19-.33a3.24,3.24,0,0,1,.33-1,3.4,3.4,0,0,1,.62-.83,2.78,2.78,0,0,1,.86-.58,2.63,2.63,0,0,1,1.07-.22,1.27,1.27,0,0,1,.63.17.51.51,0,0,1,.3.46.64.64,0,0,1-.18.49.56.56,0,0,1-.39.15.88.88,0,0,1-.39-.08,1,1,0,0,0-.47-.09,1.49,1.49,0,0,0-.77.21,2.73,2.73,0,0,0-.71.6,3.46,3.46,0,0,0-.52.89,2.76,2.76,0,0,0-.19,1.06v3.8a.67.67,0,0,1-.18.46A.61.61,0,0,1,163.76,274.43Z"/><path class="cls-9" d="M169.5,266.39h3.68a.53.53,0,0,1,.41.16.62.62,0,0,1,.16.41.56.56,0,0,1-.55.58h-3.7a.56.56,0,0,1-.42-.18.54.54,0,0,1-.17-.42.54.54,0,0,1,.17-.4A.59.59,0,0,1,169.5,266.39Zm1.64-2.14a.55.55,0,0,1,.43.18.63.63,0,0,1,.18.45v7.59a1.17,1.17,0,0,0,.1.56.66.66,0,0,0,.3.27.83.83,0,0,0,.35.06.49.49,0,0,0,.27-.05.66.66,0,0,1,.28,0,.38.38,0,0,1,.28.14.54.54,0,0,1,0,.76.39.39,0,0,1-.16.1,1.49,1.49,0,0,1-.74.2h-.54a1.43,1.43,0,0,1-.63-.21,1.28,1.28,0,0,1-.52-.56,2.46,2.46,0,0,1-.22-1.13V265a.86.86,0,0,1,.65-.74Z"/><path class="cls-9" d="M176.21,270.73a.6.6,0,0,1-.63-.63.63.63,0,0,1,.18-.45.66.66,0,0,1,.45-.17h3.16a.62.62,0,0,1,.45.19.64.64,0,0,1,.18.45.59.59,0,0,1-.18.44.58.58,0,0,1-.45.17Z"/><path class="cls-9" d="M186.41,266.21a3.49,3.49,0,0,1,1.91.53,3.89,3.89,0,0,1,1.34,1.48,5,5,0,0,1,0,4.31,4,4,0,0,1-1.33,1.49,3.52,3.52,0,0,1-1.89.54,3.13,3.13,0,0,1-1.09-.19,3.7,3.7,0,0,1-.93-.47,3,3,0,0,1-.69-.65,2.91,2.91,0,0,1-.41-.73l.35-.22v4.62a.67.67,0,0,1-.18.46.67.67,0,0,1-.9,0,.64.64,0,0,1-.17-.47v-10a.63.63,0,0,1,.17-.45.67.67,0,0,1,.9,0,.64.64,0,0,1,.18.45v1.39l-.24-.11a2.11,2.11,0,0,1,.39-.76,2.51,2.51,0,0,1,.67-.63,2.93,2.93,0,0,1,.89-.43A3.26,3.26,0,0,1,186.41,266.21Zm-.15,1.15a2.52,2.52,0,0,0-1.38.4,2.57,2.57,0,0,0-1,1.06,3.51,3.51,0,0,0-.34,1.56,3.64,3.64,0,0,0,.34,1.55,2.6,2.6,0,0,0,1,1.07,2.64,2.64,0,0,0,3.74-1.07,3.5,3.5,0,0,0,.34-1.55,3.38,3.38,0,0,0-.34-1.56,2.7,2.7,0,0,0-1-1.06,2.5,2.5,0,0,0-1.38-.4Z"/><path class="cls-9" d="M196.26,266.21a2.62,2.62,0,0,1,1.63.45,2.36,2.36,0,0,1,.86,1.18,5.25,5.25,0,0,1,.27,1.66v4.29a.68.68,0,0,1-.19.46.55.55,0,0,1-.44.18.57.57,0,0,1-.45-.18.67.67,0,0,1-.18-.46v-4.25a3.05,3.05,0,0,0-.17-1.08,1.65,1.65,0,0,0-.57-.76,1.87,1.87,0,0,0-1.1-.3,2.4,2.4,0,0,0-1.17.3,2.27,2.27,0,0,0-.84.76,2,2,0,0,0-.32,1.08v4.28a.63.63,0,0,1-1.07.47h0a.65.65,0,0,1-.18-.46V263.47a.61.61,0,0,1,.59-.63h0a.59.59,0,0,1,.45.18.62.62,0,0,1,.17.45v4.68l-.31.35a2.46,2.46,0,0,1,.34-.82,2.86,2.86,0,0,1,.68-.75,3.16,3.16,0,0,1,.91-.52A2.88,2.88,0,0,1,196.26,266.21Z"/><path class="cls-9" d="M209.33,270.36a4.31,4.31,0,0,1-.53,2.17,4,4,0,0,1-5.46,1.59,4,4,0,0,1-1.58-1.59,4.63,4.63,0,0,1,0-4.34,4.07,4.07,0,0,1,1.46-1.51,4.19,4.19,0,0,1,4.14,0,4.09,4.09,0,0,1,1.44,1.51A4.31,4.31,0,0,1,209.33,270.36Zm-1.25,0a3.42,3.42,0,0,0-.37-1.6,2.83,2.83,0,0,0-1-1.08,2.77,2.77,0,0,0-2.86,0,2.83,2.83,0,0,0-1,1.08,3.65,3.65,0,0,0,0,3.19,2.83,2.83,0,0,0,1,1.08,2.73,2.73,0,0,0,2.86,0,2.83,2.83,0,0,0,1-1.08A3.38,3.38,0,0,0,208.08,270.36Z"/><path class="cls-9" d="M215.57,266.13a2.82,2.82,0,0,1,1.67.44,2.49,2.49,0,0,1,.87,1.18,5.07,5.07,0,0,1,.26,1.64v4.4a.67.67,0,0,1-.18.46.63.63,0,0,1-.45.18.55.55,0,0,1-.44-.18.68.68,0,0,1-.19-.46v-4.37a3.05,3.05,0,0,0-.17-1.08,1.72,1.72,0,0,0-.6-.76,2,2,0,0,0-1.13-.29,2.53,2.53,0,0,0-2.09,1,1.91,1.91,0,0,0-.33,1.08v4.37a.67.67,0,0,1-.18.46.55.55,0,0,1-.44.18.59.59,0,0,1-.45-.18.67.67,0,0,1-.18-.46v-6.86a.69.69,0,0,1,.18-.45.67.67,0,0,1,.9,0,.7.7,0,0,1,.17.45V268l-.31.35a2.15,2.15,0,0,1,.36-.82,3.49,3.49,0,0,1,1.64-1.27A3.11,3.11,0,0,1,215.57,266.13Z"/><path class="cls-9" d="M224.74,274.59a4.49,4.49,0,0,1-2.19-.53,3.66,3.66,0,0,1-1.45-1.47,4.25,4.25,0,0,1-.52-2.15,4.62,4.62,0,0,1,.54-2.33,3.88,3.88,0,0,1,1.4-1.47,3.55,3.55,0,0,1,1.83-.51,3.8,3.8,0,0,1,1.41.27,3.7,3.7,0,0,1,1.18.77,3.92,3.92,0,0,1,.84,1.22,4.4,4.4,0,0,1,.33,1.6.62.62,0,0,1-.2.42.6.6,0,0,1-.44.16h-6.19L221,269.5h6l-.26.21v-.34a2,2,0,0,0-.41-1.11,2.48,2.48,0,0,0-2-.93,2.64,2.64,0,0,0-.93.16,2.18,2.18,0,0,0-.84.53,2.63,2.63,0,0,0-.58,1,3.89,3.89,0,0,0-.22,1.39,3.28,3.28,0,0,0,.37,1.6,2.86,2.86,0,0,0,1,1.09,2.94,2.94,0,0,0,1.53.4,2.75,2.75,0,0,0,1-.15,2,2,0,0,0,.69-.35,2.52,2.52,0,0,0,.49-.43.87.87,0,0,1,.41-.14.54.54,0,0,1,.53.53.58.58,0,0,1-.24.47,3.9,3.9,0,0,1-1.21.85A3.47,3.47,0,0,1,224.74,274.59Z"/><path class="cls-9" d="M229.85,273.15a.68.68,0,0,1-.13-.43.52.52,0,0,1,.27-.4.55.55,0,0,1,.37-.1.62.62,0,0,1,.38.2,3.41,3.41,0,0,0,1,.83,2.8,2.8,0,0,0,1.37.3,3.17,3.17,0,0,0,.75-.12,1.43,1.43,0,0,0,.64-.39,1,1,0,0,0,.25-.72.92.92,0,0,0-.26-.7,1.89,1.89,0,0,0-.69-.42,5.9,5.9,0,0,0-.93-.29c-.34-.1-.68-.21-1-.33a4,4,0,0,1-.9-.45,2,2,0,0,1-.63-.69,1.88,1.88,0,0,1-.25-1,2,2,0,0,1,.38-1.22,2.48,2.48,0,0,1,1-.8,3.63,3.63,0,0,1,1.42-.28,4,4,0,0,1,.91.1,3.37,3.37,0,0,1,.93.35,2.58,2.58,0,0,1,.8.67.55.55,0,0,1,.16.39.5.5,0,0,1-.2.42.68.68,0,0,1-.39.11.57.57,0,0,1-.35-.16,2.26,2.26,0,0,0-.82-.61,2.74,2.74,0,0,0-1.09-.2,2.57,2.57,0,0,0-.73.1,1.4,1.4,0,0,0-.61.38.94.94,0,0,0-.24.7,1,1,0,0,0,.28.7,2,2,0,0,0,.72.43l1,.32a10.09,10.09,0,0,1,1,.28,3.5,3.5,0,0,1,.84.43,2,2,0,0,1,.6.69,2.19,2.19,0,0,1,.22,1,2,2,0,0,1-.4,1.24,2.66,2.66,0,0,1-1.08.8,3.68,3.68,0,0,1-1.43.28,4.52,4.52,0,0,1-1.7-.34A3.36,3.36,0,0,1,229.85,273.15Z"/><path class="cls-9" d="M249.4,266.26a.63.63,0,0,1,.46.17.7.7,0,0,1,.17.45v6.91a.62.62,0,0,1-.18.46.57.57,0,0,1-.45.18.58.58,0,0,1-.44-.18.62.62,0,0,1-.18-.46V272.3h.3a1.57,1.57,0,0,1-.23.75,2.79,2.79,0,0,1-.65.76,3.34,3.34,0,0,1-1,.58,3.23,3.23,0,0,1-1.19.23,3.47,3.47,0,0,1-2-.56,3.83,3.83,0,0,1-1.34-1.51,4.72,4.72,0,0,1-.48-2.18,4.56,4.56,0,0,1,.49-2.18,3.75,3.75,0,0,1,1.33-1.49,3.41,3.41,0,0,1,1.89-.54,3.54,3.54,0,0,1,1.25.22,3.37,3.37,0,0,1,1,.59,3.14,3.14,0,0,1,.67.83,2,2,0,0,1,.23.92l-.41-.1v-1.71a.6.6,0,0,1,.19-.45A.59.59,0,0,1,249.4,266.26Zm-3.22,7.19a2.31,2.31,0,0,0,1.38-.41,2.74,2.74,0,0,0,1-1.1,3.74,3.74,0,0,0,0-3.14,2.78,2.78,0,0,0-1-1.09,2.42,2.42,0,0,0-1.38-.4,2.48,2.48,0,0,0-1.37.39,2.66,2.66,0,0,0-1,1.08,3.79,3.79,0,0,0,0,3.16,2.64,2.64,0,0,0,1,1.1A2.34,2.34,0,0,0,246.18,273.45Z"/><path class="cls-9" d="M256.76,266.13a2.83,2.83,0,0,1,1.68.44,2.34,2.34,0,0,1,.87,1.18,4.78,4.78,0,0,1,.26,1.64v4.4a.62.62,0,0,1-.18.46.57.57,0,0,1-.44.18.57.57,0,0,1-.45-.18.67.67,0,0,1-.18-.46v-4.37a3.06,3.06,0,0,0-.18-1.08,1.66,1.66,0,0,0-.6-.76,1.88,1.88,0,0,0-1.13-.29,2.43,2.43,0,0,0-1.21.29,2.37,2.37,0,0,0-.87.76,1.89,1.89,0,0,0-.34,1.08v4.37a.62.62,0,0,1-.17.46.65.65,0,0,1-.9,0h0a.67.67,0,0,1-.18-.46v-6.86a.6.6,0,0,1,.59-.62h0a.58.58,0,0,1,.45.17.63.63,0,0,1,.17.45V268l-.31.35a2.31,2.31,0,0,1,.36-.82,2.78,2.78,0,0,1,.71-.74,3.21,3.21,0,0,1,1-.53A3,3,0,0,1,256.76,266.13Z"/><path class="cls-9" d="M268.87,262.84a.59.59,0,0,1,.45.18.63.63,0,0,1,.18.45v10.32a.67.67,0,0,1-.18.46.65.65,0,0,1-.9,0h0a.66.66,0,0,1-.17-.46V272.3l.29-.11a1.48,1.48,0,0,1-.23.79,2.64,2.64,0,0,1-.63.78,3.37,3.37,0,0,1-1,.59,3,3,0,0,1-1.18.24,3.54,3.54,0,0,1-2-.55,3.74,3.74,0,0,1-1.33-1.51,5,5,0,0,1,0-4.36,3.78,3.78,0,0,1,1.33-1.5,3.56,3.56,0,0,1,3.11-.32,3.37,3.37,0,0,1,1,.59,2.89,2.89,0,0,1,.68.84,1.91,1.91,0,0,1,.25.91l-.41-.1v-5.12a.6.6,0,0,1,.58-.63h.12Zm-3.23,10.61a2.46,2.46,0,0,0,1.4-.4,2.74,2.74,0,0,0,1-1.1,3.79,3.79,0,0,0,0-3.16,2.83,2.83,0,0,0-1-1.08,2.43,2.43,0,0,0-1.39-.4,2.35,2.35,0,0,0-1.36.4,2.69,2.69,0,0,0-1,1.08,3.82,3.82,0,0,0,0,3.15,2.74,2.74,0,0,0,1,1.1A2.33,2.33,0,0,0,265.64,273.45Z"/><path class="cls-9" d="M42.23,280.18a.6.6,0,0,1,.64.64v10.54a.62.62,0,0,1-.18.47.57.57,0,0,1-.46.19.56.56,0,0,1-.45-.19.67.67,0,0,1-.19-.47v-1.52l.31-.11a1.73,1.73,0,0,1-.23.81,2.78,2.78,0,0,1-.66.79,3.53,3.53,0,0,1-1,.61,3,3,0,0,1-1.22.24,3.46,3.46,0,0,1-1.95-.56,3.84,3.84,0,0,1-1.37-1.54,5.22,5.22,0,0,1,0-4.46,4.09,4.09,0,0,1,1.36-1.53,3.68,3.68,0,0,1,3.18-.33,3.78,3.78,0,0,1,1,.61,3,3,0,0,1,.69.85,1.93,1.93,0,0,1,.25.93l-.42-.1v-5.23a.66.66,0,0,1,.19-.46A.65.65,0,0,1,42.23,280.18ZM38.94,291a2.46,2.46,0,0,0,1.42-.41,2.71,2.71,0,0,0,1-1.12,3.88,3.88,0,0,0,0-3.23,2.88,2.88,0,0,0-1-1.11,2.6,2.6,0,0,0-2.81,0,3,3,0,0,0-1,1.11,3.85,3.85,0,0,0,0,3.21,2.87,2.87,0,0,0,1,1.13A2.39,2.39,0,0,0,38.94,291Z"/><path class="cls-9" d="M53.42,287.86a4.31,4.31,0,0,1-.55,2.22,3.85,3.85,0,0,1-1.48,1.54,4.11,4.11,0,0,1-5.64-1.41.83.83,0,0,0-.07-.13,4.77,4.77,0,0,1,0-4.44,4.11,4.11,0,0,1,5.71-1.54,3.91,3.91,0,0,1,1.48,1.54A4.33,4.33,0,0,1,53.42,287.86Zm-1.28,0a3.46,3.46,0,0,0-.38-1.63,2.74,2.74,0,0,0-3.92-1.11,3,3,0,0,0-1,1.11,3.71,3.71,0,0,0,0,3.25,2.89,2.89,0,0,0,1,1.11,2.74,2.74,0,0,0,3.92-1.11A3.36,3.36,0,0,0,52.14,287.86Z"/><path class="cls-9" d="M65.43,283.6a.63.63,0,0,1,.63.64v.14a.33.33,0,0,1,0,.14L63.6,291.6a.61.61,0,0,1-.27.32.59.59,0,0,1-.39.1.64.64,0,0,1-.56-.42l-2-5.05.32.05-1.82,5a.6.6,0,0,1-.56.42.63.63,0,0,1-.4-.1.55.55,0,0,1-.26-.32l-2.61-7.08a1.26,1.26,0,0,1,0-.28.62.62,0,0,1,.18-.44.67.67,0,0,1,.48-.2.68.68,0,0,1,.35.1.57.57,0,0,1,.23.3l2.16,6.31h-.34l1.87-4.8a.6.6,0,0,1,.59-.4.64.64,0,0,1,.36.11.53.53,0,0,1,.2.29l2,4.8h-.4L64.83,284A.59.59,0,0,1,65.43,283.6Z"/><path class="cls-9" d="M72.3,283.54a2.92,2.92,0,0,1,1.75.48,2.41,2.41,0,0,1,.89,1.2,5,5,0,0,1,.26,1.68v4.49a.62.62,0,0,1-.18.47.57.57,0,0,1-.46.19.56.56,0,0,1-.45-.19.67.67,0,0,1-.19-.47v-4.46a3,3,0,0,0-.18-1.1,1.76,1.76,0,0,0-.69-.81,2,2,0,0,0-1.16-.3,2.64,2.64,0,0,0-2.13,1.08,2,2,0,0,0-.33,1.1v4.46a.67.67,0,0,1-.19.47.55.55,0,0,1-.45.19.58.58,0,0,1-.46-.19.66.66,0,0,1-.18-.47v-7a.67.67,0,0,1,.18-.46.68.68,0,0,1,.92,0,.62.62,0,0,1,.18.46v1.13l-.32.36a2.17,2.17,0,0,1,.36-.84,3.66,3.66,0,0,1,1.68-1.3A3.45,3.45,0,0,1,72.3,283.54Z"/><path class="cls-9" d="M79.34,291.36a.67.67,0,0,1-.19.47.59.59,0,0,1-.47.19.56.56,0,0,1-.45-.19.73.73,0,0,1-.17-.47V280.82a.67.67,0,0,1,.18-.46.68.68,0,0,1,.92,0,.62.62,0,0,1,.18.46Z"/><path class="cls-9" d="M89.83,287.86a4.4,4.4,0,0,1-.54,2.22,3.91,3.91,0,0,1-1.48,1.54,4,4,0,0,1-2.12.56,4,4,0,0,1-3.59-2.1,4.77,4.77,0,0,1,0-4.44,4.15,4.15,0,0,1,1.49-1.54,4.08,4.08,0,0,1,2.1-.56,4,4,0,0,1,3.6,2.1A4.42,4.42,0,0,1,89.83,287.86Zm-1.28,0a3.33,3.33,0,0,0-.37-1.63,2.79,2.79,0,0,0-3.92-1.11,3,3,0,0,0-1,1.11,3.78,3.78,0,0,0,0,3.25,2.89,2.89,0,0,0,1,1.11,2.8,2.8,0,0,0,1.46.41,2.6,2.6,0,0,0,1.46-.41,2.82,2.82,0,0,0,1-1.11A3.38,3.38,0,0,0,88.55,287.86Z"/><path class="cls-9" d="M98.83,283.67a.65.65,0,0,1,.46.18.62.62,0,0,1,.18.46v7.05a.67.67,0,0,1-.19.47.55.55,0,0,1-.45.19.58.58,0,0,1-.46-.19.67.67,0,0,1-.19-.47v-1.52h.31a1.49,1.49,0,0,1-.24.77,2.74,2.74,0,0,1-.66.78,3.47,3.47,0,0,1-1,.59,3.19,3.19,0,0,1-1.22.23,3.48,3.48,0,0,1-2-.57,4,4,0,0,1-1.32-1.57,5.27,5.27,0,0,1,0-4.46,4.15,4.15,0,0,1,1.36-1.52,3.49,3.49,0,0,1,1.93-.55,3.71,3.71,0,0,1,1.28.22,3.4,3.4,0,0,1,1,.61,2.93,2.93,0,0,1,.68.85,1.92,1.92,0,0,1,.24.93l-.42-.1v-1.74a.66.66,0,0,1,.19-.46A.63.63,0,0,1,98.83,283.67ZM95.53,291A2.46,2.46,0,0,0,97,290.6a2.8,2.8,0,0,0,1-1.13,3.81,3.81,0,0,0,0-3.2,2.77,2.77,0,0,0-1-1.12,2.66,2.66,0,0,0-2.82,0,3,3,0,0,0-1,1.11,3.93,3.93,0,0,0,0,3.22,3,3,0,0,0,1,1.13A2.41,2.41,0,0,0,95.53,291Z"/><path class="cls-9" d="M109,280.18a.61.61,0,0,1,.46.18.62.62,0,0,1,.18.46v10.54a.62.62,0,0,1-.18.47.64.64,0,0,1-.92,0h0a.66.66,0,0,1-.18-.47v-1.52l.3-.11a1.53,1.53,0,0,1-.23.81,2.59,2.59,0,0,1-.65.79,3.53,3.53,0,0,1-1,.61,2.79,2.79,0,0,1-1.21.24,3.54,3.54,0,0,1-2-.56,4,4,0,0,1-1.37-1.54,4.88,4.88,0,0,1-.5-2.22,5,5,0,0,1,.5-2.24,4,4,0,0,1,1.37-1.53,3.68,3.68,0,0,1,3.18-.33,3.78,3.78,0,0,1,1,.61,3.18,3.18,0,0,1,.7.85,1.93,1.93,0,0,1,.25.93l-.42-.1v-5.23a.62.62,0,0,1,.6-.64H109ZM105.67,291a2.49,2.49,0,0,0,1.43-.41,2.84,2.84,0,0,0,1-1.12,3.88,3.88,0,0,0,0-3.23,2.88,2.88,0,0,0-1-1.11,2.66,2.66,0,0,0-2.82,0,3,3,0,0,0-1,1.11,3.85,3.85,0,0,0,0,3.21,3,3,0,0,0,1,1.13A2.39,2.39,0,0,0,105.67,291Z"/><path class="cls-9" d="M111.91,290.71a.68.68,0,0,1-.12-.44.56.56,0,0,1,.27-.41.61.61,0,0,1,.37-.1.65.65,0,0,1,.4.21,3.5,3.5,0,0,0,1,.84,2.88,2.88,0,0,0,1.41.31,3.1,3.1,0,0,0,.81-.1,1.34,1.34,0,0,0,.64-.4,1,1,0,0,0,.27-.74.91.91,0,0,0-.27-.71,2,2,0,0,0-.71-.43,7.35,7.35,0,0,0-.94-.3c-.35-.1-.7-.21-1-.33a3.77,3.77,0,0,1-.92-.46,2.24,2.24,0,0,1-.66-.71,2,2,0,0,1-.25-1,2,2,0,0,1,.4-1.25,2.55,2.55,0,0,1,1-.81,3.79,3.79,0,0,1,1.45-.29,4.92,4.92,0,0,1,.94.1,3.52,3.52,0,0,1,1,.36,2.54,2.54,0,0,1,.81.68.59.59,0,0,1,.16.4.51.51,0,0,1-.2.43.62.62,0,0,1-.4.11.52.52,0,0,1-.36-.16,2.17,2.17,0,0,0-.84-.62,3,3,0,0,0-1.11-.21,2.78,2.78,0,0,0-.75.11,1.43,1.43,0,0,0-.62.38,1.06,1.06,0,0,0-.25.72,1.08,1.08,0,0,0,.29.71,2,2,0,0,0,.74.44l1,.33c.34.08.67.18,1,.29a3.81,3.81,0,0,1,.85.44,1.87,1.87,0,0,1,.61.7,2.31,2.31,0,0,1,.23,1.06,2,2,0,0,1-.42,1.27,2.5,2.5,0,0,1-1.1.82,3.65,3.65,0,0,1-1.46.28,4.53,4.53,0,0,1-1.74-.34A3.49,3.49,0,0,1,111.91,290.71Z"/><path class="cls-9" d="M124.84,283.8h3.76a.59.59,0,0,1,.42.17.55.55,0,0,1,.17.42.52.52,0,0,1-.17.42.55.55,0,0,1-.42.17h-3.76a.55.55,0,0,1-.41-.18.58.58,0,0,1,.41-1Zm1.68-2.18a.63.63,0,0,1,.45.18.62.62,0,0,1,.17.46V290a1.11,1.11,0,0,0,.12.57.59.59,0,0,0,.29.27.92.92,0,0,0,.36.07.64.64,0,0,0,.28-.06h.28a.42.42,0,0,1,.3.15.52.52,0,0,1,.14.39.57.57,0,0,1-.34.49,1.5,1.5,0,0,1-.75.2h-.56a1.51,1.51,0,0,1-.64-.21,1.32,1.32,0,0,1-.54-.58,2.64,2.64,0,0,1-.21-1.15v-7.79a.66.66,0,0,1,.19-.46A.62.62,0,0,1,126.52,281.62Z"/><path class="cls-9" d="M135.37,283.62a2.75,2.75,0,0,1,1.67.46,2.48,2.48,0,0,1,.88,1.21,4.89,4.89,0,0,1,.26,1.69v4.38a.62.62,0,0,1-.18.47.55.55,0,0,1-.45.19.58.58,0,0,1-.46-.19.66.66,0,0,1-.18-.47V287a3,3,0,0,0-.18-1.1,1.68,1.68,0,0,0-.59-.78,1.88,1.88,0,0,0-1.11-.3,2.51,2.51,0,0,0-1.2.3,2.57,2.57,0,0,0-.86.78,2,2,0,0,0-.32,1.1v4.38a.62.62,0,0,1-.18.47.64.64,0,0,1-.92,0h0a.66.66,0,0,1-.18-.47V280.82a.62.62,0,0,1,.6-.64h0a.61.61,0,0,1,.46.18.62.62,0,0,1,.18.46v4.78l-.32.36a2.38,2.38,0,0,1,.35-.84,3.13,3.13,0,0,1,.69-.76,3.48,3.48,0,0,1,.93-.54A3,3,0,0,1,135.37,283.62Z"/><path class="cls-9" d="M144.7,292.18a4.5,4.5,0,0,1-2.24-.54,3.9,3.9,0,0,1-1.49-1.5,4.53,4.53,0,0,1-.53-2.2,4.9,4.9,0,0,1,.55-2.38,4.11,4.11,0,0,1,1.43-1.5,3.67,3.67,0,0,1,1.88-.52,3.86,3.86,0,0,1,1.43.27,3.73,3.73,0,0,1,1.21.79,3.83,3.83,0,0,1,.86,1.25,4.18,4.18,0,0,1,.34,1.63.59.59,0,0,1-.21.43.58.58,0,0,1-.45.17h-6.32l-.29-1.1h6.18l-.25.22v-.35a2.13,2.13,0,0,0-.43-1.13,2.5,2.5,0,0,0-.92-.72,2.6,2.6,0,0,0-1.13-.26,3.09,3.09,0,0,0-1,.17,2.42,2.42,0,0,0-.84.54,2.84,2.84,0,0,0-.6,1,4.07,4.07,0,0,0-.23,1.42,3.44,3.44,0,0,0,.38,1.64,2.81,2.81,0,0,0,1.05,1.11,2.93,2.93,0,0,0,1.55.41,2.82,2.82,0,0,0,1-.15,2.07,2.07,0,0,0,.71-.36,2.69,2.69,0,0,0,.51-.44.84.84,0,0,1,.41-.14.55.55,0,0,1,.55.54.62.62,0,0,1-.26.48,4.06,4.06,0,0,1-1.22.87A3.65,3.65,0,0,1,144.7,292.18Z"/><path class="cls-9" d="M161.91,283.7a.66.66,0,0,1,.47.18.71.71,0,0,1,.17.46v10.22a.62.62,0,0,1-.18.47.57.57,0,0,1-.46.19.56.56,0,0,1-.45-.19.67.67,0,0,1-.19-.47v-4.72l.31-.11a1.63,1.63,0,0,1-.24.81,2.59,2.59,0,0,1-.65.79,3.2,3.2,0,0,1-1,.61,2.79,2.79,0,0,1-1.21.24,3.46,3.46,0,0,1-1.95-.56,3.84,3.84,0,0,1-1.37-1.54,4.76,4.76,0,0,1-.51-2.22,4.87,4.87,0,0,1,.51-2.24,4.09,4.09,0,0,1,1.36-1.53,3.68,3.68,0,0,1,3.18-.33,3.4,3.4,0,0,1,1,.61,2.84,2.84,0,0,1,.7.85,1.93,1.93,0,0,1,.25.93l-.42-.1v-1.71a.66.66,0,0,1,.19-.46A.64.64,0,0,1,161.91,283.7Zm-3.29,7.3a2.46,2.46,0,0,0,1.42-.41,2.71,2.71,0,0,0,1-1.12,3.88,3.88,0,0,0,0-3.23,2.88,2.88,0,0,0-1-1.11,2.61,2.61,0,0,0-2.81,0,3,3,0,0,0-1,1.11,3.64,3.64,0,0,0-.35,1.62,3.49,3.49,0,0,0,.35,1.59,2.87,2.87,0,0,0,1,1.13,2.39,2.39,0,0,0,1.39.44Z"/><path class="cls-9" d="M171.51,283.75a.66.66,0,0,1,.47.18.71.71,0,0,1,.17.46v4.37a3.34,3.34,0,0,1-.9,2.5,4,4,0,0,1-5,0,3.38,3.38,0,0,1-.9-2.5v-4.37a.62.62,0,0,1,.6-.64h0a.61.61,0,0,1,.46.18.62.62,0,0,1,.18.46v4.37a2.24,2.24,0,0,0,.56,1.64,2.5,2.5,0,0,0,3.16,0,2.19,2.19,0,0,0,.55-1.64v-4.37a.66.66,0,0,1,.19-.46A.64.64,0,0,1,171.51,283.75Z"/><path class="cls-9" d="M178.66,292.18a4.5,4.5,0,0,1-2.24-.54,3.81,3.81,0,0,1-1.48-1.5,4.42,4.42,0,0,1-.53-2.2,4.9,4.9,0,0,1,.55-2.38,4.11,4.11,0,0,1,1.43-1.5,3.64,3.64,0,0,1,1.87-.52,3.73,3.73,0,0,1,2.65,1.06,4.11,4.11,0,0,1,.86,1.25,4.17,4.17,0,0,1,.33,1.63.62.62,0,0,1-.2.43.58.58,0,0,1-.45.17h-6.32l-.29-1.1h6.21l-.26.22v-.35a2,2,0,0,0-.42-1.13,2.71,2.71,0,0,0-.92-.72,2.61,2.61,0,0,0-1.14-.26,3.09,3.09,0,0,0-1,.17,2.37,2.37,0,0,0-.85.54,2.84,2.84,0,0,0-.6,1,4.58,4.58,0,0,0-.22,1.42,3.44,3.44,0,0,0,.38,1.64,2.89,2.89,0,0,0,1,1.11,3,3,0,0,0,1.56.41,2.82,2.82,0,0,0,1-.15,2.27,2.27,0,0,0,.71-.36,2.32,2.32,0,0,0,.5-.44.91.91,0,0,1,.42-.14.55.55,0,0,1,.54.54.58.58,0,0,1-.25.48,4.1,4.1,0,0,1-1.23.87A3.57,3.57,0,0,1,178.66,292.18Z"/><path class="cls-9" d="M183.88,290.71a.67.67,0,0,1-.13-.44.56.56,0,0,1,.27-.41.64.64,0,0,1,.38-.1.65.65,0,0,1,.39.21,3.5,3.5,0,0,0,1,.84,2.87,2.87,0,0,0,1.4.31A3.34,3.34,0,0,0,188,291a1.37,1.37,0,0,0,.65-.4,1,1,0,0,0,.26-.74.91.91,0,0,0-.27-.71,2,2,0,0,0-.7-.43,7.5,7.5,0,0,0-1-.3c-.35-.1-.69-.21-1-.33a4.17,4.17,0,0,1-.92-.46,2,2,0,0,1-.65-.71,1.93,1.93,0,0,1-.25-1,2.08,2.08,0,0,1,.39-1.25,2.56,2.56,0,0,1,1.06-.81,3.79,3.79,0,0,1,1.45-.29,4.73,4.73,0,0,1,.93.1,3.4,3.4,0,0,1,.95.36,2.57,2.57,0,0,1,.82.68.59.59,0,0,1,.16.4.49.49,0,0,1-.21.43.6.6,0,0,1-.39.11.52.52,0,0,1-.36-.16,2.17,2.17,0,0,0-.84-.62,3,3,0,0,0-1.11-.21,2.78,2.78,0,0,0-.75.11,1.43,1.43,0,0,0-.62.38,1.06,1.06,0,0,0-.25.72,1,1,0,0,0,.29.71,2,2,0,0,0,.74.44l1,.33c.34.08.67.18,1,.29a3.67,3.67,0,0,1,.86.44,1.87,1.87,0,0,1,.61.7,2.18,2.18,0,0,1,.22,1.06,1.94,1.94,0,0,1-.41,1.27,2.62,2.62,0,0,1-1.1.82,3.65,3.65,0,0,1-1.46.28,4.53,4.53,0,0,1-1.74-.34A3.46,3.46,0,0,1,183.88,290.71Z"/><path class="cls-9" d="M192.05,283.8h3.76a.59.59,0,0,1,.42.17.63.63,0,0,1,.17.42.57.57,0,0,1-.57.59h-3.78a.56.56,0,0,1-.42-.18.57.57,0,0,1-.17-.43.58.58,0,0,1,.17-.41A.67.67,0,0,1,192.05,283.8Zm1.68-2.18a.63.63,0,0,1,.45.18.71.71,0,0,1,.17.46V290a1.24,1.24,0,0,0,.11.57.65.65,0,0,0,.3.27.92.92,0,0,0,.36.07.64.64,0,0,0,.28-.06h.28a.42.42,0,0,1,.3.15.56.56,0,0,1,.13.39.58.58,0,0,1-.33.49,1.54,1.54,0,0,1-.76.2h-.55a1.51,1.51,0,0,1-.65-.21,1.41,1.41,0,0,1-.53-.58,2.48,2.48,0,0,1-.24-1.29v-7.79a.66.66,0,0,1,.19-.46.74.74,0,0,1,.45-.15Z"/><path class="cls-9" d="M199.13,282.55a.9.9,0,0,1-.59-.16.62.62,0,0,1-.2-.5v-.22a.62.62,0,0,1,.21-.5,1,1,0,0,1,.59-.16,1,1,0,0,1,.58.16.6.6,0,0,1,.19.5v.22a.59.59,0,0,1-.2.5A1,1,0,0,1,199.13,282.55Zm.64,8.81a.59.59,0,0,1-.19.47.55.55,0,0,1-.45.19.6.6,0,0,1-.47-.19.73.73,0,0,1-.17-.47v-7.1a.67.67,0,0,1,.18-.46.65.65,0,0,1,.46-.18.63.63,0,0,1,.45.18.58.58,0,0,1,.19.46Z"/><path class="cls-9" d="M210.25,287.86a4.31,4.31,0,0,1-.55,2.22,3.85,3.85,0,0,1-1.48,1.54,4.11,4.11,0,0,1-5.64-1.41.83.83,0,0,0-.07-.13,4.77,4.77,0,0,1,0-4.44,4.11,4.11,0,0,1,5.71-1.54,3.91,3.91,0,0,1,1.48,1.54A4.33,4.33,0,0,1,210.25,287.86Zm-1.28,0a3.46,3.46,0,0,0-.38-1.63,2.74,2.74,0,0,0-3.92-1.11,3,3,0,0,0-1,1.11,3.64,3.64,0,0,0,0,3.25,2.89,2.89,0,0,0,1,1.11,2.74,2.74,0,0,0,3.92-1.11A3.36,3.36,0,0,0,209,287.86Z"/><path class="cls-9" d="M216.62,283.54a2.93,2.93,0,0,1,1.71.45,2.54,2.54,0,0,1,.89,1.2,5,5,0,0,1,.26,1.68v4.49a.62.62,0,0,1-.18.47.64.64,0,0,1-.92,0h0a.66.66,0,0,1-.18-.47V286.9a3,3,0,0,0-.18-1.1,1.72,1.72,0,0,0-.61-.78,2,2,0,0,0-1.16-.3,2.63,2.63,0,0,0-1.23.3,2.42,2.42,0,0,0-.9.78,2,2,0,0,0-.34,1.1v4.46a.62.62,0,0,1-.18.47.57.57,0,0,1-.46.19.56.56,0,0,1-.45-.19.67.67,0,0,1-.19-.47v-7a.66.66,0,0,1,.19-.46.63.63,0,0,1,.45-.18.62.62,0,0,1,.47.18.71.71,0,0,1,.17.46v1.13l-.32.36a2.63,2.63,0,0,1,.37-.84,3.25,3.25,0,0,1,.72-.76,3.72,3.72,0,0,1,1-.54A3.28,3.28,0,0,1,216.62,283.54Z"/><path class="cls-9" d="M231.13,283.62a3.61,3.61,0,0,1,2,.54,4,4,0,0,1,1.37,1.51,5.09,5.09,0,0,1,0,4.41,3.91,3.91,0,0,1-1.36,1.52,3.44,3.44,0,0,1-1.93.55,3,3,0,0,1-1.11-.19,3.69,3.69,0,0,1-1-.48,3,3,0,0,1-.71-.67,2.81,2.81,0,0,1-.41-.74l.35-.23v4.72a.62.62,0,0,1-.18.47.57.57,0,0,1-.46.19.61.61,0,0,1-.46-.18.7.7,0,0,1-.18-.48V284.34a.67.67,0,0,1,.18-.46.68.68,0,0,1,.92,0,.62.62,0,0,1,.18.46v1.42l-.24-.12a2.24,2.24,0,0,1,.39-.77,3.27,3.27,0,0,1,.69-.65,3.48,3.48,0,0,1,2-.6ZM231,284.8a2.68,2.68,0,0,0-1.41.4,2.84,2.84,0,0,0-1,1.09,3.51,3.51,0,0,0-.35,1.59,3.72,3.72,0,0,0,.35,1.58,2.6,2.6,0,0,0,1,1.1,2.51,2.51,0,0,0,1.41.4,2.36,2.36,0,0,0,1.41-.4,2.6,2.6,0,0,0,1-1.1,3.44,3.44,0,0,0,.35-1.58,3.27,3.27,0,0,0-.35-1.59,2.76,2.76,0,0,0-1-1.09,2.51,2.51,0,0,0-1.41-.4Z"/><path class="cls-9" d="M243.93,283.67a.65.65,0,0,1,.46.18.62.62,0,0,1,.18.46v7.05a.59.59,0,0,1-.19.47.55.55,0,0,1-.45.19.58.58,0,0,1-.46-.19.66.66,0,0,1-.18-.47v-1.52h.3a1.49,1.49,0,0,1-.24.77,2.88,2.88,0,0,1-.65.78,3.61,3.61,0,0,1-1,.59,3,3,0,0,1-1.22.23,3.48,3.48,0,0,1-2-.57,3.89,3.89,0,0,1-1.36-1.54,4.76,4.76,0,0,1-.5-2.23,4.92,4.92,0,0,1,.5-2.23,4.15,4.15,0,0,1,1.36-1.52,3.49,3.49,0,0,1,1.93-.55,3.71,3.71,0,0,1,1.28.22,3.4,3.4,0,0,1,1,.61,2.93,2.93,0,0,1,.68.85,1.92,1.92,0,0,1,.24.93l-.41-.1v-1.74a.67.67,0,0,1,.18-.46A.67.67,0,0,1,243.93,283.67Zm-3.3,7.33a2.39,2.39,0,0,0,1.42-.42,2.87,2.87,0,0,0,1-1.13,3.81,3.81,0,0,0,0-3.2,2.91,2.91,0,0,0-1-1.12,2.53,2.53,0,0,0-1.42-.41,2.68,2.68,0,0,0-1.4.4,3,3,0,0,0-1,1.11,3.93,3.93,0,0,0,0,3.22,3,3,0,0,0,1,1.13,2.42,2.42,0,0,0,1.4.44Z"/><path class="cls-9" d="M251.42,283.62a3.61,3.61,0,0,1,2,.54,4.06,4.06,0,0,1,1.37,1.51,5.09,5.09,0,0,1,0,4.41,3.91,3.91,0,0,1-1.36,1.52,3.49,3.49,0,0,1-1.93.55,3,3,0,0,1-1.11-.19,3.4,3.4,0,0,1-1-.48,3,3,0,0,1-.71-.67,3.15,3.15,0,0,1-.42-.74l.36-.23v4.72a.62.62,0,0,1-.18.47.57.57,0,0,1-.46.19.61.61,0,0,1-.46-.18.7.7,0,0,1-.18-.48V284.34a.67.67,0,0,1,.18-.46.68.68,0,0,1,.92,0,.62.62,0,0,1,.18.46v1.42l-.24-.12a2.24,2.24,0,0,1,.39-.77,3,3,0,0,1,.69-.65,3.48,3.48,0,0,1,.91-.44A3.43,3.43,0,0,1,251.42,283.62Zm-.15,1.18a2.68,2.68,0,0,0-1.41.4,2.84,2.84,0,0,0-1,1.09,3.51,3.51,0,0,0-.35,1.59,3.72,3.72,0,0,0,.35,1.58,2.6,2.6,0,0,0,1,1.1,2.7,2.7,0,0,0,2.82,0,2.6,2.6,0,0,0,1-1.1,3.44,3.44,0,0,0,.35-1.58,3.51,3.51,0,0,0-.35-1.59,2.76,2.76,0,0,0-1-1.09A2.68,2.68,0,0,0,251.27,284.8Z"/><path class="cls-9" d="M261.22,292.18a4.5,4.5,0,0,1-2.24-.54,3.81,3.81,0,0,1-1.48-1.5,4.42,4.42,0,0,1-.53-2.2,4.9,4.9,0,0,1,.55-2.38,4.11,4.11,0,0,1,1.43-1.5,3.64,3.64,0,0,1,1.87-.52,3.73,3.73,0,0,1,2.65,1.06,4.11,4.11,0,0,1,.86,1.25,4.17,4.17,0,0,1,.33,1.63.62.62,0,0,1-.2.43.58.58,0,0,1-.45.17h-6.32l-.29-1.1h6.16l-.26.22v-.35a2,2,0,0,0-.42-1.13A2.71,2.71,0,0,0,262,285a2.61,2.61,0,0,0-1.14-.26,3.12,3.12,0,0,0-.95.17,2.37,2.37,0,0,0-.85.54,2.84,2.84,0,0,0-.6,1,4.06,4.06,0,0,0-.22,1.42,3.44,3.44,0,0,0,.38,1.64,2.75,2.75,0,0,0,1,1.11,3.2,3.2,0,0,0,2.55.26,2.27,2.27,0,0,0,.71-.36,3,3,0,0,0,.5-.44.91.91,0,0,1,.42-.14.55.55,0,0,1,.54.54.58.58,0,0,1-.25.48,4.1,4.1,0,0,1-1.23.87A3.53,3.53,0,0,1,261.22,292.18Z"/><path class="cls-9" d="M267.54,292a.56.56,0,0,1-.45-.19.67.67,0,0,1-.19-.47v-7a.66.66,0,0,1,.19-.46.63.63,0,0,1,.45-.18.62.62,0,0,1,.47.18.71.71,0,0,1,.17.46v2.11l-.19-.34a3.22,3.22,0,0,1,.35-1,3.08,3.08,0,0,1,.63-.85,2.89,2.89,0,0,1,.88-.59,2.68,2.68,0,0,1,1.08-.22,1.34,1.34,0,0,1,.65.17.51.51,0,0,1,.3.47.61.61,0,0,1-.18.5.59.59,0,0,1-.4.16.93.93,0,0,1-.4-.09,1.28,1.28,0,0,0-.48-.09,1.57,1.57,0,0,0-.79.22,2.81,2.81,0,0,0-.72.61,3.61,3.61,0,0,0-.53.91,3.08,3.08,0,0,0-.2,1.08v3.88a.62.62,0,0,1-.18.47A.56.56,0,0,1,267.54,292Z"/><path class="cls-9" d="M272.34,292a.68.68,0,0,1-.52-.19.76.76,0,0,1-.18-.53V291a.82.82,0,0,1,.18-.54.72.72,0,0,1,.52-.19h.13a.65.65,0,0,1,.53.19.72.72,0,0,1,.17.54v.32a.7.7,0,0,1-.17.53.65.65,0,0,1-.53.19Z"/></g></g></svg>