<svg xmlns="http://www.w3.org/2000/svg" viewBox="0 0 300 300"><defs><style>.cls-1{fill:#fff;}.cls-2{fill:#333a41;}.cls-3,.cls-8{fill:none;}.cls-4{fill:#ffacb6;}.cls-5{fill:#ff9898;}.cls-6{fill:#f4f4f4;}.cls-7{fill:#f96701;}.cls-8{stroke:#323648;stroke-miterlimit:10;stroke-width:2px;}.cls-9{fill:blue;}.cls-10{fill:#1121c1;}.cls-11{fill:#0f38c7;}</style></defs><g id="Layer_1" data-name="Layer 1"><g id="Layer_2" data-name="Layer 2"><g id="Layer_7" data-name="Layer 7"><g id="point_3" data-name="point 3"><g id="Authority_shares_the_password_with_the_students_candidates_at_the_venue_to_start_exam." data-name="Authority shares the password with the students candidates at the venue to start exam."><path class="cls-1" d="M17.81,236l-3.76,9.15a.64.64,0,0,1-.23.31.63.63,0,0,1-.78,0,.58.58,0,0,1-.15-.39.49.49,0,0,1,0-.24L17,234.69a.57.57,0,0,1,.25-.32.59.59,0,0,1,.41-.06.62.62,0,0,1,.61.41l4.13,10a.7.7,0,0,1,.05.25.58.58,0,0,1-.19.46.66.66,0,0,1-.44.17.63.63,0,0,1-.35-.11.7.7,0,0,1-.24-.32L17.45,236Zm-3,6.54.58-1.22h4.75l.24,1.24Z"/><path class="cls-1" d="M30.45,237.25a.58.58,0,0,1,.46.19.63.63,0,0,1,.18.45v4.42a3.42,3.42,0,1,1-6.84,0v-4.37a.66.66,0,0,1,.64-.64.59.59,0,0,1,.47.19.58.58,0,0,1,.17.45v4.37a2.26,2.26,0,0,0,.56,1.65,2.16,2.16,0,0,0,1.57.56,2.12,2.12,0,0,0,1.59-.56,2.26,2.26,0,0,0,.56-1.65v-4.37a.63.63,0,0,1,.18-.45A.57.57,0,0,1,30.45,237.25Z"/><path class="cls-1" d="M33.53,237.31h3.76a.6.6,0,0,1,0,1.19h-3.8a.52.52,0,0,1-.41-.18.58.58,0,0,1-.18-.43.52.52,0,0,1,.18-.41A.58.58,0,0,1,33.53,237.31Zm1.68-2.17a.59.59,0,0,1,.45.18.61.61,0,0,1,.18.46v7.72a1.06,1.06,0,0,0,.11.58.51.51,0,0,0,.3.26.9.9,0,0,0,.36.08.57.57,0,0,0,.28-.11.67.67,0,0,1,.28-.06.41.41,0,0,1,.29.16.62.62,0,0,1,.14.39.57.57,0,0,1-.34.49,1.53,1.53,0,0,1-.75.2H36a1.64,1.64,0,0,1-.65-.2,1.46,1.46,0,0,1-.54-.59,2.49,2.49,0,0,1-.21-1.14v-7.79a.58.58,0,0,1,.19-.46.65.65,0,0,1,.46-.18Z"/><path class="cls-1" d="M44.06,237.13a2.74,2.74,0,0,1,1.67.45,2.51,2.51,0,0,1,.88,1.22,4.87,4.87,0,0,1,.27,1.69v4.38a.58.58,0,0,1-.19.46.59.59,0,0,1-.45.2.63.63,0,0,1-.46-.2.61.61,0,0,1-.18-.46v-4.38a3.17,3.17,0,0,0-.18-1.1,1.61,1.61,0,0,0-.58-.78,1.83,1.83,0,0,0-1.11-.3,2.4,2.4,0,0,0-1.2.3,2.19,2.19,0,0,0-.87.78,2,2,0,0,0-.32,1.1v4.38a.65.65,0,0,1-.64.66h0a.59.59,0,0,1-.45-.2.58.58,0,0,1-.19-.46V234.31a.58.58,0,0,1,.19-.46.63.63,0,0,1,.45-.18.65.65,0,0,1,.47.18.66.66,0,0,1,.17.46v4.78l-.32.35a2.31,2.31,0,0,1,.35-.84,3.32,3.32,0,0,1,.69-.76,3.73,3.73,0,0,1,.93-.53A2.77,2.77,0,0,1,44.06,237.13Z"/><path class="cls-1" d="M57.42,241.37a4.53,4.53,0,0,1-.54,2.22,4.2,4.2,0,0,1-1.48,1.54,4.1,4.1,0,0,1-5.63-1.4s-.05-.09-.08-.14a4.68,4.68,0,0,1,0-4.45,4.18,4.18,0,0,1,5.71-1.53h0a4.13,4.13,0,0,1,1.49,1.53A4.45,4.45,0,0,1,57.42,241.37Zm-1.28,0a3.46,3.46,0,0,0-.37-1.64,3.1,3.1,0,0,0-1-1.1,2.88,2.88,0,0,0-2.92,0,2.79,2.79,0,0,0-1,1.1,3.47,3.47,0,0,0-.38,1.64,3.35,3.35,0,0,0,.38,1.61,2.74,2.74,0,0,0,3.92,1.11,3,3,0,0,0,1-1.11A3.46,3.46,0,0,0,56.14,241.37Z"/><path class="cls-1" d="M60.32,245.53a.69.69,0,0,1-.61-.68v-7a.63.63,0,0,1,.18-.45.65.65,0,0,1,.92,0,.63.63,0,0,1,.18.45V240l-.19-.34a3.2,3.2,0,0,1,.34-1,3.75,3.75,0,0,1,.63-.85,2.89,2.89,0,0,1,.88-.59,2.93,2.93,0,0,1,1.09-.21,1.33,1.33,0,0,1,.65.16.54.54,0,0,1,.29.48.67.67,0,0,1-.17.49.59.59,0,0,1-.4.16.9.9,0,0,1-.4-.09,1.31,1.31,0,0,0-.48-.08,1.56,1.56,0,0,0-.79.21,2.52,2.52,0,0,0-.72.62,3.39,3.39,0,0,0-.53.9,2.66,2.66,0,0,0-.2,1.08v3.89a.58.58,0,0,1-.19.46A.63.63,0,0,1,60.32,245.53Z"/><path class="cls-1" d="M67.08,236.05a.88.88,0,0,1-.59-.16.57.57,0,0,1-.19-.49v-.23a.55.55,0,0,1,.21-.49.94.94,0,0,1,.59-.16.86.86,0,0,1,.58.16.57.57,0,0,1,.19.49v.23a.6.6,0,0,1-.2.49A.88.88,0,0,1,67.08,236.05Zm.65,8.82a.66.66,0,0,1-.19.46.63.63,0,0,1-.89,0l0,0a.61.61,0,0,1-.18-.46v-7.1a.66.66,0,0,1,.19-.46.63.63,0,0,1,.45-.18.61.61,0,0,1,.46.18.66.66,0,0,1,.19.46Z"/><path class="cls-1" d="M70.11,237.31h3.78a.53.53,0,0,1,.42.18.58.58,0,0,1,.17.41.61.61,0,0,1-.17.43.59.59,0,0,1-.42.17H70.11a.6.6,0,0,1-.42-.18.63.63,0,0,1-.17-.43.58.58,0,0,1,.17-.41A.59.59,0,0,1,70.11,237.31Zm1.68-2.17a.63.63,0,0,1,.45.18.66.66,0,0,1,.17.46v7.72a1.28,1.28,0,0,0,.11.58.59.59,0,0,0,.3.26.9.9,0,0,0,.36.08.67.67,0,0,0,.28-.06.67.67,0,0,1,.28-.06.37.37,0,0,1,.3.16.56.56,0,0,1,.13.39.59.59,0,0,1-.28.46,1.54,1.54,0,0,1-.76.2,5,5,0,0,1-.55,0,1.67,1.67,0,0,1-.69-.2,1.34,1.34,0,0,1-.54-.59,2.37,2.37,0,0,1-.22-1.14v-7.79a.66.66,0,0,1,.19-.46.63.63,0,0,1,.47-.2Z"/><path class="cls-1" d="M82.83,237.13a.63.63,0,0,1,.45.18.58.58,0,0,1,.19.46v7a4.23,4.23,0,0,1-.53,2.23,3.21,3.21,0,0,1-1.42,1.31,4.46,4.46,0,0,1-2,.44,6,6,0,0,1-1.2-.13,3.48,3.48,0,0,1-1-.34.87.87,0,0,1-.42-.36.51.51,0,0,1,0-.45.66.66,0,0,1,.33-.4.45.45,0,0,1,.45,0l.75.31a2.92,2.92,0,0,0,1.09.2,3.06,3.06,0,0,0,1.43-.32,2.21,2.21,0,0,0,.94-.95,3.24,3.24,0,0,0,.32-1.53v-1.13l.19.4a2.73,2.73,0,0,1-.69.86,3.23,3.23,0,0,1-1,.58,3.42,3.42,0,0,1-1.23.21,2.77,2.77,0,0,1-1.59-.39,2.38,2.38,0,0,1-1-1.08,3.75,3.75,0,0,1-.33-1.61v-4.83a.62.62,0,0,1,.64-.64.62.62,0,0,1,.64.6v4.56a2.46,2.46,0,0,0,.48,1.64,1.85,1.85,0,0,0,1.49.55,2.21,2.21,0,0,0,1.15-.29,2.46,2.46,0,0,0,1.23-1.9v-4.54a.66.66,0,0,1,.17-.46A.65.65,0,0,1,82.83,237.13Z"/><path class="cls-1" d="M90.57,244.21a.69.69,0,0,1-.13-.44.56.56,0,0,1,.28-.4.5.5,0,0,1,.37-.1.55.55,0,0,1,.39.21,3.67,3.67,0,0,0,1,.84,2.92,2.92,0,0,0,2.18.18,1.33,1.33,0,0,0,.64-.39,1,1,0,0,0,.27-.74,1,1,0,0,0-.28-.72,2.1,2.1,0,0,0-.7-.43,7.84,7.84,0,0,0-.94-.29,9.77,9.77,0,0,1-1-.33,3.48,3.48,0,0,1-.92-.47,2.1,2.1,0,0,1-.66-.7,2.06,2.06,0,0,1-.25-1,2,2,0,0,1,.39-1.25,2.67,2.67,0,0,1,1.06-.82,3.6,3.6,0,0,1,1.45-.28,4.23,4.23,0,0,1,.94.1,3.62,3.62,0,0,1,1,.35,2.65,2.65,0,0,1,.81.68.59.59,0,0,1,.16.4.49.49,0,0,1-.21.43.55.55,0,0,1-.39.12.62.62,0,0,1-.36-.16,2.07,2.07,0,0,0-.84-.62,2.82,2.82,0,0,0-1.11-.22,2.4,2.4,0,0,0-.75.12,1.36,1.36,0,0,0-.62.37,1.06,1.06,0,0,0-.25.73,1,1,0,0,0,.29.7,1.92,1.92,0,0,0,.74.44,9,9,0,0,0,1,.33c.34.09.67.19,1,.3a3.43,3.43,0,0,1,.85.44,1.84,1.84,0,0,1,.61.69,2.32,2.32,0,0,1,.23,1.07,2,2,0,0,1-.42,1.27,2.62,2.62,0,0,1-1.1.82,3.83,3.83,0,0,1-1.46.28,4.69,4.69,0,0,1-1.74-.34A3.4,3.4,0,0,1,90.57,244.21Z"/><path class="cls-1" d="M103,237.13a2.74,2.74,0,0,1,1.67.45,2.51,2.51,0,0,1,.88,1.22,4.87,4.87,0,0,1,.27,1.69v4.38a.66.66,0,0,1-.19.46.59.59,0,0,1-.45.2.63.63,0,0,1-.46-.2.61.61,0,0,1-.18-.46v-4.38a3.17,3.17,0,0,0-.18-1.1,1.61,1.61,0,0,0-.58-.78,1.9,1.9,0,0,0-1.11-.3,2.55,2.55,0,0,0-1.21.3,2.23,2.23,0,0,0-.86.78,2,2,0,0,0-.32,1.1v4.38a.64.64,0,0,1-.64.64.64.64,0,0,1-.64-.64h0V234.31a.61.61,0,0,1,.18-.46.65.65,0,0,1,.46-.18.62.62,0,0,1,.64.64v4.78l-.32.35a2.31,2.31,0,0,1,.35-.84,3.32,3.32,0,0,1,.69-.76,3.73,3.73,0,0,1,.93-.53A2.77,2.77,0,0,1,103,237.13Z"/><path class="cls-1" d="M115.34,237.17a.63.63,0,0,1,.64.62v7.08a.64.64,0,0,1-.64.64.64.64,0,0,1-.64-.64h0v-1.56h.3a1.62,1.62,0,0,1-.24.77,3,3,0,0,1-.65.77,3.61,3.61,0,0,1-1,.59,3.11,3.11,0,0,1-1.21.24,3.45,3.45,0,0,1-2-.57,3.87,3.87,0,0,1-1.37-1.55,4.88,4.88,0,0,1-.5-2.22,4.68,4.68,0,0,1,.51-2.23,3.91,3.91,0,0,1,1.36-1.52,3.44,3.44,0,0,1,1.92-.55,3.48,3.48,0,0,1,1.28.22,3.32,3.32,0,0,1,1,.61,2.93,2.93,0,0,1,.68.85,2,2,0,0,1,.24.92l-.42-.09v-1.74a.63.63,0,0,1,.18-.45A.65.65,0,0,1,115.34,237.17ZM112,244.5a2.48,2.48,0,0,0,1.42-.41,3,3,0,0,0,1-1.13,3.57,3.57,0,0,0,.35-1.61,3.51,3.51,0,0,0-.35-1.59,2.84,2.84,0,0,0-1-1.12,2.66,2.66,0,0,0-2.82,0,2.72,2.72,0,0,0-1,1.1,3.8,3.8,0,0,0,0,3.23,2.87,2.87,0,0,0,1,1.13A2.49,2.49,0,0,0,112,244.5Z"/><path class="cls-1" d="M119.39,245.53a.65.65,0,0,1-.64-.66h0v-7a.63.63,0,0,1,.18-.45.66.66,0,0,1,.46-.19.58.58,0,0,1,.46.19.63.63,0,0,1,.18.45V240l-.19-.34a3.48,3.48,0,0,1,.34-1,3.75,3.75,0,0,1,.63-.85,2.89,2.89,0,0,1,.88-.59,2.93,2.93,0,0,1,1.09-.21,1.33,1.33,0,0,1,.65.16.52.52,0,0,1,.29.48.57.57,0,0,1-.57.65.9.9,0,0,1-.4-.09,1.31,1.31,0,0,0-.48-.08,1.56,1.56,0,0,0-.79.21,2.52,2.52,0,0,0-.72.62,3.39,3.39,0,0,0-.53.9,2.66,2.66,0,0,0-.2,1.08v3.89a.77.77,0,0,1-.64.71Z"/><path class="cls-1" d="M129,245.69a4.4,4.4,0,0,1-2.24-.55,3.81,3.81,0,0,1-1.49-1.49,4.55,4.55,0,0,1-.53-2.2,4.69,4.69,0,0,1,.55-2.38,3.89,3.89,0,0,1,1.43-1.5,3.67,3.67,0,0,1,1.88-.52,3.9,3.9,0,0,1,1.43.27,3.82,3.82,0,0,1,2.07,2,4.09,4.09,0,0,1,.34,1.62.59.59,0,0,1-.21.43.63.63,0,0,1-.45.18h-6.32l-.29-1.1h6.16l-.25.22v-.35a2.1,2.1,0,0,0-.43-1.13,2.58,2.58,0,0,0-2-1,2.83,2.83,0,0,0-1,.16,2.36,2.36,0,0,0-.84.55,2.7,2.7,0,0,0-.6,1,4,4,0,0,0-.28,1.37,3.4,3.4,0,0,0,.38,1.63,2.86,2.86,0,0,0,2.6,1.52,3.06,3.06,0,0,0,1-.14,3.16,3.16,0,0,0,.71-.36,4.23,4.23,0,0,0,.51-.44.69.69,0,0,1,.41-.15.55.55,0,0,1,.55.55h0a.62.62,0,0,1-.26.48,4.38,4.38,0,0,1-1.22.87A3.78,3.78,0,0,1,129,245.69Z"/><path class="cls-1" d="M134.17,244.21a.69.69,0,0,1-.13-.44.56.56,0,0,1,.28-.4.5.5,0,0,1,.37-.1.55.55,0,0,1,.39.21,3.67,3.67,0,0,0,1,.84,2.87,2.87,0,0,0,2.17.18,1.28,1.28,0,0,0,.65-.39,1,1,0,0,0,.27-.74,1,1,0,0,0-.28-.72,2.1,2.1,0,0,0-.7-.43,7.84,7.84,0,0,0-.94-.29,9.77,9.77,0,0,1-1-.33,3.48,3.48,0,0,1-.92-.47,2.1,2.1,0,0,1-.66-.7,2,2,0,0,1-.25-1,2,2,0,0,1,.39-1.25,2.69,2.69,0,0,1,1.08-.87,3.6,3.6,0,0,1,1.45-.28,4.2,4.2,0,0,1,.93.1,4,4,0,0,1,1,.35,2.65,2.65,0,0,1,.81.68.59.59,0,0,1,.16.4.49.49,0,0,1-.21.43.55.55,0,0,1-.39.12.62.62,0,0,1-.36-.16,2.07,2.07,0,0,0-.84-.62,2.82,2.82,0,0,0-1.11-.22,2.4,2.4,0,0,0-.75.12,1.36,1.36,0,0,0-.62.37,1.06,1.06,0,0,0-.25.73,1,1,0,0,0,.29.7,1.92,1.92,0,0,0,.74.44,9,9,0,0,0,1,.33c.34.09.67.19,1,.3a3.43,3.43,0,0,1,.85.44,1.84,1.84,0,0,1,.61.69,2.31,2.31,0,0,1,.22,1.07,2,2,0,0,1-.41,1.27,2.62,2.62,0,0,1-1.1.82,3.83,3.83,0,0,1-1.46.28,4.69,4.69,0,0,1-1.74-.34A3.44,3.44,0,0,1,134.17,244.21Z"/><path class="cls-1" d="M147.1,237.31h3.79a.61.61,0,0,1,.59.59.54.54,0,0,1-.17.43.59.59,0,0,1-.42.17h-3.76a.6.6,0,0,1-.42-.18.63.63,0,0,1-.17-.43.58.58,0,0,1,.17-.41A.63.63,0,0,1,147.1,237.31Zm1.68-2.17a.6.6,0,0,1,.62.58v7.78a1.17,1.17,0,0,0,.12.58.53.53,0,0,0,.29.26.9.9,0,0,0,.36.08.67.67,0,0,0,.28-.06.67.67,0,0,1,.28-.06.37.37,0,0,1,.3.16.56.56,0,0,1,.13.39.58.58,0,0,1-.33.49,1.53,1.53,0,0,1-.75.2,5.23,5.23,0,0,1-.56,0,1.84,1.84,0,0,1-.64-.2,1.34,1.34,0,0,1-.54-.59,2.5,2.5,0,0,1-.22-1.14v-7.79a.61.61,0,0,1,.2-.46.63.63,0,0,1,.46-.23Z"/><path class="cls-1" d="M157.63,237.13a2.81,2.81,0,0,1,1.67.45,2.51,2.51,0,0,1,.88,1.22,5.1,5.1,0,0,1,.26,1.69v4.38a.61.61,0,0,1-.18.46.63.63,0,0,1-.46.2.59.59,0,0,1-.45-.2.66.66,0,0,1-.19-.46v-4.38a3.42,3.42,0,0,0-.17-1.1,1.53,1.53,0,0,0-.59-.78,1.83,1.83,0,0,0-1.11-.3,2.4,2.4,0,0,0-1.2.3,2.23,2.23,0,0,0-.86.78,1.89,1.89,0,0,0-.32,1.1v4.38a.58.58,0,0,1-.19.46.59.59,0,0,1-.45.2.65.65,0,0,1-.64-.66h0V234.31a.61.61,0,0,1,.18-.46.65.65,0,0,1,.46-.18.62.62,0,0,1,.64.6v4.82l-.32.35a2.31,2.31,0,0,1,.35-.84,3.32,3.32,0,0,1,.69-.76,3.56,3.56,0,0,1,.93-.53A2.77,2.77,0,0,1,157.63,237.13Z"/><path class="cls-1" d="M167,245.69a4.4,4.4,0,0,1-2.24-.55,3.81,3.81,0,0,1-1.49-1.49,4.55,4.55,0,0,1-.53-2.2,4.69,4.69,0,0,1,.55-2.38,3.89,3.89,0,0,1,1.43-1.5,3.67,3.67,0,0,1,1.88-.52,3.9,3.9,0,0,1,1.43.27,3.82,3.82,0,0,1,2.07,2,4.09,4.09,0,0,1,.34,1.62.59.59,0,0,1-.21.43.63.63,0,0,1-.45.18h-6.32l-.29-1.1h6.16l-.25.22v-.35a2.1,2.1,0,0,0-.43-1.13,2.6,2.6,0,0,0-2.05-1,2.83,2.83,0,0,0-1,.16,2.36,2.36,0,0,0-.84.55,2.55,2.55,0,0,0-.6,1,4,4,0,0,0-.23,1.37,3.4,3.4,0,0,0,.38,1.63,2.86,2.86,0,0,0,2.6,1.52,3.06,3.06,0,0,0,1-.14,3.16,3.16,0,0,0,.71-.36,4.23,4.23,0,0,0,.51-.44.69.69,0,0,1,.41-.15.55.55,0,0,1,.55.55h0a.62.62,0,0,1-.26.48,4.38,4.38,0,0,1-1.22.87A3.78,3.78,0,0,1,167,245.69Z"/><path class="cls-1" d="M181.52,237.13a3.61,3.61,0,0,1,2,.54,4,4,0,0,1,1.37,1.5,5.09,5.09,0,0,1,0,4.41,3.91,3.91,0,0,1-1.36,1.52,3.61,3.61,0,0,1-3,.37,3.69,3.69,0,0,1-1-.48,3.23,3.23,0,0,1-.71-.67,2.77,2.77,0,0,1-.42-.75l.36-.22v4.72a.65.65,0,0,1-.64.66.66.66,0,0,1-.46-.19.65.65,0,0,1-.18-.47V237.85a.64.64,0,0,1,.64-.64.64.64,0,0,1,.64.64h0v1.46l-.24-.13a2.24,2.24,0,0,1,.39-.77,2.63,2.63,0,0,1,.69-.64,3.07,3.07,0,0,1,.91-.44A3.43,3.43,0,0,1,181.52,237.13Zm-.15,1.18a2.51,2.51,0,0,0-1.41.4,2.76,2.76,0,0,0-1,1.09,3.44,3.44,0,0,0-.35,1.58A3.51,3.51,0,0,0,179,243a2.79,2.79,0,0,0,1,1.1,2.7,2.7,0,0,0,2.82,0,2.79,2.79,0,0,0,1-1.1,3.51,3.51,0,0,0,.35-1.59,3.44,3.44,0,0,0-.35-1.58,2.76,2.76,0,0,0-1-1.09,2.51,2.51,0,0,0-1.41-.4Z"/><path class="cls-1" d="M194.31,237.17a.59.59,0,0,1,.47.19.63.63,0,0,1,.18.45v7.06a.66.66,0,0,1-.19.46.61.61,0,0,1-.46.2.59.59,0,0,1-.45-.2.61.61,0,0,1-.18-.46v-1.56h.3a1.62,1.62,0,0,1-.24.77,3.25,3.25,0,0,1-.66.77,3.47,3.47,0,0,1-1,.59,3.2,3.2,0,0,1-1.22.24,3.45,3.45,0,0,1-2-.57,3.87,3.87,0,0,1-1.37-1.55,4.74,4.74,0,0,1-.49-2.22,4.67,4.67,0,0,1,.5-2.23,3.91,3.91,0,0,1,1.36-1.52,3.73,3.73,0,0,1,3.21-.33,3.2,3.2,0,0,1,1,.61,2.93,2.93,0,0,1,.68.85,2,2,0,0,1,.24.92l-.41-.09v-1.74a.64.64,0,0,1,.73-.64ZM191,244.5a2.56,2.56,0,0,0,1.42-.41,2.87,2.87,0,0,0,1-1.13,3.45,3.45,0,0,0,.36-1.61,3.37,3.37,0,0,0-.36-1.59,2.71,2.71,0,0,0-1-1.12,2.56,2.56,0,0,0-1.42-.41,2.48,2.48,0,0,0-1.4.4,2.79,2.79,0,0,0-1,1.1,3.88,3.88,0,0,0,0,3.23,3,3,0,0,0,1,1.13A2.49,2.49,0,0,0,191,244.5Z"/><path class="cls-1" d="M197.26,244.21a.64.64,0,0,1-.13-.44.52.52,0,0,1,.27-.4.58.58,0,0,1,.38-.1.61.61,0,0,1,.39.21,3.67,3.67,0,0,0,1,.84,2.92,2.92,0,0,0,2.18.18,1.4,1.4,0,0,0,.65-.39,1.05,1.05,0,0,0,.26-.74,1,1,0,0,0-.27-.72,2.1,2.1,0,0,0-.7-.43,8,8,0,0,0-.95-.29c-.35-.1-.7-.21-1-.33a4,4,0,0,1-.92-.47,2.07,2.07,0,0,1-.65-.7,2,2,0,0,1-.25-1,2,2,0,0,1,.39-1.25,2.67,2.67,0,0,1,1.06-.82,3.6,3.6,0,0,1,1.45-.28,4.2,4.2,0,0,1,.93.1,3.62,3.62,0,0,1,1,.35,2.81,2.81,0,0,1,.82.68.65.65,0,0,1,.16.4.49.49,0,0,1-.21.43.55.55,0,0,1-.39.12.62.62,0,0,1-.36-.16,2.07,2.07,0,0,0-.84-.62,2.82,2.82,0,0,0-1.11-.22,2.4,2.4,0,0,0-.75.12,1.36,1.36,0,0,0-.62.37,1,1,0,0,0-.25.73,1,1,0,0,0,.29.7,1.92,1.92,0,0,0,.74.44,9,9,0,0,0,1,.33c.34.09.67.19,1,.3a3.33,3.33,0,0,1,.86.44,1.84,1.84,0,0,1,.61.69,2.31,2.31,0,0,1,.22,1.07,2.07,2.07,0,0,1-.41,1.27,2.7,2.7,0,0,1-1.1.82,3.83,3.83,0,0,1-1.46.28,4.69,4.69,0,0,1-1.74-.34A3.45,3.45,0,0,1,197.26,244.21Z"/><path class="cls-1" d="M205.24,244.21a.69.69,0,0,1-.13-.44.56.56,0,0,1,.28-.4.56.56,0,0,1,.76.11,3.67,3.67,0,0,0,1,.84,2.87,2.87,0,0,0,2.17.18,1.28,1.28,0,0,0,.65-.39,1,1,0,0,0,.27-.74,1,1,0,0,0-.27-.72,2.25,2.25,0,0,0-.71-.43,7.84,7.84,0,0,0-.94-.29c-.35-.1-.7-.21-1-.33a3.48,3.48,0,0,1-.92-.47,2.1,2.1,0,0,1-.66-.7,2.06,2.06,0,0,1-.25-1,2,2,0,0,1,.4-1.25,2.66,2.66,0,0,1,1-.82,3.6,3.6,0,0,1,1.45-.28,4.2,4.2,0,0,1,.93.1,4,4,0,0,1,1,.35,2.65,2.65,0,0,1,.81.68.59.59,0,0,1,.16.4.51.51,0,0,1-.2.43.58.58,0,0,1-.4.12.62.62,0,0,1-.36-.16,2.07,2.07,0,0,0-.84-.62,2.82,2.82,0,0,0-1.11-.22,2.4,2.4,0,0,0-.75.12,1.36,1.36,0,0,0-.62.37,1.11,1.11,0,0,0,0,1.43,1.92,1.92,0,0,0,.74.44,9,9,0,0,0,1,.33c.34.09.67.19,1,.3a3.43,3.43,0,0,1,.85.44,1.84,1.84,0,0,1,.61.69,2.32,2.32,0,0,1,.23,1.07,2,2,0,0,1-.42,1.27,2.62,2.62,0,0,1-1.1.82,3.83,3.83,0,0,1-1.46.28,4.69,4.69,0,0,1-1.74-.34A3.44,3.44,0,0,1,205.24,244.21Z"/><path class="cls-1" d="M223.45,237.11a.62.62,0,0,1,.62.62V238l-2.47,7.09a.63.63,0,0,1-.26.32.67.67,0,0,1-.39.1.62.62,0,0,1-.56-.42l-2-5.06h.32l-1.82,5a.61.61,0,0,1-.56.42.7.7,0,0,1-.4-.1.55.55,0,0,1-.26-.32L213.16,238a.86.86,0,0,1,0-.27.63.63,0,0,1,.18-.45.61.61,0,0,1,.48-.19.62.62,0,0,1,.35.1.46.46,0,0,1,.22.3l2.16,6.3h-.33L218,239a.65.65,0,0,1,1-.3.55.55,0,0,1,.2.3l1.95,4.8h-.4l2.15-6.24A.59.59,0,0,1,223.45,237.11Z"/><path class="cls-1" d="M234,241.37a4.53,4.53,0,0,1-.54,2.22,4.2,4.2,0,0,1-1.48,1.54,4.15,4.15,0,0,1-2.12.56,4,4,0,0,1-2.11-.56,4.31,4.31,0,0,1-1.49-1.54,4.79,4.79,0,0,1,0-4.45,4.13,4.13,0,0,1,1.49-1.53,4.27,4.27,0,0,1,4.23,0,4.1,4.1,0,0,1,1.48,1.53A4.54,4.54,0,0,1,234,241.37Zm-1.28,0a3.47,3.47,0,0,0-.38-1.64,2.75,2.75,0,0,0-3.92-1.1,2.79,2.79,0,0,0-1,1.1,3.47,3.47,0,0,0-.38,1.64,3.35,3.35,0,0,0,.38,1.61,2.74,2.74,0,0,0,3.92,1.11,2.88,2.88,0,0,0,1-1.11A3.35,3.35,0,0,0,232.7,241.37Z"/><path class="cls-1" d="M236.89,245.53a.61.61,0,0,1-.46-.2.66.66,0,0,1-.19-.46v-7a.64.64,0,0,1,.19-.45.66.66,0,0,1,.92,0h0a.63.63,0,0,1,.18.45V240l-.2-.34a3.83,3.83,0,0,1,.35-1,3.08,3.08,0,0,1,.63-.85,2.89,2.89,0,0,1,.88-.59,2.93,2.93,0,0,1,1.09-.21,1.32,1.32,0,0,1,.64.16.55.55,0,0,1,.3.48.6.6,0,0,1-.18.49.55.55,0,0,1-.39.16,1,1,0,0,1-.41-.09,1.26,1.26,0,0,0-.47-.08,1.59,1.59,0,0,0-.8.21,2.52,2.52,0,0,0-.72.62,3.11,3.11,0,0,0-.52.9,2.66,2.66,0,0,0-.2,1.08v3.89a.66.66,0,0,1-.19.46A.58.58,0,0,1,236.89,245.53Z"/><path class="cls-1" d="M249.44,233.69a.61.61,0,0,1,.46.18.6.6,0,0,1,.17.46v10.54a.61.61,0,0,1-.18.46.59.59,0,0,1-.45.2.61.61,0,0,1-.46-.2.66.66,0,0,1-.19-.46v-1.56l.31-.11a1.8,1.8,0,0,1-.23.81,3.34,3.34,0,0,1-.66.79,3.94,3.94,0,0,1-1,.61,3.2,3.2,0,0,1-1.22.24,3.54,3.54,0,0,1-2-.56,4,4,0,0,1-1.37-1.54,5.2,5.2,0,0,1,0-4.46,3.93,3.93,0,0,1,1.36-1.53,3.47,3.47,0,0,1,1.93-.55,3.33,3.33,0,0,1,1.25.22,3.53,3.53,0,0,1,1,.61,3,3,0,0,1,.69.85,1.87,1.87,0,0,1,.25.92l-.42-.09v-5.21a.66.66,0,0,1,.19-.46A.61.61,0,0,1,249.44,233.69Zm-3.3,10.81a2.48,2.48,0,0,0,1.42-.41,2.71,2.71,0,0,0,1-1.12,3.85,3.85,0,0,0,0-3.22,2.68,2.68,0,0,0-1-1.11,2.56,2.56,0,0,0-1.42-.41,2.49,2.49,0,0,0-1.4.41,2.82,2.82,0,0,0-1,1.11,3.83,3.83,0,0,0,0,3.21,3,3,0,0,0,1,1.13A2.49,2.49,0,0,0,246.14,244.5Z"/><path class="cls-1" d="M267.4,237.11a.6.6,0,0,1,.44.18.58.58,0,0,1,.19.46V238l-2.46,7.09a.76.76,0,0,1-.27.32.67.67,0,0,1-.39.1.62.62,0,0,1-.56-.42l-2-5.06h.32l-1.82,5a.61.61,0,0,1-.56.42.7.7,0,0,1-.4-.1.55.55,0,0,1-.26-.32L257.12,238a1.22,1.22,0,0,1,0-.27.63.63,0,0,1,.18-.45.69.69,0,0,1,.83-.09.46.46,0,0,1,.22.3l2.17,6.3h-.34l1.87-4.8a.65.65,0,0,1,.95-.3.55.55,0,0,1,.2.3l1.95,4.8h-.4l2.16-6.32A.57.57,0,0,1,267.4,237.11Z"/><path class="cls-1" d="M270.75,236.05a.93.93,0,0,1-.6-.16.65.65,0,0,1-.19-.49v-.23a.55.55,0,0,1,.21-.49.94.94,0,0,1,.59-.16.86.86,0,0,1,.58.16.57.57,0,0,1,.19.49v.23a.6.6,0,0,1-.2.49A.86.86,0,0,1,270.75,236.05Zm.64,8.82a.66.66,0,0,1-.19.46.59.59,0,0,1-.45.2.63.63,0,0,1-.64-.66v-7.1a.62.62,0,0,1,.6-.64h0a.63.63,0,0,1,.45.18.66.66,0,0,1,.19.46Z"/><path class="cls-1" d="M273.77,237.31h3.76a.61.61,0,0,1,.59.59.54.54,0,0,1-.17.43.59.59,0,0,1-.42.17h-3.76a.6.6,0,0,1-.42-.18.63.63,0,0,1-.17-.43.58.58,0,0,1,.17-.41A.59.59,0,0,1,273.77,237.31Zm1.68-2.17a.6.6,0,0,1,.62.58v7.78a1.17,1.17,0,0,0,.12.58.53.53,0,0,0,.29.26.9.9,0,0,0,.36.08.67.67,0,0,0,.28-.06.67.67,0,0,1,.28-.06.37.37,0,0,1,.3.16.56.56,0,0,1,.13.39.58.58,0,0,1-.33.49,1.53,1.53,0,0,1-.75.2,5.23,5.23,0,0,1-.56,0,1.84,1.84,0,0,1-.64-.2,1.34,1.34,0,0,1-.54-.59,2.5,2.5,0,0,1-.22-1.14v-7.79a.61.61,0,0,1,.2-.46.63.63,0,0,1,.46-.23Z"/><path class="cls-1" d="M284.3,237.13a2.81,2.81,0,0,1,1.67.45,2.51,2.51,0,0,1,.88,1.22,5.1,5.1,0,0,1,.26,1.69v4.38a.65.65,0,0,1-.64.66.59.59,0,0,1-.45-.2.66.66,0,0,1-.19-.46v-4.38a3.16,3.16,0,0,0-.17-1.1,1.53,1.53,0,0,0-.59-.78,1.83,1.83,0,0,0-1.11-.3,2.51,2.51,0,0,0-1.2.3,2.23,2.23,0,0,0-.86.78,2,2,0,0,0-.32,1.1v4.38a.58.58,0,0,1-.19.46.59.59,0,0,1-.45.2.63.63,0,0,1-.46-.2.61.61,0,0,1-.18-.46V234.31a.62.62,0,0,1,.64-.64.62.62,0,0,1,.64.6v4.82l-.32.35a2.31,2.31,0,0,1,.35-.84,3.32,3.32,0,0,1,.69-.76,3.73,3.73,0,0,1,.93-.53A2.8,2.8,0,0,1,284.3,237.13Z"/><path class="cls-1" d="M31.77,257.31h3.76a.53.53,0,0,1,.42.18.58.58,0,0,1,.17.41.61.61,0,0,1-.17.43.59.59,0,0,1-.42.17H31.77a.6.6,0,0,1-.42-.18.58.58,0,0,1-.18-.43.52.52,0,0,1,.18-.41A.59.59,0,0,1,31.77,257.31Zm1.68-2.17a.57.57,0,0,1,.44.17.61.61,0,0,1,.18.46v7.72a1.28,1.28,0,0,0,.11.58.55.55,0,0,0,.3.26.9.9,0,0,0,.36.08.67.67,0,0,0,.28-.06.67.67,0,0,1,.28-.06.41.41,0,0,1,.29.16.62.62,0,0,1,.14.39.57.57,0,0,1-.34.49,1.53,1.53,0,0,1-.75.2,5,5,0,0,1-.55,0,1.64,1.64,0,0,1-.65-.2,1.44,1.44,0,0,1-.53-.59,2.37,2.37,0,0,1-.22-1.14v-7.79a.58.58,0,0,1,.19-.46.69.69,0,0,1,.47-.22Z"/><path class="cls-1" d="M42.29,257.13a2.79,2.79,0,0,1,1.68.45,2.51,2.51,0,0,1,.88,1.22,5.14,5.14,0,0,1,.26,1.69v4.38a.64.64,0,1,1-1.28,0v-4.38a3.17,3.17,0,0,0-.18-1.1,1.51,1.51,0,0,0-.58-.78,1.83,1.83,0,0,0-1.11-.3,2.4,2.4,0,0,0-1.2.3,2.33,2.33,0,0,0-.87.78,2,2,0,0,0-.32,1.1v4.38a.61.61,0,0,1-.18.46.63.63,0,0,1-.46.2.59.59,0,0,1-.45-.2.58.58,0,0,1-.19-.46V254.31a.58.58,0,0,1,.19-.46.68.68,0,0,1,.92,0,.6.6,0,0,1,.17.46v4.78l-.32.35a2.33,2.33,0,0,1,.36-.84,3.53,3.53,0,0,1,.68-.76,3.73,3.73,0,0,1,.93-.53A2.77,2.77,0,0,1,42.29,257.13Z"/><path class="cls-1" d="M51.62,265.69a4.61,4.61,0,0,1-2.24-.55,4,4,0,0,1-1.49-1.49,4.44,4.44,0,0,1-.52-2.2,4.69,4.69,0,0,1,.55-2.38,3.82,3.82,0,0,1,1.43-1.5,3.61,3.61,0,0,1,1.87-.52,3.9,3.9,0,0,1,1.43.27,3.66,3.66,0,0,1,1.22.79,4,4,0,0,1,.86,1.25,4.08,4.08,0,0,1,.33,1.62.59.59,0,0,1-.21.43.6.6,0,0,1-.44.18H48.09l-.29-1.1H54l-.26.22v-.35a2,2,0,0,0-.42-1.13,2.62,2.62,0,0,0-.92-.73,2.66,2.66,0,0,0-1.14-.25,2.83,2.83,0,0,0-.95.16,2.4,2.4,0,0,0-.85.55,2.7,2.7,0,0,0-.6,1,4.06,4.06,0,0,0-.22,1.42A3.39,3.39,0,0,0,49,263,2.8,2.8,0,0,0,50,264.12a2.9,2.9,0,0,0,1.55.41,3.06,3.06,0,0,0,1-.14,3.16,3.16,0,0,0,.71-.36,3.5,3.5,0,0,0,.5-.44.72.72,0,0,1,.42-.15.55.55,0,0,1,.54.55.61.61,0,0,1-.25.48,4.1,4.1,0,0,1-1.23.87A3.7,3.7,0,0,1,51.62,265.69Z"/><path class="cls-1" d="M61.64,264.21a.64.64,0,0,1-.13-.44.52.52,0,0,1,.27-.4.58.58,0,0,1,.38-.1.61.61,0,0,1,.39.21,3.67,3.67,0,0,0,1,.84,3,3,0,0,0,2.18.18,1.4,1.4,0,0,0,.65-.39,1.05,1.05,0,0,0,.26-.74,1,1,0,0,0-.27-.72,2.1,2.1,0,0,0-.7-.43,8,8,0,0,0-1-.29c-.35-.1-.7-.21-1-.33a3.48,3.48,0,0,1-.92-.47,2.07,2.07,0,0,1-.65-.7,2,2,0,0,1-.25-1,2,2,0,0,1,.39-1.25,2.67,2.67,0,0,1,1.06-.82,3.59,3.59,0,0,1,1.44-.28,4.23,4.23,0,0,1,.94.1,4,4,0,0,1,1,.35,2.81,2.81,0,0,1,.82.68.65.65,0,0,1,.16.4.49.49,0,0,1-.21.43.55.55,0,0,1-.39.12.54.54,0,0,1-.36-.16,2.31,2.31,0,0,0-.86-.69,2.82,2.82,0,0,0-1.11-.22,2.46,2.46,0,0,0-.76.12,1.38,1.38,0,0,0-.61.37,1,1,0,0,0-.25.73,1,1,0,0,0,.29.7,1.81,1.81,0,0,0,.73.44,9,9,0,0,0,1,.33c.34.09.67.19,1,.3a3.33,3.33,0,0,1,.86.44,1.9,1.9,0,0,1,.6.69,2.32,2.32,0,0,1,.23,1.07,2,2,0,0,1-.42,1.27,2.53,2.53,0,0,1-1.09.82,4.13,4.13,0,0,1-1.47.28,4.89,4.89,0,0,1-1.73-.34A3.42,3.42,0,0,1,61.64,264.21Z"/><path class="cls-1" d="M69.77,257.31h3.75a.55.55,0,0,1,.43.18.58.58,0,0,1,.17.41.61.61,0,0,1-.17.43.57.57,0,0,1-.43.17H69.77a.56.56,0,0,1-.42-.18.58.58,0,0,1-.18-.43.52.52,0,0,1,.18-.41A.59.59,0,0,1,69.77,257.31Zm1.67-2.17a.58.58,0,0,1,.45.17.61.61,0,0,1,.18.46v7.72a1.28,1.28,0,0,0,.11.58.55.55,0,0,0,.3.26.9.9,0,0,0,.36.08.67.67,0,0,0,.28-.06.67.67,0,0,1,.28-.06.41.41,0,0,1,.29.16.62.62,0,0,1,.14.39.57.57,0,0,1-.34.49,1.53,1.53,0,0,1-.75.2,5,5,0,0,1-.55,0,1.64,1.64,0,0,1-.65-.2,1.44,1.44,0,0,1-.53-.59,2.37,2.37,0,0,1-.22-1.14v-7.79a.58.58,0,0,1,.19-.46.67.67,0,0,1,.46-.22Z"/><path class="cls-1" d="M82.48,257.25a.59.59,0,0,1,.47.19.63.63,0,0,1,.18.45v4.42a3.42,3.42,0,0,1-.91,2.51,4,4,0,0,1-5,0,3.34,3.34,0,0,1-.93-2.51v-4.37a.66.66,0,0,1,.64-.64.59.59,0,0,1,.47.19.66.66,0,0,1,.17.45v4.37a2.26,2.26,0,0,0,.56,1.65,2.5,2.5,0,0,0,3.16,0,2.24,2.24,0,0,0,.6-1.65v-4.37a.74.74,0,0,1,.59-.69Z"/><path class="cls-1" d="M92.63,253.69a.62.62,0,0,1,.64.64v10.54a.64.64,0,0,1-.64.64.64.64,0,0,1-.64-.64h0v-1.56l.3-.11a1.76,1.76,0,0,1-.23.81,2.78,2.78,0,0,1-.66.79,3.94,3.94,0,0,1-1,.61,3.11,3.11,0,0,1-1.21.24,3.54,3.54,0,0,1-2-.56,4,4,0,0,1-1.3-1.5,5.13,5.13,0,0,1,0-4.46,3.93,3.93,0,0,1,1.36-1.53,3.55,3.55,0,0,1,4.21.28,3.18,3.18,0,0,1,.7.85,2,2,0,0,1,.24.92l-.41-.09v-5.25a.61.61,0,0,1,.18-.46A.65.65,0,0,1,92.63,253.69Zm-3.3,10.81a2.49,2.49,0,0,0,1.43-.41,2.84,2.84,0,0,0,1-1.12,3.85,3.85,0,0,0,0-3.22,2.82,2.82,0,0,0-1-1.11,2.62,2.62,0,0,0-2.82,0,2.68,2.68,0,0,0-1,1.11,3.76,3.76,0,0,0,0,3.21,2.87,2.87,0,0,0,1,1.13A2.54,2.54,0,0,0,89.33,264.5Z"/><path class="cls-1" d="M99.78,265.69a4.61,4.61,0,0,1-2.24-.55,3.81,3.81,0,0,1-1.49-1.49,4.55,4.55,0,0,1-.53-2.2,4.8,4.8,0,0,1,.56-2.38,3.82,3.82,0,0,1,1.43-1.5,3.61,3.61,0,0,1,1.87-.52,3.9,3.9,0,0,1,1.43.27,3.66,3.66,0,0,1,1.22.79,4,4,0,0,1,.86,1.25,4.08,4.08,0,0,1,.33,1.62.59.59,0,0,1-.21.43.63.63,0,0,1-.45.18H96.24l-.28-1.1h6.16l-.26.22v-.35a2,2,0,0,0-.42-1.13,2.62,2.62,0,0,0-.92-.73,2.66,2.66,0,0,0-1.14-.25,2.83,2.83,0,0,0-.95.16,2.4,2.4,0,0,0-.85.55,2.7,2.7,0,0,0-.6,1,4.06,4.06,0,0,0-.22,1.42,3.39,3.39,0,0,0,.37,1.63,2.8,2.8,0,0,0,1.05,1.11,2.9,2.9,0,0,0,1.55.41,3.06,3.06,0,0,0,1-.14,3.16,3.16,0,0,0,.71-.36,4.14,4.14,0,0,0,.5-.44.72.72,0,0,1,.42-.15.55.55,0,0,1,.38.16.55.55,0,0,1,.16.39.65.65,0,0,1-.25.48,4.1,4.1,0,0,1-1.23.87A3.7,3.7,0,0,1,99.78,265.69Z"/><path class="cls-1" d="M109.57,257.05a2.94,2.94,0,0,1,1.71.44,2.37,2.37,0,0,1,.89,1.2,4.81,4.81,0,0,1,.27,1.68v4.5a.58.58,0,0,1-.19.46.59.59,0,0,1-.45.2.65.65,0,0,1-.64-.66v-4.46a2.93,2.93,0,0,0-.19-1.1,1.57,1.57,0,0,0-.61-.78,2,2,0,0,0-1.16-.3,2.63,2.63,0,0,0-1.23.3,2.31,2.31,0,0,0-.89.78,1.81,1.81,0,0,0-.34,1.1v4.46a.65.65,0,0,1-.64.66h0a.59.59,0,0,1-.45-.2.58.58,0,0,1-.19-.46v-7a.66.66,0,0,1,.64-.64.58.58,0,0,1,.46.19.63.63,0,0,1,.18.45V259l-.32.35a2.19,2.19,0,0,1,.37-.84,3.37,3.37,0,0,1,1.72-1.29A3,3,0,0,1,109.57,257.05Z"/><path class="cls-1" d="M114.89,257.31h3.77a.56.56,0,0,1,.42.18.58.58,0,0,1,.17.41.61.61,0,0,1-.17.43.59.59,0,0,1-.42.17h-3.77a.62.62,0,0,1-.59-.61.52.52,0,0,1,.18-.41A.58.58,0,0,1,114.89,257.31Zm1.68-2.17a.59.59,0,0,1,.45.18.61.61,0,0,1,.18.46v7.72a1.28,1.28,0,0,0,.11.58.55.55,0,0,0,.3.26.9.9,0,0,0,.36.08.67.67,0,0,0,.28-.06.67.67,0,0,1,.28-.06.41.41,0,0,1,.29.16.62.62,0,0,1,.14.39.57.57,0,0,1-.34.49,1.53,1.53,0,0,1-.75.2h-.55a1.64,1.64,0,0,1-.65-.2,1.46,1.46,0,0,1-.54-.59,2.49,2.49,0,0,1-.21-1.14v-7.79a.58.58,0,0,1,.19-.46.66.66,0,0,1,.45-.23Z"/><path class="cls-1" d="M121.27,264.21a.64.64,0,0,1-.13-.44.52.52,0,0,1,.27-.4.58.58,0,0,1,.38-.1.61.61,0,0,1,.39.21,3.67,3.67,0,0,0,1,.84,3,3,0,0,0,2.18.18,1.4,1.4,0,0,0,.65-.39,1.05,1.05,0,0,0,.26-.74,1,1,0,0,0-.27-.72,2.1,2.1,0,0,0-.7-.43,7.12,7.12,0,0,0-1-.29c-.35-.1-.7-.21-1-.33a4,4,0,0,1-.92-.47,2.07,2.07,0,0,1-.65-.7,2,2,0,0,1-.25-1,2,2,0,0,1,.39-1.25,2.67,2.67,0,0,1,1.06-.82,3.59,3.59,0,0,1,1.44-.28,4.23,4.23,0,0,1,.94.1,4,4,0,0,1,1,.35,2.81,2.81,0,0,1,.82.68.65.65,0,0,1,.16.4.49.49,0,0,1-.21.43.55.55,0,0,1-.39.12.54.54,0,0,1-.36-.16,2.33,2.33,0,0,0-.84-.62,2.82,2.82,0,0,0-1.11-.22,2.46,2.46,0,0,0-.76.12,1.38,1.38,0,0,0-.61.37,1,1,0,0,0-.25.73,1,1,0,0,0,.29.7,2,2,0,0,0,.73.44,9,9,0,0,0,1,.33c.34.09.67.19,1,.3a3.33,3.33,0,0,1,.86.44,2.13,2.13,0,0,1,.61.69,2.31,2.31,0,0,1,.22,1.07,2,2,0,0,1-.42,1.27,2.53,2.53,0,0,1-1.09.82,4.13,4.13,0,0,1-1.47.28,4.89,4.89,0,0,1-1.73-.34A3.43,3.43,0,0,1,121.27,264.21Z"/><path class="cls-1" d="M129.36,267.62a.56.56,0,0,1-.39-.17.52.52,0,0,1-.18-.4.72.72,0,0,1,.06-.29l6.82-13.62a.8.8,0,0,1,.25-.32.62.62,0,0,1,.32-.09.58.58,0,0,1,.38.15.49.49,0,0,1,.18.41.72.72,0,0,1-.08.32l-6.83,13.61a.73.73,0,0,1-.24.31A.52.52,0,0,1,129.36,267.62Z"/><path class="cls-1" d="M142.32,257.05a5.65,5.65,0,0,1,1.48.17,3.08,3.08,0,0,1,1,.48.87.87,0,0,1,.38.69.67.67,0,0,1-.14.4.44.44,0,0,1-.39.19.57.57,0,0,1-.34-.08.89.89,0,0,1-.26-.21,1.19,1.19,0,0,0-.33-.22,1.75,1.75,0,0,0-.56-.18,4.74,4.74,0,0,0-.75-.06,2.87,2.87,0,0,0-2.58,1.54,3.6,3.6,0,0,0,0,3.2,3.08,3.08,0,0,0,1,1.12,2.8,2.8,0,0,0,1.52.41,3.32,3.32,0,0,0,.89-.09,2.83,2.83,0,0,0,.57-.23,1.46,1.46,0,0,0,.42-.32.62.62,0,0,1,.43-.16.49.49,0,0,1,.41.18.66.66,0,0,1,.15.43.86.86,0,0,1-.4.61,3.65,3.65,0,0,1-1.08.54,4.66,4.66,0,0,1-1.53.23,3.82,3.82,0,0,1-3.54-2.12,5,5,0,0,1,0-4.4,4.08,4.08,0,0,1,1.45-1.55A4,4,0,0,1,142.32,257.05Z"/><path class="cls-1" d="M154.08,257.17a.59.59,0,0,1,.47.19.58.58,0,0,1,.17.45v7.06a.65.65,0,0,1-.64.66.59.59,0,0,1-.45-.2.66.66,0,0,1-.19-.46v-1.56h.31a1.62,1.62,0,0,1-.24.77,3.25,3.25,0,0,1-.66.77,3.61,3.61,0,0,1-1,.59,3.2,3.2,0,0,1-1.22.24,3.45,3.45,0,0,1-2-.57,3.87,3.87,0,0,1-1.37-1.55,4.82,4.82,0,0,1-.37-2.25,4.67,4.67,0,0,1,.5-2.23,3.91,3.91,0,0,1,1.36-1.52,3.47,3.47,0,0,1,1.93-.55,3.59,3.59,0,0,1,1.21.3,3.2,3.2,0,0,1,1,.61,2.93,2.93,0,0,1,.68.85,2,2,0,0,1,.24.92l-.42-.09v-1.79a.66.66,0,0,1,.64-.64Zm-3.29,7.33a2.52,2.52,0,0,0,1.41-.41,2.87,2.87,0,0,0,1-1.13,3.57,3.57,0,0,0,.35-1.61,3.49,3.49,0,0,0-.35-1.59,2.71,2.71,0,0,0-1-1.12,2.64,2.64,0,0,0-2.81,0,2.79,2.79,0,0,0-1,1.1,3.88,3.88,0,0,0,0,3.23,2.87,2.87,0,0,0,1,1.13,2.48,2.48,0,0,0,1.4.4Z"/><path class="cls-1" d="M161.6,257.05a3,3,0,0,1,1.72.44,2.45,2.45,0,0,1,.88,1.2,4.81,4.81,0,0,1,.27,1.68v4.5a.58.58,0,0,1-.19.46.59.59,0,0,1-.45.2.63.63,0,0,1-.46-.2.61.61,0,0,1-.18-.46v-4.46a2.93,2.93,0,0,0-.19-1.1,1.55,1.55,0,0,0-.6-.78,2,2,0,0,0-1.16-.3,2.67,2.67,0,0,0-1.24.3,2.31,2.31,0,0,0-.89.78,1.81,1.81,0,0,0-.34,1.1v4.46a.61.61,0,0,1-.18.46.63.63,0,0,1-.46.2.59.59,0,0,1-.45-.2.58.58,0,0,1-.19-.46v-7a.66.66,0,0,1,.64-.64.59.59,0,0,1,.47.19.66.66,0,0,1,.17.45V259l-.32.35a2.35,2.35,0,0,1,.37-.84,3.37,3.37,0,0,1,1.72-1.29A3,3,0,0,1,161.6,257.05Z"/><path class="cls-1" d="M174,253.69a.65.65,0,0,1,.47.18.66.66,0,0,1,.17.46v10.54a.61.61,0,0,1-.18.46.63.63,0,0,1-.46.2.59.59,0,0,1-.45-.2.58.58,0,0,1-.19-.46v-1.56l.31-.11a1.66,1.66,0,0,1-.24.81,2.92,2.92,0,0,1-.65.79,3.94,3.94,0,0,1-1,.61,3.11,3.11,0,0,1-1.21.24,3.54,3.54,0,0,1-1.95-.56,3.84,3.84,0,0,1-1.37-1.54,5.13,5.13,0,0,1,0-4.46,3.93,3.93,0,0,1,1.36-1.53,3.68,3.68,0,0,1,3.18-.33,3.42,3.42,0,0,1,1.7,1.46,1.87,1.87,0,0,1,.25.92l-.42-.09v-5.21a.58.58,0,0,1,.19-.46A.62.62,0,0,1,174,253.69Zm-3.29,10.81a2.48,2.48,0,0,0,1.42-.41,2.71,2.71,0,0,0,1-1.12,3.85,3.85,0,0,0,0-3.22,2.74,2.74,0,0,0-1-1.11,2.52,2.52,0,0,0-1.41-.41,2.49,2.49,0,0,0-1.4.41,2.74,2.74,0,0,0-1,1.11,3.83,3.83,0,0,0,0,3.21,2.87,2.87,0,0,0,1,1.13,2.54,2.54,0,0,0,1.39.41Z"/><path class="cls-1" d="M178,256.05a.88.88,0,0,1-.59-.16.57.57,0,0,1-.19-.49v-.23a.55.55,0,0,1,.21-.49.88.88,0,0,1,.59-.16.83.83,0,0,1,.57.16.6.6,0,0,1,.2.49v.23a.6.6,0,0,1-.2.49A.88.88,0,0,1,178,256.05Zm.64,8.82a.61.61,0,0,1-.18.46.63.63,0,0,1-.46.2.65.65,0,0,1-.64-.66v-7.1a.58.58,0,0,1,.19-.46.63.63,0,0,1,.45-.18.62.62,0,0,1,.64.64Z"/><path class="cls-1" d="M188.05,253.69a.65.65,0,0,1,.47.18.66.66,0,0,1,.17.46v10.54a.61.61,0,0,1-.18.46.63.63,0,0,1-.46.2.59.59,0,0,1-.45-.2.58.58,0,0,1-.19-.46v-1.56l.31-.11a1.66,1.66,0,0,1-.24.81,2.92,2.92,0,0,1-.65.79,3.94,3.94,0,0,1-1,.61,3.11,3.11,0,0,1-1.21.24,3.52,3.52,0,0,1-2-.56,3.84,3.84,0,0,1-1.37-1.54,5.13,5.13,0,0,1,0-4.46,3.93,3.93,0,0,1,1.36-1.53,3.65,3.65,0,0,1,3.28-.25,3.42,3.42,0,0,1,1.7,1.46,1.87,1.87,0,0,1,.25.92l-.42-.09v-5.29a.58.58,0,0,1,.19-.46A.6.6,0,0,1,188.05,253.69Zm-3.29,10.81a2.48,2.48,0,0,0,1.42-.41,2.71,2.71,0,0,0,1-1.12,3.85,3.85,0,0,0,0-3.22,2.74,2.74,0,0,0-1-1.11,2.52,2.52,0,0,0-1.41-.41,2.49,2.49,0,0,0-1.4.41,2.74,2.74,0,0,0-1,1.11,3.83,3.83,0,0,0,0,3.21,2.87,2.87,0,0,0,1,1.13,2.54,2.54,0,0,0,1.39.41Z"/><path class="cls-1" d="M198.2,257.17a.66.66,0,0,1,.46.19.63.63,0,0,1,.18.45v7.06a.66.66,0,0,1-.19.46.59.59,0,0,1-.45.2.65.65,0,0,1-.64-.66v-1.56h.3a1.62,1.62,0,0,1-.24.77,3.25,3.25,0,0,1-.66.77,3.47,3.47,0,0,1-1,.59,3.2,3.2,0,0,1-1.22.24,3.45,3.45,0,0,1-2-.57,3.87,3.87,0,0,1-1.37-1.55,5.25,5.25,0,0,1,0-4.45,3.91,3.91,0,0,1,1.36-1.52,3.73,3.73,0,0,1,3.21-.33,3.2,3.2,0,0,1,1,.61,2.69,2.69,0,0,1,.68.85,2,2,0,0,1,.24.92l-.41-.09v-1.74a.63.63,0,0,1,.18-.45A.62.62,0,0,1,198.2,257.17Zm-3.3,7.33a2.56,2.56,0,0,0,1.42-.41,2.87,2.87,0,0,0,1-1.13,3.45,3.45,0,0,0,.36-1.61,3.37,3.37,0,0,0-.36-1.59,2.71,2.71,0,0,0-1-1.12,2.56,2.56,0,0,0-1.42-.41,2.48,2.48,0,0,0-1.4.4,2.79,2.79,0,0,0-1,1.1,3.88,3.88,0,0,0,0,3.23,3,3,0,0,0,1,1.13,2.54,2.54,0,0,0,1.39.41Z"/><path class="cls-1" d="M201.28,257.31H205a.6.6,0,0,1,0,1.19h-3.8a.54.54,0,0,1-.39-.19.58.58,0,0,1-.18-.43.52.52,0,0,1,.18-.41A.55.55,0,0,1,201.28,257.31Zm1.68-2.17a.59.59,0,0,1,.45.18.61.61,0,0,1,.18.46v7.72a1.06,1.06,0,0,0,.11.58.51.51,0,0,0,.3.26.9.9,0,0,0,.36.08.67.67,0,0,0,.28-.06.7.7,0,0,1,.25-.05.41.41,0,0,1,.29.16.62.62,0,0,1,.14.39.57.57,0,0,1-.34.49,1.53,1.53,0,0,1-.75.2h-.55a1.64,1.64,0,0,1-.65-.2,1.46,1.46,0,0,1-.54-.59,2.49,2.49,0,0,1-.21-1.14v-7.79a.58.58,0,0,1,.19-.46.63.63,0,0,1,.49-.24Z"/><path class="cls-1" d="M211.48,265.69a4.4,4.4,0,0,1-2.24-.55,3.81,3.81,0,0,1-1.49-1.49,4.55,4.55,0,0,1-.53-2.2,4.69,4.69,0,0,1,.55-2.38,3.89,3.89,0,0,1,1.43-1.5,3.67,3.67,0,0,1,1.88-.52,3.9,3.9,0,0,1,1.43.27,3.82,3.82,0,0,1,2.07,2,4.27,4.27,0,0,1,.34,1.62.63.63,0,0,1-.21.43.63.63,0,0,1-.45.18h-6.32l-.29-1.1h6.16l-.25.22v-.35a2.1,2.1,0,0,0-.43-1.13,2.6,2.6,0,0,0-2-1,2.83,2.83,0,0,0-1,.16,2.36,2.36,0,0,0-.84.55,2.44,2.44,0,0,0-.6,1,4.07,4.07,0,0,0-.23,1.42,3.4,3.4,0,0,0,.38,1.63,2.86,2.86,0,0,0,2.6,1.52,3.06,3.06,0,0,0,1-.14,3.16,3.16,0,0,0,.71-.36,4.23,4.23,0,0,0,.51-.44.69.69,0,0,1,.41-.15.55.55,0,0,1,.55.55h0a.62.62,0,0,1-.26.48,4.38,4.38,0,0,1-1.22.87A3.72,3.72,0,0,1,211.48,265.69Z"/><path class="cls-1" d="M216.69,264.21a.69.69,0,0,1-.13-.44.53.53,0,0,1,.28-.4.56.56,0,0,1,.76.11,3.67,3.67,0,0,0,1,.84,2.87,2.87,0,0,0,2.17.18,1.28,1.28,0,0,0,.65-.39,1,1,0,0,0,.27-.74,1,1,0,0,0-.28-.72,2.1,2.1,0,0,0-.7-.43,7.84,7.84,0,0,0-.94-.29,9.77,9.77,0,0,1-1-.33,3.48,3.48,0,0,1-.92-.47,2.1,2.1,0,0,1-.66-.7,2,2,0,0,1-.25-1,2,2,0,0,1,.39-1.25,2.67,2.67,0,0,1,1.06-.82,3.6,3.6,0,0,1,1.45-.28,4.2,4.2,0,0,1,.93.1,4,4,0,0,1,1,.35,2.65,2.65,0,0,1,.81.68.59.59,0,0,1,.16.4.49.49,0,0,1-.21.43.55.55,0,0,1-.39.12.62.62,0,0,1-.36-.16,2.07,2.07,0,0,0-.89-.69,2.82,2.82,0,0,0-1.11-.22,2.4,2.4,0,0,0-.75.12,1.36,1.36,0,0,0-.62.37,1.06,1.06,0,0,0-.25.73,1,1,0,0,0,.29.7,1.92,1.92,0,0,0,.74.44,9,9,0,0,0,1,.33c.34.09.67.19,1,.3a3.43,3.43,0,0,1,.85.44,1.84,1.84,0,0,1,.61.69,2.33,2.33,0,0,1,.24,1.1,2,2,0,0,1-.41,1.27,2.7,2.7,0,0,1-1.1.82,3.83,3.83,0,0,1-1.46.28,4.69,4.69,0,0,1-1.74-.34A3.4,3.4,0,0,1,216.69,264.21Z"/><path class="cls-1" d="M236.68,257.17a.66.66,0,0,1,.46.19.63.63,0,0,1,.18.45v7.06a.66.66,0,0,1-.19.46.59.59,0,0,1-.45.2.65.65,0,0,1-.64-.66v-1.56h.3a1.62,1.62,0,0,1-.24.77,3.25,3.25,0,0,1-.66.77,3.47,3.47,0,0,1-1,.59,3.2,3.2,0,0,1-1.22.24,3.45,3.45,0,0,1-2-.57,3.87,3.87,0,0,1-1.37-1.55,5.25,5.25,0,0,1,0-4.45,3.91,3.91,0,0,1,1.36-1.52,3.73,3.73,0,0,1,3.21-.33,3.2,3.2,0,0,1,1,.61,2.93,2.93,0,0,1,.68.85,2,2,0,0,1,.24.92l-.41-.09v-1.74a.63.63,0,0,1,.18-.45A.62.62,0,0,1,236.68,257.17Zm-3.3,7.33a2.56,2.56,0,0,0,1.42-.41,2.87,2.87,0,0,0,1-1.13,3.45,3.45,0,0,0,.36-1.61,3.37,3.37,0,0,0-.36-1.59,2.71,2.71,0,0,0-1-1.12,2.56,2.56,0,0,0-1.42-.41,2.48,2.48,0,0,0-1.4.4,2.79,2.79,0,0,0-1,1.1,3.88,3.88,0,0,0,0,3.23,3,3,0,0,0,1,1.13,2.49,2.49,0,0,0,1.4.41Z"/><path class="cls-1" d="M239.76,257.31h3.76a.6.6,0,0,1,0,1.19h-3.8a.52.52,0,0,1-.41-.18.58.58,0,0,1-.18-.43.52.52,0,0,1,.18-.41A.58.58,0,0,1,239.76,257.31Zm1.68-2.17a.63.63,0,0,1,.45.18.61.61,0,0,1,.18.46v7.72a1.06,1.06,0,0,0,.11.58.51.51,0,0,0,.3.26.9.9,0,0,0,.36.08.67.67,0,0,0,.28-.06.67.67,0,0,1,.28-.06.41.41,0,0,1,.29.16.62.62,0,0,1,.14.39.57.57,0,0,1-.34.49,1.53,1.53,0,0,1-.75.2h-.55a1.64,1.64,0,0,1-.65-.2,1.46,1.46,0,0,1-.54-.59,2.49,2.49,0,0,1-.21-1.14v-7.79a.58.58,0,0,1,.19-.46.64.64,0,0,1,.46-.23Z"/><path class="cls-1" d="M250.77,257.31h3.76a.58.58,0,0,1,.43.18.63.63,0,0,1,0,.84.63.63,0,0,1-.43.17h-3.76a.52.52,0,0,1-.41-.18.58.58,0,0,1-.18-.43.52.52,0,0,1,.18-.41A.58.58,0,0,1,250.77,257.31Zm1.68-2.17a.63.63,0,0,1,.45.18.61.61,0,0,1,.18.46v7.72a1.06,1.06,0,0,0,.11.58.53.53,0,0,0,.29.26.9.9,0,0,0,.36.08.67.67,0,0,0,.28-.06.67.67,0,0,1,.28-.06.37.37,0,0,1,.3.16.62.62,0,0,1,.14.39.61.61,0,0,1-.34.49,1.53,1.53,0,0,1-.75.2h-.55a1.64,1.64,0,0,1-.65-.2,1.46,1.46,0,0,1-.54-.59,2.49,2.49,0,0,1-.21-1.14v-7.79a.58.58,0,0,1,.19-.46.64.64,0,0,1,.46-.23Z"/><path class="cls-1" d="M261.3,257.13a2.81,2.81,0,0,1,1.67.45,2.51,2.51,0,0,1,.88,1.22,5.1,5.1,0,0,1,.26,1.69v4.38a.61.61,0,0,1-.18.46.59.59,0,0,1-.45.2.65.65,0,0,1-.64-.66v-4.38a3.17,3.17,0,0,0-.18-1.1,1.53,1.53,0,0,0-.59-.78,1.83,1.83,0,0,0-1.11-.3,2.51,2.51,0,0,0-1.2.3,2.23,2.23,0,0,0-.86.78,2,2,0,0,0-.32,1.1v4.38a.64.64,0,0,1-.64.64.64.64,0,0,1-.64-.64h0V254.31a.61.61,0,0,1,.18-.46.65.65,0,0,1,.46-.18.62.62,0,0,1,.64.64v4.78l-.32.35a2.31,2.31,0,0,1,.35-.84,3.32,3.32,0,0,1,.69-.76,3.73,3.73,0,0,1,.93-.53A2.77,2.77,0,0,1,261.3,257.13Z"/><path class="cls-1" d="M270.63,265.69a4.4,4.4,0,0,1-2.24-.55,3.81,3.81,0,0,1-1.49-1.49,4.55,4.55,0,0,1-.53-2.2,4.9,4.9,0,0,1,.55-2.38,3.89,3.89,0,0,1,1.43-1.5,3.67,3.67,0,0,1,1.88-.52,3.9,3.9,0,0,1,1.43.27,3.82,3.82,0,0,1,2.07,2,4.09,4.09,0,0,1,.34,1.62.59.59,0,0,1-.21.43.63.63,0,0,1-.45.18h-6.32l-.29-1.1H273l-.25.22v-.35a2,2,0,0,0-.43-1.13,2.62,2.62,0,0,0-.92-.73,2.59,2.59,0,0,0-1.13-.25,2.83,2.83,0,0,0-1,.16,2.36,2.36,0,0,0-.84.55,2.7,2.7,0,0,0-.6,1,4.07,4.07,0,0,0-.23,1.42,3.4,3.4,0,0,0,.38,1.63,2.82,2.82,0,0,0,1,1.11,2.9,2.9,0,0,0,1.55.41,3.06,3.06,0,0,0,1-.14,3.16,3.16,0,0,0,.71-.36,4.23,4.23,0,0,0,.51-.44.69.69,0,0,1,.41-.15.55.55,0,0,1,.55.55.62.62,0,0,1-.26.48,4.38,4.38,0,0,1-1.22.87A3.66,3.66,0,0,1,270.63,265.69Z"/><path class="cls-1" d="M73.48,277.11a.69.69,0,0,1,.37.1.67.67,0,0,1,.25.3l2.66,6.24-.26.13,2.71-6.35a.62.62,0,0,1,1-.26.52.52,0,0,1,.18.4.54.54,0,0,1,0,.18l-.06.16-3.09,7.1a.61.61,0,0,1-.56.42.66.66,0,0,1-.39-.09.57.57,0,0,1-.26-.33L72.89,278l-.06-.14a.61.61,0,0,1,0-.19.56.56,0,0,1,.17-.4A.62.62,0,0,1,73.48,277.11Z"/><path class="cls-1" d="M86.18,285.69a4.61,4.61,0,0,1-2.24-.55,4,4,0,0,1-1.49-1.49,4.44,4.44,0,0,1-.52-2.2,4.69,4.69,0,0,1,.55-2.38,3.82,3.82,0,0,1,1.43-1.5,3.61,3.61,0,0,1,1.87-.52,3.9,3.9,0,0,1,1.43.27,3.66,3.66,0,0,1,1.22.79,4,4,0,0,1,.86,1.25,4.08,4.08,0,0,1,.33,1.62.59.59,0,0,1-.21.43.6.6,0,0,1-.44.18H82.65l-.29-1.1h6.16l-.26.22v-.35a2,2,0,0,0-.42-1.13,2.62,2.62,0,0,0-2.06-1,2.83,2.83,0,0,0-1,.16,2.4,2.4,0,0,0-.85.55,2.7,2.7,0,0,0-.6,1,4.06,4.06,0,0,0-.22,1.42,3.39,3.39,0,0,0,.37,1.63,2.82,2.82,0,0,0,1,1.11,2.9,2.9,0,0,0,1.55.41,3.06,3.06,0,0,0,1-.14,3.16,3.16,0,0,0,.71-.36,4.14,4.14,0,0,0,.5-.44.72.72,0,0,1,.42-.15.55.55,0,0,1,.38.16.55.55,0,0,1,.16.39.61.61,0,0,1-.25.48,4.1,4.1,0,0,1-1.23.87A3.75,3.75,0,0,1,86.18,285.69Z"/><path class="cls-1" d="M96,277.05a3,3,0,0,1,1.72.44,2.45,2.45,0,0,1,.88,1.2,4.81,4.81,0,0,1,.27,1.68v4.5a.58.58,0,0,1-.19.46.59.59,0,0,1-.45.2.63.63,0,0,1-.46-.2.61.61,0,0,1-.18-.46v-4.46a2.93,2.93,0,0,0-.19-1.1,1.55,1.55,0,0,0-.6-.78,2,2,0,0,0-1.16-.3,2.67,2.67,0,0,0-1.24.3,2.31,2.31,0,0,0-.89.78,1.81,1.81,0,0,0-.34,1.1v4.46a.65.65,0,0,1-.64.66h0a.59.59,0,0,1-.45-.2.58.58,0,0,1-.19-.46v-7a.66.66,0,0,1,.64-.64.59.59,0,0,1,.47.19.66.66,0,0,1,.17.45V279l-.32.35a2.35,2.35,0,0,1,.37-.84,3.37,3.37,0,0,1,1.72-1.29A3,3,0,0,1,96,277.05Z"/><path class="cls-1" d="M107.8,277.25a.58.58,0,0,1,.46.19.63.63,0,0,1,.18.45v4.42a3.32,3.32,0,0,1-.91,2.51,4,4,0,0,1-5,0,3.38,3.38,0,0,1-.9-2.51v-4.37a.63.63,0,0,1,.18-.45.66.66,0,0,1,.92,0h0a.63.63,0,0,1,.18.45v4.37a2.18,2.18,0,0,0,.56,1.65,2.51,2.51,0,0,0,3.16,0,2.31,2.31,0,0,0,.55-1.65v-4.37a.63.63,0,0,1,.18-.45A.59.59,0,0,1,107.8,277.25Z"/><path class="cls-1" d="M115,285.69a4.61,4.61,0,0,1-2.24-.55,3.81,3.81,0,0,1-1.49-1.49,4.55,4.55,0,0,1-.53-2.2,4.8,4.8,0,0,1,.56-2.38,3.82,3.82,0,0,1,1.43-1.5,3.61,3.61,0,0,1,1.87-.52,3.9,3.9,0,0,1,1.43.27,3.77,3.77,0,0,1,1.22.79,4.08,4.08,0,0,1,1.19,2.87.59.59,0,0,1-.21.43.63.63,0,0,1-.45.18h-6.32l-.28-1.1h6.16l-.26.22v-.35a2,2,0,0,0-.42-1.13,2.64,2.64,0,0,0-2.06-1,2.83,2.83,0,0,0-1,.16,2.4,2.4,0,0,0-.85.55,2.7,2.7,0,0,0-.6,1,4,4,0,0,0-.21,1.37,3.39,3.39,0,0,0,.37,1.63,2.82,2.82,0,0,0,1,1.11,2.9,2.9,0,0,0,1.55.41,3.06,3.06,0,0,0,1-.14,3,3,0,0,0,.72-.36,4.14,4.14,0,0,0,.5-.44.72.72,0,0,1,.42-.15.55.55,0,0,1,.38.16.55.55,0,0,1,.16.39.62.62,0,0,1-.26.48,4.06,4.06,0,0,1-1.22.87A3.7,3.7,0,0,1,115,285.69Z"/><path class="cls-1" d="M125.11,277.31h3.78a.53.53,0,0,1,.42.18.58.58,0,0,1,.17.41.61.61,0,0,1-.17.43.59.59,0,0,1-.42.17h-3.76a.6.6,0,0,1-.42-.18.63.63,0,0,1-.17-.43.58.58,0,0,1,.17-.41A.66.66,0,0,1,125.11,277.31Zm1.68-2.17a.63.63,0,0,1,.45.18.66.66,0,0,1,.17.46v7.72a1.28,1.28,0,0,0,.11.58.59.59,0,0,0,.3.26.9.9,0,0,0,.36.08.67.67,0,0,0,.28-.06.67.67,0,0,1,.28-.06.37.37,0,0,1,.3.16.56.56,0,0,1,.13.39.58.58,0,0,1-.33.49,1.54,1.54,0,0,1-.76.2h-.55a1.65,1.65,0,0,1-.64-.2,1.34,1.34,0,0,1-.54-.59,2.5,2.5,0,0,1-.22-1.14v-7.79a.72.72,0,0,1,.66-.69Z"/><path class="cls-1" d="M139.33,281.37a4.53,4.53,0,0,1-.54,2.22,4.13,4.13,0,0,1-1.48,1.54,4.06,4.06,0,0,1-2.12.56,4,4,0,0,1-2.1-.56,4.15,4.15,0,0,1-1.49-1.54,4.79,4.79,0,0,1,0-4.45,4.13,4.13,0,0,1,1.49-1.53,4,4,0,0,1,2.1-.56,4,4,0,0,1,2.12.56,4.1,4.1,0,0,1,1.48,1.53A4.54,4.54,0,0,1,139.33,281.37Zm-1.28,0a3.46,3.46,0,0,0-.37-1.64,2.79,2.79,0,0,0-1-1.1,2.86,2.86,0,0,0-2.92,0,2.86,2.86,0,0,0-1,1.1,3.75,3.75,0,0,0,0,3.25,3,3,0,0,0,1,1.11,2.8,2.8,0,0,0,2.92,0,2.82,2.82,0,0,0,1-1.11A3.46,3.46,0,0,0,138.05,281.37Z"/><path class="cls-1" d="M145.89,284.21a.64.64,0,0,1-.13-.44.52.52,0,0,1,.27-.4.58.58,0,0,1,.38-.1.61.61,0,0,1,.39.21,3.67,3.67,0,0,0,1,.84,2.92,2.92,0,0,0,2.18.18,1.4,1.4,0,0,0,.65-.39,1.05,1.05,0,0,0,.26-.74,1,1,0,0,0-.27-.72,2.25,2.25,0,0,0-.71-.43,6.37,6.37,0,0,0-.94-.29c-.35-.1-.7-.21-1-.33a3.48,3.48,0,0,1-.92-.47,2.06,2.06,0,0,1-.51-3,2.64,2.64,0,0,1,1.05-.82,3.6,3.6,0,0,1,1.45-.28,4.23,4.23,0,0,1,.94.1,3.62,3.62,0,0,1,1,.35,2.81,2.81,0,0,1,.82.68.74.74,0,0,1,.16.4.49.49,0,0,1-.21.43.58.58,0,0,1-.4.12A.57.57,0,0,1,151,279a2.33,2.33,0,0,0-.84-.62,2.9,2.9,0,0,0-1.12-.22,2.4,2.4,0,0,0-.75.12,1.38,1.38,0,0,0-.61.37,1,1,0,0,0-.25.73,1,1,0,0,0,.29.7,1.81,1.81,0,0,0,.73.44,9,9,0,0,0,1,.33c.34.09.66.19,1,.3a4.11,4.11,0,0,1,.86.44,2,2,0,0,1,.6.69,2.32,2.32,0,0,1,.23,1.07,2,2,0,0,1-.42,1.27,2.62,2.62,0,0,1-1.1.82,3.83,3.83,0,0,1-1.46.28,4.9,4.9,0,0,1-1.74-.34A3.39,3.39,0,0,1,145.89,284.21Z"/><path class="cls-1" d="M154.05,277.31h3.76a.58.58,0,0,1,.43.18.63.63,0,0,1,0,.84.61.61,0,0,1-.43.17h-3.76a.52.52,0,0,1-.41-.18.58.58,0,0,1-.18-.43.52.52,0,0,1,.18-.41A.58.58,0,0,1,154.05,277.31Zm1.68-2.17a.63.63,0,0,1,.45.18.61.61,0,0,1,.18.46v7.72a1.06,1.06,0,0,0,.11.58.51.51,0,0,0,.3.26.9.9,0,0,0,.36.08.63.63,0,0,0,.27-.06.72.72,0,0,1,.29-.06.41.41,0,0,1,.29.16.62.62,0,0,1,.14.39.61.61,0,0,1-.34.49,1.53,1.53,0,0,1-.75.2h-.55a1.64,1.64,0,0,1-.65-.2,1.46,1.46,0,0,1-.54-.59,2.49,2.49,0,0,1-.21-1.14v-7.79a.58.58,0,0,1,.19-.46.64.64,0,0,1,.46-.23Z"/><path class="cls-1" d="M167.32,277.17a.66.66,0,0,1,.46.19.63.63,0,0,1,.18.45v7.06a.58.58,0,0,1-.19.46.59.59,0,0,1-.45.2.63.63,0,0,1-.46-.2.61.61,0,0,1-.18-.46v-1.56h.3a1.62,1.62,0,0,1-.24.77,3.25,3.25,0,0,1-.66.77,3.47,3.47,0,0,1-1,.59,3.2,3.2,0,0,1-1.22.24,3.45,3.45,0,0,1-2-.57,4,4,0,0,1-1.37-1.55,5.25,5.25,0,0,1,0-4.45,3.91,3.91,0,0,1,1.36-1.52,3.73,3.73,0,0,1,3.21-.33,3.2,3.2,0,0,1,1,.61,2.69,2.69,0,0,1,.68.85,2,2,0,0,1,.24.92l-.41-.09v-1.74a.63.63,0,0,1,.18-.45A.64.64,0,0,1,167.32,277.17ZM164,284.5a2.56,2.56,0,0,0,1.42-.41,2.87,2.87,0,0,0,1-1.13,3.45,3.45,0,0,0,.36-1.61,3.37,3.37,0,0,0-.36-1.59,2.71,2.71,0,0,0-1-1.12,2.56,2.56,0,0,0-1.42-.41,2.48,2.48,0,0,0-1.4.4,2.79,2.79,0,0,0-1,1.1,3.88,3.88,0,0,0,0,3.23,3,3,0,0,0,1,1.13,2.49,2.49,0,0,0,1.4.41Z"/><path class="cls-1" d="M171.37,285.53a.65.65,0,0,1-.64-.66v-7a.63.63,0,0,1,.18-.45.66.66,0,0,1,.92,0h0a.58.58,0,0,1,.17.45V280l-.19-.34a3.83,3.83,0,0,1,.35-1,3.08,3.08,0,0,1,.63-.85,2.89,2.89,0,0,1,.88-.59,2.93,2.93,0,0,1,1.09-.21,1.32,1.32,0,0,1,.64.16.55.55,0,0,1,.3.48.6.6,0,0,1-.18.49.55.55,0,0,1-.39.16.9.9,0,0,1-.4-.09,1.36,1.36,0,0,0-.49-.08,1.66,1.66,0,0,0-.79.21,2.52,2.52,0,0,0-.72.62,3.11,3.11,0,0,0-.52.9,2.85,2.85,0,0,0-.21,1.08v3.89a.61.61,0,0,1-.18.46A.58.58,0,0,1,171.37,285.53Z"/><path class="cls-1" d="M177.22,277.31H181a.61.61,0,0,1,.59.59.54.54,0,0,1-.17.43.59.59,0,0,1-.42.17h-3.76a.52.52,0,0,1-.41-.18.58.58,0,0,1-.18-.43.52.52,0,0,1,.18-.41A.58.58,0,0,1,177.22,277.31Zm1.68-2.17a.6.6,0,0,1,.62.58v7.78a1.17,1.17,0,0,0,.12.58.53.53,0,0,0,.29.26.9.9,0,0,0,.36.08.67.67,0,0,0,.28-.06.7.7,0,0,1,.32-.05.37.37,0,0,1,.3.16.56.56,0,0,1,.13.39.58.58,0,0,1-.33.49,1.53,1.53,0,0,1-.75.2h-.55a1.64,1.64,0,0,1-.65-.2,1.34,1.34,0,0,1-.54-.59,2.5,2.5,0,0,1-.22-1.14v-7.79a.61.61,0,0,1,.2-.46.62.62,0,0,1,.41-.24Z"/><path class="cls-1" d="M192.29,285.69a4.61,4.61,0,0,1-2.24-.55,4,4,0,0,1-1.49-1.49,4.44,4.44,0,0,1-.52-2.2,4.69,4.69,0,0,1,.55-2.38,3.82,3.82,0,0,1,1.43-1.5,3.61,3.61,0,0,1,1.87-.52,3.9,3.9,0,0,1,1.43.27,3.66,3.66,0,0,1,1.22.79,4,4,0,0,1,.86,1.25,4.08,4.08,0,0,1,.33,1.62.59.59,0,0,1-.21.43.6.6,0,0,1-.44.18h-6.32l-.29-1.1h6.16l-.26.22v-.35a2,2,0,0,0-.42-1.13,2.64,2.64,0,0,0-2.06-1,2.83,2.83,0,0,0-.95.16,2.4,2.4,0,0,0-.85.55,2.7,2.7,0,0,0-.6,1,4.06,4.06,0,0,0-.22,1.42,3.39,3.39,0,0,0,.37,1.63,2.86,2.86,0,0,0,2.6,1.52,3.06,3.06,0,0,0,1-.14A3.16,3.16,0,0,0,194,284a3.5,3.5,0,0,0,.5-.44.72.72,0,0,1,.42-.15.55.55,0,0,1,.54.55.61.61,0,0,1-.25.48,4.38,4.38,0,0,1-1.27.86A3.55,3.55,0,0,1,192.29,285.69Z"/><path class="cls-1" d="M197.81,277.16a.61.61,0,0,1,.51.27l5.57,7.1a.61.61,0,0,1,.13.39.66.66,0,0,1-.19.46.64.64,0,0,1-.45.19.68.68,0,0,1-.49-.26l-5.57-7.09a.67.67,0,0,1-.12-.39.6.6,0,0,1,.2-.47A.64.64,0,0,1,197.81,277.16Zm0,8.4a.7.7,0,0,1-.41-.16.53.53,0,0,1-.21-.42.59.59,0,0,1,.16-.4l2.62-3.31.68,1.06-2.33,3A.59.59,0,0,1,197.81,285.56Zm5.57-8.4a.61.61,0,0,1,.44.17.56.56,0,0,1,.17.4.74.74,0,0,1,0,.21.72.72,0,0,1-.12.21l-2.61,3.34-.67-1,2.3-3.07A.65.65,0,0,1,203.38,277.16Z"/><path class="cls-1" d="M212.79,277.17a.63.63,0,0,1,.64.62v7.08a.58.58,0,0,1-.19.46.59.59,0,0,1-.45.2.63.63,0,0,1-.46-.2.61.61,0,0,1-.18-.46v-1.56h.3a1.62,1.62,0,0,1-.24.77,3.45,3.45,0,0,1-.65.77,3.61,3.61,0,0,1-1,.59,3.2,3.2,0,0,1-1.22.24,3.45,3.45,0,0,1-2-.57,3.77,3.77,0,0,1-1.36-1.55,5.18,5.18,0,0,1,0-4.45,3.91,3.91,0,0,1,1.36-1.52,3.73,3.73,0,0,1,3.21-.33,3.2,3.2,0,0,1,1,.61,2.69,2.69,0,0,1,.68.85,2,2,0,0,1,.24.92l-.41-.09v-1.74a.64.64,0,0,1,.73-.64Zm-3.3,7.33a2.48,2.48,0,0,0,1.42-.41,3,3,0,0,0,1-1.13,3.57,3.57,0,0,0,.35-1.61,3.51,3.51,0,0,0-.35-1.59,2.84,2.84,0,0,0-1-1.12,2.66,2.66,0,0,0-2.82,0,2.79,2.79,0,0,0-1,1.1,3.88,3.88,0,0,0,0,3.23,3,3,0,0,0,1,1.13,2.49,2.49,0,0,0,1.4.41Z"/><path class="cls-1" d="M220.15,277.13a2.51,2.51,0,0,1,2.67,2.11h-.24l.11-.29a2.42,2.42,0,0,1,.66-.86,3.92,3.92,0,0,1,1.07-.69,3.07,3.07,0,0,1,1.26-.27,2.74,2.74,0,0,1,1.67.45,2.6,2.6,0,0,1,.87,1.22,5.16,5.16,0,0,1,.26,1.7v4.37a.61.61,0,0,1-.18.46.63.63,0,0,1-.89,0l0,0a.61.61,0,0,1-.18-.46v-4.34a3.29,3.29,0,0,0-.18-1.12,1.62,1.62,0,0,0-.59-.8,1.83,1.83,0,0,0-1.11-.3,2.4,2.4,0,0,0-1.2.3,2.16,2.16,0,0,0-.87.8,2.09,2.09,0,0,0-.32,1.12v4.34a.71.71,0,0,1-.17.46.63.63,0,0,1-.47.2.59.59,0,0,1-.45-.2.58.58,0,0,1-.19-.46v-4.38a3.16,3.16,0,0,0-.17-1.1,1.57,1.57,0,0,0-.56-.78,1.83,1.83,0,0,0-1.11-.3,2.4,2.4,0,0,0-1.17.3,2.25,2.25,0,0,0-.84.78,1.89,1.89,0,0,0-.32,1.1v4.38a.66.66,0,0,1-.19.46.59.59,0,0,1-.45.2.65.65,0,0,1-.64-.66v-7a.63.63,0,0,1,.18-.45.66.66,0,0,1,.92,0h0a.63.63,0,0,1,.18.45v1.22l-.36.38a2.49,2.49,0,0,1,.33-.83,3.58,3.58,0,0,1,.68-.77,3.66,3.66,0,0,1,.93-.56A2.9,2.9,0,0,1,220.15,277.13Z"/><path class="cls-1" d="M231.64,285.51a.68.68,0,0,1-.52-.19.72.72,0,0,1-.19-.53v-.32a.67.67,0,0,1,.71-.74h.12a.69.69,0,0,1,.53.2.75.75,0,0,1,.18.54v.32a.75.75,0,0,1-.18.53.65.65,0,0,1-.53.19Z"/></g><circle id="circle_3_point_3" data-name="circle 3 point 3" class="cls-1" cx="151.41" cy="30.81" r="16.5"/><path class="cls-2" d="M147.89,36.75h.33a1.44,1.44,0,0,1,.41.21,3.22,3.22,0,0,0,.87.53,2.92,2.92,0,0,0,1.17.21,2.85,2.85,0,0,0,1.37-.35,2.67,2.67,0,0,0,1-1,2.73,2.73,0,0,0,.4-1.52,2.69,2.69,0,0,0-.37-1.47,2.26,2.26,0,0,0-1-.86,3,3,0,0,0-1.27-.29,2.56,2.56,0,0,0-.62.07l-.5.14a1.81,1.81,0,0,1-.52.07.76.76,0,0,1-.61-.27,1,1,0,0,1-.21-.65,1,1,0,0,1,.09-.42,1.46,1.46,0,0,1,.27-.38l3.7-4.08.44.4h-5.3a.92.92,0,0,1-.94-.94.83.83,0,0,1,.27-.64,1,1,0,0,1,.67-.26h6.35a1,1,0,0,1,.79.3,1,1,0,0,1,.25.7.78.78,0,0,1-.11.42,1.82,1.82,0,0,1-.29.38l-3.7,4.1-.52-.54a3.47,3.47,0,0,1,.55-.16,3.09,3.09,0,0,1,.61-.08,3.65,3.65,0,0,1,2.06.58,4,4,0,0,1,1.36,1.61,4.62,4.62,0,0,1,.52,2.19,4.7,4.7,0,0,1-.62,2.56A4.48,4.48,0,0,1,153,39a6,6,0,0,1-2.69.58,5.58,5.58,0,0,1-1.52-.21,4.18,4.18,0,0,1-1.3-.61,1.19,1.19,0,0,1-.46-.43,1,1,0,0,1-.12-.45,1.2,1.2,0,0,1,.28-.72A.87.87,0,0,1,147.89,36.75Z"/></g></g></g><rect class="cls-3" width="300" height="300"/></g><g id="Layer_2-2" data-name="Layer 2"><g id="illustration_3" data-name="illustration 3"><path id="Path_1186" data-name="Path 1186" class="cls-4" d="M168,165.6s-19.49,19.71-29.67,20.1l-4.56,5.37-2.59,3.08-4-4.55-16.15-18.38s2.4-1.32,4.37-6a32.79,32.79,0,0,0,2.33-9.85c1-10.26,7.63-25.52,9.34-30.56.48-1.45-2.59-15,3.48-13s10,12.37,2.37,41.61l29.44,10.14Z"/><path id="Path_1187" data-name="Path 1187" class="cls-5" d="M168,165.6s-19.49,19.71-29.67,20.1l-4.56,5.37a13.15,13.15,0,0,1-6.59-1.52l-16.15-18.36s2.4-1.33,4.37-6c3.55,4.89,14,16.34,29.79,7.67,5.32-2.93,11.44-6.27,17.22-9.3Z"/><path id="Path_1188" data-name="Path 1188" class="cls-6" d="M172.92,165H140.27a6.59,6.59,0,0,1-6.59-6.59V75.29a5.58,5.58,0,0,1,5.58-5.58h32.68a6.94,6.94,0,0,1,7,6.93h0v82.28A6,6,0,0,1,173,165Z"/><path id="Path_1189" data-name="Path 1189" class="cls-1" d="M170.11,138.22H140.92a2.81,2.81,0,0,1-2.82-2.81h0a2.82,2.82,0,0,1,2.82-2.82h29.19a2.81,2.81,0,0,1,2.81,2.82h0A2.87,2.87,0,0,1,170.11,138.22Z"/><path id="Path_1190" data-name="Path 1190" class="cls-1" d="M170.11,145.22H140.92a2.81,2.81,0,0,1-2.82-2.81h0a2.81,2.81,0,0,1,2.82-2.81h29.19a2.81,2.81,0,0,1,2.81,2.81h0A2.83,2.83,0,0,1,170.11,145.22Z"/><path id="Path_1191" data-name="Path 1191" class="cls-7" d="M167,154.45H144a1,1,0,0,1-1-.95h0v-4.33a1,1,0,0,1,.93-1H167a1,1,0,0,1,1,.94v4.41A1,1,0,0,1,167,154.45Z"/><rect id="Rectangle_794" data-name="Rectangle 794" class="cls-3" x="142.13" y="103.25" width="28.45" height="20.93"/><path id="Path_1192" data-name="Path 1192" d="M148.4,108.22l.4-.44a2.09,2.09,0,0,0,1.45.62c.67,0,1.12-.33,1.12-.85s-.37-.7-.85-.92l-.75-.34a1.38,1.38,0,0,1,.56-2.7h0a2.12,2.12,0,0,1,1.52.63l-.34.41a1.63,1.63,0,0,0-1.18-.48c-.59,0-1,.29-1,.74s.45.7.85.84l.75.34a1.49,1.49,0,0,1,1.11,1.41,1.57,1.57,0,0,1-1.65,1.49h-.12A2.26,2.26,0,0,1,148.4,108.22Z"/><path id="Path_1193" data-name="Path 1193" d="M154.06,103.7h.73l1.74,5.18h-.63L155,106c-.19-.6-.38-1.11-.53-1.74h0c-.14.59-.33,1.18-.51,1.74l-.93,2.88h-.67Zm-.81,3.07h2.41v.53h-2.41Z"/><path id="Path_1194" data-name="Path 1194" d="M157.29,103.7h3v.56H158V106h2v.56h-2v2.31h-.67Z"/><path id="Path_1195" data-name="Path 1195" d="M161.21,103.7h3v.56h-2.37v1.63h2v.56h-2v1.89h2.42v.55h-3.09V103.7Z"/><path id="Path_1196" data-name="Path 1196" d="M151.5,113.18h.75l1.74,5.19h-.67l-.89-2.89c-.19-.59-.38-1.11-.52-1.74h0c-.15.59-.34,1.19-.52,1.74l-.91,2.89h-.67Zm-.81,3.12h2.41v.51h-2.41Z"/><path id="Path_1197" data-name="Path 1197" d="M154.79,113.18h1.48c1.12,0,2,.42,2,1.52s-.78,1.6-1.93,1.6h-.85v2.07h-.67Zm1.44,2.64c.92,0,1.34-.34,1.34-1.12s-.45-1-1.38-1h-.73v2.07Z"/><path id="Path_1198" data-name="Path 1198" d="M159.25,113.18h1.49c1.12,0,2,.42,2,1.52s-.78,1.6-1.93,1.6h-.85v2.07h-.67Zm1.46,2.64c.92,0,1.32-.34,1.32-1.12s-.44-1-1.37-1h-.74v2.07Z"/><path id="Path_1199" data-name="Path 1199" d="M142.13,135.18l-.4.82h-.11l-.26-.18v-.11l.64-.64-.89-.14v-.11l.11-.31.11-.06.81.4L142,134l.08-.07h.33l.07.07-.15.89.82-.4.11.06.11.31v.11l-.89.14.62.64v.11l-.25.18h-.11Z"/><path id="Path_1200" data-name="Path 1200" d="M144.74,135.18l-.42.82h-.11l-.26-.18v-.11l.63-.64-.89-.14v-.11l.11-.31.11-.06.81.4-.14-.89.07-.07H145l.08.07-.15.89.82-.4.11.06.11.31v.11l-.89.14.64.64-.08.11-.26.18h-.11Z"/><path id="Path_1201" data-name="Path 1201" d="M147.39,135.18l-.4.82h-.11l-.26-.18v-.11l.64-.64-.89-.14v-.11l.11-.31.11-.06.81.4-.14-.89.08-.07h.33l.07.07-.15.89.82-.4.11.06.11.31v.11l-.89.14.62.64v.11l-.25.18H148Z"/><path id="Path_1202" data-name="Path 1202" d="M150.07,135.18l-.41.82h-.11l-.26-.18v-.11l.63-.64-.9-.14v-.11l.12-.31.11-.06.81.4-.15-.89.07-.07h.34l.08.07-.16.89.82-.4.11.06.11.31v.11l-.89.14.62.64v.11l-.26.18h-.11Z"/><path id="Path_1203" data-name="Path 1203" d="M152.7,135.18l-.42.82h-.11l-.25-.18v-.11l.62-.64-.89-.14v-.11l.11-.31.11-.06.82.4-.16-.89.08-.07h.33l.08.07-.15.89.81-.4.11.06.11.31v.11l-.89.14.63.64v.11l-.26.18h-.11Z"/><g id="Group_248" data-name="Group 248"><path id="Path_1204" data-name="Path 1204" d="M142.84,142.08l-.41.81h-.11l-.25-.19v-.11l.63-.63-.89-.14v-.11l.11-.3.11-.07.82.4-.15-.89.08-.07h.34l.06.07-.14.89.81-.4.11.07.12.3v.11l-.9.14.63.63v.11l-.26.19h-.11Z"/><path id="Path_1205" data-name="Path 1205" d="M145.51,142.08l-.41.81H145l-.27-.19v-.11l.64-.63-.89-.14v-.11l.11-.3.11-.07.82.4-.15-.89.08-.07h.33l.07.07-.14.89.81-.4.11.07.11.3v.11l-.89.14.63.63v.11l-.27.19h-.11Z"/><path id="Path_1206" data-name="Path 1206" d="M148.14,142.08l-.4.81h-.11l-.27-.19v-.11L148,142l-.9-.14v-.11l.11-.3.12-.07.81.4-.14-.89.07-.07h.34l.07.07-.15.89.82-.4.11.07.11.3v.11l-.89.14.62.63v.11l-.27.19h-.11Z"/><path id="Path_1207" data-name="Path 1207" d="M150.78,142.08l-.42.81h-.11l-.25-.19v-.11l.62-.63-.89-.14v-.11l.11-.3.11-.07.82.4-.16-.89.08-.07H151l.08.07-.16.89.82-.4.11.07.11.3v.11l-.89.14.63.63v.11l-.26.19h-.11Z"/><path id="Path_1208" data-name="Path 1208" d="M153.44,142.08l-.42.81h-.11l-.26-.19v-.11l.63-.63-.89-.14v-.11l.11-.3.11-.07.81.4-.14-.89.07-.07h.33l.08.07-.15.89.82-.4.11.07.11.3v.11l-.89.14.64.63v.11l-.26.19H154Z"/><path id="Path_1209" data-name="Path 1209" d="M156.06,142.08l-.4.81h-.11l-.26-.19v-.11l.64-.63-.9-.14v-.11l.11-.3.12-.07.81.4-.16-.89.08-.07h.34l.06.07-.14.89.81-.4.12.07.11.3v.11l-.9.14.63.63v.11l-.26.19h-.11Z"/><path id="Path_1210" data-name="Path 1210" d="M158.7,142.08l-.42.81h-.14l-.26-.19v-.11l.63-.63-.9-.14v-.11l.11-.3.12-.07.81.4-.14-.89.06-.07h.34l.08.07-.15.89.82-.4.11.07.11.3v.11L159,142l.63.63v.11l-.25.19h-.12Z"/></g><path id="Path_1211" data-name="Path 1211" class="cls-8" d="M172,165.93H140.36a7.52,7.52,0,0,1-7.52-7.52v-82a7.53,7.53,0,0,1,7.52-7.53H172a7.53,7.53,0,0,1,7.52,7.53v82A7.52,7.52,0,0,1,172,165.93Z"/><path id="Path_1212" data-name="Path 1212" d="M163.81,73.77H149.36a.57.57,0,0,1-.59-.57h0a.57.57,0,0,1,.57-.59h14.53a.58.58,0,0,1,.59.57h0a.61.61,0,0,1-.63.6Z"/><path id="Path_1213" data-name="Path 1213" d="M145.73,73.77h0a.57.57,0,0,1-.59-.57h0a.57.57,0,0,1,.57-.59h0a.58.58,0,0,1,.59.57h0a.58.58,0,0,1-.57.59h0Z"/><path id="Path_1214" data-name="Path 1214" class="cls-4" d="M208.07,215.05c-8.74,2.23-19.86,3.74-19.86,3.74s-7.21-6.44-13.06-9.26-2.24-5.26-12.15-15.81c0,0-1-1.86-2.34-4.12-2-3.41-4.75-7.82-6-8.59-2.23-1.3,4.47-5.49,7.29-2.82a9.21,9.21,0,0,1,1.49,1.75l-6-21.56s-3.35-8.74,2.23-8.93S173,181.38,173,181.38a12.62,12.62,0,0,1,2.33-5.34c2.56-3.22,7-5,9.3.92,0,0,3.12-8.51,8.94-1.58a3.42,3.42,0,0,1,3.25-2.64,7.86,7.86,0,0,1,3.48.64,11.06,11.06,0,0,1,5.59,5.58c5.3,10.67,7.14,23.08,10.88,28.9a11.48,11.48,0,0,0,1,1.37C219.93,211.27,214.67,213.38,208.07,215.05Z"/><path id="Path_1215" data-name="Path 1215" class="cls-5" d="M217,207.76,208,215.05c-8.75,2.23-19.86,3.74-19.86,3.74s-7.22-6.44-13.07-9.26-2.23-5.26-12.15-15.81c0,0-1-1.86-2.33-4.11,3.66,3.35,12.18,12.07,17,17.07a11.67,11.67,0,0,0,8.78,3.59c6.3-.18,20,2.63,24.27-1.89,5.52-5.77-7.37-29.34-10.3-35.08a11,11,0,0,1,5.59,5.59C211.41,189.56,213.22,202,217,207.76Z"/><path id="Path_1216" data-name="Path 1216" class="cls-9" d="M142.5,188.41l-23.66,39.75s-59.56.08-58.38,0c.26,0,2.7-2.88,6.37-7.37,7.37-8.94,19.7-24.4,29.48-36.67h0L111,165.6l16.55,12a.11.11,0,0,0,.08,0c.14.11.22.15.22.19h0l13.19,9.55Z"/><path id="Path_1217" data-name="Path 1217" class="cls-9" d="M235.2,228.16H188.29v-9.37c2.7-1.33,10.22-4.89,17.08-8.11h0c1.88-.89,3.77-1.79,5.44-2.56,4.46-2,7.62-3.56,7.62-3.56Z"/><path id="Path_1218" data-name="Path 1218" class="cls-10" d="M142.5,188.41l-23.66,39.75s-59.56.08-58.38,0h.07c5.3-4,10.19-7.82,22.41-6.37,38.31,4.64,54.41-28.41,58.15-34.37Z"/><path id="Path_1219" data-name="Path 1219" class="cls-11" d="M197.48,228.16h-9.27v-9.37c2.72-1.33,10.23-4.89,17.08-8.11C205,211,191.7,223.54,197.48,228.16Z"/><path id="Path_1220" data-name="Path 1220" class="cls-11" d="M235.2,228.16h-5.82a77.9,77.9,0,0,1-4.56-9.37c-5.93-14.41-14.07-10.41-14.07-10.41v-.26c4.47-2,7.64-3.56,7.64-3.56Z"/><path id="Path_1221" data-name="Path 1221" class="cls-11" d="M127.58,177.6c-2-1.37-12.6-8.52-16.56-6.36-4.29,2.33-14.38,12.55-14.7,12.88L111,165.61Z"/></g></g></svg>