<svg xmlns="http://www.w3.org/2000/svg" viewBox="0 0 274.22 271.38"><defs><style>.cls-1{isolation:isolate;}.cls-2{fill:#fff;}.cls-3{fill:#ffacb6;}.cls-4{fill:#ff9898;}.cls-5{fill:#f4f4f4;}.cls-6{fill:#f96701;}.cls-7,.cls-8{fill:none;}.cls-8{stroke:#323648;stroke-miterlimit:10;stroke-width:2px;}.cls-9{fill:blue;}.cls-10{fill:#1121c1;}.cls-11{fill:#0f38c7;}.cls-12{fill:#333a41;}</style></defs><g id="Layer_2" data-name="Layer 2"><g id="Layer_7" data-name="Layer 7"><g id="point_3" data-name="point 3"><g id="Authority_shares_the_password_with_the_students_candidates_at_the_venue_to_start_exam." data-name="Authority shares the password with the students candidates at the venue to start exam." class="cls-1"><g class="cls-1"><path class="cls-2" d="M4.92,221.68l-3.76,9.15a.65.65,0,0,1-.23.31.59.59,0,0,1-.33.11.58.58,0,0,1-.45-.16A.56.56,0,0,1,0,230.7a.43.43,0,0,1,0-.24l4.14-10.08a.55.55,0,0,1,.25-.32A.6.6,0,0,1,4.8,220a.63.63,0,0,1,.38.11.57.57,0,0,1,.23.3l4.13,10a.74.74,0,0,1,.05.25.59.59,0,0,1-.19.46.67.67,0,0,1-.44.17.66.66,0,0,1-.35-.11.77.77,0,0,1-.24-.32l-3.81-9.16Zm-3,6.54L2.5,227H7.25l.24,1.24Z"/><path class="cls-2" d="M17.56,222.94a.59.59,0,0,1,.46.19.61.61,0,0,1,.18.45V228a3.39,3.39,0,0,1-.91,2.51,3.44,3.44,0,0,1-2.52.88,3.42,3.42,0,0,1-2.5-.88,3.39,3.39,0,0,1-.91-2.51v-4.37a.65.65,0,0,1,.64-.64.6.6,0,0,1,.47.19.6.6,0,0,1,.17.45V228a2.24,2.24,0,0,0,.56,1.65,2.15,2.15,0,0,0,1.57.56,2.14,2.14,0,0,0,1.59-.56,2.24,2.24,0,0,0,.56-1.65v-4.37a.61.61,0,0,1,.18-.45A.59.59,0,0,1,17.56,222.94Z"/><path class="cls-2" d="M20.64,223H24.4a.57.57,0,0,1,.43.18.58.58,0,0,1,.17.41.58.58,0,0,1-.6.6H20.64a.54.54,0,0,1-.41-.18.58.58,0,0,1-.18-.43.54.54,0,0,1,.18-.41A.57.57,0,0,1,20.64,223Zm1.68-2.17a.6.6,0,0,1,.45.18.62.62,0,0,1,.18.46v7.72a1.13,1.13,0,0,0,.11.58.51.51,0,0,0,.3.26.94.94,0,0,0,.36.08A.64.64,0,0,0,24,230a.61.61,0,0,1,.28-.06.38.38,0,0,1,.29.16.56.56,0,0,1,.14.39.58.58,0,0,1-.34.49,1.45,1.45,0,0,1-.75.2,4,4,0,0,1-.55,0,1.75,1.75,0,0,1-.65-.2,1.49,1.49,0,0,1-.54-.59,2.52,2.52,0,0,1-.21-1.14v-7.79a.59.59,0,0,1,.19-.46A.65.65,0,0,1,22.32,220.82Z"/><path class="cls-2" d="M31.17,222.82a2.76,2.76,0,0,1,1.67.45,2.48,2.48,0,0,1,.88,1.22,5,5,0,0,1,.27,1.69v4.38a.6.6,0,0,1-.19.46.59.59,0,0,1-.45.2.61.61,0,0,1-.46-.2.63.63,0,0,1-.18-.46v-4.38a3.17,3.17,0,0,0-.18-1.1,1.58,1.58,0,0,0-.58-.78,1.85,1.85,0,0,0-1.11-.3,2.43,2.43,0,0,0-1.2.3,2.2,2.2,0,0,0-.87.78,2,2,0,0,0-.32,1.1v4.38a.65.65,0,0,1-.64.66.59.59,0,0,1-.45-.2.6.6,0,0,1-.19-.46V220a.59.59,0,0,1,.19-.46.61.61,0,0,1,.45-.18.64.64,0,0,1,.47.18.65.65,0,0,1,.17.46v4.78l-.32.35a2.32,2.32,0,0,1,.35-.84,3.52,3.52,0,0,1,.69-.76,3.56,3.56,0,0,1,.93-.53A2.79,2.79,0,0,1,31.17,222.82Z"/><path class="cls-2" d="M44.53,227.06a4.5,4.5,0,0,1-.54,2.22,4.21,4.21,0,0,1-1.48,1.54,4.1,4.1,0,0,1-5.71-1.54,4.7,4.7,0,0,1,0-4.45,4.18,4.18,0,0,1,5.71-1.53A4.1,4.1,0,0,1,44,224.83,4.52,4.52,0,0,1,44.53,227.06Zm-1.28,0a3.45,3.45,0,0,0-.37-1.64,3,3,0,0,0-1-1.1,2.86,2.86,0,0,0-2.92,0,2.8,2.8,0,0,0-1,1.1,3.45,3.45,0,0,0-.38,1.64,3.39,3.39,0,0,0,.38,1.61,2.83,2.83,0,0,0,1,1.11,2.8,2.8,0,0,0,2.92,0,3,3,0,0,0,1-1.11A3.38,3.38,0,0,0,43.25,227.06Z"/><path class="cls-2" d="M47.43,231.22A.61.61,0,0,1,47,231a.63.63,0,0,1-.18-.46v-7a.61.61,0,0,1,.18-.45.6.6,0,0,1,.46-.19.59.59,0,0,1,.46.19.61.61,0,0,1,.18.45v2.12l-.19-.34a3.31,3.31,0,0,1,.34-1,3.47,3.47,0,0,1,.63-.85,3.09,3.09,0,0,1,.88-.59,2.75,2.75,0,0,1,1.09-.21,1.33,1.33,0,0,1,.65.16.54.54,0,0,1,.29.48.65.65,0,0,1-.17.49.57.57,0,0,1-.4.16.93.93,0,0,1-.4-.09,1.34,1.34,0,0,0-.48-.08,1.64,1.64,0,0,0-.79.21,2.34,2.34,0,0,0-.72.62,3.24,3.24,0,0,0-.53.9,2.8,2.8,0,0,0-.2,1.08v3.89a.6.6,0,0,1-.19.46A.59.59,0,0,1,47.43,231.22Z"/><path class="cls-2" d="M54.19,221.74a.9.9,0,0,1-.59-.16.59.59,0,0,1-.19-.49v-.23a.57.57,0,0,1,.21-.49.94.94,0,0,1,.59-.16.87.87,0,0,1,.58.16.59.59,0,0,1,.19.49v.23a.59.59,0,0,1-.2.49A.9.9,0,0,1,54.19,221.74Zm.65,8.82a.64.64,0,0,1-.19.46.63.63,0,0,1-.92,0,.63.63,0,0,1-.18-.46v-7.1a.63.63,0,0,1,.19-.46.61.61,0,0,1,.45-.18.62.62,0,0,1,.46.18.63.63,0,0,1,.19.46Z"/><path class="cls-2" d="M57.22,223H61a.54.54,0,0,1,.42.18.58.58,0,0,1,.17.41.6.6,0,0,1-.17.43.57.57,0,0,1-.42.17H57.22a.58.58,0,0,1-.42-.18.61.61,0,0,1-.17-.43.57.57,0,0,1,.17-.41A.61.61,0,0,1,57.22,223Zm1.68-2.17a.61.61,0,0,1,.45.18.65.65,0,0,1,.17.46v7.72a1.24,1.24,0,0,0,.11.58.57.57,0,0,0,.3.26.94.94,0,0,0,.36.08.61.61,0,0,0,.28-.06.61.61,0,0,1,.28-.06.38.38,0,0,1,.3.16.56.56,0,0,1,.13.39A.59.59,0,0,1,61,231a1.51,1.51,0,0,1-.76.2,4.16,4.16,0,0,1-.55,0A1.7,1.7,0,0,1,59,231a1.36,1.36,0,0,1-.54-.59,2.38,2.38,0,0,1-.22-1.14v-7.79a.63.63,0,0,1,.19-.46A.67.67,0,0,1,58.9,220.82Z"/><path class="cls-2" d="M69.94,222.82a.61.61,0,0,1,.45.18.59.59,0,0,1,.19.46v7a4.3,4.3,0,0,1-.53,2.23A3.17,3.17,0,0,1,68.63,234a4.49,4.49,0,0,1-2,.44,5.81,5.81,0,0,1-1.2-.13,3.59,3.59,0,0,1-1-.34.84.84,0,0,1-.42-.36.51.51,0,0,1,0-.45.64.64,0,0,1,.33-.4.45.45,0,0,1,.45,0l.75.31a2.9,2.9,0,0,0,1.09.2,3,3,0,0,0,1.43-.32A2.23,2.23,0,0,0,69,232a3.33,3.33,0,0,0,.32-1.53v-1.13l.19.4a2.73,2.73,0,0,1-.69.86,3.27,3.27,0,0,1-1,.58,3.45,3.45,0,0,1-1.23.21A2.78,2.78,0,0,1,65,231a2.4,2.4,0,0,1-1-1.08,3.73,3.73,0,0,1-.33-1.61v-4.83a.62.62,0,0,1,.18-.46.63.63,0,0,1,.46-.18.62.62,0,0,1,.64.64V228a2.43,2.43,0,0,0,.48,1.64,1.86,1.86,0,0,0,1.49.55,2.24,2.24,0,0,0,1.15-.29,2.2,2.2,0,0,0,.84-.79A2.11,2.11,0,0,0,69.3,228v-4.54a.65.65,0,0,1,.17-.46A.64.64,0,0,1,69.94,222.82Z"/><path class="cls-2" d="M77.68,229.9a.69.69,0,0,1-.13-.44.57.57,0,0,1,.28-.4.52.52,0,0,1,.37-.1.55.55,0,0,1,.39.21,3.59,3.59,0,0,0,1,.84,2.88,2.88,0,0,0,1.41.31,3,3,0,0,0,.77-.13,1.33,1.33,0,0,0,.64-.39,1,1,0,0,0,.27-.74.94.94,0,0,0-.28-.72,2.08,2.08,0,0,0-.7-.43,7.43,7.43,0,0,0-.94-.29c-.36-.1-.7-.21-1-.33a3.79,3.79,0,0,1-.92-.47,2.1,2.1,0,0,1-.66-.7,2.07,2.07,0,0,1-.25-1,2,2,0,0,1,.39-1.25,2.73,2.73,0,0,1,1.06-.82,3.64,3.64,0,0,1,1.45-.28,4.49,4.49,0,0,1,.94.1,3.9,3.9,0,0,1,.95.35,2.63,2.63,0,0,1,.81.68.62.62,0,0,1,.16.4.5.5,0,0,1-.21.43.54.54,0,0,1-.39.12.6.6,0,0,1-.36-.16,2.1,2.1,0,0,0-.84-.62,2.82,2.82,0,0,0-1.11-.22,2.36,2.36,0,0,0-.75.12,1.39,1.39,0,0,0-.62.37,1.06,1.06,0,0,0-.25.73,1,1,0,0,0,.29.7,1.85,1.85,0,0,0,.74.44,10.21,10.21,0,0,0,1,.33q.51.13,1,.3a3.42,3.42,0,0,1,.85.44,1.93,1.93,0,0,1,.61.69,2.29,2.29,0,0,1,.23,1.07,2,2,0,0,1-.42,1.27,2.62,2.62,0,0,1-1.1.82,3.91,3.91,0,0,1-1.46.28,4.81,4.81,0,0,1-1.74-.34A3.43,3.43,0,0,1,77.68,229.9Z"/><path class="cls-2" d="M90.13,222.82a2.76,2.76,0,0,1,1.67.45,2.48,2.48,0,0,1,.88,1.22,5,5,0,0,1,.27,1.69v4.38a.64.64,0,0,1-.19.46.59.59,0,0,1-.45.2.61.61,0,0,1-.46-.2.63.63,0,0,1-.18-.46v-4.38a3.17,3.17,0,0,0-.18-1.1,1.58,1.58,0,0,0-.58-.78,1.87,1.87,0,0,0-1.11-.3,2.49,2.49,0,0,0-1.21.3,2.24,2.24,0,0,0-.86.78,2,2,0,0,0-.32,1.1v4.38a.64.64,0,1,1-1.28,0V220a.62.62,0,0,1,.18-.46.65.65,0,0,1,.46-.18.6.6,0,0,1,.46.18.62.62,0,0,1,.18.46v4.78l-.32.35a2.32,2.32,0,0,1,.35-.84,3.28,3.28,0,0,1,.69-.76,3.56,3.56,0,0,1,.93-.53A2.79,2.79,0,0,1,90.13,222.82Z"/><path class="cls-2" d="M102.45,222.86a.63.63,0,0,1,.64.64v7.06a.64.64,0,1,1-1.28,0V229l.3,0a1.59,1.59,0,0,1-.24.77,3.06,3.06,0,0,1-.65.77,3.41,3.41,0,0,1-1,.59,3,3,0,0,1-1.21.24,3.49,3.49,0,0,1-2-.57,3.82,3.82,0,0,1-1.37-1.55,4.84,4.84,0,0,1-.5-2.22,4.7,4.7,0,0,1,.51-2.23,3.86,3.86,0,0,1,1.36-1.52,3.45,3.45,0,0,1,1.92-.55,3.55,3.55,0,0,1,1.28.22,3.36,3.36,0,0,1,1,.61,2.87,2.87,0,0,1,.68.85,2,2,0,0,1,.24.92l-.42-.09V223.5a.61.61,0,0,1,.18-.45A.66.66,0,0,1,102.45,222.86Zm-3.3,7.33a2.52,2.52,0,0,0,1.42-.41,3,3,0,0,0,1-1.13,3.66,3.66,0,0,0,.35-1.61,3.57,3.57,0,0,0-.35-1.59,2.8,2.8,0,0,0-1-1.12,2.52,2.52,0,0,0-1.42-.41,2.49,2.49,0,0,0-1.4.4,2.71,2.71,0,0,0-1,1.1,3.8,3.8,0,0,0,0,3.23,2.86,2.86,0,0,0,1,1.13A2.5,2.5,0,0,0,99.15,230.19Z"/><path class="cls-2" d="M106.5,231.22a.65.65,0,0,1-.64-.66v-7a.61.61,0,0,1,.18-.45.62.62,0,0,1,.46-.19.59.59,0,0,1,.46.19.61.61,0,0,1,.18.45v2.12l-.19-.34a3.62,3.62,0,0,1,.34-1,3.75,3.75,0,0,1,.63-.85,3.09,3.09,0,0,1,.88-.59,2.79,2.79,0,0,1,1.09-.21,1.31,1.31,0,0,1,.65.16.52.52,0,0,1,.29.48.61.61,0,0,1-.17.49.57.57,0,0,1-.4.16.93.93,0,0,1-.4-.09,1.34,1.34,0,0,0-.48-.08,1.64,1.64,0,0,0-.79.21,2.46,2.46,0,0,0-.72.62,3.24,3.24,0,0,0-.53.9,2.8,2.8,0,0,0-.2,1.08v3.89a.6.6,0,0,1-.19.46A.59.59,0,0,1,106.5,231.22Z"/><path class="cls-2" d="M116.07,231.38a4.48,4.48,0,0,1-2.24-.55,3.81,3.81,0,0,1-1.49-1.49,4.5,4.5,0,0,1-.53-2.2,4.79,4.79,0,0,1,.55-2.38,3.91,3.91,0,0,1,1.43-1.5,3.63,3.63,0,0,1,1.88-.52,3.86,3.86,0,0,1,1.43.27,3.57,3.57,0,0,1,1.21.79,3.82,3.82,0,0,1,.86,1.25,4.18,4.18,0,0,1,.34,1.62.59.59,0,0,1-.21.43.64.64,0,0,1-.45.18h-6.32l-.29-1.1h6.16l-.25.22v-.35a2.05,2.05,0,0,0-.43-1.13,2.6,2.6,0,0,0-2-1,2.93,2.93,0,0,0-1,.16,2.4,2.4,0,0,0-.84.55,2.67,2.67,0,0,0-.6,1A4,4,0,0,0,113,227a3.41,3.41,0,0,0,.38,1.63,2.86,2.86,0,0,0,2.6,1.52,3.24,3.24,0,0,0,1-.14,3,3,0,0,0,.71-.36,3.86,3.86,0,0,0,.51-.44.67.67,0,0,1,.41-.15.55.55,0,0,1,.55.55.62.62,0,0,1-.26.48,4.29,4.29,0,0,1-1.22.87A3.69,3.69,0,0,1,116.07,231.38Z"/><path class="cls-2" d="M121.28,229.9a.69.69,0,0,1-.13-.44.57.57,0,0,1,.28-.4.52.52,0,0,1,.37-.1.55.55,0,0,1,.39.21,3.59,3.59,0,0,0,1,.84,2.89,2.89,0,0,0,2.17.18,1.31,1.31,0,0,0,.65-.39,1,1,0,0,0,.27-.74.94.94,0,0,0-.28-.72,2.08,2.08,0,0,0-.7-.43,7.43,7.43,0,0,0-.94-.29c-.36-.1-.7-.21-1-.33a3.79,3.79,0,0,1-.92-.47,2.1,2.1,0,0,1-.66-.7,2,2,0,0,1-.25-1,2,2,0,0,1,.39-1.25A2.73,2.73,0,0,1,123,223a3.64,3.64,0,0,1,1.45-.28,4.33,4.33,0,0,1,.93.1,3.82,3.82,0,0,1,1,.35,2.63,2.63,0,0,1,.81.68.62.62,0,0,1,.16.4.5.5,0,0,1-.21.43.54.54,0,0,1-.39.12.6.6,0,0,1-.36-.16,2.1,2.1,0,0,0-.84-.62,2.82,2.82,0,0,0-1.11-.22,2.36,2.36,0,0,0-.75.12,1.39,1.39,0,0,0-.62.37,1.06,1.06,0,0,0-.25.73,1,1,0,0,0,.29.7,1.85,1.85,0,0,0,.74.44,10.21,10.21,0,0,0,1,.33q.51.13,1,.3a3.42,3.42,0,0,1,.85.44,1.93,1.93,0,0,1,.61.69,2.29,2.29,0,0,1,.22,1.07,2,2,0,0,1-.41,1.27,2.62,2.62,0,0,1-1.1.82,3.91,3.91,0,0,1-1.46.28,4.81,4.81,0,0,1-1.74-.34A3.43,3.43,0,0,1,121.28,229.9Z"/><path class="cls-2" d="M134.21,223H138a.6.6,0,0,1,.59.59.56.56,0,0,1-.17.43.57.57,0,0,1-.42.17h-3.76a.58.58,0,0,1-.42-.18.61.61,0,0,1-.17-.43.57.57,0,0,1,.17-.41A.61.61,0,0,1,134.21,223Zm1.68-2.17a.6.6,0,0,1,.62.64v7.72a1.12,1.12,0,0,0,.12.58.52.52,0,0,0,.29.26,1,1,0,0,0,.36.08.61.61,0,0,0,.28-.06.64.64,0,0,1,.28-.06.38.38,0,0,1,.3.16.56.56,0,0,1,.13.39.59.59,0,0,1-.33.49,1.5,1.5,0,0,1-.75.2,4.18,4.18,0,0,1-.56,0,1.76,1.76,0,0,1-.64-.2,1.36,1.36,0,0,1-.54-.59,2.51,2.51,0,0,1-.22-1.14v-7.79a.6.6,0,0,1,.2-.46A.63.63,0,0,1,135.89,220.82Z"/><path class="cls-2" d="M144.74,222.82a2.78,2.78,0,0,1,1.67.45,2.54,2.54,0,0,1,.88,1.22,5,5,0,0,1,.26,1.69v4.38a.63.63,0,0,1-.18.46.61.61,0,0,1-.46.2.59.59,0,0,1-.45-.2.64.64,0,0,1-.19-.46v-4.38a3.43,3.43,0,0,0-.17-1.1,1.54,1.54,0,0,0-.59-.78,1.83,1.83,0,0,0-1.11-.3,2.43,2.43,0,0,0-1.2.3,2.24,2.24,0,0,0-.86.78,1.92,1.92,0,0,0-.32,1.1v4.38a.6.6,0,0,1-.19.46.59.59,0,0,1-.45.2.65.65,0,0,1-.64-.66V220a.62.62,0,0,1,.18-.46.65.65,0,0,1,.46-.18.62.62,0,0,1,.64.64v4.78l-.32.35a2.32,2.32,0,0,1,.35-.84,3.28,3.28,0,0,1,.69-.76,3.41,3.41,0,0,1,.93-.53A2.75,2.75,0,0,1,144.74,222.82Z"/><path class="cls-2" d="M154.07,231.38a4.48,4.48,0,0,1-2.24-.55,3.81,3.81,0,0,1-1.49-1.49,4.5,4.5,0,0,1-.53-2.2,4.79,4.79,0,0,1,.55-2.38,3.91,3.91,0,0,1,1.43-1.5,3.6,3.6,0,0,1,1.88-.52,3.86,3.86,0,0,1,1.43.27,3.57,3.57,0,0,1,1.21.79,3.82,3.82,0,0,1,.86,1.25,4.18,4.18,0,0,1,.34,1.62.59.59,0,0,1-.21.43.64.64,0,0,1-.45.18h-6.32l-.29-1.1h6.16l-.25.22v-.35a2.05,2.05,0,0,0-.43-1.13,2.6,2.6,0,0,0-2.05-1,2.93,2.93,0,0,0-1,.16,2.4,2.4,0,0,0-.84.55,2.54,2.54,0,0,0-.6,1A4,4,0,0,0,151,227a3.41,3.41,0,0,0,.38,1.63,2.86,2.86,0,0,0,2.6,1.52,3.24,3.24,0,0,0,1-.14,3,3,0,0,0,.71-.36,3.86,3.86,0,0,0,.51-.44.67.67,0,0,1,.41-.15.55.55,0,0,1,.55.55.62.62,0,0,1-.26.48,4.29,4.29,0,0,1-1.22.87A3.69,3.69,0,0,1,154.07,231.38Z"/><path class="cls-2" d="M168.63,222.82a3.62,3.62,0,0,1,2,.54,3.9,3.9,0,0,1,1.37,1.5,5.11,5.11,0,0,1,0,4.41,3.94,3.94,0,0,1-1.36,1.52,3.5,3.5,0,0,1-1.93.55,3.31,3.31,0,0,1-1.11-.18,3.69,3.69,0,0,1-1-.48,3.25,3.25,0,0,1-.71-.67,2.83,2.83,0,0,1-.42-.75l.36-.22v4.72a.63.63,0,0,1-.18.46.6.6,0,0,1-.46.2.63.63,0,0,1-.46-.19.64.64,0,0,1-.18-.47V223.54a.64.64,0,1,1,1.28,0V225l-.24-.13a2.24,2.24,0,0,1,.39-.77,2.66,2.66,0,0,1,.69-.64,3.07,3.07,0,0,1,.91-.44A3.3,3.3,0,0,1,168.63,222.82Zm-.15,1.18a2.5,2.5,0,0,0-1.41.4,2.75,2.75,0,0,0-1,1.09,3.47,3.47,0,0,0-.35,1.58,3.57,3.57,0,0,0,.35,1.59,2.78,2.78,0,0,0,1,1.1,2.69,2.69,0,0,0,2.82,0,2.78,2.78,0,0,0,1-1.1,3.57,3.57,0,0,0,.35-1.59,3.47,3.47,0,0,0-.35-1.58,2.75,2.75,0,0,0-1-1.09A2.5,2.5,0,0,0,168.48,224Z"/><path class="cls-2" d="M181.42,222.86a.63.63,0,0,1,.47.19.61.61,0,0,1,.18.45v7.06a.64.64,0,0,1-.19.46.6.6,0,0,1-.46.2.59.59,0,0,1-.45-.2.63.63,0,0,1-.18-.46V229l.3,0a1.59,1.59,0,0,1-.24.77,3.11,3.11,0,0,1-.66.77,3.36,3.36,0,0,1-1,.59,3.09,3.09,0,0,1-1.22.24,3.51,3.51,0,0,1-2-.57,3.9,3.9,0,0,1-1.37-1.55,4.83,4.83,0,0,1-.49-2.22,4.7,4.7,0,0,1,.5-2.23,3.94,3.94,0,0,1,1.36-1.52,3.46,3.46,0,0,1,1.93-.55,3.59,3.59,0,0,1,1.28.22,3.31,3.31,0,0,1,1,.61,2.87,2.87,0,0,1,.68.85,2,2,0,0,1,.24.92l-.41-.09V223.5a.61.61,0,0,1,.18-.45A.62.62,0,0,1,181.42,222.86Zm-3.29,7.33a2.57,2.57,0,0,0,1.42-.41,2.86,2.86,0,0,0,1-1.13,3.53,3.53,0,0,0,.36-1.61,3.45,3.45,0,0,0-.36-1.59,2.7,2.7,0,0,0-1-1.12,2.57,2.57,0,0,0-1.42-.41,2.49,2.49,0,0,0-1.4.4,2.81,2.81,0,0,0-1,1.1,3.9,3.9,0,0,0,0,3.23,3,3,0,0,0,1,1.13A2.5,2.5,0,0,0,178.13,230.19Z"/><path class="cls-2" d="M184.37,229.9a.64.64,0,0,1-.13-.44.53.53,0,0,1,.27-.4.56.56,0,0,1,.38-.1.59.59,0,0,1,.39.21,3.69,3.69,0,0,0,1,.84,2.94,2.94,0,0,0,1.41.31,2.89,2.89,0,0,0,.77-.13,1.36,1.36,0,0,0,.65-.39,1.06,1.06,0,0,0,.26-.74,1,1,0,0,0-.27-.72,2.08,2.08,0,0,0-.7-.43,7.6,7.6,0,0,0-.95-.29c-.35-.1-.7-.21-1-.33a4,4,0,0,1-.92-.47,2.07,2.07,0,0,1-.65-.7,2,2,0,0,1-.25-1,2,2,0,0,1,.39-1.25,2.59,2.59,0,0,1,1.06-.82,3.61,3.61,0,0,1,1.45-.28,4.4,4.4,0,0,1,.93.1,3.76,3.76,0,0,1,.95.35,2.78,2.78,0,0,1,.82.68.68.68,0,0,1,.16.4.5.5,0,0,1-.21.43.57.57,0,0,1-.39.12.6.6,0,0,1-.36-.16,2.1,2.1,0,0,0-.84-.62,2.89,2.89,0,0,0-1.11-.22,2.36,2.36,0,0,0-.75.12,1.39,1.39,0,0,0-.62.37,1,1,0,0,0-.25.73,1,1,0,0,0,.29.7,1.85,1.85,0,0,0,.74.44,9.43,9.43,0,0,0,1,.33c.34.09.67.19,1,.3a3.49,3.49,0,0,1,.86.44,1.93,1.93,0,0,1,.61.69,2.29,2.29,0,0,1,.22,1.07,2.05,2.05,0,0,1-.41,1.27,2.68,2.68,0,0,1-1.1.82,3.91,3.91,0,0,1-1.46.28,4.81,4.81,0,0,1-1.74-.34A3.43,3.43,0,0,1,184.37,229.9Z"/><path class="cls-2" d="M192.35,229.9a.69.69,0,0,1-.13-.44.57.57,0,0,1,.28-.4.52.52,0,0,1,.37-.1.55.55,0,0,1,.39.21,3.73,3.73,0,0,0,1,.84,2.89,2.89,0,0,0,2.17.18,1.31,1.31,0,0,0,.65-.39,1,1,0,0,0,.27-.74,1,1,0,0,0-.27-.72,2.24,2.24,0,0,0-.71-.43,7.43,7.43,0,0,0-.94-.29c-.35-.1-.7-.21-1-.33a3.79,3.79,0,0,1-.92-.47,2.1,2.1,0,0,1-.66-.7,2.07,2.07,0,0,1-.25-1,2,2,0,0,1,.4-1.25,2.62,2.62,0,0,1,1-.82,3.64,3.64,0,0,1,1.45-.28,4.33,4.33,0,0,1,.93.1,3.82,3.82,0,0,1,1,.35,2.63,2.63,0,0,1,.81.68.62.62,0,0,1,.16.4.52.52,0,0,1-.2.43.58.58,0,0,1-.4.12.6.6,0,0,1-.36-.16,2.1,2.1,0,0,0-.84-.62,2.82,2.82,0,0,0-1.11-.22,2.36,2.36,0,0,0-.75.12,1.39,1.39,0,0,0-.62.37,1.05,1.05,0,0,0-.24.73,1,1,0,0,0,.28.7,1.85,1.85,0,0,0,.74.44,10.21,10.21,0,0,0,1,.33q.51.13,1,.3a3.42,3.42,0,0,1,.85.44,1.93,1.93,0,0,1,.61.69,2.29,2.29,0,0,1,.23,1.07,2,2,0,0,1-.42,1.27,2.62,2.62,0,0,1-1.1.82,3.91,3.91,0,0,1-1.46.28,4.81,4.81,0,0,1-1.74-.34A3.43,3.43,0,0,1,192.35,229.9Z"/><path class="cls-2" d="M210.56,222.8a.62.62,0,0,1,.62.64v.14a.65.65,0,0,1,0,.13l-2.47,7.09a.63.63,0,0,1-.26.32.67.67,0,0,1-.39.1.63.63,0,0,1-.56-.42l-2-5.06.32,0-1.82,5a.62.62,0,0,1-.56.42.7.7,0,0,1-.4-.1.55.55,0,0,1-.26-.32l-2.51-7.09a.86.86,0,0,1-.05-.27.64.64,0,0,1,.18-.45.59.59,0,0,1,.48-.19.62.62,0,0,1,.35.1.46.46,0,0,1,.22.3l2.16,6.3h-.33l1.87-4.8a.58.58,0,0,1,.59-.4.57.57,0,0,1,.36.1.59.59,0,0,1,.2.3l1.95,4.8-.4,0L210,223.2A.58.58,0,0,1,210.56,222.8Z"/><path class="cls-2" d="M221.09,227.06a4.5,4.5,0,0,1-.54,2.22,4.21,4.21,0,0,1-1.48,1.54,4.12,4.12,0,0,1-2.12.56,4.06,4.06,0,0,1-2.11-.56,4.23,4.23,0,0,1-1.49-1.54,4.78,4.78,0,0,1,0-4.45,4.13,4.13,0,0,1,1.49-1.53,4,4,0,0,1,2.11-.56,4,4,0,0,1,2.12.56,4.1,4.1,0,0,1,1.48,1.53A4.52,4.52,0,0,1,221.09,227.06Zm-1.28,0a3.45,3.45,0,0,0-.38-1.64,2.85,2.85,0,0,0-1-1.1,2.86,2.86,0,0,0-2.92,0,2.8,2.8,0,0,0-1,1.1,3.45,3.45,0,0,0-.38,1.64,3.39,3.39,0,0,0,.38,1.61,2.83,2.83,0,0,0,1,1.11,2.8,2.8,0,0,0,2.92,0,2.88,2.88,0,0,0,1-1.11A3.39,3.39,0,0,0,219.81,227.06Z"/><path class="cls-2" d="M224,231.22a.6.6,0,0,1-.46-.2.64.64,0,0,1-.19-.46v-7a.62.62,0,0,1,.19-.45.65.65,0,0,1,.92,0,.61.61,0,0,1,.18.45v2.12l-.2-.34a3.65,3.65,0,0,1,.35-1,3.24,3.24,0,0,1,.63-.85,3.09,3.09,0,0,1,.88-.59,2.75,2.75,0,0,1,1.09-.21,1.27,1.27,0,0,1,.64.16.53.53,0,0,1,.3.48.61.61,0,0,1-.18.49.54.54,0,0,1-.39.16,1,1,0,0,1-.41-.09,1.24,1.24,0,0,0-.47-.08,1.68,1.68,0,0,0-.8.21,2.59,2.59,0,0,0-.72.62,3.21,3.21,0,0,0-.52.9,2.8,2.8,0,0,0-.2,1.08v3.89a.64.64,0,0,1-.19.46A.59.59,0,0,1,224,231.22Z"/><path class="cls-2" d="M236.55,219.38a.62.62,0,0,1,.46.18.61.61,0,0,1,.17.46v10.54a.63.63,0,0,1-.18.46.59.59,0,0,1-.45.2.6.6,0,0,1-.46-.2.64.64,0,0,1-.19-.46V229l.31-.11a1.79,1.79,0,0,1-.23.81,3.19,3.19,0,0,1-.66.79,3.87,3.87,0,0,1-1,.61,3.09,3.09,0,0,1-1.22.24,3.55,3.55,0,0,1-2-.56,4,4,0,0,1-1.37-1.54,5.22,5.22,0,0,1,0-4.46,4,4,0,0,1,1.36-1.53,3.46,3.46,0,0,1,1.93-.55,3.39,3.39,0,0,1,1.25.22,3.48,3.48,0,0,1,1,.61,2.9,2.9,0,0,1,.69.85,1.88,1.88,0,0,1,.25.92l-.42-.09V220a.63.63,0,0,1,.19-.46A.62.62,0,0,1,236.55,219.38Zm-3.3,10.81a2.42,2.42,0,0,0,1.42-.41,2.7,2.7,0,0,0,1-1.12,3.88,3.88,0,0,0,0-3.22,2.74,2.74,0,0,0-1-1.11,2.57,2.57,0,0,0-1.42-.41,2.5,2.5,0,0,0-1.4.41,2.84,2.84,0,0,0-1,1.11,3.85,3.85,0,0,0,0,3.21,3,3,0,0,0,1,1.13A2.5,2.5,0,0,0,233.25,230.19Z"/><path class="cls-2" d="M254.51,222.8a.6.6,0,0,1,.44.18.58.58,0,0,1,.19.46s0,.09,0,.14a.65.65,0,0,1,0,.13l-2.46,7.09a.71.71,0,0,1-.27.32.67.67,0,0,1-.39.1.63.63,0,0,1-.56-.42l-2-5.06.32,0-1.82,5a.61.61,0,0,1-.56.42.72.72,0,0,1-.4-.1.55.55,0,0,1-.26-.32l-2.51-7.09a.86.86,0,0,1,0-.27.64.64,0,0,1,.18-.45.69.69,0,0,1,.83-.09.46.46,0,0,1,.22.3l2.17,6.3h-.34l1.87-4.8a.58.58,0,0,1,.59-.4.57.57,0,0,1,.36.1.59.59,0,0,1,.2.3l1.95,4.8-.4,0,2.16-6.32A.58.58,0,0,1,254.51,222.8Z"/><path class="cls-2" d="M257.86,221.74a.92.92,0,0,1-.6-.16.62.62,0,0,1-.19-.49v-.23a.57.57,0,0,1,.21-.49.94.94,0,0,1,.59-.16.87.87,0,0,1,.58.16.59.59,0,0,1,.19.49v.23a.59.59,0,0,1-.2.49A.89.89,0,0,1,257.86,221.74Zm.64,8.82a.64.64,0,0,1-.19.46.59.59,0,0,1-.45.2.6.6,0,0,1-.47-.2.63.63,0,0,1-.17-.46v-7.1a.62.62,0,0,1,.64-.64.61.61,0,0,1,.45.18.63.63,0,0,1,.19.46Z"/><path class="cls-2" d="M260.88,223h3.76a.6.6,0,0,1,.59.59.56.56,0,0,1-.17.43.57.57,0,0,1-.42.17h-3.76a.58.58,0,0,1-.42-.18.61.61,0,0,1-.17-.43.57.57,0,0,1,.17-.41A.61.61,0,0,1,260.88,223Zm1.68-2.17a.6.6,0,0,1,.62.64v7.72a1.12,1.12,0,0,0,.12.58.52.52,0,0,0,.29.26,1,1,0,0,0,.36.08.61.61,0,0,0,.28-.06.64.64,0,0,1,.28-.06.38.38,0,0,1,.3.16.56.56,0,0,1,.13.39.59.59,0,0,1-.33.49,1.5,1.5,0,0,1-.75.2,4.18,4.18,0,0,1-.56,0,1.76,1.76,0,0,1-.64-.2,1.36,1.36,0,0,1-.54-.59,2.51,2.51,0,0,1-.22-1.14v-7.79a.6.6,0,0,1,.2-.46A.63.63,0,0,1,262.56,220.82Z"/><path class="cls-2" d="M271.41,222.82a2.78,2.78,0,0,1,1.67.45,2.54,2.54,0,0,1,.88,1.22,5,5,0,0,1,.26,1.69v4.38a.63.63,0,0,1-.18.46.6.6,0,0,1-.46.2.59.59,0,0,1-.45-.2.64.64,0,0,1-.19-.46v-4.38a3.18,3.18,0,0,0-.17-1.1,1.54,1.54,0,0,0-.59-.78,1.83,1.83,0,0,0-1.11-.3,2.46,2.46,0,0,0-1.2.3,2.24,2.24,0,0,0-.86.78,2,2,0,0,0-.32,1.1v4.38a.6.6,0,0,1-.19.46.59.59,0,0,1-.45.2.61.61,0,0,1-.46-.2.63.63,0,0,1-.18-.46V220a.62.62,0,0,1,.18-.46.63.63,0,0,1,.46-.18.62.62,0,0,1,.64.64v4.78l-.32.35a2.32,2.32,0,0,1,.35-.84,3.28,3.28,0,0,1,.69-.76,3.56,3.56,0,0,1,.93-.53A2.79,2.79,0,0,1,271.41,222.82Z"/></g><g class="cls-1"><path class="cls-2" d="M18.88,243h3.76a.54.54,0,0,1,.42.18.58.58,0,0,1,.17.41.6.6,0,0,1-.17.43.57.57,0,0,1-.42.17H18.88a.58.58,0,0,1-.42-.18.58.58,0,0,1-.18-.43.54.54,0,0,1,.18-.41A.61.61,0,0,1,18.88,243Zm1.68-2.17A.57.57,0,0,1,21,241a.62.62,0,0,1,.18.46v7.72a1.24,1.24,0,0,0,.11.58.54.54,0,0,0,.3.26.94.94,0,0,0,.36.08.64.64,0,0,0,.28-.06.61.61,0,0,1,.28-.06.38.38,0,0,1,.29.16.56.56,0,0,1,.14.39.58.58,0,0,1-.34.49,1.45,1.45,0,0,1-.75.2,4,4,0,0,1-.55,0,1.75,1.75,0,0,1-.65-.2,1.4,1.4,0,0,1-.53-.59,2.38,2.38,0,0,1-.22-1.14v-7.79a.59.59,0,0,1,.19-.46A.66.66,0,0,1,20.56,240.82Z"/><path class="cls-2" d="M29.4,242.82a2.79,2.79,0,0,1,1.68.45,2.54,2.54,0,0,1,.88,1.22,5.26,5.26,0,0,1,.26,1.69v4.38a.64.64,0,1,1-1.28,0v-4.38a3.17,3.17,0,0,0-.18-1.1,1.53,1.53,0,0,0-.58-.78,1.83,1.83,0,0,0-1.11-.3,2.43,2.43,0,0,0-1.2.3,2.34,2.34,0,0,0-.87.78,2,2,0,0,0-.32,1.1v4.38a.63.63,0,0,1-.18.46.61.61,0,0,1-.46.2.59.59,0,0,1-.45-.2.6.6,0,0,1-.19-.46V240a.59.59,0,0,1,.19-.46.61.61,0,0,1,.45-.18.63.63,0,0,1,.47.18.61.61,0,0,1,.17.46v4.78l-.32.35a2.35,2.35,0,0,1,.36-.84,3.47,3.47,0,0,1,.68-.76,3.56,3.56,0,0,1,.93-.53A2.79,2.79,0,0,1,29.4,242.82Z"/><path class="cls-2" d="M38.73,251.38a4.51,4.51,0,0,1-2.24-.55A3.88,3.88,0,0,1,35,249.34a4.5,4.5,0,0,1-.52-2.2,4.79,4.79,0,0,1,.55-2.38,3.84,3.84,0,0,1,1.43-1.5,3.59,3.59,0,0,1,1.87-.52,3.83,3.83,0,0,1,1.43.27,3.61,3.61,0,0,1,1.22.79,4,4,0,0,1,.86,1.25,4.18,4.18,0,0,1,.33,1.62.59.59,0,0,1-.21.43.6.6,0,0,1-.44.18H35.2l-.29-1.1h6.16l-.26.22v-.35a2,2,0,0,0-.42-1.13,2.62,2.62,0,0,0-.92-.73,2.66,2.66,0,0,0-1.14-.25,2.83,2.83,0,0,0-.95.16,2.35,2.35,0,0,0-.85.55,2.67,2.67,0,0,0-.6,1,4,4,0,0,0-.22,1.42,3.41,3.41,0,0,0,.37,1.63,2.81,2.81,0,0,0,1.05,1.11,2.87,2.87,0,0,0,1.55.41,3.26,3.26,0,0,0,1-.14,3.14,3.14,0,0,0,.71-.36,3.73,3.73,0,0,0,.5-.44.72.72,0,0,1,.42-.15.55.55,0,0,1,.54.55.61.61,0,0,1-.25.48,4.2,4.2,0,0,1-1.23.87A3.66,3.66,0,0,1,38.73,251.38Z"/><path class="cls-2" d="M48.75,249.9a.64.64,0,0,1-.13-.44.53.53,0,0,1,.27-.4.55.55,0,0,1,.38-.1.59.59,0,0,1,.39.21,3.69,3.69,0,0,0,1,.84,2.92,2.92,0,0,0,2.18.18,1.36,1.36,0,0,0,.65-.39,1.06,1.06,0,0,0,.26-.74,1,1,0,0,0-.27-.72,2.19,2.19,0,0,0-.7-.43,7.6,7.6,0,0,0-.95-.29c-.35-.1-.7-.21-1-.33a3.79,3.79,0,0,1-.92-.47,2.07,2.07,0,0,1-.65-.7,2,2,0,0,1-.25-1,2,2,0,0,1,.39-1.25,2.59,2.59,0,0,1,1.06-.82,3.59,3.59,0,0,1,1.44-.28,4.49,4.49,0,0,1,.94.1,3.9,3.9,0,0,1,1,.35,2.78,2.78,0,0,1,.82.68.68.68,0,0,1,.16.4.5.5,0,0,1-.21.43.57.57,0,0,1-.39.12.55.55,0,0,1-.36-.16A2.25,2.25,0,0,0,53,244a2.89,2.89,0,0,0-1.11-.22,2.46,2.46,0,0,0-.76.12,1.36,1.36,0,0,0-.61.37,1,1,0,0,0-.25.73,1,1,0,0,0,.29.7,1.8,1.8,0,0,0,.73.44,9.64,9.64,0,0,0,1,.33c.34.09.67.19,1,.3a3.49,3.49,0,0,1,.86.44,1.9,1.9,0,0,1,.6.69,2.29,2.29,0,0,1,.23,1.07,2,2,0,0,1-.42,1.27,2.59,2.59,0,0,1-1.09.82,4,4,0,0,1-1.47.28,4.8,4.8,0,0,1-1.73-.34A3.38,3.38,0,0,1,48.75,249.9Z"/><path class="cls-2" d="M56.88,243h3.75a.55.55,0,0,1,.43.18.58.58,0,0,1,.17.41.6.6,0,0,1-.17.43.58.58,0,0,1-.43.17H56.88a.56.56,0,0,1-.42-.18.58.58,0,0,1-.18-.43.54.54,0,0,1,.18-.41A.59.59,0,0,1,56.88,243Zm1.67-2.17A.58.58,0,0,1,59,241a.62.62,0,0,1,.18.46v7.72a1.24,1.24,0,0,0,.11.58.54.54,0,0,0,.3.26.94.94,0,0,0,.36.08.64.64,0,0,0,.28-.06.61.61,0,0,1,.28-.06.38.38,0,0,1,.29.16.56.56,0,0,1,.14.39.58.58,0,0,1-.34.49,1.45,1.45,0,0,1-.75.2,4,4,0,0,1-.55,0,1.75,1.75,0,0,1-.65-.2,1.4,1.4,0,0,1-.53-.59,2.38,2.38,0,0,1-.22-1.14v-7.79a.59.59,0,0,1,.19-.46A.65.65,0,0,1,58.55,240.82Z"/><path class="cls-2" d="M69.59,242.94a.6.6,0,0,1,.47.19.61.61,0,0,1,.18.45V248a3.39,3.39,0,0,1-.91,2.51,4,4,0,0,1-5,0A3.35,3.35,0,0,1,63.4,248v-4.37a.65.65,0,0,1,.64-.64.6.6,0,0,1,.47.19.64.64,0,0,1,.17.45V248a2.24,2.24,0,0,0,.56,1.65,2.51,2.51,0,0,0,3.16,0A2.24,2.24,0,0,0,69,248v-4.37a.61.61,0,0,1,.18-.45A.58.58,0,0,1,69.59,242.94Z"/><path class="cls-2" d="M79.74,239.38a.6.6,0,0,1,.46.18.62.62,0,0,1,.18.46v10.54a.64.64,0,1,1-1.28,0V249l.3-.11a1.67,1.67,0,0,1-.23.81,2.81,2.81,0,0,1-.66.79,3.87,3.87,0,0,1-1,.61,3,3,0,0,1-1.21.24,3.56,3.56,0,0,1-2-.56A4,4,0,0,1,73,249.28a5.13,5.13,0,0,1,0-4.46,3.82,3.82,0,0,1,1.36-1.53,3.54,3.54,0,0,1,4.21.28,2.94,2.94,0,0,1,.7.85,2,2,0,0,1,.24.92l-.41-.09V240a.62.62,0,0,1,.18-.46A.65.65,0,0,1,79.74,239.38Zm-3.3,10.81a2.45,2.45,0,0,0,1.43-.41,2.86,2.86,0,0,0,1-1.12,3.88,3.88,0,0,0,0-3.22,2.84,2.84,0,0,0-1-1.11,2.63,2.63,0,0,0-2.82,0,2.74,2.74,0,0,0-1,1.11,3.76,3.76,0,0,0,0,3.21,2.86,2.86,0,0,0,1,1.13A2.5,2.5,0,0,0,76.44,250.19Z"/><path class="cls-2" d="M86.89,251.38a4.51,4.51,0,0,1-2.24-.55,3.81,3.81,0,0,1-1.49-1.49,4.5,4.5,0,0,1-.53-2.2,4.79,4.79,0,0,1,.56-2.38,3.77,3.77,0,0,1,1.43-1.5,3.59,3.59,0,0,1,1.87-.52,3.83,3.83,0,0,1,1.43.27,3.61,3.61,0,0,1,1.22.79,4,4,0,0,1,.86,1.25,4.18,4.18,0,0,1,.33,1.62.59.59,0,0,1-.21.43.63.63,0,0,1-.45.18H83.35l-.28-1.1h6.16l-.26.22v-.35a2,2,0,0,0-.42-1.13,2.62,2.62,0,0,0-.92-.73,2.7,2.7,0,0,0-1.14-.25,2.83,2.83,0,0,0-.95.16,2.35,2.35,0,0,0-.85.55,2.67,2.67,0,0,0-.6,1,4,4,0,0,0-.22,1.42,3.41,3.41,0,0,0,.37,1.63,2.81,2.81,0,0,0,1.05,1.11,2.87,2.87,0,0,0,1.55.41,3.26,3.26,0,0,0,1-.14,3.14,3.14,0,0,0,.71-.36,4.47,4.47,0,0,0,.5-.44.72.72,0,0,1,.42-.15.55.55,0,0,1,.38.16.53.53,0,0,1,.16.39.64.64,0,0,1-.25.48,4.2,4.2,0,0,1-1.23.87A3.66,3.66,0,0,1,86.89,251.38Z"/><path class="cls-2" d="M96.68,242.74a2.92,2.92,0,0,1,1.71.44,2.39,2.39,0,0,1,.89,1.2,5,5,0,0,1,.27,1.68v4.5a.6.6,0,0,1-.19.46.59.59,0,0,1-.45.2.6.6,0,0,1-.46-.2.63.63,0,0,1-.18-.46V246.1a3,3,0,0,0-.19-1.1,1.53,1.53,0,0,0-.61-.78,2,2,0,0,0-1.16-.3,2.6,2.6,0,0,0-1.23.3,2.32,2.32,0,0,0-.89.78,1.86,1.86,0,0,0-.34,1.1v4.46a.65.65,0,0,1-.64.66.59.59,0,0,1-.45-.2.6.6,0,0,1-.19-.46v-7a.65.65,0,0,1,.64-.64.58.58,0,0,1,.46.19.61.61,0,0,1,.18.45v1.14l-.32.35a2.21,2.21,0,0,1,.37-.84,3.43,3.43,0,0,1,.72-.76,3.74,3.74,0,0,1,1-.53A2.94,2.94,0,0,1,96.68,242.74Z"/><path class="cls-2" d="M102,243h3.77a.56.56,0,0,1,.42.18.58.58,0,0,1,.17.41.6.6,0,0,1-.17.43.59.59,0,0,1-.42.17H102a.57.57,0,0,1-.41-.18.58.58,0,0,1-.18-.43.54.54,0,0,1,.18-.41A.6.6,0,0,1,102,243Zm1.68-2.17a.58.58,0,0,1,.45.18.62.62,0,0,1,.18.46v7.72a1.24,1.24,0,0,0,.11.58.54.54,0,0,0,.3.26.94.94,0,0,0,.36.08.64.64,0,0,0,.28-.06.61.61,0,0,1,.28-.06.38.38,0,0,1,.29.16.56.56,0,0,1,.14.39.58.58,0,0,1-.34.49,1.45,1.45,0,0,1-.75.2,4,4,0,0,1-.55,0,1.75,1.75,0,0,1-.65-.2,1.49,1.49,0,0,1-.54-.59,2.52,2.52,0,0,1-.21-1.14v-7.79a.59.59,0,0,1,.19-.46A.65.65,0,0,1,103.67,240.82Z"/><path class="cls-2" d="M108.38,249.9a.64.64,0,0,1-.13-.44.53.53,0,0,1,.27-.4.56.56,0,0,1,.38-.1.59.59,0,0,1,.39.21,3.69,3.69,0,0,0,1,.84,2.92,2.92,0,0,0,2.18.18,1.36,1.36,0,0,0,.65-.39,1.06,1.06,0,0,0,.26-.74,1,1,0,0,0-.27-.72,2.19,2.19,0,0,0-.7-.43,7.6,7.6,0,0,0-1-.29c-.35-.1-.7-.21-1-.33a4,4,0,0,1-.92-.47,2.07,2.07,0,0,1-.65-.7,2,2,0,0,1-.25-1,2,2,0,0,1,.39-1.25,2.59,2.59,0,0,1,1.06-.82,3.59,3.59,0,0,1,1.44-.28,4.42,4.42,0,0,1,.94.1,3.76,3.76,0,0,1,1,.35,2.78,2.78,0,0,1,.82.68.68.68,0,0,1,.16.4.5.5,0,0,1-.21.43.57.57,0,0,1-.39.12.55.55,0,0,1-.36-.16,2.25,2.25,0,0,0-.84-.62,2.89,2.89,0,0,0-1.11-.22,2.46,2.46,0,0,0-.76.12,1.36,1.36,0,0,0-.61.37,1,1,0,0,0-.25.73,1,1,0,0,0,.29.7,1.88,1.88,0,0,0,.73.44,10.43,10.43,0,0,0,1,.33c.34.09.67.19,1,.3a3.49,3.49,0,0,1,.86.44,2,2,0,0,1,.61.69,2.29,2.29,0,0,1,.22,1.07,2,2,0,0,1-.42,1.27,2.59,2.59,0,0,1-1.09.82,4,4,0,0,1-1.47.28,4.8,4.8,0,0,1-1.73-.34A3.43,3.43,0,0,1,108.38,249.9Z"/><path class="cls-2" d="M116.47,253.31a.57.57,0,0,1-.39-.17.52.52,0,0,1-.18-.4.72.72,0,0,1,.06-.29l6.82-13.62a.85.85,0,0,1,.25-.32.62.62,0,0,1,.32-.09.59.59,0,0,1,.38.15.51.51,0,0,1,.18.41.66.66,0,0,1-.08.32L117,252.91a.7.7,0,0,1-.24.31A.57.57,0,0,1,116.47,253.31Z"/><path class="cls-2" d="M129.43,242.74a5.63,5.63,0,0,1,1.48.17,3,3,0,0,1,1,.48.88.88,0,0,1,.38.69.69.69,0,0,1-.14.4.44.44,0,0,1-.39.19.59.59,0,0,1-.34-.08,1,1,0,0,1-.26-.21,1.05,1.05,0,0,0-.33-.22,1.66,1.66,0,0,0-.56-.18,4.56,4.56,0,0,0-.75-.06,2.88,2.88,0,0,0-2.58,1.54,3.6,3.6,0,0,0,0,3.2,3.06,3.06,0,0,0,1,1.12,2.86,2.86,0,0,0,1.52.41,3.48,3.48,0,0,0,.89-.09,3.07,3.07,0,0,0,.57-.23,1.65,1.65,0,0,0,.42-.32.61.61,0,0,1,.43-.16.48.48,0,0,1,.41.18.64.64,0,0,1,.15.43.86.86,0,0,1-.4.61,3.62,3.62,0,0,1-1.08.54,4.87,4.87,0,0,1-1.53.23,3.94,3.94,0,0,1-2.13-.57,3.84,3.84,0,0,1-1.41-1.55,5,5,0,0,1,0-4.4,4.08,4.08,0,0,1,1.45-1.55A4,4,0,0,1,129.43,242.74Z"/><path class="cls-2" d="M141.19,242.86a.63.63,0,0,1,.47.19.6.6,0,0,1,.17.45v7.06a.63.63,0,0,1-.18.46.6.6,0,0,1-.46.2.59.59,0,0,1-.45-.2.64.64,0,0,1-.19-.46V249l.31,0a1.59,1.59,0,0,1-.24.77,3.11,3.11,0,0,1-.66.77,3.5,3.5,0,0,1-1,.59,3.09,3.09,0,0,1-1.22.24,3.51,3.51,0,0,1-2-.57,3.9,3.9,0,0,1-1.37-1.55A4.83,4.83,0,0,1,134,247a4.7,4.7,0,0,1,.5-2.23,3.94,3.94,0,0,1,1.36-1.52,3.46,3.46,0,0,1,1.93-.55A3.59,3.59,0,0,1,139,243a3.31,3.31,0,0,1,1,.61,2.87,2.87,0,0,1,.68.85,2,2,0,0,1,.24.92l-.42-.09V243.5a.65.65,0,0,1,.64-.64Zm-3.29,7.33a2.51,2.51,0,0,0,1.41-.41,2.89,2.89,0,0,0,1-1.13,3.53,3.53,0,0,0,.35-1.61,3.44,3.44,0,0,0-.35-1.59,2.73,2.73,0,0,0-1-1.12,2.64,2.64,0,0,0-2.81,0,2.73,2.73,0,0,0-1,1.1,3.9,3.9,0,0,0,0,3.23,2.89,2.89,0,0,0,1,1.13A2.5,2.5,0,0,0,137.9,250.19Z"/><path class="cls-2" d="M148.71,242.74a3,3,0,0,1,1.72.44,2.43,2.43,0,0,1,.88,1.2,5,5,0,0,1,.27,1.68v4.5a.6.6,0,0,1-.19.46.59.59,0,0,1-.45.2.61.61,0,0,1-.46-.2.63.63,0,0,1-.18-.46V246.1a3,3,0,0,0-.19-1.1,1.56,1.56,0,0,0-.6-.78,2,2,0,0,0-1.16-.3,2.61,2.61,0,0,0-1.24.3,2.32,2.32,0,0,0-.89.78,1.86,1.86,0,0,0-.34,1.1v4.46a.63.63,0,0,1-.18.46.61.61,0,0,1-.46.2.59.59,0,0,1-.45-.2.6.6,0,0,1-.19-.46v-7a.65.65,0,0,1,.64-.64.61.61,0,0,1,.47.19.64.64,0,0,1,.17.45v1.14l-.32.35a2.38,2.38,0,0,1,.37-.84,3.43,3.43,0,0,1,.72-.76,3.74,3.74,0,0,1,1-.53A2.94,2.94,0,0,1,148.71,242.74Z"/><path class="cls-2" d="M161.08,239.38a.64.64,0,0,1,.47.18.65.65,0,0,1,.17.46v10.54a.63.63,0,0,1-.18.46.61.61,0,0,1-.46.2.59.59,0,0,1-.45-.2.6.6,0,0,1-.19-.46V249l.31-.11a1.69,1.69,0,0,1-.24.81,2.94,2.94,0,0,1-.65.79,3.76,3.76,0,0,1-1,.61,3,3,0,0,1-1.21.24,3.51,3.51,0,0,1-1.95-.56,3.93,3.93,0,0,1-1.37-1.54,5.13,5.13,0,0,1,0-4.46,3.89,3.89,0,0,1,1.36-1.53,3.66,3.66,0,0,1,3.18-.33,3.31,3.31,0,0,1,1,.61,2.94,2.94,0,0,1,.7.85,1.88,1.88,0,0,1,.25.92l-.42-.09V240a.59.59,0,0,1,.19-.46A.61.61,0,0,1,161.08,239.38Zm-3.29,10.81a2.44,2.44,0,0,0,1.42-.41,2.7,2.7,0,0,0,1-1.12,3.88,3.88,0,0,0,0-3.22,2.76,2.76,0,0,0-1-1.11,2.51,2.51,0,0,0-1.41-.41,2.48,2.48,0,0,0-1.4.41,2.76,2.76,0,0,0-1,1.11,3.85,3.85,0,0,0,0,3.21,2.89,2.89,0,0,0,1,1.13A2.48,2.48,0,0,0,157.79,250.19Z"/><path class="cls-2" d="M165.08,241.74a.9.9,0,0,1-.59-.16.59.59,0,0,1-.19-.49v-.23a.57.57,0,0,1,.21-.49.9.9,0,0,1,.59-.16.84.84,0,0,1,.57.16.59.59,0,0,1,.2.49v.23a.59.59,0,0,1-.2.49A.92.92,0,0,1,165.08,241.74Zm.64,8.82a.63.63,0,0,1-.18.46.61.61,0,0,1-.46.2.6.6,0,0,1-.46-.2.63.63,0,0,1-.18-.46v-7.1a.59.59,0,0,1,.19-.46.61.61,0,0,1,.45-.18.63.63,0,0,1,.46.18.62.62,0,0,1,.18.46Z"/><path class="cls-2" d="M175.16,239.38a.64.64,0,0,1,.47.18.65.65,0,0,1,.17.46v10.54a.63.63,0,0,1-.18.46.61.61,0,0,1-.46.2.59.59,0,0,1-.45-.2.6.6,0,0,1-.19-.46V249l.31-.11a1.69,1.69,0,0,1-.24.81,2.94,2.94,0,0,1-.65.79,3.76,3.76,0,0,1-1,.61,3,3,0,0,1-1.21.24,3.51,3.51,0,0,1-2-.56,3.93,3.93,0,0,1-1.37-1.54,5.13,5.13,0,0,1,0-4.46,3.89,3.89,0,0,1,1.36-1.53A3.66,3.66,0,0,1,173,243a3.31,3.31,0,0,1,1,.61,2.94,2.94,0,0,1,.7.85,1.88,1.88,0,0,1,.25.92l-.42-.09V240a.59.59,0,0,1,.19-.46A.61.61,0,0,1,175.16,239.38Zm-3.29,10.81a2.44,2.44,0,0,0,1.42-.41,2.7,2.7,0,0,0,1-1.12,3.88,3.88,0,0,0,0-3.22,2.76,2.76,0,0,0-1-1.11,2.51,2.51,0,0,0-1.41-.41,2.48,2.48,0,0,0-1.4.41,2.76,2.76,0,0,0-1,1.11,3.85,3.85,0,0,0,0,3.21,2.89,2.89,0,0,0,1,1.13A2.48,2.48,0,0,0,171.87,250.19Z"/><path class="cls-2" d="M185.31,242.86a.63.63,0,0,1,.46.19.61.61,0,0,1,.18.45v7.06a.64.64,0,0,1-.19.46.59.59,0,0,1-.45.2.6.6,0,0,1-.46-.2.63.63,0,0,1-.18-.46V249l.3,0a1.59,1.59,0,0,1-.24.77,3.11,3.11,0,0,1-.66.77,3.36,3.36,0,0,1-1,.59,3.09,3.09,0,0,1-1.22.24,3.51,3.51,0,0,1-2-.57,3.9,3.9,0,0,1-1.37-1.55,5.25,5.25,0,0,1,0-4.45,3.94,3.94,0,0,1,1.36-1.52,3.46,3.46,0,0,1,1.93-.55,3.59,3.59,0,0,1,1.28.22,3.31,3.31,0,0,1,1,.61,2.72,2.72,0,0,1,.68.85,2,2,0,0,1,.24.92l-.41-.09V243.5a.61.61,0,0,1,.18-.45A.63.63,0,0,1,185.31,242.86Zm-3.3,7.33a2.57,2.57,0,0,0,1.42-.41,2.86,2.86,0,0,0,1-1.13,3.53,3.53,0,0,0,.36-1.61,3.45,3.45,0,0,0-.36-1.59,2.7,2.7,0,0,0-1-1.12,2.57,2.57,0,0,0-1.42-.41,2.49,2.49,0,0,0-1.4.4,2.81,2.81,0,0,0-1,1.1,3.9,3.9,0,0,0,0,3.23,3,3,0,0,0,1,1.13A2.5,2.5,0,0,0,182,250.19Z"/><path class="cls-2" d="M188.39,243h3.76a.57.57,0,0,1,.43.18.58.58,0,0,1,.17.41.58.58,0,0,1-.6.6h-3.76A.54.54,0,0,1,188,244a.58.58,0,0,1-.18-.43.54.54,0,0,1,.18-.41A.57.57,0,0,1,188.39,243Zm1.68-2.17a.6.6,0,0,1,.45.18.62.62,0,0,1,.18.46v7.72a1.13,1.13,0,0,0,.11.58.51.51,0,0,0,.3.26.94.94,0,0,0,.36.08.64.64,0,0,0,.28-.06A.61.61,0,0,1,192,250a.38.38,0,0,1,.29.16.56.56,0,0,1,.14.39.58.58,0,0,1-.34.49,1.45,1.45,0,0,1-.75.2,4,4,0,0,1-.55,0,1.75,1.75,0,0,1-.65-.2,1.49,1.49,0,0,1-.54-.59,2.52,2.52,0,0,1-.21-1.14v-7.79a.59.59,0,0,1,.19-.46A.65.65,0,0,1,190.07,240.82Z"/><path class="cls-2" d="M198.59,251.38a4.48,4.48,0,0,1-2.24-.55,3.81,3.81,0,0,1-1.49-1.49,4.5,4.5,0,0,1-.53-2.2,4.79,4.79,0,0,1,.55-2.38,3.91,3.91,0,0,1,1.43-1.5,3.6,3.6,0,0,1,1.88-.52,3.86,3.86,0,0,1,1.43.27,3.57,3.57,0,0,1,1.21.79,3.82,3.82,0,0,1,.86,1.25,4.37,4.37,0,0,1,.34,1.62.63.63,0,0,1-.21.43.64.64,0,0,1-.45.18h-6.32l-.29-1.1h6.16l-.25.22v-.35a2.05,2.05,0,0,0-.43-1.13,2.6,2.6,0,0,0-2.05-1,2.93,2.93,0,0,0-1,.16,2.4,2.4,0,0,0-.84.55,2.43,2.43,0,0,0-.6,1,4,4,0,0,0-.23,1.42,3.41,3.41,0,0,0,.38,1.63,2.86,2.86,0,0,0,2.6,1.52,3.24,3.24,0,0,0,1-.14,3,3,0,0,0,.71-.36,3.86,3.86,0,0,0,.51-.44.67.67,0,0,1,.41-.15.55.55,0,0,1,.55.55.62.62,0,0,1-.26.48,4.29,4.29,0,0,1-1.22.87A3.69,3.69,0,0,1,198.59,251.38Z"/><path class="cls-2" d="M203.8,249.9a.69.69,0,0,1-.13-.44.54.54,0,0,1,.28-.4.52.52,0,0,1,.37-.1.55.55,0,0,1,.39.21,3.59,3.59,0,0,0,1,.84,2.89,2.89,0,0,0,2.17.18,1.31,1.31,0,0,0,.65-.39,1,1,0,0,0,.27-.74.94.94,0,0,0-.28-.72,2.08,2.08,0,0,0-.7-.43,7.43,7.43,0,0,0-.94-.29c-.36-.1-.7-.21-1-.33a3.62,3.62,0,0,1-.92-.47,2.1,2.1,0,0,1-.66-.7,2,2,0,0,1-.25-1,2,2,0,0,1,.39-1.25,2.73,2.73,0,0,1,1.06-.82,3.64,3.64,0,0,1,1.45-.28,4.33,4.33,0,0,1,.93.1,3.82,3.82,0,0,1,1,.35,2.75,2.75,0,0,1,.81.68.62.62,0,0,1,.16.4.5.5,0,0,1-.21.43.54.54,0,0,1-.39.12.6.6,0,0,1-.36-.16A2.1,2.1,0,0,0,208,244a2.82,2.82,0,0,0-1.11-.22,2.36,2.36,0,0,0-.75.12,1.39,1.39,0,0,0-.62.37,1.06,1.06,0,0,0-.25.73,1,1,0,0,0,.29.7,1.85,1.85,0,0,0,.74.44,10.21,10.21,0,0,0,1,.33q.51.13,1,.3a3.42,3.42,0,0,1,.85.44,1.93,1.93,0,0,1,.61.69A2.29,2.29,0,0,1,210,249a2,2,0,0,1-.41,1.27,2.68,2.68,0,0,1-1.1.82,3.91,3.91,0,0,1-1.46.28,4.81,4.81,0,0,1-1.74-.34A3.43,3.43,0,0,1,203.8,249.9Z"/><path class="cls-2" d="M223.79,242.86a.63.63,0,0,1,.46.19.61.61,0,0,1,.18.45v7.06a.64.64,0,0,1-.19.46.59.59,0,0,1-.45.2.6.6,0,0,1-.46-.2.63.63,0,0,1-.18-.46V249l.3,0a1.59,1.59,0,0,1-.24.77,3.11,3.11,0,0,1-.66.77,3.36,3.36,0,0,1-1,.59,3.09,3.09,0,0,1-1.22.24,3.51,3.51,0,0,1-2-.57,3.9,3.9,0,0,1-1.37-1.55,5.25,5.25,0,0,1,0-4.45,3.94,3.94,0,0,1,1.36-1.52,3.46,3.46,0,0,1,1.93-.55,3.59,3.59,0,0,1,1.28.22,3.31,3.31,0,0,1,1,.61,2.87,2.87,0,0,1,.68.85,2,2,0,0,1,.24.92l-.41-.09V243.5a.61.61,0,0,1,.18-.45A.63.63,0,0,1,223.79,242.86Zm-3.3,7.33a2.54,2.54,0,0,0,1.42-.41,2.86,2.86,0,0,0,1-1.13,3.53,3.53,0,0,0,.36-1.61,3.45,3.45,0,0,0-.36-1.59,2.7,2.7,0,0,0-1-1.12,2.54,2.54,0,0,0-1.42-.41,2.49,2.49,0,0,0-1.4.4,2.81,2.81,0,0,0-1,1.1,3.9,3.9,0,0,0,0,3.23,3,3,0,0,0,1,1.13A2.5,2.5,0,0,0,220.49,250.19Z"/><path class="cls-2" d="M226.87,243h3.76a.57.57,0,0,1,.43.18.58.58,0,0,1,.17.41.58.58,0,0,1-.6.6h-3.76a.55.55,0,0,1-.41-.18.58.58,0,0,1-.18-.43.54.54,0,0,1,.18-.41A.58.58,0,0,1,226.87,243Zm1.68-2.17a.61.61,0,0,1,.45.18.62.62,0,0,1,.18.46v7.72a1.13,1.13,0,0,0,.11.58.51.51,0,0,0,.3.26.94.94,0,0,0,.36.08.64.64,0,0,0,.28-.06.61.61,0,0,1,.28-.06.38.38,0,0,1,.29.16.56.56,0,0,1,.14.39.58.58,0,0,1-.34.49,1.45,1.45,0,0,1-.75.2,4,4,0,0,1-.55,0,1.75,1.75,0,0,1-.65-.2,1.49,1.49,0,0,1-.54-.59,2.52,2.52,0,0,1-.21-1.14v-7.79a.59.59,0,0,1,.19-.46A.65.65,0,0,1,228.55,240.82Z"/><path class="cls-2" d="M237.88,243h3.76a.58.58,0,0,1,.43.18.57.57,0,0,1,.16.41.59.59,0,0,1-.16.43.61.61,0,0,1-.43.17h-3.76a.54.54,0,0,1-.41-.18.58.58,0,0,1-.18-.43.54.54,0,0,1,.18-.41A.57.57,0,0,1,237.88,243Zm1.68-2.17a.61.61,0,0,1,.45.18.62.62,0,0,1,.18.46v7.72a1.13,1.13,0,0,0,.11.58.52.52,0,0,0,.29.26,1,1,0,0,0,.36.08.61.61,0,0,0,.28-.06.64.64,0,0,1,.28-.06.38.38,0,0,1,.3.16.56.56,0,0,1,.14.39.6.6,0,0,1-.34.49,1.48,1.48,0,0,1-.75.2,3.94,3.94,0,0,1-.55,0,1.75,1.75,0,0,1-.65-.2,1.42,1.42,0,0,1-.54-.59,2.52,2.52,0,0,1-.21-1.14v-7.79a.59.59,0,0,1,.19-.46A.65.65,0,0,1,239.56,240.82Z"/><path class="cls-2" d="M248.41,242.82a2.78,2.78,0,0,1,1.67.45,2.48,2.48,0,0,1,.88,1.22,5,5,0,0,1,.26,1.69v4.38a.63.63,0,0,1-.18.46.59.59,0,0,1-.45.2.6.6,0,0,1-.46-.2.63.63,0,0,1-.18-.46v-4.38a3.17,3.17,0,0,0-.18-1.1,1.54,1.54,0,0,0-.59-.78,1.83,1.83,0,0,0-1.11-.3,2.48,2.48,0,0,0-1.2.3,2.24,2.24,0,0,0-.86.78,2,2,0,0,0-.32,1.1v4.38a.64.64,0,1,1-1.28,0V240a.62.62,0,0,1,.18-.46.65.65,0,0,1,.46-.18.6.6,0,0,1,.46.18.62.62,0,0,1,.18.46v4.78l-.32.35a2.32,2.32,0,0,1,.35-.84,3.28,3.28,0,0,1,.69-.76,3.56,3.56,0,0,1,.93-.53A2.79,2.79,0,0,1,248.41,242.82Z"/><path class="cls-2" d="M257.74,251.38a4.48,4.48,0,0,1-2.24-.55,3.81,3.81,0,0,1-1.49-1.49,4.5,4.5,0,0,1-.53-2.2,4.9,4.9,0,0,1,.55-2.38,3.91,3.91,0,0,1,1.43-1.5,3.63,3.63,0,0,1,1.88-.52,3.83,3.83,0,0,1,1.43.27,3.57,3.57,0,0,1,1.21.79,3.82,3.82,0,0,1,.86,1.25,4.18,4.18,0,0,1,.34,1.62.59.59,0,0,1-.21.43.64.64,0,0,1-.45.18H254.2l-.29-1.1h6.16l-.25.22v-.35a2,2,0,0,0-.43-1.13,2.53,2.53,0,0,0-.92-.73,2.62,2.62,0,0,0-1.13-.25,2.93,2.93,0,0,0-1,.16,2.4,2.4,0,0,0-.84.55,2.67,2.67,0,0,0-.6,1,4,4,0,0,0-.23,1.42,3.41,3.41,0,0,0,.38,1.63,2.81,2.81,0,0,0,1,1.11,2.85,2.85,0,0,0,1.55.41,3.24,3.24,0,0,0,1-.14,2.77,2.77,0,0,0,.71-.36,3.86,3.86,0,0,0,.51-.44.69.69,0,0,1,.41-.15.55.55,0,0,1,.55.55.62.62,0,0,1-.26.48,4.29,4.29,0,0,1-1.22.87A3.69,3.69,0,0,1,257.74,251.38Z"/></g><g class="cls-1"><path class="cls-2" d="M60.59,262.8a.71.71,0,0,1,.37.1.62.62,0,0,1,.25.3l2.66,6.24-.26.13,2.71-6.35a.57.57,0,0,1,.59-.42.56.56,0,0,1,.41.16.52.52,0,0,1,.18.4,1,1,0,0,1,0,.18l-.06.16-3.09,7.1a.61.61,0,0,1-.56.42.66.66,0,0,1-.39-.09.58.58,0,0,1-.26-.33L60,263.71l-.06-.14a1.11,1.11,0,0,1,0-.19.57.57,0,0,1,.17-.4A.6.6,0,0,1,60.59,262.8Z"/><path class="cls-2" d="M73.29,271.38a4.51,4.51,0,0,1-2.24-.55,3.88,3.88,0,0,1-1.49-1.49,4.5,4.5,0,0,1-.52-2.2,4.79,4.79,0,0,1,.55-2.38,3.84,3.84,0,0,1,1.43-1.5,3.59,3.59,0,0,1,1.87-.52,3.83,3.83,0,0,1,1.43.27,3.61,3.61,0,0,1,1.22.79,4,4,0,0,1,.86,1.25,4.18,4.18,0,0,1,.33,1.62.59.59,0,0,1-.21.43.6.6,0,0,1-.44.18H69.76l-.29-1.1h6.16l-.26.22v-.35a2,2,0,0,0-.42-1.13,2.6,2.6,0,0,0-2.06-1,2.83,2.83,0,0,0-1,.16,2.35,2.35,0,0,0-.85.55,2.67,2.67,0,0,0-.6,1,4,4,0,0,0-.22,1.42,3.41,3.41,0,0,0,.37,1.63,2.81,2.81,0,0,0,1,1.11,2.87,2.87,0,0,0,1.55.41,3.26,3.26,0,0,0,1-.14,3.14,3.14,0,0,0,.71-.36,4.47,4.47,0,0,0,.5-.44.72.72,0,0,1,.42-.15.55.55,0,0,1,.38.16.53.53,0,0,1,.16.39.61.61,0,0,1-.25.48,4.2,4.2,0,0,1-1.23.87A3.66,3.66,0,0,1,73.29,271.38Z"/><path class="cls-2" d="M83.08,262.74a3,3,0,0,1,1.72.44,2.43,2.43,0,0,1,.88,1.2,5,5,0,0,1,.27,1.68v4.5a.6.6,0,0,1-.19.46.59.59,0,0,1-.45.2.61.61,0,0,1-.46-.2.63.63,0,0,1-.18-.46V266.1a3,3,0,0,0-.19-1.1,1.56,1.56,0,0,0-.6-.78,2,2,0,0,0-1.16-.3,2.61,2.61,0,0,0-1.24.3,2.32,2.32,0,0,0-.89.78,1.86,1.86,0,0,0-.34,1.1v4.46a.65.65,0,0,1-.64.66.59.59,0,0,1-.45-.2.6.6,0,0,1-.19-.46v-7a.65.65,0,0,1,.64-.64.61.61,0,0,1,.47.19.64.64,0,0,1,.17.45v1.14l-.32.35a2.38,2.38,0,0,1,.37-.84,3.43,3.43,0,0,1,.72-.76,3.74,3.74,0,0,1,1-.53A2.94,2.94,0,0,1,83.08,262.74Z"/><path class="cls-2" d="M94.91,262.94a.59.59,0,0,1,.46.19.61.61,0,0,1,.18.45V268a3.35,3.35,0,0,1-.91,2.51,4,4,0,0,1-5,0,3.38,3.38,0,0,1-.9-2.51v-4.37a.61.61,0,0,1,.18-.45.65.65,0,0,1,.92,0,.61.61,0,0,1,.18.45V268a2.2,2.2,0,0,0,.56,1.65,2.11,2.11,0,0,0,1.56.56,2.16,2.16,0,0,0,1.6-.56,2.28,2.28,0,0,0,.55-1.65v-4.37a.61.61,0,0,1,.18-.45A.6.6,0,0,1,94.91,262.94Z"/><path class="cls-2" d="M102.06,271.38a4.51,4.51,0,0,1-2.24-.55,3.81,3.81,0,0,1-1.49-1.49,4.5,4.5,0,0,1-.53-2.2,4.79,4.79,0,0,1,.56-2.38,3.77,3.77,0,0,1,1.43-1.5,3.57,3.57,0,0,1,1.87-.52,3.83,3.83,0,0,1,1.43.27,3.71,3.71,0,0,1,1.22.79,3.79,3.79,0,0,1,.85,1.25,4,4,0,0,1,.34,1.62.59.59,0,0,1-.21.43.64.64,0,0,1-.45.18H98.52l-.28-1.1h6.16l-.26.22v-.35a2,2,0,0,0-.42-1.13,2.6,2.6,0,0,0-2.06-1,2.83,2.83,0,0,0-1,.16,2.35,2.35,0,0,0-.85.55,2.67,2.67,0,0,0-.6,1A4,4,0,0,0,99,267a3.41,3.41,0,0,0,.37,1.63,2.81,2.81,0,0,0,1,1.11,2.85,2.85,0,0,0,1.55.41,3.15,3.15,0,0,0,1-.14,3,3,0,0,0,.72-.36,4.47,4.47,0,0,0,.5-.44.72.72,0,0,1,.42-.15.57.57,0,0,1,.38.16.53.53,0,0,1,.16.39.62.62,0,0,1-.26.48,4.15,4.15,0,0,1-1.22.87A3.66,3.66,0,0,1,102.06,271.38Z"/><path class="cls-2" d="M112.22,263H116a.54.54,0,0,1,.42.18.58.58,0,0,1,.17.41.6.6,0,0,1-.17.43.57.57,0,0,1-.42.17h-3.76a.58.58,0,0,1-.42-.18.61.61,0,0,1-.17-.43.57.57,0,0,1,.17-.41A.61.61,0,0,1,112.22,263Zm1.68-2.17a.61.61,0,0,1,.45.18.65.65,0,0,1,.17.46v7.72a1.24,1.24,0,0,0,.11.58.57.57,0,0,0,.3.26.94.94,0,0,0,.36.08.61.61,0,0,0,.28-.06.61.61,0,0,1,.28-.06.38.38,0,0,1,.3.16.56.56,0,0,1,.13.39.59.59,0,0,1-.33.49,1.51,1.51,0,0,1-.76.2,4.16,4.16,0,0,1-.55,0,1.7,1.7,0,0,1-.64-.2,1.36,1.36,0,0,1-.54-.59,2.51,2.51,0,0,1-.22-1.14v-7.79a.63.63,0,0,1,.19-.46A.67.67,0,0,1,113.9,260.82Z"/><path class="cls-2" d="M126.44,267.06a4.5,4.5,0,0,1-.54,2.22,4.13,4.13,0,0,1-1.48,1.54,4.07,4.07,0,0,1-2.12.56,4,4,0,0,1-2.1-.56,4.16,4.16,0,0,1-1.49-1.54,4.78,4.78,0,0,1,0-4.45,4.06,4.06,0,0,1,1.49-1.53,3.93,3.93,0,0,1,2.1-.56,4,4,0,0,1,2.12.56,4,4,0,0,1,1.48,1.53A4.52,4.52,0,0,1,126.44,267.06Zm-1.28,0a3.45,3.45,0,0,0-.37-1.64,2.8,2.8,0,0,0-1-1.1,2.69,2.69,0,0,0-1.46-.4,2.74,2.74,0,0,0-1.46.4,2.87,2.87,0,0,0-1,1.1,3.45,3.45,0,0,0-.37,1.64,3.38,3.38,0,0,0,.37,1.61,2.9,2.9,0,0,0,1,1.11,2.66,2.66,0,0,0,1.46.41,2.62,2.62,0,0,0,1.46-.41,2.83,2.83,0,0,0,1-1.11A3.38,3.38,0,0,0,125.16,267.06Z"/><path class="cls-2" d="M133,269.9a.64.64,0,0,1-.13-.44.53.53,0,0,1,.27-.4.55.55,0,0,1,.38-.1.59.59,0,0,1,.39.21,3.69,3.69,0,0,0,1,.84,2.88,2.88,0,0,0,1.41.31,3,3,0,0,0,.77-.13,1.4,1.4,0,0,0,.65-.39,1.06,1.06,0,0,0,.26-.74,1,1,0,0,0-.27-.72,2.13,2.13,0,0,0-.71-.43,7,7,0,0,0-.94-.29c-.35-.1-.7-.21-1-.33a3.79,3.79,0,0,1-.92-.47,2.21,2.21,0,0,1-.66-.7,2.19,2.19,0,0,1,.15-2.28,2.62,2.62,0,0,1,1.05-.82,3.67,3.67,0,0,1,1.45-.28,4.49,4.49,0,0,1,.94.1,3.9,3.9,0,0,1,.95.35,2.78,2.78,0,0,1,.82.68.76.76,0,0,1,.16.4.5.5,0,0,1-.21.43.58.58,0,0,1-.4.12.54.54,0,0,1-.35-.16,2.25,2.25,0,0,0-.84-.62,2.9,2.9,0,0,0-1.12-.22,2.45,2.45,0,0,0-.75.12,1.36,1.36,0,0,0-.61.37,1,1,0,0,0-.25.73,1,1,0,0,0,.29.7,1.8,1.8,0,0,0,.73.44,9.64,9.64,0,0,0,1,.33c.34.09.66.19,1,.3a3.67,3.67,0,0,1,.86.44,2,2,0,0,1,.6.69,2.29,2.29,0,0,1,.23,1.07,2,2,0,0,1-.42,1.27,2.62,2.62,0,0,1-1.1.82,3.91,3.91,0,0,1-1.46.28,4.85,4.85,0,0,1-1.74-.34A3.35,3.35,0,0,1,133,269.9Z"/><path class="cls-2" d="M141.16,263h3.76a.57.57,0,0,1,.43.18.57.57,0,0,1,.16.41.59.59,0,0,1-.16.43.6.6,0,0,1-.43.17h-3.76a.54.54,0,0,1-.41-.18.58.58,0,0,1-.18-.43.54.54,0,0,1,.18-.41A.57.57,0,0,1,141.16,263Zm1.68-2.17a.61.61,0,0,1,.45.18.62.62,0,0,1,.18.46v7.72a1.13,1.13,0,0,0,.11.58.51.51,0,0,0,.3.26.94.94,0,0,0,.36.08.6.6,0,0,0,.27-.06.65.65,0,0,1,.29-.06.38.38,0,0,1,.29.16.56.56,0,0,1,.14.39.6.6,0,0,1-.34.49,1.45,1.45,0,0,1-.75.2,4,4,0,0,1-.55,0,1.75,1.75,0,0,1-.65-.2,1.49,1.49,0,0,1-.54-.59,2.52,2.52,0,0,1-.21-1.14v-7.79a.59.59,0,0,1,.19-.46A.65.65,0,0,1,142.84,260.82Z"/><path class="cls-2" d="M154.43,262.86a.63.63,0,0,1,.46.19.61.61,0,0,1,.18.45v7.06a.6.6,0,0,1-.19.46.59.59,0,0,1-.45.2.61.61,0,0,1-.46-.2.63.63,0,0,1-.18-.46V269l.3,0a1.59,1.59,0,0,1-.24.77,3.11,3.11,0,0,1-.66.77,3.36,3.36,0,0,1-1,.59,3.09,3.09,0,0,1-1.22.24,3.51,3.51,0,0,1-2-.57,4,4,0,0,1-1.37-1.55,5.25,5.25,0,0,1,0-4.45,3.94,3.94,0,0,1,1.36-1.52,3.48,3.48,0,0,1,1.93-.55,3.55,3.55,0,0,1,1.28.22,3.2,3.2,0,0,1,1,.61,2.72,2.72,0,0,1,.68.85,2,2,0,0,1,.24.92l-.41-.09V263.5a.61.61,0,0,1,.18-.45A.64.64,0,0,1,154.43,262.86Zm-3.3,7.33a2.54,2.54,0,0,0,1.42-.41,2.86,2.86,0,0,0,1-1.13,3.53,3.53,0,0,0,.36-1.61,3.45,3.45,0,0,0-.36-1.59,2.7,2.7,0,0,0-1-1.12,2.54,2.54,0,0,0-1.42-.41,2.49,2.49,0,0,0-1.4.4,2.81,2.81,0,0,0-1,1.1,3.9,3.9,0,0,0,0,3.23,3,3,0,0,0,1,1.13A2.5,2.5,0,0,0,151.13,270.19Z"/><path class="cls-2" d="M158.48,271.22a.6.6,0,0,1-.46-.2.63.63,0,0,1-.18-.46v-7a.61.61,0,0,1,.18-.45.65.65,0,0,1,.92,0,.6.6,0,0,1,.17.45v2.12l-.19-.34a3.65,3.65,0,0,1,.35-1,3.24,3.24,0,0,1,.63-.85,3.09,3.09,0,0,1,.88-.59,2.75,2.75,0,0,1,1.09-.21,1.27,1.27,0,0,1,.64.16.53.53,0,0,1,.3.48.61.61,0,0,1-.18.49.54.54,0,0,1-.39.16.9.9,0,0,1-.4-.09,1.36,1.36,0,0,0-.49-.08,1.67,1.67,0,0,0-.79.21,2.59,2.59,0,0,0-.72.62,3.21,3.21,0,0,0-.52.9,2.81,2.81,0,0,0-.21,1.08v3.89a.63.63,0,0,1-.18.46A.59.59,0,0,1,158.48,271.22Z"/><path class="cls-2" d="M164.33,263h3.76a.6.6,0,0,1,.59.59.56.56,0,0,1-.17.43.57.57,0,0,1-.42.17h-3.76a.54.54,0,0,1-.41-.18.58.58,0,0,1-.18-.43.54.54,0,0,1,.18-.41A.57.57,0,0,1,164.33,263Zm1.68-2.17a.6.6,0,0,1,.62.64v7.72a1.12,1.12,0,0,0,.12.58.52.52,0,0,0,.29.26,1,1,0,0,0,.36.08.61.61,0,0,0,.28-.06A.64.64,0,0,1,168,270a.38.38,0,0,1,.3.16.56.56,0,0,1,.13.39.59.59,0,0,1-.33.49,1.48,1.48,0,0,1-.75.2,3.94,3.94,0,0,1-.55,0,1.75,1.75,0,0,1-.65-.2,1.36,1.36,0,0,1-.54-.59,2.51,2.51,0,0,1-.22-1.14v-7.79a.6.6,0,0,1,.2-.46A.63.63,0,0,1,166,260.82Z"/><path class="cls-2" d="M179.4,271.38a4.51,4.51,0,0,1-2.24-.55,3.88,3.88,0,0,1-1.49-1.49,4.5,4.5,0,0,1-.52-2.2,4.79,4.79,0,0,1,.55-2.38,3.84,3.84,0,0,1,1.43-1.5,3.59,3.59,0,0,1,1.87-.52,3.83,3.83,0,0,1,1.43.27,3.61,3.61,0,0,1,1.22.79,4,4,0,0,1,.86,1.25,4.18,4.18,0,0,1,.33,1.62.59.59,0,0,1-.21.43.6.6,0,0,1-.44.18h-6.32l-.29-1.1h6.16l-.26.22v-.35a2,2,0,0,0-.42-1.13,2.6,2.6,0,0,0-2.06-1,2.83,2.83,0,0,0-.95.16,2.44,2.44,0,0,0-.85.55,2.67,2.67,0,0,0-.6,1,4,4,0,0,0-.22,1.42,3.41,3.41,0,0,0,.37,1.63,2.86,2.86,0,0,0,2.6,1.52,3.26,3.26,0,0,0,1-.14,3.14,3.14,0,0,0,.71-.36,3.73,3.73,0,0,0,.5-.44.72.72,0,0,1,.42-.15.55.55,0,0,1,.54.55.61.61,0,0,1-.25.48A4.2,4.2,0,0,1,181,271,3.63,3.63,0,0,1,179.4,271.38Z"/><path class="cls-2" d="M184.92,262.85a.6.6,0,0,1,.51.27l5.57,7.1a.63.63,0,0,1,.13.39.62.62,0,0,1-.19.46.61.61,0,0,1-.45.19A.66.66,0,0,1,190,271l-5.57-7.09a.69.69,0,0,1-.12-.39.59.59,0,0,1,.2-.47A.64.64,0,0,1,184.92,262.85Zm0,8.4a.71.71,0,0,1-.41-.16.51.51,0,0,1-.21-.42.6.6,0,0,1,.16-.4l2.62-3.31.68,1.06-2.33,3A.59.59,0,0,1,184.92,271.25Zm5.57-8.4a.6.6,0,0,1,.44.17.58.58,0,0,1,.17.4.52.52,0,0,1,0,.21.72.72,0,0,1-.12.21l-2.61,3.34-.67-1,2.3-3.07A.65.65,0,0,1,190.49,262.85Z"/><path class="cls-2" d="M199.9,262.86a.63.63,0,0,1,.64.64v7.06a.6.6,0,0,1-.19.46.59.59,0,0,1-.45.2.61.61,0,0,1-.46-.2.63.63,0,0,1-.18-.46V269l.3,0a1.59,1.59,0,0,1-.24.77,3.29,3.29,0,0,1-.65.77,3.55,3.55,0,0,1-1,.59,3.05,3.05,0,0,1-1.22.24,3.51,3.51,0,0,1-2-.57,3.87,3.87,0,0,1-1.36-1.55,5.2,5.2,0,0,1,0-4.45,3.94,3.94,0,0,1,1.36-1.52,3.5,3.5,0,0,1,1.93-.55,3.55,3.55,0,0,1,1.28.22,3.2,3.2,0,0,1,1,.61,2.72,2.72,0,0,1,.68.85,2,2,0,0,1,.24.92l-.41-.09V263.5a.61.61,0,0,1,.18-.45A.64.64,0,0,1,199.9,262.86Zm-3.3,7.33a2.52,2.52,0,0,0,1.42-.41,3,3,0,0,0,1-1.13,3.66,3.66,0,0,0,.35-1.61,3.57,3.57,0,0,0-.35-1.59,2.8,2.8,0,0,0-1-1.12,2.52,2.52,0,0,0-1.42-.41,2.49,2.49,0,0,0-1.4.4,2.81,2.81,0,0,0-1,1.1,3.9,3.9,0,0,0,0,3.23,3,3,0,0,0,1,1.13A2.5,2.5,0,0,0,196.6,270.19Z"/><path class="cls-2" d="M207.26,262.82a2.51,2.51,0,0,1,2.67,2.11h-.24l.11-.29a2.45,2.45,0,0,1,.66-.86,3.93,3.93,0,0,1,1.07-.69,3.11,3.11,0,0,1,1.26-.27,2.76,2.76,0,0,1,1.67.45,2.59,2.59,0,0,1,.87,1.22,5,5,0,0,1,.26,1.7v4.37a.63.63,0,0,1-.18.46.63.63,0,0,1-.92,0,.63.63,0,0,1-.18-.46v-4.34a3.29,3.29,0,0,0-.18-1.12,1.61,1.61,0,0,0-.59-.8,1.83,1.83,0,0,0-1.11-.3,2.43,2.43,0,0,0-1.2.3,2.24,2.24,0,0,0-.87.8,2.06,2.06,0,0,0-.32,1.12v4.34a.67.67,0,0,1-.17.46.62.62,0,0,1-.47.2.59.59,0,0,1-.45-.2.6.6,0,0,1-.19-.46v-4.38a3.18,3.18,0,0,0-.17-1.1,1.55,1.55,0,0,0-.56-.78,1.83,1.83,0,0,0-1.11-.3,2.37,2.37,0,0,0-1.17.3,2.25,2.25,0,0,0-.84.78,1.92,1.92,0,0,0-.32,1.1v4.38a.64.64,0,0,1-.19.46.59.59,0,0,1-.45.2.6.6,0,0,1-.46-.2.63.63,0,0,1-.18-.46v-7a.61.61,0,0,1,.18-.45.65.65,0,0,1,.92,0,.61.61,0,0,1,.18.45v1.22l-.36.38a2.48,2.48,0,0,1,.33-.83,3.48,3.48,0,0,1,.68-.77,3.66,3.66,0,0,1,.93-.56A3,3,0,0,1,207.26,262.82Z"/><path class="cls-2" d="M218.75,271.2a.67.67,0,0,1-.52-.19.72.72,0,0,1-.19-.53v-.32a.71.71,0,0,1,.19-.54.67.67,0,0,1,.52-.2h.12a.68.68,0,0,1,.53.2.75.75,0,0,1,.18.54v.32a.76.76,0,0,1-.18.53.67.67,0,0,1-.53.19Z"/></g></g><g id="illustration_3" data-name="illustration 3"><path id="Path_1186" data-name="Path 1186" class="cls-3" d="M147.86,155.79s-17.45,17.65-26.57,18l-4.08,4.81-2.32,2.76-3.58-4.08L96.85,160.83s2.15-1.19,3.91-5.34a29.43,29.43,0,0,0,2.09-8.82c.93-9.19,6.83-22.85,8.36-27.36.43-1.3-2.32-13.4,3.12-11.64s8.92,11.07,2.12,37.25L142.81,154Z"/><path id="Path_1187" data-name="Path 1187" class="cls-4" d="M147.86,155.79s-17.45,17.65-26.57,18l-4.08,4.81a11.78,11.78,0,0,1-5.9-1.36L96.85,160.8s2.15-1.19,3.91-5.34c3.18,4.38,12.57,14.63,26.67,6.87,4.77-2.62,10.25-5.61,15.42-8.33Z"/><path id="Path_1188" data-name="Path 1188" class="cls-5" d="M152.24,155.26H123a5.9,5.9,0,0,1-5.9-5.9V74.93a5,5,0,0,1,5-5h29.26a6.22,6.22,0,0,1,6.23,6.22h0v73.67a5.4,5.4,0,0,1-5.32,5.47Z"/><path id="Path_1189" data-name="Path 1189" class="cls-2" d="M149.72,131.28H123.58a2.52,2.52,0,0,1-2.52-2.52h0a2.52,2.52,0,0,1,2.52-2.52h26.14a2.52,2.52,0,0,1,2.52,2.52h0A2.57,2.57,0,0,1,149.72,131.28Z"/><path id="Path_1190" data-name="Path 1190" class="cls-2" d="M149.72,137.55H123.58a2.52,2.52,0,0,1-2.52-2.52h0a2.52,2.52,0,0,1,2.52-2.52h26.14a2.52,2.52,0,0,1,2.52,2.52h0A2.54,2.54,0,0,1,149.72,137.55Z"/><path id="Path_1191" data-name="Path 1191" class="cls-6" d="M146.93,145.81H126.3a.86.86,0,0,1-.86-.85h0v-3.88a.85.85,0,0,1,.85-.87h20.64a.86.86,0,0,1,.86.85V145A.88.88,0,0,1,146.93,145.81Z"/><rect id="Rectangle_794" data-name="Rectangle 794" class="cls-7" x="124.67" y="99.97" width="25.47" height="18.74"/><path id="Path_1192" data-name="Path 1192" d="M130.28,104.42l.36-.4a1.87,1.87,0,0,0,1.3.56c.6,0,1-.3,1-.76s-.33-.63-.76-.83l-.67-.3a1.24,1.24,0,0,1,.5-2.42h0a1.92,1.92,0,0,1,1.36.56l-.3.37a1.49,1.49,0,0,0-1.06-.43c-.53,0-.86.26-.86.66s.4.63.76.76l.67.3a1.34,1.34,0,0,1,1,1.26,1.41,1.41,0,0,1-1.48,1.34h-.11A2.06,2.06,0,0,1,130.28,104.42Z"/><path id="Path_1193" data-name="Path 1193" d="M135.35,100.37H136l1.56,4.64H137l-.8-2.58c-.17-.54-.34-1-.47-1.56h0c-.13.53-.3,1.06-.46,1.56l-.83,2.58h-.6Zm-.73,2.75h2.16v.47h-2.16Z"/><path id="Path_1194" data-name="Path 1194" d="M138.24,100.37h2.69v.5h-2.09v1.56h1.76v.5h-1.76V105h-.6Z"/><path id="Path_1195" data-name="Path 1195" d="M141.75,100.37h2.69v.5h-2.12v1.46h1.76v.5h-1.76v1.69h2.16v.5h-2.76v-4.65Z"/><path id="Path_1196" data-name="Path 1196" d="M133.06,108.86h.67l1.56,4.64h-.6l-.8-2.58c-.17-.53-.34-1-.47-1.56h0c-.13.53-.3,1.06-.46,1.56l-.82,2.58h-.6Zm-.73,2.79h2.16v.46h-2.16Z"/><path id="Path_1197" data-name="Path 1197" d="M136,108.86h1.33c1,0,1.76.37,1.76,1.36s-.7,1.43-1.73,1.43h-.76v1.85H136Zm1.29,2.36c.83,0,1.2-.3,1.2-1s-.4-.9-1.23-.9h-.66v1.86Z"/><path id="Path_1198" data-name="Path 1198" d="M140,108.86h1.33c1,0,1.76.37,1.76,1.36s-.7,1.43-1.73,1.43h-.76v1.85H140Zm1.3,2.36c.83,0,1.19-.3,1.19-1s-.4-.9-1.23-.9h-.66v1.86Z"/><path id="Path_1199" data-name="Path 1199" d="M124.67,128.56l-.36.73h-.1l-.23-.16,0-.1.57-.57-.8-.13,0-.1.1-.27.1-.06.73.36-.13-.8.07-.06h.3l.06.06-.13.8.73-.36.1.06.1.27,0,.1-.8.13.56.57,0,.1-.23.16h-.1Z"/><path id="Path_1200" data-name="Path 1200" d="M127,128.56l-.37.73h-.1l-.23-.16,0-.1.56-.57-.8-.13,0-.1.1-.27.1-.06.73.36-.13-.8.06-.06h.3l.07.06-.13.8.73-.36.1.06.1.27,0,.1-.8.13.57.57-.07.1-.23.16h-.1Z"/><path id="Path_1201" data-name="Path 1201" d="M129.38,128.56l-.36.73h-.1l-.23-.16,0-.1.57-.57-.8-.13,0-.1.1-.27.1-.06.73.36-.13-.8.07-.06h.3l.06.06-.13.8.73-.36.1.06.1.27,0,.1-.8.13.56.57,0,.1-.23.16h-.1Z"/><path id="Path_1202" data-name="Path 1202" d="M131.78,128.56l-.37.73h-.1l-.23-.16,0-.1.56-.57-.8-.13,0-.1.1-.27.1-.06.73.36-.14-.8.07-.06h.3l.07.06-.14.8.73-.36.1.06.1.27,0,.1-.8.13.56.57,0,.1-.23.16h-.1Z"/><path id="Path_1203" data-name="Path 1203" d="M134.13,128.56l-.37.73h-.1l-.23-.16,0-.1.56-.57-.8-.13,0-.1.1-.27.1-.06.73.36-.14-.8.07-.06h.3l.07.06-.14.8.73-.36.1.06.1.27,0,.1-.8.13.56.57,0,.1-.23.16h-.1Z"/><g id="Group_248" data-name="Group 248"><path id="Path_1204" data-name="Path 1204" d="M125.3,134.73l-.36.73h-.1l-.23-.17,0-.1.57-.56-.8-.13,0-.1.1-.27.1-.06.73.36-.13-.8.07-.06h.3l.06.06-.13.8.73-.36.1.06.1.27,0,.1-.8.13.56.56,0,.1-.23.17h-.1Z"/><path id="Path_1205" data-name="Path 1205" d="M127.69,134.73l-.36.73h-.1l-.24-.17,0-.1.57-.56-.8-.13,0-.1.1-.27.1-.06.73.36-.13-.8.07-.06h.3l.06.06-.13.8.73-.36.1.06.1.27,0,.1-.8.13.56.56,0,.1-.24.17h-.1Z"/><path id="Path_1206" data-name="Path 1206" d="M130.05,134.73l-.36.73h-.1l-.24-.17,0-.1.57-.56-.8-.13,0-.1.1-.27.1-.06.73.36-.13-.8.07-.06h.3l.06.06-.13.8.73-.36.1.06.1.27,0,.1-.8.13.56.56,0,.1-.24.17h-.1Z"/><path id="Path_1207" data-name="Path 1207" d="M132.41,134.73l-.37.73h-.1l-.23-.17,0-.1.56-.56-.8-.13,0-.1.1-.27.1-.06.73.36-.14-.8.07-.06h.3l.07.06-.14.8.73-.36.1.06.1.27,0,.1-.8.13.56.56,0,.1-.23.17h-.1Z"/><path id="Path_1208" data-name="Path 1208" d="M134.79,134.73l-.37.73h-.1l-.23-.17,0-.1.56-.56-.8-.13,0-.1.1-.27.1-.06.73.36-.13-.8.06-.06h.3l.07.06-.13.8.73-.36.1.06.1.27,0,.1-.8.13.57.56,0,.1-.23.17h-.1Z"/><path id="Path_1209" data-name="Path 1209" d="M137.14,134.73l-.36.73h-.1l-.23-.17,0-.1.57-.56-.8-.13,0-.1.1-.27.1-.06.73.36-.14-.8.07-.06h.3l.06.06-.13.8.73-.36.1.06.1.27,0,.1-.8.13.56.56,0,.1-.23.17h-.1Z"/><path id="Path_1210" data-name="Path 1210" d="M139.5,134.73l-.37.73H139l-.23-.17,0-.1.56-.56-.8-.13,0-.1.1-.27.1-.06.73.36-.13-.8.06-.06h.3l.07.06-.13.8.73-.36.1.06.1.27,0,.1-.8.13.57.56,0,.1-.23.17h-.1Z"/></g><path id="Path_1211" data-name="Path 1211" class="cls-8" d="M151.44,156.09H123.08a6.73,6.73,0,0,1-6.73-6.73V75.93a6.74,6.74,0,0,1,6.73-6.74h28.36a6.74,6.74,0,0,1,6.73,6.74v73.43A6.73,6.73,0,0,1,151.44,156.09Z"/><path id="Path_1212" data-name="Path 1212" d="M144.08,73.57H131.14a.52.52,0,0,1-.53-.52h0a.52.52,0,0,1,.52-.53h13a.52.52,0,0,1,.53.51v0h0A.55.55,0,0,1,144.08,73.57Z"/><path id="Path_1213" data-name="Path 1213" d="M127.89,73.57h0a.52.52,0,0,1-.53-.52h0a.52.52,0,0,1,.52-.53h0a.52.52,0,0,1,.53.51v0h0a.52.52,0,0,1-.52.53Z"/><path id="Path_1214" data-name="Path 1214" class="cls-3" d="M183.71,200.07c-7.83,2-17.78,3.35-17.78,3.35s-6.46-5.77-11.7-8.29-2-4.71-10.88-14.16c0,0-.9-1.66-2.09-3.69-1.79-3.05-4.25-7-5.41-7.69-2-1.16,4-4.91,6.53-2.52a8.26,8.26,0,0,1,1.33,1.56l-5.37-19.3s-3-7.83,2-8,12,28.59,12,28.59a11.4,11.4,0,0,1,2.09-4.78c2.29-2.88,6.27-4.51,8.33.83,0,0,2.79-7.62,8-1.42a3.07,3.07,0,0,1,2.91-2.36,7,7,0,0,1,3.12.57,9.89,9.89,0,0,1,5,5c4.75,9.55,6.4,20.66,9.75,25.87a9.45,9.45,0,0,0,.93,1.23C194.33,196.69,189.62,198.58,183.71,200.07Z"/><path id="Path_1215" data-name="Path 1215" class="cls-4" d="M191.67,193.54l-8,6.53c-7.83,2-17.78,3.35-17.78,3.35s-6.46-5.77-11.7-8.29-2-4.71-10.88-14.16c0,0-.9-1.66-2.09-3.68,3.28,3,10.91,10.81,15.22,15.29a10.46,10.46,0,0,0,7.86,3.21c5.64-.16,17.88,2.36,21.73-1.69,4.94-5.17-6.6-26.27-9.22-31.41a9.91,9.91,0,0,1,5,5C186.7,177.25,188.32,188.36,191.67,193.54Z"/><path id="Path_1216" data-name="Path 1216" class="cls-9" d="M125,176.22l-21.19,35.59s-53.33.07-52.27,0c.23,0,2.42-2.58,5.7-6.6,6.6-8,17.64-21.85,26.4-32.83h0l13.17-16.59,14.82,10.75a.09.09,0,0,0,.07,0c.13.1.2.13.2.17h0l11.81,8.55Z"/><path id="Path_1217" data-name="Path 1217" class="cls-9" d="M208,211.81H166v-8.39c2.42-1.19,9.15-4.38,15.29-7.26h0c1.69-.8,3.38-1.6,4.87-2.29,4-1.83,6.83-3.19,6.83-3.19Z"/><path id="Path_1218" data-name="Path 1218" class="cls-10" d="M125,176.22l-21.19,35.59s-53.33.07-52.27,0a.07.07,0,0,0,.06,0c4.75-3.55,9.13-7,20.07-5.7,34.3,4.15,48.72-25.44,52.07-30.78Z"/><path id="Path_1219" data-name="Path 1219" class="cls-11" d="M174.23,211.81h-8.3v-8.39c2.43-1.19,9.16-4.38,15.29-7.26C181,196.42,169.05,207.67,174.23,211.81Z"/><path id="Path_1220" data-name="Path 1220" class="cls-11" d="M208,211.81h-5.21a68.37,68.37,0,0,1-4.08-8.39c-5.31-12.9-12.6-9.32-12.6-9.32s0-.17,0-.23c4-1.83,6.84-3.19,6.84-3.19Z"/><path id="Path_1221" data-name="Path 1221" class="cls-11" d="M111.64,166.54c-1.76-1.23-11.28-7.63-14.83-5.7-3.84,2.09-12.87,11.24-13.16,11.54L96.81,155.8Z"/></g><circle id="circle_3_point_3" data-name="circle 3 point 3" class="cls-2" cx="138.52" cy="16.5" r="16.5"/><g class="cls-1"><g class="cls-1"><path class="cls-12" d="M135,22.44a1.26,1.26,0,0,1,.33,0,1.33,1.33,0,0,1,.41.21,3.11,3.11,0,0,0,.87.53,3.05,3.05,0,0,0,1.17.21,2.79,2.79,0,0,0,1.37-.35,2.71,2.71,0,0,0,1-1,2.78,2.78,0,0,0,.4-1.52,2.63,2.63,0,0,0-.37-1.47,2.27,2.27,0,0,0-1-.86,3,3,0,0,0-1.27-.29,2.3,2.3,0,0,0-.62.07l-.5.14a1.72,1.72,0,0,1-.52.07.73.73,0,0,1-.61-.27,1,1,0,0,1-.21-.65.93.93,0,0,1,.09-.42,1.68,1.68,0,0,1,.27-.38l3.7-4.08.44.4h-5.3a.92.92,0,0,1-.67-.27.9.9,0,0,1-.27-.67.85.85,0,0,1,.27-.64,1,1,0,0,1,.67-.26H141a1,1,0,0,1,.79.3,1,1,0,0,1,.25.7.78.78,0,0,1-.11.42,1.67,1.67,0,0,1-.29.38l-3.7,4.1-.52-.54a3.2,3.2,0,0,1,.55-.16,3.29,3.29,0,0,1,.61-.08,3.68,3.68,0,0,1,2.06.58A4.08,4.08,0,0,1,142,18.25a4.54,4.54,0,0,1,.52,2.19A4.72,4.72,0,0,1,141.9,23a4.44,4.44,0,0,1-1.83,1.65,5.92,5.92,0,0,1-2.69.58,5.58,5.58,0,0,1-1.52-.21,4.21,4.21,0,0,1-1.3-.61,1.21,1.21,0,0,1-.46-.43,1,1,0,0,1-.12-.45,1.17,1.17,0,0,1,.28-.72A.87.87,0,0,1,135,22.44Z"/></g></g></g></g></g></svg>