<svg xmlns="http://www.w3.org/2000/svg" viewBox="0 0 215.53 266.88"><defs><style>.cls-1,.cls-19,.cls-20{isolation:isolate;}.cls-2{fill:#fff;}.cls-3{fill:#3f3d56;}.cls-4{fill:#020bf9;}.cls-5{fill:#bed7ff;}.cls-6{fill:#a5d1fe;}.cls-7{fill:#504f60;}.cls-8{fill:#a1616a;}.cls-9{fill:#ff9898;}.cls-10{fill:#ffacb6;}.cls-11{fill:#021c56;}.cls-12,.cls-19{opacity:0.1;}.cls-13{fill:#6c63ff;}.cls-14{fill:blue;}.cls-15{fill:#fbbebe;}.cls-16{fill:#c8e0ff;}.cls-17{fill:#f86d70;}.cls-18{fill:#00217e;}.cls-20{opacity:0.07;}.cls-21{fill:#333a41;}</style></defs><g id="Layer_2" data-name="Layer 2"><g id="Layer_8" data-name="Layer 8"><g id="point_4" data-name="point 4"><g id="Candidates_attempt_exam_and_submit" data-name="Candidates attempt exam and submit" class="cls-1"><g class="cls-1"><path class="cls-2" d="M47.16,236.16a.69.69,0,0,1,.41.54.86.86,0,0,1-.19.67.64.64,0,0,1-.45.27.86.86,0,0,1-.56-.11,4.77,4.77,0,0,0-1-.38,3.88,3.88,0,0,0-1.09-.15,4.24,4.24,0,0,0-1.64.3,3.64,3.64,0,0,0-1.26.85,3.69,3.69,0,0,0-.8,1.3,4.68,4.68,0,0,0-.28,1.67,4.92,4.92,0,0,0,.3,1.78,3.69,3.69,0,0,0,.84,1.31,3.35,3.35,0,0,0,1.26.8,4.52,4.52,0,0,0,1.58.27,4.66,4.66,0,0,0,1.06-.13,4.25,4.25,0,0,0,1-.39,1,1,0,0,1,.57-.1.69.69,0,0,1,.45.28.79.79,0,0,1,.2.68.74.74,0,0,1-.41.52,4.4,4.4,0,0,1-.88.38,6.62,6.62,0,0,1-1,.26,5.67,5.67,0,0,1-1,.1,6.1,6.1,0,0,1-2.18-.39,5.43,5.43,0,0,1-1.82-1.12,5.25,5.25,0,0,1-1.26-1.81,6.24,6.24,0,0,1-.45-2.44,6,6,0,0,1,.42-2.28,5.12,5.12,0,0,1,1.2-1.81A5.63,5.63,0,0,1,42,235.84a6,6,0,0,1,2.27-.42,5.82,5.82,0,0,1,1.5.19A5.71,5.71,0,0,1,47.16,236.16Z"/><path class="cls-2" d="M56.44,238.17a.81.81,0,0,1,.57.23.82.82,0,0,1,.23.59v6.91a.8.8,0,0,1-.23.58.78.78,0,0,1-.57.24.75.75,0,0,1-.58-.24.79.79,0,0,1-.22-.58v-1.15l.32.05a1.25,1.25,0,0,1-.23.64,3.35,3.35,0,0,1-.64.68,3.56,3.56,0,0,1-.94.54,3.2,3.2,0,0,1-1.17.22,3.56,3.56,0,0,1-2-.57,4,4,0,0,1-1.39-1.56,5.21,5.21,0,0,1,0-4.54A4,4,0,0,1,51,238.67a3.46,3.46,0,0,1,1.94-.56,3.55,3.55,0,0,1,1.28.22,3.7,3.7,0,0,1,1,.58,2.87,2.87,0,0,1,.67.74,1.43,1.43,0,0,1,.24.75l-.49,0V239a.81.81,0,0,1,.22-.58A.75.75,0,0,1,56.44,238.17Zm-3.27,7.23a2.27,2.27,0,0,0,1.32-.38,2.55,2.55,0,0,0,.89-1.05,3.38,3.38,0,0,0,.32-1.48,3.43,3.43,0,0,0-.32-1.49,2.65,2.65,0,0,0-.89-1,2.47,2.47,0,0,0-2.63,0,2.65,2.65,0,0,0-.89,1,3.29,3.29,0,0,0-.32,1.49A3.25,3.25,0,0,0,51,244a2.53,2.53,0,0,0,.88,1.05A2.27,2.27,0,0,0,53.17,245.4Z"/><path class="cls-2" d="M64.2,238.11a2.92,2.92,0,0,1,1.76.47,2.53,2.53,0,0,1,.87,1.26,6.1,6.1,0,0,1,.25,1.77v4.29a.8.8,0,0,1-.23.58.78.78,0,0,1-.57.24.75.75,0,0,1-.58-.24.79.79,0,0,1-.22-.58v-4.27a3.23,3.23,0,0,0-.16-1,1.51,1.51,0,0,0-.55-.74,1.87,1.87,0,0,0-1.1-.28,2.25,2.25,0,0,0-1.15.28,2.13,2.13,0,0,0-.78.74,1.87,1.87,0,0,0-.28,1v4.27a.8.8,0,0,1-.23.58.76.76,0,0,1-.57.24.73.73,0,0,1-.57-.24.8.8,0,0,1-.23-.58v-6.78a.82.82,0,0,1,.23-.59.76.76,0,0,1,.57-.23.79.79,0,0,1,.57.23.82.82,0,0,1,.23.59V240l-.29.16a2.44,2.44,0,0,1,.4-.71,3.61,3.61,0,0,1,.68-.67,3.36,3.36,0,0,1,.89-.5A3.06,3.06,0,0,1,64.2,238.11Z"/><path class="cls-2" d="M76.53,234.88a.77.77,0,0,1,.8.81V245.9a.76.76,0,0,1-.23.58.8.8,0,0,1-1.14,0,.8.8,0,0,1-.23-.58v-1.15h.32a1.17,1.17,0,0,1-.23.65,3.09,3.09,0,0,1-.63.7,3.47,3.47,0,0,1-.94.55,3.29,3.29,0,0,1-1.17.22,3.58,3.58,0,0,1-2-.57,4,4,0,0,1-1.4-1.55,5.28,5.28,0,0,1,0-4.53,3.87,3.87,0,0,1,1.39-1.55,3.64,3.64,0,0,1,3.2-.35,3.7,3.7,0,0,1,1,.58,2.92,2.92,0,0,1,.68.74,1.37,1.37,0,0,1,.25.75l-.5,0v-4.75a.8.8,0,0,1,.23-.58A.74.74,0,0,1,76.53,234.88ZM73.27,245.4a2.27,2.27,0,0,0,1.32-.38,2.66,2.66,0,0,0,.89-1,3.63,3.63,0,0,0,0-3,2.73,2.73,0,0,0-.89-1A2.47,2.47,0,0,0,72,240a2.67,2.67,0,0,0-.9,1,3.63,3.63,0,0,0,0,3,2.61,2.61,0,0,0,.9,1A2.26,2.26,0,0,0,73.27,245.4Z"/><path class="cls-2" d="M80.65,237.18A1.11,1.11,0,0,1,80,237a.68.68,0,0,1-.2-.57v-.25a.63.63,0,0,1,.22-.56,1.12,1.12,0,0,1,.67-.16,1.06,1.06,0,0,1,.69.17.65.65,0,0,1,.21.55v.25a.67.67,0,0,1-.22.58A1.13,1.13,0,0,1,80.65,237.18Zm.81,8.72a.79.79,0,0,1-.22.58.75.75,0,0,1-.58.24.78.78,0,0,1-.57-.24.8.8,0,0,1-.23-.58v-6.85a.8.8,0,0,1,.23-.58.77.77,0,0,1,.57-.23.75.75,0,0,1,.58.23.79.79,0,0,1,.22.58Z"/><path class="cls-2" d="M90.85,234.88a.77.77,0,0,1,.8.81V245.9a.76.76,0,0,1-.23.58.8.8,0,0,1-1.14,0,.8.8,0,0,1-.23-.58v-1.15h.32a1.17,1.17,0,0,1-.23.65,3.09,3.09,0,0,1-.63.7,3.47,3.47,0,0,1-.94.55,3.29,3.29,0,0,1-1.17.22,3.58,3.58,0,0,1-2-.57,4,4,0,0,1-1.4-1.55,5.28,5.28,0,0,1,0-4.53,3.93,3.93,0,0,1,1.38-1.55,3.66,3.66,0,0,1,3.21-.35,3.7,3.7,0,0,1,1,.58,2.92,2.92,0,0,1,.68.74,1.37,1.37,0,0,1,.25.75l-.5,0v-4.75a.8.8,0,0,1,.23-.58A.74.74,0,0,1,90.85,234.88ZM87.59,245.4a2.27,2.27,0,0,0,1.32-.38,2.66,2.66,0,0,0,.89-1,3.63,3.63,0,0,0,0-3,2.73,2.73,0,0,0-.89-1,2.47,2.47,0,0,0-2.63,0,2.6,2.6,0,0,0-.9,1,3.63,3.63,0,0,0,0,3,2.53,2.53,0,0,0,.9,1A2.26,2.26,0,0,0,87.59,245.4Z"/><path class="cls-2" d="M101.11,238.17a.81.81,0,0,1,.57.23.82.82,0,0,1,.23.59v6.91a.8.8,0,0,1-.23.58.78.78,0,0,1-.57.24.75.75,0,0,1-.58-.24.79.79,0,0,1-.22-.58v-1.15l.32.05a1.25,1.25,0,0,1-.23.64,3.58,3.58,0,0,1-.63.68,3.8,3.8,0,0,1-1,.54,3.2,3.2,0,0,1-1.17.22,3.58,3.58,0,0,1-2-.57,4,4,0,0,1-1.39-1.56,5.31,5.31,0,0,1,0-4.54,4,4,0,0,1,1.38-1.54,3.47,3.47,0,0,1,2-.56,3.53,3.53,0,0,1,1.27.22,3.43,3.43,0,0,1,1,.58,2.92,2.92,0,0,1,.68.74,1.43,1.43,0,0,1,.24.75l-.5,0V239a.81.81,0,0,1,.22-.58A.75.75,0,0,1,101.11,238.17Zm-3.26,7.23a2.27,2.27,0,0,0,1.32-.38,2.6,2.6,0,0,0,.88-1.05,3.25,3.25,0,0,0,.32-1.48,3.29,3.29,0,0,0-.32-1.49,2.71,2.71,0,0,0-.88-1,2.35,2.35,0,0,0-1.32-.38,2.4,2.4,0,0,0-1.32.38,2.65,2.65,0,0,0-.89,1,3.29,3.29,0,0,0-.32,1.49,3.25,3.25,0,0,0,.32,1.48,2.55,2.55,0,0,0,.89,1.05A2.23,2.23,0,0,0,97.85,245.4Z"/><path class="cls-2" d="M104.42,238.4h3.76a.72.72,0,0,1,.75.75.69.69,0,0,1-.21.51.75.75,0,0,1-.54.21h-3.76a.74.74,0,0,1-.53-1.27A.72.72,0,0,1,104.42,238.4Zm1.68-2.08a.75.75,0,0,1,.58.23.79.79,0,0,1,.22.58v7.43a.9.9,0,0,0,.1.46.47.47,0,0,0,.26.24,1,1,0,0,0,.35.06.78.78,0,0,0,.31-.06.81.81,0,0,1,.33-.06.47.47,0,0,1,.35.17.73.73,0,0,1,.16.48.71.71,0,0,1-.42.63,1.75,1.75,0,0,1-.89.24,5.27,5.27,0,0,1-.64-.05,1.92,1.92,0,0,1-.72-.24,1.42,1.42,0,0,1-.56-.62,2.56,2.56,0,0,1-.23-1.19v-7.49a.8.8,0,0,1,.23-.58A.77.77,0,0,1,106.1,236.32Z"/><path class="cls-2" d="M114.87,246.88a4.61,4.61,0,0,1-2.3-.56,3.83,3.83,0,0,1-1.52-1.52,4.54,4.54,0,0,1-.53-2.21,4.8,4.8,0,0,1,.57-2.41,4,4,0,0,1,1.48-1.54,3.89,3.89,0,0,1,2-.53,3.64,3.64,0,0,1,1.48.31,4.1,4.1,0,0,1,2.12,2.16,4.34,4.34,0,0,1,.33,1.62.71.71,0,0,1-.25.53.83.83,0,0,1-.56.21h-6.21l-.38-1.36h6l-.3.29v-.4a1.76,1.76,0,0,0-.39-1,2.26,2.26,0,0,0-.82-.65,2.31,2.31,0,0,0-1-.23,2.92,2.92,0,0,0-.93.15,1.88,1.88,0,0,0-.78.49,2.41,2.41,0,0,0-.55.88,3.91,3.91,0,0,0-.21,1.37,3.16,3.16,0,0,0,.37,1.54,2.66,2.66,0,0,0,2.39,1.37,3.3,3.3,0,0,0,1-.12,2.37,2.37,0,0,0,.64-.29,4.54,4.54,0,0,0,.44-.34,1,1,0,0,1,.48-.14.59.59,0,0,1,.48.2.65.65,0,0,1,.2.47.81.81,0,0,1-.36.64,3.8,3.8,0,0,1-1.19.74A4.14,4.14,0,0,1,114.87,246.88Z"/><path class="cls-2" d="M120.09,245.4a.83.83,0,0,1-.13-.52.65.65,0,0,1,.33-.5.7.7,0,0,1,.48-.12.81.81,0,0,1,.47.25,3.52,3.52,0,0,0,1,.78,2.87,2.87,0,0,0,1.33.29,3.76,3.76,0,0,0,.66-.1,1.38,1.38,0,0,0,.58-.32.92.92,0,0,0,.24-.68.84.84,0,0,0-.26-.64,2,2,0,0,0-.67-.4c-.28-.1-.58-.19-.9-.28s-.68-.2-1-.32a3.89,3.89,0,0,1-.94-.45,2.38,2.38,0,0,1-.68-.73,2.21,2.21,0,0,1-.26-1.1,2,2,0,0,1,.42-1.3,2.87,2.87,0,0,1,1.11-.85,3.59,3.59,0,0,1,1.48-.3,4.22,4.22,0,0,1,1,.12,4.17,4.17,0,0,1,1,.37,2.85,2.85,0,0,1,.83.68.91.91,0,0,1,.18.49.57.57,0,0,1-.26.51.71.71,0,0,1-.91,0,2.27,2.27,0,0,0-.79-.6,2.68,2.68,0,0,0-1.09-.21,2.37,2.37,0,0,0-.63.08,1.22,1.22,0,0,0-.55.32.87.87,0,0,0-.22.65.8.8,0,0,0,.26.64,2,2,0,0,0,.7.4,8.76,8.76,0,0,0,.94.29c.33.09.66.19,1,.3a3.5,3.5,0,0,1,.88.46,2.22,2.22,0,0,1,.64.72,2.17,2.17,0,0,1,.25,1.11,2.07,2.07,0,0,1-.45,1.34,2.9,2.9,0,0,1-1.16.84,3.8,3.8,0,0,1-1.46.29,5.31,5.31,0,0,1-1.82-.33A3.28,3.28,0,0,1,120.09,245.4Z"/><path class="cls-2" d="M140.31,238.17a.81.81,0,0,1,.57.23.82.82,0,0,1,.23.59v6.91a.8.8,0,0,1-.23.58.78.78,0,0,1-.57.24.75.75,0,0,1-.58-.24.79.79,0,0,1-.22-.58v-1.15l.32.05a1.25,1.25,0,0,1-.23.64,3.58,3.58,0,0,1-.63.68,3.8,3.8,0,0,1-.95.54,3.2,3.2,0,0,1-1.17.22,3.58,3.58,0,0,1-2-.57,4,4,0,0,1-1.39-1.56,5.31,5.31,0,0,1,0-4.54,4,4,0,0,1,1.38-1.54,3.47,3.47,0,0,1,1.95-.56,3.53,3.53,0,0,1,1.27.22,3.43,3.43,0,0,1,1,.58,2.92,2.92,0,0,1,.68.74,1.43,1.43,0,0,1,.24.75l-.5,0V239a.81.81,0,0,1,.22-.58A.75.75,0,0,1,140.31,238.17Zm-3.26,7.23a2.22,2.22,0,0,0,1.31-.38,2.55,2.55,0,0,0,.89-1.05,3.25,3.25,0,0,0,.32-1.48,3.29,3.29,0,0,0-.32-1.49,2.65,2.65,0,0,0-.89-1,2.29,2.29,0,0,0-1.31-.38,2.37,2.37,0,0,0-1.32.38,2.65,2.65,0,0,0-.89,1,3.29,3.29,0,0,0-.32,1.49,3.25,3.25,0,0,0,.32,1.48,2.55,2.55,0,0,0,.89,1.05A2.23,2.23,0,0,0,137.05,245.4Z"/><path class="cls-2" d="M143.62,238.4h3.76a.76.76,0,0,1,.54.21.75.75,0,0,1,.21.54.69.69,0,0,1-.21.51.76.76,0,0,1-.54.21h-3.76a.74.74,0,0,1-.53-1.27A.72.72,0,0,1,143.62,238.4Zm1.68-2.08a.75.75,0,0,1,.58.23.79.79,0,0,1,.22.58v7.43a.9.9,0,0,0,.1.46.47.47,0,0,0,.26.24,1,1,0,0,0,.35.06.78.78,0,0,0,.31-.06.81.81,0,0,1,.33-.06.47.47,0,0,1,.35.17.73.73,0,0,1,.16.48.71.71,0,0,1-.42.63,1.75,1.75,0,0,1-.89.24,5.27,5.27,0,0,1-.64-.05,1.92,1.92,0,0,1-.72-.24,1.42,1.42,0,0,1-.56-.62,2.56,2.56,0,0,1-.23-1.19v-7.49a.8.8,0,0,1,.23-.58A.77.77,0,0,1,145.3,236.32Z"/><path class="cls-2" d="M150.2,238.4H154a.72.72,0,0,1,.53.21.72.72,0,0,1,.22.54.67.67,0,0,1-.22.51.72.72,0,0,1-.53.21H150.2a.73.73,0,0,1-.75-.74.72.72,0,0,1,.21-.53A.74.74,0,0,1,150.2,238.4Zm1.68-2.08a.74.74,0,0,1,.57.23.8.8,0,0,1,.23.58v7.43a1,1,0,0,0,.09.46.48.48,0,0,0,.27.24,1,1,0,0,0,.34.06.75.75,0,0,0,.31-.06.81.81,0,0,1,.33-.06.44.44,0,0,1,.35.17.68.68,0,0,1,.16.48.72.72,0,0,1-.41.63,1.78,1.78,0,0,1-.9.24,5.58,5.58,0,0,1-.64-.05,1.93,1.93,0,0,1-.71-.24,1.5,1.5,0,0,1-.57-.62,2.58,2.58,0,0,1-.22-1.19v-7.49a.76.76,0,0,1,.23-.58A.74.74,0,0,1,151.88,236.32Z"/><path class="cls-2" d="M160.65,246.88a4.58,4.58,0,0,1-2.3-.56,3.77,3.77,0,0,1-1.52-1.52,4.44,4.44,0,0,1-.54-2.21,4.8,4.8,0,0,1,.57-2.41,4.09,4.09,0,0,1,1.49-1.54,3.85,3.85,0,0,1,1.94-.53,3.57,3.57,0,0,1,1.48.31,4.09,4.09,0,0,1,1.26.86,4.28,4.28,0,0,1,1.2,2.92.72.72,0,0,1-.26.53.81.81,0,0,1-.56.21H157.2l-.38-1.36h6l-.31.29v-.4a1.83,1.83,0,0,0-.38-1,2.21,2.21,0,0,0-.83-.65,2.25,2.25,0,0,0-1-.23,2.92,2.92,0,0,0-.93.15,2,2,0,0,0-.78.49,2.53,2.53,0,0,0-.54.88,3.91,3.91,0,0,0-.21,1.37,3.05,3.05,0,0,0,.37,1.54,2.6,2.6,0,0,0,1,1,2.74,2.74,0,0,0,1.39.36,3.3,3.3,0,0,0,1-.12,2.24,2.24,0,0,0,.64-.29c.17-.12.32-.23.45-.34a1,1,0,0,1,.48-.14.62.62,0,0,1,.48.2.64.64,0,0,1,.19.47.82.82,0,0,1-.35.64,4.05,4.05,0,0,1-1.19.74A4.14,4.14,0,0,1,160.65,246.88Z"/><path class="cls-2" d="M170.58,238.16a2.58,2.58,0,0,1,1.82.58,2.83,2.83,0,0,1,.85,1.58l-.25-.08.11-.26a3.29,3.29,0,0,1,.63-.84,3.42,3.42,0,0,1,1-.7,2.83,2.83,0,0,1,1.26-.28,2.68,2.68,0,0,1,1.71.47,2.39,2.39,0,0,1,.85,1.26,6.11,6.11,0,0,1,.24,1.77v4.24a.79.79,0,0,1-.22.58.75.75,0,0,1-.58.24.78.78,0,0,1-.57-.24.8.8,0,0,1-.23-.58v-4.22a3.33,3.33,0,0,0-.15-1,1.43,1.43,0,0,0-.53-.74,1.66,1.66,0,0,0-1-.28,2.13,2.13,0,0,0-1.11.28,2,2,0,0,0-1,1.77v4.22a.79.79,0,0,1-.22.58.81.81,0,0,1-1.15,0,.8.8,0,0,1-.23-.58v-4.24a3.31,3.31,0,0,0-.15-1,1.42,1.42,0,0,0-.52-.74,1.67,1.67,0,0,0-1-.27,2.23,2.23,0,0,0-1.11.27,2,2,0,0,0-.74.74,2,2,0,0,0-.26,1v4.24a.77.77,0,0,1-.24.58.74.74,0,0,1-.56.24.75.75,0,0,1-.58-.24.79.79,0,0,1-.22-.58v-6.78a.82.82,0,0,1,.22-.59.78.78,0,0,1,.58-.23.77.77,0,0,1,.56.23.79.79,0,0,1,.24.59v.94l-.31.18a2.74,2.74,0,0,1,.37-.72,3.2,3.2,0,0,1,.65-.68,3.69,3.69,0,0,1,.87-.49A2.75,2.75,0,0,1,170.58,238.16Z"/><path class="cls-2" d="M185.7,238.16a3.53,3.53,0,0,1,2,.56,4,4,0,0,1,1.39,1.52,4.78,4.78,0,0,1,.51,2.25,4.87,4.87,0,0,1-.51,2.27,4,4,0,0,1-1.38,1.54,3.55,3.55,0,0,1-1.95.56,3.49,3.49,0,0,1-2.11-.7,3.06,3.06,0,0,1-.68-.66,1.57,1.57,0,0,1-.33-.66l.43-.2v4.46a.8.8,0,0,1-.23.58.76.76,0,0,1-.57.24.73.73,0,0,1-.57-.24.76.76,0,0,1-.23-.58v-10a.77.77,0,0,1,.23-.57.73.73,0,0,1,.57-.24.76.76,0,0,1,.57.24.81.81,0,0,1,.23.57v1.11l-.26-.15a1.53,1.53,0,0,1,.31-.63,2.94,2.94,0,0,1,.65-.61,3.28,3.28,0,0,1,.89-.47A3.12,3.12,0,0,1,185.7,238.16Zm-.17,1.47a2.36,2.36,0,0,0-1.34.37,2.52,2.52,0,0,0-.89,1,3.31,3.31,0,0,0-.32,1.47,3.38,3.38,0,0,0,.32,1.48,2.46,2.46,0,0,0,.89,1,2.37,2.37,0,0,0,1.34.38,2.32,2.32,0,0,0,1.31-.38,2.51,2.51,0,0,0,.88-1,3.25,3.25,0,0,0,.33-1.48,3.17,3.17,0,0,0-.33-1.46,2.61,2.61,0,0,0-.88-1A2.31,2.31,0,0,0,185.53,239.63Z"/><path class="cls-2" d="M191.6,238.4h3.76a.73.73,0,0,1,.54.21.76.76,0,0,1,.22.54.7.7,0,0,1-.22.51.73.73,0,0,1-.54.21H191.6a.74.74,0,0,1-.53-1.27A.72.72,0,0,1,191.6,238.4Zm1.68-2.08a.75.75,0,0,1,.58.23.79.79,0,0,1,.22.58v7.43a1,1,0,0,0,.1.46.46.46,0,0,0,.27.24,1,1,0,0,0,.34.06.75.75,0,0,0,.31-.06.81.81,0,0,1,.33-.06.45.45,0,0,1,.35.17.68.68,0,0,1,.16.48.72.72,0,0,1-.41.63,1.78,1.78,0,0,1-.9.24,5.42,5.42,0,0,1-.64-.05,1.87,1.87,0,0,1-.71-.24,1.5,1.5,0,0,1-.57-.62,2.58,2.58,0,0,1-.22-1.19v-7.49a.76.76,0,0,1,.23-.58A.73.73,0,0,1,193.28,236.32Z"/></g><g class="cls-1"><path class="cls-2" d="M56.5,266.88a4.57,4.57,0,0,1-2.29-.56,3.71,3.71,0,0,1-1.52-1.52,4.44,4.44,0,0,1-.54-2.21,4.8,4.8,0,0,1,.57-2.41,4,4,0,0,1,1.49-1.54,3.85,3.85,0,0,1,1.94-.53,3.64,3.64,0,0,1,1.48.31,4.34,4.34,0,0,1,1.26.86,4.15,4.15,0,0,1,.86,1.3,4.55,4.55,0,0,1,.34,1.62.75.75,0,0,1-.26.53.83.83,0,0,1-.56.21H53.06l-.38-1.36h6l-.3.29v-.4a1.83,1.83,0,0,0-.38-1,2.39,2.39,0,0,0-1.86-.88,2.92,2.92,0,0,0-.93.15,1.88,1.88,0,0,0-.78.49,2.41,2.41,0,0,0-.55.88,4.17,4.17,0,0,0-.2,1.37,3.16,3.16,0,0,0,.36,1.54,2.69,2.69,0,0,0,2.39,1.37,3.3,3.3,0,0,0,1-.12A2.37,2.37,0,0,0,58,265c.17-.12.32-.23.45-.34a1,1,0,0,1,.48-.14.62.62,0,0,1,.48.2.68.68,0,0,1,.19.47.82.82,0,0,1-.35.64,4,4,0,0,1-1.2.74A4.07,4.07,0,0,1,56.5,266.88Z"/><path class="cls-2" d="M62.21,258.25a.78.78,0,0,1,.66.34l5.46,6.88a.76.76,0,0,1,.17.48.75.75,0,0,1-.25.56.83.83,0,0,1-.56.24.81.81,0,0,1-.66-.34l-5.46-6.88a.76.76,0,0,1-.17-.48.75.75,0,0,1,.25-.57A.8.8,0,0,1,62.21,258.25Zm0,8.5a.83.83,0,0,1-.53-.21.63.63,0,0,1-.25-.51.75.75,0,0,1,.19-.5l2.54-3.15.82,1.31-2.13,2.72A.76.76,0,0,1,62.23,266.75Zm5.44-8.5a.72.72,0,0,1,.55.22.66.66,0,0,1,.22.5,1.26,1.26,0,0,1,0,.27.61.61,0,0,1-.15.24l-2.52,3.16-.83-1.19L67,258.62A.77.77,0,0,1,67.67,258.25Z"/><path class="cls-2" d="M77.19,258.17a.81.81,0,0,1,.57.23A.82.82,0,0,1,78,259v6.91a.8.8,0,0,1-.23.58.78.78,0,0,1-.57.24.75.75,0,0,1-.58-.24.79.79,0,0,1-.22-.58v-1.15l.32.05a1.25,1.25,0,0,1-.23.64,3.58,3.58,0,0,1-.63.68,3.8,3.8,0,0,1-.95.54,3.2,3.2,0,0,1-1.17.22,3.58,3.58,0,0,1-2-.57,4,4,0,0,1-1.39-1.56,5.31,5.31,0,0,1,0-4.54,4,4,0,0,1,1.38-1.54,3.47,3.47,0,0,1,2-.56,3.53,3.53,0,0,1,1.27.22,3.43,3.43,0,0,1,1,.58,2.92,2.92,0,0,1,.68.74,1.43,1.43,0,0,1,.24.75l-.5,0V259a.81.81,0,0,1,.22-.58A.75.75,0,0,1,77.19,258.17Zm-3.26,7.23a2.27,2.27,0,0,0,1.32-.38,2.6,2.6,0,0,0,.88-1,3.25,3.25,0,0,0,.32-1.48,3.29,3.29,0,0,0-.32-1.49,2.71,2.71,0,0,0-.88-1,2.48,2.48,0,0,0-2.64,0,2.65,2.65,0,0,0-.89,1,3.29,3.29,0,0,0-.32,1.49,3.25,3.25,0,0,0,.32,1.48,2.55,2.55,0,0,0,.89,1A2.23,2.23,0,0,0,73.93,265.4Z"/><path class="cls-2" d="M84.84,258.16a2.58,2.58,0,0,1,1.82.58,2.83,2.83,0,0,1,.85,1.58l-.26-.08.12-.26a2.88,2.88,0,0,1,.63-.84,3.5,3.5,0,0,1,1-.7,2.91,2.91,0,0,1,1.27-.28,2.72,2.72,0,0,1,1.71.47,2.39,2.39,0,0,1,.85,1.26,6.11,6.11,0,0,1,.24,1.77v4.24a.8.8,0,0,1-.23.58.8.8,0,0,1-1.14,0,.76.76,0,0,1-.23-.58v-4.22a3.33,3.33,0,0,0-.15-1,1.49,1.49,0,0,0-.53-.74,1.68,1.68,0,0,0-1-.28,2.19,2.19,0,0,0-1.12.28,2,2,0,0,0-1,1.77v4.22a.79.79,0,0,1-.22.58.81.81,0,0,1-1.15,0,.8.8,0,0,1-.23-.58v-4.24a3.31,3.31,0,0,0-.15-1,1.48,1.48,0,0,0-.52-.74,1.71,1.71,0,0,0-1-.27,2.23,2.23,0,0,0-1.11.27,1.88,1.88,0,0,0-.74.74,2,2,0,0,0-.27,1v4.24a.76.76,0,0,1-.23.58.8.8,0,0,1-1.14,0,.8.8,0,0,1-.23-.58v-6.78a.82.82,0,0,1,.23-.59.8.8,0,0,1,1.37.59v.94l-.3.18a2.47,2.47,0,0,1,.37-.72,3,3,0,0,1,.65-.68,3.69,3.69,0,0,1,.87-.49A2.71,2.71,0,0,1,84.84,258.16Z"/><path class="cls-2" d="M107.4,258.17a.81.81,0,0,1,.57.23.82.82,0,0,1,.23.59v6.91a.8.8,0,0,1-.23.58.78.78,0,0,1-.57.24.75.75,0,0,1-.58-.24.79.79,0,0,1-.22-.58v-1.15l.32.05a1.25,1.25,0,0,1-.23.64,3.35,3.35,0,0,1-.64.68,3.56,3.56,0,0,1-.94.54,3.2,3.2,0,0,1-1.17.22,3.53,3.53,0,0,1-2-.57,4,4,0,0,1-1.39-1.56,5.21,5.21,0,0,1,0-4.54,4,4,0,0,1,1.38-1.54,3.46,3.46,0,0,1,1.94-.56,3.55,3.55,0,0,1,1.28.22,3.7,3.7,0,0,1,1,.58,2.87,2.87,0,0,1,.67.74,1.43,1.43,0,0,1,.24.75l-.49,0V259a.81.81,0,0,1,.22-.58A.75.75,0,0,1,107.4,258.17Zm-3.27,7.23a2.27,2.27,0,0,0,1.32-.38,2.55,2.55,0,0,0,.89-1,3.38,3.38,0,0,0,.32-1.48,3.43,3.43,0,0,0-.32-1.49,2.65,2.65,0,0,0-.89-1,2.47,2.47,0,0,0-2.63,0,2.65,2.65,0,0,0-.89,1,3.29,3.29,0,0,0-.32,1.49,3.25,3.25,0,0,0,.32,1.48,2.53,2.53,0,0,0,.88,1A2.27,2.27,0,0,0,104.13,265.4Z"/><path class="cls-2" d="M115.16,258.11a2.92,2.92,0,0,1,1.76.47,2.53,2.53,0,0,1,.87,1.26,6.1,6.1,0,0,1,.25,1.77v4.29a.8.8,0,0,1-.23.58.78.78,0,0,1-.57.24.75.75,0,0,1-.58-.24.79.79,0,0,1-.22-.58v-4.27a3.23,3.23,0,0,0-.16-1,1.51,1.51,0,0,0-.55-.74,1.87,1.87,0,0,0-1.1-.28,2.25,2.25,0,0,0-1.15.28,2.13,2.13,0,0,0-.78.74,2,2,0,0,0-.28,1v4.27a.8.8,0,0,1-.23.58.76.76,0,0,1-.57.24.75.75,0,0,1-.57-.24.8.8,0,0,1-.23-.58v-6.78a.82.82,0,0,1,.23-.59.78.78,0,0,1,.57-.23.79.79,0,0,1,.57.23.82.82,0,0,1,.23.59V260l-.29.16a2.44,2.44,0,0,1,.4-.71,3.61,3.61,0,0,1,.68-.67,3.36,3.36,0,0,1,.89-.5A3.06,3.06,0,0,1,115.16,258.11Z"/><path class="cls-2" d="M127.49,254.88a.77.77,0,0,1,.8.81V265.9a.76.76,0,0,1-.23.58.8.8,0,0,1-1.14,0,.8.8,0,0,1-.23-.58v-1.15H127a1.17,1.17,0,0,1-.23.65,3.09,3.09,0,0,1-.63.7,3.47,3.47,0,0,1-.94.55,3.29,3.29,0,0,1-1.17.22,3.58,3.58,0,0,1-2-.57,4,4,0,0,1-1.4-1.55,5.28,5.28,0,0,1,0-4.53,3.87,3.87,0,0,1,1.39-1.55,3.64,3.64,0,0,1,3.2-.35,3.7,3.7,0,0,1,1,.58,2.92,2.92,0,0,1,.68.74,1.37,1.37,0,0,1,.25.75l-.5,0v-4.75a.8.8,0,0,1,.23-.58A.74.74,0,0,1,127.49,254.88Zm-3.26,10.52a2.27,2.27,0,0,0,1.32-.38,2.66,2.66,0,0,0,.89-1,3.63,3.63,0,0,0,0-3,2.73,2.73,0,0,0-.89-1,2.47,2.47,0,0,0-2.63,0,2.67,2.67,0,0,0-.9,1,3.63,3.63,0,0,0,0,3,2.61,2.61,0,0,0,.9,1A2.26,2.26,0,0,0,124.23,265.4Z"/><path class="cls-2" d="M135.27,265.4a.83.83,0,0,1-.13-.52.64.64,0,0,1,.34-.5.67.67,0,0,1,.47-.12.81.81,0,0,1,.47.25,3.52,3.52,0,0,0,1,.78,2.91,2.91,0,0,0,1.34.29,3.8,3.8,0,0,0,.65-.1,1.32,1.32,0,0,0,.58-.32.92.92,0,0,0,.24-.68.84.84,0,0,0-.26-.64,1.89,1.89,0,0,0-.67-.4c-.28-.1-.57-.19-.9-.28s-.68-.2-1-.32a3.82,3.82,0,0,1-.93-.45,2.16,2.16,0,0,1-.68-.73,2.11,2.11,0,0,1-.27-1.1,2,2,0,0,1,.43-1.3,2.84,2.84,0,0,1,1.1-.85,3.63,3.63,0,0,1,1.48-.3,4.3,4.3,0,0,1,1,.12,4.09,4.09,0,0,1,1,.37,2.73,2.73,0,0,1,.83.68.92.92,0,0,1,.19.49.6.6,0,0,1-.27.51.63.63,0,0,1-.46.15.7.7,0,0,1-.45-.18,2.14,2.14,0,0,0-.78-.6,2.72,2.72,0,0,0-1.09-.21,2.32,2.32,0,0,0-.63.08,1.25,1.25,0,0,0-.56.32.87.87,0,0,0-.22.65.84.84,0,0,0,.26.64,2,2,0,0,0,.7.4,9.53,9.53,0,0,0,.94.29l1,.3a3.67,3.67,0,0,1,.88.46,2.34,2.34,0,0,1,.64.72,2.28,2.28,0,0,1,.25,1.11,2.07,2.07,0,0,1-.46,1.34,2.86,2.86,0,0,1-1.15.84,3.85,3.85,0,0,1-1.47.29,5.25,5.25,0,0,1-1.81-.33A3.35,3.35,0,0,1,135.27,265.4Z"/><path class="cls-2" d="M150.09,258.3a.77.77,0,0,1,.56.23.79.79,0,0,1,.24.59v4.2a3.25,3.25,0,0,1-3.56,3.54,3.47,3.47,0,0,1-2.6-.94,3.56,3.56,0,0,1-.92-2.6v-4.2a.82.82,0,0,1,.23-.59.8.8,0,0,1,1.37.59v4.2a2.23,2.23,0,0,0,.49,1.56,1.89,1.89,0,0,0,1.43.51,2,2,0,0,0,1.46-.51,2.18,2.18,0,0,0,.49-1.56v-4.2a.82.82,0,0,1,.23-.59A.78.78,0,0,1,150.09,258.3Z"/><path class="cls-2" d="M157.75,258.11a3.53,3.53,0,0,1,2,.56,4,4,0,0,1,1.38,1.54,5.21,5.21,0,0,1,0,4.54,4.08,4.08,0,0,1-1.37,1.56,3.48,3.48,0,0,1-1.95.57,3.35,3.35,0,0,1-1.15-.2,3.65,3.65,0,0,1-1-.52,3.06,3.06,0,0,1-.68-.66,1.57,1.57,0,0,1-.33-.66l.43-.2V266a.79.79,0,0,1-.8.8.78.78,0,0,1-.58-.23.77.77,0,0,1-.22-.57V255.69a.79.79,0,0,1,.22-.58.75.75,0,0,1,.58-.23.77.77,0,0,1,.57.23.8.8,0,0,1,.23.58v4.5l-.26-.15a1.53,1.53,0,0,1,.31-.63,3.26,3.26,0,0,1,.65-.63,3.46,3.46,0,0,1,.89-.49A3.13,3.13,0,0,1,157.75,258.11Zm-.18,1.47a2.36,2.36,0,0,0-1.33.38,2.58,2.58,0,0,0-.89,1,3.32,3.32,0,0,0-.32,1.48,3.43,3.43,0,0,0,.32,1.49,2.55,2.55,0,0,0,.89,1,2.5,2.5,0,0,0,2.65,0,2.71,2.71,0,0,0,.88-1.06,3.28,3.28,0,0,0,.33-1.48,3.19,3.19,0,0,0-.33-1.48,2.72,2.72,0,0,0-.88-1A2.35,2.35,0,0,0,157.57,259.58Z"/><path class="cls-2" d="M168,258.16a2.58,2.58,0,0,1,1.82.58,2.83,2.83,0,0,1,.85,1.58l-.26-.08.12-.26a3.29,3.29,0,0,1,.63-.84,3.5,3.5,0,0,1,1-.7,2.91,2.91,0,0,1,1.27-.28,2.7,2.7,0,0,1,1.71.47,2.39,2.39,0,0,1,.85,1.26,6.11,6.11,0,0,1,.24,1.77v4.24a.8.8,0,0,1-.23.58.73.73,0,0,1-.57.24.76.76,0,0,1-.57-.24.8.8,0,0,1-.23-.58v-4.22a3.33,3.33,0,0,0-.15-1,1.43,1.43,0,0,0-.53-.74,1.68,1.68,0,0,0-1-.28,2.13,2.13,0,0,0-1.11.28,2,2,0,0,0-.77.74,2,2,0,0,0-.27,1v4.22a.79.79,0,0,1-.22.58.81.81,0,0,1-1.15,0,.8.8,0,0,1-.23-.58v-4.24a3.31,3.31,0,0,0-.15-1,1.42,1.42,0,0,0-.52-.74,1.69,1.69,0,0,0-1-.27,2.23,2.23,0,0,0-1.11.27,2,2,0,0,0-.74.74,2,2,0,0,0-.27,1v4.24a.76.76,0,0,1-.23.58.74.74,0,0,1-.56.24.75.75,0,0,1-.58-.24.79.79,0,0,1-.22-.58v-6.78a.82.82,0,0,1,.22-.59.78.78,0,0,1,.58-.23.77.77,0,0,1,.56.23.78.78,0,0,1,.23.59v.94l-.3.18a2.74,2.74,0,0,1,.37-.72,3.2,3.2,0,0,1,.65-.68,3.69,3.69,0,0,1,.87-.49A2.75,2.75,0,0,1,168,258.16Z"/><path class="cls-2" d="M179.56,257.18a1.06,1.06,0,0,1-.67-.17.68.68,0,0,1-.21-.57v-.25a.63.63,0,0,1,.22-.56,1.12,1.12,0,0,1,.67-.16,1.06,1.06,0,0,1,.69.17.65.65,0,0,1,.21.55v.25a.67.67,0,0,1-.22.58A1.13,1.13,0,0,1,179.56,257.18Zm.81,8.72a.79.79,0,0,1-.22.58.75.75,0,0,1-.58.24.78.78,0,0,1-.57-.24.8.8,0,0,1-.23-.58v-6.85a.8.8,0,0,1,.23-.58.77.77,0,0,1,.57-.23.75.75,0,0,1,.58.23.79.79,0,0,1,.22.58Z"/><path class="cls-2" d="M182.82,258.4h3.76a.76.76,0,0,1,.54.21.75.75,0,0,1,.21.54.69.69,0,0,1-.21.51.76.76,0,0,1-.54.21h-3.76a.73.73,0,0,1-.54-.22.76.76,0,0,1,0-1A.76.76,0,0,1,182.82,258.4Zm1.68-2.08a.75.75,0,0,1,.58.23.79.79,0,0,1,.22.58v7.43a.9.9,0,0,0,.1.46.47.47,0,0,0,.26.24,1,1,0,0,0,.34.06.79.79,0,0,0,.32-.06.81.81,0,0,1,.33-.06.47.47,0,0,1,.35.17.73.73,0,0,1,.16.48.71.71,0,0,1-.42.63,1.78,1.78,0,0,1-.89.24,5.57,5.57,0,0,1-.65-.05,1.93,1.93,0,0,1-.71-.24,1.5,1.5,0,0,1-.57-.62,2.71,2.71,0,0,1-.22-1.19v-7.49a.8.8,0,0,1,.23-.58A.77.77,0,0,1,184.5,256.32Z"/></g></g><g id="Illustration_4" data-name="Illustration 4"><path id="Path_1134" data-name="Path 1134" class="cls-3" d="M86.51,119l-4,71.81,4,0,3.28-72.86Z"/><rect id="Rectangle_793" data-name="Rectangle 793" class="cls-4" x="34.54" y="158.15" width="49.91" height="10.84"/><path id="Path_1135" data-name="Path 1135" class="cls-3" d="M87.73,167.25v6.82H36.14c-1.82-1.3-3.61-2.69-5.4-4.06v-2.76Z"/><path id="Path_1136" data-name="Path 1136" class="cls-5" d="M98,149.41c-.15.67-.33,1.3-.52,1.94A25.32,25.32,0,0,0,96.11,157c-.18,2.57.53,5.51-1.26,7.37-.45.48-1,.82-1.45,1.34a1.57,1.57,0,0,0-.19.26,3.8,3.8,0,0,0-.41,2,35.22,35.22,0,0,0,.3,4.36c.6,5,1.79,10,.22,14.71-.3.82-.6,1.6-1,2.39a20,20,0,0,0-1.82,5.1,39.25,39.25,0,0,0-.15,4.06L88,197.8c-4.81-1.6-9.54-3.36-14.23-5.29,0-.08,0-.15,0-.23a15.9,15.9,0,0,0-.74-6.74c-1.27-4.62-3-9.24-4.1-13.89a34.73,34.73,0,0,1-.82-5.55c0-.41,0-.86,0-1.27,0-.56,0-1.11,0-1.64,0-1.11.11-2.42-.78-3.09a5.26,5.26,0,0,0-1.71-.63,10.16,10.16,0,0,1-2.72-2.2,3.56,3.56,0,0,0-3.17-.93c-5.66,1.3-9.83,6.11-15.12,8.53a3.58,3.58,0,0,1-.64.26,9.81,9.81,0,0,0-1.93,1,2.23,2.23,0,0,0-.86,1.23,4.75,4.75,0,0,0,0,1.64,8.31,8.31,0,0,1-.11,2.68,8.85,8.85,0,0,1-.27,1c-.18.6-3.46,15.31-4.76,14.38-1.83-1.3-18.33-3.13-22.35-7.45.52-1.53,4.13-27.79,4.5-29.35.23-.9.3-1.83.6-2.69a10.53,10.53,0,0,1,1.38-2.5A34.09,34.09,0,0,1,28,137.34c3.13-2.24,6.74-4,9.54-6.6a14.39,14.39,0,0,0,2.9-3.46,1.35,1.35,0,0,0,.15-.26,4.7,4.7,0,0,0,.45-1.45c.18-1.12.18-2.39.26-3.47a35.92,35.92,0,0,0,10.35.3c4-.45,8-1.56,12-2a7.28,7.28,0,0,1,.93-.07c1.3-.12,2.57-.12,3.87-.12,1.08,0,2.16,0,3.24.08l11.92.41a11.5,11.5,0,0,1,3.91.6,8.65,8.65,0,0,1,3.58,3c.11.15.22.33.34.48a15.17,15.17,0,0,1,1.82,3.62c0,.14.11.26.15.41.11.33.22.7.3,1s.11.56.19.86a31.25,31.25,0,0,0,.89,4.17c0,.11.07.18.11.3.52,1.49,1.42,2.79,2,4.21a13.87,13.87,0,0,1,1.08,3.2A16.31,16.31,0,0,1,98,149.41Z"/><path id="Path_1137" data-name="Path 1137" class="cls-6" d="M61.85,71c-1.08-.86-2.61-.22-3.84.34a26,26,0,0,1-3.2,1.15,1.43,1.43,0,0,1-.71.07c-.52-.11-.71-.7-1.08-1.08a2.43,2.43,0,0,0-2.57-.14,6.1,6.1,0,0,1-2.57.74c-1-.07-1.79-.78-2.76-.82-1.71,0-3.16,2.09-4.76,1.53-1-.34-1.75-1.64-2.76-1.27-.74.3-.82,1.34-1.27,2s-1.6,1-2.5,1.38a7.11,7.11,0,0,0-4.32,7.26A24.79,24.79,0,0,0,31,86.91c1.56,4.62,1,9.8,3,14.27.26-.23.41-.34.63-.56a5.74,5.74,0,0,0-.33,4.17c.22.71.55,1.34.81,2a17.36,17.36,0,0,1,.64,2.35l2.2,9.68a63.33,63.33,0,0,1,1.86,11.44,36.44,36.44,0,0,1-.56,7.52c4-.67,7.6-2.42,11.62-2.38a34,34,0,0,1,4.4.44,86.87,86.87,0,0,0,12.89.86,5.69,5.69,0,0,0,2-.26,12,12,0,0,0,1.53-1,7,7,0,0,1,3.47-.74c5.4-.11,10.57,1.86,15.94,2.57a19.35,19.35,0,0,0,.63-14.42,21,21,0,0,1-1.3-4.17,20,20,0,0,1-.07-2.68,18.93,18.93,0,0,0-1.23-6.7,7.92,7.92,0,0,1-.67-2.61,5.74,5.74,0,0,1,.89-2.53,23.4,23.4,0,0,1,3-4.62,22.59,22.59,0,0,1,4.43-3.54l3.87-2.61a37.92,37.92,0,0,0-2.64-10,17.76,17.76,0,0,0-6.44-7.75,20.75,20.75,0,0,0-3.06-1.52A14.31,14.31,0,0,0,83.94,73a24,24,0,0,0-5.4.67C73,74.66,66.32,74.55,61.85,71Z"/><path id="Path_1138" data-name="Path 1138" class="cls-3" d="M104.38,123.07l-1.86,2.34-3.5,4.4-4,5.1-1.12,1.42h-2.2l-54.12.07-33.9,0H2.14l-.56-1.9c-.26-.93-.49-1.9-.67-2.83l-.12-.56,12.3-8.05,4.62,0h0L31.86,123h0l7.9,0h2.35l5.25,0h0l40.15-.26h5.28l8.8,0,1.67-.63.11.15Z"/><path id="Path_1139" data-name="Path 1139" class="cls-7" d="M103.6,122.32l-.22.26L102,124.22l-2.83,3.35-6,7-52.6-1.34-39.7-1-.12-.56A49.19,49.19,0,0,1,0,121.83l4.4-2.27,1-.52,7.86-4,6.89-3.54,17.95,2.34,4,.53,1.79.22,2.64.33.22,0,41.31,5.36,4.59.6,2.68.34,8.27,1.08Z"/><path id="Path_1140" data-name="Path 1140" class="cls-3" d="M83.21,128.33l0,1-.26,5.59-1.34,30.76-.3,6.67-.75,17.1-.41,9.65-1.53-.49-2.38-.78,3.69-67.08.07-1.42,1.64-.52Z"/><path id="Path_1141" data-name="Path 1141" class="cls-3" d="M6.79,124.31l-.11,2.9-.19,4.21c-.52-1.34-1-2.68-1.49-4.1l0-.15c-.23-.71-.45-1.41-.64-2.12Z"/><ellipse id="Ellipse_96" data-name="Ellipse 96" class="cls-8" cx="61.34" cy="86.32" rx="11.58" ry="15.64"/><ellipse id="Ellipse_97" data-name="Ellipse 97" class="cls-9" cx="61.34" cy="86.32" rx="11.58" ry="15.64"/><circle id="Ellipse_98" data-name="Ellipse 98" class="cls-10" cx="63.06" cy="76.86" r="16.13"/><path id="Path_1142" data-name="Path 1142" class="cls-11" d="M63.29,52a20.88,20.88,0,0,0-2.94.45,23.67,23.67,0,0,0-6.89,3.35,8.36,8.36,0,0,0-2.57,2.12c-1.08,1.6-.67,3.65-1.27,5.4a12.47,12.47,0,0,1-1.38,2.57,30.18,30.18,0,0,0-2.72,7.42c-.15.52-.18,1.22.37,1.45a1.47,1.47,0,0,0,1-.11c1.83-.6,4.1-.79,5.44.44s1.23,3.36,2.83,4.29c1.83,1.08,4.69-.23,6.33,1,.71.52,1,1.42,1.57,2,1.34,1.53,4,1.45,6.14,1.12,1.23-.19,2.76-.3,3.54.6.37.41.49,1,.9,1.34a2.28,2.28,0,0,0,2.86-.38,20.75,20.75,0,0,0,1.72-2.42c1.19-1.52,3.31-2.34,4.54-3.83a9.29,9.29,0,0,0,1.64-4.36l1-5.66c.41-2.28.82-4.81-.48-6.82-.45-.71-1.12-1.34-1.53-2.09-.26-.52-.41-1-.71-1.52a5.73,5.73,0,0,0-1.3-1.3l-2.5-2a19,19,0,0,0-2.71-2C72.64,51.08,67.32,51.6,63.29,52Z"/><path id="Path_1143" data-name="Path 1143" class="cls-8" d="M18.52,89.69c-.6.63-1.15,1.3-1.79,1.9S15.58,92.56,15,93c-1,.74-1.93,1.49-2.9,2.31A17.88,17.88,0,0,0,9.43,98c-1.34,1.83-2,4.06-3.24,5.92-1.11,1.64-2.68,3-3.8,4.62a7.65,7.65,0,0,0-1.08,2.27,10.42,10.42,0,0,0-.22,2.43,17.67,17.67,0,0,0,.22,4,5.84,5.84,0,0,0,1.9,3.43,8.32,8.32,0,0,0,3.39,1.45,2.89,2.89,0,0,0,1.86,0,2.64,2.64,0,0,0,1.08-.93l3.06-3.54c2.05-2.39,4.17-4.81,7-6.18.89-.45,1.82-.75,2.68-1.2a14.6,14.6,0,0,0,7.45-9.53c.26-1,.41-2,.6-3L30.78,95a.72.72,0,0,0,0-.41.86.86,0,0,0-.34-.37,53.5,53.5,0,0,1-6-5.66A16.59,16.59,0,0,0,23.1,87c-.63-.52-.6-.48-1.34,0A15.65,15.65,0,0,0,18.52,89.69Z"/><path id="Path_1144" data-name="Path 1144" class="cls-3" d="M39.5,106.88a.49.49,0,0,0-.64-.26.49.49,0,0,0-.26.63v0l-.26.11,7.53,15.42,1.34-.67-7.53-15.42Z"/><path id="Path_1145" data-name="Path 1145" class="cls-10" d="M18.52,89.69c-.6.63-1.15,1.3-1.79,1.9S15.58,92.56,15,93c-1,.74-1.93,1.49-2.9,2.31A17.88,17.88,0,0,0,9.43,98c-1.34,1.83-2,4.06-3.24,5.92-1.11,1.64-2.68,3-3.8,4.62a7.65,7.65,0,0,0-1.08,2.27,10.42,10.42,0,0,0-.22,2.43,17.67,17.67,0,0,0,.22,4,5.84,5.84,0,0,0,1.9,3.43,8.32,8.32,0,0,0,3.39,1.45,2.89,2.89,0,0,0,1.86,0,2.64,2.64,0,0,0,1.08-.93l3.06-3.54c2.05-2.39,4.17-4.81,7-6.18.89-.45,1.82-.75,2.68-1.2a14.6,14.6,0,0,0,7.45-9.53c.26-1,.41-2,.6-3L30.78,95a.72.72,0,0,0,0-.41.86.86,0,0,0-.34-.37,53.5,53.5,0,0,1-6-5.66A16.59,16.59,0,0,0,23.1,87c-.63-.52-.6-.48-1.34,0A15.65,15.65,0,0,0,18.52,89.69Z"/><path id="Path_1146" data-name="Path 1146" class="cls-10" d="M93.2,117.5a11.92,11.92,0,0,1-.75,4.73A2.49,2.49,0,0,1,91,123.68a2.7,2.7,0,0,1-1.23,0,44.66,44.66,0,0,0-14.75,1.15c1.3-2.57.56-5.66.89-8.49.11-.78.26-1.53.34-2.31.26-2.75-.94-5.47-1.49-8.19a17.77,17.77,0,0,1,0-7.19A4,4,0,0,1,75.43,97a4,4,0,0,1,1.41-1.23,11.92,11.92,0,0,1,6.75-1.16c1.52.11,4.65,0,5.92.9s1.86,4.54,2.23,6.14a51.69,51.69,0,0,1,1.16,7.53A72.49,72.49,0,0,1,93.2,117.5Z"/><path id="Path_1147" data-name="Path 1147" class="cls-2" d="M15.1,121.69l9.09,6,40.86-1.49-27-4.54Z"/><path id="Path_1148" data-name="Path 1148" class="cls-6" d="M27.09,76.92c-1.49,1.3-2.76,2.87-4.17,4.25a57.29,57.29,0,0,1-6.34,5.18,4.72,4.72,0,0,1,3.28,3.31c.11.37.15.75.26,1.12a6.4,6.4,0,0,0,1.42,2.27c2.57,2.87,6.14,5,7.63,8.57a.76.76,0,0,0,.3.44.62.62,0,0,0,.38,0,5.19,5.19,0,0,0,3.27-2.31,23.54,23.54,0,0,0,4.29-7.56,13.51,13.51,0,0,0,.07-8.57,22.36,22.36,0,0,0-2-3.87c-.67-1.08-1.3-2.16-2-3.24-.33-.56-.78-1.75-1.45-2C30.67,73.9,28,76,27.09,76.92Z"/><path id="Path_1149" data-name="Path 1149" class="cls-6" d="M89.42,92.38l2.16,5A15.68,15.68,0,0,0,77.5,99.35a7.84,7.84,0,0,0-2.9,3.39,1.45,1.45,0,0,1-1.45-.56,2.57,2.57,0,0,1-.52-1.53A12.2,12.2,0,0,1,73.89,95a7.17,7.17,0,0,1,1.3-2.38A7.76,7.76,0,0,1,77.39,91a47.48,47.48,0,0,1,8-3.5c1.16-.37,2.39-.37,3,.71C89.05,89.52,88.83,91,89.42,92.38Z"/><path id="Path_1150" data-name="Path 1150" class="cls-8" d="M15.17,105.91c.52.45,1,.93,1.57,1.34a11,11,0,0,0,1.86,1l2.5,1.19a11.77,11.77,0,0,0,2.42,1c1.08.3,2.2.3,3.24.6,1.34.33,2.57,1,3.91,1.41a4.4,4.4,0,0,0,4-.37c.71-.52,1.23-1.38,2.08-1.53a2.81,2.81,0,0,1,1.6.45l6.48,3.39a4.94,4.94,0,0,1,2.24,1.82,1.71,1.71,0,0,1-.62,2.33l-.2.1c-.33,0-.67.06-1,.07s-.7.22-.74.56a1.05,1.05,0,0,0,.15.6,2.5,2.5,0,0,1,0,2.12,1.51,1.51,0,0,1-1.83.75c.11,1-.93,1.67-1.9,1.93-2.38.68-4.92.27-7.34-.14a10.38,10.38,0,0,1-2.79-.75c-.41-.19-.82-.48-1.23-.67a8.43,8.43,0,0,0-3.76-.41c-5.89.11-11.7-1-17.47-2.09a8,8,0,0,1-3.09-1A5.72,5.72,0,0,1,3.14,114a16.82,16.82,0,0,1,2.39-5.81l1.34-2.38a3,3,0,0,1,.71-1C9.51,103.38,13.46,104.53,15.17,105.91Z"/><path id="Path_1151" data-name="Path 1151" class="cls-10" d="M15.17,105.91c.52.45,1,.93,1.57,1.34a11,11,0,0,0,1.86,1l2.5,1.19a11.77,11.77,0,0,0,2.42,1c1.08.3,2.2.3,3.24.6,1.34.33,2.57,1,3.91,1.41a4.4,4.4,0,0,0,4-.37c.71-.52,1.23-1.38,2.08-1.53a2.81,2.81,0,0,1,1.6.45l6.48,3.39a4.94,4.94,0,0,1,2.24,1.82,1.71,1.71,0,0,1-.62,2.33l-.2.1c-.33,0-.67.06-1,.07s-.7.22-.74.56a1.05,1.05,0,0,0,.15.6,2.5,2.5,0,0,1,0,2.12,1.51,1.51,0,0,1-1.83.75c.11,1-.93,1.67-1.9,1.93-2.38.68-4.92.27-7.34-.14a10.38,10.38,0,0,1-2.79-.75c-.41-.19-.82-.48-1.23-.67a8.43,8.43,0,0,0-3.76-.41c-5.89.11-11.7-1-17.47-2.09a8,8,0,0,1-3.09-1A5.72,5.72,0,0,1,3.14,114a16.82,16.82,0,0,1,2.39-5.81l1.34-2.38a3,3,0,0,1,.71-1C9.51,103.38,13.46,104.53,15.17,105.91Z"/><path id="Path_1152" data-name="Path 1152" class="cls-10" d="M85.13,109.93c-1.3.63-2.83.67-4.21,1.15a24.84,24.84,0,0,0-3.8,2C73.84,115,70,115.66,66.35,116.3a29.94,29.94,0,0,1-6.81.7c-3.06-.15-6-1.15-9-1.93s-6.14-1.3-9.08-.41a10.21,10.21,0,0,0-6.67,6.4,14.51,14.51,0,0,0-.6,5.67c.63.44,1.49-.19,1.82-.86s.52-1.53,1.2-1.94c1.15.37,1.41,1.9,2.34,2.65a4.25,4.25,0,0,0,2.13.7l3.83.56a3,3,0,0,0,2.65-.44c.29-.35.56-.71.82-1.08a3,3,0,0,1,2.53-.71c2.83.3,5.47,2.12,8.31,1.67a14.61,14.61,0,0,0,2.79-.89c5.48-1.94,11.55-.74,17.25-1.86a38.88,38.88,0,0,0,6.33-1.94,11.43,11.43,0,0,0,3.2-1.6,6.68,6.68,0,0,0,2.6-6,6.79,6.79,0,0,0-2.42-4.43A8.31,8.31,0,0,0,88,109.22C87,108.73,86,109.52,85.13,109.93Z"/><g id="Group_244" data-name="Group 244" class="cls-12"><path id="Path_1153" data-name="Path 1153" d="M76.4,83c-.41-.37-.53-.93-.9-1.34-.74-.86-2.27-.75-3.54-.6-2.16.3-4.8.37-6.14-1.12-.6-.63-.86-1.53-1.57-2-1.67-1.26-4.5,0-6.33-1-1.6-.93-1.49-3.09-2.83-4.29s-3.65-1-5.44-.44a1.41,1.41,0,0,1-1,.11c-.56-.19-.52-.93-.37-1.45A29.78,29.78,0,0,1,51,63.4a17.63,17.63,0,0,0,1.38-2.57c.56-1.6.26-3.39,1-4.91a6.51,6.51,0,0,0-2,1.75c-1.08,1.6-.67,3.65-1.26,5.4a13.81,13.81,0,0,1-1.38,2.57A30.1,30.1,0,0,0,46,73.05c-.15.52-.19,1.23.37,1.45a1.41,1.41,0,0,0,1-.11c1.82-.6,4.1-.78,5.44.45s1.23,3.35,2.83,4.28c1.82,1.08,4.69-.22,6.33,1,.71.52,1,1.41,1.56,2,1.35,1.53,3.95,1.46,6.15,1.12,1.23-.18,2.76-.3,3.54.6.37.41.48,1,.89,1.34A2.29,2.29,0,0,0,77,84.9a6.21,6.21,0,0,0,1.19-1.64A1.78,1.78,0,0,1,76.4,83Z"/><path id="Path_1154" data-name="Path 1154" d="M81,80.28c-.15.22-.3.41-.45.67a13,13,0,0,0,2.72-2.23A8.58,8.58,0,0,0,83.8,78,10.7,10.7,0,0,0,81,80.28Z"/></g><path id="Path_1155" data-name="Path 1155" class="cls-3" d="M121.67,118.39l.78,72.37,3.5-.52-.74-71.85Z"/><path id="Path_1156" data-name="Path 1156" class="cls-3" d="M140.05,131.5l.75,72.37,3.54-.52-.75-71.85Z"/><path id="Path_1157" data-name="Path 1157" class="cls-3" d="M195.08,195.75h0v-3.91l-.14-22.38-.23-35,0-3h-3.53v2.91l.11,18.73,0,8.12h0l0,6.56.08,11.36,0,6.7h0v.71l0,8.79,0,7.75.3-.56c.44-.89.93-1.83,1.34-2.76Z"/><path id="Path_1158" data-name="Path 1158" class="cls-13" d="M125.24,146.31l-2,3,2,13.75,17.14,4.69h27.75l16.65,1,7.94-5.44L193.33,154l-6.07-7.71Z"/><path id="Path_1159" data-name="Path 1159" class="cls-14" d="M123.23,149l-1,8.39s-5.29,16.42,37.32,15.42,35.31-4.36,35.31-4.36l-.26-9.72s1.49,4.58-20.19,4-41.87-2.64-41.87-2.64S125,161.39,123.23,149Z"/><path id="Path_1160" data-name="Path 1160" class="cls-15" d="M158.73,79.56a12.22,12.22,0,0,0-5.51,5.63,36.17,36.17,0,0,0-2.61,7.56,70.92,70.92,0,0,0-1.82,8.27,25,25,0,0,0,2.12,14.67,16.52,16.52,0,0,0,11.43,8.94,21.74,21.74,0,0,0,5.81.08,46.19,46.19,0,0,0,10.25-2.28c3.46-1.15,7.07-3,8.6-6.29a14.37,14.37,0,0,0,.93-6.26,66.44,66.44,0,0,0-2.61-17.1,14.54,14.54,0,0,0-2-4.58,15,15,0,0,0-3.73-3.28C173.74,80.94,166,76.29,158.73,79.56Z"/><path id="Path_1161" data-name="Path 1161" class="cls-9" d="M158.73,79.56a12.22,12.22,0,0,0-5.51,5.63,36.17,36.17,0,0,0-2.61,7.56,70.92,70.92,0,0,0-1.82,8.27,25,25,0,0,0,2.12,14.67,16.52,16.52,0,0,0,11.43,8.94,21.74,21.74,0,0,0,5.81.08,46.19,46.19,0,0,0,10.25-2.28c3.46-1.15,7.07-3,8.6-6.29a14.37,14.37,0,0,0,.93-6.26,66.44,66.44,0,0,0-2.61-17.1,14.54,14.54,0,0,0-2-4.58,15,15,0,0,0-3.73-3.28C173.74,80.94,166,76.29,158.73,79.56Z"/><path id="Path_1162" data-name="Path 1162" class="cls-16" d="M156,99.83a12.89,12.89,0,0,0,2.53,3.17c2.39,2.08,5.48,2.38,8.38,2.5,2.35.07,5-.08,6.49-2.39a10.5,10.5,0,0,0,1.22-3.65,197.62,197.62,0,0,0,3.5-24.1l6.67,0c2.91,15.61,2.65,31.85,2.39,47.86l-.38,23.36-4.28-.56c-10.21-1.38-20.45-2.72-30.73-3a139.2,139.2,0,0,0-18,.74l9.35-35.12a68.87,68.87,0,0,0,2.72-14c.41-7-7.49,1.72-5.36-4.73.18-.52,2.45-.48,2.86-.74s2-3.13,2.43-3.06c.85.15,6.77,9.46,8.86-4.5.89,1-4.28,2.72-4.62,4.32-.56,2.87,11.14-11,11.14-8C161.23,83.37,153.29,95.55,156,99.83Z"/><path id="Path_1163" data-name="Path 1163" class="cls-14" d="M195.08,173.76h0c1.12-1.49,2.2-3.06,3.17-4.62-.52-1.08-1.05-2.13-1.49-3.24a31.09,31.09,0,0,1-1.46-5.26c-.15-.6-.26-1.19-.37-1.82a118.59,118.59,0,0,1-3-19.93c0-.56,0-1.12,0-1.67v-2.09a42.55,42.55,0,0,1,.3-4.54l.11-.9a.28.28,0,0,1,0-.18l17.13-.64h0l1.45,0a5.12,5.12,0,0,0,2.87-.67c1.38-.94,1.53-2.87,1.53-4.55a66.38,66.38,0,0,0-1.42-12.48c-.63-3.09-1.56-6.25-3.65-8.64-1.71-1.94-4.17-3.39-5.06-5.81a25.12,25.12,0,0,0-.86-2.76,10,10,0,0,0-1.79-2.16,30,30,0,0,1-5.77-8A24.14,24.14,0,0,0,193.29,78a1,1,0,0,1-.18-.22,3.25,3.25,0,0,0-4-.86q-.41.22-.78.48h0a9.11,9.11,0,0,0-1.49,1.42A33.93,33.93,0,0,0,180.7,89.2a32.28,32.28,0,0,0-1.11,3.8c-.23,1-.37,1.9-.52,2.87a67.29,67.29,0,0,0-.45,11c.07,3.35.22,6.74.52,10.09.07.82.15,1.64.26,2.43.19,1.6.41,3.2.67,4.8.11.6.22,1.23.34,1.83,0,.14.07.33.11.48v.07c.33,1.4.59,2.82.78,4.25a3,3,0,0,1,0,.52,18.37,18.37,0,0,1,0,2.46c-.07,1-.15,1.94-.19,2.9v2a22.74,22.74,0,0,0,.41,3.5,21.63,21.63,0,0,0,2.2,6.15c.12.19.19.37.3.52,1.27,2.27,2.91,4.4,4.06,6.7a29.56,29.56,0,0,1,2.28,6.59c.18.75.33,1.53.48,2.28.22,1.19.45,2.42.67,3.65,0,.11,0,.26.08.37.3,1.6.6,3.24,1,4.8.23.93.49,1.82.79,2.72Z"/><path id="Path_1164" data-name="Path 1164" class="cls-17" d="M191.73,148.19a3.76,3.76,0,0,1,0,.67c0,1.11-.15,2.21-.3,3.31a22.81,22.81,0,0,1-1.08,4.4,15.08,15.08,0,0,1-1.3,2.68,13,13,0,0,1-1.6,2.09c-1.53,1.56-3.69,2.09-5.82,2.76a15,15,0,0,0-2.79,1.15c-.15.08-.3.19-.48.3l-2.65,1.75a8.46,8.46,0,0,0-2.23,1.9c-.08.15-.19.26-.26.41a8.46,8.46,0,0,0-.79,2.35c-1.37,5.7-2.75,11.43-3.68,17.25-.08.37-.12.78-.19,1.15l0,.11a.09.09,0,0,0,0-.07,148.77,148.77,0,0,1-21,10.69L145.92,188a16,16,0,0,1-.15-3.24c.15-1.72.86-3.32,1-5a8.59,8.59,0,0,0-.9-4.8,5.31,5.31,0,0,1-.74-1.79,1.11,1.11,0,0,1,.9-1.29h0a2.29,2.29,0,0,0,.41-2.08,5.73,5.73,0,0,0-.34-1.16c-.44-1-1-2.2-.6-3.28a.92.92,0,0,0,.11-.63v0c-.07-.3-.41-.41-.6-.63-.33-.45,0-1,.19-1.56a6.73,6.73,0,0,0,.34-1.72c0-.33,0-.67.07-1a8.41,8.41,0,0,1,.22-1.3,10.18,10.18,0,0,1,4.14-5.92c1-.67,2.08-1.15,3.09-1.75a28.07,28.07,0,0,0,2.94-2.27c2.24-1.86,4.55-3.58,6.93-5.22a83.52,83.52,0,0,1,8-4.84c.6-.33,1.19-.63,1.75-.93s1.3-.67,1.94-1c2.08-1,4.43-.63,6.74,0,1,.26,1.9.6,2.83.89a13.22,13.22,0,0,1,2.57,1.16,9.42,9.42,0,0,1,4.43,5.18v0A12.55,12.55,0,0,1,191.73,148.19Z"/><path id="Path_1165" data-name="Path 1165" class="cls-11" d="M191.73,148.19a3.76,3.76,0,0,1,0,.67c0,1.11-.15,2.21-.3,3.31a22.81,22.81,0,0,1-1.08,4.4,15.08,15.08,0,0,1-1.3,2.68,13,13,0,0,1-1.6,2.09c-1.53,1.56-3.69,2.09-5.82,2.76a15,15,0,0,0-2.79,1.15c-.15.08-.3.19-.48.3l-2.65,1.75a8.46,8.46,0,0,0-2.23,1.9c-.08.15-.19.26-.26.41a8.46,8.46,0,0,0-.79,2.35c-1.37,5.7-2.75,11.43-3.68,17.25-.08.37-.12.78-.19,1.15l0,.11a.09.09,0,0,0,0-.07,148.77,148.77,0,0,1-21,10.69L145.92,188a16,16,0,0,1-.15-3.24c.15-1.72.86-3.32,1-5a8.59,8.59,0,0,0-.9-4.8,5.31,5.31,0,0,1-.74-1.79,1.11,1.11,0,0,1,.9-1.29h0a2.29,2.29,0,0,0,.41-2.08,5.73,5.73,0,0,0-.34-1.16c-.44-1-1-2.2-.6-3.28a.92.92,0,0,0,.11-.63v0c-.07-.3-.41-.41-.6-.63-.33-.45,0-1,.19-1.56a6.73,6.73,0,0,0,.34-1.72c0-.33,0-.67.07-1a8.41,8.41,0,0,1,.22-1.3,10.18,10.18,0,0,1,4.14-5.92c1-.67,2.08-1.15,3.09-1.75a28.07,28.07,0,0,0,2.94-2.27c2.24-1.86,4.55-3.58,6.93-5.22a83.52,83.52,0,0,1,8-4.84c.6-.33,1.19-.63,1.75-.93s1.3-.67,1.94-1c2.08-1,4.43-.63,6.74,0,1,.26,1.9.6,2.83.89a13.22,13.22,0,0,1,2.57,1.16,9.42,9.42,0,0,1,4.43,5.18v0A12.55,12.55,0,0,1,191.73,148.19Z"/><path id="Path_1166" data-name="Path 1166" class="cls-3" d="M167.78,112.72a.52.52,0,0,0-.63-.26.48.48,0,0,0-.26.63h0v0l-.26.11,7.52,15.42,1.34-.67L168,112.57Z"/><path id="Path_1167" data-name="Path 1167" class="cls-10" d="M178.06,66.31c9.5,0,22.61,7.94,17.21,15.87-6.59,9.69-7.78,13.86-11.51,16.47a10,10,0,0,1-11.43-.19c-3.91-2.76-6.26-7.34-9.54-15.76C159.29,73.76,168.56,66.31,178.06,66.31Z"/><path id="Path_1168" data-name="Path 1168" class="cls-14" d="M154.83,79c-1.9-.22-3.8-1.08-5.67-.67A8.16,8.16,0,0,0,146,80.05a37.81,37.81,0,0,0-8.76,10,5.11,5.11,0,0,0-.82,1.9,5.69,5.69,0,0,0,.34,2.35c1.71,5.1,5.4,9.35,7.08,14.45.61,1.89-.12,4.24,0,6.52.18,3.34.7,6.67-.15,10.24a69.39,69.39,0,0,1-7.79,19.34,11,11,0,0,1-1.79,2.45c-.93.9-2.16,1.53-2.68,2.69a14.23,14.23,0,0,0-.52,1.6c-.52,1.52-1.71,2.79-1.82,4.4a9.88,9.88,0,0,0,.85,3.54,9.62,9.62,0,0,1-.18,6.07c-1.27,3.5-4.62,6.7-3.65,10.28,2.16-.64,4.58-1.42,5.58-3.43a6.28,6.28,0,0,1,1.16-2.09c1.23-1,3.28-.11,4.58-1A2.83,2.83,0,0,0,138,166a34.31,34.31,0,0,1-1.53-3.32c-.6-2.12.34-4.32.19-6.52-.07-1-.37-2-.41-3a7,7,0,0,1,2.46-5.1,20.32,20.32,0,0,1,4.95-3.05l6.59-3.28c2.39-1.19,5-2.64,5.82-5.18a10.28,10.28,0,0,0,.3-3c.22-15.27,4.06-30.21,7.85-45a55.86,55.86,0,0,1,2.09-6.78c.89-2.2,2.61-3.94,3.46-6C164.74,75.29,160.12,79.68,154.83,79Z"/><path id="Path_1169" data-name="Path 1169" class="cls-18" d="M182.57,169c.6,3.54.93,7.15,1.23,10.73a122.3,122.3,0,0,1-14.38,10.06l-.86.52,0,.11a.16.16,0,0,0,0-.07,3.73,3.73,0,0,0-1.9-1.87L161,176.72a32.86,32.86,0,0,1-2.53-6.52s0-.11,0-.15c-.37-1.75-.48-3.61-.71-5.4a16.36,16.36,0,0,0-.67-3c-.3-.86-.7-1.72-1.08-2.57a9.15,9.15,0,0,1-.85-3.24,2,2,0,0,0-.15-1.05,3,3,0,0,0-.67-.67,2.61,2.61,0,0,1-.86-2.38c-1.53.07-2.35,1.71-3,3.09a17.41,17.41,0,0,1-2.16,3.8,6.77,6.77,0,0,1-2.38,2,1.51,1.51,0,0,1-.26.12c-2.13.93-4.59.6-6.86.18a13,13,0,0,1-5.66-2l-.19-.15a8.89,8.89,0,0,1-1.26-1.34,14.64,14.64,0,0,1-2.27-6.55,4.48,4.48,0,0,1-.08-.64,23.7,23.7,0,0,1-.18-4.91c0-.41.07-.82.11-1.19l.11-.79v0c.07-.41.15-.82.22-1.27a12.24,12.24,0,0,1,1.27-4.13,6.75,6.75,0,0,1,1.86-2c.26-.22.56-.41.82-.63a12.18,12.18,0,0,1,1.42-.9,22.5,22.5,0,0,1,3.8-1.82c.3-.11.63-.22.93-.34a7.13,7.13,0,0,1,3.83-.3,21.19,21.19,0,0,0,3.47.19,86.12,86.12,0,0,0,8.86-1c4.1-.52,8.5-.55,12.07,1.53l.52.3a14.43,14.43,0,0,1,4.32,4.58,9,9,0,0,1,.67,1.16,22.33,22.33,0,0,1,1.34,2.79,3.57,3.57,0,0,1,.38,1.53c0,.11,0,.19,0,.3-.07.37-.19.71-.26,1.08-.15,1.38,1,2.53,1.45,3.84a15.6,15.6,0,0,1,.41,2.64,13.74,13.74,0,0,0,1.42,3.54,40.69,40.69,0,0,1,2.23,5.63c.45,1.34.82,2.71,1.16,4.1.11.44.22.89.3,1.34A30.81,30.81,0,0,1,182.57,169Z"/><path id="Path_1170" data-name="Path 1170" class="cls-3" d="M209.46,137v1.79h-.67l-4.06-.08-10-.11-2.79,0-.71,0-4.21,0-5.92-.07-12.59-.15-21.83-.3-7.9-.11-3.17,0-2.9,0-1.83,0h-1.71l-12.74-.19-3.5,0h-.78l-.48-1.3L108,126.9l-.67-1.71.52-2,2.27,1.53,1.38.15,23,2.86,4.32.56L148,129.4l9,1.12,3.54.44,20.79,2.57,5.81.75,4.8.6L209,137Z"/><path id="Path_1171" data-name="Path 1171" class="cls-7" d="M107.85,123.25l4.54,11.84,97.07,2V124.25Z"/><path id="Path_1172" data-name="Path 1172" class="cls-3" d="M125.93,130.87l.79,72.37,3.5-.52-.75-71.85Z"/><path id="Path_1173" data-name="Path 1173" class="cls-2" d="M195.35,130.48l-37,.75-11.47-3.8,30.77-1.75Z"/><path id="Path_1174" data-name="Path 1174" class="cls-15" d="M156,116.35a1.91,1.91,0,0,0-1.37,1.86L154,121.9a1.68,1.68,0,0,0,0,1c.15.3.63.48.86.22a3.39,3.39,0,0,0,.44,2.09,1.45,1.45,0,0,0,1.9.48,1.22,1.22,0,0,0,1.68.41.42.42,0,0,0,.15-.11c-.37.11-.37.67-.11.93a1.48,1.48,0,0,0,1,.41,24.86,24.86,0,0,0,13.07-1.64c.38-.15-.63-5-.74-5.47-.26-1.16-.37-2.57-1.34-3.36-2.35-1.86-6.52-2.23-9.35-2A15.53,15.53,0,0,0,156,116.35Z"/><path id="Path_1175" data-name="Path 1175" class="cls-19" d="M186.59,116.94c-9.12.18-18.44.33-27.11-2.42a18.73,18.73,0,0,1-.15,9.8L202,127.85c1.82.15,9.31,1,11.06.56s-14.79-5.88-14.12-7.56c1.83-4.65,8-7.37,3.58-7.56C196.84,113.1,192.22,116.82,186.59,116.94Z"/><path id="Path_1176" data-name="Path 1176" class="cls-14" d="M186.85,117.38c-9.12.19-18.43.34-27.11-2.42a18.73,18.73,0,0,1-.15,9.8l42.65,3.54c1.82.15,9.31,1,11.06.56s1.34-2.61,2-4.28c1.83-4.66-8.16-10.66-12.59-10.84C197.1,113.55,192.48,117.31,186.85,117.38Z"/><path id="Path_1177" data-name="Path 1177" class="cls-10" d="M178.14,118a1.94,1.94,0,0,1,1.38,1.87l.63,3.68a1.64,1.64,0,0,1,0,1c-.14.3-.63.48-.85.22a3.39,3.39,0,0,1-.45,2.09,1.45,1.45,0,0,1-1.9.48,1.23,1.23,0,0,1-1.68.41l-.14-.11c.37.11.37.67.14.93a1.53,1.53,0,0,1-1,.41,24.87,24.87,0,0,1-13.07-1.64c-.38-.15.63-5,.74-5.48.26-1.15.38-2.57,1.34-3.35,2.35-1.86,6.52-2.23,9.35-2A16.38,16.38,0,0,1,178.14,118Z"/><path id="Path_1178" data-name="Path 1178" class="cls-14" d="M121.12,111.22a18.85,18.85,0,0,0-2.23,3.43c-1,2.39-.9,5.1-.71,7.71a4.29,4.29,0,0,0,.52,2.16,3.43,3.43,0,0,0,1.3,1.12,19.33,19.33,0,0,0,7.23,1.9q5.74.61,11.51.78c9.53.22,19.22-.56,28.5,1.6a7.13,7.13,0,0,1-.52-6,20.08,20.08,0,0,1,3.09-5.44c-4.25-1.34-8.83.74-13.26.56-4.58-.23-8.79-2.87-13.37-2.87a13.23,13.23,0,0,1-3-.11,2.46,2.46,0,0,1-2-1.94c1.23.26,2.38-.78,2.87-1.9s.6-2.42,1.08-3.58c1.23-2.86,4.5-4.2,6.55-6.55a2.1,2.1,0,0,0,.64-1.3,1.88,1.88,0,0,0-.52-1.12c-1.72-2.27-4.29-3.54-6.41-5.29-.75-.63-2.24-2.94-3.06-3.16-1.52-.41-2.86,1.82-3.87,2.9C130.55,99.57,125.7,105.3,121.12,111.22Z"/><path id="Path_1179" data-name="Path 1179" class="cls-20" d="M169.22,110.1a9.21,9.21,0,0,1,1.68,1.68,2.84,2.84,0,0,1,.52,2.27,3.42,3.42,0,0,1,2.09-3.5Z"/><g id="Group_245" data-name="Group 245" class="cls-12"><path id="Path_1180" data-name="Path 1180" d="M176.76,48.88a24.85,24.85,0,0,0-1-2.31,6.17,6.17,0,0,0-.74.19A15.67,15.67,0,0,1,176.16,49Z"/><path id="Path_1181" data-name="Path 1181" d="M191.4,58.83a.39.39,0,0,1,.18.18v0C191.51,58.94,191.47,58.86,191.4,58.83Z"/><path id="Path_1182" data-name="Path 1182" d="M168,59.94a3.08,3.08,0,0,1,.41-.3l0-1.19-2.68,0c-.45.41-.9,1-.64,1.52Z"/><path id="Path_1183" data-name="Path 1183" d="M197.39,80.1a4.25,4.25,0,0,1-2.12,2.08,6,6,0,0,1-2.31.23,26.82,26.82,0,0,1-7.86-1.12,24.29,24.29,0,0,0-3.54-1.23,14.43,14.43,0,0,0-4.4,0l-6.44.74c-1.9.22-4,.37-5.51-.78-.86-.67-1.42-1.71-2.39-2.24a3,3,0,0,1-1.15-.74,2,2,0,0,1-.26-.93,5.1,5.1,0,0,1,0-.78,22.31,22.31,0,0,0,0,2.31,1.64,1.64,0,0,0,.26.93,3.12,3.12,0,0,0,1.15.74c1,.52,1.53,1.57,2.39,2.24,1.52,1.15,3.61,1,5.51.78l6.44-.75a13.54,13.54,0,0,1,4.4,0,27.44,27.44,0,0,1,3.54,1.23A26.81,26.81,0,0,0,193,83.93a5.31,5.31,0,0,0,2.31-.22,4.39,4.39,0,0,0,2.12-2.09A10.46,10.46,0,0,0,198.47,76,9.24,9.24,0,0,1,197.39,80.1Z"/></g><path id="Path_1184" data-name="Path 1184" class="cls-11" d="M198.47,76a22.17,22.17,0,0,0-.55-3.8,22.41,22.41,0,0,0-5.67-11,21.79,21.79,0,0,0-.67-2.13v0a23.07,23.07,0,0,0-3.8-6.75c-.93-1.19-2.16-2.34-3.68-2.38a2.5,2.5,0,0,1-1.27-.15,2.66,2.66,0,0,1-.71-.71,6.59,6.59,0,0,0-6.4-2.38l-.15,0a.59.59,0,0,0-.26.07l-.34.11c.11.19.22.37.34.6.3.52.55,1.08.81,1.64a15.12,15.12,0,0,1,.6,1.42c-2.57.3-4.69,2.12-6.59,3.87l-4.51,4.1,0,0-.15.11-.11.11,0,0-.11.11a1.57,1.57,0,0,0-.19.26s0,.07-.07.11v0s0,.07,0,.11h0v.08a.85.85,0,0,0,0,.52l3,0h.33c0,.41,0,.79,0,1.2-.48.37-.93.74-1.38,1.11a12.86,12.86,0,0,0-1.34,1.42A19.46,19.46,0,0,0,161.3,75.4v1.53c0,.26,0,.52,0,.74a1.6,1.6,0,0,0,.26.93s0,.08.07.08a4.07,4.07,0,0,0,.52.41l.23.11h0a2.1,2.1,0,0,1,.3.15c1,.52,1.52,1.56,2.38,2.23l.15.12.11.07.08,0,.11,0,.18.12h0l.12.07h0l.3.11.15,0h0s.07,0,.11,0a2,2,0,0,1,.26.07l.26,0c.12,0,.19,0,.3,0l.15,0h.15a5.63,5.63,0,0,0,.71,0h0a21.45,21.45,0,0,0,2.27-.15l6.45-.75a13.53,13.53,0,0,1,4.4,0A27.83,27.83,0,0,1,185,82.74a7.81,7.81,0,0,0,.82.26,1.09,1.09,0,0,0,.3.07l.15,0,.34.07c.11,0,.22,0,.33.08l.49.11c.11,0,.22,0,.33.07h0l.33,0h.08l.22,0,.34,0a5.16,5.16,0,0,0,.78.08l1.26.11.41,0,.41,0,1.27,0h.22a7.48,7.48,0,0,0,1.57-.07.79.79,0,0,0,.26-.08l.26-.07a4.39,4.39,0,0,0,2.12-2.09c.12-.18.19-.37.3-.56s.15-.37.23-.6.15-.48.22-.74a.57.57,0,0,0,0-.22.73.73,0,0,1,.07-.3,7,7,0,0,0,.15-.9c0-.11,0-.18,0-.3a4.58,4.58,0,0,0,0-.74v-.56C198.51,76.48,198.47,76.22,198.47,76Zm-6.44-15c-.19-.18-.41-.37-.63-.56A3.37,3.37,0,0,1,192,60.91Z"/><path id="Path_1185" data-name="Path 1185" class="cls-3" d="M209.54,186.52h0v-3.28l-.15-18.74-.22-29.31,0-2.54h-3.54v2.42l.11,15.69,0,6.78h0l0,5.51.07,9.5,0,5.62h0v.6l0,7.38.12,6.55.3-.48c.44-.74.93-1.53,1.34-2.31Z"/></g><circle id="point_4_circle" data-name="point 4 circle" class="cls-2" cx="112" cy="16.5" r="16.5"/><g id="_4" data-name=" 4" class="cls-1"><g class="cls-1"><path class="cls-21" d="M114.34,24a1,1,0,0,1-.7-.29,1,1,0,0,1-.28-.73V12.8l.36.12-4.32,5.52-.1-.26h7.06a.92.92,0,0,1,.94.94.85.85,0,0,1-.27.64.94.94,0,0,1-.67.26h-8.44a1,1,0,0,1-.68-.29.9.9,0,0,1-.32-.69,1,1,0,0,1,.26-.68l6.36-8a.88.88,0,0,1,.36-.3,1.06,1.06,0,0,1,.46-.1,1,1,0,0,1,.72.29,1,1,0,0,1,.28.73V23a1,1,0,0,1-.3.73A1,1,0,0,1,114.34,24Z"/></g></g></g></g></g></svg>