<svg xmlns="http://www.w3.org/2000/svg" viewBox="0 0 300 300"><defs><style>.cls-1{fill:#fff;}.cls-2{fill:#333a41;}.cls-3{fill:#3f3d56;}.cls-4{fill:#020bf9;}.cls-5{fill:#bed7ff;}.cls-6{fill:#a5d1fe;}.cls-7{fill:#504f60;}.cls-8{fill:#a1616a;}.cls-9{fill:#ff9898;}.cls-10{fill:#ffacb6;}.cls-11{fill:#021c56;}.cls-12,.cls-19{opacity:0.1;}.cls-13{fill:#6c63ff;}.cls-14{fill:blue;}.cls-15{fill:#fbbebe;}.cls-16{fill:#c8e0ff;}.cls-17{fill:#f86d70;}.cls-18{fill:#00217e;}.cls-19,.cls-20{isolation:isolate;}.cls-20{opacity:0.07;}.cls-21{fill:none;}</style></defs><g id="Layer_1" data-name="Layer 1"><g id="Layer_1-2" data-name="Layer 1"><g id="Layer_2-2" data-name="Layer 2"><g id="Layer_8" data-name="Layer 8"><g id="point_4" data-name="point 4"><g id="Candidates_attempt_exam_and_submit" data-name="Candidates attempt exam and submit"><path class="cls-1" d="M85.61,254a.67.67,0,0,1,.42.55.86.86,0,0,1-.2.69.61.61,0,0,1-.46.28.91.91,0,0,1-.58-.11,4.51,4.51,0,0,0-1-.39,4,4,0,0,0-1.13-.16,4.44,4.44,0,0,0-1.69.31,3.76,3.76,0,0,0-2.13,2.22,4.84,4.84,0,0,0-.29,1.73,5.23,5.23,0,0,0,.31,1.84,4.12,4.12,0,0,0,.87,1.35,3.42,3.42,0,0,0,1.3.82,4.88,4.88,0,0,0,2.73.15,5.09,5.09,0,0,0,1-.4,1,1,0,0,1,.59-.11.71.71,0,0,1,.46.29.79.79,0,0,1,.21.7.75.75,0,0,1-.42.54,4.89,4.89,0,0,1-.91.39,5.92,5.92,0,0,1-1,.27,6.65,6.65,0,0,1-1,.11,6.4,6.4,0,0,1-2.25-.41,5.44,5.44,0,0,1-3.18-3,6.4,6.4,0,0,1-.46-2.52,6.13,6.13,0,0,1,.43-2.36,5.46,5.46,0,0,1,1.24-1.87,6.06,6.06,0,0,1,1.88-1.23,6.26,6.26,0,0,1,2.34-.43,5.84,5.84,0,0,1,1.55.2A5.24,5.24,0,0,1,85.61,254Z"/><path class="cls-1" d="M95.19,256a.82.82,0,0,1,.59.24.85.85,0,0,1,.24.61V264a.85.85,0,0,1-.24.6.82.82,0,0,1-.59.25.75.75,0,0,1-.6-.25.8.8,0,0,1-.23-.6v-1.18l.33.05a1.2,1.2,0,0,1-.23.66,3.65,3.65,0,0,1-.66.7,4.27,4.27,0,0,1-1,.56,3.37,3.37,0,0,1-1.21.23,3.8,3.8,0,0,1-2.07-.59,4.19,4.19,0,0,1-1.43-1.61,5.36,5.36,0,0,1,0-4.69,4,4,0,0,1,1.45-1.59,3.54,3.54,0,0,1,2-.58,3.5,3.5,0,0,1,1.32.23,3.61,3.61,0,0,1,1,.59,3.37,3.37,0,0,1,.69.77,1.41,1.41,0,0,1,.25.77h-.51v-1.44a.88.88,0,0,1,.23-.6A.75.75,0,0,1,95.19,256Zm-3.38,7.47a2.39,2.39,0,0,0,1.37-.4A2.72,2.72,0,0,0,94.1,262a3.66,3.66,0,0,0,.33-1.53,3.71,3.71,0,0,0-.33-1.54,2.85,2.85,0,0,0-.92-1,2.57,2.57,0,0,0-2.72,0,2.76,2.76,0,0,0-.92,1,3.42,3.42,0,0,0-.33,1.54,3.37,3.37,0,0,0,.36,1.56,2.61,2.61,0,0,0,.91,1.09,2.41,2.41,0,0,0,1.33.37Z"/><path class="cls-1" d="M103.2,256a3,3,0,0,1,1.82.48,2.61,2.61,0,0,1,.9,1.31,6.56,6.56,0,0,1,.26,1.82V264a.85.85,0,0,1-.24.6.82.82,0,0,1-.59.25.75.75,0,0,1-.6-.25.83.83,0,0,1-.22-.6v-4.41a3.74,3.74,0,0,0-.17-1,1.54,1.54,0,0,0-.57-.76,1.88,1.88,0,0,0-1.13-.29,2.33,2.33,0,0,0-1.19.29,2.19,2.19,0,0,0-.81.76,2.07,2.07,0,0,0-.29,1V264a.8.8,0,0,1-.23.6.83.83,0,0,1-.59.25.75.75,0,0,1-.59-.25.85.85,0,0,1-.24-.6v-7a.92.92,0,0,1,.24-.61.76.76,0,0,1,.59-.23.81.81,0,0,1,.59.23.91.91,0,0,1,.23.61v.91l-.3.17a2.58,2.58,0,0,1,.42-.74,3.81,3.81,0,0,1,.7-.69,3.64,3.64,0,0,1,.92-.52A3.08,3.08,0,0,1,103.2,256Z"/><path class="cls-1" d="M115.94,252.62a.8.8,0,0,1,.82.77V264a.71.71,0,0,1-.24.6.81.81,0,0,1-1.15,0h0a.79.79,0,0,1-.24-.6v-1.18h.33a1.16,1.16,0,0,1-.24.67,3.42,3.42,0,0,1-.65.72,3.81,3.81,0,0,1-1,.57,3.36,3.36,0,0,1-1.21.22,3.65,3.65,0,0,1-2.06-.58,4.13,4.13,0,0,1-1.45-1.6,5.48,5.48,0,0,1,0-4.68,4,4,0,0,1,1.44-1.6,3.74,3.74,0,0,1,3.3-.36,3.61,3.61,0,0,1,1,.59,3.24,3.24,0,0,1,.71.77,1.42,1.42,0,0,1,.26.77H115v-4.9a.79.79,0,0,1,.24-.6A.75.75,0,0,1,115.94,252.62Zm-3.37,10.87a2.35,2.35,0,0,0,1.36-.4,2.68,2.68,0,0,0,.92-1,3.73,3.73,0,0,0,0-3.1,2.76,2.76,0,0,0-.92-1,2.52,2.52,0,0,0-2.67,0,2.88,2.88,0,0,0-.93,1,3.73,3.73,0,0,0,0,3.1,2.56,2.56,0,0,0,.93,1A2.35,2.35,0,0,0,112.57,263.49Z"/><path class="cls-1" d="M120.19,255a1.14,1.14,0,0,1-.67-.19.68.68,0,0,1-.21-.59V254a.67.67,0,0,1,.23-.58,1.13,1.13,0,0,1,.69-.17,1.12,1.12,0,0,1,.71.18.68.68,0,0,1,.22.57v.25a.68.68,0,0,1-.23.6A1.12,1.12,0,0,1,120.19,255Zm.84,9a.8.8,0,0,1-.23.6.75.75,0,0,1-.6.25.83.83,0,0,1-.59-.25.89.89,0,0,1-.24-.6v-7.07a.89.89,0,0,1,.24-.6.82.82,0,0,1,.59-.24.79.79,0,0,1,.6.24.84.84,0,0,1,.23.6Z"/><path class="cls-1" d="M130.72,252.62a.81.81,0,0,1,.83.77V264a.79.79,0,0,1-.24.6.82.82,0,0,1-1.16,0h0a.8.8,0,0,1-.23-.6v-1.18h.33a1.16,1.16,0,0,1-.24.67,3.42,3.42,0,0,1-.65.72,3.81,3.81,0,0,1-1,.57,3.36,3.36,0,0,1-1.21.22,3.65,3.65,0,0,1-2.06-.58,4.13,4.13,0,0,1-1.45-1.6,5.48,5.48,0,0,1,0-4.68,4.06,4.06,0,0,1,1.42-1.6,3.71,3.71,0,0,1,4.35.23,2.86,2.86,0,0,1,.7.77,1.42,1.42,0,0,1,.26.77h-.51v-4.9a.8.8,0,0,1,.23-.6A.82.82,0,0,1,130.72,252.62Zm-3.36,10.87a2.35,2.35,0,0,0,1.36-.4,2.68,2.68,0,0,0,.92-1,3.73,3.73,0,0,0,0-3.1,2.85,2.85,0,0,0-.92-1,2.57,2.57,0,0,0-2.72,0,2.71,2.71,0,0,0-.93,1,3.81,3.81,0,0,0,0,3.1,2.71,2.71,0,0,0,.93,1A2.35,2.35,0,0,0,127.36,263.49Z"/><path class="cls-1" d="M141.32,256a.82.82,0,0,1,.59.24.81.81,0,0,1,.23.61V264a.8.8,0,0,1-.23.6.83.83,0,0,1-.59.25.75.75,0,0,1-.6-.25.8.8,0,0,1-.23-.6v-1.18l.33.05a1.31,1.31,0,0,1-.23.66,3.65,3.65,0,0,1-.66.7,4.08,4.08,0,0,1-1,.56,3.37,3.37,0,0,1-1.21.23,3.74,3.74,0,0,1-2.06-.59,4.21,4.21,0,0,1-1.44-1.61,5.5,5.5,0,0,1,0-4.69,4.06,4.06,0,0,1,1.43-1.59,3.58,3.58,0,0,1,2.06-.58,3.45,3.45,0,0,1,1.31.23,3.61,3.61,0,0,1,1,.59,3.42,3.42,0,0,1,.7.77,1.53,1.53,0,0,1,.25.77h-.52v-1.44a.84.84,0,0,1,.23-.6A.78.78,0,0,1,141.32,256ZM138,263.49a2.39,2.39,0,0,0,1.37-.4,2.63,2.63,0,0,0,.9-1.08,3.25,3.25,0,0,0,.33-1.53,3.29,3.29,0,0,0-.33-1.54,2.7,2.7,0,0,0-.9-1,2.58,2.58,0,0,0-2.73,0,2.76,2.76,0,0,0-.92,1,3.42,3.42,0,0,0-.33,1.54,3.38,3.38,0,0,0,.33,1.53,2.61,2.61,0,0,0,.92,1.08A2.35,2.35,0,0,0,138,263.49Z"/><path class="cls-1" d="M144.74,256.26h3.88a.74.74,0,0,1,.77.69V257a.7.7,0,0,1-.21.53.82.82,0,0,1-.56.22h-3.88A.76.76,0,0,1,144,257a.79.79,0,0,1,.23-.56A.73.73,0,0,1,144.74,256.26Zm1.73-2.15a.8.8,0,0,1,.83.84v7.67a.85.85,0,0,0,.1.47.44.44,0,0,0,.27.25,1.09,1.09,0,0,0,.36.06.7.7,0,0,0,.32-.06,1,1,0,0,1,.34-.06.47.47,0,0,1,.36.18.73.73,0,0,1-.09,1,.78.78,0,0,1-.18.11,1.71,1.71,0,0,1-.91.25,5,5,0,0,1-.67-.05,2,2,0,0,1-.74-.25,1.5,1.5,0,0,1-.58-.64,2.62,2.62,0,0,1-.23-1.23V255a.8.8,0,0,1,.23-.6.77.77,0,0,1,.59-.24Z"/><path class="cls-1" d="M155.53,265a4.93,4.93,0,0,1-2.38-.58,4.08,4.08,0,0,1-1.57-1.57,4.65,4.65,0,0,1-.54-2.28,4.89,4.89,0,0,1,.58-2.49,4.17,4.17,0,0,1,1.53-1.59,4,4,0,0,1,2.07-.55,3.81,3.81,0,0,1,1.53.32,4.26,4.26,0,0,1,2.19,2.23,4.57,4.57,0,0,1,.34,1.67.78.78,0,0,1-.26.55.89.89,0,0,1-.58.22H152l-.4-1.41h6.2l-.31.3v-.41a1.81,1.81,0,0,0-.4-1,2.38,2.38,0,0,0-1.88-.91,3.37,3.37,0,0,0-1,.15,2,2,0,0,0-.81.51,2.69,2.69,0,0,0-.57.91,4.19,4.19,0,0,0-.21,1.41,3.27,3.27,0,0,0,.38,1.59,2.78,2.78,0,0,0,2.47,1.42,3.35,3.35,0,0,0,1-.13,2,2,0,0,0,.66-.3,3.1,3.1,0,0,0,.46-.35,1,1,0,0,1,.49-.14.63.63,0,0,1,.5.2.7.7,0,0,1,.2.49.83.83,0,0,1-.37.66,3.73,3.73,0,0,1-1.23.76A4,4,0,0,1,155.53,265Z"/><path class="cls-1" d="M160.92,263.49a.93.93,0,0,1-.14-.54.7.7,0,0,1,.34-.52.74.74,0,0,1,.5-.12.84.84,0,0,1,.49.26,3.36,3.36,0,0,0,1,.8,3,3,0,0,0,1.37.3,3.85,3.85,0,0,0,.68-.1,1.42,1.42,0,0,0,.6-.33.91.91,0,0,0,.25-.7.86.86,0,0,0-.27-.66,1.89,1.89,0,0,0-.69-.42l-.93-.29a9,9,0,0,1-1-.33,3.77,3.77,0,0,1-1-.46,2.45,2.45,0,0,1-.71-.76,2.34,2.34,0,0,1-.26-1.13,2,2,0,0,1,.43-1.34,2.84,2.84,0,0,1,1.15-.88,3.63,3.63,0,0,1,1.52-.31,4.21,4.21,0,0,1,1,.12,5,5,0,0,1,1,.38,2.94,2.94,0,0,1,.86.71.89.89,0,0,1,.18.5.6.6,0,0,1-.27.53.73.73,0,0,1-.94,0,2.34,2.34,0,0,0-.81-.62,2.92,2.92,0,0,0-1.13-.22,2.37,2.37,0,0,0-.65.09,1.26,1.26,0,0,0-.57.33.91.91,0,0,0-.22.67.8.8,0,0,0,.27.66,2.24,2.24,0,0,0,.72.41,8.83,8.83,0,0,0,1,.3c.34.09.68.2,1,.31a3.45,3.45,0,0,1,.91.48,2.23,2.23,0,0,1,.66.74,2.19,2.19,0,0,1,.26,1.15,2.15,2.15,0,0,1-.46,1.38,3.23,3.23,0,0,1-1.2.87,4.11,4.11,0,0,1-1.51.3,5.73,5.73,0,0,1-1.88-.34A3.5,3.5,0,0,1,160.92,263.49Z"/><path class="cls-1" d="M181.8,256a.82.82,0,0,1,.59.24.81.81,0,0,1,.23.61V264a.8.8,0,0,1-.23.6.83.83,0,0,1-.59.25.75.75,0,0,1-.6-.25.8.8,0,0,1-.23-.6v-1.18l.33.05a1.21,1.21,0,0,1-.24.66,3.32,3.32,0,0,1-.65.7,3.52,3.52,0,0,1-1,.56,3.28,3.28,0,0,1-1.2.23,3.8,3.8,0,0,1-2.07-.59,4.21,4.21,0,0,1-1.44-1.61,5.5,5.5,0,0,1,0-4.69,4.06,4.06,0,0,1,1.43-1.59,3.54,3.54,0,0,1,2-.58,3.45,3.45,0,0,1,1.31.23,3.61,3.61,0,0,1,1,.59,3.42,3.42,0,0,1,.7.77,1.53,1.53,0,0,1,.25.77h-.52v-1.44a.84.84,0,0,1,.23-.6A.78.78,0,0,1,181.8,256Zm-3.37,7.47a2.32,2.32,0,0,0,1.35-.4,2.61,2.61,0,0,0,.92-1.08,3.25,3.25,0,0,0,.33-1.53,3.29,3.29,0,0,0-.33-1.54,2.76,2.76,0,0,0-.92-1,2.39,2.39,0,0,0-1.35-.39,2.42,2.42,0,0,0-1.36.39,2.76,2.76,0,0,0-.92,1,3.42,3.42,0,0,0-.33,1.54,3.38,3.38,0,0,0,.33,1.53,2.61,2.61,0,0,0,.92,1.08,2.28,2.28,0,0,0,1.36.42Z"/><path class="cls-1" d="M185.22,256.26h3.88a.74.74,0,0,1,.77.71V257a.7.7,0,0,1-.21.53.82.82,0,0,1-.56.22h-3.88a.76.76,0,0,1-.78-.76.79.79,0,0,1,.23-.56A.75.75,0,0,1,185.22,256.26Zm1.73-2.15a.8.8,0,0,1,.83.84v7.67a.85.85,0,0,0,.1.47.44.44,0,0,0,.27.25.88.88,0,0,0,.36.06.7.7,0,0,0,.32-.06,1,1,0,0,1,.34-.06.47.47,0,0,1,.36.18.73.73,0,0,1-.09,1,.78.78,0,0,1-.18.11,1.71,1.71,0,0,1-.91.25,5,5,0,0,1-.67-.05,2,2,0,0,1-.74-.25,1.5,1.5,0,0,1-.58-.64,2.76,2.76,0,0,1-.24-1.23V255a.89.89,0,0,1,.24-.6.77.77,0,0,1,.59-.24Z"/><path class="cls-1" d="M192,256.26h3.93a.7.7,0,0,1,.54.22.71.71,0,0,1,.23.55.72.72,0,0,1-.23.53.77.77,0,0,1-.54.22H192a.76.76,0,0,1-.77-.73h0a.71.71,0,0,1,.67-.75h.1Zm1.74-2.15a.75.75,0,0,1,.58.24.79.79,0,0,1,.24.6v7.67a1,1,0,0,0,.09.47.49.49,0,0,0,.28.25,1,1,0,0,0,.35.06.59.59,0,0,0,.32-.06,1,1,0,0,1,.35-.06.45.45,0,0,1,.36.18.72.72,0,0,1,.16.49.75.75,0,0,1-.42.65,1.78,1.78,0,0,1-.93.25,4.89,4.89,0,0,1-.66-.05,2,2,0,0,1-.73-.25,1.46,1.46,0,0,1-.59-.64,2.75,2.75,0,0,1-.23-1.23V255a.79.79,0,0,1,.24-.6.77.77,0,0,1,.59-.24Z"/><path class="cls-1" d="M202.8,265a4.89,4.89,0,0,1-2.37-.58,4,4,0,0,1-1.57-1.57,4.53,4.53,0,0,1-.56-2.28,4.9,4.9,0,0,1,.59-2.49,4.13,4.13,0,0,1,1.54-1.59,3.91,3.91,0,0,1,2-.55,3.5,3.5,0,0,1,1.53.32,4,4,0,0,1,1.3.89,4.43,4.43,0,0,1,1.24,3,.79.79,0,0,1-.27.55.89.89,0,0,1-.58.22h-6.41l-.39-1.41H205l-.32.3v-.41a1.82,1.82,0,0,0-.39-1,2.39,2.39,0,0,0-.86-.68,2.29,2.29,0,0,0-1-.23,3.37,3.37,0,0,0-1,.15,2.23,2.23,0,0,0-.81.51,2.64,2.64,0,0,0-.55.91,4,4,0,0,0-.22,1.41,3.27,3.27,0,0,0,.38,1.59,2.67,2.67,0,0,0,1,1,2.89,2.89,0,0,0,1.43.38,3.06,3.06,0,0,0,1-.13,2,2,0,0,0,.66-.3,5.2,5.2,0,0,0,.47-.35,1,1,0,0,1,.49-.14.66.66,0,0,1,.5.2.7.7,0,0,1,.2.49.83.83,0,0,1-.37.66A4.61,4.61,0,0,1,202.8,265Z"/><path class="cls-1" d="M213.06,256a2.68,2.68,0,0,1,1.88.6,2.87,2.87,0,0,1,.87,1.63l-.25-.08.11-.27a3.47,3.47,0,0,1,.65-.87,3.75,3.75,0,0,1,1-.72,3.08,3.08,0,0,1,1.3-.29,2.79,2.79,0,0,1,1.77.49,2.43,2.43,0,0,1,.88,1.3,6.19,6.19,0,0,1,.24,1.82V264a.83.83,0,0,1-.22.6.75.75,0,0,1-.6.25.82.82,0,0,1-.59-.25.85.85,0,0,1-.24-.6v-4.35a3.37,3.37,0,0,0-.15-1,1.55,1.55,0,0,0-.55-.76,1.68,1.68,0,0,0-1-.29,2.21,2.21,0,0,0-1.15.29,2,2,0,0,0-1,1.83V264a.8.8,0,0,1-.23.6.85.85,0,0,1-1.18,0h0a.8.8,0,0,1-.23-.6v-4.37a3.37,3.37,0,0,0-.16-1,1.43,1.43,0,0,0-.54-.76,1.71,1.71,0,0,0-1-.28,2.27,2.27,0,0,0-1.14.28,2,2,0,0,0-1,1.8V264a.79.79,0,0,1-.24.6.81.81,0,0,1-1.16,0l0,0a.8.8,0,0,1-.23-.6v-7a.83.83,0,0,1,1.65-.06V258l-.32.19a2.5,2.5,0,0,1,.39-.74,3,3,0,0,1,.67-.71,3.39,3.39,0,0,1,.89-.5A2.79,2.79,0,0,1,213.06,256Z"/><path class="cls-1" d="M228.67,256a3.63,3.63,0,0,1,2.07.58,4.15,4.15,0,0,1,1.43,1.57,5.06,5.06,0,0,1,.53,2.32,5.18,5.18,0,0,1-.53,2.35,4.26,4.26,0,0,1-1.42,1.59,3.63,3.63,0,0,1-2,.57,3.57,3.57,0,0,1-2.18-.72,3.47,3.47,0,0,1-.7-.68,1.62,1.62,0,0,1-.34-.68l.44-.21v4.61a.84.84,0,0,1-.23.6.85.85,0,0,1-1.18,0,.81.81,0,0,1-.24-.6V257a.84.84,0,0,1,.83-.84.83.83,0,0,1,.59.25.81.81,0,0,1,.23.59v1.15l-.26-.16a1.47,1.47,0,0,1,.32-.65,3.34,3.34,0,0,1,.67-.63,3.23,3.23,0,0,1,.92-.48A2.91,2.91,0,0,1,228.67,256Zm-.18,1.52a2.4,2.4,0,0,0-1.38.38,2.68,2.68,0,0,0-.92,1,3.69,3.69,0,0,0,0,3.05,2.53,2.53,0,0,0,.92,1,2.56,2.56,0,0,0,3.65-1,3.39,3.39,0,0,0,.34-1.53,3.3,3.3,0,0,0-.34-1.51,2.82,2.82,0,0,0-.91-1,2.44,2.44,0,0,0-1.36-.38Z"/><path class="cls-1" d="M234.76,256.26h3.89a.7.7,0,0,1,.55.22.75.75,0,0,1,.23.55.72.72,0,0,1-.23.53.8.8,0,0,1-.55.22h-3.89a.77.77,0,0,1-.79-.73.8.8,0,0,1,.25-.59A.71.71,0,0,1,234.76,256.26Zm1.74-2.15a.79.79,0,0,1,.82.76v7.75a1.12,1.12,0,0,0,.11.47.44.44,0,0,0,.28.25,1,1,0,0,0,.35.06.59.59,0,0,0,.32-.06,1,1,0,0,1,.34-.06.47.47,0,0,1,.36.18.62.62,0,0,1,.16.49.73.73,0,0,1-.42.65,1.78,1.78,0,0,1-.93.25,4.89,4.89,0,0,1-.66-.05,1.87,1.87,0,0,1-.73-.25,1.46,1.46,0,0,1-.59-.64,2.75,2.75,0,0,1-.23-1.23V255a.79.79,0,0,1,.24-.6.75.75,0,0,1,.58-.24Z"/><path class="cls-1" d="M95.25,285.67a4.64,4.64,0,0,1-2.36-.58,3.72,3.72,0,0,1-1.57-1.57,4.53,4.53,0,0,1-.56-2.28,5,5,0,0,1,.59-2.49,4.13,4.13,0,0,1,1.54-1.59,3.91,3.91,0,0,1,2-.55,3.81,3.81,0,0,1,1.53.32,4.62,4.62,0,0,1,1.3.89,4.3,4.3,0,0,1,.89,1.34,4.59,4.59,0,0,1,.35,1.68.77.77,0,0,1-.27.54.89.89,0,0,1-.58.22H91.7l-.39-1.4H97.5l-.31.29v-.41a1.93,1.93,0,0,0-.39-1,2.47,2.47,0,0,0-1.92-.91,3.37,3.37,0,0,0-1,.15,2,2,0,0,0-.81.51,2.52,2.52,0,0,0-.56.91,4.19,4.19,0,0,0-.21,1.41,3.38,3.38,0,0,0,.37,1.59,2.78,2.78,0,0,0,2.47,1.42,3.38,3.38,0,0,0,1-.12,2.46,2.46,0,0,0,.59-.28l.47-.35a1.08,1.08,0,0,1,.49-.15.64.64,0,0,1,.5.21.71.71,0,0,1,.19.48.82.82,0,0,1-.36.66,4,4,0,0,1-1.24.77A4.24,4.24,0,0,1,95.25,285.67Z"/><path class="cls-1" d="M101.15,276.76a.78.78,0,0,1,.68.35l5.64,7.1a.82.82,0,0,1,.17.5.79.79,0,0,1-.25.58.83.83,0,0,1-1.26-.11l-5.64-7.1a.77.77,0,0,1-.18-.5.79.79,0,0,1,.26-.59A.83.83,0,0,1,101.15,276.76Zm0,8.77a.86.86,0,0,1-.55-.21.68.68,0,0,1-.26-.53.77.77,0,0,1,.2-.52l2.62-3.25.85,1.35-2.2,2.81a.75.75,0,0,1-.64.35Zm5.62-8.77a.74.74,0,0,1,.56.22.68.68,0,0,1,.23.52,1.31,1.31,0,0,1,0,.28.64.64,0,0,1-.15.25l-2.61,3.26-.85-1.23,2.14-2.92a.8.8,0,0,1,.7-.38Z"/><path class="cls-1" d="M116.62,276.67a.87.87,0,0,1,.59.24.85.85,0,0,1,.24.62v7.14a.84.84,0,0,1-.23.6.86.86,0,0,1-1.19,0,.8.8,0,0,1-.23-.6v-1.19h.33a1.21,1.21,0,0,1-.24.66,3.32,3.32,0,0,1-.65.7,3.52,3.52,0,0,1-1,.56,3.37,3.37,0,0,1-1.21.23A3.66,3.66,0,0,1,111,285a4.21,4.21,0,0,1-1.44-1.61,5.5,5.5,0,0,1,0-4.69A4.18,4.18,0,0,1,111,277.2a3.58,3.58,0,0,1,2.06-.58,3.71,3.71,0,0,1,1.32.23,3.64,3.64,0,0,1,1,.6,3,3,0,0,1,.7.76,1.53,1.53,0,0,1,.25.78h-.52v-1.46a.88.88,0,0,1,.23-.6A.8.8,0,0,1,116.62,276.67Zm-3.37,7.47a2.35,2.35,0,0,0,1.36-.39,2.65,2.65,0,0,0,.91-1,3.19,3.19,0,0,0,.33-1.52,3.29,3.29,0,0,0-.33-1.54,2.65,2.65,0,0,0-.91-1,2.53,2.53,0,0,0-2.72,0,2.68,2.68,0,0,0-.92,1,3.42,3.42,0,0,0-.33,1.54,3.31,3.31,0,0,0,.33,1.52,2.68,2.68,0,0,0,.92,1A2.27,2.27,0,0,0,113.25,284.14Z"/><path class="cls-1" d="M124.52,276.66a2.72,2.72,0,0,1,1.88.6,2.87,2.87,0,0,1,.87,1.63l-.26-.08.12-.27a2.75,2.75,0,0,1,.65-.86,3.78,3.78,0,0,1,1-.73,3.13,3.13,0,0,1,1.31-.29,2.79,2.79,0,0,1,1.77.49,2.49,2.49,0,0,1,.88,1.3,6.68,6.68,0,0,1,.25,1.83v4.38a.83.83,0,0,1-1.4.6h0a.77.77,0,0,1-.24-.59V280.3a3.37,3.37,0,0,0-.15-1,1.53,1.53,0,0,0-.55-.77,1.88,1.88,0,0,0-1-.29,2.22,2.22,0,0,0-1.16.29,2.07,2.07,0,0,0-1,1.83v4.36a.8.8,0,0,1-.23.6.85.85,0,0,1-1.18,0h0a.84.84,0,0,1-.23-.6v-4.38a3.08,3.08,0,0,0-.16-1,1.49,1.49,0,0,0-.53-.77,1.78,1.78,0,0,0-1-.28,2.27,2.27,0,0,0-1.14.28,1.9,1.9,0,0,0-.77.77,2.06,2.06,0,0,0-.28,1v4.38a.8.8,0,0,1-.23.6.82.82,0,0,1-1.16,0h0a.85.85,0,0,1-.24-.6v-7a.85.85,0,0,1,.24-.61.82.82,0,0,1,1.41.61v1l-.31.18a2.5,2.5,0,0,1,.39-.74,2.79,2.79,0,0,1,.67-.7,3.8,3.8,0,0,1,.9-.51A2.87,2.87,0,0,1,124.52,276.66Z"/><path class="cls-1" d="M147.81,276.67a.87.87,0,0,1,.59.24.81.81,0,0,1,.24.61v7.14a.81.81,0,0,1-.24.6.77.77,0,0,1-.59.24.81.81,0,0,1-.6-.24.83.83,0,0,1-.22-.6v-1.19h.33a1.29,1.29,0,0,1-.24.66,3.65,3.65,0,0,1-.66.7,3.53,3.53,0,0,1-2.18.79,3.66,3.66,0,0,1-2.06-.59,4.21,4.21,0,0,1-1.44-1.61,5.36,5.36,0,0,1,0-4.69,4.13,4.13,0,0,1,1.43-1.59,3.54,3.54,0,0,1,2-.58,3.71,3.71,0,0,1,1.32.23,3.91,3.91,0,0,1,1,.6,2.77,2.77,0,0,1,.69.76,1.44,1.44,0,0,1,.25.78H147v-1.45a.83.83,0,0,1,.22-.6A.8.8,0,0,1,147.81,276.67Zm-3.37,7.47a2.35,2.35,0,0,0,1.36-.39,2.68,2.68,0,0,0,.92-1,3.47,3.47,0,0,0,.33-1.52,3.56,3.56,0,0,0-.33-1.54,2.68,2.68,0,0,0-.92-1,2.53,2.53,0,0,0-2.72,0,2.65,2.65,0,0,0-.91,1,3.43,3.43,0,0,0-.34,1.54,3.32,3.32,0,0,0,.34,1.52,2.63,2.63,0,0,0,.9,1,2.38,2.38,0,0,0,1.37.39Z"/><path class="cls-1" d="M155.83,276.61a3.06,3.06,0,0,1,1.81.49,2.53,2.53,0,0,1,.9,1.3,6,6,0,0,1,.26,1.83v4.43a.81.81,0,0,1-.24.6.85.85,0,0,1-1.18,0,.8.8,0,0,1-.23-.6v-4.41a3.38,3.38,0,0,0-.17-1,1.57,1.57,0,0,0-.56-.76,2,2,0,0,0-1.14-.29,2.33,2.33,0,0,0-1.19.29,2.16,2.16,0,0,0-.8.76,2.07,2.07,0,0,0-.29,1v4.41a.83.83,0,0,1-1.42.6.84.84,0,0,1-.23-.6v-7a.82.82,0,0,1,1.41-.6.85.85,0,0,1,.24.6v.91l-.3.17a2.29,2.29,0,0,1,.41-.73,3.66,3.66,0,0,1,1.62-1.21A3.14,3.14,0,0,1,155.83,276.61Z"/><path class="cls-1" d="M168.56,273.28a.79.79,0,0,1,.83.75h0v10.62a.81.81,0,0,1-.24.6.83.83,0,0,1-1.17,0h0a.85.85,0,0,1-.24-.6v-1.19h.32a1.26,1.26,0,0,1-.23.67,3.42,3.42,0,0,1-.65.72,3.81,3.81,0,0,1-1,.57,3.28,3.28,0,0,1-1.2.23,3.72,3.72,0,0,1-2.07-.59,4.19,4.19,0,0,1-1.44-1.6,5.41,5.41,0,0,1,0-4.68,4,4,0,0,1,1.43-1.6,3.76,3.76,0,0,1,3.31-.36,3.91,3.91,0,0,1,1,.6,3.17,3.17,0,0,1,.7.76,1.45,1.45,0,0,1,.26.78h-.52v-4.91a.85.85,0,0,1,.24-.6A.78.78,0,0,1,168.56,273.28Zm-3.37,10.86a2.38,2.38,0,0,0,1.37-.39,2.85,2.85,0,0,0,.92-1,3.78,3.78,0,0,0,0-3.09,3,3,0,0,0-.92-1,2.57,2.57,0,0,0-2.72,0,2.79,2.79,0,0,0-.93,1,3.71,3.71,0,0,0,0,3.09,2.79,2.79,0,0,0,.93,1,2.39,2.39,0,0,0,1.35.39Z"/><path class="cls-1" d="M176.59,284.14a.85.85,0,0,1-.13-.54.63.63,0,0,1,.35-.51.72.72,0,0,1,.49-.13.85.85,0,0,1,.48.26,3.56,3.56,0,0,0,1,.81,3.16,3.16,0,0,0,1.39.3,3.75,3.75,0,0,0,.67-.11,1.42,1.42,0,0,0,.6-.33,1,1,0,0,0,.25-.7.9.9,0,0,0-.27-.66,1.74,1.74,0,0,0-.69-.41c-.3-.11-.62-.21-.93-.29s-.71-.21-1-.33a4.15,4.15,0,0,1-1-.47,2.19,2.19,0,0,1-.7-.75,2.27,2.27,0,0,1-.28-1.14,2,2,0,0,1,.45-1.34,3,3,0,0,1,1.13-.88,3.81,3.81,0,0,1,1.53-.31,3.76,3.76,0,0,1,1,.13,4,4,0,0,1,1,.38,2.62,2.62,0,0,1,.85.7,1,1,0,0,1,.2.51.6.6,0,0,1-.28.52.64.64,0,0,1-.48.16.73.73,0,0,1-.46-.19,2.23,2.23,0,0,0-.81-.62,2.69,2.69,0,0,0-1.12-.21,2,2,0,0,0-.65.08,1.29,1.29,0,0,0-.58.33,1,1,0,0,0,0,1.33,1.85,1.85,0,0,0,.72.41,8.83,8.83,0,0,0,1,.3l1,.31a4,4,0,0,1,.91.48,2.46,2.46,0,0,1,.66.74,2.42,2.42,0,0,1,.26,1.15,2.23,2.23,0,0,1-.48,1.38,2.92,2.92,0,0,1-1.19.87,4,4,0,0,1-1.52.3,5.37,5.37,0,0,1-1.86-.34A3.44,3.44,0,0,1,176.59,284.14Z"/><path class="cls-1" d="M191.9,276.81a.82.82,0,0,1,.82.84V282a3.36,3.36,0,0,1-3,3.66,3.53,3.53,0,0,1-.65,0,3.62,3.62,0,0,1-2.69-1,3.73,3.73,0,0,1-1-2.69v-4.34a.85.85,0,0,1,.24-.6.82.82,0,0,1,1.16,0h0a.81.81,0,0,1,.24.61V282a2.29,2.29,0,0,0,.51,1.61,1.93,1.93,0,0,0,1.48.53,2.07,2.07,0,0,0,1.5-.53A2.2,2.2,0,0,0,191,282v-4.34a.85.85,0,0,1,.24-.6A.78.78,0,0,1,191.9,276.81Z"/><path class="cls-1" d="M199.81,276.61a3.58,3.58,0,0,1,2.06.58,4.13,4.13,0,0,1,1.43,1.59,5.43,5.43,0,0,1,0,4.69,4.32,4.32,0,0,1-1.42,1.61,3.55,3.55,0,0,1-2,.59,3.67,3.67,0,0,1-2.19-.75,2.66,2.66,0,0,1-.7-.68,1.46,1.46,0,0,1-.34-.68l.44-.21v1.41a.82.82,0,0,1-.8.83h0a.82.82,0,0,1-.59-.24.78.78,0,0,1-.23-.59V274.11a.8.8,0,0,1,.23-.6.73.73,0,0,1,.59-.23.8.8,0,0,1,.83.77v4.71l-.27-.16a1.72,1.72,0,0,1,.32-.65,4.12,4.12,0,0,1,.67-.65,3.57,3.57,0,0,1,.92-.5A3.42,3.42,0,0,1,199.81,276.61Zm-.19,1.52a2.45,2.45,0,0,0-1.37.39,2.76,2.76,0,0,0-.92,1,3.38,3.38,0,0,0-.33,1.53,3.56,3.56,0,0,0,.33,1.54,2.6,2.6,0,0,0,.92,1,2.54,2.54,0,0,0,2.73,0,2.61,2.61,0,0,0,.91-1.09,3.39,3.39,0,0,0,.34-1.53,3.12,3.12,0,0,0-.34-1.53,2.73,2.73,0,0,0-.91-1,2.4,2.4,0,0,0-1.36-.31Z"/><path class="cls-1" d="M210.39,276.66a2.72,2.72,0,0,1,1.88.6,3,3,0,0,1,.88,1.63l-.27-.08.12-.27a3.24,3.24,0,0,1,.66-.86,3.57,3.57,0,0,1,1-.73,3.13,3.13,0,0,1,1.31-.29,2.79,2.79,0,0,1,1.77.49,2.47,2.47,0,0,1,.87,1.3,6.27,6.27,0,0,1,.25,1.83v4.38a.77.77,0,0,1-.24.59.82.82,0,0,1-1.15,0l0,0a.77.77,0,0,1-.24-.59V280.3a3.08,3.08,0,0,0-.16-1,1.46,1.46,0,0,0-.54-.77,1.88,1.88,0,0,0-1-.29,2.18,2.18,0,0,0-1.14.29,2,2,0,0,0-1.08,1.77v4.36a.81.81,0,0,1-.22.59.86.86,0,0,1-1.19,0h0a.82.82,0,0,1-.24-.59v-4.38a3.37,3.37,0,0,0-.15-1,1.43,1.43,0,0,0-.54-.76,1.78,1.78,0,0,0-1-.28,2.3,2.3,0,0,0-1.15.28,2,2,0,0,0-.76.76,2,2,0,0,0-.28,1v4.38a.77.77,0,0,1-.24.59.73.73,0,0,1-.58.25.75.75,0,0,1-.6-.25.81.81,0,0,1-.22-.59v-7a.83.83,0,0,1,.22-.6.81.81,0,0,1,.6-.24.75.75,0,0,1,.58.24.81.81,0,0,1,.24.6v1l-.31.18a3.05,3.05,0,0,1,.38-.74,3.18,3.18,0,0,1,.67-.7,4,4,0,0,1,.9-.51A2.81,2.81,0,0,1,210.39,276.66Z"/><path class="cls-1" d="M222.33,275.65a1.13,1.13,0,0,1-.69-.17.72.72,0,0,1-.22-.59v-.26a.64.64,0,0,1,.23-.58,1.12,1.12,0,0,1,.69-.16,1.05,1.05,0,0,1,.71.17.68.68,0,0,1,.22.57v.26a.68.68,0,0,1-.23.6A1.17,1.17,0,0,1,222.33,275.65Zm.84,9a.88.88,0,0,1-.23.6.79.79,0,0,1-.6.24.82.82,0,0,1-.59-.24.85.85,0,0,1-.24-.6v-7.08a.85.85,0,0,1,.24-.6.81.81,0,0,1,.59-.23.76.76,0,0,1,.6.23.84.84,0,0,1,.23.6Z"/><path class="cls-1" d="M225.7,276.91h3.88a.82.82,0,0,1,.56.22.77.77,0,0,1,.21.56.68.68,0,0,1-.21.52.78.78,0,0,1-.56.22H225.7a.79.79,0,0,1-.56-.23.78.78,0,0,1,.08-1.1.76.76,0,0,1,.48-.19Zm1.73-2.15a.79.79,0,0,1,.6.24.84.84,0,0,1,.23.6v7.67a.89.89,0,0,0,.1.48.55.55,0,0,0,.27.25,1,1,0,0,0,.35.06,1,1,0,0,0,.33-.06.8.8,0,0,1,.34-.07.5.5,0,0,1,.36.18.79.79,0,0,1,.17.49.75.75,0,0,1-.44.66,1.86,1.86,0,0,1-.92.24,5,5,0,0,1-.67-.05,2,2,0,0,1-.73-.25,1.52,1.52,0,0,1-.59-.64,2.75,2.75,0,0,1-.23-1.23V275.6a.89.89,0,0,1,.24-.6A.82.82,0,0,1,227.43,274.76Z"/></g><circle id="point_4_circle" data-name="point 4 circle" class="cls-1" cx="152.56" cy="27.11" r="17.04"/><g id="_4" data-name=" 4"><path class="cls-2" d="M155,34.86a1,1,0,0,1-.72-.3,1,1,0,0,1-.29-.75V23.29l.37.13-4.46,5.7-.1-.27h7.29a1,1,0,0,1,1,.93h0a.91.91,0,0,1-.28.66,1,1,0,0,1-.69.27H148.4a1,1,0,0,1-.7-.3.94.94,0,0,1-.33-.71,1,1,0,0,1,.27-.71l6.56-8.26a1,1,0,0,1,.38-.31,1.1,1.1,0,0,1,.47-.1,1,1,0,0,1,1,1V33.83a1,1,0,0,1-.31.75A1,1,0,0,1,155,34.86Z"/></g></g></g></g></g><g id="Layer_2-2-2" data-name="Layer 2-2"><g id="Illustration_4" data-name="Illustration 4"><path id="Path_1134" data-name="Path 1134" class="cls-3" d="M125.81,147.88l-4.49,80.65h4.49l3.68-81.83Z"/><rect id="Rectangle_793" data-name="Rectangle 793" class="cls-4" x="67.44" y="191.85" width="56.05" height="12.17"/><path id="Path_1135" data-name="Path 1135" class="cls-3" d="M127.18,202.07v7.66H69.24c-2-1.46-4-3-6.06-4.56v-3.1Z"/><path id="Path_1136" data-name="Path 1136" class="cls-5" d="M138.72,182c-.17.75-.38,1.46-.59,2.18a28.86,28.86,0,0,0-1.54,6.35c-.2,2.88.6,6.18-1.41,8.27-.51.54-1.13.92-1.63,1.51a1.94,1.94,0,0,0-.21.29,4.27,4.27,0,0,0-.47,2.25,42,42,0,0,0,.34,4.89c.68,5.62,2,11.23.25,16.52a23.46,23.46,0,0,1-1.12,2.69,22.54,22.54,0,0,0-2.05,5.73c-.13,1.51-.19,3-.17,4.56l-2.64-.89c-5.4-1.8-10.71-3.78-16-5.94v-.26a17.83,17.83,0,0,0-.83-7.57c-1.43-5.19-3.37-10.38-4.6-15.6a37.46,37.46,0,0,1-.92-6.23v-3.27c0-1.25.12-2.72-.88-3.47a5.7,5.7,0,0,0-1.92-.71,11.58,11.58,0,0,1-3.06-2.47,4,4,0,0,0-3.56-1.05c-6.35,1.46-11,6.87-17,9.58a4.55,4.55,0,0,1-.72.3,11.07,11.07,0,0,0-2.16,1.12,2.42,2.42,0,0,0-1,1.38,5.17,5.17,0,0,0,0,1.84,9.45,9.45,0,0,1-.12,3,9,9,0,0,1-.31,1.13c-.2.67-3.88,17.19-5.34,16.15-2-1.42-20.52-3.48-25.06-8.28.58-1.72,4.64-31.21,5-33,.26-1,.34-2.06.67-3a12,12,0,0,1,1.55-2.8,38.36,38.36,0,0,1,8.8-8.68c3.51-2.52,7.57-4.5,10.71-7.42A15.76,15.76,0,0,0,74,157.22a1.69,1.69,0,0,0,.17-.29,5.41,5.41,0,0,0,.5-1.63c.21-1.26.21-2.69.3-3.9a40.42,40.42,0,0,0,11.62.34c4.49-.51,9-1.76,13.48-2.25a8.42,8.42,0,0,1,1-.08c1.46-.13,2.89-.13,4.35-.13,1.21,0,2.42,0,3.64.09l13.38.46a12.92,12.92,0,0,1,4.4.67,9.7,9.7,0,0,1,4,3.37c.12.17.24.37.38.54a16.67,16.67,0,0,1,2,4.06c0,.16.13.3.17.47.12.37.25.78.34,1.12s.12.63.21,1a35.91,35.91,0,0,0,1,4.69c0,.12.08.2.12.33.59,1.68,1.6,3.14,2.25,4.73a15.11,15.11,0,0,1,1.21,3.6A18.32,18.32,0,0,1,138.72,182Z"/><path id="Path_1137" data-name="Path 1137" class="cls-6" d="M98.12,94c-1.22-1-2.94-.25-4.32.38a29,29,0,0,1-3.59,1.29,1.56,1.56,0,0,1-.8.08c-.58-.12-.8-.79-1.21-1.21a2.74,2.74,0,0,0-2.89-.16,6.79,6.79,0,0,1-2.88.83c-1.13-.08-2-.87-3.1-.92-1.92,0-3.55,2.35-5.35,1.72-1.12-.38-2-1.84-3.1-1.43-.83.34-.92,1.51-1.43,2.25s-1.79,1.12-2.8,1.55a8,8,0,0,0-4.86,8.15,27.82,27.82,0,0,0,1.68,5.34c1.75,5.19,1.12,11,3.37,16,.29-.25.46-.38.7-.62a6.48,6.48,0,0,0-.37,4.68c.25.8.62,1.5.91,2.24a20.21,20.21,0,0,1,.72,2.64l2.47,10.88a70.61,70.61,0,0,1,2.09,12.84,41.28,41.28,0,0,1-.63,8.45c4.5-.75,8.54-2.72,13-2.67a36.33,36.33,0,0,1,5,.49,98.66,98.66,0,0,0,14.47,1,6.61,6.61,0,0,0,2.25-.3,13,13,0,0,0,1.72-1.12,7.81,7.81,0,0,1,3.89-.83c6.07-.12,11.87,2.09,17.91,2.89a21.73,21.73,0,0,0,.7-16.2,24.66,24.66,0,0,1-1.46-4.68,23.13,23.13,0,0,1-.08-3,21.32,21.32,0,0,0-1.38-7.53,9,9,0,0,1-.75-2.93,6.42,6.42,0,0,1,1-2.84,26.54,26.54,0,0,1,3.37-5.19,25.39,25.39,0,0,1,5-4l4.35-2.93a42.47,42.47,0,0,0-3-11.24,20,20,0,0,0-7.24-8.7,24.37,24.37,0,0,0-3.43-1.71,16,16,0,0,0-5.14-1.25,27,27,0,0,0-6.06.75C110.64,98.08,103.14,98,98.12,94Z"/><path id="Path_1138" data-name="Path 1138" class="cls-3" d="M145.88,152.45l-2.09,2.63L139.86,160l-4.49,5.73-1.26,1.59h-2.47l-60.78.08H31.05l-.62-2.13c-.3-1-.55-2.14-.76-3.18l-.13-.63,13.81-9h5.19l15.89-.07H81.84l45.09-.29h15.82l1.87-.71.13.17Z"/><path id="Path_1139" data-name="Path 1139" class="cls-7" d="M145,151.61l-.24.29-1.55,1.84L140,157.5l-6.74,7.86-59.07-1.5L29.6,162.74l-.14-.63a55.33,55.33,0,0,1-.84-11.05l4.94-2.55,1.13-.59,8.82-4.49,7.74-4,20.16,2.63,4.49.6,2,.24,3,.38h.25l46.39,6,5.16.67,3,.38,9.28,1.21Z"/><path id="Path_1140" data-name="Path 1140" class="cls-3" d="M122.1,158.36v1.12l-.29,6.28-1.5,34.54-.34,7.5-.84,19.2-.46,10.84-1.72-.55-2.67-.88,4.14-75.34.08-1.59,1.84-.58Z"/><path id="Path_1141" data-name="Path 1141" class="cls-3" d="M36.28,153.84l-.13,3.26-.21,4.73c-.58-1.51-1.12-3-1.67-4.61v-.17c-.26-.79-.51-1.58-.72-2.38Z"/><ellipse id="Ellipse_96" data-name="Ellipse 96" class="cls-8" cx="97.54" cy="111.17" rx="13.01" ry="17.57"/><ellipse id="Ellipse_97" data-name="Ellipse 97" class="cls-9" cx="97.54" cy="111.17" rx="13.01" ry="17.57"/><circle id="Ellipse_98" data-name="Ellipse 98" class="cls-10" cx="99.47" cy="100.55" r="18.12"/><path id="Path_1142" data-name="Path 1142" class="cls-11" d="M99.73,72.63a23.09,23.09,0,0,0-3.3.51,26.33,26.33,0,0,0-7.74,3.76,9.32,9.32,0,0,0-2.88,2.38c-1.22,1.8-.76,4.1-1.43,6.06a13.87,13.87,0,0,1-1.55,2.89,33.87,33.87,0,0,0-3.06,8.33c-.16.59-.2,1.37.42,1.63a1.67,1.67,0,0,0,1.12-.12c2.06-.68,4.61-.89,6.11.49s1.38,3.78,3.18,4.82c2.06,1.21,5.27-.26,7.11,1.12.8.59,1.12,1.6,1.76,2.25,1.51,1.72,4.5,1.63,6.9,1.26,1.38-.22,3.1-.34,4,.67.41.46.55,1.12,1,1.51a2.55,2.55,0,0,0,3.21-.43A22.69,22.69,0,0,0,116.5,107c1.34-1.71,3.72-2.63,5.1-4.3a10.47,10.47,0,0,0,1.84-4.9l1.12-6.35c.46-2.56.92-5.41-.54-7.66-.5-.8-1.25-1.51-1.71-2.35-.3-.58-.46-1.12-.8-1.71a6.74,6.74,0,0,0-1.46-1.46L117.24,76a20.6,20.6,0,0,0-3-2.25C110.23,71.6,104.26,72.18,99.73,72.63Z"/><path id="Path_1143" data-name="Path 1143" class="cls-8" d="M49.45,115c-.67.71-1.29,1.46-2,2.13a21,21,0,0,1-1.94,1.59c-1.13.83-2.17,1.67-3.26,2.59a20.26,20.26,0,0,0-3,3c-1.5,2.06-2.24,4.56-3.64,6.65-1.24,1.84-3,3.37-4.26,5.19a8.44,8.44,0,0,0-1.22,2.55,11.37,11.37,0,0,0-.24,2.73,19.85,19.85,0,0,0,.24,4.49,6.56,6.56,0,0,0,2.14,3.85,9.33,9.33,0,0,0,3.8,1.63,3.25,3.25,0,0,0,2.09,0,3,3,0,0,0,1.22-1l3.43-4c2.3-2.68,4.69-5.4,7.86-6.94,1-.5,2-.84,3-1.35A16.37,16.37,0,0,0,62,127.37c.29-1.12.46-2.25.68-3.37l.5-3.08a.72.72,0,0,0,0-.46.89.89,0,0,0-.38-.41,59.6,59.6,0,0,1-6.74-6.36,18.06,18.06,0,0,0-1.51-1.75c-.7-.59-.67-.54-1.5,0A17.54,17.54,0,0,0,49.45,115Z"/><path id="Path_1144" data-name="Path 1144" class="cls-3" d="M73,134.27a.55.55,0,1,0-1.08.22.64.64,0,0,0,.08.19h0l-.29.12,8.46,17.32,1.5-.75-8.45-17.32Z"/><path id="Path_1145" data-name="Path 1145" class="cls-10" d="M49.45,115c-.67.71-1.29,1.46-2,2.13a21,21,0,0,1-1.94,1.59c-1.13.83-2.17,1.67-3.26,2.59a20.26,20.26,0,0,0-3,3c-1.5,2.06-2.24,4.56-3.64,6.65-1.24,1.84-3,3.37-4.26,5.19a8.44,8.44,0,0,0-1.22,2.55,11.37,11.37,0,0,0-.24,2.73,19.85,19.85,0,0,0,.24,4.49,6.56,6.56,0,0,0,2.14,3.85,9.33,9.33,0,0,0,3.8,1.63,3.25,3.25,0,0,0,2.09,0,3,3,0,0,0,1.22-1l3.43-4c2.3-2.68,4.69-5.4,7.86-6.94,1-.5,2-.84,3-1.35A16.37,16.37,0,0,0,62,127.37c.29-1.12.46-2.25.68-3.37l.5-3.08a.72.72,0,0,0,0-.46.89.89,0,0,0-.38-.41,59.6,59.6,0,0,1-6.74-6.36,18.06,18.06,0,0,0-1.51-1.75c-.7-.59-.67-.54-1.5,0A17.54,17.54,0,0,0,49.45,115Z"/><path id="Path_1146" data-name="Path 1146" class="cls-10" d="M133.32,146.19a13.24,13.24,0,0,1-.84,5.32,2.77,2.77,0,0,1-1.63,1.62,2.93,2.93,0,0,1-1.38,0,50.19,50.19,0,0,0-16.56,1.3c1.46-2.89.63-6.36,1-9.54.12-.88.29-1.72.38-2.59.29-3.09-1.06-6.15-1.68-9.2a20,20,0,0,1,0-8.08,4.49,4.49,0,0,1,2.34-3.23,13.32,13.32,0,0,1,7.58-1.3c1.71.12,5.22,0,6.65,1s2.09,5.1,2.5,6.89a57.46,57.46,0,0,1,1.31,8.46A81.09,81.09,0,0,1,133.32,146.19Z"/><path id="Path_1147" data-name="Path 1147" class="cls-1" d="M45.61,150.9l10.21,6.74L101.71,156l-30.32-5.09Z"/><path id="Path_1148" data-name="Path 1148" class="cls-6" d="M59.08,100.62c-1.68,1.46-3.1,3.22-4.69,4.77a64.08,64.08,0,0,1-7.12,5.82A5.29,5.29,0,0,1,51,114.93c.12.41.16.84.29,1.25a6.91,6.91,0,0,0,1.59,2.55c2.89,3.23,6.9,5.62,8.57,9.63a.85.85,0,0,0,.34.49.64.64,0,0,0,.43,0,5.84,5.84,0,0,0,3.67-2.59,26.6,26.6,0,0,0,4.82-8.49,15.25,15.25,0,0,0,.08-9.63,25.14,25.14,0,0,0-2.25-4.34c-.75-1.22-1.46-2.43-2.25-3.64-.37-.63-.87-2-1.63-2.25C63.1,97.23,60.1,99.58,59.08,100.62Z"/><path id="Path_1149" data-name="Path 1149" class="cls-6" d="M129.08,118l2.42,5.62a17.61,17.61,0,0,0-15.81,2.21,8.87,8.87,0,0,0-3.26,3.81,1.64,1.64,0,0,1-1.62-.63,2.91,2.91,0,0,1-.59-1.72,13.69,13.69,0,0,1,1.42-6.35,8,8,0,0,1,1.46-2.67,8.83,8.83,0,0,1,2.47-1.82,53.69,53.69,0,0,1,9-3.93c1.31-.42,2.69-.42,3.37.8C128.66,114.77,128.42,116.43,129.08,118Z"/><path id="Path_1150" data-name="Path 1150" class="cls-8" d="M45.69,133.18c.58.5,1.12,1,1.76,1.5a12,12,0,0,0,2.09,1.12l2.81,1.34a12.67,12.67,0,0,0,2.72,1.12c1.21.34,2.47.34,3.64.68,1.5.37,2.88,1.12,4.39,1.58a5,5,0,0,0,4.49-.41c.8-.59,1.38-1.55,2.34-1.72a3.15,3.15,0,0,1,1.79.5L79,142.7a5.63,5.63,0,0,1,2.52,2,1.93,1.93,0,0,1-.7,2.62l-.23.11c-.37,0-.75.07-1.12.08a.83.83,0,0,0-.83.63,1.2,1.2,0,0,0,.17.67,2.85,2.85,0,0,1,0,2.39,1.7,1.7,0,0,1-2.06.84c.13,1.12-1,1.87-2.13,2.17-2.67.76-5.53.3-8.24-.16a11.76,11.76,0,0,1-3.14-.84c-.46-.22-.92-.54-1.38-.76a9.45,9.45,0,0,0-4.22-.46c-6.62.13-13.14-1.12-19.62-2.34a9.09,9.09,0,0,1-3.47-1.13,6.41,6.41,0,0,1-2.37-6.3,18.71,18.71,0,0,1,2.68-6.52L36.37,133a3.36,3.36,0,0,1,.79-1.12C39.33,130.33,43.77,131.63,45.69,133.18Z"/><path id="Path_1151" data-name="Path 1151" class="cls-10" d="M45.69,133.18c.58.5,1.12,1,1.76,1.5a12,12,0,0,0,2.09,1.12l2.81,1.34a12.67,12.67,0,0,0,2.72,1.12c1.21.34,2.47.34,3.64.68,1.5.37,2.88,1.12,4.39,1.58a5,5,0,0,0,4.49-.41c.8-.59,1.38-1.55,2.34-1.72a3.15,3.15,0,0,1,1.79.5L79,142.7a5.63,5.63,0,0,1,2.52,2,1.93,1.93,0,0,1-.7,2.62l-.23.11c-.37,0-.75.07-1.12.08a.83.83,0,0,0-.83.63,1.2,1.2,0,0,0,.17.67,2.85,2.85,0,0,1,0,2.39,1.7,1.7,0,0,1-2.06.84c.13,1.12-1,1.87-2.13,2.17-2.67.76-5.53.3-8.24-.16a11.76,11.76,0,0,1-3.14-.84c-.46-.22-.92-.54-1.38-.76a9.45,9.45,0,0,0-4.22-.46c-6.62.13-13.14-1.12-19.62-2.34a9.09,9.09,0,0,1-3.47-1.13,6.41,6.41,0,0,1-2.37-6.3,18.71,18.71,0,0,1,2.68-6.52L36.37,133a3.36,3.36,0,0,1,.79-1.12C39.33,130.33,43.77,131.63,45.69,133.18Z"/><path id="Path_1152" data-name="Path 1152" class="cls-10" d="M124.26,137.69c-1.46.71-3.18.75-4.73,1.29a29,29,0,0,0-4.27,2.25c-3.68,2.16-8,2.9-12.09,3.62a33.91,33.91,0,0,1-7.65.78c-3.44-.17-6.74-1.29-10.11-2.17S78.52,142,75.22,143a11.49,11.49,0,0,0-7.5,7.19,16.35,16.35,0,0,0-.67,6.37c.71.49,1.67-.21,2-1a4.2,4.2,0,0,1,1.35-2.18c1.29.42,1.59,2.14,2.63,3a4.85,4.85,0,0,0,2.39.79l4.3.63a3.38,3.38,0,0,0,3-.5c.33-.39.63-.8.92-1.21a3.38,3.38,0,0,1,2.84-.8c3.18.34,6.15,2.38,9.34,1.88a17.28,17.28,0,0,0,3.13-1c6.15-2.18,13-.83,19.37-2.09a42.94,42.94,0,0,0,7.11-2.18,12.79,12.79,0,0,0,3.6-1.8,7.5,7.5,0,0,0,2.92-6.74,7.7,7.7,0,0,0-2.72-5,9.82,9.82,0,0,0-1.77-1.51C126.36,136.34,125.24,137.23,124.26,137.69Z"/><g id="Group_244" data-name="Group 244" class="cls-12"><path id="Path_1153" data-name="Path 1153" d="M114.46,107.45a11,11,0,0,1-1-1.51c-.84-1-2.55-.84-4-.67-2.43.33-5.39.41-6.9-1.26-.67-.71-1-1.72-1.76-2.25-1.88-1.41-5,0-7.11-1.12-1.8-1-1.67-3.47-3.18-4.82s-4.1-1.12-6.11-.49a1.55,1.55,0,0,1-1.12.12c-.63-.21-.58-1-.42-1.63a33.5,33.5,0,0,1,3.06-8.39,21,21,0,0,0,1.55-2.88c.63-1.8.29-3.81,1.12-5.52a7.4,7.4,0,0,0-2.24,2c-1.22,1.8-.76,4.1-1.42,6.06A15.29,15.29,0,0,1,83.39,88a33.85,33.85,0,0,0-3.08,8.32c-.16.59-.21,1.38.42,1.63a1.61,1.61,0,0,0,1.12-.12c2.05-.68,4.61-.88,6.11.5s1.38,3.76,3.18,4.81c2,1.21,5.27-.25,7.11,1.12.8.59,1.12,1.59,1.75,2.25,1.52,1.72,4.44,1.64,6.91,1.26,1.38-.21,3.1-.34,4,.67.42.46.54,1.12,1,1.5a2.56,2.56,0,0,0,3.25-.31,7.36,7.36,0,0,0,1.34-1.84A2,2,0,0,1,114.46,107.45Z"/><path id="Path_1154" data-name="Path 1154" d="M119.62,104.39c-.17.25-.33.46-.5.75a14.72,14.72,0,0,0,3-2.5q.31-.39.6-.81A12.14,12.14,0,0,0,119.62,104.39Z"/></g><path id="Path_1155" data-name="Path 1155" class="cls-3" d="M165.3,147.19l.87,81.28,3.94-.58-.84-80.7Z"/><path id="Path_1156" data-name="Path 1156" class="cls-3" d="M185.94,161.92l.84,81.28,4-.59-.84-80.69Z"/><path id="Path_1157" data-name="Path 1157" class="cls-3" d="M247.75,234.08h0v-4.4l-.16-25.13-.26-39.31v-3.37h-4v3.27l.12,21v9.11h0v7.37l.09,12.76V223h0v19.37l.34-.63c.49-1,1-2.06,1.5-3.1Z"/><path id="Path_1158" data-name="Path 1158" class="cls-13" d="M169.31,178.55l-2.25,3.37,2.25,15.44,19.25,5.27h31.16l18.7,1.12,8.92-6.11-1.56-10.45L239,178.53Z"/><path id="Path_1159" data-name="Path 1159" class="cls-14" d="M167.05,181.57,165.93,191s-5.94,18.44,41.91,17.32,39.66-4.89,39.66-4.89l-.29-10.92s1.67,5.14-22.68,4.49-47-3-47-3S169,195.49,167.05,181.57Z"/><path id="Path_1160" data-name="Path 1160" class="cls-15" d="M206.92,103.58a13.8,13.8,0,0,0-6.19,6.33,40.42,40.42,0,0,0-2.93,8.49,79.43,79.43,0,0,0-2,9.28,28.1,28.1,0,0,0,2.38,16.48,18.57,18.57,0,0,0,12.84,10,24.54,24.54,0,0,0,6.52.09A51.7,51.7,0,0,0,229,151.73c3.89-1.29,7.94-3.37,9.66-7.06a16.24,16.24,0,0,0,1.05-7,74.87,74.87,0,0,0-2.94-19.21,16.15,16.15,0,0,0-2.24-5.14,16.78,16.78,0,0,0-4.19-3.69C223.78,105.13,215.09,99.91,206.92,103.58Z"/><path id="Path_1161" data-name="Path 1161" class="cls-9" d="M206.92,103.58a13.8,13.8,0,0,0-6.19,6.33,40.42,40.42,0,0,0-2.93,8.49,79.43,79.43,0,0,0-2,9.28,28.1,28.1,0,0,0,2.38,16.48,18.57,18.57,0,0,0,12.84,10,24.54,24.54,0,0,0,6.52.09A51.7,51.7,0,0,0,229,151.73c3.89-1.29,7.94-3.37,9.66-7.06a16.24,16.24,0,0,0,1.05-7,74.87,74.87,0,0,0-2.94-19.21,16.15,16.15,0,0,0-2.24-5.14,16.78,16.78,0,0,0-4.19-3.69C223.78,105.13,215.09,99.91,206.92,103.58Z"/><path id="Path_1162" data-name="Path 1162" class="cls-16" d="M203.85,126.35a14.64,14.64,0,0,0,2.85,3.56c2.68,2.33,6.15,2.67,9.41,2.81,2.64.07,5.61-.09,7.29-2.69a11.89,11.89,0,0,0,1.37-4.1,222.44,222.44,0,0,0,3.93-27.06h7.49c3.27,17.53,3,35.77,2.68,53.75l-.42,26.23-4.81-.63c-11.47-1.55-23-3.05-34.51-3.37a155.14,155.14,0,0,0-20.22.84l10.5-39.45a77.23,77.23,0,0,0,3.06-15.72c.46-7.86-8.42,1.93-6-5.31.2-.59,2.75-.54,3.21-.83s2.25-3.52,2.73-3.44c1,.17,7.6,10.62,10-5,1,1.12-4.81,3-5.19,4.85-.63,3.22,12.51-12.36,12.51-9C209.73,107.86,200.81,121.54,203.85,126.35Z"/><path id="Path_1163" data-name="Path 1163" class="cls-14" d="M247.75,209.38h0c1.25-1.67,2.47-3.44,3.56-5.19-.59-1.21-1.18-2.39-1.68-3.64a34.77,34.77,0,0,1-1.64-5.91c-.17-.67-.29-1.33-.41-2a132.19,132.19,0,0,1-3.37-22.38V166a48.33,48.33,0,0,1,.33-5.1l.13-1a.34.34,0,0,1,0-.2l19.24-.72h1.63a5.77,5.77,0,0,0,3.22-.75c1.55-1.06,1.72-3.22,1.72-5.11a74.07,74.07,0,0,0-1.6-14c-.71-3.47-1.75-7-4.1-9.7-1.92-2.18-4.68-3.81-5.68-6.52a26,26,0,0,0-1-3.1,11.12,11.12,0,0,0-2-2.43,33.72,33.72,0,0,1-6.48-9,27.24,27.24,0,0,0-3.9-6.51,1.27,1.27,0,0,1-.21-.25,3.66,3.66,0,0,0-4.49-1,7.15,7.15,0,0,0-.88.54h0a10.92,10.92,0,0,0-1.67,1.59,37.87,37.87,0,0,0-6.89,11.66,35.36,35.36,0,0,0-1.25,4.27c-.26,1.12-.42,2.13-.59,3.22a76.1,76.1,0,0,0-.5,12.35c.08,3.77.25,7.57.58,11.34.08.92.17,1.84.3,2.73q.31,2.69.75,5.39c.12.67.24,1.38.38,2a2.62,2.62,0,0,0,.12.54v.08a48.21,48.21,0,0,1,.88,4.77,2.91,2.91,0,0,1,0,.59,21.18,21.18,0,0,1,0,2.76c-.08,1.12-.17,2.18-.21,3.26V170a24.78,24.78,0,0,0,.46,3.93,24.18,24.18,0,0,0,2.47,6.91c.13.21.21.42.33.58,1.43,2.55,3.27,5,4.56,7.53a32.27,32.27,0,0,1,2.56,7.4c.21.84.38,1.72.54,2.56.25,1.34.51,2.72.76,4.1a.76.76,0,0,0,.09.42c.33,1.79.67,3.64,1.12,5.39.26,1,.55,2,.89,3.05Z"/><path id="Path_1164" data-name="Path 1164" class="cls-17" d="M244,180.66a3.14,3.14,0,0,1,0,.75,28.88,28.88,0,0,1-.33,3.72,25.48,25.48,0,0,1-1.22,4.94,16,16,0,0,1-1.46,3,15.18,15.18,0,0,1-1.79,2.35c-1.72,1.75-4.15,2.35-6.54,3.1a16.38,16.38,0,0,0-3.13,1.29c-.17.09-.34.21-.54.34l-3,2a9.5,9.5,0,0,0-2.5,2.14c-.09.17-.22.29-.3.46a9.43,9.43,0,0,0-.88,2.64c-1.54,6.4-3.09,12.83-4.14,19.37-.09.42-.13.88-.21,1.29v.13a.11.11,0,0,0,0-.08,167,167,0,0,1-23.58,12l-1.85-14.7a17.7,17.7,0,0,1-.16-3.64c.16-1.93,1-3.73,1.12-5.61a9.66,9.66,0,0,0-1-5.39,5.86,5.86,0,0,1-.83-2,1.25,1.25,0,0,1,1-1.45h0a2.59,2.59,0,0,0,.46-2.34,6.47,6.47,0,0,0-.38-1.3c-.5-1.12-1.13-2.47-.68-3.69a1,1,0,0,0,.13-.7h0c-.08-.34-.46-.46-.68-.71-.37-.51,0-1.12.22-1.75a8,8,0,0,0,.38-1.93,5.33,5.33,0,0,1,.08-1.13,9.07,9.07,0,0,1,.24-1.46,11.48,11.48,0,0,1,4.65-6.65c1.13-.75,2.34-1.29,3.47-2a31.52,31.52,0,0,0,3.3-2.55c2.52-2.09,5.11-4,7.79-5.86a93.54,93.54,0,0,1,9-5.44c.68-.37,1.34-.71,2-1s1.46-.76,2.18-1.13c2.33-1.12,5-.7,7.57,0,1.12.3,2.13.68,3.17,1a14.48,14.48,0,0,1,2.89,1.31,10.59,10.59,0,0,1,5,5.81h0A14.08,14.08,0,0,1,244,180.66Z"/><path id="Path_1165" data-name="Path 1165" class="cls-11" d="M244,180.66a3.14,3.14,0,0,1,0,.75,28.88,28.88,0,0,1-.33,3.72,25.48,25.48,0,0,1-1.22,4.94,16,16,0,0,1-1.46,3,15.18,15.18,0,0,1-1.79,2.35c-1.72,1.75-4.15,2.35-6.54,3.1a16.38,16.38,0,0,0-3.13,1.29c-.17.09-.34.21-.54.34l-3,2a9.5,9.5,0,0,0-2.5,2.14c-.09.17-.22.29-.3.46a9.43,9.43,0,0,0-.88,2.64c-1.54,6.4-3.09,12.83-4.14,19.37-.09.42-.13.88-.21,1.29v.13a.11.11,0,0,0,0-.08,167,167,0,0,1-23.58,12l-1.85-14.7a17.7,17.7,0,0,1-.16-3.64c.16-1.93,1-3.73,1.12-5.61a9.66,9.66,0,0,0-1-5.39,5.86,5.86,0,0,1-.83-2,1.25,1.25,0,0,1,1-1.45h0a2.59,2.59,0,0,0,.46-2.34,6.47,6.47,0,0,0-.38-1.3c-.5-1.12-1.13-2.47-.68-3.69a1,1,0,0,0,.13-.7h0c-.08-.34-.46-.46-.68-.71-.37-.51,0-1.12.22-1.75a8,8,0,0,0,.38-1.93,5.33,5.33,0,0,1,.08-1.13,9.07,9.07,0,0,1,.24-1.46,11.48,11.48,0,0,1,4.65-6.65c1.13-.75,2.34-1.29,3.47-2a31.52,31.52,0,0,0,3.3-2.55c2.52-2.09,5.11-4,7.79-5.86a93.54,93.54,0,0,1,9-5.44c.68-.37,1.34-.71,2-1s1.46-.76,2.18-1.13c2.33-1.12,5-.7,7.57,0,1.12.3,2.13.68,3.17,1a14.48,14.48,0,0,1,2.89,1.31,10.59,10.59,0,0,1,5,5.81h0A14.08,14.08,0,0,1,244,180.66Z"/><path id="Path_1166" data-name="Path 1166" class="cls-3" d="M217.08,140.82a.58.58,0,0,0-.7-.29.55.55,0,0,0-.3.71h0l-.3.12,8.45,17.32,1.5-.75-8.41-17.27Z"/><path id="Path_1167" data-name="Path 1167" class="cls-10" d="M228.63,88.7c10.67,0,25.39,8.92,19.33,17.83-7.4,10.88-8.74,15.56-12.93,18.49a11.21,11.21,0,0,1-12.83-.21c-4.4-3.1-7-8.24-10.72-17.7C207.55,97.07,218,88.7,228.63,88.7Z"/><path id="Path_1168" data-name="Path 1168" class="cls-14" d="M202.54,103c-2.13-.24-4.27-1.21-6.37-.75a9.19,9.19,0,0,0-3.55,1.93,42.74,42.74,0,0,0-9.83,11.23,5.77,5.77,0,0,0-.93,2.14,6.24,6.24,0,0,0,.39,2.64c1.92,5.73,6.06,10.5,7.95,16.23.68,2.12-.14,4.76,0,7.32.2,3.75.78,7.49-.17,11.5A78.19,78.19,0,0,1,181.28,177a12.57,12.57,0,0,1-2,2.75c-1,1-2.43,1.72-3,3a16.4,16.4,0,0,0-.58,1.8c-.59,1.71-1.92,3.13-2,4.94a11.12,11.12,0,0,0,1,4,10.73,10.73,0,0,1-.21,6.81c-1.42,3.94-5.18,7.53-4.09,11.55,2.42-.72,5.14-1.6,6.26-3.85a6.89,6.89,0,0,1,1.31-2.35c1.38-1.12,3.68-.12,5.14-1.12a3.2,3.2,0,0,0,.64-3.78A39.3,39.3,0,0,1,182,197c-.67-2.38.38-4.85.21-7.32-.07-1.12-.41-2.24-.46-3.37a7.86,7.86,0,0,1,2.77-5.72,22.6,22.6,0,0,1,5.56-3.43l7.4-3.68c2.68-1.34,5.61-3,6.53-5.82a11.6,11.6,0,0,0,.34-3.37c.25-17.15,4.56-33.93,8.82-50.54a63.24,63.24,0,0,1,2.34-7.62c1-2.47,2.94-4.42,3.89-6.73C213.67,98.79,208.48,103.72,202.54,103Z"/><path id="Path_1169" data-name="Path 1169" class="cls-18" d="M233.7,204c.67,4,1,8,1.38,12.05a137.88,137.88,0,0,1-16.15,11.3l-1,.59v.12a.11.11,0,0,0,0-.08,4.19,4.19,0,0,0-2.13-2.1l-6.36-13.21a36.38,36.38,0,0,1-2.84-7.32v-.17c-.42-2-.54-4.05-.8-6.06a17.82,17.82,0,0,0-.75-3.37c-.34-1-.79-1.93-1.21-2.89a10.08,10.08,0,0,1-1-3.64,2.27,2.27,0,0,0-.17-1.18,3.34,3.34,0,0,0-.75-.75,3,3,0,0,1-1-2.67c-1.71.08-2.63,1.92-3.36,3.47a20,20,0,0,1-2.43,4.27,7.7,7.7,0,0,1-2.67,2.24,2,2,0,0,1-.3.14c-2.39,1-5.15.67-7.7.2a14.47,14.47,0,0,1-6.36-2.25l-.21-.17a10.09,10.09,0,0,1-1.42-1.5,16.41,16.41,0,0,1-2.54-7.36,4.43,4.43,0,0,1-.09-.72,26.71,26.71,0,0,1-.21-5.51,11.92,11.92,0,0,1,.13-1.34l.12-.88h0c.08-.46.17-.92.25-1.43a13.74,13.74,0,0,1,1.42-4.64,7.7,7.7,0,0,1,2.09-2.24c.29-.25.63-.46.92-.71a12.6,12.6,0,0,1,1.6-1,24,24,0,0,1,4.27-2.05c.33-.12.7-.24,1-.38a8.07,8.07,0,0,1,4.3-.34,24.23,24.23,0,0,0,3.9.22,95,95,0,0,0,10-1.13c4.6-.58,9.55-.61,13.56,1.72l.58.34a16.2,16.2,0,0,1,4.85,5.14,9.44,9.44,0,0,1,.75,1.31,24.35,24.35,0,0,1,1.51,3.13,4.09,4.09,0,0,1,.43,1.72v.34c-.08.41-.22.79-.3,1.21-.16,1.55,1.13,2.84,1.63,4.31a17.82,17.82,0,0,1,.46,3,15.22,15.22,0,0,0,1.6,4,44.65,44.65,0,0,1,2.5,6.32c.51,1.51.92,3,1.3,4.61.13.49.25,1,.34,1.5A33.48,33.48,0,0,1,233.7,204Z"/><path id="Path_1170" data-name="Path 1170" class="cls-3" d="M263.9,168.09v2h-.76l-4.56-.09-11.23-.12h-8.66L232,169.8l-14.14-.17-24.51-.33-8.87-.13h-10.8L159.41,169h-4.8l-.54-1.46L150,156.75l-.76-1.92.59-2.25,2.55,1.72,1.55.17,25.83,3.21,4.85.63,10.31,1.25L205,160.82l4,.49,23.35,2.89,6.53.84,5.39.67,19.16,2.38Z"/><path id="Path_1171" data-name="Path 1171" class="cls-7" d="M149.78,152.65l5.1,13.3,109,2.24V153.77Z"/><path id="Path_1172" data-name="Path 1172" class="cls-3" d="M170.08,161.21l.89,81.28,3.93-.59-.84-80.69Z"/><path id="Path_1173" data-name="Path 1173" class="cls-1" d="M248.05,160.77l-41.56.84-12.88-4.26,34.56-2Z"/><path id="Path_1174" data-name="Path 1174" class="cls-15" d="M203.85,144.9a2.14,2.14,0,0,0-1.53,2.09l-.71,4.14a1.82,1.82,0,0,0,0,1.13.67.67,0,0,0,1,.24,3.85,3.85,0,0,0,.5,2.35,1.62,1.62,0,0,0,2.13.54,1.37,1.37,0,0,0,1.88.47h0a.66.66,0,0,0,.17-.12c-.42.12-.42.75-.13,1a1.64,1.64,0,0,0,1.13.46A27.92,27.92,0,0,0,223,155.36c.42-.17-.71-5.61-.83-6.14-.3-1.3-.42-2.89-1.51-3.78-2.64-2.08-7.32-2.5-10.5-2.24A17.41,17.41,0,0,0,203.85,144.9Z"/><path id="Path_1175" data-name="Path 1175" class="cls-19" d="M238.21,145.56c-10.24.21-20.71.37-30.45-2.71a21.05,21.05,0,0,1-.17,11l47.93,4c2,.17,10.45,1.12,12.42.63s-16.61-6.61-15.86-8.49c2.06-5.23,9-8.28,4-8.5C249.72,141.25,244.53,145.43,238.21,145.56Z"/><path id="Path_1176" data-name="Path 1176" class="cls-14" d="M238.5,146.06c-10.24.21-20.7.38-30.44-2.72a21.05,21.05,0,0,1-.17,11l47.9,4c2,.17,10.45,1.13,12.42.63s1.5-2.93,2.24-4.81c2.06-5.23-9.16-12-14.14-12.17C250,141.76,244.83,146,238.5,146.06Z"/><path id="Path_1177" data-name="Path 1177" class="cls-10" d="M228.72,146.75a2.17,2.17,0,0,1,1.55,2.1L231,153a1.94,1.94,0,0,1,0,1.12.67.67,0,0,1-1,.25,3.85,3.85,0,0,1-.5,2.35,1.62,1.62,0,0,1-2.14.53,1.37,1.37,0,0,1-1.88.46l-.16-.12c.42.12.42.75.16,1a1.81,1.81,0,0,1-1.13.46,27.93,27.93,0,0,1-14.68-1.85c-.42-.16.71-5.61.84-6.15.29-1.29.42-2.89,1.5-3.76,2.64-2.09,7.32-2.51,10.5-2.25A18.41,18.41,0,0,1,228.72,146.75Z"/><path id="Path_1178" data-name="Path 1178" class="cls-14" d="M164.68,139.14a21.16,21.16,0,0,0-2.5,3.85c-1.13,2.69-1,5.73-.8,8.66a4.9,4.9,0,0,0,.58,2.43,4,4,0,0,0,1.46,1.26,21.82,21.82,0,0,0,8.12,2.13q6.45.69,12.93.88c10.7.24,21.59-.63,32,1.79a8,8,0,0,1-.59-6.74,23.25,23.25,0,0,1,3.47-6.11c-4.77-1.5-9.91.83-14.89.63-5.14-.26-9.87-3.22-15-3.22a14.64,14.64,0,0,1-3.37-.12,2.77,2.77,0,0,1-2.25-2.18c1.38.29,2.67-.88,3.22-2.14s.68-2.71,1.22-4c1.38-3.21,5.05-4.71,7.35-7.35a2.4,2.4,0,0,0,.72-1.46,2.08,2.08,0,0,0-.58-1.26c-1.93-2.55-4.82-4-7.2-5.94-.84-.71-2.52-3.3-3.44-3.55-1.7-.46-3.21,2-4.34,3.26C175.27,126.06,169.82,132.49,164.68,139.14Z"/><path id="Path_1179" data-name="Path 1179" class="cls-20" d="M218.7,137.88a10.57,10.57,0,0,1,1.89,1.89,3.19,3.19,0,0,1,.58,2.55,3.85,3.85,0,0,1,2.35-3.93Z"/><g id="Group_245" data-name="Group 245" class="cls-12"><path id="Path_1180" data-name="Path 1180" d="M227.17,69.13a27.14,27.14,0,0,0-1.12-2.6,7.79,7.79,0,0,0-.83.22,18,18,0,0,1,1.28,2.51Z"/><path id="Path_1181" data-name="Path 1181" d="M243.61,80.3a.39.39,0,0,1,.2.2h0C243.74,80.42,243.69,80.33,243.61,80.3Z"/><path id="Path_1182" data-name="Path 1182" d="M217.33,81.55a3,3,0,0,1,.46-.34V79.87h-3c-.5.46-1,1.13-.72,1.71Z"/><path id="Path_1183" data-name="Path 1183" d="M250.34,104.19a4.8,4.8,0,0,1-2.38,2.34,6.73,6.73,0,0,1-2.6.25,30.24,30.24,0,0,1-8.82-1.25,26.65,26.65,0,0,0-4-1.39,16.36,16.36,0,0,0-4.94,0l-7.23.84c-2.14.24-4.5.41-6.19-.88-1-.75-1.6-1.92-2.69-2.52a3.33,3.33,0,0,1-1.29-.83,2.36,2.36,0,0,1-.29-1,6.46,6.46,0,0,1,0-.88v2.6a1.88,1.88,0,0,0,.29,1,3.62,3.62,0,0,0,1.29.83c1.13.59,1.72,1.77,2.69,2.52,1.71,1.29,4,1.12,6.19.87l7.23-.84a15.17,15.17,0,0,1,4.94,0,31.49,31.49,0,0,1,4,1.38,30,30,0,0,0,8.87,1.26,5.83,5.83,0,0,0,2.59-.25,4.88,4.88,0,0,0,2.38-2.34,11.71,11.71,0,0,0,1.17-6.32A10.31,10.31,0,0,1,250.34,104.19Z"/></g><path id="Path_1184" data-name="Path 1184" class="cls-11" d="M251.55,99.58a25.57,25.57,0,0,0-.61-4.26A25.25,25.25,0,0,0,244.57,83a22.12,22.12,0,0,0-.76-2.39h0A25.93,25.93,0,0,0,239.55,73c-1.05-1.34-2.43-2.63-4.14-2.67a2,2,0,0,1-2.22-1A7.38,7.38,0,0,0,226,66.68h-.17a.6.6,0,0,0-.29.08l-.38.12c.12.21.25.42.38.67.34.59.62,1.22.91,1.85a14.87,14.87,0,0,1,.68,1.59c-2.89.34-5.27,2.38-7.41,4.35l-5.06,4.6h0l-.17.13-.12.12h0l-.13.12a1.94,1.94,0,0,0-.21.29.16.16,0,0,1-.08.13h0v.12h0v.09a1,1,0,0,0,0,.59h3.74v1.34c-.54.42-1,.83-1.55,1.25a14.1,14.1,0,0,0-1.5,1.59,21.84,21.84,0,0,0-4.83,13.2v2.55a1.7,1.7,0,0,0,.29,1s0,.09.08.09a4.34,4.34,0,0,0,.58.46l.26.13h0a2.16,2.16,0,0,1,.34.17c1.12.58,1.7,1.75,2.67,2.5l.17.14.12.07h.22l.2.14h0l.13.08h0l.34.12h.29l.29.08h1a5.34,5.34,0,0,0,.8,0h0a24.26,24.26,0,0,0,2.55-.17l7.24-.84a15.17,15.17,0,0,1,4.94,0,30.28,30.28,0,0,1,4.13,1.68,7.21,7.21,0,0,0,.93.3,1.3,1.3,0,0,0,.33.07h.17l.38.08a.54.54,0,0,1,.37.09l.55.13a.59.59,0,0,1,.37.08h1.09a6.4,6.4,0,0,0,.88.09l1.41.12h2.6a8.62,8.62,0,0,0,1.76-.08.75.75,0,0,0,.29-.09l.3-.08a4.94,4.94,0,0,0,2.38-2.35c.13-.2.21-.41.33-.62a3.29,3.29,0,0,0,.26-.68c.09-.26.17-.54.25-.83a.53.53,0,0,0,0-.25.76.76,0,0,1,.08-.33,8.35,8.35,0,0,0,.17-1v-.34a5.75,5.75,0,0,0,0-.83V100C251.6,100.12,251.55,99.83,251.55,99.58Zm-7.23-16.84c-.21-.2-.46-.42-.71-.63a3.88,3.88,0,0,1,.68.53Z"/><path id="Path_1185" data-name="Path 1185" class="cls-3" d="M264,223.71h0V220l-.18-21-.25-32.92v-2.85h-4V166l.13,17.62v7.61h0v6.19l.1,10.63v6.31h0v9l.13,7.36.34-.54c.49-.83,1-1.72,1.5-2.59Z"/></g></g><rect class="cls-21" width="298.5" height="298.5"/></g></svg>