<svg xmlns="http://www.w3.org/2000/svg" viewBox="0 0 300 300"><defs><style>.cls-1,.cls-8{fill:#fff;}.cls-2{fill:#333a41;}.cls-10,.cls-11,.cls-3{fill:none;}.cls-4{fill:#ffacb6;}.cls-5{fill:#ff9898;}.cls-6{fill:#ddd;}.cls-7{fill:#231f20;}.cls-8{stroke:#7c7b7c;}.cls-10,.cls-11,.cls-8{stroke-miterlimit:10;}.cls-9{fill:#f96701;}.cls-10,.cls-11{stroke:#f96701;}.cls-11{stroke-linecap:round;}.cls-12{fill:blue;}.cls-13{fill:#bed7ff;}</style></defs><g id="Layer_1" data-name="Layer 1"><g id="Layer_2" data-name="Layer 2"><g id="Layer_9" data-name="Layer 9"><g id="point_5" data-name="point 5"><circle id="circle_5_point_5" data-name="circle 5 point 5" class="cls-1" cx="148.53" cy="16.5" r="16.5"/><g id="_5" data-name=" 5"><path class="cls-2" d="M147.67,24.14a5.56,5.56,0,0,1-1.61-.24,4,4,0,0,1-1.41-.72,1.32,1.32,0,0,1-.34-.46,1.63,1.63,0,0,1-.12-.54.89.89,0,0,1,.94-.82,1.25,1.25,0,0,1,.74.32,5.71,5.71,0,0,0,.85.44,2.52,2.52,0,0,0,.93.18,3.59,3.59,0,0,0,1.71-.4,3.11,3.11,0,0,0,1.22-1.11,2.75,2.75,0,0,0,.45-1.55,2.61,2.61,0,0,0-.38-1.47,2.54,2.54,0,0,0-1-.95,3,3,0,0,0-1.45-.34,3,3,0,0,0-1.17.21,9.08,9.08,0,0,0-.9.42,1.47,1.47,0,0,1-.71.21,1.19,1.19,0,0,1-.79-.23,1,1,0,0,1-.34-.56,2.08,2.08,0,0,1,0-.61l.7-5.12a1,1,0,0,1,1-.8h5.86a.92.92,0,0,1,.94.9v0a.86.86,0,0,1-.27.66.93.93,0,0,1-.67.26h-5.46l.22-.18-.64,4.4-.3-.6a2,2,0,0,1,.61-.39,6.12,6.12,0,0,1,1-.32,4.67,4.67,0,0,1,1.11-.13,4.76,4.76,0,0,1,2.37.59,4.25,4.25,0,0,1,1.63,1.63,4.54,4.54,0,0,1,.6,2.36,4.35,4.35,0,0,1-.42,1.94,4.72,4.72,0,0,1-1.16,1.57,5.17,5.17,0,0,1-1.71,1A5.61,5.61,0,0,1,147.67,24.14Z"/></g></g></g></g></g><g id="Layer_4" data-name="Layer 4"><g id="Candidates_gets_instant_consolidated_mark-list_and_feedbackon_the_app_itself." data-name="Candidates gets instant consolidated mark-list and feedbackon the app itself."><path class="cls-1" d="M60.11,244.45a.68.68,0,0,1,.41.54.85.85,0,0,1-.18.67.67.67,0,0,1-.46.27.8.8,0,0,1-.55-.11,5.27,5.27,0,0,0-1-.38,4,4,0,0,0-1.08-.15,4.15,4.15,0,0,0-1.64.3,3.51,3.51,0,0,0-1.26.85,3.75,3.75,0,0,0-.81,1.3,4.76,4.76,0,0,0-.28,1.67,4.52,4.52,0,0,0,.31,1.78,3.63,3.63,0,0,0,.84,1.31,3.16,3.16,0,0,0,1.26.8,4.45,4.45,0,0,0,1.58.27,4.8,4.8,0,0,0,1.06-.13,4.71,4.71,0,0,0,1-.39,1,1,0,0,1,.57-.1.72.72,0,0,1,.46.28.8.8,0,0,1,.2.68.77.77,0,0,1-.41.52,4.87,4.87,0,0,1-.88.38,7.36,7.36,0,0,1-1,.26,5.65,5.65,0,0,1-1,.1,6.18,6.18,0,0,1-2.14-.38,5.33,5.33,0,0,1-1.82-1.12A5,5,0,0,1,52,251.86a6,6,0,0,1-.46-2.44,5.57,5.57,0,0,1,.43-2.28,5,5,0,0,1,1.2-1.81A5.38,5.38,0,0,1,55,244.14a5.88,5.88,0,0,1,2.28-.42,5.8,5.8,0,0,1,1.49.19A5.46,5.46,0,0,1,60.11,244.45Z"/><path class="cls-1" d="M69.41,246.46a.79.79,0,0,1,.8.78v6.95a.81.81,0,0,1-1.37.59h0a.74.74,0,0,1-.23-.58V253l.32.05a1.34,1.34,0,0,1-.23.64,3.14,3.14,0,0,1-.63.68,4,4,0,0,1-.94.54,3.37,3.37,0,0,1-1.17.22,3.61,3.61,0,0,1-2-.57A3.94,3.94,0,0,1,62.57,253a5.31,5.31,0,0,1,0-4.54A3.82,3.82,0,0,1,64,247a3.41,3.41,0,0,1,1.94-.56,3.47,3.47,0,0,1,1.27.22,3.73,3.73,0,0,1,1,.58,3.15,3.15,0,0,1,.67.74,1.51,1.51,0,0,1,.24.75h-.5v-1.45a.75.75,0,0,1,.23-.58A.74.74,0,0,1,69.41,246.46Zm-3.3,7.23a2.33,2.33,0,0,0,1.32-.38,2.67,2.67,0,0,0,.89-1.05,3.58,3.58,0,0,0,.32-1.48,3.66,3.66,0,0,0-.32-1.49,2.77,2.77,0,0,0-.89-1,2.45,2.45,0,0,0-2.63,0,2.48,2.48,0,0,0-.9,1,3.36,3.36,0,0,0-.32,1.49,3.29,3.29,0,0,0,.32,1.48,2.51,2.51,0,0,0,.89,1.05A2.29,2.29,0,0,0,66.11,253.69Z"/><path class="cls-1" d="M77.17,246.4a2.91,2.91,0,0,1,1.76.47,2.61,2.61,0,0,1,.88,1.26,6.63,6.63,0,0,1,.24,1.77v4.29a.81.81,0,0,1-1.37.59h0a.74.74,0,0,1-.23-.58v-4.27a3.37,3.37,0,0,0-.16-1,1.51,1.51,0,0,0-.55-.74,1.84,1.84,0,0,0-1.09-.28,2.32,2.32,0,0,0-1.16.28,2,2,0,0,0-.77.74,1.78,1.78,0,0,0-.28,1v4.27a.82.82,0,0,1-.23.58.78.78,0,0,1-.57.24.75.75,0,0,1-.53-.22.78.78,0,0,1-.22-.58v-6.78a.76.76,0,0,1,.22-.64.78.78,0,0,1,.58-.23.83.83,0,0,1,.57.23.86.86,0,0,1,.23.59v.89l-.29.16a2,2,0,0,1,.39-.71,3.67,3.67,0,0,1,1.58-1.17A2.82,2.82,0,0,1,77.17,246.4Z"/><path class="cls-1" d="M89.51,243.17a.77.77,0,0,1,.8.74v10.28a.86.86,0,0,1-.2.6.78.78,0,0,1-.57.24.75.75,0,0,1-.58-.24.78.78,0,0,1-.22-.58v-1.15h.32a1.38,1.38,0,0,1-.23.65,3.86,3.86,0,0,1-.64.7,3.36,3.36,0,0,1-1,.55,3.07,3.07,0,0,1-1.16.22,3.61,3.61,0,0,1-2-.57,4,4,0,0,1-1.41-1.55,5.28,5.28,0,0,1,0-4.53A3.92,3.92,0,0,1,84.11,247a3.62,3.62,0,0,1,3.2-.35,3.73,3.73,0,0,1,1,.58,3.42,3.42,0,0,1,.68.74,1.52,1.52,0,0,1,.25.75h-.5v-4.75a.78.78,0,0,1,.22-.58A.77.77,0,0,1,89.51,243.17Zm-3.26,10.52a2.33,2.33,0,0,0,1.32-.38,2.74,2.74,0,0,0,.88-1,3.65,3.65,0,0,0,0-3,2.74,2.74,0,0,0-.88-1,2.33,2.33,0,0,0-1.32-.38,2.45,2.45,0,0,0-1.32.38,2.59,2.59,0,0,0-.89,1,3.57,3.57,0,0,0,0,3,2.53,2.53,0,0,0,.89,1A2.29,2.29,0,0,0,86.25,253.69Z"/><path class="cls-1" d="M93.62,245.47a1,1,0,0,1-.67-.17.66.66,0,0,1-.21-.57v-.25a.62.62,0,0,1,.23-.56,1.11,1.11,0,0,1,.67-.16,1.13,1.13,0,0,1,.69.17.74.74,0,0,1,.2.55v.25a.72.72,0,0,1-.21.58A1.25,1.25,0,0,1,93.62,245.47Zm.82,8.72a.82.82,0,0,1-.23.58.79.79,0,0,1-1.1,0,.74.74,0,0,1-.23-.58v-6.85a.73.73,0,0,1,.23-.57.8.8,0,0,1,1.37.58Z"/><path class="cls-1" d="M103.83,243.17a.77.77,0,0,1,.8.74v10.28a.82.82,0,0,1-.23.58.78.78,0,0,1-.57.24.73.73,0,0,1-.58-.24.78.78,0,0,1-.22-.58V253h.32a1.29,1.29,0,0,1-.24.65,3.47,3.47,0,0,1-.63.7,3.36,3.36,0,0,1-1,.55,3.08,3.08,0,0,1-1.17.22,3.66,3.66,0,0,1-2-.57,4.1,4.1,0,0,1-1.4-1.55,5.28,5.28,0,0,1,0-4.53A4,4,0,0,1,98.29,247a3.63,3.63,0,0,1,3.2-.35,3.44,3.44,0,0,1,1,.58,3,3,0,0,1,.68.74,1.35,1.35,0,0,1,.25.75h-.5v-4.75a.87.87,0,0,1,.22-.58A.76.76,0,0,1,103.83,243.17Zm-3.26,10.52a2.28,2.28,0,0,0,1.31-.38,2.69,2.69,0,0,0,.89-1,3.65,3.65,0,0,0,0-3,2.77,2.77,0,0,0-.89-1,2.28,2.28,0,0,0-1.31-.38,2.36,2.36,0,0,0-1.32.38,2.59,2.59,0,0,0-.89,1,3.57,3.57,0,0,0,0,3,2.53,2.53,0,0,0,.89,1A2.29,2.29,0,0,0,100.57,253.69Z"/><path class="cls-1" d="M114.11,246.46a.79.79,0,0,1,.56.23.8.8,0,0,1,.23.59v6.91a.78.78,0,0,1-.23.58.76.76,0,0,1-.56.24.73.73,0,0,1-.58-.24.78.78,0,0,1-.22-.58V253l.31.05a1.16,1.16,0,0,1-.23.64,3.14,3.14,0,0,1-.63.68,4,4,0,0,1-.94.54,3.37,3.37,0,0,1-1.17.22,3.45,3.45,0,0,1-2-.57,3.9,3.9,0,0,1-1.4-1.56,5.31,5.31,0,0,1,0-4.54,3.82,3.82,0,0,1,1.39-1.54,3.67,3.67,0,0,1,3.21-.34,3.73,3.73,0,0,1,1,.58,2.9,2.9,0,0,1,.66.74,1.34,1.34,0,0,1,.24.75h-.49v-1.45a.85.85,0,0,1,.23-.58A.74.74,0,0,1,114.11,246.46Zm-3.27,7.23a2.33,2.33,0,0,0,1.32-.38,2.67,2.67,0,0,0,.89-1.05,3.58,3.58,0,0,0,.32-1.48,3.66,3.66,0,0,0-.32-1.49,2.77,2.77,0,0,0-.89-1,2.45,2.45,0,0,0-2.63,0,2.7,2.7,0,0,0-.9,1,3.36,3.36,0,0,0-.32,1.49,3.29,3.29,0,0,0,.32,1.48,2.51,2.51,0,0,0,.89,1.05,2.2,2.2,0,0,0,1.3.38Z"/><path class="cls-1" d="M117.4,246.69h3.76a.73.73,0,0,1,.53.21.77.77,0,0,1,.22.54.7.7,0,0,1-.22.51.73.73,0,0,1-.53.21H117.4a.73.73,0,0,1-.75-.71,0,0,0,0,1,0,0,.7.7,0,0,1,.21-.53A.71.71,0,0,1,117.4,246.69Zm1.71-2.08a.73.73,0,0,1,.57.23.82.82,0,0,1,.23.58v7.43a.9.9,0,0,0,.09.46.51.51,0,0,0,.26.24,1,1,0,0,0,.34.06.78.78,0,0,0,.31-.06,1,1,0,0,1,.33-.06.43.43,0,0,1,.35.17.61.61,0,0,1,.16.48.7.7,0,0,1-.41.63,1.76,1.76,0,0,1-.9.24,4.72,4.72,0,0,1-.64,0,1.81,1.81,0,0,1-.71-.24,1.55,1.55,0,0,1-.57-.62,2.68,2.68,0,0,1-.22-1.19v-7.49a.82.82,0,0,1,.23-.58A.74.74,0,0,1,119.11,244.61Z"/><path class="cls-1" d="M127.85,255.17a4.64,4.64,0,0,1-2.31-.56,3.75,3.75,0,0,1-1.51-1.52,4.39,4.39,0,0,1-.54-2.21,4.71,4.71,0,0,1,.57-2.41,4.05,4.05,0,0,1,1.48-1.54,3.81,3.81,0,0,1,1.95-.53,3.64,3.64,0,0,1,1.48.31,4.1,4.1,0,0,1,2.46,3.78.75.75,0,0,1-.26.53.85.85,0,0,1-.56.21h-6.2l-.39-1.36h6l-.31.29v-.37a1.92,1.92,0,0,0-.38-1,2.26,2.26,0,0,0-.82-.65,2.36,2.36,0,0,0-1-.23,2.82,2.82,0,0,0-.92.15,2,2,0,0,0-.79.49,2.36,2.36,0,0,0-.54.88,3.54,3.54,0,0,0-.21,1.37,3,3,0,0,0,.37,1.54,2.53,2.53,0,0,0,1,1,2.7,2.7,0,0,0,1.39.36,3.42,3.42,0,0,0,1-.12,2.3,2.3,0,0,0,.64-.29c.17-.12.32-.23.45-.34a1,1,0,0,1,.48-.14.63.63,0,0,1,.48.2.67.67,0,0,1,.19.47.85.85,0,0,1-.35.64,4.47,4.47,0,0,1-1.19.74A4.15,4.15,0,0,1,127.85,255.17Z"/><path class="cls-1" d="M133.11,253.69a.8.8,0,0,1-.13-.52.77.77,0,0,1,.81-.62.81.81,0,0,1,.47.25,3.46,3.46,0,0,0,1,.78,2.92,2.92,0,0,0,1.34.29,5,5,0,0,0,.66-.1,1.47,1.47,0,0,0,.57-.32,1,1,0,0,0,.24-.68.85.85,0,0,0-.25-.64,2,2,0,0,0-.68-.4c-.27-.1-.57-.19-.89-.28s-.69-.2-1-.32a3.88,3.88,0,0,1-.94-.45,2.29,2.29,0,0,1-.69-.73,2.23,2.23,0,0,1-.26-1.1,2.09,2.09,0,0,1,.42-1.3,2.94,2.94,0,0,1,1.1-.85,3.8,3.8,0,0,1,1.48-.3,4.15,4.15,0,0,1,1,.12,3.87,3.87,0,0,1,1,.37,2.61,2.61,0,0,1,.83.68,1,1,0,0,1,.2.49.6.6,0,0,1-.27.51.61.61,0,0,1-.46.15.67.67,0,0,1-.45-.18,2.18,2.18,0,0,0-.78-.6,2.75,2.75,0,0,0-1.09-.21,2.59,2.59,0,0,0-.63.08,1.06,1.06,0,0,0-.55.32.83.83,0,0,0-.23.65.76.76,0,0,0,.27.64,1.77,1.77,0,0,0,.69.4,8.22,8.22,0,0,0,1,.29l1,.3a3.89,3.89,0,0,1,.88.46,2.46,2.46,0,0,1,.64.72,2.35,2.35,0,0,1,.25,1.11,2,2,0,0,1-.46,1.34,3,3,0,0,1-1.15.84,3.93,3.93,0,0,1-1.47.29,5,5,0,0,1-1.81-.33A3.34,3.34,0,0,1,133.11,253.69Z"/><path class="cls-1" d="M149.88,246.4a3.42,3.42,0,0,1,1.26.22,3.69,3.69,0,0,1,1,.57,3.48,3.48,0,0,1,.67.71,1.34,1.34,0,0,1,.23.64h-.37v-1.28a.89.89,0,0,1,.22-.58.76.76,0,0,1,.58-.24.79.79,0,0,1,.57.23.82.82,0,0,1,.24.59v7a3.86,3.86,0,0,1-.59,2.22,3.4,3.4,0,0,1-1.52,1.26,5.55,5.55,0,0,1-2.09.4,4.86,4.86,0,0,1-1-.11,9.13,9.13,0,0,1-1-.25,2,2,0,0,1-.62-.28,1,1,0,0,1-.49-.45.52.52,0,0,1,0-.51.69.69,0,0,1,.41-.44,1.05,1.05,0,0,1,.63,0l.5.18a5.94,5.94,0,0,0,.75.23,2.88,2.88,0,0,0,.78.1,2.76,2.76,0,0,0,1.93-.59,2.11,2.11,0,0,0,.65-1.61v-1.37l.19.11a1.67,1.67,0,0,1-.3.68,3.29,3.29,0,0,1-.66.63,3.64,3.64,0,0,1-.92.47,3.27,3.27,0,0,1-1.08.19,3.74,3.74,0,0,1-2-.57,4.18,4.18,0,0,1-1.43-1.55,5.15,5.15,0,0,1,0-4.53,4.13,4.13,0,0,1,1.41-1.55A3.61,3.61,0,0,1,149.88,246.4Zm.23,1.47a2.58,2.58,0,0,0-1.37.38,2.71,2.71,0,0,0-.93,1,3.57,3.57,0,0,0,0,3,2.63,2.63,0,0,0,.93,1,2.47,2.47,0,0,0,1.37.38,2.58,2.58,0,0,0,1.38-.37,2.63,2.63,0,0,0,.93-1,3.25,3.25,0,0,0,.33-1.5,3.19,3.19,0,0,0-.33-1.49,2.52,2.52,0,0,0-2.31-1.42Z"/><path class="cls-1" d="M160.44,255.17a4.58,4.58,0,0,1-2.3-.56,3.77,3.77,0,0,1-1.52-1.52,4.38,4.38,0,0,1-.53-2.21,4.7,4.7,0,0,1,.56-2.41,4,4,0,0,1,1.49-1.54,3.77,3.77,0,0,1,2-.53,3.64,3.64,0,0,1,1.48.31,4.43,4.43,0,0,1,1.25.86,4.25,4.25,0,0,1,1.2,2.92.76.76,0,0,1-.25.53.85.85,0,0,1-.56.21h-6.21l-.39-1.36h6l-.3.29v-.37a1.93,1.93,0,0,0-.39-1,2.26,2.26,0,0,0-.82-.65,2.36,2.36,0,0,0-1-.23,2.88,2.88,0,0,0-.93.15,2,2,0,0,0-.79.49,2.36,2.36,0,0,0-.54.88,3.54,3.54,0,0,0-.21,1.37,3,3,0,0,0,.37,1.54,2.6,2.6,0,0,0,1,1,2.7,2.7,0,0,0,1.39.36,3.42,3.42,0,0,0,1-.12,2.3,2.3,0,0,0,.64-.29c.17-.12.32-.23.45-.34a1,1,0,0,1,.48-.14.63.63,0,0,1,.48.2.67.67,0,0,1,.19.47.8.8,0,0,1-.35.64,3.89,3.89,0,0,1-1.19.74A4.14,4.14,0,0,1,160.44,255.17Z"/><path class="cls-1" d="M166,246.69h3.76a.73.73,0,0,1,.53.21.77.77,0,0,1,.22.54.7.7,0,0,1-.22.51.73.73,0,0,1-.53.21H166a.68.68,0,0,1-.54-.22.74.74,0,0,1,0-1.05h0A.71.71,0,0,1,166,246.69Zm1.68-2.08a.73.73,0,0,1,.57.23.82.82,0,0,1,.23.58v7.43a.9.9,0,0,0,.09.46.46.46,0,0,0,.27.24.93.93,0,0,0,.34.06.85.85,0,0,0,.31-.06.88.88,0,0,1,.33-.06.46.46,0,0,1,.35.17.7.7,0,0,1,.16.48.74.74,0,0,1-.41.63,1.81,1.81,0,0,1-.9.24,4.48,4.48,0,0,1-.64,0,1.71,1.71,0,0,1-.71-.24,1.42,1.42,0,0,1-.57-.62,2.43,2.43,0,0,1-.22-1.19v-7.49a.77.77,0,0,1,.22-.58.74.74,0,0,1,.58-.23Z"/><path class="cls-1" d="M172.55,253.69a.8.8,0,0,1-.13-.52.65.65,0,0,1,.33-.5.67.67,0,0,1,.47-.12.8.8,0,0,1,.47.25,3.75,3.75,0,0,0,1,.78,3,3,0,0,0,1.34.29,3.52,3.52,0,0,0,.65-.1,1.38,1.38,0,0,0,.58-.32.89.89,0,0,0,.24-.68.85.85,0,0,0-.25-.64,2.09,2.09,0,0,0-.67-.4c-.28-.1-.58-.19-.9-.28s-.68-.2-1-.32a3.81,3.81,0,0,1-.93-.45,2.11,2.11,0,0,1-.95-1.83,1.93,1.93,0,0,1,.43-1.3,2.79,2.79,0,0,1,1.1-.85,3.73,3.73,0,0,1,1.48-.3,4.27,4.27,0,0,1,1,.12,4.17,4.17,0,0,1,1,.37,2.85,2.85,0,0,1,.83.68.86.86,0,0,1,.18.49.58.58,0,0,1-.26.51.66.66,0,0,1-.46.15.67.67,0,0,1-.45-.18,2.31,2.31,0,0,0-.79-.6,2.7,2.7,0,0,0-1.08-.21,2.25,2.25,0,0,0-.64.08,1.27,1.27,0,0,0-.55.32.86.86,0,0,0-.22.65.82.82,0,0,0,.26.64,1.88,1.88,0,0,0,.7.4,9.34,9.34,0,0,0,.94.29l1,.3a3.89,3.89,0,0,1,.88.46,2.46,2.46,0,0,1,.64.72,2.37,2.37,0,0,1,.24,1.11,2.09,2.09,0,0,1-.45,1.34,3,3,0,0,1-1.15.84,3.93,3.93,0,0,1-1.47.29,5,5,0,0,1-1.81-.33A3.25,3.25,0,0,1,172.55,253.69Z"/><path class="cls-1" d="M186.63,245.47a1,1,0,0,1-.67-.17.66.66,0,0,1-.21-.57v-.25a.61.61,0,0,1,.22-.56,1.11,1.11,0,0,1,.67-.16,1.13,1.13,0,0,1,.69.17.66.66,0,0,1,.21.55v.25a.7.7,0,0,1-.22.58A1.12,1.12,0,0,1,186.63,245.47Zm.81,8.72a.87.87,0,0,1-.22.58.76.76,0,0,1-.58.24.73.73,0,0,1-.53-.22.79.79,0,0,1-.25-.58v-6.85a.77.77,0,0,1,.25-.57.72.72,0,0,1,.56-.23.77.77,0,0,1,.58.23.87.87,0,0,1,.22.58Z"/><path class="cls-1" d="M194.33,246.4a2.87,2.87,0,0,1,1.76.47,2.37,2.37,0,0,1,.87,1.26,5.57,5.57,0,0,1,.25,1.77v4.29a.8.8,0,0,1-.8.82.78.78,0,0,1-.58-.24.87.87,0,0,1-.22-.58v-4.27a2.83,2.83,0,0,0-.16-1,1.45,1.45,0,0,0-.55-.74,1.83,1.83,0,0,0-1.1-.28,2.33,2.33,0,0,0-1.15.28,2.3,2.3,0,0,0-.78.74,2.18,2.18,0,0,0-.28,1v4.27a.74.74,0,0,1-.23.58.8.8,0,0,1-1.13,0h0a.82.82,0,0,1-.23-.58v-6.78a.86.86,0,0,1,.23-.59.81.81,0,0,1,1.14,0,.8.8,0,0,1,.23.6v.89l-.28.16a2.34,2.34,0,0,1,.39-.71,3.92,3.92,0,0,1,.68-.67,3.39,3.39,0,0,1,.89-.5A3.23,3.23,0,0,1,194.33,246.4Z"/><path class="cls-1" d="M199.35,253.69a.8.8,0,0,1-.13-.52.77.77,0,0,1,.81-.62.87.87,0,0,1,.47.25,3.46,3.46,0,0,0,1,.78,2.9,2.9,0,0,0,1.33.29,3.52,3.52,0,0,0,.65-.1,1.38,1.38,0,0,0,.58-.32.94.94,0,0,0,.25-.68.9.9,0,0,0-.26-.64,2.09,2.09,0,0,0-.67-.4c-.28-.1-.58-.19-.9-.28s-.68-.2-1-.32a3.81,3.81,0,0,1-.93-.45,2.11,2.11,0,0,1-1-1.83,1.93,1.93,0,0,1,.43-1.3,2.79,2.79,0,0,1,1.1-.85,3.73,3.73,0,0,1,1.48-.3,4.27,4.27,0,0,1,1,.12,4.17,4.17,0,0,1,1,.37,2.85,2.85,0,0,1,.83.68.86.86,0,0,1,.18.49.58.58,0,0,1-.26.51.66.66,0,0,1-.46.15.67.67,0,0,1-.45-.18,2.31,2.31,0,0,0-.79-.6,2.7,2.7,0,0,0-1.08-.21,2.25,2.25,0,0,0-.64.08,1.27,1.27,0,0,0-.55.32.86.86,0,0,0-.22.65.82.82,0,0,0,.26.64,1.88,1.88,0,0,0,.7.4,9.34,9.34,0,0,0,.94.29l1,.3a3.89,3.89,0,0,1,.88.46,2.46,2.46,0,0,1,.64.72,2.37,2.37,0,0,1,.24,1.11,2.09,2.09,0,0,1-.45,1.34,3,3,0,0,1-1.15.84,3.93,3.93,0,0,1-1.47.29,5,5,0,0,1-1.81-.33A3.25,3.25,0,0,1,199.35,253.69Z"/><path class="cls-1" d="M207.78,246.69h3.75a.75.75,0,0,1,.54.21.72.72,0,0,1,.21.54.66.66,0,0,1-.21.51.75.75,0,0,1-.54.21h-3.75a.72.72,0,0,1-.54-.22.74.74,0,0,1,0-1.05A.76.76,0,0,1,207.78,246.69Zm1.67-2.08a.74.74,0,0,1,.58.23.78.78,0,0,1,.22.58v7.43a.92.92,0,0,0,.11.46.45.45,0,0,0,.25.24,1,1,0,0,0,.34.06,1,1,0,0,0,.33-.06.87.87,0,0,1,.32-.06.48.48,0,0,1,.36.17.84.84,0,0,1,.16.48.73.73,0,0,1-.42.63,1.81,1.81,0,0,1-.9.24,4.48,4.48,0,0,1-.64,0,1.71,1.71,0,0,1-.71-.24,1.42,1.42,0,0,1-.57-.62,2.43,2.43,0,0,1-.22-1.19v-7.49a.79.79,0,0,1,.8-.81Z"/><path class="cls-1" d="M221.3,246.46a.83.83,0,0,1,.57.23.86.86,0,0,1,.23.59v6.91a.82.82,0,0,1-.23.58.78.78,0,0,1-.57.24.75.75,0,0,1-.58-.24.78.78,0,0,1-.22-.58V253l.32.05a1.34,1.34,0,0,1-.23.64,4.07,4.07,0,0,1-.63.68,3.89,3.89,0,0,1-1,.54,3.15,3.15,0,0,1-1.17.22,3.61,3.61,0,0,1-2-.57,3.94,3.94,0,0,1-1.39-1.56,5.31,5.31,0,0,1,0-4.54,3.87,3.87,0,0,1,1.38-1.54,3.42,3.42,0,0,1,1.95-.56,3.47,3.47,0,0,1,1.27.22,3.58,3.58,0,0,1,1,.58,3.42,3.42,0,0,1,.68.74,1.51,1.51,0,0,1,.24.75h-.5v-1.45a.8.8,0,0,1,.22-.58A.75.75,0,0,1,221.3,246.46ZM218,253.69a2.33,2.33,0,0,0,1.32-.38,2.71,2.71,0,0,0,.88-1.05,3.29,3.29,0,0,0,.32-1.48,3.33,3.33,0,0,0-.32-1.49,2.74,2.74,0,0,0-.88-1,2.33,2.33,0,0,0-1.32-.38,2.45,2.45,0,0,0-1.32.38,2.59,2.59,0,0,0-.89,1,3.21,3.21,0,0,0-.33,1.49,3.17,3.17,0,0,0,.33,1.48,2.51,2.51,0,0,0,.89,1.05,2.18,2.18,0,0,0,1.31.38Z"/><path class="cls-1" d="M229.11,246.4a2.86,2.86,0,0,1,1.75.47,2.37,2.37,0,0,1,.87,1.26,5.57,5.57,0,0,1,.25,1.77v4.29a.8.8,0,0,1-.8.82.78.78,0,0,1-.58-.24.87.87,0,0,1-.22-.58v-4.27a2.83,2.83,0,0,0-.16-1,1.45,1.45,0,0,0-.55-.74,1.83,1.83,0,0,0-1.1-.28,2.33,2.33,0,0,0-1.15.28,2.3,2.3,0,0,0-.78.74,2.18,2.18,0,0,0-.28,1v4.27a.74.74,0,0,1-.23.58.8.8,0,0,1-1.13,0h0a.82.82,0,0,1-.23-.58v-6.78a.86.86,0,0,1,.23-.59.81.81,0,0,1,1.14,0,.8.8,0,0,1,.23.6v.89l-.28.16a2.34,2.34,0,0,1,.39-.71,3.92,3.92,0,0,1,.68-.67,3.39,3.39,0,0,1,.89-.5A3.25,3.25,0,0,1,229.11,246.4Z"/><path class="cls-1" d="M234.44,246.69h3.76a.71.71,0,0,1,.75.69.06.06,0,0,1,0,.06.66.66,0,0,1-.21.51.71.71,0,0,1-.54.21h-3.76a.74.74,0,0,1-.52-1.27A.68.68,0,0,1,234.44,246.69Zm1.68-2.08a.74.74,0,0,1,.58.23.78.78,0,0,1,.22.58v7.43a.92.92,0,0,0,.11.46.45.45,0,0,0,.25.24,1.13,1.13,0,0,0,.36.06.77.77,0,0,0,.3-.06,1,1,0,0,1,.34-.06.49.49,0,0,1,.35.17.84.84,0,0,1,.16.48.73.73,0,0,1-.42.63,1.75,1.75,0,0,1-.89.24,4.48,4.48,0,0,1-.64,0,1.81,1.81,0,0,1-.72-.24,1.4,1.4,0,0,1-.56-.62,2.44,2.44,0,0,1-.23-1.19v-7.49a.79.79,0,0,1,.78-.81Z"/><path class="cls-1" d="M43.29,266.4a5.6,5.6,0,0,1,1.52.18,2.79,2.79,0,0,1,1,.51,1,1,0,0,1,.39.76,1,1,0,0,1-.17.51.56.56,0,0,1-.47.23,1.06,1.06,0,0,1-.4-.08,1.38,1.38,0,0,1-.28-.19,1.72,1.72,0,0,0-.32-.23,2.07,2.07,0,0,0-.52-.16,3.23,3.23,0,0,0-.61-.06,2.78,2.78,0,0,0-1.47.38,2.67,2.67,0,0,0-1,1,3.37,3.37,0,0,0,0,3,2.6,2.6,0,0,0,1,1,2.44,2.44,0,0,0,1.4.38,3.52,3.52,0,0,0,.79-.07,2.68,2.68,0,0,0,.52-.18,4,4,0,0,0,.42-.3.63.63,0,0,1,.46-.15.7.7,0,0,1,.54.22.85.85,0,0,1,.18.53.94.94,0,0,1-.42.68,3.56,3.56,0,0,1-1.13.54,5.47,5.47,0,0,1-1.55.21,3.93,3.93,0,0,1-2.17-.58A3.74,3.74,0,0,1,39.61,273a4.92,4.92,0,0,1-.5-2.23,4.53,4.53,0,0,1,.53-2.25A4,4,0,0,1,41.11,267,4,4,0,0,1,43.29,266.4Z"/><path class="cls-1" d="M56.26,270.79a4.57,4.57,0,0,1-.57,2.26A4.12,4.12,0,0,1,52,275.16a4.27,4.27,0,0,1-2.16-.56,4.14,4.14,0,0,1-1.53-1.55,4.81,4.81,0,0,1,0-4.54A4.14,4.14,0,0,1,49.85,267a4.18,4.18,0,0,1,2.16-.57,4.23,4.23,0,0,1,2.16.57,4.11,4.11,0,0,1,1.52,1.55A4.54,4.54,0,0,1,56.26,270.79Zm-1.6,0a3.24,3.24,0,0,0-.35-1.53,2.76,2.76,0,0,0-1-1,2.56,2.56,0,0,0-2.69,0,2.74,2.74,0,0,0-1,1,3.37,3.37,0,0,0,0,3,2.6,2.6,0,0,0,1,1,2.69,2.69,0,0,0,2.69,0,2.76,2.76,0,0,0,1-1A3.25,3.25,0,0,0,54.66,270.79Z"/><path class="cls-1" d="M62.73,266.4a2.91,2.91,0,0,1,1.76.47,2.6,2.6,0,0,1,.87,1.26,6.58,6.58,0,0,1,.25,1.77v4.29a.83.83,0,0,1-.24.58.76.76,0,0,1-.56.24.73.73,0,0,1-.58-.24.78.78,0,0,1-.22-.58v-4.27a3.73,3.73,0,0,0-.16-1,1.59,1.59,0,0,0-.56-.74,1.84,1.84,0,0,0-1.09-.28,2.28,2.28,0,0,0-1.15.28,1.92,1.92,0,0,0-.78.74,1.78,1.78,0,0,0-.28,1v4.27a.82.82,0,0,1-.23.58.78.78,0,0,1-.57.24.73.73,0,0,1-.58-.24.78.78,0,0,1-.22-.58v-6.78a.81.81,0,0,1,.22-.59.78.78,0,0,1,.58-.23.83.83,0,0,1,.57.23.86.86,0,0,1,.23.59v.89l-.29.16a2.57,2.57,0,0,1,.41-.67,3.92,3.92,0,0,1,.68-.67,3.3,3.3,0,0,1,.9-.5A3.07,3.07,0,0,1,62.73,266.4Z"/><path class="cls-1" d="M67.73,273.69a.8.8,0,0,1-.12-.52.63.63,0,0,1,.33-.5.65.65,0,0,1,.47-.12.83.83,0,0,1,.48.25,3.3,3.3,0,0,0,1,.78,2.87,2.87,0,0,0,1.33.29,3.76,3.76,0,0,0,.66-.1,1.47,1.47,0,0,0,.57-.32,1,1,0,0,0,.24-.68.85.85,0,0,0-.25-.64,2.09,2.09,0,0,0-.67-.4c-.28-.1-.58-.19-.9-.28s-.69-.2-1-.32a3.88,3.88,0,0,1-.94-.45,2.16,2.16,0,0,1-.68-.73,2,2,0,0,1-.26-1.1,2,2,0,0,1,.42-1.3,2.74,2.74,0,0,1,1.11-.85,3.56,3.56,0,0,1,1.48-.3,4.27,4.27,0,0,1,1,.12,4.17,4.17,0,0,1,1,.37,2.89,2.89,0,0,1,.84.68,1,1,0,0,1,.18.49.58.58,0,0,1-.26.51.68.68,0,0,1-.47.15.67.67,0,0,1-.45-.18,2.18,2.18,0,0,0-.78-.6,2.77,2.77,0,0,0-1.72-.13,1.27,1.27,0,0,0-.55.32.83.83,0,0,0-.23.65.76.76,0,0,0,.27.64,2,2,0,0,0,.69.4,9.53,9.53,0,0,0,1,.29l1,.3a3.69,3.69,0,0,1,.88.46,2.32,2.32,0,0,1,.64.72,2.23,2.23,0,0,1,.25,1.11,2,2,0,0,1-.46,1.34,3,3,0,0,1-1.15.84,3.88,3.88,0,0,1-1.46.29,5.1,5.1,0,0,1-1.82-.33A3.3,3.3,0,0,1,67.73,273.69Z"/><path class="cls-1" d="M84.28,270.79a4.57,4.57,0,0,1-.57,2.26A4.15,4.15,0,0,1,80,275.16a4.23,4.23,0,0,1-2.15-.56,4.09,4.09,0,0,1-1.54-1.55,4.86,4.86,0,0,1,0-4.54A4,4,0,0,1,77.87,267a4.24,4.24,0,0,1,5.81,1.51l0,0A4.54,4.54,0,0,1,84.28,270.79Zm-1.6,0a3.24,3.24,0,0,0-.35-1.53,2.9,2.9,0,0,0-1-1,2.6,2.6,0,0,0-1.35-.38,2.46,2.46,0,0,0-1.33.38,2.74,2.74,0,0,0-1,1,3.37,3.37,0,0,0,0,3,2.6,2.6,0,0,0,1,1,2.49,2.49,0,0,0,1.33.36,2.58,2.58,0,0,0,1.35-.36,2.74,2.74,0,0,0,1-1A3.25,3.25,0,0,0,82.68,270.79Z"/><path class="cls-1" d="M88.11,274.19a.82.82,0,0,1-.23.58.79.79,0,0,1-1.12,0h0a.75.75,0,0,1-.24-.58V264a.75.75,0,0,1,.24-.58.78.78,0,0,1,.58-.23.73.73,0,0,1,.57.23.88.88,0,0,1,.21.58Z"/><path class="cls-1" d="M91.61,265.47a1.08,1.08,0,0,1-.68-.17.65.65,0,0,1-.2-.57v-.25a.61.61,0,0,1,.22-.56,1.11,1.11,0,0,1,.67-.16,1.13,1.13,0,0,1,.69.17.63.63,0,0,1,.2.55v.25a.65.65,0,0,1-.22.58A1.08,1.08,0,0,1,91.61,265.47Zm.81,8.72a.87.87,0,0,1-.22.58.76.76,0,0,1-.58.24.8.8,0,0,1-.8-.82v-6.85a.79.79,0,0,1,.8-.81.77.77,0,0,1,.58.23.87.87,0,0,1,.22.58Z"/><path class="cls-1" d="M101.81,263.17a.77.77,0,0,1,.8.74v10.28a.81.81,0,0,1-1.37.59h0a.74.74,0,0,1-.23-.58V273h.32a1.19,1.19,0,0,1-.23.65,3.5,3.5,0,0,1-.63.7,3.56,3.56,0,0,1-.94.55,3.37,3.37,0,0,1-1.17.22,3.61,3.61,0,0,1-2-.57A3.94,3.94,0,0,1,95,273a5.22,5.22,0,0,1,0-4.53A3.82,3.82,0,0,1,96.34,267a3.64,3.64,0,0,1,3.21-.35,4,4,0,0,1,1,.58,3.42,3.42,0,0,1,.68.74,1.43,1.43,0,0,1,.25.75H101v-4.75a.74.74,0,0,1,.23-.58A.73.73,0,0,1,101.81,263.17Zm-3.26,10.52a2.33,2.33,0,0,0,1.32-.38,2.77,2.77,0,0,0,.89-1,3.65,3.65,0,0,0,0-3,2.77,2.77,0,0,0-.89-1,2.45,2.45,0,0,0-2.63,0,2.58,2.58,0,0,0-.91,1,3.65,3.65,0,0,0,0,3,2.58,2.58,0,0,0,.91,1A2.23,2.23,0,0,0,98.55,273.69Z"/><path class="cls-1" d="M112.11,266.46a.83.83,0,0,1,.57.23.86.86,0,0,1,.23.59v6.91a.82.82,0,0,1-.23.58.78.78,0,0,1-.57.24.73.73,0,0,1-.58-.24.78.78,0,0,1-.22-.58V273l.31,0a1.16,1.16,0,0,1-.23.64,3.37,3.37,0,0,1-.63.68,3.72,3.72,0,0,1-1,.54,3.07,3.07,0,0,1-1.16.22,3.61,3.61,0,0,1-2-.57,3.94,3.94,0,0,1-1.39-1.56,5.31,5.31,0,0,1,0-4.54,3.92,3.92,0,0,1,1.37-1.54,3.46,3.46,0,0,1,2-.56,3.4,3.4,0,0,1,1.27.22,3.32,3.32,0,0,1,1,.58,3,3,0,0,1,.68.74,1.34,1.34,0,0,1,.24.75h-.5v-1.45a.89.89,0,0,1,.22-.58A.79.79,0,0,1,112.11,266.46Zm-3.3,7.23a2.28,2.28,0,0,0,1.31-.38,2.57,2.57,0,0,0,.88-1,3,3,0,0,0,.32-1.48,3.08,3.08,0,0,0-.32-1.49,2.57,2.57,0,0,0-.88-1,2.45,2.45,0,0,0-2.63,0,2.59,2.59,0,0,0-.89,1,3.08,3.08,0,0,0-.32,1.49,3,3,0,0,0,.32,1.48,2.45,2.45,0,0,0,.89,1A2.19,2.19,0,0,0,108.81,273.69Z"/><path class="cls-1" d="M115.38,266.69h3.73a.78.78,0,0,1,.54.21.81.81,0,0,1,.21.54.74.74,0,0,1-.21.51.78.78,0,0,1-.54.21h-3.73a.74.74,0,0,1-.53-1.27A.69.69,0,0,1,115.38,266.69Zm1.73-2.08a.77.77,0,0,1,.58.23.87.87,0,0,1,.22.58v7.43a.82.82,0,0,0,.1.46.44.44,0,0,0,.26.24,1,1,0,0,0,.35.06.85.85,0,0,0,.31-.06.88.88,0,0,1,.33-.06.49.49,0,0,1,.35.17.84.84,0,0,1,.16.48.73.73,0,0,1-.42.63,1.75,1.75,0,0,1-.89.24,4.48,4.48,0,0,1-.64-.05,1.81,1.81,0,0,1-.72-.24,1.4,1.4,0,0,1-.56-.62,2.44,2.44,0,0,1-.23-1.19v-7.49a.79.79,0,0,1,.8-.81Z"/><path class="cls-1" d="M125.83,275.17a4.58,4.58,0,0,1-2.3-.56,3.77,3.77,0,0,1-1.52-1.52,4.38,4.38,0,0,1-.53-2.21,4.71,4.71,0,0,1,.57-2.41,3.91,3.91,0,0,1,1.48-1.54,3.86,3.86,0,0,1,2-.53,3.64,3.64,0,0,1,1.48.31,4.18,4.18,0,0,1,2.1,2.16,4.46,4.46,0,0,1,.33,1.62.76.76,0,0,1-.25.53.85.85,0,0,1-.56.21h-6.24l-.38-1.36h6l-.3.29v-.37a1.79,1.79,0,0,0-.39-1,2.26,2.26,0,0,0-.82-.65,2.36,2.36,0,0,0-1-.23,2.88,2.88,0,0,0-.93.15,1.82,1.82,0,0,0-.78.49,2.26,2.26,0,0,0-.55.88,3.74,3.74,0,0,0-.23,1.36,3.05,3.05,0,0,0,.37,1.54,2.65,2.65,0,0,0,2.39,1.37,3.42,3.42,0,0,0,1-.12,2.63,2.63,0,0,0,.64-.29,4.7,4.7,0,0,0,.44-.34,1,1,0,0,1,.48-.14.6.6,0,0,1,.48.2.67.67,0,0,1,.2.47.84.84,0,0,1-.36.64,3.89,3.89,0,0,1-1.19.74A4.18,4.18,0,0,1,125.83,275.17Z"/><path class="cls-1" d="M138.37,263.17a.77.77,0,0,1,.8.74v10.28a.81.81,0,0,1-1.37.59h0a.74.74,0,0,1-.23-.58V273h.32a1.13,1.13,0,0,1-.24.65,3.18,3.18,0,0,1-.62.7,3.47,3.47,0,0,1-.95.55,3.27,3.27,0,0,1-1.16.22,3.61,3.61,0,0,1-2-.57,4,4,0,0,1-1.41-1.55,5.28,5.28,0,0,1,0-4.53,4,4,0,0,1,1.38-1.55,3.65,3.65,0,0,1,3.21-.35,3.69,3.69,0,0,1,1,.58,3,3,0,0,1,.68.74,1.27,1.27,0,0,1,.25.75h-.5v-4.75a.82.82,0,0,1,.23-.58A.76.76,0,0,1,138.37,263.17Zm-3.26,10.52a2.33,2.33,0,0,0,1.32-.38,2.77,2.77,0,0,0,.89-1,3.65,3.65,0,0,0,0-3,2.77,2.77,0,0,0-.89-1,2.45,2.45,0,0,0-2.63,0,2.48,2.48,0,0,0-.9,1,3.57,3.57,0,0,0,0,3,2.48,2.48,0,0,0,.9,1A2.23,2.23,0,0,0,135.11,273.69Z"/><path class="cls-1" d="M150.87,266.45a2.59,2.59,0,0,1,1.82.58,2.92,2.92,0,0,1,.85,1.58l-.26-.08.12-.26a3,3,0,0,1,.63-.84,3.22,3.22,0,0,1,1-.7,2.73,2.73,0,0,1,1.26-.28,2.7,2.7,0,0,1,1.71.47,2.43,2.43,0,0,1,.85,1.26,6.24,6.24,0,0,1,.23,1.77v4.24a.74.74,0,0,1-.23.58.71.71,0,0,1-.57.24.78.78,0,0,1-.57-.24.82.82,0,0,1-.23-.58V270a2.82,2.82,0,0,0-.15-1,1.37,1.37,0,0,0-.53-.74,1.67,1.67,0,0,0-1-.28,2.18,2.18,0,0,0-1.11.28,2.1,2.1,0,0,0-.77.74,2.17,2.17,0,0,0-.27,1v4.22a.78.78,0,0,1-.22.58.8.8,0,0,1-1.14,0h0a.82.82,0,0,1-.23-.58V270a2.82,2.82,0,0,0-.15-1,1.35,1.35,0,0,0-.52-.74,1.66,1.66,0,0,0-1-.27,2.3,2.3,0,0,0-1.11.27,2.1,2.1,0,0,0-.74.74,2,2,0,0,0-.26,1v4.24a.75.75,0,0,1-.24.58.8.8,0,0,1-1.13,0h0a.87.87,0,0,1-.22-.58v-6.78a.9.9,0,0,1,.22-.59.81.81,0,0,1,1.14,0,.77.77,0,0,1,.24.59v.94l-.31.18a3.06,3.06,0,0,1,.37-.72,3.28,3.28,0,0,1,.66-.68,3.37,3.37,0,0,1,.87-.49A2.67,2.67,0,0,1,150.87,266.45Z"/><path class="cls-1" d="M168.58,266.46a.83.83,0,0,1,.57.23.86.86,0,0,1,.23.59v6.91a.82.82,0,0,1-.23.58.78.78,0,0,1-.57.24.75.75,0,0,1-.58-.24.8.8,0,0,1-.22-.58V273l.32,0a1.34,1.34,0,0,1-.23.64,4.07,4.07,0,0,1-.63.68,3.89,3.89,0,0,1-1,.54,3.15,3.15,0,0,1-1.17.22,3.61,3.61,0,0,1-2-.57,3.94,3.94,0,0,1-1.39-1.56,5.31,5.31,0,0,1,0-4.54,3.87,3.87,0,0,1,1.38-1.54,3.7,3.7,0,0,1,3.22-.34,3.58,3.58,0,0,1,1,.58,3.15,3.15,0,0,1,.67.74,1.43,1.43,0,0,1,.25.75h-.5v-1.45a.8.8,0,0,1,.22-.58A.75.75,0,0,1,168.58,266.46Zm-3.26,7.23a2.33,2.33,0,0,0,1.32-.38,2.58,2.58,0,0,0,.88-1,3.29,3.29,0,0,0,.32-1.48,3.33,3.33,0,0,0-.32-1.49,2.74,2.74,0,0,0-.88-1,2.33,2.33,0,0,0-1.32-.38,2.45,2.45,0,0,0-1.32.38,2.59,2.59,0,0,0-.89,1,3.36,3.36,0,0,0-.32,1.49,3.29,3.29,0,0,0,.32,1.48,2.45,2.45,0,0,0,.89,1,2.29,2.29,0,0,0,1.32.38Z"/><path class="cls-1" d="M172.8,275a.75.75,0,0,1-.58-.24.87.87,0,0,1-.22-.58v-6.78a.9.9,0,0,1,.22-.59.82.82,0,0,1,1.39.59v1.79l-.17-.69a2.75,2.75,0,0,1,.39-.83,2.71,2.71,0,0,1,.64-.67,2.52,2.52,0,0,1,.82-.45,2.75,2.75,0,0,1,1-.16,1.18,1.18,0,0,1,.72.22.69.69,0,0,1,.31.56.9.9,0,0,1-.22.63.74.74,0,0,1-.5.2,1.1,1.1,0,0,1-.47-.1,1.15,1.15,0,0,0-.52-.1,1.54,1.54,0,0,0-.7.17,2.12,2.12,0,0,0-.64.52,3.09,3.09,0,0,0-.46.81,3.37,3.37,0,0,0-.16,1v3.84a.75.75,0,0,1-.24.58A.72.72,0,0,1,172.8,275Z"/><path class="cls-1" d="M180,275a.78.78,0,0,1-.58-.24.77.77,0,0,1-.22-.58V264a.77.77,0,0,1,.22-.58.78.78,0,0,1,.58-.23.77.77,0,0,1,.58.23.87.87,0,0,1,.22.58v10.21a.87.87,0,0,1-.22.58A.76.76,0,0,1,180,275Zm5.22-8.45a.67.67,0,0,1,.52.25.89.89,0,0,1,.23.52.81.81,0,0,1-.31.59l-5,4.48-.07-1.84,4-3.75A.81.81,0,0,1,185.24,266.56Zm.19,8.43a.75.75,0,0,1-.58-.27l-3.2-3.38,1.22-1.12L186,273.6a.86.86,0,0,1,.25.61.69.69,0,0,1-.28.56.89.89,0,0,1-.53.22Z"/><path class="cls-1" d="M188.94,271.13a.78.78,0,0,1-.57-.22.82.82,0,0,1-.23-.58.78.78,0,0,1,.76-.78h3a.83.83,0,0,1,.58.23.85.85,0,0,1,.24.59.76.76,0,0,1-.24.55.88.88,0,0,1-.58.21Z"/><path class="cls-1" d="M196.85,274.19a.82.82,0,0,1-.23.58.74.74,0,0,1-.57.24.78.78,0,0,1-.58-.24.77.77,0,0,1-.22-.58V264a.79.79,0,0,1,.78-.81h0a.73.73,0,0,1,.57.23.88.88,0,0,1,.21.58Z"/><path class="cls-1" d="M200.32,265.47a1,1,0,0,1-.67-.17.66.66,0,0,1-.21-.57v-.25a.62.62,0,0,1,.23-.56,1.1,1.1,0,0,1,.66-.16,1.14,1.14,0,0,1,.7.17.66.66,0,0,1,.21.55v.25a.73.73,0,0,1-.22.58A1.17,1.17,0,0,1,200.32,265.47Zm.82,8.72a.87.87,0,0,1-.22.58.78.78,0,0,1-.58.24.8.8,0,0,1-.8-.82v-6.85a.79.79,0,0,1,.8-.81.77.77,0,0,1,.58.23.87.87,0,0,1,.22.58Z"/><path class="cls-1" d="M203.19,273.69a.86.86,0,0,1-.11-.52.63.63,0,0,1,.33-.5.65.65,0,0,1,.47-.12.83.83,0,0,1,.48.25,3.3,3.3,0,0,0,1,.78,2.87,2.87,0,0,0,1.33.29,3.76,3.76,0,0,0,.66-.1,1.47,1.47,0,0,0,.57-.32,1,1,0,0,0,.24-.68.85.85,0,0,0-.25-.64,2.09,2.09,0,0,0-.67-.4c-.28-.1-.58-.19-.9-.28s-.69-.2-1-.32a3.88,3.88,0,0,1-.94-.45,2.16,2.16,0,0,1-.68-.73,2,2,0,0,1-.26-1.1,2,2,0,0,1,.42-1.3,2.74,2.74,0,0,1,1.11-.85,3.56,3.56,0,0,1,1.48-.3,4.27,4.27,0,0,1,1,.12,4.17,4.17,0,0,1,1,.37,2.89,2.89,0,0,1,.84.68,1,1,0,0,1,.18.49.58.58,0,0,1-.26.51.68.68,0,0,1-.47.15.67.67,0,0,1-.45-.18,2.18,2.18,0,0,0-.78-.6,2.77,2.77,0,0,0-1.72-.13,1.27,1.27,0,0,0-.55.32.83.83,0,0,0-.23.65.76.76,0,0,0,.27.64,2,2,0,0,0,.69.4,9.53,9.53,0,0,0,.95.29l1,.3a3.69,3.69,0,0,1,.88.46,2.32,2.32,0,0,1,.64.72,2.23,2.23,0,0,1,.25,1.11,2,2,0,0,1-.46,1.34,3,3,0,0,1-1.15.84,3.88,3.88,0,0,1-1.46.29,5.1,5.1,0,0,1-1.82-.33A3.37,3.37,0,0,1,203.19,273.69Z"/><path class="cls-1" d="M211.64,266.69h3.75a.73.73,0,0,1,.75.75.63.63,0,0,1-.22.51.7.7,0,0,1-.53.21h-3.75a.67.67,0,0,1-.54-.22.72.72,0,0,1,0-1A.7.7,0,0,1,211.64,266.69Zm1.67-2.08a.74.74,0,0,1,.58.23.77.77,0,0,1,.22.58v7.43a1.18,1.18,0,0,0,.09.46.52.52,0,0,0,.27.24,1,1,0,0,0,.34.06.78.78,0,0,0,.31-.06,1,1,0,0,1,.33-.06.46.46,0,0,1,.36.17.7.7,0,0,1,.16.48.74.74,0,0,1-.41.63,1.81,1.81,0,0,1-.9.24A4.48,4.48,0,0,1,214,275a1.71,1.71,0,0,1-.71-.24,1.51,1.51,0,0,1-.58-.62,2.68,2.68,0,0,1-.22-1.19v-7.49a.82.82,0,0,1,.23-.58.74.74,0,0,1,.58-.23Z"/><path class="cls-1" d="M230,266.46a.79.79,0,0,1,.8.78v6.95a.81.81,0,0,1-1.37.59h0a.74.74,0,0,1-.23-.58V273l.32,0a1.34,1.34,0,0,1-.23.64,3.14,3.14,0,0,1-.63.68,4,4,0,0,1-.94.54,3.37,3.37,0,0,1-1.17.22,3.61,3.61,0,0,1-2-.57,3.94,3.94,0,0,1-1.39-1.56,5.31,5.31,0,0,1,0-4.54,3.82,3.82,0,0,1,1.39-1.54,3.67,3.67,0,0,1,3.21-.34,3.73,3.73,0,0,1,1,.58,3.15,3.15,0,0,1,.67.74,1.51,1.51,0,0,1,.24.75h-.5v-1.45a.75.75,0,0,1,.23-.58A.74.74,0,0,1,230,266.46Zm-3.26,7.23a2.33,2.33,0,0,0,1.32-.38,2.77,2.77,0,0,0,.89-1,3.58,3.58,0,0,0,.32-1.48,3.66,3.66,0,0,0-.32-1.49,2.77,2.77,0,0,0-.89-1,2.45,2.45,0,0,0-2.63,0,2.54,2.54,0,0,0-.9,1,3.36,3.36,0,0,0-.32,1.49,3.29,3.29,0,0,0,.32,1.48,2.59,2.59,0,0,0,.89,1,2.29,2.29,0,0,0,1.32.38Z"/><path class="cls-1" d="M237.75,266.4a2.87,2.87,0,0,1,1.76.47,2.49,2.49,0,0,1,.88,1.26,6.26,6.26,0,0,1,.25,1.77v4.29a.81.81,0,0,1-1.37.59h0a.74.74,0,0,1-.23-.58v-4.27a3.37,3.37,0,0,0-.16-1,1.51,1.51,0,0,0-.55-.74,1.84,1.84,0,0,0-1.09-.28,2.32,2.32,0,0,0-1.16.28,2,2,0,0,0-.77.74,1.78,1.78,0,0,0-.28,1v4.27a.82.82,0,0,1-.23.58.78.78,0,0,1-.58.24.76.76,0,0,1-.58-.24.87.87,0,0,1-.22-.58v-6.78a.9.9,0,0,1,.22-.59.81.81,0,0,1,.58-.23.83.83,0,0,1,.58.23.86.86,0,0,1,.23.59v.89l-.29.16a2,2,0,0,1,.37-.67,4.25,4.25,0,0,1,.67-.67,3.62,3.62,0,0,1,.9-.5A3.1,3.1,0,0,1,237.75,266.4Z"/><path class="cls-1" d="M250.11,263.17a.77.77,0,0,1,.8.74v10.28a.82.82,0,0,1-.23.58.78.78,0,0,1-.57.24.73.73,0,0,1-.58-.24.78.78,0,0,1-.22-.58V273h.32a1.38,1.38,0,0,1-.23.65,4.2,4.2,0,0,1-.63.7,3.63,3.63,0,0,1-1,.55,3.15,3.15,0,0,1-1.17.22,3.61,3.61,0,0,1-2-.57,3.94,3.94,0,0,1-1.4-1.55,5.22,5.22,0,0,1,0-4.53,3.82,3.82,0,0,1,1.38-1.55,3.62,3.62,0,0,1,3.2-.35,3.73,3.73,0,0,1,1,.58,3.42,3.42,0,0,1,.68.74,1.52,1.52,0,0,1,.25.75h-.5v-4.75a.78.78,0,0,1,.22-.58A.73.73,0,0,1,250.11,263.17Zm-3.26,10.52a2.33,2.33,0,0,0,1.32-.38,2.74,2.74,0,0,0,.88-1,3.65,3.65,0,0,0,0-3,2.74,2.74,0,0,0-.88-1,2.47,2.47,0,0,0-2.64,0,2.59,2.59,0,0,0-.89,1,3.57,3.57,0,0,0,0,3,2.53,2.53,0,0,0,.89,1,2.22,2.22,0,0,0,1.3.38Z"/><path class="cls-1" d="M46.25,286.73a.69.69,0,0,1,.52.21.77.77,0,0,1,0,1.06.69.69,0,0,1-.52.21H42.11a.7.7,0,0,1-.52-.21.75.75,0,0,1,0-1.06.7.7,0,0,1,.52-.21Zm-.32-3.55a2.7,2.7,0,0,1,.62.08,1.45,1.45,0,0,1,.54.27.67.67,0,0,1,.21.5.76.76,0,0,1-.19.52.61.61,0,0,1-.45.2,1.49,1.49,0,0,1-.43-.07,2,2,0,0,0-.54-.07,1,1,0,0,0-.58.18.88.88,0,0,0-.32.42,1.37,1.37,0,0,0-.09.49v8.51a.82.82,0,0,1-.23.58.78.78,0,0,1-.57.24.73.73,0,0,1-.58-.24.75.75,0,0,1-.21-.6v-8.5a2.35,2.35,0,0,1,.73-1.8A2.89,2.89,0,0,1,45.93,283.18Z"/><path class="cls-1" d="M52.58,295.17a4.57,4.57,0,0,1-2.29-.56,3.65,3.65,0,0,1-1.52-1.52,4.39,4.39,0,0,1-.54-2.21,4.71,4.71,0,0,1,.57-2.41,3.94,3.94,0,0,1,1.49-1.54,3.75,3.75,0,0,1,1.94-.53,3.64,3.64,0,0,1,1.48.31,4.47,4.47,0,0,1,1.26.86,4.53,4.53,0,0,1,.86,1.3,4.69,4.69,0,0,1,.34,1.62.81.81,0,0,1-.26.53.85.85,0,0,1-.56.21H49.11l-.38-1.36h6l-.3.29v-.37a1.92,1.92,0,0,0-.38-1,2.4,2.4,0,0,0-1.86-.88,2.88,2.88,0,0,0-.93.15,1.82,1.82,0,0,0-.78.49,2.26,2.26,0,0,0-.55.88,3.77,3.77,0,0,0-.2,1.37,3,3,0,0,0,.36,1.54,2.68,2.68,0,0,0,2.39,1.37,3.42,3.42,0,0,0,1-.12,2.3,2.3,0,0,0,.64-.29c.17-.12.32-.23.45-.34a1,1,0,0,1,.48-.14.63.63,0,0,1,.48.2.73.73,0,0,1,.19.47.85.85,0,0,1-.35.64,3.94,3.94,0,0,1-1.2.74A4,4,0,0,1,52.58,295.17Z"/><path class="cls-1" d="M62.11,295.17a4.57,4.57,0,0,1-2.29-.56,3.65,3.65,0,0,1-1.52-1.52,4.39,4.39,0,0,1-.54-2.21,4.71,4.71,0,0,1,.57-2.41,3.94,3.94,0,0,1,1.49-1.54,3.75,3.75,0,0,1,1.94-.53,3.64,3.64,0,0,1,1.48.31,4.47,4.47,0,0,1,1.26.86,4.53,4.53,0,0,1,.86,1.3,4.47,4.47,0,0,1,.34,1.62.75.75,0,0,1-.26.53.85.85,0,0,1-.56.21H58.69l-.38-1.36h6l-.31.29v-.37a1.92,1.92,0,0,0-.38-1,2.4,2.4,0,0,0-1.86-.88,2.88,2.88,0,0,0-.93.15,1.82,1.82,0,0,0-.78.49,2.23,2.23,0,0,0-.54.88,3.54,3.54,0,0,0-.21,1.37,3,3,0,0,0,.37,1.54,2.53,2.53,0,0,0,1,1,2.7,2.7,0,0,0,1.39.36,3.42,3.42,0,0,0,1-.12,2.3,2.3,0,0,0,.64-.29c.17-.12.32-.23.45-.34a1,1,0,0,1,.48-.14.63.63,0,0,1,.48.2.67.67,0,0,1,.19.47.85.85,0,0,1-.35.64,4.47,4.47,0,0,1-1.19.74A4.28,4.28,0,0,1,62.11,295.17Z"/><path class="cls-1" d="M74.68,283.17a.77.77,0,0,1,.8.74v10.28a.82.82,0,0,1-.23.58.78.78,0,0,1-.57.24.75.75,0,0,1-.57-.22.78.78,0,0,1-.22-.58v-1.15h.32a1.38,1.38,0,0,1-.23.65A3.4,3.4,0,0,1,72.4,295a3.15,3.15,0,0,1-1.17.22,3.61,3.61,0,0,1-2-.57,3.94,3.94,0,0,1-1.4-1.55,5.15,5.15,0,0,1,0-4.53A3.82,3.82,0,0,1,69.21,287a3.62,3.62,0,0,1,3.2-.35,3.73,3.73,0,0,1,1,.58,3.42,3.42,0,0,1,.68.74,1.51,1.51,0,0,1,.24.75h-.49V284a.78.78,0,0,1,.22-.58A.74.74,0,0,1,74.68,283.17Zm-3.27,10.52a2.23,2.23,0,0,0,1.32-.38,2.69,2.69,0,0,0,.89-1,3.65,3.65,0,0,0,0-3,2.77,2.77,0,0,0-.89-1,2.47,2.47,0,0,0-2.63,0,2.59,2.59,0,0,0-.89,1,3.57,3.57,0,0,0,0,3,2.53,2.53,0,0,0,.89,1A2.23,2.23,0,0,0,71.41,293.69Z"/><path class="cls-1" d="M82.34,286.4a3.57,3.57,0,0,1,2,.56,4,4,0,0,1,1.39,1.54,5.38,5.38,0,0,1,0,4.54,4.15,4.15,0,0,1-1.38,1.56,3.56,3.56,0,0,1-3.11.37,4,4,0,0,1-1-.52,3.53,3.53,0,0,1-.68-.66,1.64,1.64,0,0,1-.33-.66l.43-.2v1.39a.77.77,0,0,1-.23.57.79.79,0,0,1-.57.23.77.77,0,0,1-.57-.23.81.81,0,0,1-.23-.57V284a.82.82,0,0,1,.23-.58.82.82,0,0,1,1.14,0,.74.74,0,0,1,.23.58v4.5l-.25-.15a1.47,1.47,0,0,1,.3-.63,3.52,3.52,0,0,1,.65-.63,4.08,4.08,0,0,1,.89-.49A3.37,3.37,0,0,1,82.34,286.4Zm-.17,1.47a2.33,2.33,0,0,0-1.34.38,2.53,2.53,0,0,0-.89,1,3.29,3.29,0,0,0-.32,1.48,3.36,3.36,0,0,0,.32,1.49,2.45,2.45,0,0,0,.89,1,2.5,2.5,0,0,0,2.65,0,2.86,2.86,0,0,0,.89-1.06,3.58,3.58,0,0,0,0-3,2.77,2.77,0,0,0-.89-1A2.35,2.35,0,0,0,82.17,287.87Z"/><path class="cls-1" d="M95.19,286.46a.83.83,0,0,1,.57.23.86.86,0,0,1,.23.59v6.91a.82.82,0,0,1-.23.58.78.78,0,0,1-.57.24.73.73,0,0,1-.58-.24.78.78,0,0,1-.22-.58V293l.32,0a1.34,1.34,0,0,1-.23.64A3.16,3.16,0,0,1,92.85,295a3.15,3.15,0,0,1-1.17.22,3.61,3.61,0,0,1-2-.57A3.94,3.94,0,0,1,88.29,293a5.31,5.31,0,0,1,0-4.54A3.87,3.87,0,0,1,89.67,287a3.42,3.42,0,0,1,2-.56,3.47,3.47,0,0,1,1.27.22,3.58,3.58,0,0,1,1,.58,3.42,3.42,0,0,1,.68.74,1.51,1.51,0,0,1,.24.75h-.5v-1.45a.8.8,0,0,1,.22-.58A.76.76,0,0,1,95.19,286.46Zm-3.26,7.23a2.33,2.33,0,0,0,1.32-.38,2.74,2.74,0,0,0,.88-1,3.29,3.29,0,0,0,.32-1.48,3.43,3.43,0,0,0-.34-1.54,2.74,2.74,0,0,0-.88-1,2.47,2.47,0,0,0-2.64,0,2.59,2.59,0,0,0-.89,1,3.08,3.08,0,0,0-.32,1.49,3,3,0,0,0,.32,1.48,2.45,2.45,0,0,0,.89,1,2.19,2.19,0,0,0,1.34.43Z"/><path class="cls-1" d="M102.28,286.4a5.72,5.72,0,0,1,1.53.18,2.79,2.79,0,0,1,1,.51,1,1,0,0,1,.38.76.93.93,0,0,1-.16.51.56.56,0,0,1-.47.23.85.85,0,0,1-.39-.08.92.92,0,0,1-.28-.19l-.32-.23a2.59,2.59,0,0,0-.52-.16,3.34,3.34,0,0,0-.62-.06,2.75,2.75,0,0,0-1.46.38,2.53,2.53,0,0,0-1,1,3.3,3.3,0,0,0,0,3,2.59,2.59,0,0,0,2.34,1.38,3.52,3.52,0,0,0,.79-.07,2.68,2.68,0,0,0,.52-.18,4,4,0,0,0,.42-.3.63.63,0,0,1,.46-.15.7.7,0,0,1,.54.22.85.85,0,0,1,.18.53.94.94,0,0,1-.42.68,3.56,3.56,0,0,1-1.13.54,5.47,5.47,0,0,1-1.55.21,3.93,3.93,0,0,1-2.17-.58A3.71,3.71,0,0,1,98.53,293a4.76,4.76,0,0,1-.42-2.17,4.53,4.53,0,0,1,.53-2.25,4,4,0,0,1,1.47-1.57A4.1,4.1,0,0,1,102.28,286.4Z"/><path class="cls-1" d="M108.18,295a.8.8,0,0,1-.8-.82V284a.79.79,0,0,1,.8-.81.77.77,0,0,1,.58.23.87.87,0,0,1,.22.58v10.21a.87.87,0,0,1-.22.58A.76.76,0,0,1,108.18,295Zm5.22-8.45a.7.7,0,0,1,.53.25.9.9,0,0,1,.22.52.8.8,0,0,1-.3.59l-5,4.48-.07-1.84,4-3.75A.78.78,0,0,1,113.4,286.56Zm.19,8.43a.75.75,0,0,1-.58-.27l-3.2-3.38,1.22-1.12,3.08,3.38a.92.92,0,0,1,.26.61.72.72,0,0,1-.26.58.91.91,0,0,1-.52.2Z"/><path class="cls-1" d="M124.23,290.79a4.57,4.57,0,0,1-.57,2.26,4.15,4.15,0,0,1-3.69,2.11,4.23,4.23,0,0,1-2.15-.56,4.14,4.14,0,0,1-1.53-1.55,4.81,4.81,0,0,1,0-4.54,3.93,3.93,0,0,1,1.53-1.55,4.24,4.24,0,0,1,5.81,1.51l0,0A4.54,4.54,0,0,1,124.23,290.79Zm-1.6,0a3.24,3.24,0,0,0-.35-1.53,2.9,2.9,0,0,0-1-1,2.61,2.61,0,0,0-1.36-.38,2.46,2.46,0,0,0-1.33.38,2.74,2.74,0,0,0-1,1,3.37,3.37,0,0,0,0,3,2.6,2.6,0,0,0,1,1,2.49,2.49,0,0,0,1.33.36,2.64,2.64,0,0,0,1.36-.36,2.74,2.74,0,0,0,1-1A3.25,3.25,0,0,0,122.63,290.79Z"/><path class="cls-1" d="M130.69,286.4a2.91,2.91,0,0,1,1.76.47,2.61,2.61,0,0,1,.88,1.26,6.63,6.63,0,0,1,.24,1.77v4.29a.78.78,0,0,1-.24.58.8.8,0,0,1-1.13,0h0a.82.82,0,0,1-.23-.58v-4.27a2.83,2.83,0,0,0-.16-1,1.4,1.4,0,0,0-.55-.74,1.8,1.8,0,0,0-1.09-.28,2.37,2.37,0,0,0-1.16.28,2.1,2.1,0,0,0-.77.74,2,2,0,0,0-.28,1v4.27a.8.8,0,0,1-.8.82.76.76,0,0,1-.58-.24.87.87,0,0,1-.22-.58v-6.78a.9.9,0,0,1,.22-.59.81.81,0,0,1,.58-.23.79.79,0,0,1,.57.23.78.78,0,0,1,.23.59v.89l-.29.16a2.19,2.19,0,0,1,.45-.67,3.67,3.67,0,0,1,1.58-1.17A3,3,0,0,1,130.69,286.4Z"/><path class="cls-1" d="M140.93,286.69h3.76a.74.74,0,0,1,.54.21.77.77,0,0,1,.22.54.7.7,0,0,1-.22.51.74.74,0,0,1-.54.21h-3.76a.74.74,0,0,1-.53-1.27A.69.69,0,0,1,140.93,286.69Zm1.68-2.08a.77.77,0,0,1,.58.23.87.87,0,0,1,.22.58v7.43a.91.91,0,0,0,.1.46.44.44,0,0,0,.26.24,1,1,0,0,0,.35.06.85.85,0,0,0,.31-.06.88.88,0,0,1,.33-.06.46.46,0,0,1,.35.17.7.7,0,0,1,.16.48.73.73,0,0,1-.42.63,1.75,1.75,0,0,1-.89.24,4.48,4.48,0,0,1-.64-.05,1.71,1.71,0,0,1-.71-.24,1.42,1.42,0,0,1-.57-.62,2.44,2.44,0,0,1-.23-1.19v-7.49a.75.75,0,0,1,.24-.58A.72.72,0,0,1,142.61,284.61Z"/><path class="cls-1" d="M151.86,286.45a2.7,2.7,0,0,1,1.71.47,2.54,2.54,0,0,1,.86,1.27,6.51,6.51,0,0,1,.25,1.76v4.24a.83.83,0,0,1-.24.58.76.76,0,0,1-.56.24.73.73,0,0,1-.58-.24.78.78,0,0,1-.22-.58V290a3.37,3.37,0,0,0-.16-1,1.46,1.46,0,0,0-.52-.74,1.8,1.8,0,0,0-1.05-.27,2.25,2.25,0,0,0-1.11.27,1.84,1.84,0,0,0-.75.74,2,2,0,0,0-.27,1v4.24a.82.82,0,0,1-.23.58.78.78,0,0,1-.57.24.71.71,0,0,1-.57-.24.78.78,0,0,1-.24-.58V284a.78.78,0,0,1,.24-.58.71.71,0,0,1,.57-.23.77.77,0,0,1,.57.23.82.82,0,0,1,.23.58v4.37l-.29.16a2.49,2.49,0,0,1,.38-.72,3.17,3.17,0,0,1,.65-.67,3.25,3.25,0,0,1,.87-.49A3,3,0,0,1,151.86,286.45Z"/><path class="cls-1" d="M161.11,295.17a4.58,4.58,0,0,1-2.3-.56,3.77,3.77,0,0,1-1.52-1.52,4.38,4.38,0,0,1-.53-2.21,4.71,4.71,0,0,1,.57-2.41,3.91,3.91,0,0,1,1.48-1.54,3.86,3.86,0,0,1,2-.53,3.64,3.64,0,0,1,1.48.31,4.47,4.47,0,0,1,1.26.86,4.53,4.53,0,0,1,.86,1.3,4.46,4.46,0,0,1,.33,1.62.76.76,0,0,1-.25.53.85.85,0,0,1-.56.21h-6.21l-.38-1.36h6l-.3.29v-.37a1.79,1.79,0,0,0-.39-1,2.26,2.26,0,0,0-.82-.65,2.36,2.36,0,0,0-1-.23,2.88,2.88,0,0,0-.93.15,1.82,1.82,0,0,0-.78.49,2.26,2.26,0,0,0-.55.88,3.54,3.54,0,0,0-.21,1.37,3.05,3.05,0,0,0,.37,1.54,2.66,2.66,0,0,0,2.38,1.35,3.42,3.42,0,0,0,1-.12,2.3,2.3,0,0,0,.64-.29,4.7,4.7,0,0,0,.44-.34,1.12,1.12,0,0,1,.48-.14.6.6,0,0,1,.48.2.67.67,0,0,1,.2.47.84.84,0,0,1-.36.64,3.89,3.89,0,0,1-1.19.74A4.13,4.13,0,0,1,161.11,295.17Z"/><path class="cls-1" d="M178.53,286.46a.79.79,0,0,1,.8.78v6.95a.81.81,0,0,1-1.37.59h0a.74.74,0,0,1-.23-.58V293l.32,0a1.34,1.34,0,0,1-.23.64,3.14,3.14,0,0,1-.63.68,4,4,0,0,1-1,.54,3.32,3.32,0,0,1-1.16.22,3.61,3.61,0,0,1-2-.57,3.94,3.94,0,0,1-1.39-1.56,5.31,5.31,0,0,1,0-4.54A3.87,3.87,0,0,1,173,287a3.58,3.58,0,0,1,4.22.24,3.38,3.38,0,0,1,.67.74,1.51,1.51,0,0,1,.24.75h-.5v-1.45a.75.75,0,0,1,.23-.58A.74.74,0,0,1,178.53,286.46Zm-3.26,7.23a2.33,2.33,0,0,0,1.32-.38,2.77,2.77,0,0,0,.89-1,3.58,3.58,0,0,0,.32-1.48,3.66,3.66,0,0,0-.32-1.49,2.77,2.77,0,0,0-.89-1,2.45,2.45,0,0,0-2.63,0,2.48,2.48,0,0,0-.9,1,3.36,3.36,0,0,0-.32,1.49,3.29,3.29,0,0,0,.32,1.48,2.45,2.45,0,0,0,.89,1,2.29,2.29,0,0,0,1.32.38Z"/><path class="cls-1" d="M186.19,286.45a3.52,3.52,0,0,1,2,.56,4,4,0,0,1,1.39,1.52,5.19,5.19,0,0,1,0,4.53,4.07,4.07,0,0,1-1.37,1.54,3.57,3.57,0,0,1-2,.56,3.38,3.38,0,0,1-1.15-.19,3.63,3.63,0,0,1-1-.51,3.28,3.28,0,0,1-.68-.66,1.71,1.71,0,0,1-.33-.66l.44-.2v4.46a.83.83,0,0,1-.24.58.76.76,0,0,1-.56.24.73.73,0,0,1-.58-.24.78.78,0,0,1-.22-.58v-10a.76.76,0,0,1,.22-.57.73.73,0,0,1,.58-.24.76.76,0,0,1,.56.24.8.8,0,0,1,.24.57v1.11l-.26-.15a1.27,1.27,0,0,1,.3-.63,2.91,2.91,0,0,1,.65-.61,3.22,3.22,0,0,1,.9-.47A2.92,2.92,0,0,1,186.19,286.45Zm-.17,1.47a2.42,2.42,0,0,0-1.34.37,2.57,2.57,0,0,0-.88,1,3.13,3.13,0,0,0-.33,1.47,3.17,3.17,0,0,0,.33,1.48,2.43,2.43,0,0,0,.88,1,2.33,2.33,0,0,0,1.34.38,2.28,2.28,0,0,0,1.31-.38,2.6,2.6,0,0,0,.89-1,3.44,3.44,0,0,0,.33-1.48,3.32,3.32,0,0,0-.33-1.46,2.77,2.77,0,0,0-.89-1A2.28,2.28,0,0,0,186,287.92Z"/><path class="cls-1" d="M196.44,286.45a3.52,3.52,0,0,1,2,.56,3.77,3.77,0,0,1,1.39,1.52,4.64,4.64,0,0,1,.51,2.25,4.69,4.69,0,0,1-.51,2.27,3.87,3.87,0,0,1-1.38,1.54,3.52,3.52,0,0,1-2,.56,3.37,3.37,0,0,1-1.14-.19,3.63,3.63,0,0,1-1-.51,3,3,0,0,1-.68-.66,1.42,1.42,0,0,1-.33-.66l.42-.2v4.46a.77.77,0,0,1-.22.58.82.82,0,0,1-1.14,0h0a.74.74,0,0,1-.23-.58v-10a.77.77,0,0,1,.23-.57.8.8,0,0,1,1.13,0h0a.8.8,0,0,1,.22.57v1.11l-.25-.15a1.38,1.38,0,0,1,.31-.63,3.09,3.09,0,0,1,.64-.61,3.62,3.62,0,0,1,.89-.47A3.16,3.16,0,0,1,196.44,286.45Zm-.16,1.47a2.32,2.32,0,0,0-1.34.37,2.53,2.53,0,0,0-.89,1,3.4,3.4,0,0,0-.33,1.47,3.44,3.44,0,0,0,.33,1.48,2.45,2.45,0,0,0,.89,1,2.33,2.33,0,0,0,1.34.38,2.22,2.22,0,0,0,1.3-.38,2.53,2.53,0,0,0,.89-1,3.44,3.44,0,0,0,.33-1.48,3.38,3.38,0,0,0-.33-1.46,2.59,2.59,0,0,0-.89-1A2.22,2.22,0,0,0,196.28,287.92Z"/><path class="cls-1" d="M208,285.47a1,1,0,0,1-.67-.17.69.69,0,0,1-.22-.57v-.25a.67.67,0,0,1,.23-.56,1.15,1.15,0,0,1,.67-.16,1.1,1.1,0,0,1,.69.17.64.64,0,0,1,.22.55v.25a.71.71,0,0,1-.23.58A1.12,1.12,0,0,1,208,285.47Zm.82,8.72a.87.87,0,0,1-.22.58.76.76,0,0,1-.58.24.78.78,0,0,1-.58-.24.77.77,0,0,1-.22-.58v-6.85a.77.77,0,0,1,.22-.58.78.78,0,0,1,.58-.23.77.77,0,0,1,.58.23.87.87,0,0,1,.22.58Z"/><path class="cls-1" d="M211.27,286.69H215a.73.73,0,0,1,.53.21.77.77,0,0,1,.22.54.7.7,0,0,1-.22.51.73.73,0,0,1-.53.21h-3.76a.73.73,0,0,1-.75-.71,0,0,0,0,1,0,0,.7.7,0,0,1,.21-.53A.71.71,0,0,1,211.27,286.69Zm1.67-2.08a.74.74,0,0,1,.58.23.82.82,0,0,1,.23.58v7.43a1,1,0,0,0,.08.46.55.55,0,0,0,.28.24.92.92,0,0,0,.33.06.78.78,0,0,0,.31-.06,1,1,0,0,1,.33-.06.46.46,0,0,1,.36.17.7.7,0,0,1,.16.48.72.72,0,0,1-.41.63,1.81,1.81,0,0,1-.9.24,4.48,4.48,0,0,1-.64-.05,1.71,1.71,0,0,1-.71-.24,1.51,1.51,0,0,1-.58-.62,2.68,2.68,0,0,1-.22-1.19v-7.49a.82.82,0,0,1,.23-.58A.73.73,0,0,1,212.94,284.61Z"/><path class="cls-1" d="M217.78,293.69a.87.87,0,0,1-.14-.52.69.69,0,0,1,.34-.5.67.67,0,0,1,.47-.12.75.75,0,0,1,.47.25,3.75,3.75,0,0,0,1,.78,3,3,0,0,0,1.34.29,3.52,3.52,0,0,0,.65-.1,1.38,1.38,0,0,0,.58-.32.89.89,0,0,0,.24-.68.82.82,0,0,0-.26-.64,2,2,0,0,0-.66-.4c-.28-.1-.58-.19-.89-.28s-.7-.2-1-.32a3.81,3.81,0,0,1-.93-.45,2.11,2.11,0,0,1-1-1.83,2,2,0,0,1,.43-1.3,2.79,2.79,0,0,1,1.1-.85,3.73,3.73,0,0,1,1.48-.3,4.27,4.27,0,0,1,1,.12,4.17,4.17,0,0,1,1,.37,2.85,2.85,0,0,1,.83.68,1.05,1.05,0,0,1,.19.49.61.61,0,0,1-.27.51.71.71,0,0,1-.91,0,2.18,2.18,0,0,0-.78-.6,2.75,2.75,0,0,0-1.09-.21,2.18,2.18,0,0,0-.63.08,1.25,1.25,0,0,0-.56.32.86.86,0,0,0-.22.65.85.85,0,0,0,.25.64,2.05,2.05,0,0,0,.7.4c.31.11.63.21.94.29l1,.3a3.76,3.76,0,0,1,.89.46,2.46,2.46,0,0,1,.64.72,2.35,2.35,0,0,1,.25,1.11,2.11,2.11,0,0,1-.47,1.34,2.88,2.88,0,0,1-1.14.84,3.94,3.94,0,0,1-1.48.29,5,5,0,0,1-1.8-.33A3.23,3.23,0,0,1,217.78,293.69Z"/><path class="cls-1" d="M230.16,295.17a4.57,4.57,0,0,1-2.29-.56,3.71,3.71,0,0,1-1.52-1.52,4.39,4.39,0,0,1-.54-2.21,4.71,4.71,0,0,1,.57-2.41,3.94,3.94,0,0,1,1.49-1.54,3.75,3.75,0,0,1,1.94-.53,3.64,3.64,0,0,1,1.48.31,4.1,4.1,0,0,1,2.46,3.78.75.75,0,0,1-.26.53.85.85,0,0,1-.56.21h-6.21l-.38-1.36h6l-.31.29v-.37a1.92,1.92,0,0,0-.38-1,2.4,2.4,0,0,0-1.86-.88,2.88,2.88,0,0,0-.93.15,1.92,1.92,0,0,0-.78.49,2.23,2.23,0,0,0-.54.88,3.54,3.54,0,0,0-.21,1.37,3,3,0,0,0,.37,1.54,2.53,2.53,0,0,0,1,1,2.7,2.7,0,0,0,1.39.36,3.42,3.42,0,0,0,1-.12,2.3,2.3,0,0,0,.64-.29c.17-.12.32-.23.45-.34a1,1,0,0,1,.48-.14.63.63,0,0,1,.48.2.67.67,0,0,1,.19.47.83.83,0,0,1-.36.64,4.17,4.17,0,0,1-1.19.74A4.1,4.1,0,0,1,230.16,295.17Z"/><path class="cls-1" d="M237.6,294.19a.82.82,0,0,1-.23.58.79.79,0,0,1-1.12,0h0a.75.75,0,0,1-.24-.58V284a.75.75,0,0,1,.24-.58.78.78,0,0,1,.58-.23.73.73,0,0,1,.57.23.88.88,0,0,1,.21.58Z"/><path class="cls-1" d="M244.63,286.73a.73.73,0,0,1,.53.21.82.82,0,0,1,0,1.06.73.73,0,0,1-.53.21h-4.15A.7.7,0,0,1,240,288a.75.75,0,0,1,0-1.06.7.7,0,0,1,.52-.21Zm-.32-3.55a2.55,2.55,0,0,1,.61.08,1.31,1.31,0,0,1,.54.27.61.61,0,0,1,.21.5.68.68,0,0,1-.19.52.58.58,0,0,1-.45.2,1.48,1.48,0,0,1-.42-.07,2,2,0,0,0-.54-.07,1,1,0,0,0-.59.16.88.88,0,0,0-.32.42,1.16,1.16,0,0,0-.1.49v8.51a.82.82,0,0,1-.23.58.82.82,0,0,1-1.16,0,.87.87,0,0,1-.22-.58v-8.5a2.42,2.42,0,0,1,.73-1.8A3,3,0,0,1,244.31,283.18Z"/><path class="cls-1" d="M247.72,295a.81.81,0,0,1-.61-.2.82.82,0,0,1-.22-.63v-.29a.8.8,0,0,1,.22-.62.76.76,0,0,1,.61-.22h.17a.76.76,0,0,1,.61.22.85.85,0,0,1,.2.62v.29a.86.86,0,0,1-.2.63.84.84,0,0,1-.61.22Z"/></g><rect class="cls-3" width="300" height="300"/></g><g id="Layer_2-2" data-name="Layer 2"><g id="illustration_5" data-name="illustration 5"><path id="Path_1222" data-name="Path 1222" class="cls-4" d="M201,149.76c-9.59,14.06-23.47,33.9-28.54,38.28a28.2,28.2,0,0,0-8.84,17l-52.56-5,6.32-11,3.78-6.52-12.5-43a11.58,11.58,0,0,0-.79-2c-.37-.83-.22-4,6.77-16.3,9.33-16.41,12.17-23.91,12.17-23.91s9-11,6.8,9.12,69.71,11.82,69.71,11.82.41,1.18,1.08,2.91a31,31,0,0,1-3.4,28.5Z"/><path id="Path_1223" data-name="Path 1223" class="cls-5" d="M201,149.76c-9.6,14.06-23.47,33.9-28.53,38.28a28.06,28.06,0,0,0-8.85,17l-52.57-5,.11-.18c3.37-5.83,12-5.9,18.56-4.35,9.72,2.35,18.9-1.08,31-9.29C191.61,165,203,134.46,205.78,125.72A31.32,31.32,0,0,1,201,149.76Z"/><path id="Path_1224" data-name="Path 1224" class="cls-6" d="M195.07,161.05h-50.8a8.24,8.24,0,0,1-8.2-8.2V47.29a8.24,8.24,0,0,1,8.2-8.2h50.81a8.22,8.22,0,0,1,8.19,8.2V152.86A8.23,8.23,0,0,1,195.07,161.05Z"/><path id="Path_1225" data-name="Path 1225" class="cls-7" d="M175.87,47.48h-11.2a1.08,1.08,0,0,1-1.08-1.09h0a1.08,1.08,0,0,1,1.08-1.09h11.2A1.08,1.08,0,0,1,177,46.39h0A1.08,1.08,0,0,1,175.87,47.48Z"/><path id="Path_1226" data-name="Path 1226" class="cls-7" d="M179.84,154.53H159.77a1.09,1.09,0,0,1-1.09-1.09h0a1.08,1.08,0,0,1,1.09-1.08h20.07a1.08,1.08,0,0,1,1.09,1.08h0a1.09,1.09,0,0,1-1.09,1.09Z"/><rect id="Rectangle_795" data-name="Rectangle 795" class="cls-7" x="138.83" y="52.08" width="61.39" height="94.26"/><path id="Path_1227" data-name="Path 1227" class="cls-8" d="M181.58,132.63H133.2a3.44,3.44,0,0,1-3.44-3.43V67.73a7.92,7.92,0,0,1,7.9-7.9l43.88.46c8,.38,13.91-1.56,6.39,1.63a3.34,3.34,0,0,0-2,2.91L185,129.2A3.44,3.44,0,0,1,181.58,132.63Z"/><g id="Group_250" data-name="Group 250"><path id="Path_1228" data-name="Path 1228" class="cls-9" d="M172.13,115.32a5.43,5.43,0,1,1-5.66,5.43,5.53,5.53,0,0,1,5.62-5.43h0m0-1.89a7.3,7.3,0,1,0,7.6,7.3A7.46,7.46,0,0,0,172.13,113.43Z"/></g><circle id="Ellipse_99" data-name="Ellipse 99" class="cls-10" cx="172.13" cy="120.76" r="8.69"/><rect id="Rectangle_796" data-name="Rectangle 796" class="cls-10" x="136.75" y="74.12" width="10.62" height="10.62"/><path id="Path_1229" data-name="Path 1229" class="cls-9" d="M177.16,75.37h-24.6a.66.66,0,0,1-.66-.64h0a.66.66,0,0,1,.66-.64h24.6a.66.66,0,0,1,.64.64h0a.62.62,0,0,1-.59.64Z"/><path id="Path_1230" data-name="Path 1230" class="cls-9" d="M177.16,79.41h-24.6a.66.66,0,0,1-.66-.64h0a.67.67,0,0,1,.66-.64h24.6a.66.66,0,0,1,.64.64h0a.62.62,0,0,1-.59.64Z"/><path id="Path_1231" data-name="Path 1231" class="cls-9" d="M177.16,92.34h-24.6a.66.66,0,0,1-.66-.65h0a.67.67,0,0,1,.66-.64h24.6a.67.67,0,0,1,.64.64h0a.61.61,0,0,1-.57.65h-.07Z"/><path id="Path_1232" data-name="Path 1232" class="cls-9" d="M177.16,96.39h-24.6a.67.67,0,0,1-.66-.64h0a.67.67,0,0,1,.66-.65h24.6a.66.66,0,0,1,.64.65h0a.62.62,0,0,1-.59.64Z"/><path id="Path_1233" data-name="Path 1233" class="cls-9" d="M164.65,100.69H152.56a.66.66,0,0,1-.66-.64h0a.67.67,0,0,1,.66-.64h12.09a.66.66,0,0,1,.64.64h0a.64.64,0,0,1-.63.64Z"/><path id="Path_1234" data-name="Path 1234" class="cls-9" d="M177.16,110h-24.6a.66.66,0,0,1-.66-.64h0a.67.67,0,0,1,.66-.64h24.6a.66.66,0,0,1,.64.64h0a.62.62,0,0,1-.59.64Z"/><path id="Path_1235" data-name="Path 1235" class="cls-9" d="M164.65,114.32H152.56a.67.67,0,0,1-.66-.64h0a.66.66,0,0,1,.66-.64h12.09a.64.64,0,0,1,.64.64h0a.64.64,0,0,1-.63.64Z"/><path id="Path_1236" data-name="Path 1236" class="cls-11" d="M139.55,79.41l2.5,1.7,3.17-3.89"/><path id="Path_1237" data-name="Path 1237" class="cls-10" d="M169.52,120.76l2,2.54,3.89-4"/><path id="Path_1238" data-name="Path 1238" class="cls-12" d="M166.49,205.05l-3,33.38-68.9-.16H87.31l23.75-38.21,52.17,4.69Z"/><rect id="Rectangle_797" data-name="Rectangle 797" class="cls-10" x="136.91" y="91.13" width="10.62" height="10.62"/><rect id="Rectangle_798" data-name="Rectangle 798" class="cls-10" x="136.91" y="106.63" width="10.62" height="10.62"/><path id="Path_1239" data-name="Path 1239" class="cls-11" d="M139.74,112l2.49,1.7,3.17-3.89"/><line id="Line_72" data-name="Line 72" class="cls-11" x1="139.55" y1="94.45" x2="144.61" y2="99.44"/><line id="Line_73" data-name="Line 73" class="cls-11" x1="144.61" y1="94.45" x2="139.73" y2="99.44"/><path id="Path_1240" data-name="Path 1240" class="cls-13" d="M163.59,205.05S127,200.32,107.72,222.7c-5,5.79-9.41,11-13.19,15.57H87.31l23.75-38.21,52.17,4.73A1.83,1.83,0,0,1,163.59,205.05Z"/></g></g></svg>