<svg xmlns="http://www.w3.org/2000/svg" viewBox="0 0 211.79 296.42"><defs><style>.cls-1{fill:#ffacb6;}.cls-2{fill:#ff9898;}.cls-3{fill:#ddd;}.cls-4{fill:#231f20;}.cls-12,.cls-5{fill:#fff;}.cls-5{stroke:#7c7b7c;}.cls-5,.cls-7,.cls-8{stroke-miterlimit:10;}.cls-6{fill:#f96701;}.cls-7,.cls-8{fill:none;stroke:#f96701;}.cls-8{stroke-linecap:round;}.cls-9{fill:blue;}.cls-10{fill:#bed7ff;}.cls-11{isolation:isolate;}.cls-13{fill:#333a41;}</style></defs><g id="Layer_2" data-name="Layer 2"><g id="Layer_9" data-name="Layer 9"><g id="point_5" data-name="point 5"><g id="illustration_5" data-name="illustration 5"><path id="Path_1222" data-name="Path 1222" class="cls-1" d="M170.76,147.61c-8.83,12.94-21.6,31.2-26.26,35.23a25.9,25.9,0,0,0-8.14,15.65L88,193.9l5.81-10.09,3.48-6L85.79,138.25a10.88,10.88,0,0,0-.73-1.81c-.34-.76-.2-3.72,6.23-15,8.59-15.1,11.2-22,11.2-22s8.28-10.08,6.26,8.39,64.14,10.88,64.14,10.88.38,1.08,1,2.68a27.93,27.93,0,0,1,1.21,4.1A28.87,28.87,0,0,1,170.76,147.61Z"/><path id="Path_1223" data-name="Path 1223" class="cls-2" d="M170.77,147.61c-8.84,12.94-21.6,31.2-26.26,35.23a25.8,25.8,0,0,0-8.14,15.65L88,193.9l.1-.17c3.1-5.36,11.06-5.43,17.08-4,8.94,2.16,17.39-1,28.49-8.55,28.45-19.52,38.95-47.65,41.49-55.69A28.82,28.82,0,0,1,170.77,147.61Z"/><path id="Path_1224" data-name="Path 1224" class="cls-3" d="M165.3,158H118.56a7.59,7.59,0,0,1-7.55-7.55V53.32a7.59,7.59,0,0,1,7.55-7.55h46.75a7.58,7.58,0,0,1,7.54,7.55v97.14A7.58,7.58,0,0,1,165.3,158Z"/><path id="Path_1225" data-name="Path 1225" class="cls-4" d="M147.63,53.49h-10.3a1,1,0,0,1-1-1h0a1,1,0,0,1,1-1h10.3a1,1,0,0,1,1,1h0a1,1,0,0,1-1,1Z"/><path id="Path_1226" data-name="Path 1226" class="cls-4" d="M151.29,152H132.82a1,1,0,0,1-1-1h0a1,1,0,0,1,1-1h18.47a1,1,0,0,1,1,1h0A1,1,0,0,1,151.29,152Z"/><rect id="Rectangle_795" data-name="Rectangle 795" class="cls-4" x="113.55" y="57.73" width="56.49" height="86.74"/><path id="Path_1227" data-name="Path 1227" class="cls-5" d="M152.89,131.85H108.37a3.18,3.18,0,0,1-3.17-3.16V72.13a7.29,7.29,0,0,1,7.27-7.27l40.38.42c7.34.35,12.8-1.43,5.88,1.5a3.08,3.08,0,0,0-1.88,2.68l-.8,59.23A3.17,3.17,0,0,1,152.89,131.85Z"/><g id="Group_250" data-name="Group 250"><path id="Path_1228" data-name="Path 1228" class="cls-6" d="M144.19,115.92a5,5,0,1,1-5.21,5,5.09,5.09,0,0,1,5.21-5m0-1.74a6.72,6.72,0,1,0,7,6.72A6.87,6.87,0,0,0,144.19,114.18Z"/></g><circle id="Ellipse_99" data-name="Ellipse 99" class="cls-7" cx="144.19" cy="120.93" r="8"/><rect id="Rectangle_796" data-name="Rectangle 796" class="cls-7" x="111.64" y="78.01" width="9.77" height="9.77"/><path id="Path_1229" data-name="Path 1229" class="cls-6" d="M148.82,79.16H126.18a.61.61,0,0,1-.6-.59h0a.6.6,0,0,1,.6-.59h22.64a.6.6,0,0,1,.59.59h0a.57.57,0,0,1-.54.59Z"/><path id="Path_1230" data-name="Path 1230" class="cls-6" d="M148.82,82.88H126.18a.61.61,0,0,1-.6-.59h0a.61.61,0,0,1,.6-.59h22.64a.61.61,0,0,1,.59.59h0a.57.57,0,0,1-.54.59Z"/><path id="Path_1231" data-name="Path 1231" class="cls-6" d="M148.82,94.77H126.18a.6.6,0,0,1-.6-.59h0a.61.61,0,0,1,.6-.59h22.64a.61.61,0,0,1,.59.59h0a.56.56,0,0,1-.54.59A0,0,0,0,1,148.82,94.77Z"/><path id="Path_1232" data-name="Path 1232" class="cls-6" d="M148.82,98.5H126.18a.61.61,0,0,1-.6-.59h0a.62.62,0,0,1,.6-.6h22.64a.61.61,0,0,1,.59.6h0a.57.57,0,0,1-.54.59Z"/><path id="Path_1233" data-name="Path 1233" class="cls-6" d="M137.31,102.46H126.18a.61.61,0,0,1-.6-.59h0a.61.61,0,0,1,.6-.59h11.13a.61.61,0,0,1,.59.59h0a.59.59,0,0,1-.58.59Z"/><path id="Path_1234" data-name="Path 1234" class="cls-6" d="M148.82,111H126.18a.61.61,0,0,1-.6-.59h0a.61.61,0,0,1,.6-.59h22.64a.61.61,0,0,1,.59.59h0a.57.57,0,0,1-.54.59Z"/><path id="Path_1235" data-name="Path 1235" class="cls-6" d="M137.31,115H126.18a.61.61,0,0,1-.6-.59h0a.6.6,0,0,1,.6-.59h11.13a.6.6,0,0,1,.59.59h0a.6.6,0,0,1-.58.59Z"/><path id="Path_1236" data-name="Path 1236" class="cls-8" d="M114.21,82.88l2.3,1.56,2.92-3.58"/><path id="Path_1237" data-name="Path 1237" class="cls-7" d="M141.79,120.93l1.85,2.33,3.58-3.65"/><path id="Path_1238" data-name="Path 1238" class="cls-9" d="M139,198.49l-2.79,30.71-63.4-.14H66.14L88,193.9l48,4.31Z"/><rect id="Rectangle_797" data-name="Rectangle 797" class="cls-7" x="111.78" y="93.66" width="9.77" height="9.77"/><rect id="Rectangle_798" data-name="Rectangle 798" class="cls-7" x="111.78" y="107.92" width="9.77" height="9.77"/><path id="Path_1239" data-name="Path 1239" class="cls-8" d="M114.39,112.83l2.29,1.56,2.92-3.58"/><line id="Line_72" data-name="Line 72" class="cls-8" x1="114.21" y1="96.72" x2="118.87" y2="101.31"/><line id="Line_73" data-name="Line 73" class="cls-8" x1="118.87" y1="96.72" x2="114.38" y2="101.31"/><path id="Path_1240" data-name="Path 1240" class="cls-10" d="M136.33,198.49s-33.67-4.35-51.41,16.24c-4.59,5.33-8.66,10.16-12.13,14.33H66.14L88,193.9,136,198.25A1.83,1.83,0,0,1,136.33,198.49Z"/></g><g id="Candidates_gets_instant_consolidated_mark-list_and_feedbackon_the_app_itself." data-name="Candidates gets instant consolidated mark-list and feedbackon the app itself." class="cls-11"><g class="cls-11"><path class="cls-12" d="M21,242.66a.67.67,0,0,1,.41.54.82.82,0,0,1-.18.67.64.64,0,0,1-.46.27.83.83,0,0,1-.55-.11,4.85,4.85,0,0,0-1-.38,3.81,3.81,0,0,0-1.08-.15,4.24,4.24,0,0,0-1.64.3,3.55,3.55,0,0,0-1.26.85,3.86,3.86,0,0,0-.81,1.3,4.91,4.91,0,0,0-.28,1.67,4.71,4.71,0,0,0,.31,1.78,3.69,3.69,0,0,0,.84,1.31,3.2,3.2,0,0,0,1.26.8,4.48,4.48,0,0,0,1.58.27,4.73,4.73,0,0,0,1.06-.13,4.18,4.18,0,0,0,1-.39,1,1,0,0,1,.57-.1.68.68,0,0,1,.46.28.79.79,0,0,1,.2.68.76.76,0,0,1-.41.52,4.67,4.67,0,0,1-.88.38,6.74,6.74,0,0,1-1,.26,5.56,5.56,0,0,1-1,.1A6.06,6.06,0,0,1,16,253a5.43,5.43,0,0,1-1.82-1.12,5,5,0,0,1-1.26-1.81,6.24,6.24,0,0,1-.46-2.44,5.83,5.83,0,0,1,.43-2.28,5.12,5.12,0,0,1,1.2-1.81,5.58,5.58,0,0,1,1.81-1.19,6,6,0,0,1,2.28-.42,5.69,5.69,0,0,1,1.49.19A5.39,5.39,0,0,1,21,242.66Z"/><path class="cls-12" d="M30.3,244.67a.79.79,0,0,1,.8.82v6.91a.76.76,0,0,1-.23.58.8.8,0,0,1-1.14,0,.8.8,0,0,1-.23-.58v-1.15l.32.05a1.16,1.16,0,0,1-.23.64,3,3,0,0,1-.63.68,3.73,3.73,0,0,1-.94.54,3.29,3.29,0,0,1-1.17.22,3.59,3.59,0,0,1-2-.57,4,4,0,0,1-1.39-1.56,5.31,5.31,0,0,1,0-4.54,3.91,3.91,0,0,1,1.39-1.54,3.44,3.44,0,0,1,1.94-.56,3.49,3.49,0,0,1,1.27.22,3.62,3.62,0,0,1,1,.58,2.87,2.87,0,0,1,.67.74,1.43,1.43,0,0,1,.24.75l-.5,0v-1.45a.82.82,0,0,1,.23-.58A.75.75,0,0,1,30.3,244.67ZM27,251.9a2.27,2.27,0,0,0,1.32-.38,2.62,2.62,0,0,0,.89-1.05,3.38,3.38,0,0,0,.32-1.48,3.43,3.43,0,0,0-.32-1.49,2.73,2.73,0,0,0-.89-1,2.47,2.47,0,0,0-2.63,0,2.6,2.6,0,0,0-.9,1,3.43,3.43,0,0,0-.32,1.49,3.38,3.38,0,0,0,.32,1.48,2.55,2.55,0,0,0,.89,1.05A2.27,2.27,0,0,0,27,251.9Z"/><path class="cls-12" d="M38.06,244.61a2.88,2.88,0,0,1,1.76.47,2.48,2.48,0,0,1,.88,1.26,6.11,6.11,0,0,1,.24,1.77v4.29a.76.76,0,0,1-.23.58.8.8,0,0,1-1.14,0,.8.8,0,0,1-.23-.58v-4.27a3,3,0,0,0-.16-1,1.45,1.45,0,0,0-.55-.74,1.83,1.83,0,0,0-1.09-.28,2.29,2.29,0,0,0-1.16.28,2,2,0,0,0-.77.74,1.87,1.87,0,0,0-.28,1v4.27a.8.8,0,0,1-.23.58.78.78,0,0,1-.57.24A.75.75,0,0,1,34,253a.79.79,0,0,1-.22-.58v-6.78A.82.82,0,0,1,34,245a.78.78,0,0,1,.58-.23.81.81,0,0,1,.57.23.82.82,0,0,1,.23.59v.89l-.29.16a2.19,2.19,0,0,1,.39-.71,3.93,3.93,0,0,1,.68-.67,3.58,3.58,0,0,1,.9-.5A3,3,0,0,1,38.06,244.61Z"/><path class="cls-12" d="M50.4,241.38a.77.77,0,0,1,.8.81V252.4A.8.8,0,0,1,51,253a.78.78,0,0,1-.57.24.77.77,0,0,1-.58-.24.79.79,0,0,1-.22-.58v-1.15h.32a1.25,1.25,0,0,1-.23.65,3.66,3.66,0,0,1-.63.7,3.53,3.53,0,0,1-1,.55,3.2,3.2,0,0,1-1.17.22,3.57,3.57,0,0,1-2-.57,4,4,0,0,1-1.4-1.55,5.28,5.28,0,0,1,0-4.53A3.93,3.93,0,0,1,45,245.18a3.64,3.64,0,0,1,3.2-.35,3.62,3.62,0,0,1,1,.58,3.11,3.11,0,0,1,.68.74,1.45,1.45,0,0,1,.25.75l-.5,0v-4.75a.79.79,0,0,1,.22-.58A.76.76,0,0,1,50.4,241.38ZM47.14,251.9a2.27,2.27,0,0,0,1.32-.38,2.64,2.64,0,0,0,.88-1,3.63,3.63,0,0,0,0-3,2.71,2.71,0,0,0-.88-1,2.35,2.35,0,0,0-1.32-.38,2.4,2.4,0,0,0-1.32.38,2.65,2.65,0,0,0-.89,1,3.63,3.63,0,0,0,0,3,2.58,2.58,0,0,0,.89,1A2.32,2.32,0,0,0,47.14,251.9Z"/><path class="cls-12" d="M54.51,243.68a1.08,1.08,0,0,1-.67-.17.68.68,0,0,1-.21-.57v-.25a.63.63,0,0,1,.23-.56,1.1,1.1,0,0,1,.67-.16,1.06,1.06,0,0,1,.69.17.68.68,0,0,1,.2.55v.25a.69.69,0,0,1-.21.58A1.19,1.19,0,0,1,54.51,243.68Zm.82,8.72a.8.8,0,0,1-.23.58A.8.8,0,0,1,54,253a.76.76,0,0,1-.23-.58v-6.85A.76.76,0,0,1,54,245a.82.82,0,0,1,1.14,0,.8.8,0,0,1,.23.58Z"/><path class="cls-12" d="M64.72,241.38a.77.77,0,0,1,.8.81V252.4a.8.8,0,0,1-.23.58.78.78,0,0,1-.57.24.75.75,0,0,1-.58-.24.79.79,0,0,1-.22-.58v-1.15h.32a1.25,1.25,0,0,1-.23.65,3.66,3.66,0,0,1-.63.7,3.53,3.53,0,0,1-1,.55,3.2,3.2,0,0,1-1.17.22,3.57,3.57,0,0,1-2-.57,4,4,0,0,1-1.4-1.55,5.28,5.28,0,0,1,0-4.53,3.93,3.93,0,0,1,1.38-1.55,3.64,3.64,0,0,1,3.2-.35,3.62,3.62,0,0,1,1,.58,3.34,3.34,0,0,1,.68.74,1.45,1.45,0,0,1,.25.75l-.5,0v-4.75a.79.79,0,0,1,.22-.58A.75.75,0,0,1,64.72,241.38ZM61.46,251.9a2.22,2.22,0,0,0,1.31-.38,2.58,2.58,0,0,0,.89-1,3.63,3.63,0,0,0,0-3,2.65,2.65,0,0,0-.89-1,2.29,2.29,0,0,0-1.31-.38,2.37,2.37,0,0,0-1.32.38,2.65,2.65,0,0,0-.89,1,3.63,3.63,0,0,0,0,3,2.58,2.58,0,0,0,.89,1A2.3,2.3,0,0,0,61.46,251.9Z"/><path class="cls-12" d="M75,244.67a.77.77,0,0,1,.56.23.79.79,0,0,1,.24.59v6.91a.77.77,0,0,1-.24.58.74.74,0,0,1-.56.24.75.75,0,0,1-.58-.24.79.79,0,0,1-.22-.58v-1.15l.32.05a1.19,1.19,0,0,1-.24.64,3,3,0,0,1-.63.68,3.73,3.73,0,0,1-.94.54,3.24,3.24,0,0,1-1.17.22,3.53,3.53,0,0,1-2-.57,4,4,0,0,1-1.4-1.56,5.31,5.31,0,0,1,0-4.54,4,4,0,0,1,1.39-1.54,3.69,3.69,0,0,1,3.21-.34,3.62,3.62,0,0,1,1,.58,2.87,2.87,0,0,1,.67.74,1.43,1.43,0,0,1,.24.75l-.49,0v-1.45a.81.81,0,0,1,.22-.58A.75.75,0,0,1,75,244.67Zm-3.27,7.23a2.27,2.27,0,0,0,1.32-.38,2.55,2.55,0,0,0,.89-1.05,3.38,3.38,0,0,0,.32-1.48,3.43,3.43,0,0,0-.32-1.49,2.65,2.65,0,0,0-.89-1,2.47,2.47,0,0,0-2.63,0,2.76,2.76,0,0,0-.9,1,3.43,3.43,0,0,0-.32,1.49,3.38,3.38,0,0,0,.32,1.48,2.62,2.62,0,0,0,.89,1.05A2.27,2.27,0,0,0,71.71,251.9Z"/><path class="cls-12" d="M78.29,244.9h3.76a.72.72,0,0,1,.53.21.72.72,0,0,1,.22.54.67.67,0,0,1-.22.51.72.72,0,0,1-.53.21H78.29a.73.73,0,0,1-.75-.74.72.72,0,0,1,.21-.53A.74.74,0,0,1,78.29,244.9ZM80,242.82a.74.74,0,0,1,.57.23.8.8,0,0,1,.23.58v7.43a1,1,0,0,0,.09.46.52.52,0,0,0,.27.24,1,1,0,0,0,.34.06.75.75,0,0,0,.31-.06.81.81,0,0,1,.33-.06.44.44,0,0,1,.35.17.68.68,0,0,1,.16.48.72.72,0,0,1-.41.63,1.78,1.78,0,0,1-.9.24,5.58,5.58,0,0,1-.64-.05,1.93,1.93,0,0,1-.71-.24,1.5,1.5,0,0,1-.57-.62,2.58,2.58,0,0,1-.22-1.19v-7.49a.76.76,0,0,1,.23-.58A.74.74,0,0,1,80,242.82Z"/><path class="cls-12" d="M88.74,253.38a4.61,4.61,0,0,1-2.3-.56,3.77,3.77,0,0,1-1.52-1.52,4.44,4.44,0,0,1-.54-2.21,4.8,4.8,0,0,1,.57-2.41,4.09,4.09,0,0,1,1.49-1.54,3.85,3.85,0,0,1,1.94-.53,3.57,3.57,0,0,1,1.48.31,4.09,4.09,0,0,1,1.26.86,4.28,4.28,0,0,1,1.2,2.92.72.72,0,0,1-.26.53.81.81,0,0,1-.56.21H85.3l-.39-1.36h6l-.31.29V248a1.83,1.83,0,0,0-.38-1,2.26,2.26,0,0,0-.82-.65,2.32,2.32,0,0,0-1-.23,2.82,2.82,0,0,0-.92.15,2,2,0,0,0-.79.49,2.53,2.53,0,0,0-.54.88,3.91,3.91,0,0,0-.21,1.37,3.05,3.05,0,0,0,.37,1.54,2.6,2.6,0,0,0,1,1,2.74,2.74,0,0,0,1.39.36,3.21,3.21,0,0,0,1-.12,2.24,2.24,0,0,0,.64-.29c.17-.12.32-.23.45-.34a1,1,0,0,1,.48-.14.62.62,0,0,1,.48.2.64.64,0,0,1,.19.47.82.82,0,0,1-.35.64,4.05,4.05,0,0,1-1.19.74A4.14,4.14,0,0,1,88.74,253.38Z"/><path class="cls-12" d="M94,251.9a.83.83,0,0,1-.13-.52.66.66,0,0,1,.34-.5.68.68,0,0,1,.47-.12.78.78,0,0,1,.47.25,3.67,3.67,0,0,0,1,.78,2.91,2.91,0,0,0,1.34.29,4.07,4.07,0,0,0,.66-.1,1.34,1.34,0,0,0,.57-.32.92.92,0,0,0,.24-.68.83.83,0,0,0-.25-.64,2,2,0,0,0-.68-.4c-.27-.1-.57-.19-.89-.28s-.69-.2-1-.32a3.89,3.89,0,0,1-.94-.45,2.27,2.27,0,0,1-.68-.73,2.11,2.11,0,0,1-.26-1.1,2,2,0,0,1,.42-1.3,2.84,2.84,0,0,1,1.1-.85,3.66,3.66,0,0,1,1.48-.3,4.3,4.3,0,0,1,1,.12,4.09,4.09,0,0,1,1,.37,2.73,2.73,0,0,1,.83.68.92.92,0,0,1,.19.49.58.58,0,0,1-.27.51.61.61,0,0,1-.46.15.7.7,0,0,1-.45-.18,2.14,2.14,0,0,0-.78-.6,2.72,2.72,0,0,0-1.09-.21,2.37,2.37,0,0,0-.63.08,1.16,1.16,0,0,0-.55.32.87.87,0,0,0-.23.65.81.81,0,0,0,.27.64,1.9,1.9,0,0,0,.69.4,9,9,0,0,0,1,.29c.33.09.65.19,1,.3a3.67,3.67,0,0,1,.88.46,2.34,2.34,0,0,1,.64.72,2.28,2.28,0,0,1,.25,1.11,2,2,0,0,1-.46,1.34,2.86,2.86,0,0,1-1.15.84,3.85,3.85,0,0,1-1.47.29,5.25,5.25,0,0,1-1.81-.33A3.35,3.35,0,0,1,94,251.9Z"/><path class="cls-12" d="M110.77,244.61a3.4,3.4,0,0,1,1.26.22,3.58,3.58,0,0,1,1,.57,3.38,3.38,0,0,1,.67.71,1.34,1.34,0,0,1,.24.64l-.37,0v-1.28a.81.81,0,0,1,.22-.58.75.75,0,0,1,.58-.24.78.78,0,0,1,.57.23.82.82,0,0,1,.23.59v7a3.85,3.85,0,0,1-.58,2.22,3.37,3.37,0,0,1-1.53,1.26,5.43,5.43,0,0,1-2.08.4,5.13,5.13,0,0,1-1-.11,8.11,8.11,0,0,1-1-.25,2.11,2.11,0,0,1-.63-.28,1,1,0,0,1-.49-.45.54.54,0,0,1,0-.51.69.69,0,0,1,.41-.44,1.08,1.08,0,0,1,.63.05l.5.18a7.54,7.54,0,0,0,.75.23,3.15,3.15,0,0,0,.78.1,2.75,2.75,0,0,0,1.93-.59,2.07,2.07,0,0,0,.65-1.61V251.3l.19.11a1.5,1.5,0,0,1-.3.68,3.06,3.06,0,0,1-.66.63,3.72,3.72,0,0,1-.91.47,3.23,3.23,0,0,1-1.08.19,3.71,3.71,0,0,1-2-.57,4.11,4.11,0,0,1-1.43-1.55,5.1,5.1,0,0,1,0-4.53,4,4,0,0,1,1.41-1.55A3.65,3.65,0,0,1,110.77,244.61Zm.24,1.47a2.54,2.54,0,0,0-1.37.38,2.67,2.67,0,0,0-.93,1,3.53,3.53,0,0,0,0,3,2.6,2.6,0,0,0,.93,1,2.46,2.46,0,0,0,1.37.38,2.49,2.49,0,0,0,1.37-.37,2.54,2.54,0,0,0,.93-1,3.22,3.22,0,0,0,.34-1.5,3.17,3.17,0,0,0-.34-1.49,2.5,2.5,0,0,0-2.3-1.42Z"/><path class="cls-12" d="M121.33,253.38a4.61,4.61,0,0,1-2.3-.56,3.83,3.83,0,0,1-1.52-1.52,4.43,4.43,0,0,1-.53-2.21,4.8,4.8,0,0,1,.56-2.41,4.09,4.09,0,0,1,1.49-1.54,3.86,3.86,0,0,1,2-.53,3.64,3.64,0,0,1,1.48.31,4.16,4.16,0,0,1,1.25.86,4.16,4.16,0,0,1,1.2,2.92.71.71,0,0,1-.25.53.83.83,0,0,1-.56.21h-6.21l-.39-1.36h6l-.3.29V248a1.84,1.84,0,0,0-.39-1,2.26,2.26,0,0,0-.82-.65,2.31,2.31,0,0,0-1-.23,2.92,2.92,0,0,0-.93.15,2,2,0,0,0-.79.49,2.53,2.53,0,0,0-.54.88,3.91,3.91,0,0,0-.21,1.37,3.05,3.05,0,0,0,.37,1.54,2.67,2.67,0,0,0,1,1,2.74,2.74,0,0,0,1.39.36,3.21,3.21,0,0,0,1-.12,2.24,2.24,0,0,0,.64-.29c.17-.12.32-.23.45-.34a1,1,0,0,1,.48-.14.62.62,0,0,1,.48.2.64.64,0,0,1,.19.47.8.8,0,0,1-.35.64,3.92,3.92,0,0,1-1.19.74A4.14,4.14,0,0,1,121.33,253.38Z"/><path class="cls-12" d="M126.93,244.9h3.76a.72.72,0,0,1,.53.21.72.72,0,0,1,.22.54.67.67,0,0,1-.22.51.72.72,0,0,1-.53.21h-3.76a.72.72,0,0,1-.54-.22.74.74,0,0,1,0-1.05A.74.74,0,0,1,126.93,244.9Zm1.68-2.08a.74.74,0,0,1,.57.23.8.8,0,0,1,.23.58v7.43a1,1,0,0,0,.09.46.48.48,0,0,0,.27.24,1,1,0,0,0,.34.06.75.75,0,0,0,.31-.06.81.81,0,0,1,.33-.06.44.44,0,0,1,.35.17.68.68,0,0,1,.16.48.72.72,0,0,1-.41.63,1.78,1.78,0,0,1-.9.24,5.58,5.58,0,0,1-.64-.05,1.93,1.93,0,0,1-.71-.24,1.5,1.5,0,0,1-.57-.62,2.58,2.58,0,0,1-.22-1.19v-7.49a.76.76,0,0,1,.23-.58A.74.74,0,0,1,128.61,242.82Z"/><path class="cls-12" d="M133.44,251.9a.83.83,0,0,1-.13-.52.64.64,0,0,1,.34-.5.67.67,0,0,1,.47-.12.81.81,0,0,1,.47.25,3.52,3.52,0,0,0,1,.78,2.88,2.88,0,0,0,1.34.29,3.8,3.8,0,0,0,.65-.1,1.32,1.32,0,0,0,.58-.32.92.92,0,0,0,.24-.68.84.84,0,0,0-.26-.64,1.89,1.89,0,0,0-.67-.4c-.28-.1-.58-.19-.9-.28s-.68-.2-1-.32a3.82,3.82,0,0,1-.93-.45,2.16,2.16,0,0,1-.68-.73,2.11,2.11,0,0,1-.27-1.1,2,2,0,0,1,.43-1.3,2.84,2.84,0,0,1,1.1-.85,3.63,3.63,0,0,1,1.48-.3,4.3,4.3,0,0,1,1,.12,4.09,4.09,0,0,1,1,.37,2.73,2.73,0,0,1,.83.68.84.84,0,0,1,.18.49.57.57,0,0,1-.26.51.63.63,0,0,1-.46.15.7.7,0,0,1-.45-.18,2.18,2.18,0,0,0-.79-.6,2.67,2.67,0,0,0-1.08-.21,2.39,2.39,0,0,0-.64.08,1.27,1.27,0,0,0-.55.32.87.87,0,0,0-.22.65.84.84,0,0,0,.26.64,2,2,0,0,0,.7.4,9.53,9.53,0,0,0,.94.29q.5.13,1,.3a3.67,3.67,0,0,1,.88.46,2.34,2.34,0,0,1,.64.72,2.28,2.28,0,0,1,.24,1.11,2.07,2.07,0,0,1-.45,1.34,2.93,2.93,0,0,1-1.15.84,3.89,3.89,0,0,1-1.47.29,5.21,5.21,0,0,1-1.81-.33A3.25,3.25,0,0,1,133.44,251.9Z"/><path class="cls-12" d="M147.52,243.68a1.06,1.06,0,0,1-.67-.17.68.68,0,0,1-.21-.57v-.25a.63.63,0,0,1,.22-.56,1.14,1.14,0,0,1,.67-.16,1.06,1.06,0,0,1,.69.17.65.65,0,0,1,.21.55v.25a.67.67,0,0,1-.22.58A1.13,1.13,0,0,1,147.52,243.68Zm.81,8.72a.79.79,0,0,1-.22.58.75.75,0,0,1-.58.24A.74.74,0,0,1,147,253a.77.77,0,0,1-.24-.58v-6.85A.77.77,0,0,1,147,245a.73.73,0,0,1,.56-.23.75.75,0,0,1,.58.23.79.79,0,0,1,.22.58Z"/><path class="cls-12" d="M155.23,244.61a2.9,2.9,0,0,1,1.76.47,2.41,2.41,0,0,1,.87,1.26,5.78,5.78,0,0,1,.25,1.77v4.29a.8.8,0,0,1-.23.58.78.78,0,0,1-.57.24.77.77,0,0,1-.58-.24.79.79,0,0,1-.22-.58v-4.27a3,3,0,0,0-.16-1,1.51,1.51,0,0,0-.55-.74,1.85,1.85,0,0,0-1.1-.28,2.28,2.28,0,0,0-1.15.28,2.13,2.13,0,0,0-.78.74,2,2,0,0,0-.28,1v4.27a.76.76,0,0,1-.23.58.8.8,0,0,1-1.14,0,.8.8,0,0,1-.23-.58v-6.78a.82.82,0,0,1,.23-.59.8.8,0,0,1,1.37.59v.89l-.28.16a2.19,2.19,0,0,1,.39-.71,3.93,3.93,0,0,1,.68-.67,3.36,3.36,0,0,1,.89-.5A3.11,3.11,0,0,1,155.23,244.61Z"/><path class="cls-12" d="M160.24,251.9a.83.83,0,0,1-.13-.52.64.64,0,0,1,.34-.5.67.67,0,0,1,.47-.12.81.81,0,0,1,.47.25,3.52,3.52,0,0,0,1,.78,2.88,2.88,0,0,0,1.34.29,3.8,3.8,0,0,0,.65-.1,1.32,1.32,0,0,0,.58-.32.92.92,0,0,0,.24-.68.84.84,0,0,0-.26-.64,1.89,1.89,0,0,0-.67-.4c-.28-.1-.58-.19-.9-.28s-.68-.2-1-.32a3.82,3.82,0,0,1-.93-.45,2.16,2.16,0,0,1-.68-.73,2.11,2.11,0,0,1-.27-1.1,2,2,0,0,1,.43-1.3,2.84,2.84,0,0,1,1.1-.85,3.63,3.63,0,0,1,1.48-.3,4.37,4.37,0,0,1,1,.12,4.09,4.09,0,0,1,1,.37,2.73,2.73,0,0,1,.83.68.84.84,0,0,1,.18.49.57.57,0,0,1-.26.51.63.63,0,0,1-.46.15.68.68,0,0,1-.45-.18,2.18,2.18,0,0,0-.79-.6,2.67,2.67,0,0,0-1.08-.21,2.39,2.39,0,0,0-.64.08,1.27,1.27,0,0,0-.55.32.87.87,0,0,0-.22.65.84.84,0,0,0,.26.64,2,2,0,0,0,.7.4,9.53,9.53,0,0,0,.94.29q.49.13,1,.3a3.87,3.87,0,0,1,.88.46,2.34,2.34,0,0,1,.64.72,2.28,2.28,0,0,1,.24,1.11,2.07,2.07,0,0,1-.45,1.34,2.93,2.93,0,0,1-1.15.84,3.89,3.89,0,0,1-1.47.29,5.21,5.21,0,0,1-1.81-.33A3.25,3.25,0,0,1,160.24,251.9Z"/><path class="cls-12" d="M168.67,244.9h3.76a.76.76,0,0,1,.54.21.75.75,0,0,1,.21.54.69.69,0,0,1-.21.51.76.76,0,0,1-.54.21h-3.76a.73.73,0,0,1-.54-.22.76.76,0,0,1,0-1.05A.76.76,0,0,1,168.67,244.9Zm1.68-2.08a.76.76,0,0,1,.58.23.79.79,0,0,1,.22.58v7.43a.9.9,0,0,0,.1.46.47.47,0,0,0,.26.24,1,1,0,0,0,.34.06.79.79,0,0,0,.32-.06.79.79,0,0,1,.32-.06.47.47,0,0,1,.36.17.73.73,0,0,1,.16.48.71.71,0,0,1-.42.63,1.78,1.78,0,0,1-.9.24,5.58,5.58,0,0,1-.64-.05,1.93,1.93,0,0,1-.71-.24,1.5,1.5,0,0,1-.57-.62,2.58,2.58,0,0,1-.22-1.19v-7.49a.8.8,0,0,1,.23-.58A.77.77,0,0,1,170.35,242.82Z"/><path class="cls-12" d="M182.19,244.67a.81.81,0,0,1,.57.23.82.82,0,0,1,.23.59v6.91a.8.8,0,0,1-.23.58.78.78,0,0,1-.57.24.77.77,0,0,1-.58-.24.79.79,0,0,1-.22-.58v-1.15l.32.05a1.25,1.25,0,0,1-.23.64,3.58,3.58,0,0,1-.63.68,3.8,3.8,0,0,1-.95.54,3.2,3.2,0,0,1-1.17.22,3.58,3.58,0,0,1-2-.57,4,4,0,0,1-1.39-1.56,5.31,5.31,0,0,1,0-4.54,4,4,0,0,1,1.38-1.54,3.47,3.47,0,0,1,1.95-.56,3.53,3.53,0,0,1,1.27.22,3.43,3.43,0,0,1,1,.58,2.92,2.92,0,0,1,.68.74,1.43,1.43,0,0,1,.24.75l-.5,0v-1.45a.81.81,0,0,1,.22-.58A.77.77,0,0,1,182.19,244.67Zm-3.26,7.23a2.27,2.27,0,0,0,1.32-.38,2.6,2.6,0,0,0,.88-1.05,3.25,3.25,0,0,0,.32-1.48,3.29,3.29,0,0,0-.32-1.49,2.71,2.71,0,0,0-.88-1,2.35,2.35,0,0,0-1.32-.38,2.4,2.4,0,0,0-1.32.38,2.65,2.65,0,0,0-.89,1,3.29,3.29,0,0,0-.32,1.49,3.25,3.25,0,0,0,.32,1.48,2.55,2.55,0,0,0,.89,1.05A2.23,2.23,0,0,0,178.93,251.9Z"/><path class="cls-12" d="M190,244.61a2.9,2.9,0,0,1,1.76.47,2.41,2.41,0,0,1,.87,1.26,5.78,5.78,0,0,1,.25,1.77v4.29a.8.8,0,0,1-.23.58.78.78,0,0,1-.57.24.77.77,0,0,1-.58-.24.79.79,0,0,1-.22-.58v-4.27a3,3,0,0,0-.16-1,1.51,1.51,0,0,0-.55-.74,1.85,1.85,0,0,0-1.1-.28,2.25,2.25,0,0,0-1.15.28,2.13,2.13,0,0,0-.78.74,2,2,0,0,0-.28,1v4.27a.76.76,0,0,1-.23.58.8.8,0,0,1-1.14,0,.8.8,0,0,1-.23-.58v-6.78a.82.82,0,0,1,.23-.59.8.8,0,0,1,1.37.59v.89l-.28.16a2.19,2.19,0,0,1,.39-.71,3.61,3.61,0,0,1,.68-.67,3.36,3.36,0,0,1,.89-.5A3.11,3.11,0,0,1,190,244.61Z"/><path class="cls-12" d="M195.34,244.9h3.76a.72.72,0,0,1,.75.75.69.69,0,0,1-.21.51.75.75,0,0,1-.54.21h-3.76a.74.74,0,0,1-.53-1.27A.72.72,0,0,1,195.34,244.9Zm1.68-2.08a.75.75,0,0,1,.58.23.79.79,0,0,1,.22.58v7.43a.9.9,0,0,0,.1.46.47.47,0,0,0,.26.24,1,1,0,0,0,.35.06.78.78,0,0,0,.31-.06.81.81,0,0,1,.33-.06.47.47,0,0,1,.35.17.73.73,0,0,1,.16.48.71.71,0,0,1-.42.63,1.75,1.75,0,0,1-.89.24,5.27,5.27,0,0,1-.64-.05,1.92,1.92,0,0,1-.72-.24,1.48,1.48,0,0,1-.56-.62,2.56,2.56,0,0,1-.23-1.19v-7.49a.8.8,0,0,1,.23-.58A.77.77,0,0,1,197,242.82Z"/></g><g class="cls-11"><path class="cls-12" d="M4.18,264.61a5.82,5.82,0,0,1,1.52.18,2.71,2.71,0,0,1,1,.51,1,1,0,0,1,.39.76.87.87,0,0,1-.17.51.56.56,0,0,1-.47.23,1,1,0,0,1-.4-.08,1.73,1.73,0,0,1-.28-.19,1.77,1.77,0,0,0-.32-.23,2.16,2.16,0,0,0-.52-.16,3.58,3.58,0,0,0-.61-.06,2.77,2.77,0,0,0-1.47.38,2.74,2.74,0,0,0-1,1,3.43,3.43,0,0,0,0,3,2.72,2.72,0,0,0,1,1,2.49,2.49,0,0,0,1.4.38,3.5,3.5,0,0,0,.79-.07,2.41,2.41,0,0,0,.52-.18,2.54,2.54,0,0,0,.42-.3.64.64,0,0,1,.46-.15.67.67,0,0,1,.54.22.79.79,0,0,1,.18.53.89.89,0,0,1-.42.68,3.5,3.5,0,0,1-1.13.54,5.43,5.43,0,0,1-1.55.21,4,4,0,0,1-2.17-.58A3.87,3.87,0,0,1,.5,271.23,5,5,0,0,1,0,269a4.73,4.73,0,0,1,.53-2.25A4.08,4.08,0,0,1,2,265.18,4.12,4.12,0,0,1,4.18,264.61Z"/><path class="cls-12" d="M17.15,269a4.41,4.41,0,0,1-.57,2.26,4.11,4.11,0,0,1-1.52,1.55,4.24,4.24,0,0,1-2.16.56,4.29,4.29,0,0,1-2.16-.56,4.21,4.21,0,0,1-1.53-1.55,4.81,4.81,0,0,1,0-4.54,4.14,4.14,0,0,1,1.53-1.55,4.2,4.2,0,0,1,2.16-.57,4.15,4.15,0,0,1,2.16.57,4,4,0,0,1,1.52,1.55A4.44,4.44,0,0,1,17.15,269Zm-1.6,0a3.2,3.2,0,0,0-.35-1.53,2.67,2.67,0,0,0-.95-1,2.57,2.57,0,0,0-2.69,0,2.77,2.77,0,0,0-1,1,3.37,3.37,0,0,0,0,3,2.73,2.73,0,0,0,1,1,2.69,2.69,0,0,0,2.69,0,2.63,2.63,0,0,0,.95-1A3.19,3.19,0,0,0,15.55,269Z"/><path class="cls-12" d="M23.62,264.61a2.92,2.92,0,0,1,1.76.47,2.53,2.53,0,0,1,.87,1.26,6.1,6.1,0,0,1,.25,1.77v4.29a.77.77,0,0,1-.24.58.74.74,0,0,1-.56.24.75.75,0,0,1-.58-.24.79.79,0,0,1-.22-.58v-4.27a3.23,3.23,0,0,0-.16-1,1.53,1.53,0,0,0-.56-.74,1.81,1.81,0,0,0-1.09-.28,2.25,2.25,0,0,0-1.15.28,2.06,2.06,0,0,0-.78.74,1.87,1.87,0,0,0-.28,1v4.27a.8.8,0,0,1-.23.58.78.78,0,0,1-.57.24.75.75,0,0,1-.58-.24.79.79,0,0,1-.22-.58v-6.78a.82.82,0,0,1,.22-.59.78.78,0,0,1,.58-.23.81.81,0,0,1,.57.23.82.82,0,0,1,.23.59v.89l-.29.16A2.65,2.65,0,0,1,21,266a4.32,4.32,0,0,1,.68-.67,3.58,3.58,0,0,1,.9-.5A3.06,3.06,0,0,1,23.62,264.61Z"/><path class="cls-12" d="M28.62,271.9a.89.89,0,0,1-.12-.52.65.65,0,0,1,.33-.5.68.68,0,0,1,.47-.12.8.8,0,0,1,.48.25,3.39,3.39,0,0,0,1,.78,2.84,2.84,0,0,0,1.33.29,3.91,3.91,0,0,0,.66-.1,1.34,1.34,0,0,0,.57-.32.92.92,0,0,0,.24-.68.83.83,0,0,0-.25-.64,2,2,0,0,0-.67-.4c-.28-.1-.58-.19-.9-.28s-.69-.2-1-.32a3.89,3.89,0,0,1-.94-.45,2.27,2.27,0,0,1-.68-.73,2.21,2.21,0,0,1-.26-1.1,2,2,0,0,1,.42-1.3,2.8,2.8,0,0,1,1.11-.85,3.59,3.59,0,0,1,1.48-.3,4.22,4.22,0,0,1,1,.12,4.09,4.09,0,0,1,1,.37,2.89,2.89,0,0,1,.84.68,1,1,0,0,1,.18.49.57.57,0,0,1-.26.51.65.65,0,0,1-.47.15.7.7,0,0,1-.45-.18,2.14,2.14,0,0,0-.78-.6,2.68,2.68,0,0,0-1.09-.21,2.37,2.37,0,0,0-.63.08,1.22,1.22,0,0,0-.55.32.87.87,0,0,0-.23.65.81.81,0,0,0,.27.64,2,2,0,0,0,.69.4,9.75,9.75,0,0,0,.95.29c.33.09.66.19,1,.3a3.5,3.5,0,0,1,.88.46,2.22,2.22,0,0,1,.64.72,2.17,2.17,0,0,1,.25,1.11,2,2,0,0,1-.46,1.34,2.8,2.8,0,0,1-1.15.84,3.8,3.8,0,0,1-1.46.29,5.27,5.27,0,0,1-1.82-.33A3.35,3.35,0,0,1,28.62,271.9Z"/><path class="cls-12" d="M45.17,269a4.41,4.41,0,0,1-.57,2.26,4.15,4.15,0,0,1-3.69,2.11,4.26,4.26,0,0,1-2.15-.56,4.17,4.17,0,0,1-1.54-1.55,4.88,4.88,0,0,1,0-4.54,4.09,4.09,0,0,1,1.54-1.55,4.25,4.25,0,0,1,5.84,1.55A4.44,4.44,0,0,1,45.17,269Zm-1.6,0a3.2,3.2,0,0,0-.35-1.53,2.77,2.77,0,0,0-1-1,2.5,2.5,0,0,0-1.35-.38,2.46,2.46,0,0,0-1.33.38,2.77,2.77,0,0,0-1,1,3.37,3.37,0,0,0,0,3,2.73,2.73,0,0,0,1,1,2.53,2.53,0,0,0,1.33.36,2.57,2.57,0,0,0,1.35-.36,2.73,2.73,0,0,0,1-1A3.19,3.19,0,0,0,43.57,269Z"/><path class="cls-12" d="M49,272.4a.76.76,0,0,1-.23.58.79.79,0,0,1-1.13,0,.77.77,0,0,1-.24-.58V262.19a.77.77,0,0,1,.24-.58.79.79,0,0,1,.58-.23.74.74,0,0,1,.57.23.83.83,0,0,1,.21.58Z"/><path class="cls-12" d="M52.5,263.68a1.11,1.11,0,0,1-.68-.17.68.68,0,0,1-.2-.57v-.25a.63.63,0,0,1,.22-.56,1.12,1.12,0,0,1,.67-.16,1.06,1.06,0,0,1,.69.17.65.65,0,0,1,.21.55v.25a.67.67,0,0,1-.22.58A1.13,1.13,0,0,1,52.5,263.68Zm.81,8.72a.79.79,0,0,1-.22.58.75.75,0,0,1-.58.24.78.78,0,0,1-.57-.24.8.8,0,0,1-.23-.58v-6.85a.8.8,0,0,1,.23-.58.77.77,0,0,1,.57-.23.75.75,0,0,1,.58.23.79.79,0,0,1,.22.58Z"/><path class="cls-12" d="M62.7,261.38a.77.77,0,0,1,.8.81V272.4a.76.76,0,0,1-.23.58.8.8,0,0,1-1.14,0,.8.8,0,0,1-.23-.58v-1.15h.32a1.17,1.17,0,0,1-.23.65,3.09,3.09,0,0,1-.63.7,3.47,3.47,0,0,1-.94.55,3.29,3.29,0,0,1-1.17.22,3.58,3.58,0,0,1-2-.57,4,4,0,0,1-1.4-1.55,5.28,5.28,0,0,1,0-4.53,3.93,3.93,0,0,1,1.38-1.55,3.66,3.66,0,0,1,3.21-.35,3.7,3.7,0,0,1,1,.58,2.92,2.92,0,0,1,.68.74,1.37,1.37,0,0,1,.25.75l-.5,0v-4.75a.8.8,0,0,1,.23-.58A.74.74,0,0,1,62.7,261.38ZM59.44,271.9a2.27,2.27,0,0,0,1.32-.38,2.66,2.66,0,0,0,.89-1,3.63,3.63,0,0,0,0-3,2.73,2.73,0,0,0-.89-1,2.47,2.47,0,0,0-2.63,0,2.6,2.6,0,0,0-.9,1,3.63,3.63,0,0,0,0,3,2.53,2.53,0,0,0,.9,1A2.26,2.26,0,0,0,59.44,271.9Z"/><path class="cls-12" d="M73,264.67a.81.81,0,0,1,.57.23.82.82,0,0,1,.23.59v6.91a.8.8,0,0,1-.23.58.78.78,0,0,1-.57.24.75.75,0,0,1-.58-.24.79.79,0,0,1-.22-.58v-1.15l.32.05a1.25,1.25,0,0,1-.23.64,3.58,3.58,0,0,1-.63.68,3.8,3.8,0,0,1-1,.54,3.2,3.2,0,0,1-1.17.22,3.58,3.58,0,0,1-2-.57,4,4,0,0,1-1.39-1.56,5.31,5.31,0,0,1,0-4.54,4,4,0,0,1,1.38-1.54,3.47,3.47,0,0,1,1.95-.56,3.53,3.53,0,0,1,1.27.22,3.43,3.43,0,0,1,1,.58,2.92,2.92,0,0,1,.68.74,1.43,1.43,0,0,1,.24.75l-.5,0v-1.45a.81.81,0,0,1,.22-.58A.75.75,0,0,1,73,264.67ZM69.7,271.9a2.27,2.27,0,0,0,1.32-.38,2.6,2.6,0,0,0,.88-1,3.25,3.25,0,0,0,.32-1.48,3.29,3.29,0,0,0-.32-1.49,2.71,2.71,0,0,0-.88-1,2.48,2.48,0,0,0-2.64,0,2.65,2.65,0,0,0-.89,1,3.29,3.29,0,0,0-.32,1.49,3.25,3.25,0,0,0,.32,1.48,2.55,2.55,0,0,0,.89,1A2.23,2.23,0,0,0,69.7,271.9Z"/><path class="cls-12" d="M76.27,264.9H80a.76.76,0,0,1,.54.21.75.75,0,0,1,.21.54.69.69,0,0,1-.21.51.76.76,0,0,1-.54.21H76.27a.74.74,0,0,1-.53-1.27A.72.72,0,0,1,76.27,264.9ZM78,262.82a.75.75,0,0,1,.58.23.79.79,0,0,1,.22.58v7.43a.9.9,0,0,0,.1.46.47.47,0,0,0,.26.24,1,1,0,0,0,.35.06.78.78,0,0,0,.31-.06.81.81,0,0,1,.33-.06.47.47,0,0,1,.35.17.73.73,0,0,1,.16.48.71.71,0,0,1-.42.63,1.75,1.75,0,0,1-.89.24,5.27,5.27,0,0,1-.64-.05,1.92,1.92,0,0,1-.72-.24,1.42,1.42,0,0,1-.56-.62,2.56,2.56,0,0,1-.23-1.19v-7.49a.8.8,0,0,1,.23-.58A.77.77,0,0,1,78,262.82Z"/><path class="cls-12" d="M86.72,273.38a4.61,4.61,0,0,1-2.3-.56,3.83,3.83,0,0,1-1.52-1.52,4.54,4.54,0,0,1-.53-2.21,4.8,4.8,0,0,1,.57-2.41,4,4,0,0,1,1.48-1.54,3.89,3.89,0,0,1,2-.53,3.64,3.64,0,0,1,1.48.31A4.1,4.1,0,0,1,90,267.08a4.34,4.34,0,0,1,.33,1.62.71.71,0,0,1-.25.53.83.83,0,0,1-.56.21H83.28l-.38-1.36h6l-.3.29V268a1.76,1.76,0,0,0-.39-1,2.26,2.26,0,0,0-.82-.65,2.31,2.31,0,0,0-1-.23,2.92,2.92,0,0,0-.93.15,1.88,1.88,0,0,0-.78.49,2.41,2.41,0,0,0-.55.88A3.91,3.91,0,0,0,83.9,269a3.16,3.16,0,0,0,.37,1.54,2.66,2.66,0,0,0,2.39,1.37,3.3,3.3,0,0,0,1-.12,2.53,2.53,0,0,0,.64-.29,4.54,4.54,0,0,0,.44-.34,1,1,0,0,1,.48-.14.59.59,0,0,1,.48.2.65.65,0,0,1,.2.47.81.81,0,0,1-.36.64,3.8,3.8,0,0,1-1.19.74A4.14,4.14,0,0,1,86.72,273.38Z"/><path class="cls-12" d="M99.26,261.38a.77.77,0,0,1,.8.81V272.4a.76.76,0,0,1-.23.58.8.8,0,0,1-1.14,0,.8.8,0,0,1-.23-.58v-1.15h.32a1.17,1.17,0,0,1-.23.65,3.09,3.09,0,0,1-.63.7,3.47,3.47,0,0,1-.94.55,3.29,3.29,0,0,1-1.17.22,3.58,3.58,0,0,1-2-.57,4,4,0,0,1-1.4-1.55,5.28,5.28,0,0,1,0-4.53,3.93,3.93,0,0,1,1.38-1.55,3.66,3.66,0,0,1,3.21-.35,3.7,3.7,0,0,1,1,.58,2.92,2.92,0,0,1,.68.74,1.37,1.37,0,0,1,.25.75l-.5,0v-4.75a.8.8,0,0,1,.23-.58A.74.74,0,0,1,99.26,261.38ZM96,271.9a2.27,2.27,0,0,0,1.32-.38,2.66,2.66,0,0,0,.89-1,3.63,3.63,0,0,0,0-3,2.73,2.73,0,0,0-.89-1,2.47,2.47,0,0,0-2.63,0,2.6,2.6,0,0,0-.9,1,3.63,3.63,0,0,0,0,3,2.53,2.53,0,0,0,.9,1A2.26,2.26,0,0,0,96,271.9Z"/><path class="cls-12" d="M111.76,264.66a2.58,2.58,0,0,1,1.82.58,2.83,2.83,0,0,1,.85,1.58l-.26-.08.12-.26a3.29,3.29,0,0,1,.63-.84,3.42,3.42,0,0,1,1-.7,2.83,2.83,0,0,1,1.26-.28,2.68,2.68,0,0,1,1.71.47,2.39,2.39,0,0,1,.85,1.26,6.11,6.11,0,0,1,.24,1.77v4.24a.8.8,0,0,1-.23.58.73.73,0,0,1-.57.24.78.78,0,0,1-.57-.24.8.8,0,0,1-.23-.58v-4.22a3.33,3.33,0,0,0-.15-1,1.43,1.43,0,0,0-.53-.74,1.68,1.68,0,0,0-1-.28,2.13,2.13,0,0,0-1.11.28,2,2,0,0,0-.77.74,2,2,0,0,0-.27,1v4.22a.79.79,0,0,1-.22.58.81.81,0,0,1-1.15,0,.8.8,0,0,1-.23-.58v-4.24a3.31,3.31,0,0,0-.15-1,1.42,1.42,0,0,0-.52-.74,1.69,1.69,0,0,0-1-.27,2.23,2.23,0,0,0-1.11.27,2,2,0,0,0-.74.74,2,2,0,0,0-.26,1v4.24a.77.77,0,0,1-.24.58.8.8,0,0,1-1.14,0,.79.79,0,0,1-.22-.58v-6.78a.82.82,0,0,1,.22-.59.82.82,0,0,1,1.14,0,.79.79,0,0,1,.24.59v.94l-.31.18a2.74,2.74,0,0,1,.37-.72,3.2,3.2,0,0,1,.65-.68,3.69,3.69,0,0,1,.87-.49A2.75,2.75,0,0,1,111.76,264.66Z"/><path class="cls-12" d="M129.47,264.67a.81.81,0,0,1,.57.23.82.82,0,0,1,.23.59v6.91a.8.8,0,0,1-.23.58.78.78,0,0,1-.57.24.77.77,0,0,1-.58-.24.83.83,0,0,1-.22-.58v-1.15l.32.05a1.25,1.25,0,0,1-.23.64,3.58,3.58,0,0,1-.63.68,3.8,3.8,0,0,1-.95.54,3.2,3.2,0,0,1-1.17.22,3.58,3.58,0,0,1-2-.57,4,4,0,0,1-1.39-1.56,5.31,5.31,0,0,1,0-4.54,4,4,0,0,1,1.38-1.54,3.71,3.71,0,0,1,3.22-.34,3.43,3.43,0,0,1,1,.58,2.92,2.92,0,0,1,.68.74,1.43,1.43,0,0,1,.24.75l-.5,0v-1.45a.85.85,0,0,1,.22-.58A.77.77,0,0,1,129.47,264.67Zm-3.26,7.23a2.27,2.27,0,0,0,1.32-.38,2.53,2.53,0,0,0,.88-1,3.25,3.25,0,0,0,.32-1.48,3.29,3.29,0,0,0-.32-1.49,2.63,2.63,0,0,0-.88-1,2.35,2.35,0,0,0-1.32-.38,2.4,2.4,0,0,0-1.32.38,2.65,2.65,0,0,0-.89,1,3.43,3.43,0,0,0-.32,1.49,3.38,3.38,0,0,0,.32,1.48,2.55,2.55,0,0,0,.89,1A2.27,2.27,0,0,0,126.21,271.9Z"/><path class="cls-12" d="M133.69,273.22a.75.75,0,0,1-.57-.24.79.79,0,0,1-.22-.58v-6.78a.82.82,0,0,1,.22-.59.82.82,0,0,1,1.14,0,.79.79,0,0,1,.24.59v1.79l-.17-.69a2.77,2.77,0,0,1,.4-.83,2.67,2.67,0,0,1,.63-.67,2.52,2.52,0,0,1,.82-.45,2.79,2.79,0,0,1,.95-.16,1.16,1.16,0,0,1,.72.22.67.67,0,0,1,.31.56.83.83,0,0,1-.22.63.71.71,0,0,1-.5.2,1,1,0,0,1-.46-.1,1.25,1.25,0,0,0-.53-.1,1.47,1.47,0,0,0-.69.17,2,2,0,0,0-.64.52,2.67,2.67,0,0,0-.46.81,3.11,3.11,0,0,0-.16,1v3.84a.77.77,0,0,1-.24.58A.75.75,0,0,1,133.69,273.22Z"/><path class="cls-12" d="M140.91,273.22a.78.78,0,0,1-.57-.24.8.8,0,0,1-.23-.58V262.19a.8.8,0,0,1,.23-.58.77.77,0,0,1,.57-.23.75.75,0,0,1,.58.23.79.79,0,0,1,.22.58V272.4a.79.79,0,0,1-.22.58A.75.75,0,0,1,140.91,273.22Zm5.22-8.45a.65.65,0,0,1,.52.25.81.81,0,0,1,.23.52.77.77,0,0,1-.31.59l-5,4.48-.07-1.84,4-3.75A.83.83,0,0,1,146.13,264.77Zm.19,8.43a.74.74,0,0,1-.58-.27l-3.2-3.38,1.22-1.12,3.12,3.38a.85.85,0,0,1,.25.61.66.66,0,0,1-.28.56A.83.83,0,0,1,146.32,273.2Z"/><path class="cls-12" d="M149.84,269.34a.77.77,0,0,1-.57-.22.78.78,0,0,1-.23-.58.77.77,0,0,1,.8-.78h3a.81.81,0,0,1,.57.23.79.79,0,0,1,.24.59.72.72,0,0,1-.24.55.84.84,0,0,1-.57.21Z"/><path class="cls-12" d="M157.74,272.4a.76.76,0,0,1-.23.58.75.75,0,0,1-.57.24.78.78,0,0,1-.57-.24.8.8,0,0,1-.23-.58V262.19a.8.8,0,0,1,.82-.81.74.74,0,0,1,.57.23.83.83,0,0,1,.21.58Z"/><path class="cls-12" d="M161.21,263.68a1.08,1.08,0,0,1-.67-.17.68.68,0,0,1-.21-.57v-.25a.63.63,0,0,1,.23-.56,1.12,1.12,0,0,1,.67-.16,1.06,1.06,0,0,1,.69.17.65.65,0,0,1,.21.55v.25a.7.7,0,0,1-.22.58A1.17,1.17,0,0,1,161.21,263.68Zm.82,8.72a.79.79,0,0,1-.22.58.77.77,0,0,1-.58.24.78.78,0,0,1-.57-.24.8.8,0,0,1-.23-.58v-6.85a.8.8,0,0,1,.23-.58.77.77,0,0,1,.57-.23.76.76,0,0,1,.58.23.79.79,0,0,1,.22.58Z"/><path class="cls-12" d="M164.09,271.9a.89.89,0,0,1-.12-.52.65.65,0,0,1,.33-.5.68.68,0,0,1,.47-.12.8.8,0,0,1,.48.25,3.39,3.39,0,0,0,1,.78,2.84,2.84,0,0,0,1.33.29,3.91,3.91,0,0,0,.66-.1,1.34,1.34,0,0,0,.57-.32.92.92,0,0,0,.24-.68.83.83,0,0,0-.25-.64,2,2,0,0,0-.67-.4c-.28-.1-.58-.19-.9-.28s-.69-.2-1-.32a3.89,3.89,0,0,1-.94-.45,2.27,2.27,0,0,1-.68-.73,2.21,2.21,0,0,1-.26-1.1,2,2,0,0,1,.42-1.3,2.8,2.8,0,0,1,1.11-.85,3.59,3.59,0,0,1,1.48-.3,4.22,4.22,0,0,1,1,.12,4.09,4.09,0,0,1,1,.37,2.89,2.89,0,0,1,.84.68,1,1,0,0,1,.18.49.57.57,0,0,1-.26.51.65.65,0,0,1-.47.15.7.7,0,0,1-.45-.18,2.14,2.14,0,0,0-.78-.6,2.68,2.68,0,0,0-1.09-.21,2.37,2.37,0,0,0-.63.08,1.22,1.22,0,0,0-.55.32.87.87,0,0,0-.23.65.81.81,0,0,0,.27.64,2,2,0,0,0,.69.4,9.75,9.75,0,0,0,.95.29c.33.09.66.19,1,.3a3.5,3.5,0,0,1,.88.46,2.22,2.22,0,0,1,.64.72,2.17,2.17,0,0,1,.25,1.11,2,2,0,0,1-.46,1.34,2.8,2.8,0,0,1-1.15.84,3.8,3.8,0,0,1-1.46.29,5.27,5.27,0,0,1-1.82-.33A3.35,3.35,0,0,1,164.09,271.9Z"/><path class="cls-12" d="M172.53,264.9h3.76a.72.72,0,0,1,.53.21.72.72,0,0,1,.22.54.67.67,0,0,1-.22.51.72.72,0,0,1-.53.21h-3.76a.7.7,0,0,1-.54-.22.73.73,0,0,1,.54-1.25Zm1.68-2.08a.74.74,0,0,1,.57.23.8.8,0,0,1,.23.58v7.43a1,1,0,0,0,.09.46.48.48,0,0,0,.27.24,1,1,0,0,0,.34.06.75.75,0,0,0,.31-.06.81.81,0,0,1,.33-.06.44.44,0,0,1,.35.17.68.68,0,0,1,.16.48.72.72,0,0,1-.41.63,1.78,1.78,0,0,1-.9.24,5.58,5.58,0,0,1-.64-.05,1.87,1.87,0,0,1-.71-.24,1.5,1.5,0,0,1-.57-.62,2.58,2.58,0,0,1-.22-1.19v-7.49a.76.76,0,0,1,.23-.58A.74.74,0,0,1,174.21,262.82Z"/><path class="cls-12" d="M190.89,264.67a.79.79,0,0,1,.8.82v6.91a.76.76,0,0,1-.23.58.8.8,0,0,1-1.14,0,.8.8,0,0,1-.23-.58v-1.15l.32.05a1.16,1.16,0,0,1-.23.64,3,3,0,0,1-.63.68,3.73,3.73,0,0,1-.94.54,3.29,3.29,0,0,1-1.17.22,3.59,3.59,0,0,1-2-.57,4,4,0,0,1-1.39-1.56,5.31,5.31,0,0,1,0-4.54,3.91,3.91,0,0,1,1.39-1.54,3.69,3.69,0,0,1,3.21-.34,3.62,3.62,0,0,1,1,.58,2.87,2.87,0,0,1,.67.74,1.43,1.43,0,0,1,.24.75l-.5,0v-1.45a.82.82,0,0,1,.23-.58A.75.75,0,0,1,190.89,264.67Zm-3.26,7.23a2.27,2.27,0,0,0,1.32-.38,2.62,2.62,0,0,0,.89-1,3.38,3.38,0,0,0,.32-1.48,3.43,3.43,0,0,0-.32-1.49,2.73,2.73,0,0,0-.89-1,2.47,2.47,0,0,0-2.63,0,2.67,2.67,0,0,0-.9,1,3.43,3.43,0,0,0-.32,1.49,3.38,3.38,0,0,0,.32,1.48,2.62,2.62,0,0,0,.89,1A2.27,2.27,0,0,0,187.63,271.9Z"/><path class="cls-12" d="M198.65,264.61a2.88,2.88,0,0,1,1.76.47,2.48,2.48,0,0,1,.88,1.26,6.11,6.11,0,0,1,.24,1.77v4.29a.76.76,0,0,1-.23.58.8.8,0,0,1-1.14,0,.8.8,0,0,1-.23-.58v-4.27a3,3,0,0,0-.16-1,1.45,1.45,0,0,0-.55-.74,1.81,1.81,0,0,0-1.09-.28,2.29,2.29,0,0,0-1.16.28,2,2,0,0,0-.77.74,1.87,1.87,0,0,0-.28,1v4.27a.8.8,0,0,1-.23.58.78.78,0,0,1-.57.24.75.75,0,0,1-.58-.24.79.79,0,0,1-.22-.58v-6.78a.82.82,0,0,1,.22-.59.78.78,0,0,1,.58-.23.81.81,0,0,1,.57.23.82.82,0,0,1,.23.59v.89l-.29.16A2.19,2.19,0,0,1,196,266a4.32,4.32,0,0,1,.68-.67,3.58,3.58,0,0,1,.9-.5A3,3,0,0,1,198.65,264.61Z"/><path class="cls-12" d="M211,261.38a.77.77,0,0,1,.8.81V272.4a.8.8,0,0,1-.23.58.78.78,0,0,1-.57.24.75.75,0,0,1-.58-.24.79.79,0,0,1-.22-.58v-1.15h.32a1.25,1.25,0,0,1-.23.65,3.66,3.66,0,0,1-.63.7,3.53,3.53,0,0,1-1,.55,3.2,3.2,0,0,1-1.17.22,3.57,3.57,0,0,1-2-.57,4,4,0,0,1-1.4-1.55,5.28,5.28,0,0,1,0-4.53,3.93,3.93,0,0,1,1.38-1.55,3.64,3.64,0,0,1,3.2-.35,3.62,3.62,0,0,1,1,.58,3.11,3.11,0,0,1,.68.74,1.45,1.45,0,0,1,.25.75l-.5,0v-4.75a.79.79,0,0,1,.22-.58A.75.75,0,0,1,211,261.38Zm-3.26,10.52a2.27,2.27,0,0,0,1.32-.38,2.64,2.64,0,0,0,.88-1,3.63,3.63,0,0,0,0-3,2.71,2.71,0,0,0-.88-1,2.48,2.48,0,0,0-2.64,0,2.65,2.65,0,0,0-.89,1,3.63,3.63,0,0,0,0,3,2.58,2.58,0,0,0,.89,1A2.3,2.3,0,0,0,207.73,271.9Z"/></g><g class="cls-11"><path class="cls-12" d="M7.14,284.94a.7.7,0,0,1,.52.21.77.77,0,0,1,0,1.06.7.7,0,0,1-.52.21H3a.73.73,0,0,1-.52-.21.77.77,0,0,1,0-1.06.73.73,0,0,1,.52-.21Zm-.32-3.55a2.7,2.7,0,0,1,.62.08,1.37,1.37,0,0,1,.54.27.63.63,0,0,1,.21.5.71.71,0,0,1-.19.52.62.62,0,0,1-.45.2,1.7,1.7,0,0,1-.43-.07,2,2,0,0,0-.54-.07A1,1,0,0,0,6,283a1,1,0,0,0-.32.42,1.46,1.46,0,0,0-.09.49v8.51a.8.8,0,0,1-.23.58.78.78,0,0,1-.57.24.75.75,0,0,1-.58-.24A.79.79,0,0,1,4,292.4v-8.5a2.38,2.38,0,0,1,.73-1.8A2.92,2.92,0,0,1,6.82,281.39Z"/><path class="cls-12" d="M13.47,293.38a4.57,4.57,0,0,1-2.29-.56,3.71,3.71,0,0,1-1.52-1.52,4.44,4.44,0,0,1-.54-2.21,4.8,4.8,0,0,1,.57-2.41,4,4,0,0,1,1.49-1.54,3.85,3.85,0,0,1,1.94-.53,3.64,3.64,0,0,1,1.48.31,4.34,4.34,0,0,1,1.26.86,4.15,4.15,0,0,1,.86,1.3,4.55,4.55,0,0,1,.34,1.62.75.75,0,0,1-.26.53.83.83,0,0,1-.56.21H10l-.38-1.36h6l-.3.29V288a1.83,1.83,0,0,0-.38-1,2.39,2.39,0,0,0-1.86-.88,2.92,2.92,0,0,0-.93.15,1.88,1.88,0,0,0-.78.49,2.41,2.41,0,0,0-.55.88,4.17,4.17,0,0,0-.2,1.37,3.16,3.16,0,0,0,.36,1.54,2.69,2.69,0,0,0,2.39,1.37,3.3,3.3,0,0,0,1-.12,2.37,2.37,0,0,0,.64-.29c.17-.12.32-.23.45-.34a1,1,0,0,1,.48-.14.62.62,0,0,1,.48.2.68.68,0,0,1,.19.47.82.82,0,0,1-.35.64,4,4,0,0,1-1.2.74A4.07,4.07,0,0,1,13.47,293.38Z"/><path class="cls-12" d="M23,293.38a4.57,4.57,0,0,1-2.29-.56,3.71,3.71,0,0,1-1.52-1.52,4.44,4.44,0,0,1-.54-2.21,4.8,4.8,0,0,1,.57-2.41,4,4,0,0,1,1.49-1.54,3.85,3.85,0,0,1,1.94-.53,3.61,3.61,0,0,1,1.48.31,4.21,4.21,0,0,1,1.26.86,4.15,4.15,0,0,1,.86,1.3,4.34,4.34,0,0,1,.34,1.62.72.72,0,0,1-.26.53.83.83,0,0,1-.56.21H19.58l-.38-1.36h6l-.31.29V288a1.83,1.83,0,0,0-.38-1,2.39,2.39,0,0,0-1.86-.88,2.92,2.92,0,0,0-.93.15,1.88,1.88,0,0,0-.78.49,2.39,2.39,0,0,0-.54.88,3.91,3.91,0,0,0-.21,1.37,3.05,3.05,0,0,0,.37,1.54,2.6,2.6,0,0,0,1,1,2.72,2.72,0,0,0,1.39.36,3.3,3.3,0,0,0,1-.12,2.24,2.24,0,0,0,.64-.29c.17-.12.32-.23.45-.34a1,1,0,0,1,.48-.14.62.62,0,0,1,.48.2.64.64,0,0,1,.19.47.82.82,0,0,1-.35.64,4.05,4.05,0,0,1-1.19.74A4.15,4.15,0,0,1,23,293.38Z"/><path class="cls-12" d="M35.57,281.38a.77.77,0,0,1,.8.81V292.4a.8.8,0,0,1-.23.58.78.78,0,0,1-.57.24A.75.75,0,0,1,35,293a.79.79,0,0,1-.22-.58v-1.15h.32a1.25,1.25,0,0,1-.23.65,3.42,3.42,0,0,1-.64.7,3.33,3.33,0,0,1-.94.55,3.2,3.2,0,0,1-1.17.22,3.57,3.57,0,0,1-2-.57,4,4,0,0,1-1.4-1.55,5.19,5.19,0,0,1,0-4.53,3.93,3.93,0,0,1,1.38-1.55,3.64,3.64,0,0,1,3.2-.35,3.62,3.62,0,0,1,1,.58,3.34,3.34,0,0,1,.68.74,1.43,1.43,0,0,1,.24.75l-.49,0v-4.75a.79.79,0,0,1,.22-.58A.75.75,0,0,1,35.57,281.38ZM32.3,291.9a2.23,2.23,0,0,0,1.32-.38,2.58,2.58,0,0,0,.89-1,3.63,3.63,0,0,0,0-3,2.65,2.65,0,0,0-.89-1,2.3,2.3,0,0,0-1.32-.38,2.36,2.36,0,0,0-1.31.38,2.65,2.65,0,0,0-.89,1,3.63,3.63,0,0,0,0,3,2.58,2.58,0,0,0,.89,1A2.29,2.29,0,0,0,32.3,291.9Z"/><path class="cls-12" d="M43.23,284.61a3.53,3.53,0,0,1,2,.56,4,4,0,0,1,1.39,1.54,5.31,5.31,0,0,1,0,4.54,4,4,0,0,1-1.38,1.56,3.46,3.46,0,0,1-1.95.57,3.35,3.35,0,0,1-1.15-.2,3.65,3.65,0,0,1-1-.52,3.06,3.06,0,0,1-.68-.66,1.57,1.57,0,0,1-.33-.66l.43-.2v1.39a.81.81,0,0,1-.23.57.79.79,0,0,1-.57.23.76.76,0,0,1-.57-.23.78.78,0,0,1-.23-.57V282.19a.8.8,0,0,1,.23-.58.73.73,0,0,1,.57-.23.75.75,0,0,1,.57.23.8.8,0,0,1,.23.58v4.5l-.25-.15a1.39,1.39,0,0,1,.3-.63,3.56,3.56,0,0,1,.65-.63,3.64,3.64,0,0,1,.89-.49A3.13,3.13,0,0,1,43.23,284.61Zm-.17,1.47a2.37,2.37,0,0,0-1.34.38,2.58,2.58,0,0,0-.89,1,3.32,3.32,0,0,0-.32,1.48,3.43,3.43,0,0,0,.32,1.49,2.55,2.55,0,0,0,.89,1,2.29,2.29,0,0,0,1.34.38,2.24,2.24,0,0,0,1.31-.38,2.74,2.74,0,0,0,.89-1.06,3.42,3.42,0,0,0,.32-1.48,3.32,3.32,0,0,0-.32-1.48,2.75,2.75,0,0,0-.89-1A2.32,2.32,0,0,0,43.06,286.08Z"/><path class="cls-12" d="M56.08,284.67a.81.81,0,0,1,.57.23.82.82,0,0,1,.23.59v6.91a.8.8,0,0,1-.23.58.78.78,0,0,1-.57.24.75.75,0,0,1-.58-.24.79.79,0,0,1-.22-.58v-1.15l.32.05a1.25,1.25,0,0,1-.23.64,3.58,3.58,0,0,1-.63.68,3.8,3.8,0,0,1-1,.54,3.2,3.2,0,0,1-1.17.22,3.58,3.58,0,0,1-2-.57,4,4,0,0,1-1.39-1.56,5.31,5.31,0,0,1,0-4.54,4,4,0,0,1,1.38-1.54,3.47,3.47,0,0,1,1.95-.56,3.53,3.53,0,0,1,1.27.22,3.43,3.43,0,0,1,1,.58,2.92,2.92,0,0,1,.68.74,1.43,1.43,0,0,1,.24.75l-.5,0v-1.45a.81.81,0,0,1,.22-.58A.75.75,0,0,1,56.08,284.67Zm-3.26,7.23a2.27,2.27,0,0,0,1.32-.38,2.6,2.6,0,0,0,.88-1,3.25,3.25,0,0,0,.32-1.48A3.29,3.29,0,0,0,55,287.5a2.71,2.71,0,0,0-.88-1,2.48,2.48,0,0,0-2.64,0,2.65,2.65,0,0,0-.89,1,3.29,3.29,0,0,0-.32,1.49,3.25,3.25,0,0,0,.32,1.48,2.55,2.55,0,0,0,.89,1A2.23,2.23,0,0,0,52.82,291.9Z"/><path class="cls-12" d="M63.17,284.61a6,6,0,0,1,1.53.18,2.73,2.73,0,0,1,1,.51,1,1,0,0,1,.39.76.87.87,0,0,1-.17.51.56.56,0,0,1-.47.23.87.87,0,0,1-.39-.08,1.15,1.15,0,0,1-.28-.19,3,3,0,0,0-.32-.23,2.5,2.5,0,0,0-.52-.16,3.69,3.69,0,0,0-.62-.06,2.74,2.74,0,0,0-1.46.38,2.6,2.6,0,0,0-1,1,3.35,3.35,0,0,0,0,3,2.62,2.62,0,0,0,.94,1,2.51,2.51,0,0,0,1.4.38,3.5,3.5,0,0,0,.79-.07,2.41,2.41,0,0,0,.52-.18,2.54,2.54,0,0,0,.42-.3.64.64,0,0,1,.46-.15.66.66,0,0,1,.54.22.79.79,0,0,1,.18.53.89.89,0,0,1-.42.68,3.5,3.5,0,0,1-1.13.54,5.43,5.43,0,0,1-1.55.21,4,4,0,0,1-2.17-.58,3.85,3.85,0,0,1-1.42-1.57A4.83,4.83,0,0,1,59,289a4.73,4.73,0,0,1,.53-2.25A4.08,4.08,0,0,1,61,285.18,4.15,4.15,0,0,1,63.17,284.61Z"/><path class="cls-12" d="M69.07,293.22a.78.78,0,0,1-.57-.24.8.8,0,0,1-.23-.58V282.19a.8.8,0,0,1,.23-.58.77.77,0,0,1,.57-.23.75.75,0,0,1,.58.23.79.79,0,0,1,.22.58V292.4a.79.79,0,0,1-.22.58A.75.75,0,0,1,69.07,293.22Zm5.22-8.45a.69.69,0,0,1,.53.25.84.84,0,0,1,.22.52.79.79,0,0,1-.3.59l-5,4.48-.07-1.84,4-3.75A.79.79,0,0,1,74.29,284.77Zm.19,8.43a.76.76,0,0,1-.58-.27l-3.2-3.38,1.22-1.12L75,291.81a.87.87,0,0,1,.26.61A.69.69,0,0,1,75,293,.88.88,0,0,1,74.48,293.2Z"/><path class="cls-12" d="M85.12,289a4.41,4.41,0,0,1-.57,2.26,4.15,4.15,0,0,1-3.69,2.11,4.26,4.26,0,0,1-2.15-.56,4.14,4.14,0,0,1-1.53-1.55,4.81,4.81,0,0,1,0-4.54,4.07,4.07,0,0,1,1.53-1.55,4.25,4.25,0,0,1,5.84,1.55A4.44,4.44,0,0,1,85.12,289Zm-1.6,0a3.2,3.2,0,0,0-.35-1.53,2.75,2.75,0,0,0-1-1,2.53,2.53,0,0,0-1.36-.38,2.46,2.46,0,0,0-1.33.38,2.77,2.77,0,0,0-1,1,3.37,3.37,0,0,0,0,3,2.73,2.73,0,0,0,1,1,2.53,2.53,0,0,0,1.33.36,2.61,2.61,0,0,0,1.36-.36,2.7,2.7,0,0,0,1-1A3.19,3.19,0,0,0,83.52,289Z"/><path class="cls-12" d="M91.58,284.61a2.88,2.88,0,0,1,1.76.47,2.48,2.48,0,0,1,.88,1.26,6.11,6.11,0,0,1,.24,1.77v4.29a.76.76,0,0,1-.23.58.8.8,0,0,1-1.14,0,.8.8,0,0,1-.23-.58v-4.27a3,3,0,0,0-.16-1,1.45,1.45,0,0,0-.55-.74,1.83,1.83,0,0,0-1.09-.28,2.29,2.29,0,0,0-1.16.28,2,2,0,0,0-.77.74,1.87,1.87,0,0,0-.28,1v4.27a.8.8,0,0,1-.23.58.78.78,0,0,1-.57.24.75.75,0,0,1-.58-.24.79.79,0,0,1-.22-.58v-6.78a.82.82,0,0,1,.22-.59.78.78,0,0,1,.58-.23.81.81,0,0,1,.57.23.82.82,0,0,1,.23.59v.89l-.29.16A2.19,2.19,0,0,1,89,286a3.93,3.93,0,0,1,.68-.67,3.58,3.58,0,0,1,.9-.5A3,3,0,0,1,91.58,284.61Z"/><path class="cls-12" d="M101.82,284.9h3.76a.73.73,0,0,1,.54.21.76.76,0,0,1,.22.54.7.7,0,0,1-.22.51.73.73,0,0,1-.54.21h-3.76a.74.74,0,0,1-.53-1.27A.72.72,0,0,1,101.82,284.9Zm1.68-2.08a.75.75,0,0,1,.58.23.79.79,0,0,1,.22.58v7.43a1,1,0,0,0,.1.46.47.47,0,0,0,.26.24,1.07,1.07,0,0,0,.35.06.78.78,0,0,0,.31-.06.81.81,0,0,1,.33-.06.45.45,0,0,1,.35.17.68.68,0,0,1,.16.48.71.71,0,0,1-.42.63,1.72,1.72,0,0,1-.89.24,5.42,5.42,0,0,1-.64-.05,1.81,1.81,0,0,1-.71-.24,1.5,1.5,0,0,1-.57-.62,2.56,2.56,0,0,1-.23-1.19v-7.49a.77.77,0,0,1,.24-.58A.73.73,0,0,1,103.5,282.82Z"/><path class="cls-12" d="M112.75,284.66a2.68,2.68,0,0,1,1.71.47,2.49,2.49,0,0,1,.86,1.27,6.08,6.08,0,0,1,.25,1.76v4.24a.77.77,0,0,1-.24.58.74.74,0,0,1-.56.24.75.75,0,0,1-.58-.24.79.79,0,0,1-.22-.58v-4.24a3,3,0,0,0-.16-1,1.42,1.42,0,0,0-.52-.74,1.77,1.77,0,0,0-1.05-.27,2.23,2.23,0,0,0-1.11.27,1.84,1.84,0,0,0-.75.74,2,2,0,0,0-.27,1v4.24a.8.8,0,0,1-.23.58.76.76,0,0,1-.57.24.73.73,0,0,1-.57-.24.8.8,0,0,1-.23-.58V282.19a.8.8,0,0,1,.23-.58.73.73,0,0,1,.57-.23.75.75,0,0,1,.57.23.8.8,0,0,1,.23.58v4.37l-.29.16a2.8,2.8,0,0,1,.38-.72,3.17,3.17,0,0,1,.65-.67,3.3,3.3,0,0,1,.88-.49A2.88,2.88,0,0,1,112.75,284.66Z"/><path class="cls-12" d="M122,293.38a4.64,4.64,0,0,1-2.3-.56,3.83,3.83,0,0,1-1.52-1.52,4.54,4.54,0,0,1-.53-2.21,4.8,4.8,0,0,1,.57-2.41,4.06,4.06,0,0,1,1.48-1.54,3.92,3.92,0,0,1,2-.53,3.64,3.64,0,0,1,1.48.31,4.34,4.34,0,0,1,1.26.86,4.15,4.15,0,0,1,.86,1.3,4.34,4.34,0,0,1,.33,1.62.71.71,0,0,1-.25.53.83.83,0,0,1-.56.21h-6.21l-.38-1.36h6l-.3.29V288a1.76,1.76,0,0,0-.39-1,2.18,2.18,0,0,0-.82-.65,2.28,2.28,0,0,0-1-.23,2.92,2.92,0,0,0-.93.15,1.88,1.88,0,0,0-.78.49,2.41,2.41,0,0,0-.55.88,3.91,3.91,0,0,0-.21,1.37,3.16,3.16,0,0,0,.37,1.54A2.66,2.66,0,0,0,122,291.9a3.3,3.3,0,0,0,1-.12,2.37,2.37,0,0,0,.64-.29,4.54,4.54,0,0,0,.44-.34,1.11,1.11,0,0,1,.48-.14.59.59,0,0,1,.48.2.65.65,0,0,1,.2.47.81.81,0,0,1-.36.64,3.8,3.8,0,0,1-1.19.74A4.07,4.07,0,0,1,122,293.38Z"/><path class="cls-12" d="M139.42,284.67a.79.79,0,0,1,.8.82v6.91a.76.76,0,0,1-.23.58.8.8,0,0,1-1.14,0,.8.8,0,0,1-.23-.58v-1.15l.32.05a1.16,1.16,0,0,1-.23.64,3,3,0,0,1-.63.68,3.63,3.63,0,0,1-1,.54,3.19,3.19,0,0,1-1.16.22,3.59,3.59,0,0,1-2-.57,4,4,0,0,1-1.39-1.56,5.31,5.31,0,0,1,0-4.54,4,4,0,0,1,1.38-1.54,3.71,3.71,0,0,1,3.22-.34,3.62,3.62,0,0,1,1,.58,3.06,3.06,0,0,1,.67.74,1.43,1.43,0,0,1,.24.75l-.5,0v-1.45a.82.82,0,0,1,.23-.58A.75.75,0,0,1,139.42,284.67Zm-3.26,7.23a2.27,2.27,0,0,0,1.32-.38,2.62,2.62,0,0,0,.89-1,3.38,3.38,0,0,0,.32-1.48,3.43,3.43,0,0,0-.32-1.49,2.73,2.73,0,0,0-.89-1,2.47,2.47,0,0,0-2.63,0,2.6,2.6,0,0,0-.9,1,3.43,3.43,0,0,0-.32,1.49,3.38,3.38,0,0,0,.32,1.48,2.55,2.55,0,0,0,.89,1A2.27,2.27,0,0,0,136.16,291.9Z"/><path class="cls-12" d="M147.09,284.66a3.56,3.56,0,0,1,2,.56,4,4,0,0,1,1.38,1.52A4.78,4.78,0,0,1,151,289a4.87,4.87,0,0,1-.51,2.27,4,4,0,0,1-1.37,1.54,3.56,3.56,0,0,1-2,.56,3.43,3.43,0,0,1-1.15-.19,3.66,3.66,0,0,1-1-.51,3.57,3.57,0,0,1-.68-.66,1.85,1.85,0,0,1-.33-.66l.44-.2v4.46a.77.77,0,0,1-.24.58.74.74,0,0,1-.56.24.75.75,0,0,1-.58-.24.79.79,0,0,1-.22-.58v-10a.8.8,0,0,1,.22-.57.75.75,0,0,1,.58-.24.74.74,0,0,1,.56.24.78.78,0,0,1,.24.57v1.11l-.26-.15a1.39,1.39,0,0,1,.3-.63,3.47,3.47,0,0,1,.65-.61,3.2,3.2,0,0,1,.9-.47A3,3,0,0,1,147.09,284.66Zm-.18,1.47a2.39,2.39,0,0,0-1.34.37,2.58,2.58,0,0,0-.88,1,3.18,3.18,0,0,0-.32,1.47,3.25,3.25,0,0,0,.32,1.48,2.51,2.51,0,0,0,.88,1,2.39,2.39,0,0,0,1.34.38,2.29,2.29,0,0,0,1.31-.38,2.53,2.53,0,0,0,.89-1,3.25,3.25,0,0,0,.33-1.48,3.17,3.17,0,0,0-.33-1.46,2.63,2.63,0,0,0-.89-1A2.29,2.29,0,0,0,146.91,286.13Z"/><path class="cls-12" d="M157.34,284.66a3.53,3.53,0,0,1,2,.56,3.92,3.92,0,0,1,1.39,1.52,4.78,4.78,0,0,1,.51,2.25,4.87,4.87,0,0,1-.51,2.27,4,4,0,0,1-1.38,1.54,3.51,3.51,0,0,1-2,.56,3.34,3.34,0,0,1-1.15-.19,3.66,3.66,0,0,1-1-.51,3.06,3.06,0,0,1-.68-.66,1.57,1.57,0,0,1-.33-.66l.43-.2v4.46a.8.8,0,0,1-.23.58.8.8,0,0,1-1.14,0,.8.8,0,0,1-.23-.58v-10a.81.81,0,0,1,.23-.57.8.8,0,0,1,1.14,0,.81.81,0,0,1,.23.57v1.11l-.25-.15a1.39,1.39,0,0,1,.3-.63,3.18,3.18,0,0,1,.65-.61,3.28,3.28,0,0,1,.89-.47A3.12,3.12,0,0,1,157.34,284.66Zm-.17,1.47a2.36,2.36,0,0,0-1.34.37,2.6,2.6,0,0,0-.89,1,3.31,3.31,0,0,0-.32,1.47,3.38,3.38,0,0,0,.32,1.48,2.53,2.53,0,0,0,.89,1,2.37,2.37,0,0,0,1.34.38,2.32,2.32,0,0,0,1.31-.38,2.6,2.6,0,0,0,.89-1,3.38,3.38,0,0,0,.32-1.48,3.3,3.3,0,0,0-.32-1.46,2.71,2.71,0,0,0-.89-1A2.31,2.31,0,0,0,157.17,286.13Z"/><path class="cls-12" d="M168.89,283.68a1.08,1.08,0,0,1-.67-.17.68.68,0,0,1-.21-.57v-.25a.63.63,0,0,1,.23-.56,1.12,1.12,0,0,1,.67-.16,1.06,1.06,0,0,1,.69.17.65.65,0,0,1,.21.55v.25a.7.7,0,0,1-.22.58A1.17,1.17,0,0,1,168.89,283.68Zm.82,8.72a.79.79,0,0,1-.22.58.75.75,0,0,1-.58.24.78.78,0,0,1-.57-.24.8.8,0,0,1-.23-.58v-6.85a.8.8,0,0,1,.23-.58.77.77,0,0,1,.57-.23.75.75,0,0,1,.58.23.79.79,0,0,1,.22.58Z"/><path class="cls-12" d="M172.16,284.9h3.76a.72.72,0,0,1,.53.21.72.72,0,0,1,.22.54.67.67,0,0,1-.22.51.72.72,0,0,1-.53.21h-3.76a.73.73,0,0,1-.75-.74.72.72,0,0,1,.21-.53A.74.74,0,0,1,172.16,284.9Zm1.68-2.08a.74.74,0,0,1,.57.23.8.8,0,0,1,.23.58v7.43a1,1,0,0,0,.09.46.52.52,0,0,0,.27.24,1,1,0,0,0,.34.06.75.75,0,0,0,.31-.06.84.84,0,0,1,.33-.06.44.44,0,0,1,.35.17.68.68,0,0,1,.16.48.7.7,0,0,1-.41.63,1.78,1.78,0,0,1-.9.24,5.58,5.58,0,0,1-.64-.05,1.93,1.93,0,0,1-.71-.24,1.5,1.5,0,0,1-.57-.62,2.58,2.58,0,0,1-.22-1.19v-7.49a.8.8,0,0,1,.23-.58A.74.74,0,0,1,173.84,282.82Z"/><path class="cls-12" d="M178.67,291.9a.83.83,0,0,1-.13-.52.64.64,0,0,1,.34-.5.67.67,0,0,1,.47-.12.78.78,0,0,1,.47.25,3.52,3.52,0,0,0,1,.78,2.91,2.91,0,0,0,1.34.29,3.8,3.8,0,0,0,.65-.1,1.32,1.32,0,0,0,.58-.32.92.92,0,0,0,.24-.68.84.84,0,0,0-.26-.64,1.89,1.89,0,0,0-.67-.4c-.28-.1-.57-.19-.89-.28s-.69-.2-1-.32a4,4,0,0,1-.93-.45,2.16,2.16,0,0,1-.68-.73,2.11,2.11,0,0,1-.27-1.1,2.05,2.05,0,0,1,.43-1.3,2.84,2.84,0,0,1,1.1-.85,3.66,3.66,0,0,1,1.48-.3,4.3,4.3,0,0,1,1,.12,4.09,4.09,0,0,1,1,.37,2.73,2.73,0,0,1,.83.68.92.92,0,0,1,.19.49.6.6,0,0,1-.27.51.63.63,0,0,1-.46.15.7.7,0,0,1-.45-.18,2.14,2.14,0,0,0-.78-.6,2.72,2.72,0,0,0-1.09-.21,2.32,2.32,0,0,0-.63.08,1.25,1.25,0,0,0-.56.32.87.87,0,0,0-.22.65.84.84,0,0,0,.26.64,2,2,0,0,0,.7.4,9.53,9.53,0,0,0,.94.29l1,.3a3.67,3.67,0,0,1,.88.46,2.34,2.34,0,0,1,.64.72,2.28,2.28,0,0,1,.25,1.11,2.07,2.07,0,0,1-.46,1.34,2.86,2.86,0,0,1-1.15.84,3.85,3.85,0,0,1-1.47.29,5.25,5.25,0,0,1-1.81-.33A3.35,3.35,0,0,1,178.67,291.9Z"/><path class="cls-12" d="M191.05,293.38a4.57,4.57,0,0,1-2.29-.56,3.77,3.77,0,0,1-1.52-1.52,4.44,4.44,0,0,1-.54-2.21,4.8,4.8,0,0,1,.57-2.41,4,4,0,0,1,1.49-1.54,3.85,3.85,0,0,1,1.94-.53,3.61,3.61,0,0,1,1.48.31,4.09,4.09,0,0,1,1.26.86,4.28,4.28,0,0,1,1.2,2.92.72.72,0,0,1-.26.53.81.81,0,0,1-.56.21h-6.21l-.38-1.36h6l-.31.29V288a1.83,1.83,0,0,0-.38-1,2.39,2.39,0,0,0-1.86-.88,2.92,2.92,0,0,0-.93.15,2,2,0,0,0-.78.49,2.39,2.39,0,0,0-.54.88,3.91,3.91,0,0,0-.21,1.37,3.05,3.05,0,0,0,.37,1.54,2.6,2.6,0,0,0,1,1,2.72,2.72,0,0,0,1.39.36,3.3,3.3,0,0,0,1-.12,2.24,2.24,0,0,0,.64-.29c.17-.12.32-.23.45-.34a1,1,0,0,1,.48-.14.62.62,0,0,1,.48.2.64.64,0,0,1,.19.47.82.82,0,0,1-.35.64,4.05,4.05,0,0,1-1.19.74A4.15,4.15,0,0,1,191.05,293.38Z"/><path class="cls-12" d="M198.49,292.4a.76.76,0,0,1-.23.58.79.79,0,0,1-1.13,0,.77.77,0,0,1-.24-.58V282.19a.77.77,0,0,1,.24-.58.79.79,0,0,1,.58-.23.74.74,0,0,1,.57.23.83.83,0,0,1,.21.58Z"/><path class="cls-12" d="M205.52,284.94a.72.72,0,0,1,.53.21.8.8,0,0,1,0,1.06.72.72,0,0,1-.53.21h-4.15a.73.73,0,0,1-.52-.21.77.77,0,0,1,0-1.06.73.73,0,0,1,.52-.21Zm-.32-3.55a2.7,2.7,0,0,1,.62.08,1.31,1.31,0,0,1,.54.27.63.63,0,0,1,.21.5.71.71,0,0,1-.19.52.62.62,0,0,1-.45.2,1.7,1.7,0,0,1-.43-.07,2,2,0,0,0-.54-.07,1,1,0,0,0-.59.16.93.93,0,0,0-.32.42,1.26,1.26,0,0,0-.1.49v8.51a.8.8,0,0,1-.23.58.78.78,0,0,1-.57.24.77.77,0,0,1-.58-.24.79.79,0,0,1-.22-.58v-8.5a2.38,2.38,0,0,1,.73-1.8A2.92,2.92,0,0,1,205.2,281.39Z"/><path class="cls-12" d="M208.62,293.2A.82.82,0,0,1,208,293a.85.85,0,0,1-.22-.63v-.29a.84.84,0,0,1,.22-.62.79.79,0,0,1,.61-.22h.18a.8.8,0,0,1,.61.22.92.92,0,0,1,.2.62v.29a.93.93,0,0,1-.2.63.84.84,0,0,1-.61.22Z"/></g></g><circle id="circle_5_point_5" data-name="circle 5 point 5" class="cls-12" cx="137.14" cy="16.5" r="16.5"/><g id="_5" data-name=" 5" class="cls-11"><g class="cls-11"><path class="cls-13" d="M136.28,24.14a5.82,5.82,0,0,1-1.61-.24,3.92,3.92,0,0,1-1.41-.72,1.23,1.23,0,0,1-.34-.46,1.39,1.39,0,0,1-.12-.54.84.84,0,0,1,.25-.55.9.9,0,0,1,.69-.27,1.29,1.29,0,0,1,.74.32,5.26,5.26,0,0,0,.85.44,2.48,2.48,0,0,0,.93.18,3.59,3.59,0,0,0,1.71-.4,3.12,3.12,0,0,0,1.22-1.11,2.83,2.83,0,0,0,.45-1.55,2.68,2.68,0,0,0-.38-1.47,2.56,2.56,0,0,0-1-.95,3,3,0,0,0-1.45-.34,3.05,3.05,0,0,0-1.17.21,9.7,9.7,0,0,0-.9.42,1.5,1.5,0,0,1-.71.21,1.22,1.22,0,0,1-.79-.23,1,1,0,0,1-.34-.56,2.13,2.13,0,0,1,0-.61l.7-5.12a.93.93,0,0,1,.33-.57,1,1,0,0,1,.67-.23h5.86a.92.92,0,0,1,.94.94.87.87,0,0,1-.27.66.94.94,0,0,1-.67.26H135l.22-.18-.64,4.4-.3-.6a2,2,0,0,1,.61-.39,5.93,5.93,0,0,1,1-.32,4.67,4.67,0,0,1,1.11-.13,4.79,4.79,0,0,1,2.37.59A4.31,4.31,0,0,1,141,16.86a4.63,4.63,0,0,1,.6,2.36,4.54,4.54,0,0,1-.42,1.94,4.82,4.82,0,0,1-1.16,1.57,5.3,5.3,0,0,1-1.71,1A5.64,5.64,0,0,1,136.28,24.14Z"/></g></g></g></g></g></svg>