<svg xmlns="http://www.w3.org/2000/svg" viewBox="0 0 271.48 267.38"><defs><style>.cls-1{fill:#fff;}.cls-10,.cls-15,.cls-2{isolation:isolate;}.cls-3{fill:#333a41;}.cls-18,.cls-4{fill:#c8e0ff;}.cls-4{stroke:#00217e;}.cls-17,.cls-4{stroke-miterlimit:10;}.cls-5{fill:#ffacb6;}.cls-6{fill:#65617d;}.cls-7{fill:#3f3d56;}.cls-8{fill:#00217e;}.cls-9{fill:#e8eaf2;}.cls-10{opacity:0.05;}.cls-11{fill:#696791;}.cls-12{fill:#a0bded;}.cls-13{fill:#bed7ff;}.cls-14{fill:blue;}.cls-15{opacity:0.1;}.cls-16{fill:#f2f2f2;}.cls-17{fill:none;stroke:#3f3d56;stroke-width:2px;}.cls-19{fill:#0037b2;}</style></defs><g id="Layer_2" data-name="Layer 2"><g id="Layer_4" data-name="Layer 4"><g id="point_6" data-name="point 6"><circle id="circle_6_point_6" data-name="circle 6 point 6" class="cls-1" cx="154.01" cy="16.5" r="16.5"/><g id="_6" data-name=" 6" class="cls-2"><g class="cls-2"><path class="cls-3" d="M154.36,24.2a4.36,4.36,0,0,1-2-.44,4.28,4.28,0,0,1-1.47-1.2,5.62,5.62,0,0,1-.91-1.71,6.12,6.12,0,0,1-.31-2,10.31,10.31,0,0,1,.18-1.79,11.59,11.59,0,0,1,.6-2.1,9.61,9.61,0,0,1,1.12-2.09,8.64,8.64,0,0,1,1.72-1.81,7.09,7.09,0,0,1,2.44-1.23,1.55,1.55,0,0,1,.4-.06,1.22,1.22,0,0,1,.69.21.83.83,0,0,1,.31.75,1,1,0,0,1-.23.63,1.26,1.26,0,0,1-.63.39,6,6,0,0,0-1.46.72,7.51,7.51,0,0,0-1.33,1.14,7,7,0,0,0-1,1.47,6.14,6.14,0,0,0-.62,1.69l-.5.08a4.74,4.74,0,0,1,.76-.89,3.88,3.88,0,0,1,1.1-.72,3.56,3.56,0,0,1,1.46-.29,3.69,3.69,0,0,1,1.59.36,4.43,4.43,0,0,1,1.37,1,5.1,5.1,0,0,1,1,1.48,4.59,4.59,0,0,1-.25,4.07,4.61,4.61,0,0,1-1.64,1.67A4.46,4.46,0,0,1,154.36,24.2Zm0-1.86a2.55,2.55,0,0,0,1.32-.35,2.43,2.43,0,0,0,.91-1,2.92,2.92,0,0,0,.33-1.4,3,3,0,0,0-.31-1.4,2.58,2.58,0,0,0-.88-1,2.4,2.4,0,0,0-1.35-.38,2.49,2.49,0,0,0-1.37.38,2.74,2.74,0,0,0-.93,1,3,3,0,0,0,0,2.76,2.51,2.51,0,0,0,.92,1A2.57,2.57,0,0,0,154.36,22.34Z"/></g></g><g id="Using_this_teachers_gets_more_time_to_interact_with_students_and_helps_reduce_their_manual_work." data-name="Using this teachers gets more time to interact with students and helps reduce their manual work." class="cls-2"><g class="cls-2"><path class="cls-1" d="M8.57,216a.58.58,0,0,1,.45.19.7.7,0,0,1,.17.47V223a4.31,4.31,0,0,1-.57,2.21,4.17,4.17,0,0,1-3.7,2.11,4.27,4.27,0,0,1-2.2-.57,4.19,4.19,0,0,1-1.53-1.54A4.4,4.4,0,0,1,.63,223v-6.35a.63.63,0,0,1,.19-.47A.62.62,0,0,1,1.3,216a.63.63,0,0,1,.46.19.63.63,0,0,1,.2.47V223a3.06,3.06,0,0,0,.4,1.57,3.1,3.1,0,0,0,1.08,1.08,2.92,2.92,0,0,0,1.48.39,3,3,0,0,0,1.5-.39,3.31,3.31,0,0,0,1.12-1.08A3,3,0,0,0,8,223v-6.35a.69.69,0,0,1,.16-.47A.55.55,0,0,1,8.57,216Z"/><path class="cls-1" d="M11.7,225.9a.63.63,0,0,1-.12-.44.53.53,0,0,1,.27-.4.52.52,0,0,1,.37-.1.59.59,0,0,1,.4.21,3.55,3.55,0,0,0,1,.84,2.88,2.88,0,0,0,1.41.31,3,3,0,0,0,.77-.13,1.33,1.33,0,0,0,.64-.39,1,1,0,0,0,.27-.74,1,1,0,0,0-.27-.72,2.24,2.24,0,0,0-.71-.43,7.43,7.43,0,0,0-.94-.29c-.35-.1-.7-.21-1-.33a3.79,3.79,0,0,1-.92-.47,2.21,2.21,0,0,1-.66-.7,2.07,2.07,0,0,1-.25-1,2,2,0,0,1,.4-1.25,2.62,2.62,0,0,1,1.05-.82,3.64,3.64,0,0,1,1.45-.28,4.49,4.49,0,0,1,.94.1,3.9,3.9,0,0,1,1,.35,2.63,2.63,0,0,1,.81.68.62.62,0,0,1,.16.4.49.49,0,0,1-.2.43.58.58,0,0,1-.4.12.6.6,0,0,1-.36-.16,2.1,2.1,0,0,0-.84-.62,2.82,2.82,0,0,0-1.11-.22,2.45,2.45,0,0,0-.75.12,1.39,1.39,0,0,0-.62.37,1.05,1.05,0,0,0-.24.73,1,1,0,0,0,.28.7,1.92,1.92,0,0,0,.74.44,10.21,10.21,0,0,0,1,.33q.51.13,1,.3a3.42,3.42,0,0,1,.85.44,1.93,1.93,0,0,1,.61.69A2.29,2.29,0,0,1,17.9,225a2,2,0,0,1-.42,1.27,2.62,2.62,0,0,1-1.1.82,3.91,3.91,0,0,1-1.46.28,4.81,4.81,0,0,1-1.74-.34A3.43,3.43,0,0,1,11.7,225.9Z"/><path class="cls-1" d="M20.74,217.74a.9.9,0,0,1-.59-.16.59.59,0,0,1-.19-.49v-.23a.57.57,0,0,1,.21-.49.92.92,0,0,1,.59-.16.87.87,0,0,1,.58.16.62.62,0,0,1,.19.49v.23a.59.59,0,0,1-.2.49A.92.92,0,0,1,20.74,217.74Zm.64,8.82a.63.63,0,0,1-.18.46.61.61,0,0,1-.46.2.6.6,0,0,1-.46-.2.63.63,0,0,1-.18-.46v-7.1a.63.63,0,0,1,.19-.46.61.61,0,0,1,.45-.18.63.63,0,0,1,.46.18.62.62,0,0,1,.18.46Z"/><path class="cls-1" d="M28.2,218.74a2.92,2.92,0,0,1,1.71.44,2.44,2.44,0,0,1,.89,1.2,5,5,0,0,1,.26,1.68v4.5a.63.63,0,0,1-.18.46.61.61,0,0,1-.46.2A.59.59,0,0,1,30,227a.64.64,0,0,1-.19-.46V222.1a3.17,3.17,0,0,0-.18-1.1,1.58,1.58,0,0,0-.61-.78,2,2,0,0,0-1.16-.3,2.54,2.54,0,0,0-1.23.3,2.43,2.43,0,0,0-.9.78,1.92,1.92,0,0,0-.33,1.1v4.46a.6.6,0,0,1-.19.46.59.59,0,0,1-.45.2.61.61,0,0,1-.46-.2.63.63,0,0,1-.18-.46v-7a.61.61,0,0,1,.18-.45.6.6,0,0,1,.46-.19.59.59,0,0,1,.46.19.61.61,0,0,1,.18.45v1.14l-.32.35a2.07,2.07,0,0,1,.37-.84,3.49,3.49,0,0,1,1.68-1.29A2.94,2.94,0,0,1,28.2,218.74Z"/><path class="cls-1" d="M37.22,218.74a3.45,3.45,0,0,1,1.3.23,3.49,3.49,0,0,1,1,.6,3.07,3.07,0,0,1,.69.77,1.37,1.37,0,0,1,.25.75l-.32-.19v-1.4a.61.61,0,0,1,.18-.45.64.64,0,0,1,.46-.19.63.63,0,0,1,.46.19.61.61,0,0,1,.18.45v7a4.05,4.05,0,0,1-.55,2.18A3.48,3.48,0,0,1,39.42,230a4.83,4.83,0,0,1-2.07.44,5.36,5.36,0,0,1-1.06-.13,6.69,6.69,0,0,1-1-.31,1.16,1.16,0,0,1-.56-.38.71.71,0,0,1-.3-.36.43.43,0,0,1,.06-.38.44.44,0,0,1,.38-.22,1.77,1.77,0,0,1,.58.14l.46.16a4.94,4.94,0,0,0,.7.2,3.61,3.61,0,0,0,.79.09,2.86,2.86,0,0,0,2.08-.71,2.53,2.53,0,0,0,.72-1.88v-1.49l.17.08a2,2,0,0,1-.38.83,2.88,2.88,0,0,1-.71.68,3.57,3.57,0,0,1-2,.64,3.71,3.71,0,0,1-2-.56,4.11,4.11,0,0,1-1.41-1.54,5,5,0,0,1,0-4.46,4,4,0,0,1,1.4-1.53A3.65,3.65,0,0,1,37.22,218.74Zm.18,1.18a2.69,2.69,0,0,0-1.47.41,2.85,2.85,0,0,0-1,1.11,3.67,3.67,0,0,0,0,3.21,3,3,0,0,0,1,1.13,2.69,2.69,0,0,0,1.47.41,2.6,2.6,0,0,0,1.47-.41,2.85,2.85,0,0,0,1-1.11,3.5,3.5,0,0,0,.37-1.61,3.57,3.57,0,0,0-.37-1.64,2.83,2.83,0,0,0-1-1.1A2.68,2.68,0,0,0,37.4,219.92Z"/><path class="cls-1" d="M48.7,219h3.76a.54.54,0,0,1,.42.18.58.58,0,0,1,.17.41.6.6,0,0,1-.17.43.57.57,0,0,1-.42.17H48.7a.58.58,0,0,1-.42-.18.58.58,0,0,1-.18-.43.54.54,0,0,1,.18-.41A.61.61,0,0,1,48.7,219Zm1.68-2.17a.57.57,0,0,1,.44.18.62.62,0,0,1,.18.46v7.72a1.24,1.24,0,0,0,.11.58.54.54,0,0,0,.3.26.94.94,0,0,0,.36.08.64.64,0,0,0,.28-.06.61.61,0,0,1,.28-.06.38.38,0,0,1,.29.16.56.56,0,0,1,.14.39.58.58,0,0,1-.34.49,1.45,1.45,0,0,1-.75.2,4,4,0,0,1-.55,0,1.75,1.75,0,0,1-.65-.2,1.4,1.4,0,0,1-.53-.59,2.38,2.38,0,0,1-.22-1.14v-7.79a.59.59,0,0,1,.19-.46A.66.66,0,0,1,50.38,216.82Z"/><path class="cls-1" d="M59.22,218.82a2.81,2.81,0,0,1,1.68.45,2.54,2.54,0,0,1,.88,1.22,5.26,5.26,0,0,1,.26,1.69v4.38a.64.64,0,1,1-1.28,0v-4.38a3.17,3.17,0,0,0-.18-1.1,1.53,1.53,0,0,0-.58-.78,1.83,1.83,0,0,0-1.11-.3,2.43,2.43,0,0,0-1.2.3,2.26,2.26,0,0,0-.87.78,2,2,0,0,0-.32,1.1v4.38a.63.63,0,0,1-.18.46.61.61,0,0,1-.46.2.59.59,0,0,1-.45-.2.6.6,0,0,1-.19-.46V216a.59.59,0,0,1,.19-.46.61.61,0,0,1,.45-.18.63.63,0,0,1,.47.18.65.65,0,0,1,.17.46v4.78l-.32.35a2.35,2.35,0,0,1,.36-.84,3.47,3.47,0,0,1,.68-.76,3.56,3.56,0,0,1,.93-.53A2.79,2.79,0,0,1,59.22,218.82Z"/><path class="cls-1" d="M65.4,217.74a.89.89,0,0,1-.59-.16.59.59,0,0,1-.19-.49v-.23a.56.56,0,0,1,.2-.49,1,1,0,0,1,.6-.16.86.86,0,0,1,.57.16.59.59,0,0,1,.19.49v.23a.56.56,0,0,1-.2.49A.87.87,0,0,1,65.4,217.74Zm.64,8.82a.65.65,0,0,1-.64.66.58.58,0,0,1-.46-.2.63.63,0,0,1-.18-.46v-7.1a.62.62,0,0,1,.18-.46.68.68,0,0,1,.92,0,.62.62,0,0,1,.18.46Z"/><path class="cls-1" d="M68.28,225.9a.64.64,0,0,1-.13-.44.53.53,0,0,1,.27-.4.56.56,0,0,1,.38-.1.59.59,0,0,1,.39.21,3.69,3.69,0,0,0,1,.84,2.94,2.94,0,0,0,1.41.31,2.89,2.89,0,0,0,.77-.13,1.36,1.36,0,0,0,.65-.39,1.06,1.06,0,0,0,.26-.74,1,1,0,0,0-.27-.72,2.08,2.08,0,0,0-.7-.43,7.6,7.6,0,0,0-1-.29c-.35-.1-.7-.21-1-.33a4,4,0,0,1-.92-.47,2.07,2.07,0,0,1-.65-.7,2,2,0,0,1-.25-1,2,2,0,0,1,.39-1.25A2.59,2.59,0,0,1,70,219a3.61,3.61,0,0,1,1.45-.28,4.4,4.4,0,0,1,.93.1,3.76,3.76,0,0,1,1,.35,2.78,2.78,0,0,1,.82.68.68.68,0,0,1,.16.4.5.5,0,0,1-.21.43.57.57,0,0,1-.39.12.6.6,0,0,1-.36-.16,2.17,2.17,0,0,0-.84-.62,2.89,2.89,0,0,0-1.11-.22,2.36,2.36,0,0,0-.75.12,1.34,1.34,0,0,0-.62.37,1,1,0,0,0-.25.73,1,1,0,0,0,.29.7,1.88,1.88,0,0,0,.73.44,10.43,10.43,0,0,0,1,.33c.34.09.67.19,1,.3a3.49,3.49,0,0,1,.86.44,1.93,1.93,0,0,1,.61.69,2.29,2.29,0,0,1,.22,1.07,2.05,2.05,0,0,1-.41,1.27,2.68,2.68,0,0,1-1.1.82,3.91,3.91,0,0,1-1.46.28,4.81,4.81,0,0,1-1.74-.34A3.43,3.43,0,0,1,68.28,225.9Z"/><path class="cls-1" d="M81.21,219H85a.54.54,0,0,1,.42.18.58.58,0,0,1,.17.41.6.6,0,0,1-.17.43.57.57,0,0,1-.42.17H81.21a.6.6,0,0,1-.59-.61.53.53,0,0,1,.17-.41A.61.61,0,0,1,81.21,219Zm1.68-2.17a.61.61,0,0,1,.45.18.65.65,0,0,1,.17.46v7.72a1.24,1.24,0,0,0,.11.58.57.57,0,0,0,.3.26.94.94,0,0,0,.36.08.61.61,0,0,0,.28-.06.61.61,0,0,1,.28-.06.39.39,0,0,1,.3.16.56.56,0,0,1,.13.39.59.59,0,0,1-.33.49,1.51,1.51,0,0,1-.76.2,4,4,0,0,1-.55,0A1.81,1.81,0,0,1,83,227a1.4,1.4,0,0,1-.53-.59,2.38,2.38,0,0,1-.22-1.14v-7.79a.63.63,0,0,1,.19-.46A.67.67,0,0,1,82.89,216.82Z"/><path class="cls-1" d="M91.4,227.38a4.51,4.51,0,0,1-2.24-.55,3.81,3.81,0,0,1-1.49-1.49,4.5,4.5,0,0,1-.53-2.2,4.79,4.79,0,0,1,.56-2.38,3.77,3.77,0,0,1,1.43-1.5,3.57,3.57,0,0,1,1.87-.52,3.83,3.83,0,0,1,1.43.27,3.71,3.71,0,0,1,1.22.79,4,4,0,0,1,.85,1.25,4,4,0,0,1,.34,1.62.59.59,0,0,1-.21.43.64.64,0,0,1-.45.18H87.86l-.28-1.1h6.16l-.26.22v-.35a2,2,0,0,0-.42-1.13,2.6,2.6,0,0,0-2.06-1,2.83,2.83,0,0,0-1,.16,2.35,2.35,0,0,0-.85.55,2.67,2.67,0,0,0-.6,1,4,4,0,0,0-.22,1.42,3.41,3.41,0,0,0,.37,1.63,2.81,2.81,0,0,0,1,1.11,2.85,2.85,0,0,0,1.55.41,3.15,3.15,0,0,0,1-.14,3,3,0,0,0,.72-.36,4.47,4.47,0,0,0,.5-.44.72.72,0,0,1,.42-.15.57.57,0,0,1,.38.16.53.53,0,0,1,.16.39.62.62,0,0,1-.26.48A4.15,4.15,0,0,1,93,227,3.66,3.66,0,0,1,91.4,227.38Z"/><path class="cls-1" d="M103.88,218.86a.63.63,0,0,1,.64.64v7.06a.6.6,0,0,1-.19.46.59.59,0,0,1-.45.2.65.65,0,0,1-.64-.66V225l.3,0a1.59,1.59,0,0,1-.24.77,3.29,3.29,0,0,1-.65.77,3.55,3.55,0,0,1-1,.59,3,3,0,0,1-1.21.24,3.49,3.49,0,0,1-2-.57,3.82,3.82,0,0,1-1.37-1.55,5.2,5.2,0,0,1,0-4.45,3.88,3.88,0,0,1,1.37-1.52,3.45,3.45,0,0,1,1.92-.55,3.55,3.55,0,0,1,1.28.22,3.2,3.2,0,0,1,1,.61,2.9,2.9,0,0,1,.69.85,2,2,0,0,1,.23.92l-.41-.09V219.5a.61.61,0,0,1,.18-.45A.66.66,0,0,1,103.88,218.86Zm-3.3,7.33a2.52,2.52,0,0,0,1.42-.41,3,3,0,0,0,1-1.13,3.66,3.66,0,0,0,.35-1.61,3.57,3.57,0,0,0-.35-1.59,2.8,2.8,0,0,0-1-1.12,2.52,2.52,0,0,0-1.42-.41,2.49,2.49,0,0,0-1.4.4,2.81,2.81,0,0,0-1,1.1,3.9,3.9,0,0,0,0,3.23,3,3,0,0,0,1,1.13A2.5,2.5,0,0,0,100.58,226.19Z"/><path class="cls-1" d="M110.89,218.74a5.6,5.6,0,0,1,1.47.17,3,3,0,0,1,1,.48.88.88,0,0,1,.38.69.68.68,0,0,1-.13.4.45.45,0,0,1-.4.19.61.61,0,0,1-.34-.08,1,1,0,0,1-.26-.21.9.9,0,0,0-.32-.22,1.84,1.84,0,0,0-.56-.18,4.74,4.74,0,0,0-.75-.06,2.88,2.88,0,0,0-2.59,1.54,3.34,3.34,0,0,0-.37,1.6,3.49,3.49,0,0,0,.36,1.6,3,3,0,0,0,1,1.12,2.81,2.81,0,0,0,1.52.41,3.39,3.39,0,0,0,.88-.09,3.07,3.07,0,0,0,.57-.23,1.72,1.72,0,0,0,.43-.32.57.57,0,0,1,.42-.16.52.52,0,0,1,.42.18.69.69,0,0,1,.14.43.86.86,0,0,1-.4.61,3.62,3.62,0,0,1-1.08.54,4.82,4.82,0,0,1-1.53.23,3.82,3.82,0,0,1-3.54-2.12,5,5,0,0,1,0-4.4,3.94,3.94,0,0,1,3.6-2.12Z"/><path class="cls-1" d="M119.91,218.82a2.76,2.76,0,0,1,1.67.45,2.48,2.48,0,0,1,.88,1.22,5,5,0,0,1,.27,1.69v4.38a.6.6,0,0,1-.19.46.59.59,0,0,1-.45.2.61.61,0,0,1-.46-.2.63.63,0,0,1-.18-.46v-4.38a3.17,3.17,0,0,0-.18-1.1,1.58,1.58,0,0,0-.58-.78,1.85,1.85,0,0,0-1.11-.3,2.43,2.43,0,0,0-1.2.3,2.2,2.2,0,0,0-.87.78,2,2,0,0,0-.32,1.1v4.38a.65.65,0,0,1-.64.66.59.59,0,0,1-.45-.2.6.6,0,0,1-.19-.46V216a.59.59,0,0,1,.19-.46.61.61,0,0,1,.45-.18.64.64,0,0,1,.47.18.65.65,0,0,1,.17.46v4.78l-.32.35a2.32,2.32,0,0,1,.35-.84,3.28,3.28,0,0,1,.69-.76,3.56,3.56,0,0,1,.93-.53A2.79,2.79,0,0,1,119.91,218.82Z"/><path class="cls-1" d="M129.24,227.38a4.51,4.51,0,0,1-2.24-.55,3.81,3.81,0,0,1-1.49-1.49,4.5,4.5,0,0,1-.53-2.2,4.9,4.9,0,0,1,.55-2.38,3.86,3.86,0,0,1,1.44-1.5,3.57,3.57,0,0,1,1.87-.52,3.83,3.83,0,0,1,1.43.27,3.71,3.71,0,0,1,1.22.79,4,4,0,0,1,.85,1.25,4,4,0,0,1,.34,1.62.59.59,0,0,1-.21.43.64.64,0,0,1-.45.18H125.7l-.29-1.1h6.16l-.25.22v-.35a1.91,1.91,0,0,0-.43-1.13,2.53,2.53,0,0,0-.92-.73,2.62,2.62,0,0,0-1.13-.25,2.83,2.83,0,0,0-1,.16,2.35,2.35,0,0,0-.85.55,2.67,2.67,0,0,0-.6,1,4,4,0,0,0-.23,1.42,3.41,3.41,0,0,0,.38,1.63,2.81,2.81,0,0,0,1,1.11,2.85,2.85,0,0,0,1.55.41,3.19,3.19,0,0,0,1-.14,2.77,2.77,0,0,0,.71-.36,3.86,3.86,0,0,0,.51-.44.72.72,0,0,1,.41-.15.57.57,0,0,1,.39.16.53.53,0,0,1,.16.39.62.62,0,0,1-.26.48,4.15,4.15,0,0,1-1.22.87A3.66,3.66,0,0,1,129.24,227.38Z"/><path class="cls-1" d="M135.56,227.22a.65.65,0,0,1-.64-.66v-7a.61.61,0,0,1,.18-.45.62.62,0,0,1,.46-.19.59.59,0,0,1,.46.19.61.61,0,0,1,.18.45v2.12l-.19-.34a3.62,3.62,0,0,1,.34-1,3.75,3.75,0,0,1,.63-.85,3.09,3.09,0,0,1,.88-.59,2.79,2.79,0,0,1,1.09-.21,1.31,1.31,0,0,1,.65.16.52.52,0,0,1,.29.48.61.61,0,0,1-.17.49.57.57,0,0,1-.4.16.93.93,0,0,1-.4-.09,1.34,1.34,0,0,0-.48-.08,1.64,1.64,0,0,0-.79.21,2.46,2.46,0,0,0-.72.62,3.24,3.24,0,0,0-.53.9,2.8,2.8,0,0,0-.2,1.08v3.89a.6.6,0,0,1-.19.46A.59.59,0,0,1,135.56,227.22Z"/><path class="cls-1" d="M141.27,225.9a.64.64,0,0,1-.13-.44.53.53,0,0,1,.27-.4.56.56,0,0,1,.38-.1.59.59,0,0,1,.39.21,3.59,3.59,0,0,0,1,.84,2.9,2.9,0,0,0,2.17.18,1.36,1.36,0,0,0,.65-.39,1,1,0,0,0,.26-.74,1,1,0,0,0-.27-.72,2.08,2.08,0,0,0-.7-.43,7.12,7.12,0,0,0-.95-.29c-.35-.1-.69-.21-1-.33a4,4,0,0,1-.92-.47,2.07,2.07,0,0,1-.65-.7,2,2,0,0,1-.25-1,2,2,0,0,1,.39-1.25A2.66,2.66,0,0,1,143,219a3.61,3.61,0,0,1,1.45-.28,4.4,4.4,0,0,1,.93.1,3.76,3.76,0,0,1,.95.35,2.66,2.66,0,0,1,.82.68.62.62,0,0,1,.16.4.5.5,0,0,1-.21.43.57.57,0,0,1-.39.12.6.6,0,0,1-.36-.16,2.1,2.1,0,0,0-.84-.62,2.89,2.89,0,0,0-1.11-.22,2.36,2.36,0,0,0-.75.12,1.39,1.39,0,0,0-.62.37,1,1,0,0,0-.25.73,1,1,0,0,0,.29.7,1.85,1.85,0,0,0,.74.44,10.21,10.21,0,0,0,1,.33c.34.09.67.19,1,.3a3.49,3.49,0,0,1,.86.44,1.93,1.93,0,0,1,.61.69,2.29,2.29,0,0,1,.22,1.07,2.05,2.05,0,0,1-.41,1.27,2.68,2.68,0,0,1-1.1.82,3.91,3.91,0,0,1-1.46.28,4.81,4.81,0,0,1-1.74-.34A3.43,3.43,0,0,1,141.27,225.9Z"/><path class="cls-1" d="M157.91,218.74a3.45,3.45,0,0,1,1.3.23,3.62,3.62,0,0,1,1,.6,3.27,3.27,0,0,1,.69.77,1.43,1.43,0,0,1,.24.75l-.32-.19v-1.4a.65.65,0,0,1,.64-.64.63.63,0,0,1,.47.19.6.6,0,0,1,.17.45v7a4,4,0,0,1-.55,2.18A3.43,3.43,0,0,1,160.1,230a4.78,4.78,0,0,1-2.06.44,5.45,5.45,0,0,1-1.07-.13,7,7,0,0,1-1-.31,1.21,1.21,0,0,1-.56-.38.64.64,0,0,1-.29-.36.46.46,0,0,1,0-.38.47.47,0,0,1,.39-.22,1.67,1.67,0,0,1,.57.14l.47.16a4.58,4.58,0,0,0,.7.2,3.59,3.59,0,0,0,.78.09,2.85,2.85,0,0,0,2.08-.71,2.53,2.53,0,0,0,.72-1.88v-1.49l.18.08a2,2,0,0,1-.38.83,2.92,2.92,0,0,1-.72.68,3.31,3.31,0,0,1-.94.47,3.49,3.49,0,0,1-1.05.17,3.76,3.76,0,0,1-2-.56,4,4,0,0,1-1.4-1.54,5,5,0,0,1,0-4.46,3.91,3.91,0,0,1,1.4-1.53A3.6,3.6,0,0,1,157.91,218.74Zm.18,1.18a2.72,2.72,0,0,0-1.48.41,2.83,2.83,0,0,0-1,1.11,3.67,3.67,0,0,0,0,3.21,3,3,0,0,0,1,1.13,2.72,2.72,0,0,0,1.48.41,2.63,2.63,0,0,0,1.47-.41,2.93,2.93,0,0,0,1-1.11,3.5,3.5,0,0,0,.36-1.61,3.57,3.57,0,0,0-.36-1.64,2.9,2.9,0,0,0-1-1.1A2.7,2.7,0,0,0,158.09,219.92Z"/><path class="cls-1" d="M168.33,227.38a4.48,4.48,0,0,1-2.24-.55,3.81,3.81,0,0,1-1.49-1.49,4.5,4.5,0,0,1-.53-2.2,4.79,4.79,0,0,1,.55-2.38,3.91,3.91,0,0,1,1.43-1.5,3.63,3.63,0,0,1,1.88-.52,3.86,3.86,0,0,1,1.43.27,3.57,3.57,0,0,1,1.21.79,3.82,3.82,0,0,1,.86,1.25,4.18,4.18,0,0,1,.34,1.62.59.59,0,0,1-.21.43.64.64,0,0,1-.45.18h-6.32l-.29-1.1h6.16l-.25.22v-.35a2.05,2.05,0,0,0-.43-1.13,2.6,2.6,0,0,0-2-1,2.93,2.93,0,0,0-1,.16,2.4,2.4,0,0,0-.84.55,2.67,2.67,0,0,0-.6,1,4,4,0,0,0-.23,1.42,3.41,3.41,0,0,0,.38,1.63,2.86,2.86,0,0,0,2.6,1.52,3.24,3.24,0,0,0,1-.14,2.77,2.77,0,0,0,.71-.36,3.86,3.86,0,0,0,.51-.44.67.67,0,0,1,.41-.15.55.55,0,0,1,.55.55.62.62,0,0,1-.26.48A4.29,4.29,0,0,1,170,227,3.69,3.69,0,0,1,168.33,227.38Z"/><path class="cls-1" d="M173.69,219h3.76a.54.54,0,0,1,.42.18.58.58,0,0,1,.17.41.6.6,0,0,1-.17.43.57.57,0,0,1-.42.17h-3.76a.58.58,0,0,1-.42-.18.58.58,0,0,1-.18-.43.54.54,0,0,1,.18-.41A.61.61,0,0,1,173.69,219Zm1.68-2.17a.57.57,0,0,1,.44.18.62.62,0,0,1,.18.46v7.72a1.24,1.24,0,0,0,.11.58.57.57,0,0,0,.3.26.94.94,0,0,0,.36.08A.64.64,0,0,0,177,226a.61.61,0,0,1,.28-.06.38.38,0,0,1,.29.16.56.56,0,0,1,.14.39.58.58,0,0,1-.34.49,1.45,1.45,0,0,1-.75.2,4,4,0,0,1-.55,0,1.81,1.81,0,0,1-.65-.2,1.4,1.4,0,0,1-.53-.59,2.38,2.38,0,0,1-.22-1.14v-7.79a.59.59,0,0,1,.19-.46A.66.66,0,0,1,175.37,216.82Z"/><path class="cls-1" d="M180.07,225.9a.64.64,0,0,1-.13-.44.53.53,0,0,1,.27-.4.56.56,0,0,1,.38-.1.59.59,0,0,1,.39.21,3.59,3.59,0,0,0,1,.84,2.9,2.9,0,0,0,2.17.18,1.36,1.36,0,0,0,.65-.39,1,1,0,0,0,.26-.74,1,1,0,0,0-.27-.72,2.08,2.08,0,0,0-.7-.43,7.12,7.12,0,0,0-1-.29c-.35-.1-.69-.21-1-.33a4,4,0,0,1-.92-.47,2.07,2.07,0,0,1-.65-.7,2,2,0,0,1-.25-1,2,2,0,0,1,.39-1.25,2.66,2.66,0,0,1,1.06-.82,3.61,3.61,0,0,1,1.45-.28,4.4,4.4,0,0,1,.93.1,3.76,3.76,0,0,1,1,.35,2.66,2.66,0,0,1,.82.68.62.62,0,0,1,.16.4.5.5,0,0,1-.21.43.57.57,0,0,1-.39.12.6.6,0,0,1-.36-.16,2.1,2.1,0,0,0-.84-.62,2.89,2.89,0,0,0-1.11-.22,2.36,2.36,0,0,0-.75.12,1.39,1.39,0,0,0-.62.37,1,1,0,0,0-.25.73,1,1,0,0,0,.29.7,1.85,1.85,0,0,0,.74.44,10.21,10.21,0,0,0,1,.33c.34.09.67.19,1,.3a3.49,3.49,0,0,1,.86.44,1.93,1.93,0,0,1,.61.69,2.29,2.29,0,0,1,.22,1.07,2.05,2.05,0,0,1-.41,1.27,2.68,2.68,0,0,1-1.1.82,3.91,3.91,0,0,1-1.46.28,4.81,4.81,0,0,1-1.74-.34A3.43,3.43,0,0,1,180.07,225.9Z"/><path class="cls-1" d="M197.27,218.82a2.51,2.51,0,0,1,2.67,2.11h-.24l.11-.29a2.45,2.45,0,0,1,.66-.86,4.09,4.09,0,0,1,1.07-.69,3.12,3.12,0,0,1,1.27-.27,2.75,2.75,0,0,1,1.66.45,2.46,2.46,0,0,1,.87,1.22,5,5,0,0,1,.27,1.7v4.37a.64.64,0,0,1-.19.46.59.59,0,0,1-.45.2.6.6,0,0,1-.47-.2.63.63,0,0,1-.17-.46v-4.34a3.29,3.29,0,0,0-.19-1.12,1.61,1.61,0,0,0-.59-.8,1.83,1.83,0,0,0-1.11-.3,2.43,2.43,0,0,0-1.2.3,2.31,2.31,0,0,0-.87.8,2.06,2.06,0,0,0-.32,1.12v4.34a.63.63,0,0,1-.17.46.6.6,0,0,1-.47.2.59.59,0,0,1-.45-.2.6.6,0,0,1-.19-.46v-4.38a3.44,3.44,0,0,0-.16-1.1,1.63,1.63,0,0,0-.57-.78,1.83,1.83,0,0,0-1.11-.3,2.31,2.31,0,0,0-1.16.3,2.21,2.21,0,0,0-.85.78,1.92,1.92,0,0,0-.32,1.1v4.38a.6.6,0,0,1-.19.46.59.59,0,0,1-.45.2.61.61,0,0,1-.46-.2.63.63,0,0,1-.18-.46v-7a.61.61,0,0,1,.18-.45.6.6,0,0,1,.46-.19.59.59,0,0,1,.46.19.61.61,0,0,1,.18.45v1.22l-.35.38a2.26,2.26,0,0,1,.32-.83,3.76,3.76,0,0,1,.68-.77,3.66,3.66,0,0,1,.93-.56A3.06,3.06,0,0,1,197.27,218.82Z"/><path class="cls-1" d="M216.15,223.06a4.5,4.5,0,0,1-.54,2.22,4.21,4.21,0,0,1-1.48,1.54,4.27,4.27,0,0,1-4.23,0,4.23,4.23,0,0,1-1.49-1.54,4.78,4.78,0,0,1,0-4.45,4.13,4.13,0,0,1,1.49-1.53,4.27,4.27,0,0,1,4.23,0,4.1,4.1,0,0,1,1.48,1.53A4.52,4.52,0,0,1,216.15,223.06Zm-1.28,0a3.45,3.45,0,0,0-.38-1.64,2.85,2.85,0,0,0-1-1.1,2.86,2.86,0,0,0-2.92,0,2.8,2.8,0,0,0-1,1.1,3.45,3.45,0,0,0-.38,1.64,3.39,3.39,0,0,0,.38,1.61,2.83,2.83,0,0,0,1,1.11,2.8,2.8,0,0,0,2.92,0,2.88,2.88,0,0,0,1-1.11A3.39,3.39,0,0,0,214.87,223.06Z"/><path class="cls-1" d="M219.05,227.22a.6.6,0,0,1-.46-.2.63.63,0,0,1-.18-.46v-7a.61.61,0,0,1,.18-.45.65.65,0,0,1,.92,0,.61.61,0,0,1,.18.45v2.12l-.2-.34a3.65,3.65,0,0,1,.35-1,3.24,3.24,0,0,1,.63-.85,3.09,3.09,0,0,1,.88-.59,2.75,2.75,0,0,1,1.09-.21,1.27,1.27,0,0,1,.64.16.53.53,0,0,1,.3.48.65.65,0,0,1-.17.49.58.58,0,0,1-.4.16.9.9,0,0,1-.4-.09,1.34,1.34,0,0,0-.48-.08,1.68,1.68,0,0,0-.8.21,2.59,2.59,0,0,0-.72.62,3.21,3.21,0,0,0-.52.9,2.8,2.8,0,0,0-.2,1.08v3.89a.64.64,0,0,1-.19.46A.59.59,0,0,1,219.05,227.22Z"/><path class="cls-1" d="M228.61,227.38a4.51,4.51,0,0,1-2.24-.55,3.79,3.79,0,0,1-1.48-1.49,4.4,4.4,0,0,1-.53-2.2,4.79,4.79,0,0,1,.55-2.38,3.84,3.84,0,0,1,1.43-1.5,3.59,3.59,0,0,1,1.87-.52,3.92,3.92,0,0,1,1.44.27,3.67,3.67,0,0,1,1.21.79,4,4,0,0,1,.86,1.25,4.18,4.18,0,0,1,.33,1.62.62.62,0,0,1-.2.43.64.64,0,0,1-.45.18h-6.32l-.29-1.1H231l-.26.22v-.35a2,2,0,0,0-.42-1.13,2.6,2.6,0,0,0-2.06-1,2.87,2.87,0,0,0-1,.16,2.44,2.44,0,0,0-.85.55,2.67,2.67,0,0,0-.6,1,4,4,0,0,0-.22,1.42,3.3,3.3,0,0,0,.38,1.63,2.85,2.85,0,0,0,1,1.11,2.89,2.89,0,0,0,1.56.41,3.24,3.24,0,0,0,1-.14,3.14,3.14,0,0,0,.71-.36,3.73,3.73,0,0,0,.5-.44.72.72,0,0,1,.42-.15.55.55,0,0,1,.54.55.61.61,0,0,1-.25.48,4.2,4.2,0,0,1-1.23.87A3.63,3.63,0,0,1,228.61,227.38Z"/><path class="cls-1" d="M238.77,219h3.76a.57.57,0,0,1,.43.18.57.57,0,0,1,.16.41.59.59,0,0,1-.16.43.6.6,0,0,1-.43.17h-3.76a.54.54,0,0,1-.41-.18.58.58,0,0,1-.18-.43.54.54,0,0,1,.18-.41A.57.57,0,0,1,238.77,219Zm1.68-2.17a.61.61,0,0,1,.45.18.62.62,0,0,1,.18.46v7.72a1.13,1.13,0,0,0,.11.58.51.51,0,0,0,.3.26.94.94,0,0,0,.36.08.57.57,0,0,0,.27-.06.68.68,0,0,1,.29-.06.38.38,0,0,1,.29.16.56.56,0,0,1,.14.39.58.58,0,0,1-.34.49,1.45,1.45,0,0,1-.75.2,4,4,0,0,1-.55,0,1.75,1.75,0,0,1-.65-.2,1.49,1.49,0,0,1-.54-.59,2.52,2.52,0,0,1-.21-1.14v-7.79A.59.59,0,0,1,240,217,.65.65,0,0,1,240.45,216.82Z"/><path class="cls-1" d="M245.89,217.74a.9.9,0,0,1-.59-.16.59.59,0,0,1-.19-.49v-.23a.57.57,0,0,1,.21-.49.92.92,0,0,1,.59-.16.87.87,0,0,1,.58.16.62.62,0,0,1,.19.49v.23a.59.59,0,0,1-.2.49A.92.92,0,0,1,245.89,217.74Zm.64,8.82a.63.63,0,0,1-.18.46.61.61,0,0,1-.46.2.6.6,0,0,1-.46-.2.63.63,0,0,1-.18-.46v-7.1a.59.59,0,0,1,.19-.46.61.61,0,0,1,.45-.18.63.63,0,0,1,.46.18.62.62,0,0,1,.18.46Z"/><path class="cls-1" d="M253.19,218.82a2.51,2.51,0,0,1,2.67,2.11h-.24l.11-.29a2.45,2.45,0,0,1,.66-.86,4.09,4.09,0,0,1,1.07-.69,3.11,3.11,0,0,1,1.26-.27,2.76,2.76,0,0,1,1.67.45,2.59,2.59,0,0,1,.87,1.22,5,5,0,0,1,.26,1.7v4.37a.63.63,0,0,1-.18.46.63.63,0,0,1-.92,0,.63.63,0,0,1-.18-.46v-4.34a3.29,3.29,0,0,0-.18-1.12,1.61,1.61,0,0,0-.59-.8,1.83,1.83,0,0,0-1.11-.3,2.43,2.43,0,0,0-1.2.3,2.24,2.24,0,0,0-.87.8,2.06,2.06,0,0,0-.32,1.12v4.34a.67.67,0,0,1-.17.46.62.62,0,0,1-.47.2.59.59,0,0,1-.45-.2.6.6,0,0,1-.19-.46v-4.38a3.18,3.18,0,0,0-.17-1.1,1.55,1.55,0,0,0-.56-.78,1.83,1.83,0,0,0-1.11-.3,2.37,2.37,0,0,0-1.17.3,2.25,2.25,0,0,0-.84.78,1.92,1.92,0,0,0-.32,1.1v4.38a.6.6,0,0,1-.19.46.59.59,0,0,1-.45.2.61.61,0,0,1-.46-.2.63.63,0,0,1-.18-.46v-7a.61.61,0,0,1,.18-.45.6.6,0,0,1,.46-.19.59.59,0,0,1,.46.19.61.61,0,0,1,.18.45v1.22l-.36.38a2.48,2.48,0,0,1,.33-.83,3.76,3.76,0,0,1,.68-.77,3.66,3.66,0,0,1,.93-.56A3,3,0,0,1,253.19,218.82Z"/><path class="cls-1" d="M268,227.38a4.48,4.48,0,0,1-2.24-.55,3.81,3.81,0,0,1-1.49-1.49,4.5,4.5,0,0,1-.53-2.2,4.79,4.79,0,0,1,.55-2.38,3.91,3.91,0,0,1,1.43-1.5,3.63,3.63,0,0,1,1.88-.52,3.83,3.83,0,0,1,1.43.27,3.57,3.57,0,0,1,1.21.79,3.82,3.82,0,0,1,.86,1.25,4.18,4.18,0,0,1,.34,1.62.59.59,0,0,1-.21.43.64.64,0,0,1-.45.18H264.5l-.29-1.1h6.16l-.25.22v-.35a2.05,2.05,0,0,0-.43-1.13,2.53,2.53,0,0,0-.92-.73,2.62,2.62,0,0,0-1.13-.25,2.83,2.83,0,0,0-.95.16,2.35,2.35,0,0,0-.85.55,2.67,2.67,0,0,0-.6,1A4,4,0,0,0,265,223a3.41,3.41,0,0,0,.38,1.63,2.86,2.86,0,0,0,2.6,1.52,3.24,3.24,0,0,0,1-.14,2.77,2.77,0,0,0,.71-.36,3.86,3.86,0,0,0,.51-.44.69.69,0,0,1,.41-.15.55.55,0,0,1,.55.55.62.62,0,0,1-.26.48,4.29,4.29,0,0,1-1.22.87A3.69,3.69,0,0,1,268,227.38Z"/></g><g class="cls-2"><path class="cls-1" d="M.59,239H4.35a.58.58,0,0,1,.43.18.57.57,0,0,1,.16.41.59.59,0,0,1-.16.43.61.61,0,0,1-.43.17H.59A.54.54,0,0,1,.18,240a.58.58,0,0,1-.18-.43.54.54,0,0,1,.18-.41A.57.57,0,0,1,.59,239Zm1.68-2.17a.61.61,0,0,1,.45.18.62.62,0,0,1,.18.46v7.72a1.13,1.13,0,0,0,.11.58.52.52,0,0,0,.29.26,1,1,0,0,0,.36.08.61.61,0,0,0,.28-.06.64.64,0,0,1,.28-.06.38.38,0,0,1,.3.16.56.56,0,0,1,.14.39.6.6,0,0,1-.34.49,1.45,1.45,0,0,1-.75.2,3.94,3.94,0,0,1-.55,0,1.75,1.75,0,0,1-.65-.2,1.42,1.42,0,0,1-.54-.59,2.52,2.52,0,0,1-.21-1.14v-7.79a.59.59,0,0,1,.19-.46A.65.65,0,0,1,2.27,236.82Z"/><path class="cls-1" d="M14.82,243.06a4.51,4.51,0,0,1-.55,2.22,4.16,4.16,0,0,1-5.7,1.54,4.16,4.16,0,0,1-1.49-1.54,4.78,4.78,0,0,1,0-4.45,4.06,4.06,0,0,1,1.49-1.53,3.93,3.93,0,0,1,2.1-.56,4,4,0,0,1,3.6,2.09A4.52,4.52,0,0,1,14.82,243.06Zm-1.28,0a3.45,3.45,0,0,0-.38-1.64,2.85,2.85,0,0,0-1-1.1,2.73,2.73,0,0,0-1.47-.4,2.68,2.68,0,0,0-1.45.4,2.82,2.82,0,0,0-1,1.1,3.45,3.45,0,0,0-.37,1.64,3.38,3.38,0,0,0,.37,1.61,2.85,2.85,0,0,0,1,1.11,2.61,2.61,0,0,0,1.45.41,2.65,2.65,0,0,0,1.47-.41,2.88,2.88,0,0,0,1-1.11A3.39,3.39,0,0,0,13.54,243.06Z"/><path class="cls-1" d="M22.46,237.74a.9.9,0,0,1-.59-.16.59.59,0,0,1-.19-.49v-.23a.57.57,0,0,1,.21-.49.92.92,0,0,1,.59-.16.87.87,0,0,1,.58.16.62.62,0,0,1,.19.49v.23a.59.59,0,0,1-.2.49A.92.92,0,0,1,22.46,237.74Zm.64,8.82a.63.63,0,0,1-.18.46.63.63,0,0,1-.92,0,.63.63,0,0,1-.18-.46v-7.1A.63.63,0,0,1,22,239a.61.61,0,0,1,.45-.18.62.62,0,0,1,.64.64Z"/><path class="cls-1" d="M29.92,238.74a2.92,2.92,0,0,1,1.71.44,2.44,2.44,0,0,1,.89,1.2,5,5,0,0,1,.26,1.68v4.5a.63.63,0,0,1-.18.46.61.61,0,0,1-.46.2.59.59,0,0,1-.45-.2.6.6,0,0,1-.19-.46V242.1a3.17,3.17,0,0,0-.18-1.1,1.58,1.58,0,0,0-.61-.78,2,2,0,0,0-1.16-.3,2.54,2.54,0,0,0-1.23.3,2.43,2.43,0,0,0-.9.78,1.92,1.92,0,0,0-.33,1.1v4.46a.6.6,0,0,1-.19.46.59.59,0,0,1-.45.2A.61.61,0,0,1,26,247a.63.63,0,0,1-.18-.46v-7a.61.61,0,0,1,.18-.45.6.6,0,0,1,.46-.19.59.59,0,0,1,.46.19.61.61,0,0,1,.18.45v1.14l-.32.35a2.07,2.07,0,0,1,.37-.84,3.49,3.49,0,0,1,1.68-1.29A2.94,2.94,0,0,1,29.92,238.74Z"/><path class="cls-1" d="M35.23,239H39a.58.58,0,0,1,.43.18.57.57,0,0,1,.16.41.59.59,0,0,1-.16.43.61.61,0,0,1-.43.17H35.23a.54.54,0,0,1-.41-.18.58.58,0,0,1-.18-.43.54.54,0,0,1,.18-.41A.57.57,0,0,1,35.23,239Zm1.68-2.17a.61.61,0,0,1,.45.18.62.62,0,0,1,.18.46v7.72a1.13,1.13,0,0,0,.11.58.52.52,0,0,0,.29.26,1,1,0,0,0,.36.08.61.61,0,0,0,.28-.06.64.64,0,0,1,.28-.06.38.38,0,0,1,.3.16.56.56,0,0,1,.14.39A.6.6,0,0,1,39,247a1.48,1.48,0,0,1-.75.2,3.94,3.94,0,0,1-.55,0A1.75,1.75,0,0,1,37,247a1.42,1.42,0,0,1-.54-.59,2.52,2.52,0,0,1-.21-1.14v-7.79a.59.59,0,0,1,.19-.46A.65.65,0,0,1,36.91,236.82Z"/><path class="cls-1" d="M45.42,247.38a4.51,4.51,0,0,1-2.24-.55,3.79,3.79,0,0,1-1.48-1.49,4.4,4.4,0,0,1-.53-2.2,4.79,4.79,0,0,1,.55-2.38,3.84,3.84,0,0,1,1.43-1.5,3.59,3.59,0,0,1,1.87-.52,3.92,3.92,0,0,1,1.44.27,3.67,3.67,0,0,1,1.21.79,4,4,0,0,1,.86,1.25,4.18,4.18,0,0,1,.33,1.62.62.62,0,0,1-.2.43.64.64,0,0,1-.45.18H41.89l-.29-1.1h6.16l-.26.22v-.35a2,2,0,0,0-.42-1.13,2.6,2.6,0,0,0-2.06-1,2.87,2.87,0,0,0-1,.16,2.44,2.44,0,0,0-.85.55,2.67,2.67,0,0,0-.6,1A4,4,0,0,0,42.4,243a3.3,3.3,0,0,0,.38,1.63,2.85,2.85,0,0,0,1,1.11,2.89,2.89,0,0,0,1.56.41,3.24,3.24,0,0,0,1-.14,3,3,0,0,0,.71-.36,3.73,3.73,0,0,0,.5-.44.72.72,0,0,1,.42-.15.55.55,0,0,1,.54.55.61.61,0,0,1-.25.48,4.2,4.2,0,0,1-1.23.87A3.63,3.63,0,0,1,45.42,247.38Z"/><path class="cls-1" d="M51.74,247.22a.59.59,0,0,1-.45-.2.6.6,0,0,1-.19-.46v-7a.65.65,0,0,1,.64-.64.6.6,0,0,1,.47.19.64.64,0,0,1,.17.45v2.12l-.19-.34a3.65,3.65,0,0,1,.35-1,3.24,3.24,0,0,1,.63-.85,3,3,0,0,1,.88-.59,2.75,2.75,0,0,1,1.09-.21,1.27,1.27,0,0,1,.64.16.53.53,0,0,1,.3.48.61.61,0,0,1-.18.49.55.55,0,0,1-.4.16.93.93,0,0,1-.4-.09,1.26,1.26,0,0,0-.48-.08,1.67,1.67,0,0,0-.79.21,2.59,2.59,0,0,0-.72.62,3.5,3.5,0,0,0-.53.9,3,3,0,0,0-.2,1.08v3.89a.63.63,0,0,1-.18.46A.61.61,0,0,1,51.74,247.22Z"/><path class="cls-1" d="M64.46,238.86a.63.63,0,0,1,.47.19.64.64,0,0,1,.17.45v7.06a.63.63,0,0,1-.18.46.61.61,0,0,1-.46.2A.59.59,0,0,1,64,247a.6.6,0,0,1-.19-.46V245l.31,0a1.59,1.59,0,0,1-.24.77,3.11,3.11,0,0,1-.66.77,3.5,3.5,0,0,1-1,.59,3.09,3.09,0,0,1-1.22.24,3.49,3.49,0,0,1-2-.57,3.9,3.9,0,0,1-1.37-1.55,4.83,4.83,0,0,1-.49-2.22,4.7,4.7,0,0,1,.5-2.23,3.94,3.94,0,0,1,1.36-1.52,3.46,3.46,0,0,1,1.93-.55,3.59,3.59,0,0,1,1.28.22,3.31,3.31,0,0,1,1,.61,2.87,2.87,0,0,1,.68.85,2,2,0,0,1,.24.92l-.42-.09V239.5a.58.58,0,0,1,.19-.45A.62.62,0,0,1,64.46,238.86Zm-3.29,7.33a2.51,2.51,0,0,0,1.41-.41,2.89,2.89,0,0,0,1-1.13A3.53,3.53,0,0,0,63.9,243a3.44,3.44,0,0,0-.35-1.59,2.73,2.73,0,0,0-1-1.12,2.51,2.51,0,0,0-1.41-.41,2.47,2.47,0,0,0-1.4.4,2.73,2.73,0,0,0-1,1.1,3.9,3.9,0,0,0,0,3.23,2.89,2.89,0,0,0,1,1.13A2.48,2.48,0,0,0,61.17,246.19Z"/><path class="cls-1" d="M71.47,238.74a5.5,5.5,0,0,1,1.47.17,2.88,2.88,0,0,1,1,.48.86.86,0,0,1,.39.69.69.69,0,0,1-.14.4.44.44,0,0,1-.39.19.59.59,0,0,1-.34-.08.86.86,0,0,1-.26-.21,1.05,1.05,0,0,0-.33-.22,1.75,1.75,0,0,0-.56-.18,4.56,4.56,0,0,0-.75-.06,2.85,2.85,0,0,0-1.54.42,2.88,2.88,0,0,0-1,1.12,3.24,3.24,0,0,0-.38,1.6,3.37,3.37,0,0,0,.37,1.6,2.89,2.89,0,0,0,1,1.12,2.86,2.86,0,0,0,1.52.41,3.53,3.53,0,0,0,.89-.09,3.07,3.07,0,0,0,.57-.23,1.65,1.65,0,0,0,.42-.32.58.58,0,0,1,.43-.16.48.48,0,0,1,.41.18.64.64,0,0,1,.15.43.9.9,0,0,1-.4.61,3.62,3.62,0,0,1-1.08.54,4.91,4.91,0,0,1-1.53.23,3.85,3.85,0,0,1-3.55-2.12,4.84,4.84,0,0,1-.5-2.2,4.58,4.58,0,0,1,.52-2.2,4.08,4.08,0,0,1,1.45-1.55A4,4,0,0,1,71.47,238.74Z"/><path class="cls-1" d="M76.17,239h3.77a.54.54,0,0,1,.42.18.58.58,0,0,1,.17.41.6.6,0,0,1-.17.43.57.57,0,0,1-.42.17H76.17a.57.57,0,0,1-.41-.18.58.58,0,0,1-.18-.43.54.54,0,0,1,.18-.41A.6.6,0,0,1,76.17,239Zm1.68-2.17a.58.58,0,0,1,.45.18.62.62,0,0,1,.18.46v7.72a1.24,1.24,0,0,0,.11.58.54.54,0,0,0,.3.26.94.94,0,0,0,.36.08.64.64,0,0,0,.28-.06.61.61,0,0,1,.28-.06.38.38,0,0,1,.29.16.56.56,0,0,1,.14.39.58.58,0,0,1-.34.49,1.45,1.45,0,0,1-.75.2,4,4,0,0,1-.55,0A1.75,1.75,0,0,1,78,247a1.4,1.4,0,0,1-.53-.59,2.38,2.38,0,0,1-.22-1.14v-7.79a.59.59,0,0,1,.19-.46A.65.65,0,0,1,77.85,236.82Z"/><path class="cls-1" d="M97.26,238.8a.6.6,0,0,1,.44.18.58.58,0,0,1,.19.46s0,.09,0,.14a.65.65,0,0,1,0,.13l-2.46,7.09a.71.71,0,0,1-.27.32.67.67,0,0,1-.39.1.63.63,0,0,1-.56-.42l-2-5.06.32,0-1.82,5a.62.62,0,0,1-.56.42.72.72,0,0,1-.4-.1.59.59,0,0,1-.26-.32l-2.51-7.09a.86.86,0,0,1,0-.27A.64.64,0,0,1,87,239a.69.69,0,0,1,.83-.09.46.46,0,0,1,.22.3l2.16,6.3h-.33l1.87-4.8a.58.58,0,0,1,.59-.4.57.57,0,0,1,.36.1.59.59,0,0,1,.2.3l2,4.8-.41,0,2.16-6.32A.58.58,0,0,1,97.26,238.8Z"/><path class="cls-1" d="M100.61,237.74a.87.87,0,0,1-.59-.16.59.59,0,0,1-.2-.49v-.23a.57.57,0,0,1,.21-.49.94.94,0,0,1,.59-.16.87.87,0,0,1,.58.16.59.59,0,0,1,.19.49v.23a.59.59,0,0,1-.2.49A.89.89,0,0,1,100.61,237.74Zm.64,8.82a.6.6,0,0,1-.19.46.59.59,0,0,1-.45.2.62.62,0,0,1-.47-.2.67.67,0,0,1-.17-.46v-7.1a.62.62,0,0,1,.18-.46.63.63,0,0,1,.46-.18.61.61,0,0,1,.45.18.59.59,0,0,1,.19.46Z"/><path class="cls-1" d="M103.63,239h3.76a.6.6,0,0,1,.59.59.56.56,0,0,1-.17.43.57.57,0,0,1-.42.17h-3.76a.58.58,0,0,1-.42-.18.61.61,0,0,1-.17-.43.57.57,0,0,1,.17-.41A.61.61,0,0,1,103.63,239Zm1.68-2.17a.6.6,0,0,1,.62.64v7.72a1.12,1.12,0,0,0,.12.58.52.52,0,0,0,.29.26,1,1,0,0,0,.36.08A.61.61,0,0,0,107,246a.64.64,0,0,1,.28-.06.38.38,0,0,1,.3.16.56.56,0,0,1,.13.39.59.59,0,0,1-.33.49,1.5,1.5,0,0,1-.75.2,4.18,4.18,0,0,1-.56,0,1.76,1.76,0,0,1-.64-.2,1.36,1.36,0,0,1-.54-.59,2.51,2.51,0,0,1-.22-1.14v-7.79a.6.6,0,0,1,.2-.46A.63.63,0,0,1,105.31,236.82Z"/><path class="cls-1" d="M114.16,238.82a2.78,2.78,0,0,1,1.67.45,2.54,2.54,0,0,1,.88,1.22,5,5,0,0,1,.26,1.69v4.38a.63.63,0,0,1-.18.46.6.6,0,0,1-.46.2.59.59,0,0,1-.45-.2.64.64,0,0,1-.19-.46v-4.38a3.18,3.18,0,0,0-.17-1.1,1.54,1.54,0,0,0-.59-.78,1.83,1.83,0,0,0-1.11-.3,2.48,2.48,0,0,0-1.2.3,2.24,2.24,0,0,0-.86.78,1.92,1.92,0,0,0-.32,1.1v4.38a.6.6,0,0,1-.19.46.59.59,0,0,1-.45.2.65.65,0,0,1-.64-.66V236a.62.62,0,0,1,.18-.46.65.65,0,0,1,.46-.18.6.6,0,0,1,.46.18.62.62,0,0,1,.18.46v4.78l-.32.35a2.32,2.32,0,0,1,.35-.84,3.28,3.28,0,0,1,.69-.76,3.56,3.56,0,0,1,.93-.53A2.79,2.79,0,0,1,114.16,238.82Z"/><path class="cls-1" d="M124.08,245.9a.64.64,0,0,1-.13-.44.53.53,0,0,1,.27-.4.55.55,0,0,1,.38-.1.59.59,0,0,1,.39.21,3.69,3.69,0,0,0,1,.84,2.92,2.92,0,0,0,2.18.18,1.36,1.36,0,0,0,.65-.39,1.06,1.06,0,0,0,.26-.74,1,1,0,0,0-.27-.72,2.19,2.19,0,0,0-.7-.43,7.6,7.6,0,0,0-.95-.29c-.35-.1-.7-.21-1-.33a3.79,3.79,0,0,1-.92-.47,2.07,2.07,0,0,1-.65-.7,2,2,0,0,1-.25-1,2,2,0,0,1,.39-1.25,2.59,2.59,0,0,1,1.06-.82,3.59,3.59,0,0,1,1.44-.28,4.49,4.49,0,0,1,.94.1,3.76,3.76,0,0,1,.95.35,2.78,2.78,0,0,1,.82.68.68.68,0,0,1,.16.4.5.5,0,0,1-.21.43.57.57,0,0,1-.39.12.55.55,0,0,1-.36-.16,2.25,2.25,0,0,0-.84-.62,2.89,2.89,0,0,0-1.11-.22,2.46,2.46,0,0,0-.76.12,1.36,1.36,0,0,0-.61.37,1,1,0,0,0-.25.73,1,1,0,0,0,.29.7,1.88,1.88,0,0,0,.73.44,10.43,10.43,0,0,0,1,.33c.34.09.67.19,1,.3a3.49,3.49,0,0,1,.86.44,2,2,0,0,1,.61.69,2.29,2.29,0,0,1,.22,1.07,2,2,0,0,1-.42,1.27,2.59,2.59,0,0,1-1.09.82,4,4,0,0,1-1.47.28,4.8,4.8,0,0,1-1.73-.34A3.38,3.38,0,0,1,124.08,245.9Z"/><path class="cls-1" d="M132.21,239H136a.54.54,0,0,1,.42.18.58.58,0,0,1,.17.41.6.6,0,0,1-.17.43.57.57,0,0,1-.42.17h-3.76a.58.58,0,0,1-.42-.18.58.58,0,0,1-.18-.43.54.54,0,0,1,.18-.41A.61.61,0,0,1,132.21,239Zm1.68-2.17a.57.57,0,0,1,.44.18.62.62,0,0,1,.18.46v7.72a1.24,1.24,0,0,0,.11.58.57.57,0,0,0,.3.26.94.94,0,0,0,.36.08.64.64,0,0,0,.28-.06.61.61,0,0,1,.28-.06.38.38,0,0,1,.29.16.56.56,0,0,1,.14.39.58.58,0,0,1-.34.49,1.45,1.45,0,0,1-.75.2,4,4,0,0,1-.55,0,1.81,1.81,0,0,1-.65-.2,1.4,1.4,0,0,1-.53-.59,2.38,2.38,0,0,1-.22-1.14v-7.79a.59.59,0,0,1,.19-.46A.66.66,0,0,1,133.89,236.82Z"/><path class="cls-1" d="M144.93,238.94a.59.59,0,0,1,.46.19.61.61,0,0,1,.18.45V244a3.39,3.39,0,0,1-.91,2.51,4,4,0,0,1-5,0,3.39,3.39,0,0,1-.91-2.51v-4.37a.62.62,0,0,1,.19-.45.58.58,0,0,1,.45-.19.6.6,0,0,1,.47.19.6.6,0,0,1,.17.45V244a2.24,2.24,0,0,0,.56,1.65,2.15,2.15,0,0,0,1.57.56,2.12,2.12,0,0,0,1.59-.56,2.24,2.24,0,0,0,.56-1.65v-4.37a.61.61,0,0,1,.18-.45A.59.59,0,0,1,144.93,238.94Z"/><path class="cls-1" d="M155.07,235.38a.6.6,0,0,1,.46.18.62.62,0,0,1,.18.46v10.54a.64.64,0,1,1-1.28,0V245l.3-.11a1.67,1.67,0,0,1-.23.81,2.94,2.94,0,0,1-.65.79,3.93,3.93,0,0,1-1,.61,3,3,0,0,1-1.21.24,3.56,3.56,0,0,1-2-.56,4,4,0,0,1-1.36-1.54,5.13,5.13,0,0,1,0-4.46,3.89,3.89,0,0,1,1.36-1.53,3.54,3.54,0,0,1,4.21.28,2.94,2.94,0,0,1,.7.85,2,2,0,0,1,.25.92l-.42-.09V236a.62.62,0,0,1,.18-.46A.65.65,0,0,1,155.07,235.38Zm-3.3,10.81a2.45,2.45,0,0,0,1.43-.41,2.86,2.86,0,0,0,1-1.12,3.88,3.88,0,0,0,0-3.22,2.84,2.84,0,0,0-1-1.11,2.63,2.63,0,0,0-2.82,0,2.74,2.74,0,0,0-1,1.11,3.76,3.76,0,0,0,0,3.21,2.86,2.86,0,0,0,1,1.13A2.5,2.5,0,0,0,151.77,246.19Z"/><path class="cls-1" d="M162.22,247.38a4.51,4.51,0,0,1-2.24-.55,3.88,3.88,0,0,1-1.49-1.49,4.5,4.5,0,0,1-.52-2.2,4.79,4.79,0,0,1,.55-2.38,3.84,3.84,0,0,1,1.43-1.5,3.59,3.59,0,0,1,1.87-.52,3.83,3.83,0,0,1,1.43.27,3.61,3.61,0,0,1,1.22.79,4,4,0,0,1,.86,1.25,4.18,4.18,0,0,1,.33,1.62.59.59,0,0,1-.21.43.6.6,0,0,1-.44.18h-6.32l-.29-1.1h6.16l-.26.22v-.35a2,2,0,0,0-.42-1.13,2.6,2.6,0,0,0-2.06-1,2.83,2.83,0,0,0-.95.16,2.44,2.44,0,0,0-.85.55,2.67,2.67,0,0,0-.6,1,4,4,0,0,0-.22,1.42,3.41,3.41,0,0,0,.37,1.63,2.81,2.81,0,0,0,1.05,1.11,2.87,2.87,0,0,0,1.55.41,3.26,3.26,0,0,0,1-.14,3.14,3.14,0,0,0,.71-.36,3.73,3.73,0,0,0,.5-.44.72.72,0,0,1,.42-.15.55.55,0,0,1,.54.55.61.61,0,0,1-.25.48,4.2,4.2,0,0,1-1.23.87A3.66,3.66,0,0,1,162.22,247.38Z"/><path class="cls-1" d="M172,238.74a3,3,0,0,1,1.72.44,2.43,2.43,0,0,1,.88,1.2,5,5,0,0,1,.27,1.68v4.5a.6.6,0,0,1-.19.46.59.59,0,0,1-.45.2.61.61,0,0,1-.46-.2.63.63,0,0,1-.18-.46V242.1a3,3,0,0,0-.19-1.1,1.56,1.56,0,0,0-.6-.78,2,2,0,0,0-1.16-.3,2.61,2.61,0,0,0-1.24.3,2.32,2.32,0,0,0-.89.78,1.86,1.86,0,0,0-.34,1.1v4.46a.63.63,0,0,1-.18.46.61.61,0,0,1-.46.2.59.59,0,0,1-.45-.2.6.6,0,0,1-.19-.46v-7a.65.65,0,0,1,.64-.64.61.61,0,0,1,.47.19.64.64,0,0,1,.17.45v1.14l-.32.35a2.38,2.38,0,0,1,.37-.84,3.43,3.43,0,0,1,.72-.76,3.74,3.74,0,0,1,1-.53A2.94,2.94,0,0,1,172,238.74Z"/><path class="cls-1" d="M177.33,239h3.76a.54.54,0,0,1,.42.18.58.58,0,0,1,.17.41.6.6,0,0,1-.17.43.57.57,0,0,1-.42.17h-3.76a.58.58,0,0,1-.42-.18.58.58,0,0,1-.18-.43.54.54,0,0,1,.18-.41A.61.61,0,0,1,177.33,239Zm1.68-2.17a.57.57,0,0,1,.44.18.62.62,0,0,1,.18.46v7.72a1.24,1.24,0,0,0,.11.58.57.57,0,0,0,.3.26.94.94,0,0,0,.36.08.64.64,0,0,0,.28-.06A.61.61,0,0,1,181,246a.38.38,0,0,1,.29.16.56.56,0,0,1,.14.39.58.58,0,0,1-.34.49,1.45,1.45,0,0,1-.75.2,4,4,0,0,1-.55,0,1.75,1.75,0,0,1-.65-.2,1.4,1.4,0,0,1-.53-.59,2.38,2.38,0,0,1-.22-1.14v-7.79a.59.59,0,0,1,.19-.46A.66.66,0,0,1,179,236.82Z"/><path class="cls-1" d="M183.71,245.9a.64.64,0,0,1-.13-.44.53.53,0,0,1,.27-.4.56.56,0,0,1,.38-.1.59.59,0,0,1,.39.21,3.59,3.59,0,0,0,1,.84,2.9,2.9,0,0,0,2.17.18,1.36,1.36,0,0,0,.65-.39,1,1,0,0,0,.26-.74,1,1,0,0,0-.27-.72,2.08,2.08,0,0,0-.7-.43,7.6,7.6,0,0,0-.95-.29c-.35-.1-.69-.21-1-.33a4,4,0,0,1-.92-.47,2.07,2.07,0,0,1-.65-.7,2,2,0,0,1-.25-1,2,2,0,0,1,.39-1.25,2.66,2.66,0,0,1,1.06-.82,3.61,3.61,0,0,1,1.45-.28,4.4,4.4,0,0,1,.93.1,3.76,3.76,0,0,1,.95.35,2.78,2.78,0,0,1,.82.68.62.62,0,0,1,.16.4.5.5,0,0,1-.21.43.57.57,0,0,1-.39.12.6.6,0,0,1-.36-.16,2.1,2.1,0,0,0-.84-.62,2.89,2.89,0,0,0-1.11-.22,2.36,2.36,0,0,0-.75.12,1.39,1.39,0,0,0-.62.37,1,1,0,0,0-.25.73,1,1,0,0,0,.29.7,1.85,1.85,0,0,0,.74.44,10.21,10.21,0,0,0,1,.33c.34.09.67.19,1,.3a3.49,3.49,0,0,1,.86.44,1.93,1.93,0,0,1,.61.69,2.29,2.29,0,0,1,.22,1.07,2.05,2.05,0,0,1-.41,1.27,2.68,2.68,0,0,1-1.1.82,3.91,3.91,0,0,1-1.46.28,4.81,4.81,0,0,1-1.74-.34A3.43,3.43,0,0,1,183.71,245.9Z"/><path class="cls-1" d="M203.69,238.86a.63.63,0,0,1,.47.19.64.64,0,0,1,.17.45v7.06a.63.63,0,0,1-.18.46.61.61,0,0,1-.46.2.59.59,0,0,1-.45-.2.6.6,0,0,1-.19-.46V245l.31,0a1.59,1.59,0,0,1-.24.77,3.11,3.11,0,0,1-.66.77,3.5,3.5,0,0,1-1,.59,3.09,3.09,0,0,1-1.22.24,3.49,3.49,0,0,1-2-.57,3.9,3.9,0,0,1-1.37-1.55,4.83,4.83,0,0,1-.49-2.22,4.7,4.7,0,0,1,.5-2.23,3.94,3.94,0,0,1,1.36-1.52,3.46,3.46,0,0,1,1.93-.55,3.59,3.59,0,0,1,1.28.22,3.31,3.31,0,0,1,1,.61,2.87,2.87,0,0,1,.68.85,2,2,0,0,1,.24.92l-.42-.09V239.5a.58.58,0,0,1,.19-.45A.62.62,0,0,1,203.69,238.86Zm-3.29,7.33a2.51,2.51,0,0,0,1.41-.41,2.89,2.89,0,0,0,1-1.13,3.53,3.53,0,0,0,.35-1.61,3.44,3.44,0,0,0-.35-1.59,2.73,2.73,0,0,0-1-1.12,2.51,2.51,0,0,0-1.41-.41,2.47,2.47,0,0,0-1.4.4,2.73,2.73,0,0,0-1,1.1,3.9,3.9,0,0,0,0,3.23,2.89,2.89,0,0,0,1,1.13A2.48,2.48,0,0,0,200.4,246.19Z"/><path class="cls-1" d="M211.21,238.74a3,3,0,0,1,1.72.44,2.43,2.43,0,0,1,.88,1.2,5,5,0,0,1,.27,1.68v4.5a.6.6,0,0,1-.19.46.59.59,0,0,1-.45.2.61.61,0,0,1-.46-.2.63.63,0,0,1-.18-.46V242.1a3,3,0,0,0-.19-1.1,1.56,1.56,0,0,0-.6-.78,2,2,0,0,0-1.16-.3,2.61,2.61,0,0,0-1.24.3,2.32,2.32,0,0,0-.89.78,1.86,1.86,0,0,0-.34,1.1v4.46a.65.65,0,0,1-.64.66.59.59,0,0,1-.45-.2.6.6,0,0,1-.19-.46v-7a.65.65,0,0,1,.64-.64.61.61,0,0,1,.47.19.64.64,0,0,1,.17.45v1.14l-.32.35a2.21,2.21,0,0,1,.37-.84,3.43,3.43,0,0,1,.72-.76,3.74,3.74,0,0,1,1-.53A2.94,2.94,0,0,1,211.21,238.74Z"/><path class="cls-1" d="M223.58,235.38a.64.64,0,0,1,.47.18.65.65,0,0,1,.17.46v10.54a.63.63,0,0,1-.18.46.61.61,0,0,1-.46.2.59.59,0,0,1-.45-.2.6.6,0,0,1-.19-.46V245l.31-.11a1.69,1.69,0,0,1-.24.81,2.94,2.94,0,0,1-.65.79,3.93,3.93,0,0,1-1,.61,3,3,0,0,1-1.21.24,3.51,3.51,0,0,1-1.95-.56,3.93,3.93,0,0,1-1.37-1.54,5.13,5.13,0,0,1,0-4.46,3.89,3.89,0,0,1,1.36-1.53,3.54,3.54,0,0,1,4.21.28,2.94,2.94,0,0,1,.7.85,2,2,0,0,1,.25.92l-.42-.09V236a.59.59,0,0,1,.19-.46A.61.61,0,0,1,223.58,235.38Zm-3.29,10.81a2.44,2.44,0,0,0,1.42-.41,2.78,2.78,0,0,0,1-1.12,3.88,3.88,0,0,0,0-3.22,2.76,2.76,0,0,0-1-1.11,2.51,2.51,0,0,0-1.41-.41,2.48,2.48,0,0,0-1.4.41,2.76,2.76,0,0,0-1,1.11,3.85,3.85,0,0,0,0,3.21,2.89,2.89,0,0,0,1,1.13A2.48,2.48,0,0,0,220.29,246.19Z"/><path class="cls-1" d="M235.79,238.82a2.78,2.78,0,0,1,1.67.45,2.48,2.48,0,0,1,.88,1.22,5,5,0,0,1,.26,1.69v4.38a.63.63,0,0,1-.18.46.6.6,0,0,1-.46.2.59.59,0,0,1-.45-.2.63.63,0,0,1-.18-.46v-4.38a3.17,3.17,0,0,0-.18-1.1,1.54,1.54,0,0,0-.59-.78,1.83,1.83,0,0,0-1.11-.3,2.48,2.48,0,0,0-1.2.3,2.24,2.24,0,0,0-.86.78,2,2,0,0,0-.32,1.1v4.38a.6.6,0,0,1-.19.46.59.59,0,0,1-.45.2.65.65,0,0,1-.64-.66V236a.62.62,0,0,1,.18-.46.65.65,0,0,1,.46-.18.6.6,0,0,1,.46.18.62.62,0,0,1,.18.46v4.78l-.32.35a2.32,2.32,0,0,1,.35-.84,3.28,3.28,0,0,1,.69-.76,3.56,3.56,0,0,1,.93-.53A2.79,2.79,0,0,1,235.79,238.82Z"/><path class="cls-1" d="M245.12,247.38a4.48,4.48,0,0,1-2.24-.55,3.81,3.81,0,0,1-1.49-1.49,4.5,4.5,0,0,1-.53-2.2,4.79,4.79,0,0,1,.55-2.38,3.91,3.91,0,0,1,1.43-1.5,3.63,3.63,0,0,1,1.88-.52,3.83,3.83,0,0,1,1.43.27,3.57,3.57,0,0,1,1.21.79,3.82,3.82,0,0,1,.86,1.25,4.18,4.18,0,0,1,.34,1.62.59.59,0,0,1-.21.43.64.64,0,0,1-.45.18h-6.32l-.29-1.1h6.16l-.25.22v-.35a2,2,0,0,0-.43-1.13,2.53,2.53,0,0,0-.92-.73,2.62,2.62,0,0,0-1.13-.25,2.83,2.83,0,0,0-.95.16,2.35,2.35,0,0,0-.85.55,2.67,2.67,0,0,0-.6,1,4,4,0,0,0-.23,1.42,3.41,3.41,0,0,0,.38,1.63,2.86,2.86,0,0,0,2.6,1.52,3.24,3.24,0,0,0,1-.14,2.77,2.77,0,0,0,.71-.36,3.86,3.86,0,0,0,.51-.44.69.69,0,0,1,.41-.15.55.55,0,0,1,.55.55.62.62,0,0,1-.26.48,4.29,4.29,0,0,1-1.22.87A3.69,3.69,0,0,1,245.12,247.38Z"/><path class="cls-1" d="M252.2,246.56a.6.6,0,0,1-.19.46.63.63,0,0,1-.46.2.59.59,0,0,1-.45-.2.63.63,0,0,1-.18-.46V236a.63.63,0,0,1,.19-.46.61.61,0,0,1,.45-.18.63.63,0,0,1,.47.18.61.61,0,0,1,.17.46Z"/><path class="cls-1" d="M259.17,238.82a3.62,3.62,0,0,1,1.95.54,3.8,3.8,0,0,1,1.36,1.5,5,5,0,0,1,0,4.41,3.79,3.79,0,0,1-1.36,1.52,3.61,3.61,0,0,1-3,.37,3.79,3.79,0,0,1-.94-.48,3.25,3.25,0,0,1-.71-.67,2.83,2.83,0,0,1-.42-.75l.35-.22v4.72a.63.63,0,0,1-.17.46.6.6,0,0,1-.46.2.63.63,0,0,1-.46-.19.65.65,0,0,1-.19-.47V239.54a.63.63,0,0,1,.19-.46.68.68,0,0,1,.92,0,.61.61,0,0,1,.17.46V241l-.24-.13a2.47,2.47,0,0,1,.4-.77,2.66,2.66,0,0,1,.69-.64,3.07,3.07,0,0,1,.91-.44A3.3,3.3,0,0,1,259.17,238.82ZM259,240a2.56,2.56,0,0,0-1.42.4,2.65,2.65,0,0,0-1,1.09,3.47,3.47,0,0,0-.35,1.58,3.57,3.57,0,0,0,.35,1.59,2.68,2.68,0,0,0,1,1.1,2.56,2.56,0,0,0,1.42.4,2.5,2.5,0,0,0,1.41-.4,2.94,2.94,0,0,0,1-1.1,3.57,3.57,0,0,0,.35-1.59,3.47,3.47,0,0,0-.35-1.58,2.91,2.91,0,0,0-1-1.09A2.5,2.5,0,0,0,259,240Z"/><path class="cls-1" d="M264.77,245.9a.64.64,0,0,1-.13-.44.53.53,0,0,1,.27-.4.55.55,0,0,1,.38-.1.59.59,0,0,1,.39.21,3.69,3.69,0,0,0,1,.84,2.88,2.88,0,0,0,1.41.31,3,3,0,0,0,.77-.13,1.33,1.33,0,0,0,.64-.39,1,1,0,0,0,.27-.74,1,1,0,0,0-.27-.72,2.13,2.13,0,0,0-.71-.43,7.43,7.43,0,0,0-.94-.29c-.35-.1-.7-.21-1-.33a3.79,3.79,0,0,1-.92-.47,2.21,2.21,0,0,1-.66-.7,2.19,2.19,0,0,1,.15-2.28,2.62,2.62,0,0,1,1.05-.82,3.67,3.67,0,0,1,1.45-.28,4.49,4.49,0,0,1,.94.1,3.9,3.9,0,0,1,1,.35,2.63,2.63,0,0,1,.81.68.69.69,0,0,1,.17.4.5.5,0,0,1-.21.43.57.57,0,0,1-.39.12.6.6,0,0,1-.37-.16A2.1,2.1,0,0,0,269,240a2.82,2.82,0,0,0-1.11-.22,2.45,2.45,0,0,0-.75.12,1.45,1.45,0,0,0-.62.37,1.05,1.05,0,0,0-.24.73,1,1,0,0,0,.28.7,1.92,1.92,0,0,0,.74.44,9.64,9.64,0,0,0,1,.33c.34.09.66.19,1,.3a3.42,3.42,0,0,1,.85.44,1.93,1.93,0,0,1,.61.69A2.29,2.29,0,0,1,271,245a2,2,0,0,1-.42,1.27,2.62,2.62,0,0,1-1.1.82,3.91,3.91,0,0,1-1.46.28,4.76,4.76,0,0,1-1.73-.34A3.32,3.32,0,0,1,264.77,245.9Z"/></g><g class="cls-2"><path class="cls-1" d="M37.38,267.22a.6.6,0,0,1-.46-.2.63.63,0,0,1-.18-.46v-7a.61.61,0,0,1,.18-.45.65.65,0,0,1,.92,0,.61.61,0,0,1,.18.45v2.12l-.2-.34a3.65,3.65,0,0,1,.35-1,3.24,3.24,0,0,1,.63-.85,3.09,3.09,0,0,1,.88-.59,2.75,2.75,0,0,1,1.09-.21,1.33,1.33,0,0,1,.65.16.54.54,0,0,1,.29.48.65.65,0,0,1-.17.49.57.57,0,0,1-.4.16.9.9,0,0,1-.4-.09,1.34,1.34,0,0,0-.48-.08,1.71,1.71,0,0,0-.8.21,2.59,2.59,0,0,0-.72.62,3.21,3.21,0,0,0-.52.9,2.8,2.8,0,0,0-.2,1.08v3.89a.64.64,0,0,1-.19.46A.59.59,0,0,1,37.38,267.22Z"/><path class="cls-1" d="M46.94,267.38a4.51,4.51,0,0,1-2.24-.55,3.79,3.79,0,0,1-1.48-1.49,4.4,4.4,0,0,1-.53-2.2,4.79,4.79,0,0,1,.55-2.38,3.84,3.84,0,0,1,1.43-1.5,3.59,3.59,0,0,1,1.87-.52A3.92,3.92,0,0,1,48,259a3.67,3.67,0,0,1,1.21.79,4,4,0,0,1,.86,1.25,4.18,4.18,0,0,1,.33,1.62.62.62,0,0,1-.2.43.64.64,0,0,1-.45.18H43.41l-.29-1.1h6.16l-.26.22v-.35a2,2,0,0,0-.42-1.13,2.6,2.6,0,0,0-2.06-1,2.87,2.87,0,0,0-.95.16,2.44,2.44,0,0,0-.85.55,2.67,2.67,0,0,0-.6,1,4,4,0,0,0-.22,1.42,3.3,3.3,0,0,0,.38,1.63,2.85,2.85,0,0,0,1,1.11,2.89,2.89,0,0,0,1.56.41,3.24,3.24,0,0,0,1-.14,3,3,0,0,0,.71-.36,3.73,3.73,0,0,0,.5-.44.72.72,0,0,1,.42-.15.55.55,0,0,1,.54.55.61.61,0,0,1-.25.48,4.2,4.2,0,0,1-1.23.87A3.63,3.63,0,0,1,46.94,267.38Z"/><path class="cls-1" d="M59.36,255.38a.6.6,0,0,1,.46.18A.62.62,0,0,1,60,256v10.54a.64.64,0,1,1-1.28,0V265l.3-.11a1.67,1.67,0,0,1-.23.81,2.94,2.94,0,0,1-.65.79,3.93,3.93,0,0,1-1,.61,3,3,0,0,1-1.21.24,3.56,3.56,0,0,1-2-.56,4,4,0,0,1-1.36-1.54,5.13,5.13,0,0,1,0-4.46A3.89,3.89,0,0,1,54,259.29a3.54,3.54,0,0,1,4.21.28,2.94,2.94,0,0,1,.7.85,2,2,0,0,1,.25.92l-.42-.09V256a.62.62,0,0,1,.18-.46A.65.65,0,0,1,59.36,255.38Zm-3.3,10.81a2.45,2.45,0,0,0,1.43-.41,2.86,2.86,0,0,0,1-1.12,3.88,3.88,0,0,0,0-3.22,2.84,2.84,0,0,0-1-1.11,2.63,2.63,0,0,0-2.82,0,2.74,2.74,0,0,0-1,1.11,3.76,3.76,0,0,0,0,3.21,2.86,2.86,0,0,0,1,1.13A2.5,2.5,0,0,0,56.06,266.19Z"/><path class="cls-1" d="M69.22,258.94a.59.59,0,0,1,.46.19.61.61,0,0,1,.18.45V264a3.39,3.39,0,0,1-.91,2.51,4,4,0,0,1-5,0A3.35,3.35,0,0,1,63,264v-4.37a.65.65,0,0,1,.64-.64.6.6,0,0,1,.47.19.64.64,0,0,1,.17.45V264a2.24,2.24,0,0,0,.56,1.65,2.51,2.51,0,0,0,3.16,0,2.24,2.24,0,0,0,.56-1.65v-4.37a.61.61,0,0,1,.18-.45A.59.59,0,0,1,69.22,258.94Z"/><path class="cls-1" d="M76.22,258.74a5.63,5.63,0,0,1,1.48.17,3,3,0,0,1,1,.48.88.88,0,0,1,.38.69.69.69,0,0,1-.14.4.44.44,0,0,1-.39.19.59.59,0,0,1-.34-.08,1,1,0,0,1-.26-.21,1.05,1.05,0,0,0-.33-.22,1.66,1.66,0,0,0-.56-.18,4.56,4.56,0,0,0-.75-.06,2.88,2.88,0,0,0-2.58,1.54,3.6,3.6,0,0,0,0,3.2,3,3,0,0,0,1,1.12,2.86,2.86,0,0,0,1.52.41,3.48,3.48,0,0,0,.89-.09,3.07,3.07,0,0,0,.57-.23,1.65,1.65,0,0,0,.42-.32.6.6,0,0,1,.43-.16.48.48,0,0,1,.41.18.64.64,0,0,1,.15.43.9.9,0,0,1-.4.61,3.62,3.62,0,0,1-1.08.54,4.91,4.91,0,0,1-1.53.23,3.94,3.94,0,0,1-2.13-.57,3.84,3.84,0,0,1-1.41-1.55,4.72,4.72,0,0,1-.51-2.2,4.58,4.58,0,0,1,.52-2.2,4.08,4.08,0,0,1,1.45-1.55A4,4,0,0,1,76.22,258.74Z"/><path class="cls-1" d="M85,267.38a4.51,4.51,0,0,1-2.24-.55,3.88,3.88,0,0,1-1.49-1.49,4.5,4.5,0,0,1-.52-2.2,4.79,4.79,0,0,1,.55-2.38,3.84,3.84,0,0,1,1.43-1.5,3.59,3.59,0,0,1,1.87-.52A3.83,3.83,0,0,1,86,259a3.61,3.61,0,0,1,1.22.79,4,4,0,0,1,.86,1.25,4.18,4.18,0,0,1,.33,1.62.59.59,0,0,1-.21.43.6.6,0,0,1-.44.18H81.46l-.29-1.1h6.16l-.26.22v-.35a2,2,0,0,0-.42-1.13,2.62,2.62,0,0,0-.92-.73,2.66,2.66,0,0,0-1.14-.25,2.83,2.83,0,0,0-1,.16,2.35,2.35,0,0,0-.85.55,2.67,2.67,0,0,0-.6,1A4,4,0,0,0,82,263a3.41,3.41,0,0,0,.37,1.63,2.81,2.81,0,0,0,1,1.11,2.87,2.87,0,0,0,1.55.41,3.26,3.26,0,0,0,1-.14,3.14,3.14,0,0,0,.71-.36,4.47,4.47,0,0,0,.5-.44.72.72,0,0,1,.42-.15.55.55,0,0,1,.38.16.53.53,0,0,1,.16.39.61.61,0,0,1-.25.48,4.2,4.2,0,0,1-1.23.87A3.66,3.66,0,0,1,85,267.38Z"/><path class="cls-1" d="M95.15,259h3.76a.6.6,0,0,1,.59.59.56.56,0,0,1-.17.43.57.57,0,0,1-.42.17H95.15a.54.54,0,0,1-.41-.18.58.58,0,0,1-.18-.43.54.54,0,0,1,.18-.41A.57.57,0,0,1,95.15,259Zm1.68-2.17a.61.61,0,0,1,.45.18.62.62,0,0,1,.18.46v7.72a1.13,1.13,0,0,0,.11.58.52.52,0,0,0,.29.26,1,1,0,0,0,.36.08.61.61,0,0,0,.28-.06.64.64,0,0,1,.28-.06.38.38,0,0,1,.3.16.56.56,0,0,1,.14.39.6.6,0,0,1-.34.49,1.48,1.48,0,0,1-.75.2,3.94,3.94,0,0,1-.55,0,1.75,1.75,0,0,1-.65-.2,1.42,1.42,0,0,1-.54-.59,2.52,2.52,0,0,1-.21-1.14v-7.79a.59.59,0,0,1,.19-.46A.65.65,0,0,1,96.83,256.82Z"/><path class="cls-1" d="M105.68,258.82a2.78,2.78,0,0,1,1.67.45,2.48,2.48,0,0,1,.88,1.22,5,5,0,0,1,.27,1.69v4.38a.64.64,0,0,1-.19.46.6.6,0,0,1-.46.2.59.59,0,0,1-.45-.2.63.63,0,0,1-.18-.46v-4.38a3.17,3.17,0,0,0-.18-1.1,1.58,1.58,0,0,0-.58-.78,1.88,1.88,0,0,0-1.12-.3,2.48,2.48,0,0,0-1.2.3,2.24,2.24,0,0,0-.86.78,2,2,0,0,0-.32,1.1v4.38a.6.6,0,0,1-.19.46.59.59,0,0,1-.45.2.65.65,0,0,1-.64-.66V256a.62.62,0,0,1,.18-.46.65.65,0,0,1,.46-.18.6.6,0,0,1,.46.18.62.62,0,0,1,.18.46v4.78l-.32.35a2.32,2.32,0,0,1,.35-.84,3.28,3.28,0,0,1,.69-.76,3.56,3.56,0,0,1,.93-.53A2.79,2.79,0,0,1,105.68,258.82Z"/><path class="cls-1" d="M115,267.38a4.48,4.48,0,0,1-2.24-.55,3.81,3.81,0,0,1-1.49-1.49,4.5,4.5,0,0,1-.53-2.2,4.9,4.9,0,0,1,.55-2.38,3.91,3.91,0,0,1,1.43-1.5,3.63,3.63,0,0,1,1.88-.52A3.83,3.83,0,0,1,116,259a3.57,3.57,0,0,1,1.21.79,3.82,3.82,0,0,1,.86,1.25,4.18,4.18,0,0,1,.34,1.62.59.59,0,0,1-.21.43.64.64,0,0,1-.45.18h-6.32l-.29-1.1h6.16l-.25.22v-.35a2,2,0,0,0-.43-1.13,2.53,2.53,0,0,0-.92-.73,2.62,2.62,0,0,0-1.13-.25,2.83,2.83,0,0,0-1,.16,2.35,2.35,0,0,0-.85.55,2.67,2.67,0,0,0-.6,1A4,4,0,0,0,112,263a3.41,3.41,0,0,0,.38,1.63,2.86,2.86,0,0,0,2.6,1.52,3.24,3.24,0,0,0,1-.14,2.77,2.77,0,0,0,.71-.36,3.86,3.86,0,0,0,.51-.44.69.69,0,0,1,.41-.15.55.55,0,0,1,.55.55.62.62,0,0,1-.26.48,4.29,4.29,0,0,1-1.22.87A3.69,3.69,0,0,1,115,267.38Z"/><path class="cls-1" d="M121.28,257.74a.87.87,0,0,1-.59-.16.59.59,0,0,1-.19-.49v-.23a.56.56,0,0,1,.2-.49.94.94,0,0,1,.59-.16.87.87,0,0,1,.58.16.59.59,0,0,1,.19.49v.23a.56.56,0,0,1-.2.49A.87.87,0,0,1,121.28,257.74Zm.64,8.82a.6.6,0,0,1-.19.46.59.59,0,0,1-.45.2.62.62,0,0,1-.47-.2.67.67,0,0,1-.17-.46v-7.1a.62.62,0,0,1,.18-.46.65.65,0,0,1,.46-.18.61.61,0,0,1,.45.18.59.59,0,0,1,.19.46Z"/><path class="cls-1" d="M125.26,267.22a.59.59,0,0,1-.45-.2.6.6,0,0,1-.19-.46v-7a.65.65,0,0,1,.64-.64.61.61,0,0,1,.47.19.64.64,0,0,1,.17.45v2.12l-.19-.34a3.62,3.62,0,0,1,.34-1,3.51,3.51,0,0,1,.64-.85,3,3,0,0,1,.88-.59,2.74,2.74,0,0,1,1.08-.21,1.31,1.31,0,0,1,.65.16.53.53,0,0,1,.3.48.61.61,0,0,1-.18.49.55.55,0,0,1-.4.16.93.93,0,0,1-.4-.09,1.34,1.34,0,0,0-.48-.08,1.67,1.67,0,0,0-.79.21,2.59,2.59,0,0,0-.72.62,3.5,3.5,0,0,0-.53.9,3,3,0,0,0-.2,1.08v3.89a.63.63,0,0,1-.18.46A.61.61,0,0,1,125.26,267.22Z"/><path class="cls-1" d="M140.19,258.82a2.51,2.51,0,0,1,2.67,2.11h-.24l.11-.29a2.45,2.45,0,0,1,.66-.86,4.09,4.09,0,0,1,1.07-.69,3.12,3.12,0,0,1,1.27-.27,2.75,2.75,0,0,1,1.66.45,2.46,2.46,0,0,1,.87,1.22,5,5,0,0,1,.27,1.7v4.37a.64.64,0,0,1-.19.46.59.59,0,0,1-.45.2.6.6,0,0,1-.47-.2.63.63,0,0,1-.17-.46v-4.34a3.29,3.29,0,0,0-.19-1.12,1.61,1.61,0,0,0-.59-.8,1.83,1.83,0,0,0-1.11-.3,2.43,2.43,0,0,0-1.2.3,2.31,2.31,0,0,0-.87.8,2.06,2.06,0,0,0-.32,1.12v4.34a.63.63,0,0,1-.17.46.6.6,0,0,1-.47.2.59.59,0,0,1-.45-.2.64.64,0,0,1-.19-.46v-4.38a3.44,3.44,0,0,0-.16-1.1,1.63,1.63,0,0,0-.57-.78,1.83,1.83,0,0,0-1.11-.3,2.31,2.31,0,0,0-1.16.3,2.21,2.21,0,0,0-.85.78,1.92,1.92,0,0,0-.32,1.1v4.38a.6.6,0,0,1-.19.46.59.59,0,0,1-.45.2.61.61,0,0,1-.46-.2.63.63,0,0,1-.18-.46v-7a.61.61,0,0,1,.18-.45.6.6,0,0,1,.46-.19.59.59,0,0,1,.46.19.61.61,0,0,1,.18.45v1.22l-.35.38a2.26,2.26,0,0,1,.32-.83,3.76,3.76,0,0,1,.68-.77,3.66,3.66,0,0,1,.93-.56A3.06,3.06,0,0,1,140.19,258.82Z"/><path class="cls-1" d="M158,258.86a.63.63,0,0,1,.64.64v7.06a.64.64,0,1,1-1.28,0V265l.3,0a1.59,1.59,0,0,1-.24.77,3.06,3.06,0,0,1-.65.77,3.41,3.41,0,0,1-1,.59,3,3,0,0,1-1.21.24,3.49,3.49,0,0,1-2-.57,3.82,3.82,0,0,1-1.37-1.55,4.84,4.84,0,0,1-.5-2.22,4.7,4.7,0,0,1,.51-2.23,3.86,3.86,0,0,1,1.36-1.52,3.45,3.45,0,0,1,1.92-.55,3.55,3.55,0,0,1,1.28.22,3.36,3.36,0,0,1,1,.61,2.87,2.87,0,0,1,.68.85,2,2,0,0,1,.24.92l-.42-.09V259.5a.61.61,0,0,1,.18-.45A.66.66,0,0,1,158,258.86Zm-3.3,7.33a2.52,2.52,0,0,0,1.42-.41,3,3,0,0,0,1-1.13,3.66,3.66,0,0,0,.35-1.61,3.57,3.57,0,0,0-.35-1.59,2.8,2.8,0,0,0-1-1.12,2.52,2.52,0,0,0-1.42-.41,2.49,2.49,0,0,0-1.4.4,2.71,2.71,0,0,0-1,1.1,3.8,3.8,0,0,0,0,3.23,2.86,2.86,0,0,0,1,1.13A2.5,2.5,0,0,0,154.73,266.19Z"/><path class="cls-1" d="M165.55,258.74a2.92,2.92,0,0,1,1.71.44,2.44,2.44,0,0,1,.89,1.2,5,5,0,0,1,.26,1.68v4.5a.63.63,0,0,1-.18.46.6.6,0,0,1-.46.2.59.59,0,0,1-.45-.2.64.64,0,0,1-.19-.46V262.1A3.17,3.17,0,0,0,167,261a1.58,1.58,0,0,0-.61-.78,2,2,0,0,0-1.16-.3,2.54,2.54,0,0,0-1.23.3,2.43,2.43,0,0,0-.9.78,1.92,1.92,0,0,0-.33,1.1v4.46a.6.6,0,0,1-.19.46.59.59,0,0,1-.45.2.61.61,0,0,1-.46-.2.63.63,0,0,1-.18-.46v-7a.61.61,0,0,1,.18-.45.6.6,0,0,1,.46-.19.59.59,0,0,1,.46.19.61.61,0,0,1,.18.45v1.14l-.32.35a2.07,2.07,0,0,1,.37-.84,3.49,3.49,0,0,1,1.68-1.29A2.94,2.94,0,0,1,165.55,258.74Z"/><path class="cls-1" d="M177.37,258.94a.6.6,0,0,1,.47.19.6.6,0,0,1,.17.45V264a3.38,3.38,0,0,1-.9,2.51,4,4,0,0,1-5,0,3.35,3.35,0,0,1-.91-2.51v-4.37a.65.65,0,0,1,.64-.64.61.61,0,0,1,.47.19.64.64,0,0,1,.17.45V264a2.24,2.24,0,0,0,.56,1.65,2.51,2.51,0,0,0,3.16,0,2.24,2.24,0,0,0,.55-1.65v-4.37a.62.62,0,0,1,.19-.45A.58.58,0,0,1,177.37,258.94Z"/><path class="cls-1" d="M187.52,258.86a.63.63,0,0,1,.46.19.61.61,0,0,1,.18.45v7.06a.6.6,0,0,1-.19.46.59.59,0,0,1-.45.2.61.61,0,0,1-.46-.2.63.63,0,0,1-.18-.46V265l.3,0a1.59,1.59,0,0,1-.24.77,3.29,3.29,0,0,1-.65.77,3.55,3.55,0,0,1-1,.59,3.05,3.05,0,0,1-1.22.24,3.54,3.54,0,0,1-2-.57,3.87,3.87,0,0,1-1.36-1.55,5.2,5.2,0,0,1,0-4.45,3.94,3.94,0,0,1,1.36-1.52,3.48,3.48,0,0,1,1.93-.55,3.55,3.55,0,0,1,1.28.22,3.2,3.2,0,0,1,1,.61,2.72,2.72,0,0,1,.68.85,2,2,0,0,1,.24.92l-.41-.09V259.5a.61.61,0,0,1,.18-.45A.64.64,0,0,1,187.52,258.86Zm-3.3,7.33a2.52,2.52,0,0,0,1.42-.41,3,3,0,0,0,1-1.13A3.66,3.66,0,0,0,187,263a3.57,3.57,0,0,0-.35-1.59,2.8,2.8,0,0,0-1-1.12,2.52,2.52,0,0,0-1.42-.41,2.49,2.49,0,0,0-1.4.4,2.81,2.81,0,0,0-1,1.1,3.9,3.9,0,0,0,0,3.23,3,3,0,0,0,1,1.13A2.5,2.5,0,0,0,184.22,266.19Z"/><path class="cls-1" d="M192.33,266.56a.6.6,0,0,1-.19.46.63.63,0,0,1-.46.2.59.59,0,0,1-.45-.2.63.63,0,0,1-.18-.46V256a.59.59,0,0,1,.19-.46.61.61,0,0,1,.45-.18.63.63,0,0,1,.47.18.65.65,0,0,1,.17.46Z"/><path class="cls-1" d="M209.77,258.8a.6.6,0,0,1,.44.18.58.58,0,0,1,.19.46.71.71,0,0,1,0,.14.65.65,0,0,1,0,.13l-2.46,7.09a.71.71,0,0,1-.27.32.67.67,0,0,1-.39.1.63.63,0,0,1-.56-.42l-2-5.06.32.05-1.82,5a.61.61,0,0,1-.56.42.72.72,0,0,1-.4-.1.59.59,0,0,1-.26-.32l-2.51-7.09a.86.86,0,0,1,0-.27.64.64,0,0,1,.18-.45.69.69,0,0,1,.83-.09.51.51,0,0,1,.23.3l2.16,6.3h-.34l1.87-4.8a.59.59,0,0,1,.59-.4.57.57,0,0,1,.36.1.59.59,0,0,1,.2.3l2,4.8-.4,0,2.16-6.32A.56.56,0,0,1,209.77,258.8Z"/><path class="cls-1" d="M220.3,263.06a4.5,4.5,0,0,1-.54,2.22,4.21,4.21,0,0,1-1.48,1.54,4.1,4.1,0,0,1-5.71-1.54,4.7,4.7,0,0,1,0-4.45,4.18,4.18,0,0,1,5.71-1.53,4.1,4.1,0,0,1,1.48,1.53A4.52,4.52,0,0,1,220.3,263.06Zm-1.28,0a3.45,3.45,0,0,0-.37-1.64,3,3,0,0,0-1-1.1,2.86,2.86,0,0,0-2.92,0,2.8,2.8,0,0,0-1,1.1,3.45,3.45,0,0,0-.38,1.64,3.39,3.39,0,0,0,.38,1.61,2.83,2.83,0,0,0,1,1.11,2.8,2.8,0,0,0,2.92,0,3,3,0,0,0,1-1.11A3.38,3.38,0,0,0,219,263.06Z"/><path class="cls-1" d="M223.2,267.22a.61.61,0,0,1-.46-.2.63.63,0,0,1-.18-.46v-7a.61.61,0,0,1,.18-.45.6.6,0,0,1,.46-.19.59.59,0,0,1,.46.19.61.61,0,0,1,.18.45v2.12l-.19-.34a3.31,3.31,0,0,1,.34-1,3.47,3.47,0,0,1,.63-.85,3.09,3.09,0,0,1,.88-.59,2.75,2.75,0,0,1,1.09-.21,1.33,1.33,0,0,1,.65.16.54.54,0,0,1,.29.48.65.65,0,0,1-.17.49.57.57,0,0,1-.4.16.93.93,0,0,1-.4-.09,1.34,1.34,0,0,0-.48-.08,1.64,1.64,0,0,0-.79.21,2.34,2.34,0,0,0-.72.62,3.24,3.24,0,0,0-.53.9,2.8,2.8,0,0,0-.2,1.08v3.89a.6.6,0,0,1-.19.46A.59.59,0,0,1,223.2,267.22Z"/><path class="cls-1" d="M230.14,267.22a.58.58,0,0,1-.46-.2.63.63,0,0,1-.18-.46V256a.62.62,0,0,1,.18-.46.6.6,0,0,1,.46-.18.65.65,0,0,1,.46.18.62.62,0,0,1,.18.46v10.54a.65.65,0,0,1-.64.66Zm5.31-8.32a.55.55,0,0,1,.44.2.57.57,0,0,1,.19.4.59.59,0,0,1-.26.48l-5.18,4.53,0-1.49,4.41-3.93A.61.61,0,0,1,235.45,258.9Zm.18,8.3a.66.66,0,0,1-.48-.21l-3.41-3.63,1-.88,3.38,3.62a.65.65,0,0,1,.19.48.53.53,0,0,1-.23.45A.69.69,0,0,1,235.63,267.2Z"/><path class="cls-1" d="M238.91,267.2a.68.68,0,0,1-.52-.19.76.76,0,0,1-.19-.53v-.32a.75.75,0,0,1,.19-.54.69.69,0,0,1,.52-.2H239a.66.66,0,0,1,.52.2.75.75,0,0,1,.18.54v.32a.76.76,0,0,1-.18.53.65.65,0,0,1-.52.19Z"/></g></g><g id="illustration_5-2" data-name="illustration 5-2"><rect id="Rectangle_799" data-name="Rectangle 799" class="cls-4" x="61.68" y="40.96" width="193.23" height="102.9"/><path id="Path_1241" data-name="Path 1241" class="cls-5" d="M43,94c0,1,.37,2.06.45,3.1-3.07.15-6.1-1.34-9.17-.9a4.15,4.15,0,0,0,1.57-2.5,10.43,10.43,0,0,0,.3-3.89c0-.08,0-.15,0-.23a5.76,5.76,0,0,1-.33-1.64c.11-.53.6-.42,1.05-.42,1.38.12,2.73.3,4.11.53.34.07,3.82.93,3.86.82a14.79,14.79,0,0,0-1.5,3.07A8,8,0,0,0,43,94Z"/><path id="Path_1242" data-name="Path 1242" class="cls-5" d="M73.43,90.76a4.65,4.65,0,0,1-.94.94l-.71.56a3.18,3.18,0,0,1-1.53.63,4,4,0,0,1-2.73-1,1.67,1.67,0,0,1-.26-1,3.81,3.81,0,0,1,.26-1.46,8,8,0,0,1,1.2-2.17,6.22,6.22,0,0,1,1.91-1.91,5.58,5.58,0,0,1,.82-.38l1.42-.6a.77.77,0,0,1,.26-.07c.38,0,.45.6.23.9-.45.64-1.42.82-1.69,1.53a1,1,0,0,1,1,.79.74.74,0,0,0,.15.34c.12.11.34,0,.49.11s.15.52.19.82a3.55,3.55,0,0,0,.26.71A2,2,0,0,1,73.43,90.76Z"/><path id="Path_1243" data-name="Path 1243" class="cls-6" d="M31,195.57c.22-.23.63-.19,1-.15a44,44,0,0,0,5.39.45c.22-1.09-.41-2.17-.64-3.26a2.93,2.93,0,0,0-.22-.82,1.87,1.87,0,0,0-1.35-.82c-1-.19-2.47-.56-3,.41A13.28,13.28,0,0,0,31,195.57Z"/><path id="Path_1244" data-name="Path 1244" class="cls-7" d="M50.68,191.42a5.84,5.84,0,0,1-2.51.74,7.9,7.9,0,0,0-2.58.6,15.54,15.54,0,0,1-2,1.13,4.23,4.23,0,0,1-2.06,0,3,3,0,0,1-2.13-1.16,3.46,3.46,0,0,1-.3-2.17c.07-.82.11-1.68.18-2.5a1.14,1.14,0,0,1,.15-.6c.6-.86,2,.37,2.81.37a5.47,5.47,0,0,0,3.4-1.46,1.24,1.24,0,0,1,.26-.19c.34-.15.71.15,1,.38l.11.07a6.29,6.29,0,0,0,2.55.9,2.69,2.69,0,0,1,2.1,1.58s0,.11,0,.15A2.38,2.38,0,0,1,50.68,191.42Z"/><path id="Path_1245" data-name="Path 1245" class="cls-8" d="M50.68,191.42a5.84,5.84,0,0,1-2.51.74,7.9,7.9,0,0,0-2.58.6,15.54,15.54,0,0,1-2,1.13,4.23,4.23,0,0,1-2.06,0,3,3,0,0,1-2.13-1.16,3.46,3.46,0,0,1-.3-2.17c.07-.82.11-1.68.18-2.5a1.14,1.14,0,0,1,.15-.6c.6-.86,2,.37,2.81.37a5.47,5.47,0,0,0,3.4-1.46,1.24,1.24,0,0,1,.26-.19c.34-.15.71.15,1,.38l.11.07a6.29,6.29,0,0,0,2.55.9,2.69,2.69,0,0,1,2.1,1.58s0,.11,0,.15A2.38,2.38,0,0,1,50.68,191.42Z"/><path id="Path_1246" data-name="Path 1246" class="cls-9" d="M50.68,191.68a6.35,6.35,0,0,1-2.51.78,7.65,7.65,0,0,0-2.58.6,14.35,14.35,0,0,1-2,1.12,4.11,4.11,0,0,1-2.06,0,3.5,3.5,0,0,1-2.13-1.42,3.46,3.46,0,0,1-.3-2.17c.07-.82.11-1.68.18-2.51a1.14,1.14,0,0,1,.15-.6c.6-.86,2,.38,2.81.38a5.52,5.52,0,0,0,3.4-1.46,1,1,0,0,1,.26-.19c.34-.15.71.15,1,.37a5.88,5.88,0,0,1-.86,1.76,3.74,3.74,0,0,1-2.69,1.69,7.87,7.87,0,0,0-1.61.07c-.53.15-1,.68-.83,1.2s.83.6,1.35.64a6.32,6.32,0,0,0,2.21-.15c.42-.17.83-.35,1.23-.56,1.8-.75,4-.34,5.5-1.57l.45-.34C52.07,190.11,51.35,191.23,50.68,191.68Z"/><path id="Path_1247" data-name="Path 1247" class="cls-10" d="M50.68,191.68a6.35,6.35,0,0,1-2.51.78,7.65,7.65,0,0,0-2.58.6,14.35,14.35,0,0,1-2,1.12,4.11,4.11,0,0,1-2.06,0,3.5,3.5,0,0,1-2.13-1.42,3.46,3.46,0,0,1-.3-2.17c.07-.82.11-1.68.18-2.51a1.14,1.14,0,0,1,.15-.6c.6-.86,2,.38,2.81.38a5.52,5.52,0,0,0,3.4-1.46,1,1,0,0,1,.26-.19c.34-.15.71.15,1,.37a5.88,5.88,0,0,1-.86,1.76,3.74,3.74,0,0,1-2.69,1.69,7.87,7.87,0,0,0-1.61.07c-.53.15-1,.68-.83,1.2s.83.6,1.35.64a6.32,6.32,0,0,0,2.21-.15c.42-.17.83-.35,1.23-.56,1.8-.75,4-.34,5.5-1.57l.45-.34C52.07,190.11,51.35,191.23,50.68,191.68Z"/><path id="Path_1248" data-name="Path 1248" class="cls-11" d="M31.33,137.16a11,11,0,0,0,1.5,8.08,22.12,22.12,0,0,1,1.24,1.95,9.52,9.52,0,0,1,.49,1.57l1.34,5.61a15,15,0,0,1,.64,4.6c-.08,1.09-.34,2.29.3,3.15a2.31,2.31,0,0,1,.41.56,1.23,1.23,0,0,1,0,.71c-.67,4.08-1.2,8.31,0,12.23,1.12,3.56,1.2,7.53,2.13,11.12A2.5,2.5,0,0,0,40,188a1.62,1.62,0,0,0,.9.41,6.55,6.55,0,0,0,4.19-.67c.94-.41,1.91-1.16,1.83-2.17a3.65,3.65,0,0,0-.52-1.35,9.63,9.63,0,0,1-.52-2.77,57.26,57.26,0,0,0-1.54-7,16.24,16.24,0,0,1-.45-7.07,60.77,60.77,0,0,1,4.53-14,1.76,1.76,0,0,1,.41-.63,3.18,3.18,0,0,0,.6-.41,1.88,1.88,0,0,0,.27-.75A7.64,7.64,0,0,1,51,149.69c1-1.64.71-3.74.67-5.65a38.91,38.91,0,0,0-.07-5.61,5.26,5.26,0,0,0-3.14-4.34,6.32,6.32,0,0,0-2.77-.11A56.16,56.16,0,0,0,31.33,137.16Z"/><path id="Path_1249" data-name="Path 1249" class="cls-12" d="M31.33,137.42a11,11,0,0,0,1.5,8.08,22.12,22.12,0,0,1,1.24,1.95,9.83,9.83,0,0,1,.49,1.57l1.34,5.62a14.91,14.91,0,0,1,.64,4.6c-.08,1.08-.34,2.28.3,3.14a2.31,2.31,0,0,1,.41.56,1.23,1.23,0,0,1,0,.71c-.67,4.08-1.2,8.31,0,12.24,1.12,3.55,1.2,7.52,2.13,11.11a2.46,2.46,0,0,0,.6,1.23,1.71,1.71,0,0,0,.9.42,6.55,6.55,0,0,0,4.19-.68c.94-.41,1.91-1.16,1.83-2.17a3.6,3.6,0,0,0-.52-1.34,9.76,9.76,0,0,1-.52-2.77,56.84,56.84,0,0,0-1.54-7,16.29,16.29,0,0,1-.45-7.08,60.69,60.69,0,0,1,4.53-14,1.8,1.8,0,0,1,.41-.64,2.77,2.77,0,0,0,.6-.41,1.83,1.83,0,0,0,.27-.75A7.59,7.59,0,0,1,51,150c1-1.65.71-3.75.67-5.65a39.05,39.05,0,0,0-.07-5.62,5.27,5.27,0,0,0-3.14-4.34,6.32,6.32,0,0,0-2.77-.11A57,57,0,0,0,31.33,137.42Z"/><path id="Path_1250" data-name="Path 1250" class="cls-13" d="M51.31,149a10,10,0,0,1-.26,2.17c-.86,4.82-1.8,9.69-2.77,14.51a10.66,10.66,0,0,1-.3,1.24,10.44,10.44,0,0,1-1.87,3.7C42,175.66,41.7,183,39.45,189.17L39,190.4c-.41,1-.86,2.06-1.34,3a1,1,0,0,1-.27.37.61.61,0,0,1-.44.07c-2,0-5.2,2.59-6.44-.67-1.05.26.15-4.19.71-5.27.37-.64,2-9.36,2.81-13.1a16.25,16.25,0,0,1,2-5.43c.83-1.2,2-2.36,1.84-3.78-.08-.64-.34-1.42.18-1.8.23-.15.57-.19.72-.41a.68.68,0,0,0,.11-.34,8.86,8.86,0,0,0-.19-3c-.18-.63-.33-1.27-.45-1.91a2.31,2.31,0,0,1,.49-1.84c0-1.31,0-2.65,0-4a7.14,7.14,0,0,0-.18-2.21c-.11-.34.07-3.78-.71-4.79a5.47,5.47,0,0,0-1.31-.93,4.84,4.84,0,0,1-1.8-2.59,15.16,15.16,0,0,1-.53-3.14,1.89,1.89,0,0,1,0-.67,1,1,0,0,1,.08-.34,2.13,2.13,0,0,1,1.53-.93,49.48,49.48,0,0,1,11.75-1.39c1.46-1,2.28-.63,2.92.41a9.31,9.31,0,0,1,.82,2c.26.86.3,5.65.56,6.51C52.36,145.47,51.31,147.75,51.31,149Z"/><path id="Path_1251" data-name="Path 1251" class="cls-14" d="M24.9,105.35a10.68,10.68,0,0,0,.3,2.25,9.38,9.38,0,0,1-.3,2c-.49,2.55.45,5.13,1.34,7.56a3.58,3.58,0,0,1,.34,1.24A12.64,12.64,0,0,1,26,120.7c-.26,1.64.94,3.18,1,4.82a4.34,4.34,0,0,0,.6,3.67c.38.82.49,1.76.86,2.58a8.74,8.74,0,0,0,3.48,3.37,2.67,2.67,0,0,0,2.44-2.39,27.08,27.08,0,0,0,.26-5.17,28.73,28.73,0,0,0-.23-4.45c-.26-1.87-.9-3.7-1.31-5.54a49,49,0,0,0-1.68-7,24.45,24.45,0,0,0-3.18-5.43c-.49-.63-.86-1.57-1.76-1.42A1.9,1.9,0,0,0,24.9,105.35Z"/><path id="Path_1252" data-name="Path 1252" class="cls-15" d="M44.8,88.93A15.59,15.59,0,0,0,43.3,92a6.32,6.32,0,0,1-1.68.18c-2.21,0-3.78-1.27-5.09-2.84-.11-.52,3.7-.11,3.78-.49s-3.89-1.31-3.44-1.27c1.38.11,2.73.3,4.11.53C41.29,88.14,44.73,89,44.8,88.93Z"/><path id="Path_1253" data-name="Path 1253" class="cls-15" d="M50.6,135.85a30.46,30.46,0,0,0-3.7,0,12.07,12.07,0,0,0-2.32.22c-.93.23-1.8.64-2.73.9a25.1,25.1,0,0,1-4.56.6,27.57,27.57,0,0,0-3,.49,1.3,1.3,0,0,1,.08-.34,2.13,2.13,0,0,1,1.53-.93,49.48,49.48,0,0,1,11.75-1.39C49.14,134.43,50,134.8,50.6,135.85Z"/><path id="Path_1254" data-name="Path 1254" class="cls-14" d="M45.74,96.57a1.29,1.29,0,0,1-1.2.63,1.7,1.7,0,0,1-.45-.26,7.72,7.72,0,0,0-2.81-.82,39.34,39.34,0,0,1-5.76-1.31,6.43,6.43,0,0,0-1.68-.34,4.13,4.13,0,0,0-3,1.76c-.75.93-1.31,2-2,3-.53.68-1.16,1.27-1.65,2a8.82,8.82,0,0,0-1.2,6.24,26.78,26.78,0,0,0,2,6.18A23.88,23.88,0,0,0,29.61,117a7.7,7.7,0,0,0,.63,4.93,4.64,4.64,0,0,1,.64,1.46,3.62,3.62,0,0,1,0,1.09l-.37,2.58c-.11.79-.23,1.57-.38,2.36-.26,1.42-.6,3,0,4.26.79,1.54,0,3.52.15,5.24a25.77,25.77,0,0,1,6.92-1.64,27,27,0,0,0,4.57-.6c.93-.27,1.8-.68,2.73-.9a12,12,0,0,1,2.32-.23,26.66,26.66,0,0,1,5.13.11c.15,0,.3,0,.37-.07a.41.41,0,0,0,0-.19,3.08,3.08,0,0,0-.45-1.8,2.51,2.51,0,0,1-.53-1.2,2,2,0,0,1,.15-.6l.75-2c.64-1.69.34-3.63.68-5.39a32.57,32.57,0,0,0,.48-4.19,5,5,0,0,0-.71-3.44,3.47,3.47,0,0,1-.52-.75,2,2,0,0,1-.12-.9c0-2.4,0-4.79.19-7.19-.63-1.12-1.27-2.28-1.91-3.44a14.22,14.22,0,0,1-1.76-4.15c-.18-1-.18-2-.33-3A1.43,1.43,0,0,0,48,96.7a1.38,1.38,0,0,0-1-.3A2.62,2.62,0,0,0,45.74,96.57Z"/><path id="Path_1255" data-name="Path 1255" class="cls-15" d="M71.78,92.26a3.18,3.18,0,0,1-1.53.63,4,4,0,0,1-2.73-1,1.67,1.67,0,0,1-.26-1c.11,0,.18,0,.3-.08a8.72,8.72,0,0,1,2.39.11,2.78,2.78,0,0,1,1.83,1.39Z"/><path id="Path_1256" data-name="Path 1256" class="cls-14" d="M48.13,107.64a6.32,6.32,0,0,0,1.5,1.42,4.87,4.87,0,0,0,2.32.37,57.29,57.29,0,0,0,9.77-1.08,6.64,6.64,0,0,0,1.08-.3,6.42,6.42,0,0,0,1.09-.68,13.61,13.61,0,0,0,2.92-2.54,8.24,8.24,0,0,0,1.72-4.27,7.82,7.82,0,0,0,1.57-2.65,4,4,0,0,0,.34-1.31c0-.45-.3-.94-.19-1.39a3.55,3.55,0,0,1,1.12-2,.72.72,0,0,0,.27-.37.57.57,0,0,0-.08-.34,2.76,2.76,0,0,0-1.83-1.38,8.4,8.4,0,0,0-2.4-.11,3,3,0,0,0-.78.22L66,92.67a1.54,1.54,0,0,1-.38.67,1.49,1.49,0,0,1-.41.3,2.35,2.35,0,0,0-.79,2,2.13,2.13,0,0,0-1.27,2.62,2.49,2.49,0,0,0-1.83,1.6,1,1,0,0,1-.23.49.8.8,0,0,1-.63.19c-.64,0-1.2.52-1.76.26a3.56,3.56,0,0,0-2.06-.3,2.28,2.28,0,0,1-.45,0l-.37-.12a3.2,3.2,0,0,0-.82-.33.72.72,0,0,0-.79.3c-.19-.23-.3-.49-.49-.75a.74.74,0,0,0-.74-.37c.18-.15,0-.49-.27-.57a2.61,2.61,0,0,0-.74,0c-.68,0-1.16-.6-1.8-.75s-1.39,0-1.69-.48c-.11-.19-.11-.45-.3-.53a.49.49,0,0,0-.41,0,3.35,3.35,0,0,0-1.2.37,16.64,16.64,0,0,0,.19,7.33A6.93,6.93,0,0,0,48.13,107.64Z"/><path id="Path_1257" data-name="Path 1257" class="cls-15" d="M48.1,116.28,45,122.46a4,4,0,0,1,1.57-1.16,4.08,4.08,0,0,0,1.5-2,11.52,11.52,0,0,0,.56-2.51,2.25,2.25,0,0,0,0-1.31C48.36,115.53,48.25,116,48.1,116.28Z"/><path id="Path_1258" data-name="Path 1258" class="cls-15" d="M39.3,121.52a26.51,26.51,0,0,1-2.28,1.8,22.15,22.15,0,0,0-4.26,5.24,8.07,8.07,0,0,0-.87,1.61c.15.11.38,0,.53-.15l2.39-2.1a6.43,6.43,0,0,0,.83-.82c.41-.57.6-1.28,1-1.84a8.29,8.29,0,0,1,1.46-1.5c.56-.48,3.1-2.62,2.47-3.44A4.18,4.18,0,0,0,39.3,121.52Z"/><path id="Path_1259" data-name="Path 1259" class="cls-14" d="M44.54,94.76A6.71,6.71,0,0,0,42,93.94a5.8,5.8,0,0,0-1.61-.11,9.41,9.41,0,0,1-1.5.26,6.61,6.61,0,0,1-2.06-.45,2.48,2.48,0,0,0-2.06.15.56.56,0,0,1-.78.12.46.46,0,0,1-.12-.12,2.59,2.59,0,0,0-3.25.19c-1.31,1.23-1.16,3.59-2.7,4.53-.41.26-1,.37-1.2.82a2,2,0,0,1-.22.41.86.86,0,0,1-.37.26,8.93,8.93,0,0,0-1.28.72,1.65,1.65,0,0,0-.71,1.2,2.37,2.37,0,0,0,.23,1,9.61,9.61,0,0,0,9.31,5.94,1.28,1.28,0,0,0,1-.3A1.66,1.66,0,0,0,35,108c.72-1.5,2.06-2.62,2.92-4,.53-.86.83-1.8,1.39-2.65a13.38,13.38,0,0,1,3.22-3.15,3.65,3.65,0,0,1,2.28-1c.75,0,1.31.08,1-.86A3,3,0,0,0,44.54,94.76Z"/><path id="Path_1260" data-name="Path 1260" class="cls-8" d="M29.87,199.09a.53.53,0,0,1-.44-.23.51.51,0,0,1-.08-.34,28.75,28.75,0,0,1,.67-5.61c.19-.75,1.54.94,1.61,1a1.54,1.54,0,0,0,1.24.64,8.23,8.23,0,0,0,4.56-1.72,7.64,7.64,0,0,1,.86-.53,2.36,2.36,0,0,1,.68-.18,3.83,3.83,0,0,1,2.32.48c.93.45,1.76,1.12,2.69,1.61a7.71,7.71,0,0,0,2.4.75c.86.11,1.87.19,2.28.9h0a1.69,1.69,0,0,1-.41,1.91,4,4,0,0,1-1.91.82,42.23,42.23,0,0,1-4.75.6"/><path id="Path_1261" data-name="Path 1261" class="cls-9" d="M29.43,199.16a2,2,0,0,1-.34-.64,26.05,26.05,0,0,1,1-5.61c.19-.75,1.54.94,1.61,1a1.51,1.51,0,0,0,1.24.64,8.23,8.23,0,0,0,4.56-1.72,5.85,5.85,0,0,1,.86-.53,2.53,2.53,0,0,1,.68-.19c-.19,1.13-1.8,2.47-2.66,2.89-1.69.82-3.7.41-5.58.52a.87.87,0,0,0-.41.11c-.22.15-.22.49-.22.75a1.31,1.31,0,0,0,.45,1.2,1.15,1.15,0,0,0,.63.15,90.62,90.62,0,0,0,13.88-.49,7.54,7.54,0,0,0,2.25-.48,6.3,6.3,0,0,0,1.31-.86c.6.45.11,1.72-.41,2.17a4,4,0,0,1-1.91.82,42.23,42.23,0,0,1-4.75.6"/><path id="Path_1262" data-name="Path 1262" class="cls-15" d="M67.48,100.6c-.3-.75-1.53-2.8-1.16-3.52a9.28,9.28,0,0,1,.93,1.69C67.48,99.37,67.33,100.15,67.48,100.6Z"/><path id="Path_1263" data-name="Path 1263" class="cls-5" d="M39.79,77.81s-9.54,10.26,0,13.51S49.63,72.2,39.79,77.81Z"/><path id="Path_1264" data-name="Path 1264" class="cls-5" d="M36.42,82.53s-2-1.2-1.08,2.28S36.42,82.53,36.42,82.53Z"/><path id="Path_1265" data-name="Path 1265" class="cls-8" d="M36.42,82.83v1.72h.83s1-4.49,1.9-4.42,5,.38,5.62-.33S47,83.09,47,83.09s.53-7.63-5-7.3-6.62,2.92-6.88,7C35.19,82.79,35.45,81.74,36.42,82.83Z"/><rect id="Rectangle_800" data-name="Rectangle 800" class="cls-16" x="75.56" y="74.75" width="64.47" height="40.22"/><rect id="Rectangle_801" data-name="Rectangle 801" class="cls-17" x="79.64" y="70.82" width="64.47" height="40.22"/><path id="Path_1266" data-name="Path 1266" class="cls-8" d="M121.77,100.71A13.9,13.9,0,0,0,111.93,77V90.91Z"/><path id="Path_1267" data-name="Path 1267" class="cls-18" d="M111.93,77a13.9,13.9,0,0,0-6.66,26.12l6.66-12.2Z"/><path id="Path_1268" data-name="Path 1268" class="cls-19" d="M121.77,100.71l-9.84-9.84-6.62,12.2a13.89,13.89,0,0,0,16.46-2.35Z"/><rect id="Rectangle_802" data-name="Rectangle 802" class="cls-8" x="82.07" y="102.7" width="2.66" height="2.66"/><rect id="Rectangle_803" data-name="Rectangle 803" class="cls-19" x="85.93" y="102.7" width="2.66" height="2.66"/><rect id="Rectangle_804" data-name="Rectangle 804" class="cls-18" x="89.74" y="102.7" width="2.66" height="2.66"/><rect id="Rectangle_805" data-name="Rectangle 805" class="cls-7" x="128.06" y="103.3" width="10.93" height="0.45"/><rect id="Rectangle_806" data-name="Rectangle 806" class="cls-7" x="128.06" y="104.61" width="10.93" height="0.45"/><rect id="Rectangle_807" data-name="Rectangle 807" class="cls-7" x="128.06" y="105.95" width="10.93" height="0.45"/><rect id="Rectangle_808" data-name="Rectangle 808" class="cls-16" x="196.27" y="61.87" width="37.53" height="41.2"/><rect id="Rectangle_809" data-name="Rectangle 809" class="cls-17" x="200.09" y="57.95" width="37.53" height="41.2"/><rect id="Rectangle_810" data-name="Rectangle 810" class="cls-8" x="202.03" y="94.47" width="2.02" height="2.02"/><rect id="Rectangle_811" data-name="Rectangle 811" class="cls-19" x="204.95" y="94.47" width="2.02" height="2.02"/><rect id="Rectangle_812" data-name="Rectangle 812" class="cls-18" x="207.87" y="94.47" width="2.02" height="2.02"/><rect id="Rectangle_813" data-name="Rectangle 813" class="cls-7" x="224.75" y="95.36" width="7.86" height="0.34"/><rect id="Rectangle_814" data-name="Rectangle 814" class="cls-7" x="224.75" y="96.3" width="7.86" height="0.34"/><rect id="Rectangle_815" data-name="Rectangle 815" class="cls-7" x="224.75" y="97.27" width="7.86" height="0.34"/><path id="Path_1269" data-name="Path 1269" class="cls-18" d="M218.83,65.21v3.33a10,10,0,0,1,7.08,17.06L228.26,88a13.32,13.32,0,0,0-9.43-22.74Z"/><path id="Path_1270" data-name="Path 1270" class="cls-19" d="M228.26,88l-2.35-2.35a10,10,0,0,1-13.1.9l-2,2.65A13.33,13.33,0,0,0,228.26,88Z"/><path id="Path_1271" data-name="Path 1271" class="cls-8" d="M208.84,78.53a10,10,0,0,1,10-10V65.21a13.3,13.3,0,0,0-8,23.91l2-2.66A9.85,9.85,0,0,1,208.84,78.53Z"/><rect id="Rectangle_816" data-name="Rectangle 816" class="cls-16" x="148.26" y="95.1" width="34.35" height="37.64"/><rect id="Rectangle_817" data-name="Rectangle 817" class="cls-17" x="151.71" y="91.51" width="34.35" height="37.64"/><path id="Path_1272" data-name="Path 1272" class="cls-17" d="M155,93.87v28.81h27.84"/><rect id="Rectangle_818" data-name="Rectangle 818" class="cls-18" x="156.57" y="112.2" width="6.25" height="9.95"/><rect id="Rectangle_819" data-name="Rectangle 819" class="cls-8" x="165.55" y="105.39" width="6.25" height="16.76"/><rect id="Rectangle_820" data-name="Rectangle 820" class="cls-19" x="174.57" y="97.5" width="6.25" height="24.66"/><rect id="Rectangle_821" data-name="Rectangle 821" class="cls-18" x="154.62" y="124.92" width="1.83" height="1.83"/><rect id="Rectangle_822" data-name="Rectangle 822" class="cls-8" x="157.28" y="124.92" width="1.83" height="1.83"/><rect id="Rectangle_823" data-name="Rectangle 823" class="cls-19" x="159.98" y="124.92" width="1.83" height="1.83"/><rect id="Rectangle_824" data-name="Rectangle 824" class="cls-7" x="175.39" y="125.75" width="8.19" height="0.3"/><rect id="Rectangle_825" data-name="Rectangle 825" class="cls-7" x="175.39" y="126.61" width="7.18" height="0.3"/><rect id="Rectangle_826" data-name="Rectangle 826" class="cls-7" x="175.39" y="127.47" width="7.18" height="0.3"/></g></g></g></g></svg>