<svg xmlns="http://www.w3.org/2000/svg" viewBox="0 0 300 300"><defs><style>.cls-1{fill:#fff;}.cls-2{fill:#333a41;}.cls-17,.cls-3{fill:none;}.cls-18,.cls-4{fill:#c8e0ff;}.cls-4{stroke:#00217e;}.cls-17,.cls-4{stroke-miterlimit:10;}.cls-5{fill:#ffacb6;}.cls-6{fill:#65617d;}.cls-7{fill:#3f3d56;}.cls-8{fill:#00217e;}.cls-9{fill:#e8eaf2;}.cls-10{opacity:0.05;}.cls-10,.cls-15{isolation:isolate;}.cls-11{fill:#696791;}.cls-12{fill:#a0bded;}.cls-13{fill:#bed7ff;}.cls-14{fill:blue;}.cls-15{opacity:0.1;}.cls-16{fill:#f2f2f2;}.cls-17{stroke:#3f3d56;stroke-width:2px;}.cls-19{fill:#0037b2;}</style></defs><g id="Layer_1" data-name="Layer 1"><g id="Layer_2" data-name="Layer 2"><g id="Layer_4" data-name="Layer 4"><g id="point_6" data-name="point 6"><circle id="circle_6_point_6" data-name="circle 6 point 6" class="cls-1" cx="150.5" cy="24.9" r="16.5"/><g id="_6" data-name=" 6"><path class="cls-2" d="M150.85,32.6a4.46,4.46,0,0,1-2-.44,4.17,4.17,0,0,1-1.47-1.2,5.52,5.52,0,0,1-.91-1.71,6.15,6.15,0,0,1-.31-2,10.75,10.75,0,0,1,.18-1.79,11,11,0,0,1,.6-2.1,9.78,9.78,0,0,1,1.12-2.09,8.68,8.68,0,0,1,1.72-1.81,7.2,7.2,0,0,1,2.44-1.23,1.34,1.34,0,0,1,.4-.06,1.2,1.2,0,0,1,.69.21.83.83,0,0,1,.31.75,1,1,0,0,1-.23.63,1.27,1.27,0,0,1-.63.39,6,6,0,0,0-1.46.72A7.63,7.63,0,0,0,150,22a7.33,7.33,0,0,0-1,1.47,6,6,0,0,0-.62,1.69l-.5.08a4.64,4.64,0,0,1,.76-.89,3.88,3.88,0,0,1,1.1-.72,3.5,3.5,0,0,1,1.46-.29,3.66,3.66,0,0,1,1.59.36,4.36,4.36,0,0,1,1.37,1,5,5,0,0,1,1,1.48,4.61,4.61,0,0,1-1.89,5.74A4.41,4.41,0,0,1,150.85,32.6Zm0-1.86a2.47,2.47,0,0,0,1.32-.35,2.44,2.44,0,0,0,.91-1,3,3,0,0,0,.33-1.4,3.11,3.11,0,0,0-.31-1.4,2.57,2.57,0,0,0-.88-1,2.38,2.38,0,0,0-1.35-.38,2.47,2.47,0,0,0-1.37.38,2.71,2.71,0,0,0-.93,1,3,3,0,0,0,0,2.76,2.56,2.56,0,0,0,2.28,1.39Z"/></g></g></g></g></g><g id="Layer_3" data-name="Layer 3"><g id="Using_this_teachers_gets_more_time_to_interact_with_students_and_helps_reduce_their_manual_work." data-name="Using this teachers gets more time to interact with students and helps reduce their manual work."><path class="cls-1" d="M24.59,242.4a.55.55,0,0,1,.45.19.73.73,0,0,1,.17.47v6.34a4.29,4.29,0,0,1-.57,2.21,4.15,4.15,0,0,1-3.7,2.11,4.25,4.25,0,0,1-2.2-.57,4.19,4.19,0,0,1-1.53-1.54,4.38,4.38,0,0,1-.56-2.21v-6.35a.59.59,0,0,1,.19-.47.62.62,0,0,1,.48-.18.66.66,0,0,1,.46.19.63.63,0,0,1,.2.47v6.34a3,3,0,0,0,1.48,2.65,3,3,0,0,0,1.48.39,3,3,0,0,0,1.5-.39A3.4,3.4,0,0,0,23.56,251,2.91,2.91,0,0,0,24,249.4v-6.35a.67.67,0,0,1,.16-.47A.52.52,0,0,1,24.59,242.4Z"/><path class="cls-1" d="M27.72,252.3a.63.63,0,0,1-.12-.44.52.52,0,0,1,.27-.4.5.5,0,0,1,.37-.1.57.57,0,0,1,.4.21,3.67,3.67,0,0,0,1,.84,2.92,2.92,0,0,0,2.18.18,1.33,1.33,0,0,0,.64-.39,1,1,0,0,0,.27-.74,1,1,0,0,0-.27-.72,2.25,2.25,0,0,0-.71-.43,7.84,7.84,0,0,0-.94-.29c-.35-.1-.7-.21-1-.33a3.48,3.48,0,0,1-.92-.47,2.21,2.21,0,0,1-.66-.7,2.06,2.06,0,0,1-.25-1,2,2,0,0,1,.4-1.25,2.64,2.64,0,0,1,1.05-.82,3.6,3.6,0,0,1,1.45-.28,4.23,4.23,0,0,1,.94.1,4,4,0,0,1,1,.35,2.65,2.65,0,0,1,.81.68.59.59,0,0,1,.16.4.48.48,0,0,1-.2.43.58.58,0,0,1-.4.12.62.62,0,0,1-.36-.16,2.07,2.07,0,0,0-.84-.62,2.82,2.82,0,0,0-1.11-.22,2.4,2.4,0,0,0-.75.12,1.36,1.36,0,0,0-.62.37,1.11,1.11,0,0,0,0,1.43,1.92,1.92,0,0,0,.74.44,9,9,0,0,0,1,.33c.34.09.67.19,1,.3a3.43,3.43,0,0,1,.85.44,1.84,1.84,0,0,1,.61.69,2.28,2.28,0,0,1,.17,1,2,2,0,0,1-.42,1.27,2.62,2.62,0,0,1-1.1.82,3.83,3.83,0,0,1-1.46.28,4.69,4.69,0,0,1-1.74-.34A3.37,3.37,0,0,1,27.72,252.3Z"/><path class="cls-1" d="M36.76,244.14a.88.88,0,0,1-.59-.16.57.57,0,0,1-.19-.49v-.23a.55.55,0,0,1,.21-.49.88.88,0,0,1,.59-.16.86.86,0,0,1,.58.16.65.65,0,0,1,.19.49v.23a.6.6,0,0,1-.2.49A.88.88,0,0,1,36.76,244.14ZM37.4,253a.61.61,0,0,1-.18.46.63.63,0,0,1-.46.2.65.65,0,0,1-.64-.66v-7.1a.66.66,0,0,1,.19-.46.63.63,0,0,1,.45-.18.62.62,0,0,1,.64.64Z"/><path class="cls-1" d="M44.22,245.14a2.94,2.94,0,0,1,1.71.44,2.47,2.47,0,0,1,.89,1.2,5,5,0,0,1,.26,1.68V253a.61.61,0,0,1-.18.46.63.63,0,0,1-.46.2.58.58,0,0,1-.42-.22.66.66,0,0,1-.19-.46V248.5a3.17,3.17,0,0,0-.18-1.1,1.57,1.57,0,0,0-.61-.78,2,2,0,0,0-1.16-.3,2.52,2.52,0,0,0-1.23.3,2.42,2.42,0,0,0-.9.78,2,2,0,0,0-.33,1.1V253a.58.58,0,0,1-.19.46.59.59,0,0,1-.45.2.63.63,0,0,1-.46-.2.61.61,0,0,1-.18-.46v-7a.63.63,0,0,1,.18-.45.65.65,0,0,1,.92,0,.63.63,0,0,1,.18.45v1.14l-.32.35a2.19,2.19,0,0,1,.37-.84,3.53,3.53,0,0,1,1.68-1.29A2.8,2.8,0,0,1,44.22,245.14Z"/><path class="cls-1" d="M53.24,245.14a3.4,3.4,0,0,1,1.3.23,3.64,3.64,0,0,1,1,.6,3.15,3.15,0,0,1,.69.77,1.35,1.35,0,0,1,.25.75l-.32-.19v-1.4a.63.63,0,0,1,.18-.45.65.65,0,0,1,.92,0,.63.63,0,0,1,.18.45v7a4,4,0,0,1-.55,2.18,3.48,3.48,0,0,1-1.45,1.32,4.79,4.79,0,0,1-2.07.44,5.39,5.39,0,0,1-1.06-.13,6.82,6.82,0,0,1-1-.31,1.15,1.15,0,0,1-.56-.38.71.71,0,0,1-.3-.36.48.48,0,0,1,.44-.6,1.65,1.65,0,0,1,.58.14l.46.16a5.6,5.6,0,0,0,.7.2,3.48,3.48,0,0,0,.79.09,2.88,2.88,0,0,0,2.08-.71,2.53,2.53,0,0,0,.72-1.88v-1.49l.17.08a2,2,0,0,1-.38.83,2.86,2.86,0,0,1-.71.68,3.57,3.57,0,0,1-2,.64,3.71,3.71,0,0,1-2-.56,4.1,4.1,0,0,1-1.41-1.54,5,5,0,0,1,0-4.46,4,4,0,0,1,1.4-1.53A3.64,3.64,0,0,1,53.24,245.14Zm.18,1.18a2.64,2.64,0,0,0-1.47.41,2.82,2.82,0,0,0-1,1.11,3.69,3.69,0,0,0,0,3.21,3,3,0,0,0,1,1.13,2.84,2.84,0,0,0,2.94,0,2.82,2.82,0,0,0,1-1.11,3.46,3.46,0,0,0,.37-1.61,3.58,3.58,0,0,0-.37-1.64,2.79,2.79,0,0,0-1-1.1A2.71,2.71,0,0,0,53.42,246.32Z"/><path class="cls-1" d="M64.72,245.4h3.76a.53.53,0,0,1,.42.18.58.58,0,0,1,.17.41.61.61,0,0,1-.17.43.59.59,0,0,1-.42.17H64.72a.6.6,0,0,1-.42-.18.58.58,0,0,1-.18-.43.52.52,0,0,1,.18-.41A.59.59,0,0,1,64.72,245.4Zm1.68-2.17a.55.55,0,0,1,.44.18.61.61,0,0,1,.18.46v7.72a1.28,1.28,0,0,0,.11.58.55.55,0,0,0,.3.26.9.9,0,0,0,.36.08.67.67,0,0,0,.28-.06.67.67,0,0,1,.28-.06.41.41,0,0,1,.29.16.62.62,0,0,1,.14.39.57.57,0,0,1-.34.49,1.53,1.53,0,0,1-.75.2h-.55a1.64,1.64,0,0,1-.65-.2,1.44,1.44,0,0,1-.53-.59,2.37,2.37,0,0,1-.22-1.14v-7.79a.58.58,0,0,1,.19-.46.66.66,0,0,1,.47-.23Z"/><path class="cls-1" d="M75.24,245.22a2.86,2.86,0,0,1,1.68.45,2.51,2.51,0,0,1,.88,1.22,5.14,5.14,0,0,1,.26,1.69V253a.64.64,0,0,1-.64.64.64.64,0,0,1-.64-.64h0v-4.38a3.17,3.17,0,0,0-.18-1.1,1.51,1.51,0,0,0-.58-.78,1.83,1.83,0,0,0-1.11-.3,2.4,2.4,0,0,0-1.2.3,2.33,2.33,0,0,0-.87.78,2,2,0,0,0-.32,1.1V253a.61.61,0,0,1-.18.46.63.63,0,0,1-.46.2.59.59,0,0,1-.45-.2.58.58,0,0,1-.19-.46V242.4a.58.58,0,0,1,.19-.46.68.68,0,0,1,.92,0,.66.66,0,0,1,.17.46v4.78l-.32.35a2.33,2.33,0,0,1,.36-.84,3.53,3.53,0,0,1,.68-.76,3.73,3.73,0,0,1,.93-.53A2.77,2.77,0,0,1,75.24,245.22Z"/><path class="cls-1" d="M81.42,244.14a.88.88,0,0,1-.59-.16.57.57,0,0,1-.19-.49v-.23a.57.57,0,0,1,.2-.49,1,1,0,0,1,.6-.16.84.84,0,0,1,.57.16.57.57,0,0,1,.19.49v.23a.57.57,0,0,1-.2.49A.86.86,0,0,1,81.42,244.14Zm.64,8.82a.65.65,0,0,1-.64.66h0a.58.58,0,0,1-.46-.2.61.61,0,0,1-.18-.46v-7.1a.61.61,0,0,1,.18-.46.68.68,0,0,1,.92,0,.61.61,0,0,1,.18.46Z"/><path class="cls-1" d="M84.3,252.3a.64.64,0,0,1-.13-.44.52.52,0,0,1,.27-.4.58.58,0,0,1,.38-.1.61.61,0,0,1,.39.21,3.67,3.67,0,0,0,1,.84,2.92,2.92,0,0,0,2.18.18,1.4,1.4,0,0,0,.65-.39,1.05,1.05,0,0,0,.26-.74,1,1,0,0,0-.27-.72,2.1,2.1,0,0,0-.7-.43,7.12,7.12,0,0,0-1-.29c-.35-.1-.7-.21-1-.33a4,4,0,0,1-.92-.47,2.07,2.07,0,0,1-.65-.7,2,2,0,0,1-.25-1,2,2,0,0,1,.39-1.25A2.59,2.59,0,0,1,86,245.4a3.6,3.6,0,0,1,1.45-.28,4.2,4.2,0,0,1,.93.1,4,4,0,0,1,1,.35,2.81,2.81,0,0,1,.82.68.65.65,0,0,1,.16.4.49.49,0,0,1-.21.43.55.55,0,0,1-.39.12.62.62,0,0,1-.36-.16,2.25,2.25,0,0,0-.84-.62,2.82,2.82,0,0,0-1.11-.22,2.4,2.4,0,0,0-.75.12,1.28,1.28,0,0,0-.62.37,1,1,0,0,0-.25.73,1,1,0,0,0,.29.7,2,2,0,0,0,.73.44,9,9,0,0,0,1,.33c.34.09.67.19,1,.3a3.33,3.33,0,0,1,.86.44,1.84,1.84,0,0,1,.61.69,2.31,2.31,0,0,1,.22,1.07,2.07,2.07,0,0,1-.41,1.27,2.7,2.7,0,0,1-1.1.82,3.83,3.83,0,0,1-1.46.28,4.69,4.69,0,0,1-1.74-.34A3.47,3.47,0,0,1,84.3,252.3Z"/><path class="cls-1" d="M97.23,245.4H101a.53.53,0,0,1,.42.18.58.58,0,0,1,.17.41.61.61,0,0,1-.17.43.59.59,0,0,1-.42.17H97.23a.6.6,0,0,1-.59-.61h0a.54.54,0,0,1,.17-.41A.59.59,0,0,1,97.23,245.4Zm1.68-2.17a.63.63,0,0,1,.45.18.66.66,0,0,1,.17.46v7.72a1.28,1.28,0,0,0,.11.58.59.59,0,0,0,.3.26.9.9,0,0,0,.36.08.67.67,0,0,0,.28-.06.67.67,0,0,1,.28-.06.37.37,0,0,1,.3.16.56.56,0,0,1,.13.39.58.58,0,0,1-.33.49,1.54,1.54,0,0,1-.76.2h-.55a1.77,1.77,0,0,1-.63-.23,1.44,1.44,0,0,1-.53-.59,2.37,2.37,0,0,1-.22-1.14v-7.79a.66.66,0,0,1,.19-.46.69.69,0,0,1,.45-.2Z"/><path class="cls-1" d="M107.42,253.78a4.61,4.61,0,0,1-2.24-.55,3.81,3.81,0,0,1-1.49-1.49,4.55,4.55,0,0,1-.53-2.2,4.8,4.8,0,0,1,.56-2.38,3.82,3.82,0,0,1,1.43-1.5,3.61,3.61,0,0,1,1.87-.52,3.9,3.9,0,0,1,1.43.27,3.77,3.77,0,0,1,1.22.79,4.08,4.08,0,0,1,1.19,2.87.59.59,0,0,1-.21.43.63.63,0,0,1-.45.18h-6.32l-.28-1.1h6.16l-.26.22v-.35a2,2,0,0,0-.42-1.13,2.62,2.62,0,0,0-2.06-1,2.83,2.83,0,0,0-1,.16,2.4,2.4,0,0,0-.85.55,2.62,2.62,0,0,0-.6,1,4.06,4.06,0,0,0-.22,1.42,3.39,3.39,0,0,0,.37,1.63,2.82,2.82,0,0,0,1,1.11,2.9,2.9,0,0,0,1.55.41,3.06,3.06,0,0,0,1-.14,3,3,0,0,0,.72-.36,4.14,4.14,0,0,0,.5-.44.72.72,0,0,1,.42-.15.55.55,0,0,1,.38.16.55.55,0,0,1,.16.39.62.62,0,0,1-.26.48,4.32,4.32,0,0,1-1.17.86A3.55,3.55,0,0,1,107.42,253.78Z"/><path class="cls-1" d="M119.9,245.26a.63.63,0,0,1,.64.62V253a.58.58,0,0,1-.19.46.59.59,0,0,1-.45.2.65.65,0,0,1-.64-.66h0V251.4h.3a1.62,1.62,0,0,1-.24.77,3.45,3.45,0,0,1-.65.77,3.61,3.61,0,0,1-1,.59,3.11,3.11,0,0,1-1.21.24,3.45,3.45,0,0,1-2-.57,3.87,3.87,0,0,1-1.37-1.55,5.18,5.18,0,0,1,0-4.45,3.86,3.86,0,0,1,1.37-1.52,3.44,3.44,0,0,1,1.92-.55,3.48,3.48,0,0,1,1.28.22,3.2,3.2,0,0,1,1,.61,3,3,0,0,1,.69.85,2,2,0,0,1,.23.92l-.41-.09V245.9a.64.64,0,0,1,.73-.64Zm-3.3,7.33a2.48,2.48,0,0,0,1.42-.41,3,3,0,0,0,1-1.13,3.57,3.57,0,0,0,.35-1.61,3.51,3.51,0,0,0-.35-1.59,2.84,2.84,0,0,0-1-1.12,2.66,2.66,0,0,0-2.82,0,2.79,2.79,0,0,0-1,1.1,3.88,3.88,0,0,0,0,3.23,3,3,0,0,0,1,1.13A2.49,2.49,0,0,0,116.6,252.59Z"/><path class="cls-1" d="M126.91,245.14a5.58,5.58,0,0,1,1.47.17,3.08,3.08,0,0,1,1,.48.87.87,0,0,1,.38.69.73.73,0,0,1-.13.4.45.45,0,0,1-.4.19.57.57,0,0,1-.34-.08.89.89,0,0,1-.26-.21.87.87,0,0,0-.32-.22,1.84,1.84,0,0,0-.56-.18,4.74,4.74,0,0,0-.75-.06,2.87,2.87,0,0,0-2.59,1.54,3.39,3.39,0,0,0-.37,1.6,3.44,3.44,0,0,0,.36,1.6,3,3,0,0,0,1,1.12,2.8,2.8,0,0,0,1.52.41,3.25,3.25,0,0,0,.88-.09,2.83,2.83,0,0,0,.57-.23,1.66,1.66,0,0,0,.43-.32.54.54,0,0,1,.42-.16.51.51,0,0,1,.42.18.71.71,0,0,1,.14.43.86.86,0,0,1-.4.61,3.65,3.65,0,0,1-1.08.54,4.66,4.66,0,0,1-1.53.23,3.81,3.81,0,0,1-3.54-2.12,5,5,0,0,1,0-4.4,3.94,3.94,0,0,1,3.6-2.12Z"/><path class="cls-1" d="M135.93,245.22a2.74,2.74,0,0,1,1.67.45,2.51,2.51,0,0,1,.88,1.22,4.87,4.87,0,0,1,.27,1.69V253a.58.58,0,0,1-.19.46.59.59,0,0,1-.45.2.63.63,0,0,1-.46-.2.61.61,0,0,1-.18-.46v-4.38a3.17,3.17,0,0,0-.18-1.1,1.61,1.61,0,0,0-.58-.78,1.83,1.83,0,0,0-1.11-.3,2.4,2.4,0,0,0-1.2.3,2.19,2.19,0,0,0-.87.78,2,2,0,0,0-.32,1.1V253a.65.65,0,0,1-.64.66h0a.59.59,0,0,1-.45-.2.58.58,0,0,1-.19-.46V242.4a.58.58,0,0,1,.19-.46.63.63,0,0,1,.45-.18.65.65,0,0,1,.47.18.66.66,0,0,1,.17.46v4.78l-.32.35a2.31,2.31,0,0,1,.35-.84,3.32,3.32,0,0,1,.69-.76,3.73,3.73,0,0,1,.93-.53A2.77,2.77,0,0,1,135.93,245.22Z"/><path class="cls-1" d="M145.26,253.78a4.61,4.61,0,0,1-2.24-.55,3.81,3.81,0,0,1-1.49-1.49,4.55,4.55,0,0,1-.53-2.2,4.9,4.9,0,0,1,.55-2.38,3.84,3.84,0,0,1,1.44-1.5,3.61,3.61,0,0,1,1.87-.52,3.9,3.9,0,0,1,1.43.27,3.77,3.77,0,0,1,1.22.79,4.08,4.08,0,0,1,1.19,2.87.59.59,0,0,1-.21.43.63.63,0,0,1-.45.18h-6.32l-.29-1.1h6.16l-.25.22v-.35a2,2,0,0,0-.43-1.13,2.62,2.62,0,0,0-.92-.73,2.59,2.59,0,0,0-1.13-.25,2.83,2.83,0,0,0-1,.16,2.4,2.4,0,0,0-.85.55,2.62,2.62,0,0,0-.6,1,4.07,4.07,0,0,0-.23,1.42,3.4,3.4,0,0,0,.38,1.63,2.82,2.82,0,0,0,1,1.11,2.9,2.9,0,0,0,1.55.41,3.06,3.06,0,0,0,1-.14,3.16,3.16,0,0,0,.71-.36,4.23,4.23,0,0,0,.51-.44.76.76,0,0,1,.41-.15.55.55,0,0,1,.55.55.62.62,0,0,1-.26.48,4.06,4.06,0,0,1-1.22.87A3.59,3.59,0,0,1,145.26,253.78Z"/><path class="cls-1" d="M151.58,253.62a.65.65,0,0,1-.64-.66h0v-7a.63.63,0,0,1,.18-.45.66.66,0,0,1,.46-.19.58.58,0,0,1,.46.19.63.63,0,0,1,.18.45v2.12l-.19-.34a3.48,3.48,0,0,1,.34-1,3.75,3.75,0,0,1,.63-.85,2.89,2.89,0,0,1,.88-.59,2.93,2.93,0,0,1,1.09-.21,1.33,1.33,0,0,1,.65.16.52.52,0,0,1,.29.48.57.57,0,0,1-.57.65.9.9,0,0,1-.4-.09,1.31,1.31,0,0,0-.48-.08,1.56,1.56,0,0,0-.79.21,2.52,2.52,0,0,0-.72.62,3.39,3.39,0,0,0-.53.9,2.66,2.66,0,0,0-.2,1.08v3.89a.77.77,0,0,1-.64.71Z"/><path class="cls-1" d="M157.29,252.3a.64.64,0,0,1-.13-.44.52.52,0,0,1,.27-.4.58.58,0,0,1,.38-.1.61.61,0,0,1,.39.21,3.67,3.67,0,0,0,1,.84,2.92,2.92,0,0,0,2.17.18,1.4,1.4,0,0,0,.65-.39,1,1,0,0,0,.26-.74,1,1,0,0,0-.27-.72,2.1,2.1,0,0,0-.7-.43,6.49,6.49,0,0,0-.95-.29c-.35-.1-.69-.21-1-.33a4,4,0,0,1-.92-.47,2.07,2.07,0,0,1-.65-.7,2,2,0,0,1-.25-1,2,2,0,0,1,.39-1.25,2.72,2.72,0,0,1,1.09-.87,3.6,3.6,0,0,1,1.45-.28,4.2,4.2,0,0,1,.93.1,3.62,3.62,0,0,1,.95.35,2.57,2.57,0,0,1,.82.68.59.59,0,0,1,.16.4.49.49,0,0,1-.21.43.55.55,0,0,1-.39.12.62.62,0,0,1-.36-.16,2.07,2.07,0,0,0-.84-.62,2.82,2.82,0,0,0-1.11-.22,2.4,2.4,0,0,0-.75.12,1.36,1.36,0,0,0-.62.37,1,1,0,0,0-.25.73,1,1,0,0,0,.29.7,1.92,1.92,0,0,0,.74.44,9,9,0,0,0,1,.33c.34.09.67.19,1,.3a3.33,3.33,0,0,1,.86.44,1.84,1.84,0,0,1,.61.69,2.31,2.31,0,0,1,.22,1.07,2.07,2.07,0,0,1-.41,1.27,2.7,2.7,0,0,1-1.1.82,3.83,3.83,0,0,1-1.46.28,4.69,4.69,0,0,1-1.74-.34A3.39,3.39,0,0,1,157.29,252.3Z"/><path class="cls-1" d="M173.93,245.14a3.4,3.4,0,0,1,1.3.23,3.64,3.64,0,0,1,1,.6,3.37,3.37,0,0,1,.69.77,1.42,1.42,0,0,1,.24.75l-.32-.19v-1.4a.66.66,0,0,1,.64-.64.59.59,0,0,1,.47.19.58.58,0,0,1,.17.45v7a4,4,0,0,1-.55,2.18,3.43,3.43,0,0,1-1.45,1.32,4.74,4.74,0,0,1-2.06.44,5.49,5.49,0,0,1-1.07-.13,7.21,7.21,0,0,1-1-.31,1.2,1.2,0,0,1-.56-.38.65.65,0,0,1-.29-.36.5.5,0,0,1,0-.38.47.47,0,0,1,.39-.22,1.59,1.59,0,0,1,.57.14l.47.16a4.29,4.29,0,0,0,.7.2,3.46,3.46,0,0,0,.78.09,2.83,2.83,0,0,0,2.08-.71,2.53,2.53,0,0,0,.72-1.88v-1.49l.18.08a2,2,0,0,1-.38.83,2.74,2.74,0,0,1-.72.68,3.31,3.31,0,0,1-.94.47,3.39,3.39,0,0,1-1.05.17,3.8,3.8,0,0,1-2-.56,4,4,0,0,1-1.4-1.54,5,5,0,0,1,0-4.46,3.82,3.82,0,0,1,1.4-1.53A3.6,3.6,0,0,1,173.93,245.14Zm.18,1.18a2.67,2.67,0,0,0-1.48.41,2.82,2.82,0,0,0-1,1.11,3.69,3.69,0,0,0,0,3.21,3,3,0,0,0,1,1.13,2.67,2.67,0,0,0,1.48.41,2.64,2.64,0,0,0,1.47-.41,3,3,0,0,0,1-1.11,3.45,3.45,0,0,0,.36-1.61,3.57,3.57,0,0,0-.36-1.64,2.86,2.86,0,0,0-1-1.1A2.71,2.71,0,0,0,174.11,246.32Z"/><path class="cls-1" d="M184.35,253.78a4.4,4.4,0,0,1-2.24-.55,3.81,3.81,0,0,1-1.49-1.49,4.55,4.55,0,0,1-.53-2.2,4.69,4.69,0,0,1,.55-2.38,3.89,3.89,0,0,1,1.43-1.5,3.67,3.67,0,0,1,1.88-.52,3.9,3.9,0,0,1,1.43.27,3.82,3.82,0,0,1,2.07,2,4.09,4.09,0,0,1,.34,1.62.59.59,0,0,1-.21.43.63.63,0,0,1-.45.18h-6.32l-.29-1.1h6.16l-.25.22v-.35a2.1,2.1,0,0,0-.43-1.13,2.58,2.58,0,0,0-2-1,2.83,2.83,0,0,0-1,.16,2.36,2.36,0,0,0-.84.55,2.62,2.62,0,0,0-.6,1,4.07,4.07,0,0,0-.23,1.42,3.4,3.4,0,0,0,.38,1.63,2.86,2.86,0,0,0,2.6,1.52,3.06,3.06,0,0,0,1-.14,3.16,3.16,0,0,0,.71-.36,4.23,4.23,0,0,0,.51-.44.69.69,0,0,1,.41-.15.55.55,0,0,1,.55.55h0a.62.62,0,0,1-.26.48,4.3,4.3,0,0,1-1.21.86A3.59,3.59,0,0,1,184.35,253.78Z"/><path class="cls-1" d="M189.71,245.4h3.76a.53.53,0,0,1,.42.18.58.58,0,0,1,.17.41.61.61,0,0,1-.17.43.59.59,0,0,1-.42.17h-3.76a.6.6,0,0,1-.42-.18.58.58,0,0,1-.18-.43.52.52,0,0,1,.18-.41A.59.59,0,0,1,189.71,245.4Zm1.68-2.17a.55.55,0,0,1,.44.18.61.61,0,0,1,.18.46v7.72a1.28,1.28,0,0,0,.11.58.59.59,0,0,0,.3.26.9.9,0,0,0,.36.08.66.66,0,0,0,.24-.11.67.67,0,0,1,.28-.06.41.41,0,0,1,.29.16.62.62,0,0,1,.14.39.57.57,0,0,1-.34.49,1.53,1.53,0,0,1-.75.2h-.55a1.82,1.82,0,0,1-.65-.2,1.44,1.44,0,0,1-.53-.59,2.37,2.37,0,0,1-.22-1.14v-7.79a.58.58,0,0,1,.19-.46.65.65,0,0,1,.51-.18Z"/><path class="cls-1" d="M196.09,252.3a.64.64,0,0,1-.13-.44.52.52,0,0,1,.27-.4.58.58,0,0,1,.38-.1.61.61,0,0,1,.39.21,3.67,3.67,0,0,0,1,.84,2.92,2.92,0,0,0,2.17.18,1.4,1.4,0,0,0,.65-.39,1,1,0,0,0,.26-.74,1,1,0,0,0-.27-.72,2.1,2.1,0,0,0-.7-.43,7.12,7.12,0,0,0-1-.29c-.35-.1-.69-.21-1-.33a4,4,0,0,1-.92-.47,2.07,2.07,0,0,1-.65-.7,2,2,0,0,1-.25-1,2,2,0,0,1,.39-1.25,2.67,2.67,0,0,1,1.06-.82,3.6,3.6,0,0,1,1.45-.28,4.2,4.2,0,0,1,.93.1,4,4,0,0,1,1,.35,2.57,2.57,0,0,1,.82.68.59.59,0,0,1,.16.4.49.49,0,0,1-.21.43.55.55,0,0,1-.39.12.62.62,0,0,1-.36-.16,2.07,2.07,0,0,0-.84-.62,2.82,2.82,0,0,0-1.11-.22,2.4,2.4,0,0,0-.75.12,1.36,1.36,0,0,0-.62.37,1,1,0,0,0-.25.73,1,1,0,0,0,.29.7,1.92,1.92,0,0,0,.74.44,9,9,0,0,0,1,.33c.34.09.67.19,1,.3a3.33,3.33,0,0,1,.86.44,1.84,1.84,0,0,1,.61.69,2.31,2.31,0,0,1,.22,1.07,2.07,2.07,0,0,1-.41,1.27,2.7,2.7,0,0,1-1.1.82,3.83,3.83,0,0,1-1.46.28,4.69,4.69,0,0,1-1.74-.34A3.43,3.43,0,0,1,196.09,252.3Z"/><path class="cls-1" d="M213.29,245.22a2.51,2.51,0,0,1,2.67,2.11h-.24l.11-.29a2.42,2.42,0,0,1,.66-.86,4.17,4.17,0,0,1,1.07-.69,3.08,3.08,0,0,1,1.27-.27,2.78,2.78,0,0,1,1.66.45,2.49,2.49,0,0,1,.87,1.22,4.92,4.92,0,0,1,.27,1.7V253a.66.66,0,0,1-.19.46.59.59,0,0,1-.45.2.63.63,0,0,1-.64-.66v-4.34a3.3,3.3,0,0,0-.19-1.12,1.62,1.62,0,0,0-.59-.8,1.83,1.83,0,0,0-1.11-.3,2.45,2.45,0,0,0-2.07,1.1,2.09,2.09,0,0,0-.32,1.12V253a.63.63,0,0,1-.64.66.59.59,0,0,1-.45-.2.58.58,0,0,1-.19-.46v-4.38a3.45,3.45,0,0,0-.16-1.1,1.71,1.71,0,0,0-.57-.78,1.83,1.83,0,0,0-1.11-.3,2.33,2.33,0,0,0-1.16.3,2.2,2.2,0,0,0-.85.78,1.89,1.89,0,0,0-.32,1.1V253a.58.58,0,0,1-.19.46.59.59,0,0,1-.45.2.63.63,0,0,1-.46-.2.61.61,0,0,1-.18-.46v-7a.63.63,0,0,1,.18-.45.65.65,0,0,1,.92,0,.63.63,0,0,1,.18.45v1.22l-.35.38a2.21,2.21,0,0,1,.32-.83,3.58,3.58,0,0,1,.68-.77,3.66,3.66,0,0,1,.93-.56A2.9,2.9,0,0,1,213.29,245.22Z"/><path class="cls-1" d="M232.17,249.46a4.53,4.53,0,0,1-.54,2.22,4.2,4.2,0,0,1-1.48,1.54,4.26,4.26,0,0,1-4.23,0,4.31,4.31,0,0,1-1.49-1.54,4.79,4.79,0,0,1,0-4.45,4.13,4.13,0,0,1,1.49-1.53,4.26,4.26,0,0,1,4.23,0,4.1,4.1,0,0,1,1.48,1.53A4.54,4.54,0,0,1,232.17,249.46Zm-1.28,0a3.47,3.47,0,0,0-.38-1.64,2.75,2.75,0,0,0-3.92-1.1,2.79,2.79,0,0,0-1,1.1,3.47,3.47,0,0,0-.38,1.64,3.35,3.35,0,0,0,.38,1.61,2.74,2.74,0,0,0,3.92,1.11,2.88,2.88,0,0,0,1-1.11A3.35,3.35,0,0,0,230.89,249.46Z"/><path class="cls-1" d="M235.07,253.62a.65.65,0,0,1-.64-.66v-7a.63.63,0,0,1,.18-.45.66.66,0,0,1,.92,0h0a.63.63,0,0,1,.18.45v2.12l-.2-.34a3.83,3.83,0,0,1,.35-1,3.08,3.08,0,0,1,.63-.85,2.89,2.89,0,0,1,.88-.59,2.93,2.93,0,0,1,1.09-.21,1.32,1.32,0,0,1,.64.16.55.55,0,0,1,.3.48.67.67,0,0,1-.17.49.59.59,0,0,1-.4.16.9.9,0,0,1-.4-.09,1.31,1.31,0,0,0-.48-.08,1.62,1.62,0,0,0-.8.21,2.52,2.52,0,0,0-.72.62,3.11,3.11,0,0,0-.52.9,2.66,2.66,0,0,0-.2,1.08v3.89a.66.66,0,0,1-.19.46A.58.58,0,0,1,235.07,253.62Z"/><path class="cls-1" d="M244.63,253.78a4.61,4.61,0,0,1-2.24-.55,3.79,3.79,0,0,1-1.48-1.49,4.32,4.32,0,0,1-.53-2.2,4.69,4.69,0,0,1,.55-2.38,3.82,3.82,0,0,1,1.43-1.5,3.61,3.61,0,0,1,1.87-.52,4,4,0,0,1,1.44.27,3.73,3.73,0,0,1,1.21.79,4,4,0,0,1,.86,1.25,4.08,4.08,0,0,1,.33,1.62.64.64,0,0,1-.2.43.63.63,0,0,1-.45.18H241.1l-.29-1.1H247l-.26.22v-.35a2,2,0,0,0-.42-1.13,2.62,2.62,0,0,0-2.06-1,2.83,2.83,0,0,0-1,.16,2.4,2.4,0,0,0-.85.55,2.62,2.62,0,0,0-.6,1,4.06,4.06,0,0,0-.22,1.42,3.29,3.29,0,0,0,.38,1.63,2.82,2.82,0,0,0,1,1.11,2.94,2.94,0,0,0,1.56.41,3.06,3.06,0,0,0,1-.14,3.16,3.16,0,0,0,.71-.36,3.5,3.5,0,0,0,.5-.44.72.72,0,0,1,.42-.15.55.55,0,0,1,.54.55.61.61,0,0,1-.25.48,4.1,4.1,0,0,1-1.23.87A3.59,3.59,0,0,1,244.63,253.78Z"/><path class="cls-1" d="M254.79,245.4h3.76a.58.58,0,0,1,.43.18.63.63,0,0,1,0,.84.61.61,0,0,1-.43.17h-3.76a.52.52,0,0,1-.41-.18.58.58,0,0,1-.18-.43.52.52,0,0,1,.18-.41A.58.58,0,0,1,254.79,245.4Zm1.68-2.17a.63.63,0,0,1,.45.18.61.61,0,0,1,.18.46v7.72a1.06,1.06,0,0,0,.11.58.51.51,0,0,0,.3.26.9.9,0,0,0,.36.08.63.63,0,0,0,.27-.06.72.72,0,0,1,.29-.06.41.41,0,0,1,.29.16.62.62,0,0,1,.14.39.57.57,0,0,1-.34.49,1.53,1.53,0,0,1-.75.2h-.55a1.64,1.64,0,0,1-.65-.2,1.46,1.46,0,0,1-.54-.59,2.49,2.49,0,0,1-.21-1.14v-7.79a.59.59,0,0,1,.2-.51.63.63,0,0,1,.45-.18Z"/><path class="cls-1" d="M261.91,244.14a.88.88,0,0,1-.59-.16.57.57,0,0,1-.19-.49v-.23a.55.55,0,0,1,.21-.49.88.88,0,0,1,.59-.16.86.86,0,0,1,.58.16.65.65,0,0,1,.19.49v.23a.6.6,0,0,1-.2.49A.88.88,0,0,1,261.91,244.14Zm.64,8.82a.61.61,0,0,1-.18.46.63.63,0,0,1-.46.2.65.65,0,0,1-.64-.66v-7.1a.58.58,0,0,1,.19-.46.63.63,0,0,1,.45-.18.62.62,0,0,1,.64.64Z"/><path class="cls-1" d="M269.21,245.22a2.51,2.51,0,0,1,2.67,2.11h-.24l.11-.29a2.42,2.42,0,0,1,.66-.86,4.17,4.17,0,0,1,1.07-.69,3.07,3.07,0,0,1,1.26-.27,2.74,2.74,0,0,1,1.67.45,2.6,2.6,0,0,1,.87,1.22,5.16,5.16,0,0,1,.26,1.7V253a.61.61,0,0,1-.18.46.63.63,0,0,1-.89,0l0,0a.61.61,0,0,1-.18-.46v-4.34a3.29,3.29,0,0,0-.18-1.12,1.62,1.62,0,0,0-.59-.8,1.83,1.83,0,0,0-1.11-.3,2.4,2.4,0,0,0-1.2.3,2.16,2.16,0,0,0-.87.8,2.09,2.09,0,0,0-.32,1.12V253a.71.71,0,0,1-.17.46.63.63,0,0,1-.47.2.59.59,0,0,1-.45-.2.58.58,0,0,1-.19-.46v-4.38a3.16,3.16,0,0,0-.17-1.1,1.57,1.57,0,0,0-.56-.78,1.83,1.83,0,0,0-1.11-.3,2.4,2.4,0,0,0-1.17.3,2.25,2.25,0,0,0-.84.78,1.89,1.89,0,0,0-.32,1.1V253a.58.58,0,0,1-.19.46.59.59,0,0,1-.45.2.63.63,0,0,1-.46-.2.61.61,0,0,1-.18-.46v-7a.63.63,0,0,1,.18-.45.65.65,0,0,1,.92,0,.63.63,0,0,1,.18.45v1.22l-.36.38a2.49,2.49,0,0,1,.33-.83,3.58,3.58,0,0,1,.68-.77,3.66,3.66,0,0,1,.93-.56A2.9,2.9,0,0,1,269.21,245.22Z"/><path class="cls-1" d="M284,253.78a4.4,4.4,0,0,1-2.24-.55,3.81,3.81,0,0,1-1.49-1.49,4.55,4.55,0,0,1-.53-2.2,4.69,4.69,0,0,1,.55-2.38,3.89,3.89,0,0,1,1.43-1.5,3.67,3.67,0,0,1,1.88-.52,3.9,3.9,0,0,1,1.43.27,3.82,3.82,0,0,1,2.07,2,4.09,4.09,0,0,1,.34,1.62.59.59,0,0,1-.21.43.63.63,0,0,1-.45.18h-6.28l-.29-1.1h6.16l-.25.22v-.35a2.1,2.1,0,0,0-.43-1.13,2.62,2.62,0,0,0-.92-.73,2.59,2.59,0,0,0-1.13-.25,2.83,2.83,0,0,0-1,.16,2.4,2.4,0,0,0-.85.55,2.62,2.62,0,0,0-.6,1,3.88,3.88,0,0,0-.24,1.35,3.4,3.4,0,0,0,.38,1.63,2.86,2.86,0,0,0,2.6,1.52,3.06,3.06,0,0,0,1-.14,3.16,3.16,0,0,0,.71-.36,4.23,4.23,0,0,0,.51-.44.69.69,0,0,1,.41-.15.55.55,0,0,1,.55.55.62.62,0,0,1-.26.48,4.38,4.38,0,0,1-1.22.87A3.64,3.64,0,0,1,284,253.78Z"/><path class="cls-1" d="M16.61,265.4h3.76a.58.58,0,0,1,.43.18.63.63,0,0,1,0,.84.63.63,0,0,1-.43.17H16.61a.53.53,0,0,1-.41-.19A.58.58,0,0,1,16,266a.52.52,0,0,1,.18-.41A.57.57,0,0,1,16.61,265.4Zm1.68-2.17a.63.63,0,0,1,.45.18.61.61,0,0,1,.18.46v7.72a1.06,1.06,0,0,0,.11.58.53.53,0,0,0,.29.26.9.9,0,0,0,.36.08.67.67,0,0,0,.28-.06.67.67,0,0,1,.28-.06.37.37,0,0,1,.3.16.62.62,0,0,1,.14.39.61.61,0,0,1-.34.49,1.53,1.53,0,0,1-.75.2H19a1.64,1.64,0,0,1-.65-.2,1.46,1.46,0,0,1-.54-.59,2.49,2.49,0,0,1-.21-1.14v-7.79a.58.58,0,0,1,.19-.46.64.64,0,0,1,.46-.23Z"/><path class="cls-1" d="M30.84,269.46a4.54,4.54,0,0,1-.55,2.22,4.15,4.15,0,0,1-5.67,1.55h0a4.15,4.15,0,0,1-1.49-1.54,4.79,4.79,0,0,1,0-4.45,4.13,4.13,0,0,1,1.49-1.53,4.17,4.17,0,0,1,5.7,1.53A4.55,4.55,0,0,1,30.84,269.46Zm-1.28,0a3.47,3.47,0,0,0-.38-1.64,2.86,2.86,0,0,0-1-1.1,2.71,2.71,0,0,0-1.47-.4,2.67,2.67,0,0,0-1.45.4,2.79,2.79,0,0,0-1,1.1,3.75,3.75,0,0,0,0,3.25,2.82,2.82,0,0,0,1,1.11,2.57,2.57,0,0,0,1.45.41,2.64,2.64,0,0,0,1.47-.41,2.88,2.88,0,0,0,1-1.11A3.35,3.35,0,0,0,29.56,269.46Z"/><path class="cls-1" d="M38.48,264.14a.88.88,0,0,1-.59-.16.57.57,0,0,1-.19-.49v-.23a.55.55,0,0,1,.21-.49.88.88,0,0,1,.59-.16.86.86,0,0,1,.58.16.65.65,0,0,1,.19.49v.23a.6.6,0,0,1-.2.49A.88.88,0,0,1,38.48,264.14Zm.64,8.82a.61.61,0,0,1-.18.46.63.63,0,0,1-.89,0l0,0a.61.61,0,0,1-.18-.46v-7.1a.61.61,0,0,1,.18-.46.64.64,0,0,1,1.09.42V273Z"/><path class="cls-1" d="M45.94,265.14a2.94,2.94,0,0,1,1.71.44,2.47,2.47,0,0,1,.89,1.2,5,5,0,0,1,.26,1.68V273a.61.61,0,0,1-.18.46.63.63,0,0,1-.46.2.59.59,0,0,1-.45-.2.58.58,0,0,1-.19-.46V268.5a3.17,3.17,0,0,0-.18-1.1,1.57,1.57,0,0,0-.61-.78,2,2,0,0,0-1.16-.3,2.52,2.52,0,0,0-1.23.3,2.42,2.42,0,0,0-.9.78,2,2,0,0,0-.33,1.1V273a.58.58,0,0,1-.19.46.59.59,0,0,1-.45.2.65.65,0,0,1-.45-.22.61.61,0,0,1-.18-.46v-7a.63.63,0,0,1,.18-.45.65.65,0,0,1,.92,0,.63.63,0,0,1,.18.45v1.14l-.32.35a2.19,2.19,0,0,1,.37-.84,3.53,3.53,0,0,1,1.68-1.29A2.89,2.89,0,0,1,45.94,265.14Z"/><path class="cls-1" d="M51.25,265.4H55a.58.58,0,0,1,.43.18.63.63,0,0,1,0,.84.63.63,0,0,1-.43.17H51.25a.52.52,0,0,1-.41-.18.58.58,0,0,1-.18-.43.52.52,0,0,1,.18-.41A.58.58,0,0,1,51.25,265.4Zm1.68-2.17a.63.63,0,0,1,.45.18.61.61,0,0,1,.18.46v7.72a1.06,1.06,0,0,0,.11.58.53.53,0,0,0,.29.26.9.9,0,0,0,.36.08.67.67,0,0,0,.28-.06.67.67,0,0,1,.28-.06.37.37,0,0,1,.3.16.62.62,0,0,1,.14.39.61.61,0,0,1-.3.46,1.53,1.53,0,0,1-.75.2h-.55a1.94,1.94,0,0,1-.7-.2,1.46,1.46,0,0,1-.54-.59,2.49,2.49,0,0,1-.21-1.14v-7.79a.58.58,0,0,1,.19-.46.63.63,0,0,1,.47-.2Z"/><path class="cls-1" d="M61.44,273.78a4.61,4.61,0,0,1-2.24-.55,3.79,3.79,0,0,1-1.48-1.49,4.32,4.32,0,0,1-.53-2.2,4.69,4.69,0,0,1,.55-2.38,3.82,3.82,0,0,1,1.43-1.5,3.61,3.61,0,0,1,1.87-.52,4,4,0,0,1,1.44.27,3.73,3.73,0,0,1,1.21.79,4,4,0,0,1,.86,1.25,4.08,4.08,0,0,1,.33,1.62.64.64,0,0,1-.2.43.63.63,0,0,1-.45.18H57.91l-.29-1.1h6.16l-.26.22v-.35a2,2,0,0,0-.42-1.13,2.64,2.64,0,0,0-2.06-1,2.83,2.83,0,0,0-1,.16,2.4,2.4,0,0,0-.85.55,2.62,2.62,0,0,0-.6,1,4,4,0,0,0-.17,1.37A3.29,3.29,0,0,0,58.8,271a2.82,2.82,0,0,0,1,1.11,2.94,2.94,0,0,0,1.56.41,3.06,3.06,0,0,0,1-.14,3.16,3.16,0,0,0,.71-.36,3.5,3.5,0,0,0,.5-.44.72.72,0,0,1,.42-.15.55.55,0,0,1,.54.55.61.61,0,0,1-.25.48,4.1,4.1,0,0,1-1.23.87A3.64,3.64,0,0,1,61.44,273.78Z"/><path class="cls-1" d="M67.76,273.62a.59.59,0,0,1-.45-.2.58.58,0,0,1-.19-.46v-7a.66.66,0,0,1,.64-.64.59.59,0,0,1,.47.19.66.66,0,0,1,.17.45v2.12l-.19-.34a3.83,3.83,0,0,1,.35-1,3.08,3.08,0,0,1,.63-.85,2.89,2.89,0,0,1,.88-.59,2.93,2.93,0,0,1,1.09-.21,1.32,1.32,0,0,1,.64.16.55.55,0,0,1,.3.48.6.6,0,0,1-.18.49.55.55,0,0,1-.4.16.9.9,0,0,1-.4-.09,1.31,1.31,0,0,0-.48-.08,1.66,1.66,0,0,0-.79.21,2.52,2.52,0,0,0-.72.62,3.55,3.55,0,0,0-.53.9,3,3,0,0,0-.2,1.08v3.89a.74.74,0,0,1-.64.71Z"/><path class="cls-1" d="M80.48,265.26a.59.59,0,0,1,.47.19.66.66,0,0,1,.17.45V273a.61.61,0,0,1-.18.46.63.63,0,0,1-.46.2.7.7,0,0,1-.65-.68V271.4h.31a1.62,1.62,0,0,1-.24.77,3.25,3.25,0,0,1-.66.77,3.61,3.61,0,0,1-1,.59,3.2,3.2,0,0,1-1.22.24,3.45,3.45,0,0,1-2-.57,3.87,3.87,0,0,1-1.37-1.55,4.74,4.74,0,0,1-.49-2.22,4.67,4.67,0,0,1,.5-2.23A3.91,3.91,0,0,1,75,265.68a3.73,3.73,0,0,1,3.21-.33,3.2,3.2,0,0,1,1,.61,2.93,2.93,0,0,1,.68.85,2,2,0,0,1,.24.92l-.42-.09V265.9a.55.55,0,0,1,.19-.45A.61.61,0,0,1,80.48,265.26Zm-3.29,7.33a2.52,2.52,0,0,0,1.41-.41,2.87,2.87,0,0,0,1-1.13,4.08,4.08,0,0,0,0-3.24,2.71,2.71,0,0,0-1-1.12,2.52,2.52,0,0,0-1.41-.41,2.48,2.48,0,0,0-1.4.4,2.79,2.79,0,0,0-1,1.1,3.88,3.88,0,0,0,0,3.23,2.87,2.87,0,0,0,1,1.13A2.52,2.52,0,0,0,77.19,272.59Z"/><path class="cls-1" d="M87.49,265.14a5.58,5.58,0,0,1,1.47.17,2.89,2.89,0,0,1,1,.48.87.87,0,0,1,.39.69.67.67,0,0,1-.14.4.44.44,0,0,1-.39.19.57.57,0,0,1-.34-.08.75.75,0,0,1-.26-.21,1.19,1.19,0,0,0-.33-.22,1.84,1.84,0,0,0-.56-.18,4.74,4.74,0,0,0-.75-.06,2.88,2.88,0,0,0-1.54.42,2.84,2.84,0,0,0-1,1.12,3.28,3.28,0,0,0-.38,1.6,3.39,3.39,0,0,0,.37,1.6,2.91,2.91,0,0,0,1,1.12,2.8,2.8,0,0,0,1.52.41,3.32,3.32,0,0,0,.89-.09,2.83,2.83,0,0,0,.57-.23,1.46,1.46,0,0,0,.42-.32.58.58,0,0,1,.43-.16.49.49,0,0,1,.41.18.66.66,0,0,1,.15.43.91.91,0,0,1-.4.61,3.65,3.65,0,0,1-1.08.54,4.94,4.94,0,0,1-1.53.23,3.85,3.85,0,0,1-3.55-2.12,4.79,4.79,0,0,1-.5-2.2,4.66,4.66,0,0,1,.52-2.2,4.08,4.08,0,0,1,1.45-1.55A4,4,0,0,1,87.49,265.14Z"/><path class="cls-1" d="M92.19,265.4H96a.53.53,0,0,1,.42.18.58.58,0,0,1,.17.41.61.61,0,0,1-.17.43.59.59,0,0,1-.42.17H92.19a.62.62,0,0,1-.59-.61.52.52,0,0,1,.18-.41A.58.58,0,0,1,92.19,265.4Zm1.68-2.17a.59.59,0,0,1,.45.18.61.61,0,0,1,.18.46v7.72a1.28,1.28,0,0,0,.11.58.55.55,0,0,0,.3.26.9.9,0,0,0,.36.08.67.67,0,0,0,.28-.06.67.67,0,0,1,.28-.06.41.41,0,0,1,.29.16.62.62,0,0,1,.14.39.57.57,0,0,1-.34.49,1.53,1.53,0,0,1-.75.2h-.55a1.82,1.82,0,0,1-.6-.23,1.44,1.44,0,0,1-.53-.59,2.37,2.37,0,0,1-.22-1.14v-7.79a.58.58,0,0,1,.19-.46.64.64,0,0,1,.41-.2Z"/><path class="cls-1" d="M113.28,265.2a.6.6,0,0,1,.44.18.58.58,0,0,1,.19.46v.27l-2.46,7.09a.76.76,0,0,1-.27.32.67.67,0,0,1-.39.1.62.62,0,0,1-.56-.42l-2-5.06h.32l-1.82,5a.61.61,0,0,1-.56.42.7.7,0,0,1-.4-.1.63.63,0,0,1-.26-.32L103,266.05a1.22,1.22,0,0,1,0-.27.62.62,0,0,1,0-.38.69.69,0,0,1,.83-.09.46.46,0,0,1,.22.3l2.16,6.3h-.33l1.87-4.8a.65.65,0,0,1,1-.3.55.55,0,0,1,.2.3l2,4.8h-.41l2.16-6.32A.58.58,0,0,1,113.28,265.2Z"/><path class="cls-1" d="M116.63,264.14A.88.88,0,0,1,116,264a.6.6,0,0,1-.2-.49v-.23a.55.55,0,0,1,.21-.49.94.94,0,0,1,.59-.16.86.86,0,0,1,.58.16.57.57,0,0,1,.19.49v.23a.6.6,0,0,1-.2.49A.86.86,0,0,1,116.63,264.14Zm.64,8.82a.58.58,0,0,1-.19.46.59.59,0,0,1-.45.2.63.63,0,0,1-.47-.2A.71.71,0,0,1,116,273v-7.1a.62.62,0,0,1,.64-.64.63.63,0,0,1,.45.18.58.58,0,0,1,.19.46Z"/><path class="cls-1" d="M119.65,265.4h3.76a.61.61,0,0,1,.59.59.54.54,0,0,1-.17.43.59.59,0,0,1-.42.17h-3.76a.6.6,0,0,1-.42-.18.63.63,0,0,1-.17-.43.58.58,0,0,1,.17-.41A.59.59,0,0,1,119.65,265.4Zm1.68-2.17a.6.6,0,0,1,.62.58v7.78a1.17,1.17,0,0,0,.12.58.53.53,0,0,0,.29.26.9.9,0,0,0,.36.08.64.64,0,0,0,.3-.11.67.67,0,0,1,.28-.06.37.37,0,0,1,.3.16.56.56,0,0,1,.13.39.58.58,0,0,1-.33.49,1.53,1.53,0,0,1-.75.2h-.56a1.84,1.84,0,0,1-.64-.2,1.34,1.34,0,0,1-.54-.59,2.5,2.5,0,0,1-.22-1.14v-7.79a.61.61,0,0,1,.2-.46.62.62,0,0,1,.44-.18Z"/><path class="cls-1" d="M130.18,265.22a2.81,2.81,0,0,1,1.67.45,2.51,2.51,0,0,1,.88,1.22,5.1,5.1,0,0,1,.26,1.69V273a.65.65,0,0,1-.64.66.59.59,0,0,1-.45-.2.66.66,0,0,1-.19-.46v-4.38a3.16,3.16,0,0,0-.17-1.1,1.53,1.53,0,0,0-.59-.78,1.83,1.83,0,0,0-1.11-.3,2.51,2.51,0,0,0-1.2.3,2.23,2.23,0,0,0-.86.78,1.89,1.89,0,0,0-.32,1.1V273a.58.58,0,0,1-.19.46.59.59,0,0,1-.45.2.65.65,0,0,1-.64-.66h0V262.4a.61.61,0,0,1,.18-.46.65.65,0,0,1,.46-.18.62.62,0,0,1,.64.64v4.78l-.32.35a2.31,2.31,0,0,1,.35-.84,3.32,3.32,0,0,1,.69-.76,3.73,3.73,0,0,1,.93-.53A2.8,2.8,0,0,1,130.18,265.22Z"/><path class="cls-1" d="M140.1,272.3a.64.64,0,0,1-.13-.44.52.52,0,0,1,.27-.4.58.58,0,0,1,.38-.1.61.61,0,0,1,.39.21,3.67,3.67,0,0,0,1,.84,3,3,0,0,0,2.18.18,1.4,1.4,0,0,0,.65-.39,1.05,1.05,0,0,0,.26-.74,1,1,0,0,0-.27-.72,2.1,2.1,0,0,0-.7-.43,8,8,0,0,0-.95-.29c-.35-.1-.7-.21-1-.33a3.48,3.48,0,0,1-.92-.47,2.07,2.07,0,0,1-.65-.7,2,2,0,0,1-.25-1,2,2,0,0,1,.39-1.25,2.67,2.67,0,0,1,1.06-.82,3.59,3.59,0,0,1,1.44-.28,4.23,4.23,0,0,1,.94.1,3.62,3.62,0,0,1,.95.35,2.81,2.81,0,0,1,.82.68.65.65,0,0,1,.16.4.49.49,0,0,1-.21.43.55.55,0,0,1-.39.12.54.54,0,0,1-.36-.16,2.33,2.33,0,0,0-.84-.62,2.82,2.82,0,0,0-1.11-.22,2.46,2.46,0,0,0-.76.12,1.38,1.38,0,0,0-.61.37,1,1,0,0,0-.25.73,1,1,0,0,0,.29.7,2,2,0,0,0,.73.44,9,9,0,0,0,1,.33c.34.09.67.19,1,.3a3.33,3.33,0,0,1,.86.44,2.13,2.13,0,0,1,.61.69,2.31,2.31,0,0,1,.22,1.07,2,2,0,0,1-.42,1.27,2.53,2.53,0,0,1-1.09.82,4.13,4.13,0,0,1-1.47.28,4.89,4.89,0,0,1-1.73-.34A3.37,3.37,0,0,1,140.1,272.3Z"/><path class="cls-1" d="M148.23,265.4H152a.53.53,0,0,1,.42.18.58.58,0,0,1,.17.41.61.61,0,0,1-.17.43.59.59,0,0,1-.42.17h-3.76a.6.6,0,0,1-.42-.18.58.58,0,0,1-.18-.43.52.52,0,0,1,.18-.41A.63.63,0,0,1,148.23,265.4Zm1.68-2.17a.55.55,0,0,1,.44.18.61.61,0,0,1,.18.46v7.72a1.28,1.28,0,0,0,.11.58.59.59,0,0,0,.3.26.9.9,0,0,0,.36.08.67.67,0,0,0,.28-.06.67.67,0,0,1,.28-.06.41.41,0,0,1,.29.16.62.62,0,0,1,.14.39.57.57,0,0,1-.34.49,1.53,1.53,0,0,1-.75.2h-.55a1.82,1.82,0,0,1-.65-.2,1.44,1.44,0,0,1-.53-.59,2.37,2.37,0,0,1-.22-1.14v-7.79a.58.58,0,0,1,.19-.46.66.66,0,0,1,.47-.23Z"/><path class="cls-1" d="M161,265.34a.58.58,0,0,1,.46.19.63.63,0,0,1,.18.45v4.42a3.42,3.42,0,0,1-.91,2.51,4,4,0,0,1-5,0,3.42,3.42,0,0,1-.91-2.51V266a.64.64,0,0,1,.19-.45.55.55,0,0,1,.45-.19.59.59,0,0,1,.47.19.58.58,0,0,1,.17.45v4.37a2.26,2.26,0,0,0,.56,1.65,2.16,2.16,0,0,0,1.57.56,2.12,2.12,0,0,0,1.59-.56,2.26,2.26,0,0,0,.56-1.65V266a.63.63,0,0,1,.18-.45A.58.58,0,0,1,161,265.34Z"/><path class="cls-1" d="M171.09,261.78a.62.62,0,0,1,.64.64V273a.64.64,0,0,1-.64.64.64.64,0,0,1-.64-.64h0V271.4l.3-.11a1.76,1.76,0,0,1-.23.81,2.92,2.92,0,0,1-.65.79,3.94,3.94,0,0,1-1,.61,3.11,3.11,0,0,1-1.21.24,3.54,3.54,0,0,1-2-.56,4,4,0,0,1-1.36-1.54,5.13,5.13,0,0,1,0-4.46,3.93,3.93,0,0,1,1.36-1.53,3.55,3.55,0,0,1,4.21.28,3.18,3.18,0,0,1,.7.85,2,2,0,0,1,.25.92l-.42-.09V262.4a.61.61,0,0,1,.18-.46A.67.67,0,0,1,171.09,261.78Zm-3.3,10.81a2.49,2.49,0,0,0,1.43-.41,2.84,2.84,0,0,0,1-1.12,3.85,3.85,0,0,0,0-3.22,2.82,2.82,0,0,0-1-1.11,2.62,2.62,0,0,0-2.82,0,2.68,2.68,0,0,0-1,1.11,3.76,3.76,0,0,0,0,3.21,2.87,2.87,0,0,0,1,1.13A2.54,2.54,0,0,0,167.79,272.59Z"/><path class="cls-1" d="M178.24,273.78a4.61,4.61,0,0,1-2.24-.55,4,4,0,0,1-1.49-1.49,4.44,4.44,0,0,1-.52-2.2,4.69,4.69,0,0,1,.55-2.38,3.82,3.82,0,0,1,1.43-1.5,3.61,3.61,0,0,1,1.87-.52,3.9,3.9,0,0,1,1.43.27,3.66,3.66,0,0,1,1.22.79,4,4,0,0,1,.86,1.25,4.08,4.08,0,0,1,.33,1.62.59.59,0,0,1-.21.43.6.6,0,0,1-.44.18h-6.32l-.29-1.1h6.16l-.26.22v-.35a2,2,0,0,0-.42-1.13,2.64,2.64,0,0,0-2.06-1,2.83,2.83,0,0,0-1,.16,2.4,2.4,0,0,0-.85.55,2.62,2.62,0,0,0-.6,1,4.06,4.06,0,0,0-.22,1.42,3.39,3.39,0,0,0,.37,1.63,2.8,2.8,0,0,0,1,1.11,2.9,2.9,0,0,0,1.55.41,3.06,3.06,0,0,0,1-.14,3.16,3.16,0,0,0,.71-.36,3.5,3.5,0,0,0,.5-.44.72.72,0,0,1,.42-.15.55.55,0,0,1,.54.55.61.61,0,0,1-.25.48,4.1,4.1,0,0,1-1.23.87A3.58,3.58,0,0,1,178.24,273.78Z"/><path class="cls-1" d="M188,265.14a3,3,0,0,1,1.72.44,2.45,2.45,0,0,1,.88,1.2,4.81,4.81,0,0,1,.27,1.68V273a.58.58,0,0,1-.19.46.59.59,0,0,1-.45.2.63.63,0,0,1-.46-.2.61.61,0,0,1-.18-.46V268.5a2.93,2.93,0,0,0-.19-1.1,1.55,1.55,0,0,0-.6-.78,2,2,0,0,0-1.16-.3,2.67,2.67,0,0,0-1.24.3,2.31,2.31,0,0,0-.89.78,1.81,1.81,0,0,0-.34,1.1V273a.61.61,0,0,1-.18.46.63.63,0,0,1-.46.2.59.59,0,0,1-.45-.2.58.58,0,0,1-.19-.46v-7a.66.66,0,0,1,.64-.64.59.59,0,0,1,.47.19.66.66,0,0,1,.17.45v1.14l-.32.35a2.35,2.35,0,0,1,.37-.84,3.37,3.37,0,0,1,1.72-1.29A3,3,0,0,1,188,265.14Z"/><path class="cls-1" d="M193.35,265.4h3.76a.53.53,0,0,1,.42.18.58.58,0,0,1,.17.41.61.61,0,0,1-.17.43.59.59,0,0,1-.42.17h-3.76a.6.6,0,0,1-.42-.18.58.58,0,0,1-.18-.43.52.52,0,0,1,.18-.41A.59.59,0,0,1,193.35,265.4Zm1.68-2.17a.55.55,0,0,1,.44.18.61.61,0,0,1,.18.46v7.72a1.28,1.28,0,0,0,.11.58.59.59,0,0,0,.3.26.9.9,0,0,0,.36.08.67.67,0,0,0,.28-.06.59.59,0,0,1,.32-.05.41.41,0,0,1,.29.16.62.62,0,0,1,.14.39.57.57,0,0,1-.34.49,1.53,1.53,0,0,1-.75.2h-.55a1.64,1.64,0,0,1-.65-.2,1.44,1.44,0,0,1-.53-.59,2.37,2.37,0,0,1-.22-1.14v-7.79a.58.58,0,0,1,.19-.46.62.62,0,0,1,.42-.24Z"/><path class="cls-1" d="M199.73,272.3a.64.64,0,0,1-.13-.44.52.52,0,0,1,.27-.4.58.58,0,0,1,.38-.1.61.61,0,0,1,.39.21,3.67,3.67,0,0,0,1,.84,2.92,2.92,0,0,0,2.17.18,1.4,1.4,0,0,0,.65-.39,1,1,0,0,0,.26-.74,1,1,0,0,0-.27-.72,2.1,2.1,0,0,0-.7-.43,8,8,0,0,0-.95-.29c-.35-.1-.69-.21-1-.33a4,4,0,0,1-.92-.47,2.07,2.07,0,0,1-.65-.7,2,2,0,0,1-.25-1,2,2,0,0,1,.39-1.25,2.67,2.67,0,0,1,1.06-.82,3.6,3.6,0,0,1,1.45-.28,4.2,4.2,0,0,1,.93.1,3.62,3.62,0,0,1,.95.35,2.81,2.81,0,0,1,.82.68.59.59,0,0,1,.16.4.49.49,0,0,1-.21.43.55.55,0,0,1-.39.12.62.62,0,0,1-.36-.16,2.07,2.07,0,0,0-.84-.62,2.82,2.82,0,0,0-1.11-.22,2.4,2.4,0,0,0-.75.12,1.36,1.36,0,0,0-.62.37,1,1,0,0,0-.25.73,1,1,0,0,0,.29.7,1.92,1.92,0,0,0,.74.44,9,9,0,0,0,1,.33c.34.09.67.19,1,.3a3.33,3.33,0,0,1,.86.44,1.84,1.84,0,0,1,.61.69,2.31,2.31,0,0,1,.22,1.07,2.07,2.07,0,0,1-.41,1.27,2.7,2.7,0,0,1-1.1.82,3.83,3.83,0,0,1-1.46.28,4.69,4.69,0,0,1-1.74-.34A3.43,3.43,0,0,1,199.73,272.3Z"/><path class="cls-1" d="M219.71,265.26a.59.59,0,0,1,.47.19.66.66,0,0,1,.17.45V273a.61.61,0,0,1-.18.46.63.63,0,0,1-.46.2.59.59,0,0,1-.45-.2.58.58,0,0,1-.19-.46V271.4h.31a1.62,1.62,0,0,1-.24.77,3.25,3.25,0,0,1-.66.77,3.61,3.61,0,0,1-1,.59,3.2,3.2,0,0,1-1.22.24,3.45,3.45,0,0,1-2-.57,3.87,3.87,0,0,1-1.37-1.55,4.74,4.74,0,0,1-.49-2.22,4.67,4.67,0,0,1,.5-2.23,3.91,3.91,0,0,1,1.36-1.52,3.73,3.73,0,0,1,3.21-.33,3.2,3.2,0,0,1,1,.61,2.93,2.93,0,0,1,.68.85,2,2,0,0,1,.24.92l-.42-.09V265.9a.55.55,0,0,1,.19-.45A.63.63,0,0,1,219.71,265.26Zm-3.29,7.33a2.52,2.52,0,0,0,1.41-.41,2.87,2.87,0,0,0,1-1.13,3.57,3.57,0,0,0,.35-1.61,3.49,3.49,0,0,0-.35-1.59,2.71,2.71,0,0,0-1-1.12,2.52,2.52,0,0,0-1.41-.41,2.48,2.48,0,0,0-1.4.4,2.79,2.79,0,0,0-1,1.1,3.88,3.88,0,0,0,0,3.23,2.87,2.87,0,0,0,1,1.13,2.49,2.49,0,0,0,1.4.41Z"/><path class="cls-1" d="M227.23,265.14a3,3,0,0,1,1.72.44,2.45,2.45,0,0,1,.88,1.2,4.81,4.81,0,0,1,.27,1.68V273a.58.58,0,0,1-.19.46.59.59,0,0,1-.45.2.63.63,0,0,1-.46-.2.61.61,0,0,1-.18-.46V268.5a2.93,2.93,0,0,0-.19-1.1,1.55,1.55,0,0,0-.6-.78,2,2,0,0,0-1.16-.3,2.67,2.67,0,0,0-1.24.3,2.31,2.31,0,0,0-.89.78,1.81,1.81,0,0,0-.34,1.1V273a.65.65,0,0,1-.64.66h0a.59.59,0,0,1-.45-.2.58.58,0,0,1-.19-.46v-7a.66.66,0,0,1,.64-.64.59.59,0,0,1,.47.19.66.66,0,0,1,.17.45v1.14l-.32.35a2.19,2.19,0,0,1,.37-.84,3.37,3.37,0,0,1,1.72-1.29A3,3,0,0,1,227.23,265.14Z"/><path class="cls-1" d="M239.6,261.78a.65.65,0,0,1,.47.18.66.66,0,0,1,.17.46V273a.61.61,0,0,1-.18.46.63.63,0,0,1-.46.2.59.59,0,0,1-.45-.2A.58.58,0,0,1,239,273V271.4l.31-.11a1.66,1.66,0,0,1-.24.81,2.92,2.92,0,0,1-.65.79,3.94,3.94,0,0,1-1,.61,3.11,3.11,0,0,1-1.21.24,3.54,3.54,0,0,1-1.95-.56,3.84,3.84,0,0,1-1.37-1.54,5.13,5.13,0,0,1,0-4.46,3.93,3.93,0,0,1,1.36-1.53,3.55,3.55,0,0,1,4.21.28,3.18,3.18,0,0,1,.7.85,2,2,0,0,1,.25.92l-.42-.09V262.4a.58.58,0,0,1,.19-.46A.63.63,0,0,1,239.6,261.78Zm-3.29,10.81a2.48,2.48,0,0,0,1.42-.41,2.71,2.71,0,0,0,1-1.12,3.85,3.85,0,0,0,0-3.22,2.74,2.74,0,0,0-1-1.11,2.52,2.52,0,0,0-1.41-.41,2.49,2.49,0,0,0-1.4.41,2.74,2.74,0,0,0-1,1.11,3.83,3.83,0,0,0,0,3.21,2.87,2.87,0,0,0,1,1.13,2.54,2.54,0,0,0,1.39.41Z"/><path class="cls-1" d="M251.81,265.22a2.81,2.81,0,0,1,1.67.45,2.51,2.51,0,0,1,.88,1.22,5.1,5.1,0,0,1,.26,1.69V273a.65.65,0,0,1-.64.66.59.59,0,0,1-.45-.2.61.61,0,0,1-.18-.46v-4.38a3.17,3.17,0,0,0-.18-1.1,1.53,1.53,0,0,0-.59-.78,1.83,1.83,0,0,0-1.11-.3,2.51,2.51,0,0,0-1.2.3,2.23,2.23,0,0,0-.86.78,2,2,0,0,0-.32,1.1V273a.58.58,0,0,1-.19.46.59.59,0,0,1-.45.2.65.65,0,0,1-.64-.66h0V262.4a.61.61,0,0,1,.18-.46.65.65,0,0,1,.46-.18.62.62,0,0,1,.64.64v4.78l-.32.35a2.31,2.31,0,0,1,.35-.84,3.32,3.32,0,0,1,.69-.76,3.73,3.73,0,0,1,.93-.53A2.77,2.77,0,0,1,251.81,265.22Z"/><path class="cls-1" d="M261.14,273.78a4.4,4.4,0,0,1-2.24-.55,3.81,3.81,0,0,1-1.49-1.49,4.55,4.55,0,0,1-.53-2.2,4.69,4.69,0,0,1,.55-2.38,3.89,3.89,0,0,1,1.43-1.5,3.67,3.67,0,0,1,1.88-.52,3.9,3.9,0,0,1,1.43.27,3.82,3.82,0,0,1,2.07,2,4.09,4.09,0,0,1,.34,1.62.59.59,0,0,1-.21.43.63.63,0,0,1-.45.18H257.6l-.29-1.1h6.16l-.25.22v-.35a2,2,0,0,0-.43-1.13,2.62,2.62,0,0,0-.92-.73,2.59,2.59,0,0,0-1.13-.25,2.83,2.83,0,0,0-.95.16,2.4,2.4,0,0,0-.85.55,2.62,2.62,0,0,0-.6,1,4.07,4.07,0,0,0-.23,1.42,3.4,3.4,0,0,0,.38,1.63,2.86,2.86,0,0,0,2.6,1.52,3.06,3.06,0,0,0,1-.14,3.16,3.16,0,0,0,.71-.36,4.23,4.23,0,0,0,.51-.44.69.69,0,0,1,.41-.15.55.55,0,0,1,.55.55h0a.62.62,0,0,1-.26.48,4.38,4.38,0,0,1-1.22.87A3.77,3.77,0,0,1,261.14,273.78Z"/><path class="cls-1" d="M268.22,273a.58.58,0,0,1-.19.46.63.63,0,0,1-.46.2.59.59,0,0,1-.45-.2.61.61,0,0,1-.18-.46V262.4a.66.66,0,0,1,.19-.46.68.68,0,0,1,.92,0,.6.6,0,0,1,.17.46Z"/><path class="cls-1" d="M275.19,265.22a3.63,3.63,0,0,1,1.95.54,3.85,3.85,0,0,1,1.36,1.5,5,5,0,0,1,0,4.41,3.84,3.84,0,0,1-1.36,1.52,3.6,3.6,0,0,1-3,.37,4.17,4.17,0,0,1-.94-.48,3.23,3.23,0,0,1-.71-.67,2.77,2.77,0,0,1-.42-.75l.35-.22v4.72a.6.6,0,0,1-.17.46.61.61,0,0,1-.46.2.65.65,0,0,1-.65-.66V265.94a.66.66,0,0,1,.19-.46.68.68,0,0,1,.92,0,.6.6,0,0,1,.17.46v1.46l-.24-.13a2.46,2.46,0,0,1,.4-.77,2.63,2.63,0,0,1,.69-.64,3.07,3.07,0,0,1,.91-.44A3.13,3.13,0,0,1,275.19,265.22ZM275,266.4a2.55,2.55,0,0,0-1.42.4,2.63,2.63,0,0,0-1,1.09,3.44,3.44,0,0,0-.35,1.58,3.51,3.51,0,0,0,.35,1.59,2.72,2.72,0,0,0,1,1.1,2.55,2.55,0,0,0,1.42.4,2.51,2.51,0,0,0,1.41-.4,2.86,2.86,0,0,0,1-1.1,3.51,3.51,0,0,0,.35-1.59,3.44,3.44,0,0,0-.35-1.58,2.91,2.91,0,0,0-1-1.09A2.51,2.51,0,0,0,275,266.4Z"/><path class="cls-1" d="M280.79,272.3a.64.64,0,0,1-.13-.44.52.52,0,0,1,.27-.4.58.58,0,0,1,.38-.1.61.61,0,0,1,.39.21,3.67,3.67,0,0,0,1,.84,2.92,2.92,0,0,0,2.18.18,1.33,1.33,0,0,0,.64-.39,1,1,0,0,0,.27-.74,1,1,0,0,0-.27-.72,2.25,2.25,0,0,0-.71-.43,7.84,7.84,0,0,0-.94-.29c-.35-.1-.7-.21-1-.33a3.48,3.48,0,0,1-.92-.47,2.06,2.06,0,0,1-.51-3,2.64,2.64,0,0,1,1.05-.82,3.6,3.6,0,0,1,1.45-.28,4.23,4.23,0,0,1,.94.1,4,4,0,0,1,1,.35,2.65,2.65,0,0,1,.81.68.66.66,0,0,1,.17.4.49.49,0,0,1-.21.43.55.55,0,0,1-.39.12.62.62,0,0,1-.37-.16,2.17,2.17,0,0,0-.87-.66,2.82,2.82,0,0,0-1.11-.22,2.4,2.4,0,0,0-.75.12,1.51,1.51,0,0,0-.62.37,1.11,1.11,0,0,0,0,1.43,1.92,1.92,0,0,0,.74.44,9,9,0,0,0,1,.33c.34.09.66.19,1,.3a3.43,3.43,0,0,1,.85.44,1.84,1.84,0,0,1,.61.69,2.33,2.33,0,0,1,.24,1.1,2,2,0,0,1-.42,1.27,2.62,2.62,0,0,1-1.1.82,3.83,3.83,0,0,1-1.46.28,4.68,4.68,0,0,1-1.73-.34A3.28,3.28,0,0,1,280.79,272.3Z"/><path class="cls-1" d="M53.4,293.62a.65.65,0,0,1-.64-.66v-7a.63.63,0,0,1,.18-.45.66.66,0,0,1,.92,0h0A.63.63,0,0,1,54,286v2.12l-.2-.34a3.83,3.83,0,0,1,.35-1,3.08,3.08,0,0,1,.63-.85,2.89,2.89,0,0,1,.88-.59,2.93,2.93,0,0,1,1.09-.21,1.33,1.33,0,0,1,.65.16.54.54,0,0,1,.29.48.67.67,0,0,1-.17.49.59.59,0,0,1-.4.16.9.9,0,0,1-.4-.09,1.31,1.31,0,0,0-.48-.08,1.73,1.73,0,0,0-.8.21,2.52,2.52,0,0,0-.72.62,3.11,3.11,0,0,0-.52.9A2.66,2.66,0,0,0,54,289v3.89a.66.66,0,0,1-.19.46A.58.58,0,0,1,53.4,293.62Z"/><path class="cls-1" d="M63,293.78a4.61,4.61,0,0,1-2.24-.55,3.79,3.79,0,0,1-1.48-1.49,4.32,4.32,0,0,1-.53-2.2,4.69,4.69,0,0,1,.55-2.38,3.82,3.82,0,0,1,1.43-1.5,3.61,3.61,0,0,1,1.87-.52,3.85,3.85,0,0,1,1.46.26,3.73,3.73,0,0,1,1.21.79,4,4,0,0,1,.86,1.25,4.08,4.08,0,0,1,.33,1.62.64.64,0,0,1-.2.43.63.63,0,0,1-.45.18H59.43l-.29-1.1H65.3l-.26.22v-.35a2,2,0,0,0-.42-1.13,2.64,2.64,0,0,0-2.06-1,2.83,2.83,0,0,0-1,.16,2.4,2.4,0,0,0-.85.55,2.7,2.7,0,0,0-.6,1,4.06,4.06,0,0,0-.22,1.42,3.29,3.29,0,0,0,.38,1.63,2.82,2.82,0,0,0,1,1.11,2.94,2.94,0,0,0,1.56.41,3.06,3.06,0,0,0,1-.14,3.16,3.16,0,0,0,.71-.36,3.5,3.5,0,0,0,.5-.44.72.72,0,0,1,.42-.15.55.55,0,0,1,.54.55.61.61,0,0,1-.25.48,4.1,4.1,0,0,1-1.23.87A3.6,3.6,0,0,1,63,293.78Z"/><path class="cls-1" d="M75.38,281.78a.61.61,0,0,1,.46.18.62.62,0,0,1,.18.44v10.54a.64.64,0,0,1-.64.64.64.64,0,0,1-.64-.64h0V291.4l.3-.11a1.76,1.76,0,0,1-.23.81,2.92,2.92,0,0,1-.65.79,3.94,3.94,0,0,1-1,.61,3.11,3.11,0,0,1-1.21.24,3.54,3.54,0,0,1-2-.56,4,4,0,0,1-1.36-1.54,5.13,5.13,0,0,1,0-4.46A3.86,3.86,0,0,1,70,285.69a3.55,3.55,0,0,1,4.21.28,3.18,3.18,0,0,1,.7.85,2,2,0,0,1,.25.92l-.42-.09V282.4a.61.61,0,0,1,.18-.46A.65.65,0,0,1,75.38,281.78Zm-3.3,10.81a2.49,2.49,0,0,0,1.43-.41,2.84,2.84,0,0,0,1-1.12,3.85,3.85,0,0,0,0-3.22,2.82,2.82,0,0,0-1-1.11,2.62,2.62,0,0,0-2.82,0,2.68,2.68,0,0,0-1,1.11,3.76,3.76,0,0,0,0,3.21,2.87,2.87,0,0,0,1,1.13A2.54,2.54,0,0,0,72.08,292.59Z"/><path class="cls-1" d="M85.24,285.34a.58.58,0,0,1,.46.19.63.63,0,0,1,.18.45v4.42a3.42,3.42,0,0,1-.91,2.51,4,4,0,0,1-5,0,3.36,3.36,0,0,1-1-2.51V286a.66.66,0,0,1,.64-.64.59.59,0,0,1,.47.19.66.66,0,0,1,.17.45v4.37a2.26,2.26,0,0,0,.56,1.65,2.5,2.5,0,0,0,3.16,0,2.26,2.26,0,0,0,.56-1.65V286a.63.63,0,0,1,.18-.45A.6.6,0,0,1,85.24,285.34Z"/><path class="cls-1" d="M92.24,285.14a5.65,5.65,0,0,1,1.48.17,3.08,3.08,0,0,1,1,.48.87.87,0,0,1,.38.69.67.67,0,0,1-.14.4.44.44,0,0,1-.39.19.57.57,0,0,1-.34-.08.89.89,0,0,1-.26-.21,1.19,1.19,0,0,0-.33-.22,1.75,1.75,0,0,0-.56-.18,4.74,4.74,0,0,0-.75-.06,2.87,2.87,0,0,0-2.58,1.54,3.6,3.6,0,0,0,0,3.2,3,3,0,0,0,1,1.12,2.8,2.8,0,0,0,1.52.41,3.32,3.32,0,0,0,.89-.09,2.83,2.83,0,0,0,.57-.23,1.46,1.46,0,0,0,.42-.32.58.58,0,0,1,.43-.16A.49.49,0,0,1,95,292a.66.66,0,0,1,.15.43.91.91,0,0,1-.4.61,3.65,3.65,0,0,1-1.08.54,4.94,4.94,0,0,1-1.53.23,3.82,3.82,0,0,1-3.54-2.12,5,5,0,0,1,0-4.4,4.08,4.08,0,0,1,1.45-1.55A4,4,0,0,1,92.24,285.14Z"/><path class="cls-1" d="M101,293.78a4.61,4.61,0,0,1-2.24-.55,4,4,0,0,1-1.49-1.49,4.44,4.44,0,0,1-.52-2.2,4.69,4.69,0,0,1,.55-2.38,3.82,3.82,0,0,1,1.43-1.5,3.61,3.61,0,0,1,1.87-.52,4,4,0,0,1,1.4.26,3.66,3.66,0,0,1,1.22.79,4,4,0,0,1,.86,1.25,4.08,4.08,0,0,1,.33,1.62.59.59,0,0,1-.21.43.6.6,0,0,1-.44.18h-6.3l-.29-1.1h6.16l-.26.22v-.35a2,2,0,0,0-.42-1.13,2.62,2.62,0,0,0-.92-.73,2.66,2.66,0,0,0-1.14-.25,2.83,2.83,0,0,0-1,.16,2.4,2.4,0,0,0-.85.55,2.62,2.62,0,0,0-.6,1A4.15,4.15,0,0,0,98,289.4a3.39,3.39,0,0,0,.37,1.63,2.82,2.82,0,0,0,1,1.11,2.9,2.9,0,0,0,1.55.41,3.06,3.06,0,0,0,1-.14,3.16,3.16,0,0,0,.71-.36,4.14,4.14,0,0,0,.5-.44.72.72,0,0,1,.42-.15.55.55,0,0,1,.38.16.55.55,0,0,1,.16.39.61.61,0,0,1-.25.48,4.1,4.1,0,0,1-1.23.87A3.64,3.64,0,0,1,101,293.78Z"/><path class="cls-1" d="M111.17,285.4h3.76a.61.61,0,0,1,.59.59.54.54,0,0,1-.17.43.59.59,0,0,1-.42.17h-3.76a.52.52,0,0,1-.41-.18.58.58,0,0,1-.18-.43.52.52,0,0,1,.18-.41A.58.58,0,0,1,111.17,285.4Zm1.68-2.17a.63.63,0,0,1,.45.18.61.61,0,0,1,.18.46v7.72a1.06,1.06,0,0,0,.11.58.53.53,0,0,0,.29.26.9.9,0,0,0,.36.08.67.67,0,0,0,.28-.06.67.67,0,0,1,.28-.06.37.37,0,0,1,.3.16.62.62,0,0,1,.14.39.61.61,0,0,1-.34.49,1.53,1.53,0,0,1-.75.2h-.55a1.64,1.64,0,0,1-.65-.2,1.46,1.46,0,0,1-.54-.59,2.49,2.49,0,0,1-.21-1.14v-7.79a.58.58,0,0,1,.19-.46.64.64,0,0,1,.46-.23Z"/><path class="cls-1" d="M121.7,285.22a2.81,2.81,0,0,1,1.67.45,2.51,2.51,0,0,1,.88,1.22,4.87,4.87,0,0,1,.27,1.69V293a.66.66,0,0,1-.19.46.61.61,0,0,1-.46.2.59.59,0,0,1-.45-.2.61.61,0,0,1-.18-.46v-4.38a3.17,3.17,0,0,0-.18-1.1,1.61,1.61,0,0,0-.58-.78,1.84,1.84,0,0,0-1.12-.3,2.51,2.51,0,0,0-1.2.3,2.23,2.23,0,0,0-.86.78,2,2,0,0,0-.32,1.1V293a.58.58,0,0,1-.19.46.59.59,0,0,1-.45.2.65.65,0,0,1-.64-.66h0V282.4a.61.61,0,0,1,.18-.46.65.65,0,0,1,.46-.18.62.62,0,0,1,.64.64v4.78l-.32.35a2.31,2.31,0,0,1,.35-.84,3.32,3.32,0,0,1,.69-.76,3.73,3.73,0,0,1,.93-.53A2.77,2.77,0,0,1,121.7,285.22Z"/><path class="cls-1" d="M131,293.78a4.4,4.4,0,0,1-2.24-.55,3.81,3.81,0,0,1-1.49-1.49,4.55,4.55,0,0,1-.53-2.2,4.9,4.9,0,0,1,.55-2.38,3.89,3.89,0,0,1,1.43-1.5,3.67,3.67,0,0,1,1.88-.52,4,4,0,0,1,1.4.26,3.82,3.82,0,0,1,2.07,2,4.09,4.09,0,0,1,.34,1.62.59.59,0,0,1-.21.43.63.63,0,0,1-.45.18h-6.32l-.29-1.1h6.16l-.25.22v-.35a2,2,0,0,0-.43-1.13,2.62,2.62,0,0,0-.92-.73,2.59,2.59,0,0,0-1.13-.25,2.83,2.83,0,0,0-1,.16,2.4,2.4,0,0,0-.85.55,2.62,2.62,0,0,0-.6,1,3.89,3.89,0,0,0-.12,1.36,3.4,3.4,0,0,0,.38,1.63,2.86,2.86,0,0,0,2.6,1.52,3.06,3.06,0,0,0,1-.14,3.16,3.16,0,0,0,.71-.36,4.23,4.23,0,0,0,.51-.44.69.69,0,0,1,.41-.15.55.55,0,0,1,.55.55.62.62,0,0,1-.26.48,4.38,4.38,0,0,1-1.22.87A3.64,3.64,0,0,1,131,293.78Z"/><path class="cls-1" d="M137.3,284.14a.88.88,0,0,1-.59-.16.57.57,0,0,1-.19-.49v-.23a.57.57,0,0,1,.2-.49.94.94,0,0,1,.59-.16.86.86,0,0,1,.58.16.57.57,0,0,1,.19.49v.23a.57.57,0,0,1-.2.49A.86.86,0,0,1,137.3,284.14Zm.64,8.82a.58.58,0,0,1-.19.46.59.59,0,0,1-.45.2.63.63,0,0,1-.47-.2.71.71,0,0,1-.17-.46v-7.1a.61.61,0,0,1,.18-.46.65.65,0,0,1,.46-.18.63.63,0,0,1,.45.18.58.58,0,0,1,.19.46Z"/><path class="cls-1" d="M141.28,293.62a.59.59,0,0,1-.45-.2.58.58,0,0,1-.19-.46v-7a.66.66,0,0,1,.64-.64.59.59,0,0,1,.47.19.66.66,0,0,1,.17.45v2.12l-.19-.34a3.48,3.48,0,0,1,.34-1,3.51,3.51,0,0,1,.64-.85,2.89,2.89,0,0,1,.88-.59,2.85,2.85,0,0,1,1.08-.21,1.33,1.33,0,0,1,.65.16.55.55,0,0,1,.3.48.6.6,0,0,1-.18.49.55.55,0,0,1-.4.16.9.9,0,0,1-.4-.09,1.31,1.31,0,0,0-.48-.08,1.66,1.66,0,0,0-.79.21,2.52,2.52,0,0,0-.72.62,3.55,3.55,0,0,0-.53.9,3,3,0,0,0-.2,1.08v3.89a.74.74,0,0,1-.64.71Z"/><path class="cls-1" d="M156.21,285.22a2.51,2.51,0,0,1,2.67,2.11h-.24l.11-.29a2.42,2.42,0,0,1,.66-.86,4.17,4.17,0,0,1,1.07-.69,3.08,3.08,0,0,1,1.27-.27,2.78,2.78,0,0,1,1.66.45,2.49,2.49,0,0,1,.87,1.22,4.92,4.92,0,0,1,.27,1.7V293a.66.66,0,0,1-.19.46.59.59,0,0,1-.45.2.63.63,0,0,1-.64-.66v-4.34a3.3,3.3,0,0,0-.19-1.12,1.62,1.62,0,0,0-.59-.8,1.83,1.83,0,0,0-1.11-.3,2.45,2.45,0,0,0-2.07,1.1,2.09,2.09,0,0,0-.32,1.12V293a.63.63,0,0,1-.64.66.59.59,0,0,1-.45-.2.66.66,0,0,1-.19-.46v-4.38a3.45,3.45,0,0,0-.16-1.1,1.71,1.71,0,0,0-.57-.78,1.83,1.83,0,0,0-1.11-.3,2.33,2.33,0,0,0-1.16.3,2.2,2.2,0,0,0-.85.78,1.89,1.89,0,0,0-.32,1.1V293a.58.58,0,0,1-.19.46.59.59,0,0,1-.45.2.63.63,0,0,1-.46-.2.61.61,0,0,1-.18-.46v-7a.63.63,0,0,1,.18-.45.65.65,0,0,1,.92,0,.63.63,0,0,1,.18.45v1.22l-.35.38a2.21,2.21,0,0,1,.32-.83,3.58,3.58,0,0,1,.68-.77,3.66,3.66,0,0,1,.93-.56A2.9,2.9,0,0,1,156.21,285.22Z"/><path class="cls-1" d="M174,285.26a.63.63,0,0,1,.64.62V293a.64.64,0,0,1-.64.64.64.64,0,0,1-.64-.64h0V291.4h.3a1.62,1.62,0,0,1-.24.77,3,3,0,0,1-.65.77,3.61,3.61,0,0,1-1,.59,3.11,3.11,0,0,1-1.21.24,3.45,3.45,0,0,1-2-.57,3.87,3.87,0,0,1-1.37-1.55,4.88,4.88,0,0,1-.5-2.22,4.68,4.68,0,0,1,.51-2.23,3.91,3.91,0,0,1,1.36-1.52,3.44,3.44,0,0,1,1.92-.55,3.48,3.48,0,0,1,1.28.22,3.32,3.32,0,0,1,1,.61,2.93,2.93,0,0,1,.68.85,2,2,0,0,1,.24.92l-.42-.09V285.9a.63.63,0,0,1,.18-.45A.65.65,0,0,1,174,285.26Zm-3.3,7.33a2.48,2.48,0,0,0,1.42-.41,3,3,0,0,0,1-1.13,3.57,3.57,0,0,0,.35-1.61,3.51,3.51,0,0,0-.35-1.59,2.84,2.84,0,0,0-1-1.12,2.66,2.66,0,0,0-2.82,0,2.72,2.72,0,0,0-1,1.1,3.8,3.8,0,0,0,0,3.23,2.87,2.87,0,0,0,1,1.13,2.49,2.49,0,0,0,1.43.41Z"/><path class="cls-1" d="M181.57,285.14a2.94,2.94,0,0,1,1.71.44,2.47,2.47,0,0,1,.89,1.2,5,5,0,0,1,.26,1.68V293a.65.65,0,0,1-.64.66.59.59,0,0,1-.45-.2.66.66,0,0,1-.19-.46V288.5a3.16,3.16,0,0,0-.13-1.1,1.57,1.57,0,0,0-.61-.78,2,2,0,0,0-1.16-.3,2.52,2.52,0,0,0-1.23.3,2.42,2.42,0,0,0-.9.78,2,2,0,0,0-.33,1.1V293a.58.58,0,0,1-.19.46.59.59,0,0,1-.45.2.63.63,0,0,1-.46-.2.61.61,0,0,1-.18-.46v-7a.63.63,0,0,1,.18-.45.65.65,0,0,1,.92,0,.63.63,0,0,1,.18.45v1.14l-.32.35a2.19,2.19,0,0,1,.37-.84,3.53,3.53,0,0,1,1.68-1.29A3.13,3.13,0,0,1,181.57,285.14Z"/><path class="cls-1" d="M193.39,285.34a.59.59,0,0,1,.47.19.58.58,0,0,1,.17.45v4.42a3.38,3.38,0,0,1-.9,2.51,4,4,0,0,1-5,0,3.32,3.32,0,0,1-.91-2.51V286a.66.66,0,0,1,.64-.64.59.59,0,0,1,.47.19.66.66,0,0,1,.17.45v4.37a2.26,2.26,0,0,0,.56,1.65,2.5,2.5,0,0,0,3.16,0,2.21,2.21,0,0,0,.55-1.65V286a.64.64,0,0,1,.19-.45A.58.58,0,0,1,193.39,285.34Z"/><path class="cls-1" d="M203.54,285.26a.66.66,0,0,1,.46.19.63.63,0,0,1,.18.45V293a.58.58,0,0,1-.19.46.59.59,0,0,1-.45.2.63.63,0,0,1-.46-.2.61.61,0,0,1-.18-.46V291.4h.3a1.62,1.62,0,0,1-.24.77,3.45,3.45,0,0,1-.65.77,3.61,3.61,0,0,1-1,.59,3.2,3.2,0,0,1-1.22.24,3.53,3.53,0,0,1-2-.57,3.77,3.77,0,0,1-1.36-1.55,5.18,5.18,0,0,1,0-4.45,3.91,3.91,0,0,1,1.36-1.52,3.73,3.73,0,0,1,3.21-.33,3.2,3.2,0,0,1,1,.61,2.69,2.69,0,0,1,.68.85,2,2,0,0,1,.24.92l-.41-.09V285.9a.64.64,0,0,1,.73-.64Zm-3.3,7.33a2.48,2.48,0,0,0,1.42-.41,3,3,0,0,0,1-1.13,3.61,3.61,0,0,0,.36-1.65,3.51,3.51,0,0,0-.35-1.59,2.84,2.84,0,0,0-1-1.12,2.66,2.66,0,0,0-2.82,0,2.79,2.79,0,0,0-1,1.1,3.88,3.88,0,0,0,0,3.23,3,3,0,0,0,1,1.13,2.47,2.47,0,0,0,1.39.45Z"/><path class="cls-1" d="M208.35,293a.58.58,0,0,1-.19.46.63.63,0,0,1-.46.2.59.59,0,0,1-.45-.2.61.61,0,0,1-.18-.46V282.4a.58.58,0,0,1,.19-.46.68.68,0,0,1,.92,0,.66.66,0,0,1,.17.46Z"/><path class="cls-1" d="M225.79,285.2a.6.6,0,0,1,.44.18.58.58,0,0,1,.19.46v.27L224,293.2a.76.76,0,0,1-.27.32.67.67,0,0,1-.39.1.62.62,0,0,1-.56-.42l-2-5.06.32.05-1.82,5a.61.61,0,0,1-.56.42.7.7,0,0,1-.4-.1.63.63,0,0,1-.26-.32l-2.51-7.09a1.22,1.22,0,0,1,0-.27.63.63,0,0,1,.18-.45.69.69,0,0,1,.83-.09.53.53,0,0,1,.23.3l2.16,6.3h-.34l1.87-4.8a.59.59,0,0,1,.59-.4.58.58,0,0,1,.36.1.55.55,0,0,1,.2.3l2,4.8h-.4l2.16-6.32A.56.56,0,0,1,225.79,285.2Z"/><path class="cls-1" d="M236.32,289.46a4.53,4.53,0,0,1-.54,2.22,4.2,4.2,0,0,1-1.48,1.54,4.1,4.1,0,0,1-5.63-1.4s0-.09-.08-.14a4.68,4.68,0,0,1,0-4.45,4.18,4.18,0,0,1,5.71-1.53h0a4.1,4.1,0,0,1,1.48,1.53A4.54,4.54,0,0,1,236.32,289.46Zm-1.28,0a3.46,3.46,0,0,0-.37-1.64,3.1,3.1,0,0,0-1-1.1,2.88,2.88,0,0,0-2.92,0,2.79,2.79,0,0,0-1,1.1,3.47,3.47,0,0,0-.38,1.64,3.35,3.35,0,0,0,.38,1.61,2.74,2.74,0,0,0,3.92,1.11,3,3,0,0,0,1-1.11,3.32,3.32,0,0,0,.35-1.61Z"/><path class="cls-1" d="M239.22,293.62a.63.63,0,0,1-.46-.2.61.61,0,0,1-.18-.46v-7a.63.63,0,0,1,.18-.45.65.65,0,0,1,.92,0,.63.63,0,0,1,.18.45v2.12l-.19-.34a3.2,3.2,0,0,1,.34-1,3.75,3.75,0,0,1,.63-.85,2.89,2.89,0,0,1,.88-.59,2.93,2.93,0,0,1,1.09-.21,1.33,1.33,0,0,1,.65.16.54.54,0,0,1,.29.48.67.67,0,0,1-.17.49.59.59,0,0,1-.4.16.9.9,0,0,1-.4-.09,1.31,1.31,0,0,0-.48-.08,1.56,1.56,0,0,0-.79.21,2.52,2.52,0,0,0-.72.62,3.39,3.39,0,0,0-.53.9,2.66,2.66,0,0,0-.2,1.08v3.89a.77.77,0,0,1-.64.71Z"/><path class="cls-1" d="M246.16,293.62a.58.58,0,0,1-.46-.2.61.61,0,0,1-.18-.46V282.4a.62.62,0,0,1,.64-.64.65.65,0,0,1,.46.18.61.61,0,0,1,.18.46v10.54a.65.65,0,0,1-.64.66h0Zm5.31-8.32a.57.57,0,0,1,.44.2.61.61,0,0,1,.19.4.59.59,0,0,1-.26.48l-5.18,4.53v-1.49l4.41-3.93A.61.61,0,0,1,251.47,285.3Zm.18,8.3a.67.67,0,0,1-.48-.21l-3.41-3.63,1-.88,3.38,3.62a.63.63,0,0,1,.19.48.53.53,0,0,1-.23.45.66.66,0,0,1-.45.17Z"/><path class="cls-1" d="M254.93,293.6a.72.72,0,0,1-.52-.19.75.75,0,0,1-.19-.53v-.32a.76.76,0,0,1,.19-.54.68.68,0,0,1,.52-.2H255a.68.68,0,0,1,.52.2.75.75,0,0,1,.18.54v.32a.75.75,0,0,1-.18.53.64.64,0,0,1-.52.19Z"/></g><rect class="cls-3" width="300" height="300"/></g><g id="Layer_2-2" data-name="Layer 2"><g id="illustration_5-2" data-name="illustration 5-2"><rect id="Rectangle_799" data-name="Rectangle 799" class="cls-4" x="61.1" y="56.35" width="224.81" height="119.72"/><path id="Path_1241" data-name="Path 1241" class="cls-5" d="M39.36,118.06c0,1.16.43,2.39.53,3.6-3.57.18-7.1-1.56-10.67-1a4.92,4.92,0,0,0,1.83-2.91,12.15,12.15,0,0,0,.34-4.53v-.27A6.82,6.82,0,0,1,31,111c.13-.62.7-.49,1.22-.49,1.61.14,3.18.35,4.78.61.4.09,4.45,1.09,4.5,1a17.13,17.13,0,0,0-1.75,3.57A9.27,9.27,0,0,0,39.36,118.06Z"/><path id="Path_1242" data-name="Path 1242" class="cls-5" d="M74.77,114.29a5.41,5.41,0,0,1-1.1,1.09l-.82.65a3.75,3.75,0,0,1-1.78.74,4.71,4.71,0,0,1-3.18-1.17,1.89,1.89,0,0,1-.3-1.16,4.48,4.48,0,0,1,.3-1.7,9,9,0,0,1,1.4-2.52A7.27,7.27,0,0,1,71.51,108a7.38,7.38,0,0,1,.95-.44l1.66-.7a1,1,0,0,1,.3-.08c.44,0,.52.7.27,1-.53.74-1.66,1-2,1.78a1.15,1.15,0,0,1,1.16.92.93.93,0,0,0,.18.39c.14.13.39,0,.57.13s.17.61.22,1a4,4,0,0,0,.3.82A2.31,2.31,0,0,1,74.77,114.29Z"/><path id="Path_1243" data-name="Path 1243" class="cls-6" d="M25.4,236.23c.26-.27.74-.22,1.17-.18a50.5,50.5,0,0,0,6.27.53c.25-1.27-.48-2.53-.75-3.79a3.48,3.48,0,0,0-.25-1,2.2,2.2,0,0,0-1.57-1c-1.17-.22-2.88-.65-3.49.47A15.4,15.4,0,0,0,25.4,236.23Z"/><path id="Path_1244" data-name="Path 1244" class="cls-7" d="M48.3,231.4a6.82,6.82,0,0,1-2.92.86,9.12,9.12,0,0,0-3,.7,18.32,18.32,0,0,1-2.33,1.31,4.87,4.87,0,0,1-2.4,0,3.47,3.47,0,0,1-2.47-1.35,4,4,0,0,1-.35-2.52c.08-1,.12-2,.21-2.91a1.34,1.34,0,0,1,.17-.7c.7-1,2.33.43,3.27.43a6.43,6.43,0,0,0,4-1.69,1.33,1.33,0,0,1,.3-.23c.39-.17.82.18,1.16.45l.13.08a7.28,7.28,0,0,0,3,1,3.15,3.15,0,0,1,2.44,1.84v.18A2.77,2.77,0,0,1,48.3,231.4Z"/><path id="Path_1245" data-name="Path 1245" class="cls-8" d="M48.3,231.4a6.82,6.82,0,0,1-2.92.86,9.12,9.12,0,0,0-3,.7,18.32,18.32,0,0,1-2.33,1.31,4.87,4.87,0,0,1-2.4,0,3.47,3.47,0,0,1-2.47-1.35,4,4,0,0,1-.35-2.52c.08-1,.12-2,.21-2.91a1.34,1.34,0,0,1,.17-.7c.7-1,2.33.43,3.27.43a6.43,6.43,0,0,0,4-1.69,1.33,1.33,0,0,1,.3-.23c.39-.17.82.18,1.16.45l.13.08a7.28,7.28,0,0,0,3,1,3.15,3.15,0,0,1,2.44,1.84v.18A2.77,2.77,0,0,1,48.3,231.4Z"/><path id="Path_1246" data-name="Path 1246" class="cls-9" d="M48.3,231.7a7.33,7.33,0,0,1-2.92.91,8.88,8.88,0,0,0-3,.7,17.11,17.11,0,0,1-2.33,1.3,4.65,4.65,0,0,1-2.4,0A4.07,4.07,0,0,1,35.18,233a4,4,0,0,1-.35-2.53c.08-1,.12-2,.21-2.92a1.29,1.29,0,0,1,.17-.69c.7-1,2.33.44,3.27.44a6.52,6.52,0,0,0,4-1.7,1.11,1.11,0,0,1,.3-.22c.39-.18.82.17,1.16.43a6.62,6.62,0,0,1-1,2,4.33,4.33,0,0,1-3.13,2,9.76,9.76,0,0,0-1.87.08c-.62.18-1.17.8-1,1.4s1,.7,1.57.75a7.41,7.41,0,0,0,2.57-.18c.49-.2,1-.41,1.44-.65,2.09-.87,4.65-.4,6.39-1.83l.53-.39C49.92,229.88,49.08,231.18,48.3,231.7Z"/><path id="Path_1247" data-name="Path 1247" class="cls-10" d="M48.3,231.7a7.33,7.33,0,0,1-2.92.91,8.88,8.88,0,0,0-3,.7,17.11,17.11,0,0,1-2.33,1.3,4.65,4.65,0,0,1-2.4,0A4.07,4.07,0,0,1,35.18,233a4,4,0,0,1-.35-2.53c.08-1,.12-2,.21-2.92a1.29,1.29,0,0,1,.17-.69c.7-1,2.33.44,3.27.44a6.52,6.52,0,0,0,4-1.7,1.11,1.11,0,0,1,.3-.22c.39-.18.82.17,1.16.43a6.62,6.62,0,0,1-1,2,4.33,4.33,0,0,1-3.13,2,9.76,9.76,0,0,0-1.87.08c-.62.18-1.17.8-1,1.4s1,.7,1.57.75a7.41,7.41,0,0,0,2.57-.18c.49-.2,1-.41,1.44-.65,2.09-.87,4.65-.4,6.39-1.83l.53-.39C49.92,229.88,49.08,231.18,48.3,231.7Z"/><path id="Path_1248" data-name="Path 1248" class="cls-11" d="M25.79,168.27a12.79,12.79,0,0,0,1.74,9.4A25.55,25.55,0,0,1,29,179.94a9.71,9.71,0,0,1,.57,1.83l1.56,6.52a17.37,17.37,0,0,1,.75,5.36c-.09,1.26-.4,2.66.35,3.66a2.51,2.51,0,0,1,.47.65,1.31,1.31,0,0,1,0,.83c-.78,4.75-1.39,9.67,0,14.23,1.31,4.14,1.4,8.76,2.48,12.94a3,3,0,0,0,.72,1.46,1.88,1.88,0,0,0,1.05.48,7.65,7.65,0,0,0,4.88-.78c1.09-.48,2.22-1.35,2.13-2.53a4.51,4.51,0,0,0-.61-1.57,11,11,0,0,1-.6-3.22,66.4,66.4,0,0,0-1.8-8.14,19.07,19.07,0,0,1-.52-8.23,70.8,70.8,0,0,1,5.27-16.29,2.06,2.06,0,0,1,.48-.73,3.63,3.63,0,0,0,.7-.48,2.21,2.21,0,0,0,.31-.87,9,9,0,0,1,1.51-2.21c1.17-1.91.83-4.35.78-6.57a45.9,45.9,0,0,0-.08-6.53,6.14,6.14,0,0,0-3.65-5.05,7.49,7.49,0,0,0-3.23-.13A65.53,65.53,0,0,0,25.79,168.27Z"/><path id="Path_1249" data-name="Path 1249" class="cls-12" d="M25.79,168.57a12.78,12.78,0,0,0,1.74,9.4c.52.74,1,1.49,1.44,2.27a10.18,10.18,0,0,1,.57,1.83l1.56,6.54a17.3,17.3,0,0,1,.75,5.35c-.09,1.26-.4,2.65.35,3.65a2.74,2.74,0,0,1,.47.66,1.28,1.28,0,0,1,0,.82c-.78,4.75-1.39,9.67,0,14.24,1.31,4.13,1.4,8.75,2.48,12.93a3,3,0,0,0,.7,1.43,2,2,0,0,0,1,.49,7.68,7.68,0,0,0,4.87-.79c1.1-.48,2.22-1.35,2.13-2.53a4.25,4.25,0,0,0-.6-1.56,11.4,11.4,0,0,1-.61-3.22,64.56,64.56,0,0,0-1.79-8.14,18.82,18.82,0,0,1-.52-8.24,70.8,70.8,0,0,1,5.27-16.29,2,2,0,0,1,.47-.74,3.1,3.1,0,0,0,.7-.48,2.13,2.13,0,0,0,.32-.87,8.63,8.63,0,0,1,1.53-2.11c1.17-1.92.83-4.36.78-6.57a46,46,0,0,0-.08-6.54,6.14,6.14,0,0,0-3.65-5,7.34,7.34,0,0,0-3.23-.13A66.31,66.31,0,0,0,25.79,168.57Z"/><path id="Path_1250" data-name="Path 1250" class="cls-13" d="M49,182.05a11.89,11.89,0,0,1-.3,2.52c-1,5.61-2.09,11.28-3.22,16.88a14.57,14.57,0,0,1-.35,1.45A12.07,12.07,0,0,1,43,207.2c-4.78,5.86-5.13,14.4-7.75,21.58l-.52,1.43c-.48,1.17-1,2.4-1.56,3.49a1.13,1.13,0,0,1-.31.43.71.71,0,0,1-.51.09c-2.33,0-6,3-7.5-.78-1.22.3.18-4.88.83-6.13.43-.75,2.33-10.89,3.27-15.25a18.85,18.85,0,0,1,2.33-6.31c1-1.4,2.32-2.75,2.14-4.4-.1-.75-.4-1.65.21-2.1.26-.17.66-.22.83-.47a.82.82,0,0,0,.13-.4,10.24,10.24,0,0,0-.22-3.49c-.21-.73-.38-1.48-.52-2.22a2.67,2.67,0,0,1,.57-2.14v-4.66a8.55,8.55,0,0,0-.21-2.57c-.13-.39.08-4.39-.83-5.57a6.27,6.27,0,0,0-1.52-1.08,5.59,5.59,0,0,1-2.1-3,17.5,17.5,0,0,1-.61-3.66,2,2,0,0,1,0-.78.89.89,0,0,1,.09-.39A2.49,2.49,0,0,1,31,167.72a57.68,57.68,0,0,1,13.67-1.61c1.7-1.17,2.65-.74,3.4.47a11.51,11.51,0,0,1,1,2.33c.3,1,.35,6.57.65,7.58C50.25,177.94,49,180.59,49,182.05Z"/><path id="Path_1251" data-name="Path 1251" class="cls-14" d="M18.31,131.26a12.88,12.88,0,0,0,.34,2.62,10.74,10.74,0,0,1-.34,2.33c-.57,3,.52,6,1.55,8.79a4.07,4.07,0,0,1,.4,1.45,15.35,15.35,0,0,1-.67,2.67c-.31,1.91,1.09,3.7,1.16,5.61a5.06,5.06,0,0,0,.7,4.27c.44.95.57,2.05,1,3a10.12,10.12,0,0,0,4.05,3.92,3.12,3.12,0,0,0,2.84-2.78,31.79,31.79,0,0,0,.3-6,34.45,34.45,0,0,0-.27-5.18c-.3-2.18-1.05-4.31-1.52-6.45a56.75,56.75,0,0,0-2-8.14,28.21,28.21,0,0,0-3.7-6.32c-.57-.73-1-1.83-2.05-1.65A2.2,2.2,0,0,0,18.31,131.26Z"/><path id="Path_1252" data-name="Path 1252" class="cls-15" d="M41.46,112.16a18.18,18.18,0,0,0-1.75,3.57,7.11,7.11,0,0,1-2,.21c-2.57,0-4.4-1.48-5.92-3.3-.13-.61,4.3-.13,4.39-.57s-4.52-1.53-4-1.48c1.61.13,3.18.35,4.78.61C37.37,111.24,41.38,112.24,41.46,112.16Z"/><path id="Path_1253" data-name="Path 1253" class="cls-15" d="M48.21,166.75a34.43,34.43,0,0,0-4.31,0,14.43,14.43,0,0,0-2.7.25c-1.08.27-2.09.75-3.17,1.05a28.83,28.83,0,0,1-5.31.7,29.51,29.51,0,0,0-3.49.57,1.79,1.79,0,0,1,.09-.4,2.5,2.5,0,0,1,1.78-1.08,57.81,57.81,0,0,1,13.67-1.62C46.51,165.1,47.51,165.53,48.21,166.75Z"/><path id="Path_1254" data-name="Path 1254" class="cls-14" d="M42.55,121.05a1.49,1.49,0,0,1-1.39.73,2.13,2.13,0,0,1-.53-.3,9,9,0,0,0-3.27-1,46.4,46.4,0,0,1-6.7-1.52,7.69,7.69,0,0,0-1.95-.4,4.82,4.82,0,0,0-3.49,2.05c-.88,1.08-1.53,2.33-2.33,3.49-.62.79-1.35,1.48-1.92,2.33a10.28,10.28,0,0,0-1.4,7.26,31.31,31.31,0,0,0,2.33,7.19,28,28,0,0,0,1.89,3.9,8.93,8.93,0,0,0,.73,5.73,5.6,5.6,0,0,1,.74,1.7,3.87,3.87,0,0,1,0,1.27l-.43,3c-.13.92-.26,1.83-.44,2.75-.3,1.65-.7,3.49,0,4.95.92,1.79,0,4.1.18,6.1a29.73,29.73,0,0,1,8-1.91,30.65,30.65,0,0,0,5.31-.7c1.09-.31,2.1-.79,3.18-1a13.59,13.59,0,0,1,2.7-.27,30.54,30.54,0,0,1,6,.13c.17,0,.35,0,.43-.09a.81.81,0,0,0,0-.22,3.59,3.59,0,0,0-.53-2.09,3,3,0,0,1-.61-1.4,2.33,2.33,0,0,1,.17-.69l.87-2.33c.75-2,.4-4.22.8-6.27a38,38,0,0,0,.55-4.88,5.8,5.8,0,0,0-.82-4,4.39,4.39,0,0,1-.61-.87,2.5,2.5,0,0,1-.14-1.05c0-2.79,0-5.57.22-8.36l-2.22-4a16.9,16.9,0,0,1-2-4.83c-.2-1.16-.2-2.32-.38-3.49a1.56,1.56,0,0,0-.28-.75,1.58,1.58,0,0,0-1.16-.35A3,3,0,0,0,42.55,121.05Z"/><path id="Path_1255" data-name="Path 1255" class="cls-15" d="M72.85,116a3.75,3.75,0,0,1-1.78.74,4.71,4.71,0,0,1-3.18-1.17,1.89,1.89,0,0,1-.3-1.16.53.53,0,0,0,.35-.09,10,10,0,0,1,2.78.12,3.24,3.24,0,0,1,2.13,1.62Z"/><path id="Path_1256" data-name="Path 1256" class="cls-14" d="M45.33,133.93a7.42,7.42,0,0,0,1.75,1.65,5.68,5.68,0,0,0,2.7.43,65.63,65.63,0,0,0,11.36-1.26,7.84,7.84,0,0,0,1.26-.35,7.27,7.27,0,0,0,1.27-.79,16,16,0,0,0,3.4-3,9.66,9.66,0,0,0,2-5,9.17,9.17,0,0,0,1.82-3.08,4.56,4.56,0,0,0,.4-1.53c0-.52-.35-1.09-.22-1.62a4.1,4.1,0,0,1,1.3-2.32.91.91,0,0,0,.32-.43.7.7,0,0,0-.1-.4,3.19,3.19,0,0,0-2.13-1.6,9.68,9.68,0,0,0-2.79-.13,3.62,3.62,0,0,0-.91.25l-.64,1.68a1.76,1.76,0,0,1-.92,1.13,2.73,2.73,0,0,0-.91,2.32A2.48,2.48,0,0,0,62.81,123a2.91,2.91,0,0,0-2.13,1.86,1.16,1.16,0,0,1-.27.57.94.94,0,0,1-.73.23c-.75,0-1.4.6-2,.3a4.13,4.13,0,0,0-2.4-.35,2.26,2.26,0,0,1-.52,0l-.43-.14a3.7,3.7,0,0,0-1-.38.83.83,0,0,0-.92.34c-.22-.26-.35-.57-.57-.87a.89.89,0,0,0-.86-.43c.2-.17,0-.57-.32-.66a3.1,3.1,0,0,0-.86,0c-.79,0-1.35-.7-2.09-.87s-1.62,0-2-.56c-.13-.22-.13-.53-.35-.62a.57.57,0,0,0-.48,0,4,4,0,0,0-1.39.43,19.34,19.34,0,0,0,.22,8.53A8.07,8.07,0,0,0,45.33,133.93Z"/><path id="Path_1257" data-name="Path 1257" class="cls-15" d="M45.3,144l-3.61,7.19a4.61,4.61,0,0,1,1.83-1.35,4.71,4.71,0,0,0,1.74-2.33,12.6,12.6,0,0,0,.65-2.92,2.47,2.47,0,0,0,0-1.52C45.6,143.11,45.47,143.65,45.3,144Z"/><path id="Path_1258" data-name="Path 1258" class="cls-15" d="M35.06,150.08a33.32,33.32,0,0,1-2.65,2.09,25.57,25.57,0,0,0-5,6.1,8.89,8.89,0,0,0-1,1.87c.17.13.44,0,.61-.18l2.79-2.44a7.84,7.84,0,0,0,1-1c.48-.67.7-1.49,1.16-2.14a10.06,10.06,0,0,1,1.7-1.75c.65-.56,3.61-3.05,2.88-4A4.82,4.82,0,0,0,35.06,150.08Z"/><path id="Path_1259" data-name="Path 1259" class="cls-14" d="M41.16,118.94a7.79,7.79,0,0,0-3-1,6.53,6.53,0,0,0-1.87-.13,10.33,10.33,0,0,1-1.75.3,7.52,7.52,0,0,1-2.39-.52,2.88,2.88,0,0,0-2.4.17.65.65,0,0,1-.91.14.62.62,0,0,1-.14-.14A3,3,0,0,0,25,118c-1.52,1.43-1.35,4.18-3.14,5.27-.48.31-1.16.43-1.4,1a2.19,2.19,0,0,1-.25.48,1.16,1.16,0,0,1-.43.3,10.37,10.37,0,0,0-1.49.84,1.93,1.93,0,0,0-.83,1.39,2.74,2.74,0,0,0,.27,1.16,11.19,11.19,0,0,0,10.83,6.92,1.52,1.52,0,0,0,1.16-.35,2,2,0,0,0,.38-.65c.83-1.75,2.39-3,3.39-4.66.62-1,1-2.09,1.62-3.08a15.38,15.38,0,0,1,3.75-3.67,4.25,4.25,0,0,1,2.65-1.16c.87,0,1.52.09,1.16-1A3.44,3.44,0,0,0,41.16,118.94Z"/><path id="Path_1260" data-name="Path 1260" class="cls-8" d="M24.09,240.32a.57.57,0,0,1-.51-.26.63.63,0,0,1-.1-.4,34.26,34.26,0,0,1,.78-6.53c.22-.87,1.79,1.1,1.88,1.17a1.78,1.78,0,0,0,1.44.74,9.48,9.48,0,0,0,5.3-2,10.37,10.37,0,0,1,1-.62,3.15,3.15,0,0,1,.8-.21,4.5,4.5,0,0,1,2.69.56c1.09.53,2.05,1.31,3.13,1.88a9.12,9.12,0,0,0,2.8.87c1,.13,2.17.22,2.65,1h0a2,2,0,0,1-.48,2.22,4.55,4.55,0,0,1-2.22,1,48.87,48.87,0,0,1-5.53.7"/><path id="Path_1261" data-name="Path 1261" class="cls-9" d="M23.58,240.41a2.47,2.47,0,0,1-.4-.75,30.84,30.84,0,0,1,1.16-6.53c.23-.87,1.8,1.1,1.88,1.17a1.75,1.75,0,0,0,1.44.74A9.53,9.53,0,0,0,33,233a7.27,7.27,0,0,1,1-.62,3,3,0,0,1,.79-.22c-.22,1.32-2.1,2.88-3.1,3.37-2,1-4.3.47-6.49.6a1,1,0,0,0-.48.13c-.25.17-.25.57-.25.87a1.52,1.52,0,0,0,.52,1.4,1.33,1.33,0,0,0,.73.17,105,105,0,0,0,16.15-.57,8.7,8.7,0,0,0,2.62-.56,7,7,0,0,0,1.52-1c.7.53.13,2-.47,2.53a4.69,4.69,0,0,1-2.22,1,49.16,49.16,0,0,1-5.53.7"/><path id="Path_1262" data-name="Path 1262" class="cls-15" d="M67.85,125.74c-.35-.88-1.78-3.26-1.35-4.1a11.42,11.42,0,0,1,1.08,2C67.85,124.3,67.67,125.21,67.85,125.74Z"/><path id="Path_1263" data-name="Path 1263" class="cls-5" d="M35.63,99.22s-11.1,11.94,0,15.72S47.08,92.69,35.63,99.22Z"/><path id="Path_1264" data-name="Path 1264" class="cls-5" d="M31.71,104.71s-2.33-1.39-1.26,2.65S31.71,104.71,31.71,104.71Z"/><path id="Path_1265" data-name="Path 1265" class="cls-8" d="M31.71,105.06v2h1s1.17-5.22,2.21-5.14,5.82.44,6.54-.38,2.6,3.82,2.6,3.82.61-8.87-5.82-8.49-7.7,3.4-8,8.14C30.28,105,30.58,103.79,31.71,105.06Z"/><rect id="Rectangle_800" data-name="Rectangle 800" class="cls-16" x="77.25" y="95.66" width="75.01" height="46.79"/><rect id="Rectangle_801" data-name="Rectangle 801" class="cls-17" x="81.99" y="91.09" width="75.01" height="46.79"/><path id="Path_1266" data-name="Path 1266" class="cls-8" d="M131,125.86a16.16,16.16,0,0,0-11.45-27.58v16.18Z"/><path id="Path_1267" data-name="Path 1267" class="cls-18" d="M119.56,98.28a16.17,16.17,0,0,0-7.75,30.39l7.75-14.2Z"/><path id="Path_1268" data-name="Path 1268" class="cls-19" d="M131,125.86l-11.45-11.44-7.7,14.19A16.17,16.17,0,0,0,131,125.88Z"/><rect id="Rectangle_802" data-name="Rectangle 802" class="cls-8" x="84.82" y="128.18" width="3.09" height="3.09"/><rect id="Rectangle_803" data-name="Rectangle 803" class="cls-19" x="89.31" y="128.18" width="3.09" height="3.09"/><rect id="Rectangle_804" data-name="Rectangle 804" class="cls-18" x="93.74" y="128.18" width="3.09" height="3.09"/><rect id="Rectangle_805" data-name="Rectangle 805" class="cls-7" x="138.33" y="128.88" width="12.72" height="0.52"/><rect id="Rectangle_806" data-name="Rectangle 806" class="cls-7" x="138.33" y="130.4" width="12.72" height="0.52"/><rect id="Rectangle_807" data-name="Rectangle 807" class="cls-7" x="138.33" y="131.96" width="12.72" height="0.52"/><rect id="Rectangle_808" data-name="Rectangle 808" class="cls-16" x="217.69" y="80.68" width="43.66" height="47.93"/><rect id="Rectangle_809" data-name="Rectangle 809" class="cls-17" x="222.13" y="76.11" width="43.66" height="47.93"/><rect id="Rectangle_810" data-name="Rectangle 810" class="cls-8" x="224.39" y="118.6" width="2.35" height="2.35"/><rect id="Rectangle_811" data-name="Rectangle 811" class="cls-19" x="227.79" y="118.6" width="2.35" height="2.35"/><rect id="Rectangle_812" data-name="Rectangle 812" class="cls-18" x="231.18" y="118.6" width="2.35" height="2.35"/><rect id="Rectangle_813" data-name="Rectangle 813" class="cls-7" x="250.82" y="119.64" width="9.14" height="0.4"/><rect id="Rectangle_814" data-name="Rectangle 814" class="cls-7" x="250.82" y="120.73" width="9.14" height="0.4"/><rect id="Rectangle_815" data-name="Rectangle 815" class="cls-7" x="250.82" y="121.86" width="9.14" height="0.4"/><path id="Path_1269" data-name="Path 1269" class="cls-18" d="M243.93,84.56v3.88a11.62,11.62,0,0,1,8.24,19.84l2.74,2.8a15.5,15.5,0,0,0-11-26.46Z"/><path id="Path_1270" data-name="Path 1270" class="cls-19" d="M254.91,111.08l-2.74-2.74a11.64,11.64,0,0,1-15.24,1l-2.33,3.08A15.52,15.52,0,0,0,254.91,111.08Z"/><path id="Path_1271" data-name="Path 1271" class="cls-8" d="M232.31,100.06A11.64,11.64,0,0,1,244,88.42V84.56a15.47,15.47,0,0,0-9.31,27.82l2.33-3.1A11.45,11.45,0,0,1,232.31,100.06Z"/><rect id="Rectangle_816" data-name="Rectangle 816" class="cls-16" x="161.83" y="119.34" width="39.96" height="43.79"/><rect id="Rectangle_817" data-name="Rectangle 817" class="cls-17" x="165.84" y="115.16" width="39.96" height="43.79"/><path id="Path_1272" data-name="Path 1272" class="cls-17" d="M169.67,117.91v33.51h32.39"/><rect id="Rectangle_818" data-name="Rectangle 818" class="cls-18" x="171.5" y="139.23" width="7.27" height="11.58"/><rect id="Rectangle_819" data-name="Rectangle 819" class="cls-8" x="181.95" y="131.31" width="7.27" height="19.5"/><rect id="Rectangle_820" data-name="Rectangle 820" class="cls-19" x="192.44" y="122.13" width="7.27" height="28.69"/><rect id="Rectangle_821" data-name="Rectangle 821" class="cls-18" x="169.23" y="154.03" width="2.13" height="2.13"/><rect id="Rectangle_822" data-name="Rectangle 822" class="cls-8" x="172.32" y="154.03" width="2.13" height="2.13"/><rect id="Rectangle_823" data-name="Rectangle 823" class="cls-19" x="175.46" y="154.03" width="2.13" height="2.13"/><rect id="Rectangle_824" data-name="Rectangle 824" class="cls-7" x="193.39" y="155" width="9.53" height="0.35"/><rect id="Rectangle_825" data-name="Rectangle 825" class="cls-7" x="193.39" y="156" width="8.35" height="0.35"/><rect id="Rectangle_826" data-name="Rectangle 826" class="cls-7" x="193.39" y="157" width="8.35" height="0.35"/></g></g></svg>