<svg xmlns="http://www.w3.org/2000/svg" xmlns:xlink="http://www.w3.org/1999/xlink" width="446.698" height="264.875" viewBox="0 0 446.698 264.875">
  <defs>
    <linearGradient id="linear-gradient" x1="0.123" y1="0.5" x2="1.124" y2="0.5" gradientUnits="objectBoundingBox">
      <stop offset="0" stop-color="#a5d1fe"/>
      <stop offset="1" stop-color="#c8e0ff"/>
    </linearGradient>
    <linearGradient id="linear-gradient-2" x1="0.115" y1="0.479" x2="1.159" y2="0.479" xlink:href="#linear-gradient"/>
  </defs>
  <g id="use_case_illustration_6" data-name="use case illustration 6" transform="translate(-756.802 -2751)">
    <g id="Layer_2" transform="translate(757.302 2812.491)">
      <path id="Path_1715" data-name="Path 1715" d="M433.271,280.293c2.2-3.257,43.079-66.614-30.62-93.488-41.288-15.066-105.7,19.463-144.386-36.239S110.867,57.892,61.028,111.8c-57.819,62.461-87.869,173.539-2.28,176.39C147.676,291.124,433.271,280.293,433.271,280.293Z" transform="translate(-2.313 -85.494)" fill="#f1f7ff"/>
      <g id="Group_353" data-name="Group 353" transform="translate(66.777 114.015)">
        <path id="Path_1716" data-name="Path 1716" d="M86.563,269.462l63.764,34.529,90.719-50.816V234.2l-90.068,50.979L86.4,248.614Z" transform="translate(-84.12 -227.115)" fill="#f1f7ff"/>
        <path id="Path_1717" data-name="Path 1717" d="M101.027,233.318,83.6,243.009l66.859,37.7L241.667,229.9l-6.352-4.4-81.68,25.815Z" transform="translate(-83.6 -225.5)" fill="#f96701"/>
        <path id="Path_1718" data-name="Path 1718" d="M83.6,244.011v26.467l66.859,36.32,90.312-51.63v-5.13L150.459,301.1l-62.787-34.2-.489-16.124,63.276,36.076,91.208-51.386V230.9l-91.208,50.816Z" transform="translate(-83.6 -226.502)" fill="#cc5605"/>
      </g>
      <g id="Group_354" data-name="Group 354" transform="translate(76.631 61.896)">
        <path id="Path_1719" data-name="Path 1719" d="M97.9,214.407V232.73l58.389,32s79.888-45.278,79.888-46.418V200.4l-79.888,46.174Z" transform="translate(-96.108 -168.722)" fill="#f1f7ff"/>
        <path id="Path_1720" data-name="Path 1720" d="M186.827,161.5c1.873.57,50.734,29.154,50.734,29.154l-81.68,47.314L95.7,203.765,155.881,165Z" transform="translate(-95.7 -161.5)" fill="#00217e" opacity="0.73"/>
        <path id="Path_1721" data-name="Path 1721" d="M95.7,232.643l60.181,34.447,83.96-48.129v-3.583l-4.072-2.687v2.85L156.451,261.39,99.2,230.933V216.682l56.679,31.6,81.68-46.174v-4.8l-81.68,47.233L95.7,210.411Z" transform="translate(-95.7 -168.146)" fill="#00217e"/>
      </g>
      <g id="Group_355" data-name="Group 355" transform="translate(88.276 44.795)">
        <path id="Path_1722" data-name="Path 1722" d="M112.8,184.093V202.9l42.428,22.883,50-29.643V178.8l-49.35,28.177Z" transform="translate(-110.52 -147.61)" fill="#f1f7ff"/>
        <path id="Path_1723" data-name="Path 1723" d="M158.21,140.5,110,172.993l45.36,25.164,52.852-30.294Z" transform="translate(-110 -140.5)" fill="#70ba02"/>
        <path id="Path_1724" data-name="Path 1724" d="M110,179.23v23.7l45.36,25.408,52.852-31.19V193.4l-4.072-2.687v2.85L155.36,221.5l-39.9-22.558-.814-11.727,40.718,22.313,52.852-30.294V174.1L155.36,204.394Z" transform="translate(-110 -146.738)" fill="#00a777"/>
      </g>
      <g id="Group_356" data-name="Group 356" transform="translate(64.11 190.565)">
        <path id="Path_1725" data-name="Path 1725" d="M80.386,327.236c15.066-.651,30.131-1.059,45.278-1.547l22.639-.57c7.574-.163,15.066-.326,22.639-.407l22.639-.244,11.32-.163,11.32-.163c15.066-.244,30.131-.651,45.278-1.14,15.066-.489,30.131-.9,45.278-1.3,15.066-.407,30.131-.733,45.278-1.059q45.2-.977,90.557-1.14c.081,0,.081,0,.081.081s0,.081-.081.081c-30.131,1.14-60.344,2.036-90.475,2.687-15.066.407-30.131.651-45.278.9-15.066.244-30.213.489-45.278.651s-30.213.407-45.278.814l-11.32.326-11.32.326-22.639.733c-7.574.163-15.066.407-22.639.489l-22.639.407c-15.066.244-30.213.407-45.278.407-.081,0-.081,0-.081-.081C80.3,327.236,80.3,327.236,80.386,327.236Z" transform="translate(-80.325 -319.5)" fill="#a5d1fe"/>
      </g>
      <g id="Group_357" data-name="Group 357" transform="translate(143.327 197.878)">
        <path id="Path_1726" data-name="Path 1726" d="M177.926,333.79q14.414-.733,28.828-1.222l14.414-.407c4.8-.163,9.609-.163,14.414-.326L250,331.754l7.248-.081,7.248-.081c9.609-.163,19.219-.489,28.828-.814q14.414-.611,28.828-.977c9.609-.244,19.219-.57,28.828-.733,19.219-.407,38.519-.651,57.738-.57.081,0,.081,0,.081.081s0,.081-.081.081c-19.219.977-38.438,1.629-57.738,2.117-9.609.244-19.219.407-28.91.57-9.609.163-19.219.244-28.91.326-9.609.081-19.219.163-28.91.489l-7.248.244-7.248.244-14.414.57c-4.8.081-9.609.326-14.414.407l-14.414.244c-9.609.081-19.219.163-28.91.081.244,0,.244-.081.326-.163Z" transform="translate(-177.6 -328.481)" fill="#a5d1fe"/>
      </g>
      <ellipse id="Ellipse_140" data-name="Ellipse 140" cx="23.209" cy="22.802" rx="23.209" ry="22.802" transform="translate(17.997 23.133)" fill="none" stroke="#a5d1fe" stroke-linecap="round" stroke-miterlimit="10" stroke-width="1"/>
      <ellipse id="Ellipse_141" data-name="Ellipse 141" cx="14.17" cy="13.926" rx="14.17" ry="13.926" transform="translate(417.358 106.686)" fill="none" stroke="#a5d1fe" stroke-linecap="round" stroke-miterlimit="10" stroke-width="1"/>
      <ellipse id="Ellipse_142" data-name="Ellipse 142" cx="11.238" cy="10.994" rx="11.238" ry="10.994" transform="translate(236.652 35.104)" fill="#a5d1fe" opacity="0.34"/>
      <ellipse id="Ellipse_143" data-name="Ellipse 143" cx="11.238" cy="10.994" rx="11.238" ry="10.994" transform="translate(3.257 86.327)" fill="#a5d1fe" opacity="0.34"/>
      <ellipse id="Ellipse_144" data-name="Ellipse 144" cx="10.179" cy="10.017" rx="10.179" ry="10.017" transform="translate(0 87.63)" fill="none" stroke="#a5d1fe" stroke-linecap="round" stroke-miterlimit="10" stroke-width="1"/>
      <ellipse id="Ellipse_145" data-name="Ellipse 145" cx="6.922" cy="6.759" rx="6.922" ry="6.759" transform="translate(271.751 163.772)" fill="#a5d1fe" opacity="0.34"/>
      <path id="Path_1727" data-name="Path 1727" d="M387.761,193.9,363.9,208.8l23.372,12.052Z" transform="translate(-68.858 -105.619)" fill="none" stroke="#a5d1fe" stroke-miterlimit="10" stroke-width="1"/>
      <ellipse id="Ellipse_146" data-name="Ellipse 146" cx="6.922" cy="6.759" rx="6.922" ry="6.759" transform="translate(312.143 93.086)" fill="#a5d1fe" opacity="0.34"/>
    </g>
    <g id="Layer_4" transform="translate(853.605 2751)">
      <path id="Path_1728" data-name="Path 1728" d="M162.8,195.2a94.758,94.758,0,0,1-13.6,0S154.819,195.363,162.8,195.2Z" transform="translate(-125.304 -44.369)" fill="#a5d1fe"/>
      <path id="Path_1729" data-name="Path 1729" d="M231.374,253.274l-12.785,1.14s-4.642-41.125-10.75-64.334h0a2.38,2.38,0,0,0-1.384-1.547c-.244-.081-.407-.163-.651-.244a4.645,4.645,0,0,0-2.117,0c-11.971,2.85-27.037,3.665-37.786,3.909,15.88-1.222,32.574-6.352,53.829-12.623C247.091,171.594,231.374,253.274,231.374,253.274Z" transform="translate(-128.404 -41.366)" fill="#a5d1fe"/>
      <g id="Group_358" data-name="Group 358" transform="translate(47.268 65.161)">
        <path id="Path_1730" data-name="Path 1730" d="M225.242,97.818,240.959,90l-7.818,46.093S220.6,123.877,220.6,123.226,225.242,97.818,225.242,97.818Z" transform="translate(-185.827 -90)" fill="#f1f7ff" stroke="#a5d1fe" stroke-miterlimit="10" stroke-width="1"/>
        <path id="Path_1731" data-name="Path 1731" d="M177.9,153.521l47.314-9.854L212.673,130.8l-29.887,4.723Z" transform="translate(-177.9 -97.574)" fill="#f1f7ff" stroke="#a5d1fe" stroke-miterlimit="10" stroke-width="1"/>
      </g>
      <path id="Path_1732" data-name="Path 1732" d="M400.088,99.648c-20.277,14.658-26.874,14.414-31.6,12.948-35.506-11.157-53.34-27.851-59.2-34.2-1.384-1.547-1.629-2.525-1.14-3.095.651-.9,2.769-.977,4.886-.814a24.119,24.119,0,0,1,7.166,1.629l44.871,16.45a4.466,4.466,0,0,0,3.827-.326l12.623-9.121,9.609,10.912Z" transform="translate(-154.769 -21.946)" fill="#ffacb6" stroke="#ffacb6" stroke-miterlimit="10" stroke-width="1"/>
      <path id="Path_1733" data-name="Path 1733" d="M168.668,97s3.5,31.76,22.395,28.747-35.343,31.19-34.366,6.678C157.593,107.831,168.668,97,168.668,97Z" transform="translate(-126.693 -26.139)" fill="#ff9898"/>
      <path id="Path_1734" data-name="Path 1734" d="M175.829,69.992a13.147,13.147,0,0,0-3.339,4.479c-2.932,5.863-4.235,14.333-4.235,14.333-.081.081-.081.163-.163.163-3.583,4.642-13.193-7.085-13.193-7.085,2.932-1.14,7.574-13.681,7.574-13.681Z" transform="translate(-126.362 -20.792)" fill="#ffacb6"/>
      <path id="Path_1735" data-name="Path 1735" d="M174.936,75.346A70.249,70.249,0,0,0,170.7,89.679c-.081.081-.081.163-.163.163.977-10.75-3.746-18.079-2.769-16.776C169.154,75.02,174.692,75.346,174.936,75.346Z" transform="translate(-128.726 -21.668)" fill="#ff9898"/>
      <path id="Path_1736" data-name="Path 1736" d="M172.569,70.008a32.864,32.864,0,0,1-8.306-2.362S147.487,46.8,178.351,44.6h.081a.252.252,0,0,0,.081.163c.163.407.651,1.71,1.3,3.5C182.26,55.594,186.087,71.555,172.569,70.008Z" transform="translate(-127.255 -16.411)" fill="#ffacb6"/>
      <path id="Path_1737" data-name="Path 1737" d="M173.4,143.915,148.8,169.486l-5.049,5.293c-55.783-37.3,3.42-88.6,4.642-89.579h0a18.932,18.932,0,0,0,13.355,6.841s1.14,14.821,5.538,21.255C171.685,119.566,173.4,143.915,173.4,143.915Z" transform="translate(-119.857 -23.948)" fill="blue"/>
      <path id="Path_1738" data-name="Path 1738" d="M148.9,169.486l-5.049,5.293c-55.783-37.3,3.42-88.6,4.642-89.579-.733.814-24.675,27.362-23.861,44.79.9,17.672,4.4,29.724,22.965,38.845A6.492,6.492,0,0,1,148.9,169.486Z" transform="translate(-119.875 -23.948)" fill="#00217e" opacity="0.65"/>
      <path id="Path_1739" data-name="Path 1739" d="M398.722,100.745c-20.277,14.658-25.408,13.518-30.131,12.052-35.506-11.157-53.34-27.851-59.2-34.2-1.384-1.547-1.629-2.525-1.14-3.095,2.932,2.85,35.506,34.122,65.23,32.574,11.32-.57,16.124-6.515,17.753-13.844Z" transform="translate(-154.787 -22.147)" fill="#ff9898"/>
      <path id="Path_1740" data-name="Path 1740" d="M164.588,56.552a5.04,5.04,0,0,0,2.606,3.013S165,66,168.9,69.827c-2.28-.244-1.3-.9-4.642-2.28,0,0-16.776-20.848,14.088-23.046.081,0,.081.081.163.163.163.407.651,1.71,1.3,3.5-.9,2.687-3.909,6.922-13.844,6.6A1.45,1.45,0,0,0,164.588,56.552Z" transform="translate(-127.255 -16.392)" fill="#ff9898"/>
      <path id="Path_1741" data-name="Path 1741" d="M175.028,40.244s2.932,10.261-9.854,10.831-2.932,7-2.932,7-1.222,10.505,6.352,11.727c0,0-10.342,9.609-26.059,0S154.1,19.152,175.028,40.244Z" transform="translate(-123.2 -14.498)" fill="#00217e"/>
      <path id="Path_1742" data-name="Path 1742" d="M161.33,161.743s-12.7,16.45-12.134,24.431c0,0,17.183,19.707,61.321-4.886,0,0,20.6-10.505,21.743,12.052l13.355,22.8,10.424-6.026s-12.215-64.823-36.32-63.52L172.4,156.449C172.568,156.449,165.972,161.254,161.33,161.743Z" transform="translate(-125.3 -35.342)" fill="url(#linear-gradient)"/>
      <path id="Path_1743" data-name="Path 1743" d="M175.829,144.548h0s-1.71-19.707-6.108-33.47S154.9,85.1,154.9,85.1h0a18.932,18.932,0,0,0,13.355,6.841s1.14,14.821,5.538,21.255c3.257,4.723,5.049,19.463,5.782,26.629A4.379,4.379,0,0,1,175.829,144.548Z" transform="translate(-126.362 -23.93)" fill="#00217e" opacity="0.57"/>
      <path id="Path_1744" data-name="Path 1744" d="M201.09,132.439c-28.991,1.629-27.688,23.7-54.155,20.359a11.1,11.1,0,0,1-4.8-1.792c-19.056-13.03-4.723-40.636,1.954-51.223a5.679,5.679,0,0,1,5.945-2.606,5.575,5.575,0,0,1,4.4,3.665c4.316,11.971-8.225,42.265,20.44,31.353C207.2,119.816,201.09,132.439,201.09,132.439Z" transform="translate(-122.224 -26.153)" fill="#ffacb6"/>
      <path id="Path_1745" data-name="Path 1745" d="M230.6,271.34l12.785-1.14v5.619s50.572,13.844-11.645,9.772Z" transform="translate(-140.415 -58.292)" fill="#00217e"/>
      <path id="Path_1746" data-name="Path 1746" d="M267.7,230.626c1.71-.326,10.424-6.026,10.424-6.026l2.362,3.99s39.985-8.958,13.6,3.827l-19.463,10.75Z" transform="translate(-147.303 -49.827)" fill="#00217e"/>
      <path id="Path_1747" data-name="Path 1747" d="M437.09,25.039s-11.32,17.427-.9,20.848,16.287-6.841,16.287-6.841,7.248-4.886,4.4-8.876-5.212,2.28-5.212,2.28S458.019,10.217,437.09,25.039Z" transform="translate(-177.763 -11.834)" fill="#ffacb6" stroke="#ffacb6" stroke-miterlimit="10" stroke-width="1"/>
      <path id="Path_1748" data-name="Path 1748" d="M456.1,35.244a.3.3,0,0,1,.081-.244C456.181,35.407,456.1,35.57,456.1,35.244Z" transform="translate(-182.278 -14.629)" fill="#00217e"/>
      <path id="Path_1749" data-name="Path 1749" d="M459.047,29.453c.326,6.6-1.629,8.876-3.42,9.447-.814-.407-1.466-.814-1.873-1.059-.326-.244-.57-.407-.57-.407,7.574-7.818.407-6.026-1.14-3.99a16.178,16.178,0,0,1-1.71-1.954,3.941,3.941,0,0,0-3.827-1.792c-5.049.57-8.062-2.28-9.935-3.909-.733-.651,1.222-1.873,1.14-2.85,0,0-.57-1.14-2.932-.163-1.873.814,1.71-1.792,2.932-3.257.244-.326,1.384-.244,1.71-.57,1.792-1.792,2.2-1.954,5.212-2.85.651-.163,3.42,1.873,4.072,1.71,1.384-.326,1.466,1.873,2.932,1.71,3.583.9,5.538-3.176,5.538-3.176C465.4,19.192,459.047,29.453,459.047,29.453Z" transform="translate(-178.221 -11.118)" fill="#ff9898"/>
      <path id="Path_1750" data-name="Path 1750" d="M458.92,28.32c.326,6.6-1.629,8.876-3.42,9.447s-3.42-.489-2.687-.651a3.049,3.049,0,0,0,.814-.489,16.4,16.4,0,0,0,2.687-3.013,4.96,4.96,0,0,0,.9-4.235c-.9-3.583-4.56-.163-5.212.9.081-.733.326-2.362.489-3.583v-.244c.081-.733.163-1.3.163-1.3a14.984,14.984,0,0,1-15.228-2.036,13.657,13.657,0,0,1-2.606-1.547c-2.932-2.443,0-4.479,1.629-5.375a3.634,3.634,0,0,1,.977-.407c0-.163-.081-.326-.081-.489-.489-4.886,5.212-4.4,7.492-3.99.57.081.977.163.977.163a6.793,6.793,0,0,1,.977-.651,5.379,5.379,0,0,1,4.235-.651c3.583.9,6.189,5.049,6.189,5.049C465.272,18.059,458.92,28.32,458.92,28.32Z" transform="translate(-178.094 -9.985)" fill="#00217e"/>
      <g id="Group_359" data-name="Group 359" transform="translate(240.471 116.352)">
        <path id="Path_1751" data-name="Path 1751" d="M415.19,168.61c1.954,24.675,8.144,92.348,17.59,104.889h12.46s-11.89-83.39-7.248-95.361c4.072-10.505,5.7-31.434-14.088-23.535A14,14,0,0,0,415.19,168.61Z" transform="translate(-415.145 -152.861)" fill="blue" stroke="#00217e" stroke-miterlimit="10" stroke-width="2"/>
        <path id="Path_1752" data-name="Path 1752" d="M480.54,163.633,463.031,274.956,451.3,273.9l-1.3-.081s-20.685-111.241-1.466-117.593A31.465,31.465,0,0,1,478.5,161.76,19.868,19.868,0,0,1,480.54,163.633Z" transform="translate(-419.826 -153.178)" fill="blue" stroke="#00217e" stroke-miterlimit="10" stroke-width="2"/>
      </g>
      <path id="Path_1753" data-name="Path 1753" d="M483.035,165.273,465.527,276.6,453.8,275.537c.163-.081.407-.244.57-.326,15.228-7.329,25.408-109.857,25.408-109.857a20.771,20.771,0,0,1,1.14-1.954A17.255,17.255,0,0,1,483.035,165.273Z" transform="translate(-181.851 -38.465)" fill="#00217e" opacity="0.73"/>
      <path id="Path_1754" data-name="Path 1754" d="M518.961,129.1a.792.792,0,0,1-.081.733C518.717,130.077,518.8,129.833,518.961,129.1Z" transform="translate(-193.916 -32.098)" fill="#a5d1fe"/>
      <path id="Path_1755" data-name="Path 1755" d="M496.642,110.4a34.419,34.419,0,0,1-.977,5.375c-1.14-4.072-28.014-10.179-28.014-10.179l2.932,8.551s.163,4.56.407,10.1c.326,9.2.814,21.255.814,21.255.081,0-45.278,1.466-59.041,1.466-2.362,0-2.2-3.257-2.362-5.538L407.8,106.161,393.3,82.219c12.785-16.531,39.822-24.268,39.822-24.268l13.6-.651,1.466.489C495.013,72.61,497.863,98.506,496.642,110.4Z" transform="translate(-170.619 -18.769)" fill="#a5d1fe"/>
      <path id="Path_1756" data-name="Path 1756" d="M475.108,156.733c.081,0-45.278,1.466-59.041,1.466-2.362,0-2.2-3.257-2.362-5.538L411.1,117.4s2.606,35.1,7.818,36.239c14.984,3.257,53.748,7.736,53.748-14.007,0-2.362.57-3.665,1.547-4.153C474.62,144.681,475.108,156.733,475.108,156.733Z" transform="translate(-173.924 -29.926)" fill="#96c4ea"/>
      <g id="Group_360" data-name="Group 360" transform="translate(290.354 65.324)">
        <path id="Path_1757" data-name="Path 1757" d="M476.4,90.2a28.119,28.119,0,0,1,3.339,4.8,40.146,40.146,0,0,1,2.443,5.375,28.476,28.476,0,0,1,1.384,5.782,20.176,20.176,0,0,1-.081,5.863,57.091,57.091,0,0,0-1.14-5.619c-.489-1.873-1.059-3.665-1.71-5.456C479.332,97.285,477.866,93.783,476.4,90.2Z" transform="translate(-476.4 -90.2)" fill="#96c4ea"/>
      </g>
      <path id="Path_1758" data-name="Path 1758" d="M509.024,110.507a42.109,42.109,0,0,1-3.665-3.339c0-28.584-45.36-49.106-45.36-49.106.163-.081.326-.081.489-.163C507.4,72.721,510.246,98.618,509.024,110.507Z" transform="translate(-183.002 -18.88)" fill="#96c4ea"/>
      <path id="Path_1759" data-name="Path 1759" d="M397.29,82.4l11.971,23.046-3.42,2.85L393.3,86.879Z" transform="translate(-170.619 -23.428)" fill="blue"/>
      <path id="Path_1760" data-name="Path 1760" d="M455.953,54.926c0,11.4-8.714,7.818-14.007,3.909-2.2-1.629-3.746-3.013-3.746-3.013,2.443-1.547,3.095-3.176,3.013-4.56a2.378,2.378,0,0,0-.163-.733,7.756,7.756,0,0,0-2.28-3.257L452.7,41c-.163,1.384-.244,2.606-.326,3.665h0C452.288,51.179,453.673,52.075,455.953,54.926Z" transform="translate(-178.955 -15.743)" fill="#ffacb6"/>
      <path id="Path_1761" data-name="Path 1761" d="M456.437,55.761c0,11.4-8.714,7.818-14.007,3.909,3.095,1.384,12.3,6.922,12.623-.407.244-4.642-16.776-7.736-13.926-7.9h.489c8.469-.57,11.238-5.619,11.4-5.863C452.772,52.015,453.586,52.911,456.437,55.761Z" transform="translate(-179.438 -16.578)" fill="#ff9898"/>
      <path id="Path_1762" data-name="Path 1762" d="M484.384,136.519C464.595,143.93,425.1,116,425.1,116c-10.912,1.14-22.232-10.831-19.87-16.043,1.3-2.85,6.759-3.746,18.73.651.9.326,1.792.651,2.525.977,6.6,2.932,5.619,5.13,5.619,5.13,27.281,13.03,37.786,6.433,37.786,6.433l26.711,2.28a9.731,9.731,0,0,1,.733,1.873C498.635,121.291,499.612,130.737,484.384,136.519Z" transform="translate(-172.775 -26.243)" fill="#ffacb6"/>
      <path id="Path_1763" data-name="Path 1763" d="M484.384,137.065c-19.789,7.411-59.285-20.522-59.285-20.522-10.912,1.14-22.232-10.831-19.87-16.043,1.466,2.606,8.469,12.948,24.268,12.948,0,0,52.282,40.555,66.859,6.841.326-.814.733-1.629,1.059-2.362C498.635,121.836,499.612,131.283,484.384,137.065Z" transform="translate(-172.775 -26.789)" fill="#ff9898"/>
      <path id="Path_1764" data-name="Path 1764" d="M484.7,115.765V112.1s28.665,2.687,29.154,6.271c.489,3.665-1.222,8.225-1.222,8.225S517.763,123.175,484.7,115.765Z" transform="translate(-187.587 -28.942)" fill="blue"/>
      <path id="Path_1765" data-name="Path 1765" d="M433.161,301h12.46v9.2H419.561S408.812,310.121,433.161,301Z" transform="translate(-175.056 -64.01)" fill="#00217e"/>
      <path id="Path_1766" data-name="Path 1766" d="M450.854,300.8h12.46V310H437.255S426.424,309.921,450.854,300.8Z" transform="translate(-178.335 -63.973)" fill="#00217e"/>
      <path id="Path_1767" data-name="Path 1767" d="M201.09,132.439c-28.991,1.629-27.688,23.7-54.155,20.359a11.1,11.1,0,0,1-4.8-1.792c-19.056-13.03-4.723-40.636,1.954-51.223a5.679,5.679,0,0,1,5.945-2.606s-18.73,24.186-11.157,39.578,19.219,12.541,31.353,6.271S195.878,126.982,201.09,132.439Z" transform="translate(-122.224 -26.153)" fill="#ff9898"/>
      <path id="Path_1768" data-name="Path 1768" d="M215.551,190.637c-.244-.081-.407-.163-.651-.244C215.063,190.312,215.307,190.393,215.551,190.637Z" transform="translate(-137.501 -43.471)" fill="url(#linear-gradient-2)"/>
      <path id="Path_1769" data-name="Path 1769" d="M228.15,256.934s-4.642-41.125-10.75-64.334C223.589,201.232,239.958,237.96,228.15,256.934Z" transform="translate(-137.965 -43.886)" fill="#9bcff9"/>
    </g>
  </g>
</svg>
