<svg xmlns="http://www.w3.org/2000/svg" width="446.1" height="258.43" viewBox="0 0 446.1 258.43">
  <g id="use_case_illustration_1" data-name="use case illustration 1" transform="translate(-212 -1828)">
    <g id="use_case_1" transform="translate(206.6 1820.365)">
      <g id="Layer_2_1_" transform="translate(5.4 7.635)">
        <path id="Path_1294" data-name="Path 1294" d="M445.4,70.4s9.316,46.663,37.017,44.519S445.4,70.4,445.4,70.4Z" transform="translate(-82.65 -18.655)" fill="#f1f7ff"/>
        <path id="Path_1295" data-name="Path 1295" d="M38.345,261.943S13.53,229.955,61.924,200.111c0,0,26.052-13.85,9.646-56.968C56.9,104.23,95.643-3.689,177.839,41.078c14.84,8.079,37.841,37.677,73.374.989C286.5,5.71,350.558-18.693,366.3,58.391c15.582,76.425,105.28,58.37,44.19,147.244l-44.272,49.3Z" transform="translate(-10.067 -7.635)" fill="#f1f7ff"/>
        <g id="Group_266" data-name="Group 266" transform="translate(8.739 36.658)">
          <path id="Path_1296" data-name="Path 1296" d="M176.986,136.08s-2.308-7.42-24.486-18.8,1.731-48.394-10.8-64.883c0,0,88.791,15.912,74.529,87.637Z" transform="translate(-38.069 -52.153)" fill="#c8e0ff"/>
          <path id="Path_1297" data-name="Path 1297" d="M417.425,183.75s-18.8-55.732,87.06-50.62c0,0-14.757,3.957-24.486,31.823S447.022,207.081,417.425,183.75Z" transform="translate(-86.251 -66.268)" fill="#c8e0ff"/>
          <path id="Path_1298" data-name="Path 1298" d="M132.162,205.662s-13.108-56.309-23.331-50.62c0,0-5.689,1.154-1.731,12.531s-8-10.223-18.8-16.489c-4.2-2.391-10.8,3.38-2.308,12.531,7.832,8.327-7.75,1.9-13.521-4.947-1.237-1.484-2.8-3.957-4.7-4.122-2.721-.247-5.689,2.144-2.308,8,5.689,9.646-6.843-5.689-17.643,1.154S16,185.876,16,185.876s17.643-2.886,23.331,1.731c5.689,4.534,15.912-8.079,15.912.577,0,12.531,23.991-5.936,19.951,2.886-6.843,14.757,26.712-9.646,17.643,9.646C80.8,226.273,128.7,195.027,132.08,213.247v-7.585Z" transform="translate(-16 -69.384)" fill="#c8e0ff"/>
          <g id="Group_265" data-name="Group 265" transform="translate(103.878)">
            <path id="Path_1299" data-name="Path 1299" d="M142,52.1a172.417,172.417,0,0,1,22.177,16.571A146.521,146.521,0,0,1,183.469,88.54c5.771,7.255,10.882,15.17,14.015,23.909a48.17,48.17,0,0,1,2.8,13.6,36.772,36.772,0,0,1-1.979,13.686,39.92,39.92,0,0,0,1.154-13.6,48.261,48.261,0,0,0-3.215-13.191,60.588,60.588,0,0,0-2.8-6.266c-1.072-2.061-2.144-4.04-3.38-5.936a104.738,104.738,0,0,0-7.915-11.13A179.674,179.674,0,0,0,163.27,69.66c-3.38-3.133-6.843-6.1-10.388-8.986C149.42,57.624,145.71,54.821,142,52.1Z" transform="translate(-142 -52.1)" fill="#f1f7ff"/>
          </g>
        </g>
        <g id="Group_267" data-name="Group 267" transform="translate(339.913 103.19)">
          <path id="Path_1300" data-name="Path 1300" d="M417.7,183.75a93.546,93.546,0,0,1,16.654-19.869,115.933,115.933,0,0,1,21.023-15.252A127.737,127.737,0,0,1,467,142.776c1.979-.907,4.04-1.649,6.018-2.473,2.061-.742,4.04-1.484,6.183-2.144a126.947,126.947,0,0,1,25.31-5.359,170.222,170.222,0,0,0-24.9,6.6c-.989.33-1.979.742-3.05,1.072-.989.412-1.979.742-2.968,1.154-1.979.824-3.957,1.649-5.936,2.556a131.25,131.25,0,0,0-22.26,12.779c-3.545,2.473-6.843,5.111-10.141,7.915-3.215,2.8-6.348,5.771-9.316,8.9A86.823,86.823,0,0,0,417.7,183.75Z" transform="translate(-417.7 -132.8)" fill="#f1f7ff"/>
        </g>
        <g id="Group_268" data-name="Group 268" transform="translate(6.843 141.021)">
          <path id="Path_1301" data-name="Path 1301" d="M13.7,190.4a111.212,111.212,0,0,1,31.658-10.223A102.5,102.5,0,0,1,62.012,178.7a94.75,94.75,0,0,1,16.736,1.237,90.118,90.118,0,0,1,16.159,4.452c1.319.495,2.556,1.072,3.875,1.649a31.993,31.993,0,0,1,3.792,1.814l1.9.989.907.495.907.577,3.545,2.226c1.154.742,2.308,1.566,3.463,2.391l1.731,1.237c.577.412,1.072.907,1.649,1.319l3.215,2.638c1.072.907,2.061,1.9,3.05,2.886,2.061,1.9,3.875,4.04,5.771,6.018.989.989,1.731,2.144,2.638,3.215l2.556,3.3L131.182,212c-.907-.989-1.814-2.144-2.8-3.05-1.979-1.979-3.875-3.957-5.936-5.771-1.072-.907-2.061-1.9-3.133-2.721l-3.3-2.556c-.577-.412-1.072-.907-1.649-1.237l-1.731-1.154c-1.154-.742-2.226-1.566-3.463-2.226a97.969,97.969,0,0,0-14.757-7.255,88.735,88.735,0,0,0-15.912-4.2c-10.8-1.979-22.012-1.649-32.895-.082a134.1,134.1,0,0,0-16.159,3.463A75.028,75.028,0,0,0,13.7,190.4Z" transform="translate(-13.7 -178.688)" fill="#f1f7ff"/>
        </g>
        <path id="Path_1302" data-name="Path 1302" d="M329.5,283.886H155.3V156.347a4.961,4.961,0,0,1,4.947-4.947H324.721a4.785,4.785,0,0,1,4.782,4.782v127.7Z" transform="translate(-31.718 -32.876)" fill="#00217e" stroke="#fff" stroke-miterlimit="10" stroke-width="2"/>
        <circle id="Ellipse_105" data-name="Ellipse 105" cx="2.721" cy="2.721" r="2.721" transform="translate(210.313 122.564)" fill="#00217e"/>
        <path id="Path_1303" data-name="Path 1303" d="M321.492,286.337H167.9V169.845a3.519,3.519,0,0,1,3.545-3.545H317.864a3.519,3.519,0,0,1,3.545,3.545V286.337h.082Z" transform="translate(-33.93 -35.492)" fill="#f4f4f9"/>
        <circle id="Ellipse_106" data-name="Ellipse 106" cx="11.46" cy="11.46" r="11.46" transform="translate(149.14 178.708)" fill="#f1b9a8"/>
        <circle id="Ellipse_107" data-name="Ellipse 107" cx="11.13" cy="11.13" r="11.13" transform="translate(221.607 146.39)" fill="#fff"/>
        <circle id="Ellipse_108" data-name="Ellipse 108" cx="11.13" cy="11.13" r="11.13" transform="translate(149.882 214.653)" fill="#fff"/>
        <rect id="Rectangle_831" data-name="Rectangle 831" width="16.489" height="16.489" transform="translate(186.899 148.451)" fill="none" stroke="#00217e" stroke-miterlimit="10" stroke-width="2"/>
        <rect id="Rectangle_832" data-name="Rectangle 832" width="16.489" height="16.489" transform="translate(186.899 182.583)" fill="none" stroke="#00217e" stroke-miterlimit="10" stroke-width="2"/>
        <rect id="Rectangle_833" data-name="Rectangle 833" width="16.489" height="16.489" transform="translate(186.899 217.539)" fill="none" stroke="#00217e" stroke-miterlimit="10" stroke-width="2"/>
        <path id="Path_1304" data-name="Path 1304" d="M332.089,205.1H315.6l.412-16.9H332.5Z" transform="translate(-59.861 -39.337)" fill="none" stroke="#00217e" stroke-miterlimit="10" stroke-width="2"/>
        <path id="Path_1305" data-name="Path 1305" d="M332.089,246.5H315.6l.412-16.9H332.5Z" transform="translate(-59.861 -46.605)" fill="none" stroke="#00217e" stroke-miterlimit="10" stroke-width="2"/>
        <path id="Path_1306" data-name="Path 1306" d="M332.089,289H315.6l.412-16.9H332.5Z" transform="translate(-59.861 -54.067)" fill="none" stroke="#00217e" stroke-miterlimit="10" stroke-width="2"/>
        <path id="Path_1307" data-name="Path 1307" d="M403.9,176.669s6.431-3.463,41.387,23.661a21.381,21.381,0,0,1,8.327,16.571l1.484,68.923H414.7Z" transform="translate(-75.364 -37.287)" fill="#70ba02"/>
        <path id="Path_1308" data-name="Path 1308" d="M96.35,132.795H59.168a2.956,2.956,0,0,1-2.968-2.968v-5.359a2.956,2.956,0,0,1,2.968-2.968H96.432a2.956,2.956,0,0,1,2.968,2.968v5.359A3.027,3.027,0,0,1,96.35,132.795Z" transform="translate(-14.319 -27.626)" fill="#c8e0ff"/>
        <path id="Path_1309" data-name="Path 1309" d="M109.732,112.092H83.268a2.956,2.956,0,0,1-2.968-2.968v-2.556a2.956,2.956,0,0,1,2.968-2.968h26.464a2.956,2.956,0,0,1,2.968,2.968v2.556A3.009,3.009,0,0,1,109.732,112.092Z" transform="translate(-18.55 -24.484)" fill="#c8e0ff"/>
        <path id="Path_1310" data-name="Path 1310" d="M309.661,109.671H267.615a3.219,3.219,0,0,1-3.215-3.215V96.315a3.219,3.219,0,0,1,3.215-3.215h42.046a3.219,3.219,0,0,1,3.215,3.215v10.141A3.219,3.219,0,0,1,309.661,109.671Z" transform="translate(-50.872 -22.64)" fill="#c8e0ff"/>
        <path id="Path_1311" data-name="Path 1311" d="M334.107,131.282H293.215A3.219,3.219,0,0,1,290,128.066v-9.151a3.219,3.219,0,0,1,3.215-3.215h40.892a3.219,3.219,0,0,1,3.215,3.215v9.151A3.331,3.331,0,0,1,334.107,131.282Z" transform="translate(-55.367 -26.608)" fill="#c8e0ff"/>
        <path id="Path_1312" data-name="Path 1312" d="M523.076,215.991h-28.36a3.219,3.219,0,0,1-3.215-3.215v-6.76a3.219,3.219,0,0,1,3.215-3.215h28.36a3.219,3.219,0,0,1,3.215,3.215v6.76A3.219,3.219,0,0,1,523.076,215.991Z" transform="translate(-90.744 -41.9)" fill="#c8e0ff"/>
        <path id="Path_1313" data-name="Path 1313" d="M536.982,230.428H513.815a3.219,3.219,0,0,1-3.215-3.215v-3.3a3.219,3.219,0,0,1,3.215-3.215h23.167a3.219,3.219,0,0,1,3.215,3.215v3.3A3.168,3.168,0,0,1,536.982,230.428Z" transform="translate(-94.097 -45.043)" fill="#c8e0ff"/>
        <path id="Path_1314" data-name="Path 1314" d="M19.992,312.589H8.7a3.307,3.307,0,0,1-3.3-3.3V299.4a3.307,3.307,0,0,1,3.3-3.3H19.992a3.307,3.307,0,0,1,3.3,3.3v9.893A3.362,3.362,0,0,1,19.992,312.589Z" transform="translate(-5.4 -58.28)" fill="#70ba02"/>
        <path id="Path_1315" data-name="Path 1315" d="M25.244,312.589H15.6a3.307,3.307,0,0,1-3.3-3.3V299.4a3.307,3.307,0,0,1,3.3-3.3h9.646a3.307,3.307,0,0,1,3.3,3.3v9.893A3.362,3.362,0,0,1,25.244,312.589Z" transform="translate(-6.611 -58.28)" fill="#00a777"/>
        <path id="Path_1316" data-name="Path 1316" d="M91.573,312.606H23.227a3.66,3.66,0,0,1-3.627-3.627v-9.151a3.66,3.66,0,0,1,3.627-3.628H91.573a3.66,3.66,0,0,1,3.628,3.628v9.151A3.66,3.66,0,0,1,91.573,312.606Z" transform="translate(-7.893 -58.298)" fill="#ffd721"/>
        <g id="Group_269" data-name="Group 269" transform="translate(11.624 240.623)">
          <line id="Line_74" data-name="Line 74" x2="73.457" fill="none" stroke="blue" stroke-linecap="round" stroke-miterlimit="10" stroke-width="0.5"/>
          <line id="Line_75" data-name="Line 75" x2="75.683" transform="translate(0 3.957)" fill="none" stroke="blue" stroke-linecap="round" stroke-miterlimit="10" stroke-width="0.5"/>
          <line id="Line_76" data-name="Line 76" x2="75.683" transform="translate(0 7.997)" fill="none" stroke="blue" stroke-linecap="round" stroke-miterlimit="10" stroke-width="0.5"/>
          <line id="Line_77" data-name="Line 77" x2="74.034" transform="translate(0 11.377)" fill="none" stroke="blue" stroke-linecap="round" stroke-miterlimit="10" stroke-width="0.5"/>
        </g>
        <path id="Path_1317" data-name="Path 1317" d="M129.43,304.383l-20.528,8a1.039,1.039,0,0,1-1.4-.907v-14.18a1,1,0,0,1,1.319-.907Z" transform="translate(-23.326 -58.319)" fill="#00a777"/>
        <path id="Path_1318" data-name="Path 1318" d="M123.4,301.9v6.843l9.069-3.463Z" transform="translate(-26.117 -59.299)" fill="#ffd721"/>
        <path id="Path_1319" data-name="Path 1319" d="M412.8,188.554v97.283h-23V188.554a16.069,16.069,0,0,1,.165-2.061,11.488,11.488,0,0,1,22.754,0A17.229,17.229,0,0,1,412.8,188.554Z" transform="translate(-72.888 -37.3)" fill="#00a777"/>
        <line id="Line_78" data-name="Line 78" x1="0.247" y2="99.921" transform="translate(322.023 148.698)" fill="none" stroke="#fff" stroke-miterlimit="10" stroke-width="1"/>
        <line id="Line_79" data-name="Line 79" y2="104.126" transform="translate(325.156 144.164)" fill="none" stroke="#fff" stroke-miterlimit="10" stroke-width="1"/>
        <line id="Line_80" data-name="Line 80" y2="100.498" transform="translate(337.11 148.121)" fill="none" stroke="#fff" stroke-miterlimit="10" stroke-width="1"/>
        <line id="Line_81" data-name="Line 81" x1="0.247" y2="102.394" transform="translate(333.977 145.895)" fill="none" stroke="#fff" stroke-miterlimit="10" stroke-width="1"/>
        <line id="Line_82" data-name="Line 82" y2="105.775" transform="translate(328.536 143.01)" fill="none" stroke="#fff" stroke-miterlimit="10" stroke-width="1"/>
        <line id="Line_83" data-name="Line 83" y2="103.878" transform="translate(331.422 144.741)" fill="none" stroke="#fff" stroke-miterlimit="10" stroke-width="1"/>
        <line id="Line_84" data-name="Line 84" y2="97.283" transform="translate(319.467 151.584)" fill="none" stroke="#fff" stroke-miterlimit="10" stroke-width="1"/>
        <path id="Path_1320" data-name="Path 1320" d="M448.9,213.678s5.441-2.473,35.121,17.066a15.017,15.017,0,0,1,7.09,11.954l1.237,49.713h-34.3Z" transform="translate(-83.265 -43.792)" fill="blue"/>
        <path id="Path_1321" data-name="Path 1321" d="M456.6,222.274v70.159H437.8V222.274a9.09,9.09,0,0,1,.165-1.484c.742-4.04,4.617-7.09,9.234-7.09s8.492,3.05,9.234,7.09A9.083,9.083,0,0,1,456.6,222.274Z" transform="translate(-81.316 -43.814)" fill="#00217e"/>
        <line id="Line_85" data-name="Line 85" x1="0.247" y2="71.973" transform="translate(360.029 176.647)" fill="none" stroke="#fff" stroke-miterlimit="10" stroke-width="1"/>
        <line id="Line_86" data-name="Line 86" y2="75.106" transform="translate(362.75 173.349)" fill="none" stroke="#fff" stroke-miterlimit="10" stroke-width="1"/>
        <line id="Line_87" data-name="Line 87" x1="0.082" y2="72.385" transform="translate(372.808 176.235)" fill="none" stroke="#fff" stroke-miterlimit="10" stroke-width="1"/>
        <line id="Line_88" data-name="Line 88" x1="0.247" y2="73.869" transform="translate(370.17 174.586)" fill="none" stroke="#fff" stroke-miterlimit="10" stroke-width="1"/>
        <line id="Line_89" data-name="Line 89" y2="76.26" transform="translate(365.635 172.525)" fill="none" stroke="#fff" stroke-miterlimit="10" stroke-width="1"/>
        <line id="Line_90" data-name="Line 90" y2="74.858" transform="translate(368.026 173.761)" fill="none" stroke="#fff" stroke-miterlimit="10" stroke-width="1"/>
        <line id="Line_91" data-name="Line 91" y2="70.159" transform="translate(357.886 178.708)" fill="none" stroke="#fff" stroke-miterlimit="10" stroke-width="1"/>
        <g id="Group_274" data-name="Group 274" transform="translate(220.453 178.708)">
          <g id="Group_272" data-name="Group 272">
            <g id="Group_271" data-name="Group 271">
              <g id="Group_270" data-name="Group 270">
                <circle id="Ellipse_109" data-name="Ellipse 109" cx="11.954" cy="11.954" r="11.954" fill="#e53c27"/>
              </g>
            </g>
          </g>
          <g id="Group_273" data-name="Group 273" transform="translate(4.782 3.675)">
            <ellipse id="Ellipse_110" data-name="Ellipse 110" cx="0.824" cy="1.154" rx="0.824" ry="1.154" transform="translate(2.308 6.466)" fill="#f9b9a2"/>
            <ellipse id="Ellipse_111" data-name="Ellipse 111" cx="0.824" cy="1.402" rx="0.824" ry="1.402" transform="translate(10.8 5.971)" fill="#f9b9a2"/>
            <path id="Path_1322" data-name="Path 1322" d="M281.7,232.19s-.082,3.957.495,5.111h0s.082,5.689,4.04,5.689,4.37-4.782,4.122-5.771c-.165-.989,1.566-3.875.412-6.183C289.614,228.81,282.853,227.079,281.7,232.19Z" transform="translate(-279.143 -228.857)" fill="#743725"/>
            <rect id="Rectangle_834" data-name="Rectangle 834" width="3.38" height="2.886" transform="translate(5.689 13.556)" fill="#f9b9a2"/>
            <path id="Path_1323" data-name="Path 1323" d="M278.6,249.956a2.765,2.765,0,0,1,2.556-1.979l2.144-.577,2.473,2.556,2.8-2.556s2.638.907,2.968.907c.33-.082,2.061.742,1.979,1.4,0,0-3.545,3.215-7.667,2.968A15.26,15.26,0,0,1,278.6,249.956Z" transform="translate(-278.6 -232.113)" fill="#80b241"/>
            <path id="Path_1324" data-name="Path 1324" d="M285.2,246.5l1.484,1.154V249.8l.247-2.144,1.484-1.154.989.742-2.721,3.133-2.886-3.05Z" transform="translate(-279.513 -231.955)" fill="#fefefd"/>
            <path id="Path_1325" data-name="Path 1325" d="M282.966,235.98s-1.072-3.215,2.308-2.473c4.287.907,4.287-.907,4.287-.907a21.692,21.692,0,0,1,.247,2.8s2.308,3.71-1.154,5.524S280.658,239.031,282.966,235.98Z" transform="translate(-279.256 -229.514)" fill="#f9b9a2"/>
          </g>
        </g>
        <rect id="Rectangle_835" data-name="Rectangle 835" width="3.545" height="3.05" transform="translate(159.115 193.63)" fill="#e8a895"/>
        <path id="Path_1326" data-name="Path 1326" d="M194.72,234.752s1.484-7.42,6.6-4.04,2.473,8.574.824,9.316c0,0-1.9,3.545-5.441,0C193.072,236.483,194.72,234.752,194.72,234.752Z" transform="translate(-38.573 -46.645)" fill="#f9e1c9"/>
        <path id="Path_1327" data-name="Path 1327" d="M195.871,231.434a1.406,1.406,0,0,1-.577,2.473s.742,2.308-.824,2.886c0,0,1.649,1.237,1.566,2.556-.082,1.237-3.38-.907-3.05-2.144,0,0-1.814-.577-.577-1.9,0,0-2.721-.742-.495-2.061,0,0-1.484-.824.247-2.391,0,0-.66-1.484,1.484-1.237a1.229,1.229,0,0,1,1.4-1.4s-.824-1.731,1.814-1.237c0,0,1.154-2.061,2.308-.33,0,0,1.4-.989,2.473,1.072a2.39,2.39,0,0,1,3.05,1.979s1.319,0,.742,1.484c0,0,.907,1.484.33,2.226a.871.871,0,0,1-.165,1.484,1.673,1.673,0,0,1-1.319,2.556s-.495.742.412.742c0,0,.33,1.154-1.4.66,0,0,0,1.072-1.814.412,0,0,1.566-1.072,1.237-4.782,0,0-.742.082-.577-.989,0,0-2.226,0-1.979-1.979C200.158,231.6,199.828,229.785,195.871,231.434Z" transform="translate(-37.992 -45.966)" fill="#743725"/>
        <path id="Path_1328" data-name="Path 1328" d="M197.715,245.3a2.567,2.567,0,0,0,3.545,0l2.473.742s-3.463,6.431-9.234.33Z" transform="translate(-38.6 -49.362)" fill="#f9e1c9"/>
        <path id="Path_1329" data-name="Path 1329" d="M191.3,248.521a2.75,2.75,0,0,1,2.061-2.061,9.588,9.588,0,0,0,1.484-.33l1.072-.33a2.991,2.991,0,0,0,2.8,2.556,3.707,3.707,0,0,0,3.463-2.473s4.534.66,4.369,2.391c0,0-3.792,2.8-7.832,2.886A12.622,12.622,0,0,1,191.3,248.521Z" transform="translate(-38.038 -49.449)" fill="#7fb241"/>
        <g id="Group_275" data-name="Group 275" transform="translate(149.057 213.746)">
          <circle id="Ellipse_112" data-name="Ellipse 112" cx="11.954" cy="11.954" r="11.954" fill="#005aee"/>
          <path id="Path_1330" data-name="Path 1330" d="M191.8,288.627c-.082-.082,3.463-.577,2.144-8.327l5.029,1.731-2.061,7.915Z" transform="translate(-187.183 -269.253)" fill="#232325"/>
          <path id="Path_1331" data-name="Path 1331" d="M199.271,275.086s-2.308.577-2.886,2.061-2.886,3.3-2.886,3.3a7.442,7.442,0,0,0,.33-3.628c-.33-2.391,3.792-6.6,7.585-4.534s3.215,4.534,2.885,8.079c-.33,3.628-.412,5.276,1.072,5.936s-6.1,2.144-6.1,2.144Z" transform="translate(-187.482 -267.748)" fill="#232325"/>
          <rect id="Rectangle_836" data-name="Rectangle 836" width="3.215" height="3.627" transform="translate(10.058 15.334)" fill="#fab9a0"/>
          <path id="Path_1332" data-name="Path 1332" d="M194.9,279.874s4.947-11.212,9.069.577C203.309,285.068,195.724,287.294,194.9,279.874Z" transform="translate(-187.727 -268.332)" fill="#fbdecf"/>
          <path id="Path_1333" data-name="Path 1333" d="M196.89,287.6l-7.09,2.721s8.409,9.646,17.973,0l-7.667-2.721Z" transform="translate(-186.832 -270.534)" fill="#d18db2"/>
          <path id="Path_1334" data-name="Path 1334" d="M195.4,288.589s3.545,8.9,8.409,0l-2.721-.989h-2.8a2.91,2.91,0,0,0-1.154.247Z" transform="translate(-187.815 -270.534)" fill="#fbdecf"/>
        </g>
        <g id="Group_276" data-name="Group 276" transform="translate(220.618 144.906)">
          <circle id="Ellipse_113" data-name="Ellipse 113" cx="11.954" cy="11.954" r="11.954" fill="#00a1b3"/>
          <path id="Path_1335" data-name="Path 1335" d="M278.6,205.127c-.082-.082,3.463-.577,2.144-8.327l5.029,1.731-1.979,7.915Z" transform="translate(-273.983 -185.753)" fill="#232325"/>
          <path id="Path_1336" data-name="Path 1336" d="M285.627,191.534s-3.05.495-2.885,2.061c.907,11.212-5.441,10.223-5.441,10.223s3.71-3.38,3.133-7.667c-.66-5.194,2.886-8.986,6.1-8.079,2.143.577,5.606,1.566,4.864,9.151-.412,3.628.33,5.689,1.9,6.348s-7.585,1.484-7.585,1.484l-.082-13.521Z" transform="translate(-273.755 -184.197)" fill="#232325"/>
          <rect id="Rectangle_837" data-name="Rectangle 837" width="3.215" height="3.627" transform="translate(10.058 15.334)" fill="#fab9a0"/>
          <path id="Path_1337" data-name="Path 1337" d="M283.33,194.485c1.154-2.721,4.7-6.431,7.173,1.072a4.745,4.745,0,0,1-.247,3.215c-1.566,2.886-5.524,3.627-7.173-1.484A5.448,5.448,0,0,1,283.33,194.485Z" transform="translate(-274.756 -184.756)" fill="#fbdecf"/>
          <path id="Path_1338" data-name="Path 1338" d="M283.69,204.1l-7.09,2.721s8.409,9.646,17.973,0l-7.667-2.721Z" transform="translate(-273.632 -187.034)" fill="#fb944d"/>
          <path id="Path_1339" data-name="Path 1339" d="M282.2,205.089s3.545,8.9,8.409,0l-2.721-.989h-2.8a2.91,2.91,0,0,0-1.154.247Z" transform="translate(-274.615 -187.034)" fill="#fbdecf"/>
        </g>
        <path id="Path_1340" data-name="Path 1340" d="M288.1,191.26s-3.875,4.534-5.771,4.2S286.86,188.54,288.1,191.26Z" transform="translate(-53.958 -39.759)" fill="#232325"/>
        <path id="Path_1341" data-name="Path 1341" d="M292.245,195.017s-2.061-4.617-3.627-4.617S287.3,193.78,292.245,195.017Z" transform="translate(-54.974 -39.723)" fill="#232325"/>
        <path id="Path_1342" data-name="Path 1342" d="M235.2,197.864l3.545,3.38L247.072,193" transform="translate(-45.746 -40.179)" fill="none" stroke="#00217e" stroke-miterlimit="10" stroke-width="2"/>
        <path id="Path_1343" data-name="Path 1343" d="M235.2,281.882l3.545,3.38,8.327-8.162" transform="translate(-45.746 -54.945)" fill="none" stroke="#00217e" stroke-miterlimit="10" stroke-width="2"/>
        <path id="Path_1344" data-name="Path 1344" d="M319,239.982l3.545,3.38,8.327-8.162" transform="translate(-60.458 -47.588)" fill="none" stroke="#00217e" stroke-miterlimit="10" stroke-width="2"/>
        <path id="Path_1345" data-name="Path 1345" d="M319,198.464l3.545,3.38,8.327-8.244" transform="translate(-60.458 -40.285)" fill="none" stroke="#00217e" stroke-miterlimit="10" stroke-width="2"/>
        <path id="Path_1346" data-name="Path 1346" d="M318.7,282.182l3.545,3.463,8.327-8.244" transform="translate(-60.406 -54.997)" fill="none" stroke="#00217e" stroke-miterlimit="10" stroke-width="2"/>
        <path id="Path_1347" data-name="Path 1347" d="M24.088,287.714H17a3.307,3.307,0,0,1-3.3-3.3V278.4a3.307,3.307,0,0,1,3.3-3.3h7.09a3.307,3.307,0,0,1,3.3,3.3v6.018A3.307,3.307,0,0,1,24.088,287.714Z" transform="translate(-6.857 -54.594)" fill="#00217e"/>
        <path id="Path_1348" data-name="Path 1348" d="M28.069,287.714H22.3a3.307,3.307,0,0,1-3.3-3.3V278.4a3.307,3.307,0,0,1,3.3-3.3h5.771a3.307,3.307,0,0,1,3.3,3.3v6.018A3.307,3.307,0,0,1,28.069,287.714Z" transform="translate(-7.788 -54.594)" fill="#005aee"/>
        <path id="Path_1349" data-name="Path 1349" d="M78.748,287.731H28.128A3.66,3.66,0,0,1,24.5,284.1v-5.276a3.66,3.66,0,0,1,3.628-3.628H78.665a3.66,3.66,0,0,1,3.627,3.628V284.1A3.537,3.537,0,0,1,78.748,287.731Z" transform="translate(-8.753 -54.611)" fill="#5fa0ff"/>
        <g id="Group_277" data-name="Group 277" transform="translate(15.747 222.65)">
          <line id="Line_92" data-name="Line 92" x2="56.144" fill="none" stroke="#fff" stroke-miterlimit="10" stroke-width="1"/>
          <line id="Line_93" data-name="Line 93" x2="57.875" transform="translate(0 3.05)" fill="none" stroke="#fff" stroke-miterlimit="10" stroke-width="1"/>
          <line id="Line_94" data-name="Line 94" x2="57.875" transform="translate(0 6.101)" fill="none" stroke="#fff" stroke-miterlimit="10" stroke-width="1"/>
          <line id="Line_95" data-name="Line 95" x2="56.556" transform="translate(0 8.739)" fill="none" stroke="#fff" stroke-miterlimit="10" stroke-width="1"/>
        </g>
        <path id="Path_1350" data-name="Path 1350" d="M108.536,281.385l-15.664,6.1a.8.8,0,0,1-1.072-.66V275.944a.715.715,0,0,1,.989-.66Z" transform="translate(-20.569 -54.613)" fill="#00217e"/>
        <path id="Path_1351" data-name="Path 1351" d="M103.9,279.5v5.276l7.008-2.638Z" transform="translate(-22.693 -55.366)" fill="#005aee"/>
        <path id="Path_1352" data-name="Path 1352" d="M516.165,301.5v2.391a3.307,3.307,0,0,1-3.3,3.3H508.5a3.307,3.307,0,0,1-3.3-3.3V301.5a3.307,3.307,0,0,1,3.3-3.3h4.369A3.307,3.307,0,0,1,516.165,301.5Z" transform="translate(-93.149 -58.649)" fill="#70ba02"/>
        <path id="Path_1353" data-name="Path 1353" d="M516.165,299.1v1.566a3.307,3.307,0,0,1-3.3,3.3H508.5a3.307,3.307,0,0,1-3.3-3.3V299.1a3.307,3.307,0,0,1,3.3-3.3h4.369A3.307,3.307,0,0,1,516.165,299.1Z" transform="translate(-93.149 -58.228)" fill="#00a777"/>
        <path id="Path_1354" data-name="Path 1354" d="M516.182,259.428v30.834a3.66,3.66,0,0,1-3.628,3.628h-3.628a3.66,3.66,0,0,1-3.628-3.628V259.428a3.66,3.66,0,0,1,3.628-3.628h3.628A3.66,3.66,0,0,1,516.182,259.428Z" transform="translate(-93.167 -51.205)" fill="#ffd721"/>
        <g id="Group_278" data-name="Group 278" transform="translate(413.947 204.595)">
          <line id="Line_96" data-name="Line 96" y1="36.935" transform="translate(0 1.154)" fill="none" stroke="blue" stroke-linecap="round" stroke-miterlimit="10" stroke-width="0.5"/>
          <line id="Line_97" data-name="Line 97" y1="38.089" transform="translate(2.638)" fill="none" stroke="blue" stroke-linecap="round" stroke-miterlimit="10" stroke-width="0.5"/>
          <line id="Line_98" data-name="Line 98" y1="38.089" transform="translate(5.359)" fill="none" stroke="blue" stroke-linecap="round" stroke-miterlimit="10" stroke-width="0.5"/>
          <line id="Line_99" data-name="Line 99" y1="37.264" transform="translate(7.585 0.824)" fill="none" stroke="blue" stroke-linecap="round" stroke-miterlimit="10" stroke-width="0.5"/>
        </g>
        <path id="Path_1355" data-name="Path 1355" d="M510.767,244.3l5.276,10.305c.165.33-.165.66-.577.66h-9.4c-.412,0-.742-.33-.577-.66Z" transform="translate(-93.192 -49.186)" fill="#00a777"/>
        <path id="Path_1356" data-name="Path 1356" d="M509.1,248.734h4.534l-2.226-4.534Z" transform="translate(-93.834 -49.168)" fill="#ffd721"/>
        <ellipse id="Ellipse_114" data-name="Ellipse 114" cx="5.194" cy="22.177" rx="5.194" ry="22.177" transform="matrix(0.465, -0.885, 0.885, 0.465, 168.339, 27.679)" fill="#f1f7ff"/>
        <rect id="Rectangle_838" data-name="Rectangle 838" width="187.064" height="4.04" transform="translate(116.492 250.846)" fill="#00217e" stroke="#fff" stroke-miterlimit="10" stroke-width="2"/>
        <rect id="Rectangle_839" data-name="Rectangle 839" width="187.064" height="1.484" transform="translate(116.492 256.946)" fill="#00217e"/>
      </g>
      <g id="Layer_3" transform="translate(154.457 153.036)">
        <g id="Group_279" data-name="Group 279">
          <circle id="Ellipse_115" data-name="Ellipse 115" cx="11.954" cy="11.954" r="11.954" fill="#fcaf17"/>
          <path id="Path_1357" data-name="Path 1357" d="M191.8,205.827c-.082-.082,3.463-.577,2.144-8.327l5.029,1.731-1.979,7.915Z" transform="translate(-187.183 -186.37)" fill="#b54927"/>
          <path id="Path_1358" data-name="Path 1358" d="M199.271,192.286s-2.308.577-2.886,2.061-2.886,3.3-2.886,3.3a7.442,7.442,0,0,0,.33-3.628c-.33-2.391,3.792-6.6,7.585-4.534s3.215,4.534,2.885,8.079c-.33,3.627-.412,5.276,1.072,5.936s-6.1,2.144-6.1,2.144Z" transform="translate(-187.482 -184.866)" fill="#b54927"/>
          <rect id="Rectangle_840" data-name="Rectangle 840" width="3.215" height="3.627" transform="translate(10.058 15.334)" fill="#fab9a0"/>
          <path id="Path_1359" data-name="Path 1359" d="M194.9,196.974s4.947-11.212,9.069.577C203.309,202.168,195.724,204.394,194.9,196.974Z" transform="translate(-187.727 -185.432)" fill="#fbdecf"/>
          <path id="Path_1360" data-name="Path 1360" d="M196.89,204.8l-7.09,2.721s8.409,9.646,17.973,0l-7.667-2.721Z" transform="translate(-186.832 -187.652)" fill="#005aee"/>
          <path id="Path_1361" data-name="Path 1361" d="M195.4,205.689s3.545,8.9,8.409,0l-2.721-.989h-2.8a2.91,2.91,0,0,0-1.154.247Z" transform="translate(-187.815 -187.634)" fill="#fbdecf"/>
        </g>
        <g id="Group_280" data-name="Group 280" transform="translate(71.726 69.994)">
          <circle id="Ellipse_116" data-name="Ellipse 116" cx="11.954" cy="11.954" r="11.954" fill="#00a777"/>
          <path id="Path_1362" data-name="Path 1362" d="M278.7,290.627c-.082-.082,3.463-.577,2.144-8.327l5.029,1.731-1.979,7.915Z" transform="translate(-274.165 -271.253)" fill="#b54927"/>
          <path id="Path_1363" data-name="Path 1363" d="M286.271,277.086s-2.308.577-2.885,2.061-2.886,3.3-2.886,3.3a7.442,7.442,0,0,0,.33-3.628c-.33-2.391,3.792-6.6,7.585-4.534s3.215,4.534,2.886,8.079c-.33,3.628-.412,5.276,1.072,5.936s-6.1,2.144-6.1,2.144Z" transform="translate(-274.482 -269.748)" fill="#b54927"/>
          <rect id="Rectangle_841" data-name="Rectangle 841" width="3.215" height="3.627" transform="translate(10.058 15.334)" fill="#fab9a0"/>
          <path id="Path_1364" data-name="Path 1364" d="M281.8,281.874s4.947-11.212,9.069.577C290.292,287.068,282.624,289.294,281.8,281.874Z" transform="translate(-274.71 -270.332)" fill="#fbdecf"/>
          <path id="Path_1365" data-name="Path 1365" d="M283.89,289.6l-7.09,2.721s8.409,9.646,17.973,0l-7.667-2.721Z" transform="translate(-273.832 -272.534)" fill="#fb944d"/>
          <path id="Path_1366" data-name="Path 1366" d="M282.3,290.589s3.545,8.9,8.409,0l-2.721-.989h-2.8a2.91,2.91,0,0,0-1.154.247Z" transform="translate(-274.798 -272.534)" fill="#fbdecf"/>
        </g>
      </g>
    </g>
  </g>
</svg>
