<svg xmlns="http://www.w3.org/2000/svg" width="551.12" height="339.23" viewBox="0 0 551.12 339.23">
  <g id="use_case_illustration_7" data-name="use case illustration 7" transform="translate(-495.881 -3195)">
    <path id="Path_1654" data-name="Path 1654" d="M97.6,122.8S46.9,103.7,60.9,42c0,0,8.8,14,33.1,28.7C110.6,80.7,106.5,116.9,97.6,122.8Z" transform="translate(494.24 3192.671)" fill="#70ba02" stroke="#00a777" stroke-miterlimit="10" stroke-width="2"/>
    <path id="Path_1655" data-name="Path 1655" d="M105.3,122.8S80,69.2,150.5,62.6c0,0-9.5,8-10.3,27.2C138.8,124.3,105.3,122.8,105.3,122.8Z" transform="translate(494.24 3192.671)" fill="#70ba02" stroke="#00a777" stroke-miterlimit="10" stroke-width="2"/>
    <path id="Path_1656" data-name="Path 1656" d="M93.8,170.9c-3.2-2.5-58.2,8.2-59.9-96.5,0,0,111.7,37,69.1,67.5C102.8,142.2,93.8,170.9,93.8,170.9Z" transform="translate(494.24 3192.671)" fill="#70ba02" stroke="#00a777" stroke-miterlimit="10" stroke-width="2"/>
    <path id="Path_1657" data-name="Path 1657" d="M395.2,259.4c3.7-5.9,9.6-63.9,80.1-98.4,0,0-15.4,44.8-12.5,72s-18.4,104.7-67.6,93.5Z" transform="translate(494.24 3192.671)" fill="#70ba02" stroke="#00a777" stroke-miterlimit="10" stroke-width="2"/>
    <path id="Path_1658" data-name="Path 1658" d="M405.5,320.4s25.7-32.3,80.1-19.8c0,0-25,17.6-36,25C440.5,331.6,411.4,343.9,405.5,320.4Z" transform="translate(494.24 3192.671)" fill="#70ba02" stroke="#00a777" stroke-miterlimit="10" stroke-width="2"/>
    <g id="Group_346" data-name="Group 346" transform="translate(494.24 3192.671)">
      <g id="Group_341" data-name="Group 341">
        <path id="Path_1659" data-name="Path 1659" d="M35.2,75.5a246.868,246.868,0,0,0,9.9,22.9c1,1.8,1.9,3.7,2.8,5.5l3,5.5c1,1.8,2.1,3.6,3.1,5.4.5.9,1,1.8,1.6,2.7l1.7,2.6,1.7,2.6,1,1.3.9,1.3,3.6,5.1c1.2,1.7,2.5,3.3,3.8,4.9l1.9,2.5,2,2.4,4.1,4.7,4.3,4.5c.7.8,1.4,1.5,2.2,2.3l2.3,2.1c1.5,1.4,3,2.9,4.6,4.3-1.7-1.2-3.4-2.4-5.1-3.7l-2.5-1.9-2.4-2.1L75,146.2c-1.5-1.5-2.9-3-4.4-4.5l-2.2-2.3-2-2.4c-1.3-1.6-2.7-3.2-4-4.9L58.7,127l-.9-1.3-.9-1.3-1.7-2.6-1.7-2.7c-.6-.9-1.1-1.8-1.6-2.7l-1.6-2.7a24.869,24.869,0,0,1-1.5-2.8l-2.9-5.6c-.9-1.9-1.8-3.8-2.6-5.7s-1.6-3.9-2.4-5.8c-.7-2-1.5-3.9-2.1-5.9A72.467,72.467,0,0,1,35.2,75.5Z" fill="#00a777"/>
      </g>
      <g id="Group_342" data-name="Group 342">
        <path id="Path_1660" data-name="Path 1660" d="M61.6,41.5a246.868,246.868,0,0,0,9.9,22.9c1,1.8,1.9,3.7,2.8,5.5l3,5.5c1,1.8,2.1,3.6,3.1,5.4.5.9,1,1.8,1.6,2.7l1.7,2.6,1.7,2.6.8,1.3.9,1.3,3.6,5.1c1.2,1.7,2.5,3.3,3.8,4.9l1.9,2.5,2,2.4,4.1,4.7,4.3,4.5c.7.8,1.4,1.5,2.2,2.3l2.3,2.1c1.5,1.4,3,2.9,4.6,4.3-1.7-1.2-3.4-2.4-5.1-3.7l-2.5-1.9-2.4-2.1-4.7-4.2c-1.5-1.5-2.9-3-4.4-4.5l-2.2-2.3-2-2.4c-1.3-1.6-2.7-3.2-4-4.9L84.9,93,84,91.7l-.9-1.3-1.7-2.6L79.6,85c-.6-.9-1.1-1.8-1.6-2.7l-1.6-2.7a24.869,24.869,0,0,1-1.5-2.8L72,71.2c-.9-1.9-1.8-3.8-2.6-5.7s-1.6-3.9-2.4-5.8c-.7-2-1.5-3.9-2.1-5.9Q62.95,47.65,61.6,41.5Z" fill="#00a777"/>
      </g>
      <g id="Group_343" data-name="Group 343">
        <path id="Path_1661" data-name="Path 1661" d="M150.6,62.6a246.471,246.471,0,0,0-18.8,16.5c-1.5,1.5-2.9,3-4.4,4.4L123.1,88c-1.4,1.5-2.8,3.1-4.2,4.6-.7.8-1.4,1.5-2,2.3l-2,2.4-2,2.4-1,1.2-.9,1.2-3.7,5c-1.2,1.7-2.3,3.4-3.5,5.1l-1.8,2.6-1.6,2.6-3.2,5.3-3,5.5-1.5,2.7-1.3,2.8-2.7,5.7c.6-2,1.3-4,2-6l1-3c.4-1,.8-1.9,1.2-2.9l2.5-5.8c1-1.9,2-3.7,3-5.6l1.5-2.8,1.7-2.7c1.1-1.8,2.2-3.6,3.4-5.3l3.7-5.1.9-1.3,1-1.2,2-2.5,2-2.4,2.1-2.4,2.1-2.3a23.909,23.909,0,0,1,2.2-2.3l4.5-4.4c1.5-1.4,3.1-2.8,4.7-4.3,1.6-1.4,3.2-2.7,4.8-4.1,1.7-1.3,3.3-2.6,5-3.8C143.5,67,146.9,64.6,150.6,62.6Z" fill="#00a777"/>
      </g>
      <g id="Group_344" data-name="Group 344">
        <path id="Path_1662" data-name="Path 1662" d="M476.2,160.7c-2.5,2.7-4.8,5.5-7.1,8.3s-4.5,5.7-6.6,8.7c-4.3,5.9-8.3,11.9-12.1,18-3.8,6.2-7.4,12.5-10.7,18.9s-6.5,12.9-9.3,19.6c-2.9,6.6-5.6,13.3-8,20.2l-.9,2.5-.9,2.6-1.7,5.1-1.6,5.2-.8,2.6-.8,2.6c-4,13.9-7.3,28.1-10.1,42.5a237.693,237.693,0,0,1,6.3-43.5,246.926,246.926,0,0,1,13.9-41.8c3-6.7,6.2-13.3,9.8-19.8,3.6-6.4,7.4-12.8,11.6-18.8a192.2,192.2,0,0,1,13.5-17.4q3.6-4.2,7.5-8.1A93.456,93.456,0,0,1,476.2,160.7Z" fill="#00a777"/>
      </g>
      <g id="Group_345" data-name="Group 345">
        <path id="Path_1663" data-name="Path 1663" d="M458.6,302.5c-6,2.8-12,5.3-18,7.8-3,1.3-6.1,2.4-9.1,3.7l-9.1,3.6-9.1,3.5c-3.1,1.1-6.1,2.4-9.2,3.5-6.1,2.3-12.2,4.6-18.4,6.8a192.572,192.572,0,0,1,17.5-9c6-2.8,12-5.2,18.1-7.6s12.3-4.6,18.5-6.7C446,306.1,452.2,304.1,458.6,302.5Z" fill="#00a777"/>
      </g>
    </g>
    <rect id="Rectangle_846" data-name="Rectangle 846" width="346.4" height="240.2" transform="translate(566.94 3286.071)" fill="#f1f7ff" stroke="#00217e" stroke-miterlimit="10" stroke-width="1"/>
    <rect id="Rectangle_847" data-name="Rectangle 847" width="163.8" height="116.8" transform="translate(580.141 3300.071)" fill="#a5d1fe"/>
    <rect id="Rectangle_848" data-name="Rectangle 848" width="144" height="116.8" transform="translate(755.74 3300.071)" fill="#a5d1fe"/>
    <rect id="Rectangle_849" data-name="Rectangle 849" width="243.2" height="91.8" transform="translate(580.141 3425.671)" fill="#a5d1fe"/>
    <rect id="Rectangle_850" data-name="Rectangle 850" width="63.9" height="91.8" transform="translate(835.84 3425.671)" fill="#a5d1fe"/>
    <rect id="Rectangle_851" data-name="Rectangle 851" width="44.1" height="69.1" transform="translate(846.84 3435.271)" fill="#c8e0ff"/>
    <rect id="Rectangle_852" data-name="Rectangle 852" width="24.2" height="66.1" transform="translate(630.141 3437.471)" fill="#c8e0ff"/>
    <rect id="Rectangle_853" data-name="Rectangle 853" width="24.2" height="38.2" transform="translate(659.44 3466.071)" fill="#c8e0ff"/>
    <rect id="Rectangle_854" data-name="Rectangle 854" width="22.8" height="27.2" transform="translate(688.141 3477.071)" fill="#c8e0ff"/>
    <rect id="Rectangle_855" data-name="Rectangle 855" width="13.6" height="40.3" transform="translate(843.54 3361.771)" fill="#c8e0ff"/>
    <rect id="Rectangle_856" data-name="Rectangle 856" width="15.2" height="70.1" transform="translate(862.44 3332.371)" fill="#c8e0ff"/>
    <g id="Layer_4" transform="translate(494.24 3192.671)">
      <path id="Path_1664" data-name="Path 1664" d="M64.9,261.2a3.473,3.473,0,0,1-3.1,1.6,17.24,17.24,0,0,1-15-8.2h0c-.4-.6-.7-1.2-1-1.7-1.2-.3-3.2-1.3-3.3-3.5-.1-1.8,1.9-2.6,2.9-2.4a55.969,55.969,0,0,1,1.8-7.9c1.9-5.9,4.5-6.2,9.2-2.8a38.034,38.034,0,0,1,3.5,2.9,13.917,13.917,0,0,1,2.8,3.5C66.3,248.7,67.2,257.5,64.9,261.2Z" fill="#ffacb6"/>
      <path id="Path_1665" data-name="Path 1665" d="M65.7,273.8l-1.1,2.8L57.5,294l-.6,1.5S43.5,280.6,40,273.3c-1.1-2.3-1.2-3.9.5-3.9,5.5,0,6.2-10.5,6.3-15.2V252l11.7,7.1a31.24,31.24,0,0,0-.6,3.7v1a11.418,11.418,0,0,0,.6,3.9,8.56,8.56,0,0,0,5.4,5.5A6.18,6.18,0,0,0,65.7,273.8Z" fill="#ffacb6"/>
      <path id="Path_1666" data-name="Path 1666" d="M62.7,242.8s-2.5,2.7-9.9.5a8.6,8.6,0,0,0-3.7,7.3s-4.2-.7-2.4,4c-.4-.6-.7-1.2-1-1.7-1.2-.3-3.2-1.3-3.3-3.5-.1-1.8,1.9-2.6,2.9-2.4a55.969,55.969,0,0,1,1.8-7.9,25.911,25.911,0,0,1,9.2-2.8,38.034,38.034,0,0,1,3.5,2.9A14.348,14.348,0,0,1,62.7,242.8Z" fill="#ff9898"/>
      <path id="Path_1667" data-name="Path 1667" d="M63.1,242.6s-3.4,2.2-10.2-.7c-5.3-2.2-4.5,8.8-4.5,8.8s-5.1-3.7-1.5,3.7c1.2,2.4-13.2-8.1-5.3-19.5a12.241,12.241,0,0,1,10.8-4.1C61.5,231.8,63.1,242.6,63.1,242.6Z" fill="#00217e"/>
      <path id="Path_1668" data-name="Path 1668" d="M57.9,263v1c-7.9-1.5-17.4,9.3-17.9,9.4,1.9-1.4,7.8-12.4,6.8-19C46.8,254.3,51.4,260.5,57.9,263Z" fill="#ff9898"/>
      <path id="Path_1669" data-name="Path 1669" d="M64.5,276.6l-7,17.4c-1,0-3.4.6-4.2-.6a11.4,11.4,0,0,1-1.4-9.5c.1-.5,0,2.5.2,2l1-2.6A45.083,45.083,0,0,1,56,277c.6-1.1,1.2-2.1,1.7-3.2.8-1.8,1.9-3.7,2.4-3.1a7.926,7.926,0,0,0,3.8,2.7A15.16,15.16,0,0,1,64.5,276.6Z" fill="#ff9898"/>
      <g id="Group_347" data-name="Group 347">
        <path id="Path_1670" data-name="Path 1670" d="M92.4,314c-4.4,21.6-28.8,20.9-38.1,19.8-2.3-.3-3.7-.6-3.7-.6S8.2,356.2,3,323a39.725,39.725,0,0,1,1.3-17.8c.8-2.6,1.7-5,2.6-7.2,12-28,36.5-30,36.5-30s12.2,20.8,12.2,20,4.2-17.6,4.2-17.6S97.9,287.2,92.4,314Z" fill="#f96701"/>
        <path id="Path_1671" data-name="Path 1671" d="M92.4,314a24.3,24.3,0,0,1-5.5,11.4,25.511,25.511,0,0,1-10.8,6.8,42.243,42.243,0,0,1-12.7,2.1,60.786,60.786,0,0,1-12.8-.8h.2a80.506,80.506,0,0,1-15.6,6.2c-5.4,1.5-11.1,2.4-16.8,1.5a19.656,19.656,0,0,1-8-3.1,17.84,17.84,0,0,1-5.6-6.6,33.233,33.233,0,0,1-3.1-16.7A47.372,47.372,0,0,1,3,306.4a68.307,68.307,0,0,1,2.7-8c.5-1.3,1.2-2.6,1.8-3.8l.9-1.9,1.1-1.8a50.372,50.372,0,0,1,17.8-18l1.9-1.1,1.9-.9c.6-.3,1.3-.6,1.9-.9.7-.3,1.3-.5,2-.8a33.539,33.539,0,0,1,8.3-2l.5-.1.3.4c3.4,6,6.9,12,10.5,17.9l.7,1.1.3.5a1.865,1.865,0,0,0,.3.4h0a.349.349,0,0,0-.2-.1.6.6,0,0,0-.4.1.683.683,0,0,0-.3.5h0v-.3a.6.6,0,0,1,.1-.4l.1-.6.3-1.3,1.2-5,2.6-10.1.1-.4.4.2a89.062,89.062,0,0,1,12.6,7.5,67.646,67.646,0,0,1,11,9.7,42.755,42.755,0,0,1,4.5,5.8,33.125,33.125,0,0,1,3.3,6.5,29.187,29.187,0,0,1,1.6,7.1A22.757,22.757,0,0,1,92.4,314Zm0,0a29.582,29.582,0,0,0,.4-7.3,29.188,29.188,0,0,0-1.6-7.1,33.125,33.125,0,0,0-3.3-6.5,35.265,35.265,0,0,0-4.5-5.7,67.138,67.138,0,0,0-11.1-9.5,88.269,88.269,0,0,0-12.7-7.2l.5-.2-2.4,10.1-1.1,5.1-.3,1.3-.1.6v.4h0a.683.683,0,0,1-.3.5.756.756,0,0,1-.4.1c-.1,0-.1,0-.2-.1h0l-.1-.1a3.172,3.172,0,0,0-.5-.6l-.4-.5-.7-1.1c-3.7-5.9-7.3-11.8-10.9-17.7l.8.4a41.027,41.027,0,0,0-15.3,5.6,46.94,46.94,0,0,0-12.4,10.7,62.608,62.608,0,0,0-8.4,14.1,49.2,49.2,0,0,0-4.1,15.8A33.25,33.25,0,0,0,6,331a17.46,17.46,0,0,0,5,6.1,17.446,17.446,0,0,0,7.4,3.1c5.4,1,11,.2,16.3-1.1a85.957,85.957,0,0,0,15.6-5.8h.2a60.578,60.578,0,0,0,12.7,1.1,44.826,44.826,0,0,0,12.6-2A23.5,23.5,0,0,0,92.4,314Z" fill="#ffd721"/>
      </g>
      <g id="Group_348" data-name="Group 348">
        <path id="Path_1672" data-name="Path 1672" d="M30.7,299.8a26.022,26.022,0,0,0-1.1,6.2,11.181,11.181,0,0,0,1.1,5.8,8.049,8.049,0,0,0,4.3,3.6,14.569,14.569,0,0,0,5.9.8,57.809,57.809,0,0,0,12.3-1.7c4.1-1,8.2-2.2,12.3-3.3A82.2,82.2,0,0,1,53.6,316a41.819,41.819,0,0,1-12.7,2.2,16.972,16.972,0,0,1-6.6-1.1,8.866,8.866,0,0,1-5-4.7,11.549,11.549,0,0,1-.6-6.6A17.008,17.008,0,0,1,30.7,299.8Z" fill="#ffd721"/>
      </g>
      <path id="Path_1673" data-name="Path 1673" d="M75.5,307.3v9.2l-9.2,6.7-9.7,7.1s-1.2-10.5-1.1-16.4c.4-.1.8-.1,1.2-.2C63.7,312.3,75.5,307.3,75.5,307.3Z" fill="#ffacb6"/>
      <path id="Path_1674" data-name="Path 1674" d="M67.5,321.2c0,.1-.5.9-1.2,2.1l-9.7,7.1s-1.2-10.5-1.1-16.4c.4-.1.8-.1,1.2-.2C57,318.7,58.8,329.3,67.5,321.2Z" fill="#ff9898"/>
      <path id="Path_1675" data-name="Path 1675" d="M121.2,295.1l-6.1,38.7-64.4-.5v-2.8H61.1l6.3-35.4Z" fill="#c8e0ff"/>
      <ellipse id="Ellipse_133" data-name="Ellipse 133" cx="3.5" cy="3.6" rx="3.5" ry="3.6" transform="translate(88.5 312.4)" fill="#f1f7ff"/>
      <path id="Path_1676" data-name="Path 1676" d="M338.6,80.7s.6,14.7-.9,15.4-3.7-1.5-3.7-1.5a53.345,53.345,0,0,1,1.7-14.7Z" fill="#ffd721"/>
      <path id="Path_1677" data-name="Path 1677" d="M121.2,295.1l-6.1,38.7-64.4-.5v-.2c1.1-1.2,2-2,2-2,57.8,7.3,64.6-26.2,65.2-36Z" fill="#00217e" opacity="0.18"/>
      <circle id="Ellipse_134" data-name="Ellipse 134" cx="3.3" cy="3.3" r="3.3" transform="translate(298 78.5)" fill="#f1f7ff"/>
      <path id="Path_1678" data-name="Path 1678" d="M54.3,327.6v6.2c-2.3-.3-3.7-.6-3.7-.6S8.2,356.2,3,323a39.725,39.725,0,0,1,1.3-17.8c.8-2.6,1.7-5,2.6-7.2C4,316,3.1,351.7,54.3,327.6Z" fill="#db5c05" stroke="#ffd721" stroke-miterlimit="10" stroke-width="1"/>
      <path id="Path_1679" data-name="Path 1679" d="M52.4,314.9s-.6,17,.9,17.8,3.9-1.7,3.9-1.7a68.447,68.447,0,0,0-1.8-17Z" fill="#ffd721"/>
      <path id="Path_1680" data-name="Path 1680" d="M54.3,311.5" fill="#ff9898"/>
      <path id="Path_1681" data-name="Path 1681" d="M489.6,214.3a3.473,3.473,0,0,0,3.1,1.6,17.24,17.24,0,0,0,15-8.2h0c.4-.6.7-1.2,1-1.7,1.2-.3,3.2-1.3,3.3-3.5.1-1.8-1.9-2.6-2.9-2.4a55.973,55.973,0,0,0-1.8-7.9c-1.9-5.9-4.5-6.2-9.2-2.8a38.032,38.032,0,0,0-3.5,2.9,13.917,13.917,0,0,0-2.8,3.5C488.2,201.8,487.3,210.6,489.6,214.3Z" fill="#ffacb6"/>
      <path id="Path_1682" data-name="Path 1682" d="M488.8,227l1.1,2.8,7.1,17.3.6,1.5s13.4-14.9,16.9-22.2c1.1-2.3,1.2-3.9-.5-3.9-5.5,0-6.2-10.5-6.3-15.2v-2.2L496,212.2a31.245,31.245,0,0,1,.6,3.7v1a11.418,11.418,0,0,1-.6,3.9,8.56,8.56,0,0,1-5.4,5.5A5.115,5.115,0,0,1,488.8,227Z" fill="#ffacb6"/>
      <path id="Path_1683" data-name="Path 1683" d="M491.8,195.9s2.5,2.7,9.9.5a8.6,8.6,0,0,1,3.7,7.3s4.2-.7,2.4,4c.4-.6.7-1.2,1-1.7,1.2-.3,3.2-1.3,3.3-3.5.1-1.8-1.9-2.6-2.9-2.4a55.973,55.973,0,0,0-1.8-7.9,25.911,25.911,0,0,0-9.2-2.8,38.032,38.032,0,0,0-3.5,2.9A16.381,16.381,0,0,0,491.8,195.9Z" fill="#ff9898"/>
      <path id="Path_1684" data-name="Path 1684" d="M491.4,195.7s3.4,2.2,10.2-.7c5.3-2.2,4.5,8.8,4.5,8.8s5.1-3.7,1.5,3.7c-1.2,2.4,13.2-8.1,5.3-19.5a12.241,12.241,0,0,0-10.8-4.1C493,185,491.4,195.7,491.4,195.7Z" fill="#00217e"/>
      <path id="Path_1685" data-name="Path 1685" d="M496.7,216.1v1c7.9-1.5,17.4,9.3,17.9,9.4-1.9-1.4-7.8-12.4-6.8-19C507.7,207.4,503.1,213.6,496.7,216.1Z" fill="#ff9898"/>
      <path id="Path_1686" data-name="Path 1686" d="M490,229.8l7.1,17.3c1,0,3.4.6,4.2-.6a11.4,11.4,0,0,0,1.4-9.5c-.1-.5,0,2.5-.2,2l-1-2.6a45.083,45.083,0,0,0-2.9-6.3c-.6-1.1-1.2-2.1-1.7-3.2-.8-1.8-1.9-3.7-2.4-3.1a7.926,7.926,0,0,1-3.8,2.7A16.021,16.021,0,0,0,490,229.8Z" fill="#ff9898"/>
      <g id="Group_349" data-name="Group 349">
        <path id="Path_1687" data-name="Path 1687" d="M462.1,267.2c4.4,21.6,28.8,20.9,38.1,19.8,2.3-.3,3.7-.6,3.7-.6s42.4,22.9,47.7-10.3a39.869,39.869,0,0,0-1.4-17.8c-.8-2.6-1.7-5-2.6-7.2-12-28-36.5-30-36.5-30s-12.2,20.8-12.2,20-4.2-17.6-4.2-17.6S456.6,240.4,462.1,267.2Z" fill="#f96701"/>
        <path id="Path_1688" data-name="Path 1688" d="M462.1,267.2a24.468,24.468,0,0,0,5.6,11.4,25.308,25.308,0,0,0,10.8,6.7,44.826,44.826,0,0,0,12.6,2,60,60,0,0,0,12.7-1.1h.2a73.274,73.274,0,0,0,15.6,5.8c5.3,1.3,11,2.1,16.3,1.1a17.992,17.992,0,0,0,7.4-3.1,15.525,15.525,0,0,0,5-6.1A31.9,31.9,0,0,0,551,268a45.576,45.576,0,0,0-4.1-15.8,64.9,64.9,0,0,0-8.4-14.1,44,44,0,0,0-12.4-10.7,42.16,42.16,0,0,0-15.3-5.6l.8-.4c-3.6,5.9-7.1,11.9-10.9,17.7l-.7,1.1-.4.5a2.2,2.2,0,0,1-.5.6l-.1.1h0c-.1,0-.1.1-.2.1-.2,0-.3,0-.4-.1a.682.682,0,0,1-.3-.5h0v-.4l-.1-.6-.3-1.3-1.1-5.1-2.4-10.1.5.2a84.34,84.34,0,0,0-12.7,7.2,62.688,62.688,0,0,0-11.1,9.5,40.225,40.225,0,0,0-4.5,5.7,30.562,30.562,0,0,0-3.3,6.5,29.189,29.189,0,0,0-1.6,7.1A37.182,37.182,0,0,0,462.1,267.2Zm0,0a29.59,29.59,0,0,1-.5-7.3,29.187,29.187,0,0,1,1.6-7.1,30.562,30.562,0,0,1,3.3-6.5,36.024,36.024,0,0,1,4.5-5.8,72.75,72.75,0,0,1,11-9.7,89.062,89.062,0,0,1,12.6-7.5l.4-.2.1.4,2.6,10.1,1.2,5,.3,1.3.1.6a.756.756,0,0,0,.1.4v.3h0s-.1-.4-.3-.5a.6.6,0,0,0-.4-.1c-.1,0-.1,0-.2.1h0c.1-.1.2-.3.3-.4l.3-.5.7-1.1c3.6-5.9,7-11.9,10.5-17.9l.3-.4.5.1a33.54,33.54,0,0,1,8.3,2,16.672,16.672,0,0,1,2,.8,11.086,11.086,0,0,1,1.9.9l1.9.9,1.9,1.1a46.871,46.871,0,0,1,12.9,11,48.8,48.8,0,0,1,4.9,7L546,246l.9,1.9c.6,1.3,1.3,2.5,1.8,3.8a57.9,57.9,0,0,1,2.7,8,40.723,40.723,0,0,1,1.3,8.4,33.234,33.234,0,0,1-3.1,16.7,18.822,18.822,0,0,1-5.6,6.6,18.339,18.339,0,0,1-8,3.1c-5.7.9-11.4,0-16.8-1.5a80.506,80.506,0,0,1-15.6-6.2h.2a61.625,61.625,0,0,1-12.8.8,49.618,49.618,0,0,1-12.7-2.1,25.511,25.511,0,0,1-10.8-6.8A24.945,24.945,0,0,1,462.1,267.2Z" fill="#ffd721"/>
      </g>
      <g id="Group_350" data-name="Group 350">
        <path id="Path_1689" data-name="Path 1689" d="M523.9,253a20.984,20.984,0,0,1,2.1,6.1,12.473,12.473,0,0,1-.6,6.6,9.2,9.2,0,0,1-5,4.7,18.677,18.677,0,0,1-6.6,1.1,45.12,45.12,0,0,1-12.7-2.2,82.2,82.2,0,0,1-11.9-4.8c4.1,1.1,8.2,2.3,12.3,3.3a57.811,57.811,0,0,0,12.3,1.7,19.129,19.129,0,0,0,5.9-.8,8.049,8.049,0,0,0,4.3-3.6,11.379,11.379,0,0,0,1.1-5.8A31.934,31.934,0,0,0,523.9,253Z" fill="#ffd721"/>
      </g>
      <path id="Path_1690" data-name="Path 1690" d="M479.1,260.5v9.2l9.2,6.7,9.7,7.1s1.2-10.5,1.1-16.4c-.4-.1-.8-.1-1.2-.2C490.8,265.4,479.1,260.5,479.1,260.5Z" fill="#ffacb6"/>
      <path id="Path_1691" data-name="Path 1691" d="M487,274.3c0,.1.5.9,1.2,2.1l9.7,7.1s1.2-10.5,1.1-16.4c-.4-.1-.8-.1-1.2-.2C497.5,271.8,495.7,282.4,487,274.3Z" fill="#ff9898"/>
      <path id="Path_1692" data-name="Path 1692" d="M433.4,248.3l6,38.6,64.4-.5v-2.8H493.4l-6.3-35.3Z" fill="#c8e0ff"/>
      <ellipse id="Ellipse_135" data-name="Ellipse 135" cx="3.5" cy="3.6" rx="3.5" ry="3.6" transform="translate(459 265.6)" fill="#f1f7ff"/>
      <path id="Path_1693" data-name="Path 1693" d="M433.4,248.3l6.1,38.7,64.4-.5v-.2c-1.1-1.2-2-2-2-2-57.8,7.3-64.6-26.2-65.2-36h-3.3Z" fill="#00217e" opacity="0.18"/>
      <path id="Path_1694" data-name="Path 1694" d="M500.2,280.8V287c2.3-.3,3.7-.6,3.7-.6s42.4,22.9,47.7-10.3a39.869,39.869,0,0,0-1.4-17.8c-.8-2.6-1.7-5-2.6-7.2C550.5,269.1,551.4,304.9,500.2,280.8Z" fill="#db5c05" stroke="#ffd721" stroke-miterlimit="10" stroke-width="1"/>
      <path id="Path_1695" data-name="Path 1695" d="M502.1,268.1s.6,17-.9,17.8-3.9-1.7-3.9-1.7a68.448,68.448,0,0,1,1.8-17Z" fill="#ffd721"/>
      <path id="Path_1696" data-name="Path 1696" d="M500.2,264.6" fill="#ff9898"/>
      <path id="Path_1697" data-name="Path 1697" d="M327.8,29.7a3.46,3.46,0,0,0,2.8,1.5A15.614,15.614,0,0,0,344,23.9h0l.9-1.5c1.1-.3,2.9-1.2,3-3.2a2.153,2.153,0,0,0-2.6-2.1,46.5,46.5,0,0,0-1.6-7c-1.7-5.3-4.1-5.6-8.2-2.5-.9.7-2,1.6-3.1,2.6a15.427,15.427,0,0,0-2.5,3.1C326.5,18.5,325.7,26.3,327.8,29.7Z" fill="#ffacb6"/>
      <path id="Path_1698" data-name="Path 1698" d="M327,41l1,2.5L334.3,59l.6,1.4s12-13.3,15.1-19.8c1-2.1,1.1-3.5-.4-3.5-4.9,0-5.6-9.4-5.6-13.6V21.6l-10.5,6.3a22.108,22.108,0,0,1,.5,3.3v.9a12.3,12.3,0,0,1-.5,3.5,7.675,7.675,0,0,1-4.8,4.9A8.211,8.211,0,0,1,327,41Z" fill="#ffacb6"/>
      <path id="Path_1699" data-name="Path 1699" d="M329.7,13.2s2.3,2.4,8.8.5a7.819,7.819,0,0,1,3.3,6.6s3.7-.6,2.1,3.6l.9-1.5c1.1-.3,2.9-1.2,3-3.2a2.153,2.153,0,0,0-2.6-2.1,46.5,46.5,0,0,0-1.6-7,23.859,23.859,0,0,0-8.2-2.5c-.9.7-2,1.6-3.1,2.6A10.838,10.838,0,0,0,329.7,13.2Z" fill="#ff9898"/>
      <path id="Path_1700" data-name="Path 1700" d="M329.3,13s3,2,9.1-.6c4.7-2,4,7.8,4,7.8s4.6-3.3,1.3,3.3c-1.1,2.2,11.8-7.2,4.8-17.4a10.864,10.864,0,0,0-9.6-3.7C330.8,3.4,329.3,13,329.3,13Z" fill="#00217e"/>
      <path id="Path_1701" data-name="Path 1701" d="M334,31.3v.9c7.1-1.4,15.5,8.3,16,8.4-1.7-1.2-6.9-11.1-6.1-17C343.9,23.5,339.8,29.1,334,31.3Z" fill="#ff9898"/>
      <path id="Path_1702" data-name="Path 1702" d="M328.1,43.5,334.4,59c.9,0,3,.6,3.8-.5a10.21,10.21,0,0,0,1.3-8.5c-.1-.4,0,2.2-.2,1.8l-.9-2.3a36.823,36.823,0,0,0-2.6-5.7c-.5-.9-1-1.9-1.5-2.9-.8-1.6-1.7-3.3-2.1-2.8a6.513,6.513,0,0,1-3.4,2.4A9.426,9.426,0,0,0,328.1,43.5Z" fill="#ff9898"/>
      <g id="Group_351" data-name="Group 351">
        <path id="Path_1703" data-name="Path 1703" d="M303.1,76.9c3.9,19.3,25.7,18.7,34.1,17.7a29.063,29.063,0,0,0,3.3-.5s37.9,20.5,42.6-9.2A37.263,37.263,0,0,0,381.9,69c-.7-2.3-1.5-4.4-2.3-6.4C368.8,37.5,347,35.8,347,35.8s-11,18.5-11,17.8-3.7-15.7-3.7-15.7S298.3,52.9,303.1,76.9Z" fill="#f96701"/>
        <path id="Path_1704" data-name="Path 1704" d="M303.1,76.9a21.415,21.415,0,0,0,5,10.1,21.832,21.832,0,0,0,9.6,5.9A38.714,38.714,0,0,0,329,94.7a54.925,54.925,0,0,0,11.4-1h.2a68.385,68.385,0,0,0,13.9,5.2,36.149,36.149,0,0,0,14.6,1,15.412,15.412,0,0,0,6.6-2.7,15.7,15.7,0,0,0,4.5-5.4,29.441,29.441,0,0,0,2.4-14.1A43.111,43.111,0,0,0,379,63.6,55.237,55.237,0,0,0,371.5,51a41.671,41.671,0,0,0-11-9.5,37.934,37.934,0,0,0-13.6-5l.8-.4c-3.2,5.3-6.4,10.6-9.7,15.8l-.6,1-.3.5a1.756,1.756,0,0,1-.4.5l-.1.1h0c-.1,0-.1.1-.2.1a.6.6,0,0,1-.4-.1.682.682,0,0,1-.3-.5h0v-.3l-.1-.6-.2-1.1-1-4.5-2.1-9,.5.2a84.039,84.039,0,0,0-11.3,6.4,50.047,50.047,0,0,0-9.9,8.5,39.022,39.022,0,0,0-4,5.1,28.912,28.912,0,0,0-3,5.8,33.984,33.984,0,0,0-1.5,6.3A18.291,18.291,0,0,0,303.1,76.9Zm0,0a23.478,23.478,0,0,1-.4-6.5,28.159,28.159,0,0,1,1.4-6.4,32.3,32.3,0,0,1,2.9-5.9,39.95,39.95,0,0,1,4-5.2,57.02,57.02,0,0,1,9.8-8.6,80.021,80.021,0,0,1,11.3-6.7l.4-.2.1.4,2.3,9,1.1,4.5.3,1.1.1.6a.367.367,0,0,0,.1.3v.2h0s-.1-.4-.3-.5a.6.6,0,0,0-.4-.1c-.1,0-.1,0-.2.1h0a1.865,1.865,0,0,0,.3-.4l.3-.5.6-1c3.2-5.3,6.3-10.7,9.3-16l.3-.4.5.1a31.588,31.588,0,0,1,7.5,1.8c.6.2,1.2.5,1.8.7a8.865,8.865,0,0,1,1.7.8l1.7.8,1.7.9a42.034,42.034,0,0,1,11.6,9.8,53.524,53.524,0,0,1,4.4,6.2l1,1.6.8,1.7c.5,1.1,1.1,2.3,1.6,3.4a43.45,43.45,0,0,1,2.4,7.2,38.828,38.828,0,0,1,1.2,7.6,30.012,30.012,0,0,1-2.8,15,16.082,16.082,0,0,1-5.1,5.9,17.22,17.22,0,0,1-7.2,2.8,36.072,36.072,0,0,1-15-1.3,69.7,69.7,0,0,1-13.9-5.6h.2a55.142,55.142,0,0,1-11.5.7,39.359,39.359,0,0,1-11.3-1.9,21.677,21.677,0,0,1-9.6-6.1A19.489,19.489,0,0,1,303.1,76.9Z" fill="#ffd721"/>
      </g>
      <g id="Group_352" data-name="Group 352">
        <path id="Path_1705" data-name="Path 1705" d="M358.3,64.2a17.392,17.392,0,0,1,1.9,5.4,10.867,10.867,0,0,1-.5,5.9,8.064,8.064,0,0,1-4.5,4.2,17.421,17.421,0,0,1-5.9,1,39.543,39.543,0,0,1-11.4-2,65.343,65.343,0,0,1-10.6-4.3c3.7.9,7.3,2,11,2.8a52.864,52.864,0,0,0,11,1.5,15.785,15.785,0,0,0,5.3-.7,6.889,6.889,0,0,0,3.8-3.1,11,11,0,0,0,1-5.2A26.8,26.8,0,0,0,358.3,64.2Z" fill="#ffd721"/>
      </g>
      <path id="Path_1706" data-name="Path 1706" d="M318.3,70.9v8.2l8.2,6,8.7,6.4a145.9,145.9,0,0,0,1-14.6c-.3-.1-.7-.1-1.1-.2C328.8,75.3,318.3,70.9,318.3,70.9Z" fill="#ffacb6"/>
      <path id="Path_1707" data-name="Path 1707" d="M325.4,83.3c0,.1.5.8,1.1,1.9l8.7,6.4a145.9,145.9,0,0,0,1-14.6c-.3-.1-.7-.1-1.1-.2C334.8,81.1,333.2,90.5,325.4,83.3Z" fill="#ff9898"/>
      <path id="Path_1708" data-name="Path 1708" d="M277.5,60l5.4,34.5,57.6-.4V91.6h-9.3L325.5,60Z" fill="#c8e0ff"/>
      <path id="Path_1709" data-name="Path 1709" d="M277.5,60l5.4,34.5,57.6-.4v-.2a24.722,24.722,0,0,0-1.8-1.8C287,98.6,280.9,68.7,280.4,60Z" fill="#00217e" opacity="0.18"/>
      <path id="Path_1710" data-name="Path 1710" d="M337.2,89v5.6a29.063,29.063,0,0,0,3.3-.5s37.9,20.5,42.6-9.2A37.263,37.263,0,0,0,381.9,69c-.7-2.3-1.5-4.4-2.3-6.4C382.1,78.6,383,110.6,337.2,89Z" fill="#db5c05" stroke="#ffd721" stroke-miterlimit="10" stroke-width="1"/>
      <path id="Path_1711" data-name="Path 1711" d="M338.9,77.7s.6,15.1-.8,15.9-3.5-1.5-3.5-1.5a64.815,64.815,0,0,1,1.6-15.2Z" fill="#ffd721"/>
      <path id="Path_1712" data-name="Path 1712" d="M337.2,74.6" fill="#ff9898"/>
      <ellipse id="Ellipse_136" data-name="Ellipse 136" cx="3.5" cy="3.6" rx="3.5" ry="3.6" transform="translate(300.9 72.9)" fill="#f1f7ff"/>
    </g>
    <circle id="Ellipse_137" data-name="Ellipse 137" cx="34.2" cy="34.2" r="34.2" transform="translate(764.54 3325.671)" fill="none" stroke="#00217e" stroke-miterlimit="10" stroke-width="2" stroke-dasharray="2 2" opacity="0.43"/>
    <line id="Line_123" data-name="Line 123" x2="75.3" transform="translate(654.34 3336.771)" fill="none" stroke="#00217e" stroke-miterlimit="10" stroke-width="2" stroke-dasharray="2 2" opacity="0.43"/>
    <line id="Line_124" data-name="Line 124" x2="75.3" transform="translate(654.34 3356.071)" fill="none" stroke="#00217e" stroke-miterlimit="10" stroke-width="2" stroke-dasharray="2 2" opacity="0.43"/>
    <line id="Line_125" data-name="Line 125" x2="75.3" transform="translate(654.34 3375.171)" fill="none" stroke="#00217e" stroke-miterlimit="10" stroke-width="2" stroke-dasharray="2 2" opacity="0.43"/>
    <line id="Line_126" data-name="Line 126" x2="75.3" transform="translate(654.34 3392.071)" fill="none" stroke="#00217e" stroke-miterlimit="10" stroke-width="2" stroke-dasharray="2 2" opacity="0.43"/>
    <rect id="Rectangle_857" data-name="Rectangle 857" width="11.8" height="102.1" transform="translate(586.74 3311.771)" fill="#00217e" opacity="0.18"/>
    <rect id="Rectangle_858" data-name="Rectangle 858" width="11.8" height="79.3" transform="translate(603.641 3334.571)" fill="#c8e0ff"/>
    <rect id="Rectangle_859" data-name="Rectangle 859" width="11.8" height="86" transform="translate(621.24 3327.971)" fill="#00217e" opacity="0.18"/>
    <rect id="Rectangle_860" data-name="Rectangle 860" width="11.8" height="53.6" transform="translate(637.44 3360.271)" fill="#c8e0ff"/>
    <line id="Line_127" data-name="Line 127" x2="75.3" transform="translate(654.641 3406.471)" fill="none" stroke="#00217e" stroke-miterlimit="10" stroke-width="2" stroke-dasharray="2 2" opacity="0.43"/>
    <circle id="Ellipse_138" data-name="Ellipse 138" cx="34.2" cy="34.2" r="34.2" transform="translate(735.141 3437.371)" fill="#00217e" opacity="0.18"/>
    <path id="Path_1713" data-name="Path 1713" d="M259,248.8l16.1,30.1,18-29S279.9,239.6,259,248.8Z" transform="translate(494.24 3192.671)" fill="#f1f7ff"/>
    <path id="Path_1714" data-name="Path 1714" d="M275.1,278.9l-28.5,18.8s-18-28.7,12.4-48.9Z" transform="translate(494.24 3192.671)" fill="#c8e0ff"/>
    <circle id="Ellipse_139" data-name="Ellipse 139" cx="34.2" cy="34.2" r="34.2" transform="translate(716.04 3437.371)" fill="none" stroke="#00217e" stroke-miterlimit="10" stroke-width="2" stroke-dasharray="2 2" opacity="0.43"/>
  </g>
</svg>
