<svg xmlns="http://www.w3.org/2000/svg" width="391" height="243" viewBox="0 0 391 243">
  <g id="use_case_illustration_2" data-name="use case illustration 2" transform="translate(-830 -1835)">
    <g id="Group_361" data-name="Group 361" transform="translate(30 -360)">
      <g id="Layer_4" transform="translate(859.513 2213.934)">
        <path id="Path_1367" data-name="Path 1367" d="M105.507,242.295S65.881,183,97.357,115.129C119,68.408,165.436,41.007,219.253,29.977c75.948-15.6,85.292,48.337,92.88,76.229,6.042,22.342,34.215,28.595,58.805,38.361,28.735,11.452,40.609,47.916,23.888,75.035-17.986,29.157-55.433,23.185-132.014,23.185C150.4,242.857,105.507,242.295,105.507,242.295Z" transform="translate(-85.208 -27.56)" fill="#f1f7ff"/>
        <path id="Path_1368" data-name="Path 1368" d="M183.286,37.7s-67.377,22.131-71.733,42.084a4.272,4.272,0,0,0,5.059,5.129C130.241,82.313,121.178,61.8,183.286,37.7Z" transform="translate(-93.01 -30.576)" fill="#f1f7ff"/>
      </g>
      <g id="Layer_2" transform="translate(823.652 2219.793)">
        <g id="green_pot" transform="translate(0 73.985)">
          <g id="Group_281" data-name="Group 281">
            <path id="Path_1369" data-name="Path 1369" d="M97.186,204.363c-16.44-.843-17.073-21.358-17.354-26.206a84.124,84.124,0,0,1,.773-17.916h0c.984-5.9,2.81-11.873,6.112-16.791C97.819,127.08,123.463,205.7,97.186,204.363Z" transform="translate(-47.7 -141.206)" fill="#70ba02"/>
            <path id="Path_1370" data-name="Path 1370" d="M128.361,195.813c-.07.141-.07.211-.141.351-7.237,23.115-29.087,31.335-26.7,9.274a29.393,29.393,0,0,1,7.518-16.651,35.739,35.739,0,0,1,11.03-8.5C124.989,178.249,133.842,177.757,128.361,195.813Z" transform="translate(-54.145 -152.539)" fill="#70ba02"/>
            <path id="Path_1371" data-name="Path 1371" d="M114.677,219.264c1.616-6.323,16.3-19.461,24.8-18.969C149.454,200.786,109.126,241.535,114.677,219.264Z" transform="translate(-57.954 -158.777)" fill="#70ba02"/>
            <path id="Path_1372" data-name="Path 1372" d="M69.14,232.523c0,2.67-4.286,4.988-10.328,5.9a40.111,40.111,0,0,1-6.042.422c-9.063,0-16.37-2.81-16.37-6.323a2.988,2.988,0,0,1,.141-.773c.984-3.162,7.869-5.55,16.229-5.55C61.833,226.2,69.14,229.081,69.14,232.523Z" transform="translate(-34.83 -166.486)" fill="#70ba02"/>
            <path id="Path_1373" data-name="Path 1373" d="M65.454,211.266c-2.459.773-6.042.07-10.89-2.67A37.008,37.008,0,0,1,42.41,197.425c-6.112-8.782-12.014-22.131-5.2-23.044,2.248-.281,5.831.7,11.241,3.653C67.983,188.783,73.955,208.666,65.454,211.266Z" transform="translate(-34.165 -151.06)" fill="#70ba02"/>
          </g>
          <path id="Path_1374" data-name="Path 1374" d="M54.4,235.2" transform="translate(-40.183 -169.163)" fill="none" stroke="#000" stroke-miterlimit="10" stroke-width="1"/>
          <g id="Group_287" data-name="Group 287" transform="translate(16.324 10.113)">
            <g id="Group_282" data-name="Group 282" transform="translate(32.74 34.215)">
              <path id="Path_1375" data-name="Path 1375" d="M104,273.012c.211-.141.211-.351.351-.562l.211-.632a8.5,8.5,0,0,0,.351-1.265c.211-.843.492-1.686.7-2.529.422-1.686.843-3.372,1.194-5.059.773-3.372,1.546-6.745,2.248-10.117s1.335-6.815,1.9-10.187,1.124-6.815,1.475-10.258c.07-.843.141-1.686.211-2.6.07-.843.07-1.686.211-2.6a14.952,14.952,0,0,1,1.616-5.2,21.258,21.258,0,0,1,3.091-4.356,26.557,26.557,0,0,1,3.864-3.583,64.439,64.439,0,0,1,18.407-9.766,95.74,95.74,0,0,0-9.274,4.707,58.527,58.527,0,0,0-8.431,5.9,26.011,26.011,0,0,0-6.464,7.728,12.571,12.571,0,0,0-1.405,4.707c-.07.773-.07,1.686-.141,2.6-.07.843-.141,1.756-.211,2.6a181.738,181.738,0,0,1-3.724,20.515c-.773,3.372-1.686,6.745-2.6,10.117-.492,1.686-.984,3.3-1.546,4.988-.281.843-.562,1.616-.843,2.459a6.077,6.077,0,0,1-.492,1.194,4.168,4.168,0,0,1-.281.562A1.429,1.429,0,0,1,104,273.012Z" transform="translate(-104 -204.3)" fill="#00a777"/>
            </g>
            <g id="Group_283" data-name="Group 283" transform="translate(25.855)">
              <path id="Path_1376" data-name="Path 1376" d="M94.2,155.6q1.37,6.639,2.529,13.279c.773,4.426,1.475,8.852,2.178,13.349,1.335,8.923,2.389,17.845,3.3,26.768.422,4.5.7,8.993.984,13.489.141,2.248.211,4.5.281,6.745s.07,4.5.07,6.745a96.807,96.807,0,0,1-.984,13.489,42.892,42.892,0,0,1-1.546,6.6,17.438,17.438,0,0,1-1.405,3.091,7.062,7.062,0,0,1-2.248,2.529,7.292,7.292,0,0,0,2.037-2.6A16.536,16.536,0,0,0,100.593,256a34.218,34.218,0,0,0,1.194-6.6,106.621,106.621,0,0,0,.562-13.419c-.141-8.993-.7-17.916-1.616-26.838-.773-8.923-1.9-17.845-2.951-26.768-.562-4.426-1.124-8.923-1.756-13.349C95.535,164.523,94.832,160.1,94.2,155.6Z" transform="translate(-94.2 -155.6)" fill="#00a777"/>
            </g>
            <g id="Group_284" data-name="Group 284" transform="translate(34.075 29.578)">
              <path id="Path_1377" data-name="Path 1377" d="M120.935,197.7a43.386,43.386,0,0,0-5.831,7.166,59.706,59.706,0,0,0-4.356,8.08,44.78,44.78,0,0,0-1.616,4.286c-.211.7-.492,1.475-.7,2.178-.211.773-.422,1.475-.632,2.248l-.281,1.124-.281,1.124-.492,2.248c-.351,1.546-.562,3.021-.843,4.567,0-1.546.07-3.091.211-4.707l.281-2.319.141-1.194.211-1.124a49.288,49.288,0,0,1,2.74-8.993,38.1,38.1,0,0,1,4.778-8.15A24.615,24.615,0,0,1,120.935,197.7Z" transform="translate(-105.9 -197.7)" fill="#00a777"/>
            </g>
            <g id="Group_285" data-name="Group 285" transform="translate(0 55.613)">
              <path id="Path_1378" data-name="Path 1378" d="M57.4,235.068a23.569,23.569,0,0,1,8.009.07,24.977,24.977,0,0,1,3.934,1.054,25.656,25.656,0,0,1,3.724,1.756,22.511,22.511,0,0,1,6.253,5.269,30.925,30.925,0,0,1,4.286,6.955,44.836,44.836,0,0,1,2.459,7.728c.141.632.211,1.335.351,1.967a20.272,20.272,0,0,1,.281,2.037,38.512,38.512,0,0,1,.351,4,82.07,82.07,0,0,1-.7,16.089,120.63,120.63,0,0,0-.351-15.948,49.911,49.911,0,0,0-3.724-15.316,26.633,26.633,0,0,0-9.836-11.873,23.573,23.573,0,0,0-7.237-3.021A26.063,26.063,0,0,0,57.4,235.068Z" transform="translate(-57.4 -234.756)" fill="#00a777"/>
            </g>
            <g id="Group_286" data-name="Group 286" transform="translate(4.777 37.447)">
              <path id="Path_1379" data-name="Path 1379" d="M64.2,208.9a53.7,53.7,0,0,1,14.473,12.576,62.694,62.694,0,0,1,9.836,16.581,60.724,60.724,0,0,1,2.881,9.2c.422,1.546.632,3.162.984,4.707l.351,2.389.141,1.194.07,1.194a76.241,76.241,0,0,1-.773,19.18,95.64,95.64,0,0,0-.351-19.04l-.141-1.194L91.46,254.5l-.351-2.319c-.351-1.546-.632-3.091-1.054-4.637a67.285,67.285,0,0,0-2.951-8.993,55.893,55.893,0,0,0-4.145-8.5,64.028,64.028,0,0,0-5.269-7.869,60.8,60.8,0,0,0-6.323-7.1A46.744,46.744,0,0,0,64.2,208.9Z" transform="translate(-64.2 -208.9)" fill="#00a777"/>
            </g>
          </g>
          <path id="Path_1380" data-name="Path 1380" d="M115.147,296.1s-.492,11.874-6.955,19.953a15.1,15.1,0,0,1-23.747-.351c-.351-.492-.773-1.054-1.124-1.616h0C78.332,306.217,77.7,296.1,77.7,296.1Z" transform="translate(-47.113 -187.276)" fill="#70ba02"/>
          <path id="Path_1381" data-name="Path 1381" d="M117.527,296.1s-.492,11.874-6.955,19.953a15.1,15.1,0,0,1-23.747-.351c-.351-.492-.773-1.054-1.124-1.616,17.775,14.824,24.731-17.986,24.731-17.986Z" transform="translate(-49.493 -187.276)" fill="#00a777"/>
        </g>
        <path id="Path_1382" data-name="Path 1382" d="M277.163,129.429c-3.724,4.637-2.389,13.56-2.389,13.56,2.67,21.639-7.1,39.133-14.754,34.848-8.642-4.848-24.52-38.22-24.52-38.22,6.464-.562,10.96-8.712,13.77-16.159,1.265-3.372,2.178-6.6,2.81-8.993.562-2.318.843-3.864.843-3.864S280.816,124.792,277.163,129.429Z" transform="translate(-94.047 -58.118)" fill="#ffacb6"/>
        <path id="Path_1383" data-name="Path 1383" d="M232.662,150l55.5,129.274-60.492-.07S195.215,167.424,232.662,150Z" transform="translate(-87.837 -69.836)" fill="#db5c05"/>
        <path id="Path_1384" data-name="Path 1384" d="M306.131,278.292h0c-28.173-9.977-47.915,8.15-56.346-60.421-.422-3.513-9.485-68.571-9.485-68.571,2.037,4.637,8.361,16.229,19.461,18.407,19.953,3.934,16.159-13.911,16.159-13.911l3.232,1.335Z" transform="translate(-95.475 -69.628)" fill="#f96701"/>
        <g id="Layer_6" transform="translate(141.172 85.995)">
          <g id="Group_288" data-name="Group 288" transform="translate(0)">
            <path id="Path_1385" data-name="Path 1385" d="M235.1,214.6s18.478,34.848,44.613,10.82" transform="translate(-235.1 -175.045)" fill="none" stroke="#ffd721" stroke-miterlimit="10" stroke-width="1"/>
            <path id="Path_1386" data-name="Path 1386" d="M235.1,222.1s18.478,34.848,44.613,10.82" transform="translate(-235.1 -177.276)" fill="none" stroke="#ffd721" stroke-miterlimit="10" stroke-width="1"/>
            <path id="Path_1387" data-name="Path 1387" d="M235.1,228.1s18.478,34.848,44.613,10.82" transform="translate(-235.1 -179.06)" fill="none" stroke="#ffd721" stroke-miterlimit="10" stroke-width="1"/>
            <path id="Path_1388" data-name="Path 1388" d="M235.1,235.6s18.478,34.848,44.613,10.82" transform="translate(-235.1 -181.291)" fill="none" stroke="#ffd721" stroke-miterlimit="10" stroke-width="1"/>
            <path id="Path_1389" data-name="Path 1389" d="M236.6,243.1s18.478,34.848,44.613,10.82" transform="translate(-235.546 -183.522)" fill="none" stroke="#ffd721" stroke-miterlimit="10" stroke-width="1"/>
            <path id="Path_1390" data-name="Path 1390" d="M236.6,250.6s18.478,34.848,44.613,10.82" transform="translate(-235.546 -185.752)" fill="none" stroke="#ffd721" stroke-miterlimit="10" stroke-width="1"/>
            <path id="Path_1391" data-name="Path 1391" d="M236.6,256.6s18.478,34.848,44.613,10.82" transform="translate(-235.546 -187.537)" fill="none" stroke="#ffd721" stroke-miterlimit="10" stroke-width="1"/>
            <path id="Path_1392" data-name="Path 1392" d="M236.6,264.1s18.478,34.848,44.613,10.82" transform="translate(-235.546 -189.768)" fill="none" stroke="#ffd721" stroke-miterlimit="10" stroke-width="1"/>
            <path id="Path_1393" data-name="Path 1393" d="M236.6,273.2s18.478,34.848,44.613,10.82" transform="translate(-235.546 -192.474)" fill="none" stroke="#ffd721" stroke-miterlimit="10" stroke-width="1"/>
            <path id="Path_1394" data-name="Path 1394" d="M236.6,280.7s18.478,34.848,44.613,10.82" transform="translate(-235.546 -194.705)" fill="none" stroke="#ffd721" stroke-miterlimit="10" stroke-width="1"/>
            <path id="Path_1395" data-name="Path 1395" d="M235.8,158.3s18.478,34.848,44.613,10.82" transform="translate(-235.308 -158.3)" fill="none" stroke="#ffd721" stroke-miterlimit="10" stroke-width="1"/>
            <path id="Path_1396" data-name="Path 1396" d="M235.8,165.8s18.478,34.848,44.613,10.82" transform="translate(-235.308 -160.531)" fill="none" stroke="#ffd721" stroke-miterlimit="10" stroke-width="1"/>
            <path id="Path_1397" data-name="Path 1397" d="M235.8,171.8s18.478,34.848,44.613,10.82" transform="translate(-235.308 -162.315)" fill="none" stroke="#ffd721" stroke-miterlimit="10" stroke-width="1"/>
            <path id="Path_1398" data-name="Path 1398" d="M235.8,179.3s18.478,34.848,44.613,10.82" transform="translate(-235.308 -164.546)" fill="none" stroke="#ffd721" stroke-miterlimit="10" stroke-width="1"/>
            <path id="Path_1399" data-name="Path 1399" d="M235.1,186.8s18.478,34.848,44.613,10.82" transform="translate(-235.1 -166.777)" fill="none" stroke="#ffd721" stroke-miterlimit="10" stroke-width="1"/>
            <path id="Path_1400" data-name="Path 1400" d="M235.1,194.3s18.478,34.848,44.613,10.82" transform="translate(-235.1 -169.007)" fill="none" stroke="#ffd721" stroke-miterlimit="10" stroke-width="1"/>
            <path id="Path_1401" data-name="Path 1401" d="M235.1,200.3s18.478,34.848,44.613,10.82" transform="translate(-235.1 -170.792)" fill="none" stroke="#ffd721" stroke-miterlimit="10" stroke-width="1"/>
            <path id="Path_1402" data-name="Path 1402" d="M235.1,207.8s18.478,34.848,44.613,10.82" transform="translate(-235.1 -173.023)" fill="none" stroke="#ffd721" stroke-miterlimit="10" stroke-width="1"/>
          </g>
        </g>
        <path id="Path_1403" data-name="Path 1403" d="M294.612,158.3c.07-.7-6.042,84.168,9.2,123.231h42.225C346.111,281.459,340,175.652,294.612,158.3Z" transform="translate(-111.286 -72.303)" fill="blue"/>
        <path id="Path_1404" data-name="Path 1404" d="M311.918,319.738a10.6,10.6,0,0,1-3.583,5.34l-45.035-.07.7-12.014.562-8.993s35.339,0,43.77,7.377C311.918,314.468,312.48,317.419,311.918,319.738Z" transform="translate(-102.316 -115.64)" fill="#ffacb6"/>
        <path id="Path_1405" data-name="Path 1405" d="M311.918,322.206a10.6,10.6,0,0,1-3.583,5.34l-45.035-.07.7-12.014a18.763,18.763,0,0,1,2.67-3.162s2.67,13.208,44.332,10.047A2.074,2.074,0,0,1,311.918,322.206Z" transform="translate(-102.316 -118.109)" fill="#ff9898"/>
        <path id="Path_1406" data-name="Path 1406" d="M231.766,278.963s-1.054.562-68.079,0c-59.719-.492-27.049-67.869-11.733-95.55a64.144,64.144,0,0,1,3.724-5.9,54.693,54.693,0,0,1,11.8-12.014,81.391,81.391,0,0,1,39.7-15.6l7.1,104.192,16.37-3.724c-1.124,4.637-.773,12.084-.211,18.2.07.422.07.843.141,1.265C231.133,275.1,231.766,278.963,231.766,278.963Z" transform="translate(-62.421 -69.807)" fill="blue"/>
        <circle id="Ellipse_117" data-name="Ellipse 117" cx="8.431" cy="8.431" r="8.431" transform="translate(245.925 160.608)" fill="none" stroke="#000" stroke-miterlimit="10" stroke-width="1"/>
        <path id="Path_1407" data-name="Path 1407" d="M282.635,131.035s-14.473,12.506-28.735-2.81c1.265-3.372,3.021-9.836,3.583-12.225Z" transform="translate(-99.52 -59.724)" fill="#ff9898"/>
        <path id="Path_1408" data-name="Path 1408" d="M296.941,88.147a53.044,53.044,0,0,1-1.124,9.555c-2.178,9.836-8.22,17.283-24.731,13.63-13.419-2.951-14.122-19.461-12.787-31.546a90.978,90.978,0,0,1,2.459-13.068,61.209,61.209,0,0,1,4.5-5.761c11.522-13.489,19.321-11.311,24.239-3.794C295.255,65.8,297.223,81.261,296.941,88.147Z" transform="translate(-100.688 -40.442)" fill="#ffacb6"/>
        <path id="Path_1409" data-name="Path 1409" d="M297.089,90.224a53.036,53.036,0,0,1-1.124,9.555c-.141-12.014-3.372-28.805-3.372-28.805-5.831,7.939-23.185,4.777-23.185,4.777a24.282,24.282,0,0,1-10.047,11.592,41.455,41.455,0,0,1-.913-5.41c-.773-8.712,2.108-14.965,6.955-18.829,6.183-4.988,15.527-6.112,24.239-3.794C295.4,67.882,297.37,83.339,297.089,90.224Z" transform="translate(-100.835 -42.519)" fill="#ff9898"/>
        <path id="Path_1410" data-name="Path 1410" d="M254.89,77.785s2.248,3.724,3.724-.211c1.616-4.356,2.67-13.208,8.923-13.349,5.41-.141,17.424.141,22.061-4.356,0,0,13.63-3.724,5.691-15.316s-36.112-7.658-44.051,7.658c-6.393,12.365-4.988,28.384-1.054,34.286,2.67,3.934,4.215,2.529,5.059.913a7.239,7.239,0,0,0,.7-3.232C255.8,81.3,255.523,74.342,254.89,77.785Z" transform="translate(-97.419 -36.474)" fill="#00217e"/>
        <path id="Path_1411" data-name="Path 1411" d="M257.293,91.32s-.7-8.08-3.794-8.22-3.583,17.424,3.794,11.522Z" transform="translate(-98.767 -49.938)" fill="#ffacb6"/>
        <path id="Path_1412" data-name="Path 1412" d="M425.42,218.7l-9.555,80.726H313.5l.7-6.393L322,218.7Z" transform="translate(-117.247 -90.27)" fill="#c8e0ff"/>
        <g id="Group_289" data-name="Group 289" transform="translate(25.598 208.032)">
          <path id="Path_1413" data-name="Path 1413" d="M70.6,333.405l10.047-.422,10.047-.351L110.787,332H351.77l20.094.632,10.047.351,10.047.422-10.047.422-10.047.281-20.094.7H110.787l-20.094-.632-10.047-.351Z" transform="translate(-70.6 -332)" fill="#00217e"/>
        </g>
        <path id="Path_1414" data-name="Path 1414" d="M231.766,290.652s-1.054.562-68.079,0c-59.719-.492-27.049-67.869-11.733-95.55a64.148,64.148,0,0,1,3.724-5.9c-.773,1.616-31.616,65.972-16.019,82.131,13.841,14.262,75.456,11.241,90.913,10.258C231.133,286.787,231.766,290.652,231.766,290.652Z" transform="translate(-62.421 -81.495)" fill="#00217e"/>
        <path id="Path_1415" data-name="Path 1415" d="M425.42,218.7l-9.485,80.726H313.5l.7-6.393c6.534-1.405,15.6-1.967,28.1-1.265,66.463,3.724,78.337-73.068,78.337-73.068h4.778Z" transform="translate(-117.247 -90.27)" fill="#a5d1fe"/>
        <circle id="Ellipse_118" data-name="Ellipse 118" cx="8.431" cy="8.431" r="8.431" transform="translate(244.028 159.835)" fill="#fff"/>
        <g id="Group_290" data-name="Group 290" transform="translate(24.545 212.95)">
          <path id="Path_1416" data-name="Path 1416" d="M69.1,339.7l40.187-.351,40.117-.211L229.779,339l80.3.141,40.187.211,40.187.351-40.187.351-40.187.211-80.3.141-80.374-.141-40.117-.211Z" transform="translate(-69.1 -339)" fill="#00217e"/>
        </g>
        <path id="Path_1417" data-name="Path 1417" d="M58.812,240.774a40.111,40.111,0,0,1-6.042.422c-9.063,0-16.37-2.81-16.37-6.323a2.988,2.988,0,0,1,.141-.773C41.669,236.348,43,239.931,58.812,240.774Z" transform="translate(-34.83 -94.85)" fill="#00a777"/>
        <circle id="Ellipse_119" data-name="Ellipse 119" cx="29.789" cy="29.789" r="29.789" transform="translate(234.544)" fill="#ffd721"/>
        <g id="Group_292" data-name="Group 292" transform="translate(254.005 10.047)">
          <g id="Group_291" data-name="Group 291">
            <path id="Path_1418" data-name="Path 1418" d="M402.234,79.989l-.14-1.546c-.422-3.232.913-6.815,4.567-10.468,3.3-3.232,5.129-5.55,5.129-8.29,0-3.091-2.318-5.129-6.955-5.2a14.371,14.371,0,0,0-7.377,1.9L395.7,52.589c2.389-1.475,6.6-2.389,10.468-2.389,8.431,0,12.225,4.286,12.225,8.852,0,4.075-2.81,7.026-6.323,10.468-3.232,3.162-4.426,5.761-4.145,8.852l.07,1.546h-5.761Zm-1.616,8.431c0-2.248,1.827-3.794,4.426-3.794s4.356,1.546,4.356,3.794c0,2.108-1.686,3.724-4.426,3.724C402.374,92.144,400.618,90.528,400.618,88.42Z" transform="translate(-395.7 -50.2)" fill="#f96701"/>
          </g>
        </g>
        <circle id="Ellipse_120" data-name="Ellipse 120" cx="14.262" cy="14.262" r="14.262" transform="translate(334.239 170.866)" fill="#ffd721"/>
        <circle id="Ellipse_121" data-name="Ellipse 121" cx="15.035" cy="15.035" r="15.035" transform="translate(16.114 33.724)" fill="#ffd721"/>
        <g id="Group_294" data-name="Group 294" transform="translate(344.567 177.048)">
          <g id="Group_293" data-name="Group 293">
            <path id="Path_1419" data-name="Path 1419" d="M527.34,300.265l-.07-.632c-.211-1.335.351-2.81,1.9-4.356,1.335-1.335,2.108-2.318,2.108-3.443,0-1.265-.984-2.108-2.88-2.178a6.109,6.109,0,0,0-3.091.773l-.7-1.546a8.879,8.879,0,0,1,4.356-.984c3.513,0,5.059,1.756,5.059,3.653,0,1.686-1.124,2.951-2.6,4.356-1.335,1.335-1.827,2.389-1.756,3.653v.632H527.34Zm-.632,3.513a1.639,1.639,0,0,1,1.827-1.546,1.576,1.576,0,0,1,1.756,1.546,1.641,1.641,0,0,1-1.827,1.546A1.576,1.576,0,0,1,526.708,303.778Z" transform="translate(-524.6 -287.9)" fill="#f96701"/>
          </g>
        </g>
        <g id="Group_296" data-name="Group 296" transform="translate(26.933 42.506)">
          <g id="Group_295" data-name="Group 295">
            <path id="Path_1420" data-name="Path 1420" d="M75.24,108.765l-.07-.632c-.211-1.335.351-2.81,1.9-4.356,1.335-1.335,2.108-2.318,2.108-3.443,0-1.265-.984-2.108-2.881-2.178a6.109,6.109,0,0,0-3.091.773l-.7-1.546a8.879,8.879,0,0,1,4.356-.984c3.513,0,5.059,1.756,5.059,3.653,0,1.686-1.124,2.951-2.6,4.356-1.335,1.335-1.827,2.389-1.756,3.653v.632H75.24Zm-.632,3.513a1.639,1.639,0,0,1,1.827-1.546,1.576,1.576,0,0,1,1.756,1.546,1.641,1.641,0,0,1-1.827,1.546A1.617,1.617,0,0,1,74.608,112.278Z" transform="translate(-72.5 -96.4)" fill="#f96701"/>
          </g>
        </g>
      </g>
      <g id="Layer_3" transform="translate(924.847 2343.657)">
        <g id="Group_297" data-name="Group 297" transform="translate(9.836)">
          <path id="Path_1421" data-name="Path 1421" d="M192.341,212.27c.562,5.55,1.194,11.03,1.827,16.51.562,5.48,1.194,11.03,1.9,16.51.632,5.48,1.475,10.96,2.037,16.51l.843,8.22c.141,1.405.281,2.74.492,4.145.07.7.211,1.335.281,2.037a8.462,8.462,0,0,0,.562,1.9l-.141.141a6.975,6.975,0,0,1-.984-1.9c-.211-.632-.422-1.335-.632-2.037-.351-1.335-.7-2.74-.984-4.075q-.843-4.11-1.475-8.22c-.843-5.48-1.194-11.03-1.616-16.581s-.843-11.1-1.265-16.581c-.351-5.55-.632-11.1-.984-16.651Z" transform="translate(-192.2 -212.2)" fill="#00217e"/>
        </g>
        <g id="Group_298" data-name="Group 298" transform="translate(0 61.616)">
          <path id="Path_1422" data-name="Path 1422" d="M178.27,307.137l12.3-1.686c4.075-.562,8.22-1.124,12.3-1.756s8.15-1.475,12.225-1.967l6.112-.773c1.054-.141,2.037-.281,3.021-.422a23.116,23.116,0,0,0,3.021-.632l.141.211a10.959,10.959,0,0,1-2.881,1.405c-.984.351-1.967.7-3.021.984-2.037.562-4.075.984-6.112,1.405A121.312,121.312,0,0,1,203,305.45c-4.145.422-8.29.773-12.365,1.194-4.145.351-8.29.632-12.436.913Z" transform="translate(-178.2 -299.9)" fill="#00217e"/>
        </g>
      </g>
      <g id="Layer_5" transform="translate(800 2195)">
        <path id="Path_1423" data-name="Path 1423" d="M65.454,211.285c-2.459.773-6.042.07-10.89-2.67A37.008,37.008,0,0,1,42.41,197.444c-6.112-8.782-12.014-22.131-5.2-23.044C38.686,181.285,44.939,202.924,65.454,211.285Z" transform="translate(-10.513 -52.3)" fill="#00a777"/>
        <path id="Path_1424" data-name="Path 1424" d="M97.186,212.422c-16.44-.843-17.073-21.358-17.354-26.206a84.123,84.123,0,0,1,.773-17.916h0S82.081,211.368,97.186,212.422Z" transform="translate(-24.048 -50.486)" fill="#00a777"/>
        <rect id="Rectangle_842" data-name="Rectangle 842" width="391" height="243" transform="translate(0 0)" fill="none"/>
      </g>
    </g>
  </g>
</svg>
