<svg xmlns="http://www.w3.org/2000/svg" width="378" height="235" viewBox="0 0 378 235">
  <g id="use_case_illustration_3" data-name="use case illustration 3" transform="translate(-246 -2278)">
    <g id="use_case_5" transform="translate(246 2278)">
      <g id="Layer_3" transform="translate(46.49 2.803)">
        <ellipse id="Ellipse_127" data-name="Ellipse 127" cx="19.964" cy="21.536" rx="19.964" ry="21.536" transform="translate(3.487 49.567)" fill="#70ba02"/>
        <ellipse id="Ellipse_128" data-name="Ellipse 128" cx="19.553" cy="21.057" rx="19.553" ry="21.057" transform="translate(0 48.2)" fill="none" stroke="#00a777" stroke-miterlimit="10" stroke-width="2"/>
        <g id="Group_319" data-name="Group 319" transform="translate(39.927 7.769)">
          <g id="Group_318" data-name="Group 318">
            <g id="Group_317" data-name="Group 317">
              <path id="Path_1590" data-name="Path 1590" d="M128.519,42.562,300.671,15.489a2.275,2.275,0,0,1,2.53,2.325l.82,140.5a2.927,2.927,0,0,1-2.8,3.077H128.588a2.28,2.28,0,0,1-2.188-2.325V45.092A2.7,2.7,0,0,1,128.519,42.562Z" transform="translate(-126.4 -15.464)" fill="#f1f7ff"/>
              <path id="Path_1591" data-name="Path 1591" d="M128.519,42.562,300.671,15.489a2.275,2.275,0,0,1,2.53,2.325l.82,140.5a2.927,2.927,0,0,1-2.8,3.077H128.588a2.28,2.28,0,0,1-2.188-2.325V45.092A2.7,2.7,0,0,1,128.519,42.562Z" transform="translate(-126.4 -15.464)" fill="none" stroke="blue" stroke-miterlimit="10" stroke-width="3"/>
            </g>
            <line id="Line_107" data-name="Line 107" y1="24.407" x2="176.732" transform="translate(0.068 14.177)" fill="none" stroke="blue" stroke-miterlimit="10" stroke-width="3"/>
            <line id="Line_108" data-name="Line 108" y1="24.407" x2="176.801" transform="translate(0.479 36.397)" fill="none" stroke="blue" stroke-miterlimit="10" stroke-width="3"/>
          </g>
        </g>
        <path id="Path_1592" data-name="Path 1592" d="M282.015,96.559a3.372,3.372,0,0,1,2.53-3.418L341.5,82.68c1.983-.342,3.829,1.436,3.829,3.829v35.757a5.022,5.022,0,0,1-3.9,5.128l-57.156,7.589a2.775,2.775,0,0,1-2.871-2.8Z" transform="translate(-135.502 -28.943)" fill="#c8e0ff" opacity="0.63"/>
        <g id="Group_320" data-name="Group 320" transform="translate(117.594 10.187)">
          <path id="Path_1593" data-name="Path 1593" d="M249.736,55.4a2.225,2.225,0,0,1-2.119-2.119l-.205-2.666H241.6l6.495-3.282V29.077a2.593,2.593,0,0,1,2.051-2.6l41.91-7.11c.137,0,.273-.068.41-.068a2.763,2.763,0,0,1,2.666,2.871V46.442a3.589,3.589,0,0,1-3.077,3.692l-42.046,5.128C249.873,55.4,249.8,55.4,249.736,55.4Z" transform="translate(-240.506 -19.095)" fill="#ffd721"/>
          <path id="Path_1594" data-name="Path 1594" d="M291.96,19.547a2.572,2.572,0,0,1,2.461,2.6V46.416A3.424,3.424,0,0,1,291.55,49.9L249.5,55.03H249.3a2,2,0,0,1-1.914-1.914l-.205-2.871h-4.991l5.675-2.871V28.982a2.3,2.3,0,0,1,1.846-2.325l41.91-7.11h.342m0-.547a1.163,1.163,0,0,0-.479.068l-41.91,7.11a2.805,2.805,0,0,0-2.256,2.8V47.1l-5.4,2.735L240,50.791h6.632l.137,2.393a2.468,2.468,0,0,0,2.393,2.393h.273l42.047-5.128a3.881,3.881,0,0,0,3.35-3.965V22.145A3,3,0,0,0,291.96,19Z" transform="translate(-240 -19)" fill="#f96701"/>
        </g>
        <g id="Group_321" data-name="Group 321" transform="translate(157.384 101.322)">
          <path id="Path_1595" data-name="Path 1595" d="M307.631,187.573a2.223,2.223,0,0,1-2.119-2.119l-.137-2.53H299.7l6.29-3.213V162a2.515,2.515,0,0,1,1.983-2.53l40.611-6.905c.137,0,.273-.068.41-.068a2.691,2.691,0,0,1,2.6,2.8v23.519a3.57,3.57,0,0,1-3.008,3.624l-40.747,4.991C307.836,187.573,307.7,187.573,307.631,187.573Z" transform="translate(-298.674 -152.363)" fill="#ffd721"/>
          <path id="Path_1596" data-name="Path 1596" d="M348.587,152.847a2.4,2.4,0,0,1,2.325,2.53V178.9a3.335,3.335,0,0,1-2.8,3.35l-40.748,4.991h-.205a1.931,1.931,0,0,1-1.846-1.846l-.205-2.8h-4.854l5.469-2.8V161.94a2.282,2.282,0,0,1,1.778-2.256l40.611-6.905a1.335,1.335,0,0,0,.479.068m0-.547a1.335,1.335,0,0,0-.479.068L307.5,159.274a2.675,2.675,0,0,0-2.188,2.735v17.5l-5.2,2.666-1.914.957h6.495l.137,2.325a2.4,2.4,0,0,0,2.325,2.325h.273l40.748-4.991a3.805,3.805,0,0,0,3.213-3.9V155.377a2.925,2.925,0,0,0-2.8-3.077Z" transform="translate(-298.2 -152.3)" fill="#f96701"/>
        </g>
        <line id="Line_109" data-name="Line 109" y1="5.059" x2="31.381" transform="translate(132.84 19.006)" fill="none" stroke="#f96701" stroke-miterlimit="10" stroke-width="1"/>
        <line id="Line_110" data-name="Line 110" y1="5.128" x2="31.381" transform="translate(132.84 24.066)" fill="none" stroke="#f96701" stroke-miterlimit="10" stroke-width="1"/>
        <line id="Line_111" data-name="Line 111" y1="5.059" x2="31.381" transform="translate(132.84 29.672)" fill="none" stroke="#f96701" stroke-miterlimit="10" stroke-width="1"/>
        <line id="Line_112" data-name="Line 112" y1="5.059" x2="31.381" transform="translate(171.946 108.842)" fill="none" stroke="#f96701" stroke-miterlimit="10" stroke-width="1"/>
        <line id="Line_113" data-name="Line 113" y1="5.128" x2="31.381" transform="translate(171.946 113.902)" fill="none" stroke="#f96701" stroke-miterlimit="10" stroke-width="1"/>
        <line id="Line_114" data-name="Line 114" y1="5.128" x2="31.381" transform="translate(171.946 119.439)" fill="none" stroke="#f96701" stroke-miterlimit="10" stroke-width="1"/>
        <line id="Line_115" data-name="Line 115" y1="2.598" x2="15.725" transform="translate(147.881 34.253)" fill="none" stroke="#f96701" stroke-miterlimit="10" stroke-width="1"/>
        <line id="Line_116" data-name="Line 116" y1="3.965" x2="24.271" transform="translate(171.946 125.456)" fill="none" stroke="#f96701" stroke-miterlimit="10" stroke-width="1"/>
        <path id="Path_1597" data-name="Path 1597" d="M240,27.041l1.709-2.325,3.008,3.213,6.427-9.23,2.188,1.846L245.538,32.1Z" transform="translate(-122.406 -8.718)" fill="#70ba02"/>
        <path id="Path_1598" data-name="Path 1598" d="M235.31,145.275a2.241,2.241,0,0,1,1.641-2.256l37.4-6.837a2.327,2.327,0,0,1,2.53,2.53v23.382a3.239,3.239,0,0,1-2.53,3.35l-37.534,4.991a1.8,1.8,0,0,1-1.914-1.846Z" transform="translate(-120.793 -45.868)" fill="#c8e0ff" opacity="0.34"/>
        <path id="Path_1599" data-name="Path 1599" d="M152.91,166.275a2.241,2.241,0,0,1,1.641-2.256l37.4-6.837a2.327,2.327,0,0,1,2.53,2.53v23.382a3.239,3.239,0,0,1-2.53,3.35l-37.534,4.991a1.8,1.8,0,0,1-1.914-1.846Z" transform="translate(-94.729 -52.51)" fill="#c8e0ff" opacity="0.34"/>
        <path id="Path_1600" data-name="Path 1600" d="M176.642,185.745a1.951,1.951,0,0,1,1.367-1.914l31.313-5.743a1.969,1.969,0,0,1,2.119,2.119V199.9a2.718,2.718,0,0,1-2.119,2.8l-31.449,4.17a1.485,1.485,0,0,1-1.572-1.5Z" transform="translate(-102.257 -59.127)" fill="#c8e0ff" opacity="0.55"/>
        <path id="Path_1601" data-name="Path 1601" d="M341.2,151.641l1.709-2.325,3.008,3.213,6.495-9.23,2.119,1.846L346.806,156.7Z" transform="translate(-154.418 -48.131)" fill="#70ba02"/>
        <g id="Group_322" data-name="Group 322" transform="translate(2.119 0.41)">
          <path id="Path_1602" data-name="Path 1602" d="M80.357,38.669a2.194,2.194,0,0,1-2.051-1.983l-.137-2.461H72.7l6.085-3.077V14.125A2.321,2.321,0,0,1,80.7,11.732L119.669,5.1h.41a2.645,2.645,0,0,1,2.53,2.666V30.328a3.424,3.424,0,0,1-2.871,3.487L80.631,38.6A.517.517,0,0,1,80.357,38.669Z" transform="translate(-71.606 -4.827)" fill="#ffd721"/>
          <path id="Path_1603" data-name="Path 1603" d="M119.642,5.247A2.37,2.37,0,0,1,121.9,7.708V30.27a3.189,3.189,0,0,1-2.666,3.213L80.125,38.269H79.92a1.856,1.856,0,0,1-1.778-1.778l-.205-2.666H73.288l5.264-2.666V14.066a2.217,2.217,0,0,1,1.709-2.188l38.97-6.632h.41m0-.547a.867.867,0,0,0-.41.068L80.261,11.4a2.66,2.66,0,0,0-2.119,2.666V30.885l-4.991,2.53L71.1,34.3h6.29l.137,2.188a2.372,2.372,0,0,0,2.256,2.256h.273l39.107-4.786a3.716,3.716,0,0,0,3.145-3.76V7.64a2.78,2.78,0,0,0-2.666-2.94Z" transform="translate(-71.1 -4.7)" fill="#f96701"/>
        </g>
        <line id="Line_117" data-name="Line 117" y1="5.059" x2="31.381" transform="translate(14.631 7.452)" fill="none" stroke="#f96701" stroke-miterlimit="10" stroke-width="1"/>
        <line id="Line_118" data-name="Line 118" y1="5.128" x2="31.381" transform="translate(14.631 12.511)" fill="none" stroke="#f96701" stroke-miterlimit="10" stroke-width="1"/>
        <line id="Line_119" data-name="Line 119" y1="5.128" x2="31.381" transform="translate(14.631 18.049)" fill="none" stroke="#f96701" stroke-miterlimit="10" stroke-width="1"/>
        <line id="Line_120" data-name="Line 120" y1="3.965" x2="24.271" transform="translate(15.451 24.749)" fill="none" stroke="#f96701" stroke-miterlimit="10" stroke-width="1"/>
        <path id="Path_1604" data-name="Path 1604" d="M149.592,4.1,145.9,19.756l1.983.273,4.239-15.861Z" transform="translate(-92.641 -4.1)" fill="#f96701"/>
        <path id="Path_1605" data-name="Path 1605" d="M139.7,10.688l13.332,7.521,1.3-1.709-13.263-8Z" transform="translate(-90.68 -5.492)" fill="#f96701"/>
        <g id="Group_323" data-name="Group 323" transform="translate(219.736 23.519)">
          <path id="Path_1606" data-name="Path 1606" d="M398.252,71.1a2.016,2.016,0,0,1-1.983-1.914l-.137-2.325H390.8l5.88-2.94V47.583a2.361,2.361,0,0,1,1.846-2.325l37.6-6.358h.41A2.527,2.527,0,0,1,439,41.5V63.171a3.335,3.335,0,0,1-2.8,3.35L398.526,71.1Z" transform="translate(-389.843 -38.627)" fill="#ffd721"/>
          <path id="Path_1607" data-name="Path 1607" d="M436.164,39.047a2.28,2.28,0,0,1,2.188,2.325V63.044a2.992,2.992,0,0,1-2.6,3.077L398.014,70.7h-.205a1.784,1.784,0,0,1-1.709-1.709l-.205-2.6h-4.444l5.059-2.53V47.456a2.009,2.009,0,0,1,1.641-2.051l37.6-6.358h.41m0-.547a.867.867,0,0,0-.41.068l-37.6,6.358a2.529,2.529,0,0,0-2.051,2.6V63.66l-4.786,2.393-1.914.957h6.153l.137,2.119a2.249,2.249,0,0,0,2.188,2.188h.273l37.739-4.581a3.57,3.57,0,0,0,3.008-3.624V41.371a2.913,2.913,0,0,0-2.735-2.871Z" transform="translate(-389.4 -38.5)" fill="#f96701"/>
        </g>
        <line id="Line_121" data-name="Line 121" y1="4.854" x2="30.219" transform="translate(231.769 30.287)" fill="none" stroke="#f96701" stroke-miterlimit="10" stroke-width="1"/>
        <line id="Line_122" data-name="Line 122" y1="4.854" x2="30.219" transform="translate(231.769 35.141)" fill="none" stroke="#f96701" stroke-miterlimit="10" stroke-width="1"/>
        <path id="Path_1608" data-name="Path 1608" d="M461.549,26.6,456.9,39.385l1.641.41,5.128-12.922Z" transform="translate(-191.016 -11.217)" fill="#f96701"/>
        <path id="Path_1609" data-name="Path 1609" d="M453,30.909,463.8,38.7l1.231-1.3L454.3,29.2Z" transform="translate(-189.782 -12.04)" fill="#f96701"/>
        <path id="Path_1610" data-name="Path 1610" d="M150,106" transform="translate(-93.938 -36.333)" fill="#f1f7ff"/>
      </g>
      <g id="Layer_4">
        <path id="Path_1611" data-name="Path 1611" d="M79.837,303.713s57.976-36.3,115.611-9.093S34.714,336.393,79.837,303.713Z" transform="translate(-23.296 -89.994)" fill="#f1f7ff"/>
        <g id="Group_324" data-name="Group 324" transform="translate(89.741 199.433)">
          <path id="Path_1612" data-name="Path 1612" d="M131.424,295.6s-1.3,13.879,3.418,5.059c-.41-.615-.342-2.188-.41-3.76C134.159,292.248,131.766,288.625,131.424,295.6Z" transform="translate(-131.26 -291.704)" fill="#ffacb6"/>
          <path id="Path_1613" data-name="Path 1613" d="M157.024,305.7s.752,1.572-.068,5.948c-.889,4.444,4.717,5.675,4.307-5.675Z" transform="translate(-139.358 -296.131)" fill="#ffacb6"/>
        </g>
        <g id="Group_328" data-name="Group 328" transform="translate(88.393 99.134)">
          <g id="Group_327" data-name="Group 327">
            <g id="Group_325" data-name="Group 325">
              <path id="Path_1614" data-name="Path 1614" d="M138.321,156.212s-7.726,21.057.205,48.747a3.254,3.254,0,0,1-.205,2.53c-2.53,5.059-12.17,25.775-8,43.619,0,0,.684,2.461,4.717-.342s24.681-75.547,24.681-75.547L151.106,145Z" transform="translate(-129.289 -145)" fill="#03286b"/>
            </g>
            <g id="Group_326" data-name="Group 326" transform="translate(13.134 7.185)">
              <path id="Path_1615" data-name="Path 1615" d="M148.5,158.032s.068,36.372,8.683,56.2a4.336,4.336,0,0,1,.137,2.94c-1.778,5.333-7.11,23.861-3.624,41.978a3.774,3.774,0,0,0,5.333,1.231c3.555-1.914,17.434-39.38,10.119-104.262A38.875,38.875,0,0,0,148.5,158.032Z" transform="translate(-148.5 -155.509)" fill="#00217e"/>
            </g>
          </g>
        </g>
        <path id="Path_1616" data-name="Path 1616" d="M157.867,103.167c-5.059,6.427-11.964,1.162-10.734.957,2.6-.479,3.008-7.862,3.008-7.862.615-4.991,7.862-2.53,6.427,0a4.346,4.346,0,0,0-.41,1.231,6.8,6.8,0,0,0,.547,3.282h0A18.566,18.566,0,0,0,157.867,103.167Z" transform="translate(-46.495 -29.534)" fill="#ffacb6"/>
        <path id="Path_1617" data-name="Path 1617" d="M137.841,148.689a4.484,4.484,0,0,1-3.9-.752c-9.025-6.085-6.495-13.81-6.495-13.81,5.2-1.367,8.751-.889,11.007.615C144.062,138.228,142.217,147.321,137.841,148.689Z" transform="translate(-40.211 -42.171)" fill="#ffacb6"/>
        <path id="Path_1618" data-name="Path 1618" d="M217.766,71.82c-.068.82-.957,2.325-4.649,5.128,0,0,1.709,5.4-4.512,8.478,0,0-12.306,29.057-26.459,24.544a10.9,10.9,0,0,1-1.846-.82l4.786-10.392s1.983,3.555,6.768-1.846c4.717-5.4,10.665-6.563,14.494-13.127,0,0-.41-4.923,3.282-7.726A65.844,65.844,0,0,1,217.424,71S217.834,71.137,217.766,71.82Z" transform="translate(-57.032 -22.458)" fill="#ffacb6"/>
        <path id="Path_1619" data-name="Path 1619" d="M155.21,91.656a5.826,5.826,0,0,1-5.059-1.436h0c-2.119-2.051-2.256-5.948-1.162-9.366,1.572-4.991,5.743-8.956,10.187-4.923,0,0,.479.752,1.094,1.983a16.04,16.04,0,0,1,.684,1.5C162.73,83.725,164.166,90.7,155.21,91.656Z" transform="translate(-46.914 -23.493)" fill="#ffacb6"/>
        <path id="Path_1620" data-name="Path 1620" d="M160.555,77.009h0c.205.479.479.957.684,1.5-2.461,2.256-3.76,1.983-4.786,1.5a1.963,1.963,0,0,0-2.53.82c-.547,1.026.205,1.641.889,2.051a1.493,1.493,0,0,1,.684,1.436c-.752,6.427-4.923,4.991-5.059,4.991h0a28,28,0,0,1-1.162-9.366c.82-11.007,11.691-9.5,13.742-5.811A11.037,11.037,0,0,1,160.555,77.009Z" transform="translate(-47.2 -22.588)" fill="#ff9898"/>
        <path id="Path_1621" data-name="Path 1621" d="M143.5,108.363s2.393-3.965,9.64-4.376c7.315-.479,7.11,5.333,7.11,5.333Z" transform="translate(-45.391 -32.884)" fill="#00217e"/>
        <path id="Path_1622" data-name="Path 1622" d="M213.95,77.328s1.709,5.4-4.512,8.478c0,0-12.306,29.057-26.459,24.544a25.465,25.465,0,0,1,.068-3.9s1.641,7.247,11.076-1.094,15.041-20.852,15.041-20.852,4.307-2.8,4.307-6.974c0-1.641,2.256-3.555,5.059-5.333C218.531,72.952,217.642,74.525,213.95,77.328Z" transform="translate(-57.865 -22.838)" fill="#ff9898"/>
        <path id="Path_1623" data-name="Path 1623" d="M141.95,139.06c-12.033,10.187-16.75-6.495-16.75-6.495C127.388,130.035,146.394,137.692,141.95,139.06Z" transform="translate(-39.603 -41.772)" fill="#ff9898"/>
        <path id="Path_1624" data-name="Path 1624" d="M169.657,109.449a49.7,49.7,0,0,1-2.393,9.982c-.41,1.231-.82,2.325-1.162,3.077a1.581,1.581,0,0,1-2.119.889l-2.8-1.367c-.273-.137-.479.068-.479.342.41,9.913,2.666,21.4,3.487,25.57a9.963,9.963,0,0,0,.273,1.162.4.4,0,0,1-.342.479c-17.844.479-29.672,0-29.672-.479,0-.41,1.778-13.469,2.256-16.682a.348.348,0,0,0-.479-.41c-4.649,2.051-9.161-3.487-11.144-6.427a2.668,2.668,0,0,1,.137-3.213c1.162-1.436,5.538-8.751,8.888-12.648,1.914-2.256,5.333-2.119,8.136-2.325h1.983a16.669,16.669,0,0,0,5.469-.889c8.614-3.008,16.477.068,19.143,1.367A1.563,1.563,0,0,1,169.657,109.449Z" transform="translate(-39.416 -33.286)" fill="blue"/>
        <g id="Group_329" data-name="Group 329" transform="translate(96.946 88.674)">
          <path id="Path_1625" data-name="Path 1625" d="M145.287,129.7a28.84,28.84,0,0,1-.957,5.4c-.273.889-.547,1.778-.889,2.6a10.329,10.329,0,0,1-.615,1.231,3.791,3.791,0,0,1-.41.547c-.137.137-.342.41-.615.342a.723.723,0,0,0,.41-.479c.068-.205.205-.41.273-.615.137-.41.273-.82.41-1.3l.752-2.6C144.193,133.187,144.671,131.478,145.287,129.7Z" transform="translate(-141.8 -129.7)" fill="#00217e"/>
        </g>
        <path id="Path_1626" data-name="Path 1626" d="M182.5,124.6c-.41,1.231-.82,2.325-1.162,3.077a1.581,1.581,0,0,1-2.119.889l-2.8-1.367c-.273-.137-.479.068-.479.342.41,9.913,3.008,22.562,3.829,26.732-1.983-3.829-5.264-19.964-6.085-26.8-.137-1.367-1.231-5.4-.82-5.606C174.977,120.63,180.788,123.5,182.5,124.6Z" transform="translate(-54.649 -38.451)" fill="#00217e" opacity="0.77"/>
        <path id="Path_1627" data-name="Path 1627" d="M160.553,72.9a13.144,13.144,0,0,1-2.393,2.871h0a5.981,5.981,0,0,1-4.786,2.393h-.615a9.342,9.342,0,0,1-1.3-.137s-4.512,2.94,1.026,4.17c0,0-.41,5.811-4.376,5.88h0A5.525,5.525,0,0,1,146.4,87.8c-5.606-1.846-6.632-12.717-1.026-17.639C150.161,65.856,163.9,66.745,160.553,72.9Z" transform="translate(-44.806 -21.348)" fill="#00217e"/>
        <path id="Path_1628" data-name="Path 1628" d="M156.079,314.4s1.3,4.444,3.829,0c0,0,7.247,1.914,9.435,1.914,3.008,0,3.9,7.657-7.862,4.717a5.34,5.34,0,0,0-2.325-.068l-2.871.615C154.985,321.921,152.182,317.613,156.079,314.4Z" transform="translate(-48.741 -99.45)" fill="#00217e"/>
        <path id="Path_1629" data-name="Path 1629" d="M130.637,304.979s1.5,4.034,3.624-.479c0,0,6.974.82,9.093.547,2.871-.41,4.1,6.768-7.179,5.469a4.726,4.726,0,0,0-2.188.273l-2.666.957C130.09,312.226,127.151,308.465,130.637,304.979Z" transform="translate(-40.801 -96.318)" fill="#00217e"/>
        <path id="Path_1630" data-name="Path 1630" d="M410.849,142.483,449,116.571a2.988,2.988,0,0,1,4.239,1.026l13.605,23.245a5.008,5.008,0,0,1-1.367,6.563l-35.552,23.861a4.758,4.758,0,0,1-6.837-1.572l-13.4-21.194A4.493,4.493,0,0,1,410.849,142.483Z" transform="translate(-129.376 -36.717)" fill="none" stroke="#f96701" stroke-linecap="round" stroke-miterlimit="10" stroke-width="2"/>
        <path id="Path_1631" data-name="Path 1631" d="M432.608,148.56c-3.213,4.239-8.888,13.4-3.76,19.9,3.145,3.965,9.23,1.983,9.845-3.213v-.273a44.664,44.664,0,0,1,1.231-6.837c.889-3.145,1.5-7.726-.889-10.187A4.241,4.241,0,0,0,432.608,148.56Z" transform="translate(-135 -46.417)" fill="#70ba02"/>
        <ellipse id="Ellipse_129" data-name="Ellipse 129" cx="8.409" cy="9.025" rx="8.409" ry="9.025" transform="translate(295.556 102.142)" fill="none" stroke="blue" stroke-miterlimit="10" stroke-width="3"/>
        <path id="Path_1632" data-name="Path 1632" d="M456.29,144.134s1.709,2.325.41,4.17c0,0,2.6,0,2.6-4.17,0,0,7.726.479,7.726-6.016s-15.93-10.187-20.647-2.8C441.727,142.7,456.29,144.134,456.29,144.134Z" transform="translate(-140.907 -41.513)" fill="blue"/>
        <ellipse id="Ellipse_130" data-name="Ellipse 130" cx="1.367" cy="1.504" rx="1.367" ry="1.504" transform="translate(309.435 94.69)" fill="#fff"/>
        <ellipse id="Ellipse_131" data-name="Ellipse 131" cx="1.367" cy="1.504" rx="1.367" ry="1.504" transform="translate(314.563 94.69)" fill="#fff"/>
        <ellipse id="Ellipse_132" data-name="Ellipse 132" cx="1.367" cy="1.504" rx="1.367" ry="1.504" transform="translate(319.28 94.69)" fill="#fff"/>
        <path id="Path_1633" data-name="Path 1633" d="M160.842,102.682a2.326,2.326,0,0,1-.547-3.282A6.937,6.937,0,0,0,160.842,102.682Z" transform="translate(-50.563 -31.442)" fill="#ff9898"/>
        <path id="Path_1634" data-name="Path 1634" d="M333.3,307.172a10.2,10.2,0,0,1,2.051-1.231c4.923-2.461,26.048-5.606,51.618-1.846a9.987,9.987,0,0,1,4.717,1.983C406.661,317.837,317.236,319.751,333.3,307.172Z" transform="translate(-104.815 -95.64)" fill="#f1f7ff"/>
        <path id="Path_1635" data-name="Path 1635" d="M382.944,279.7,380,297.271l-.137.82a2.333,2.333,0,0,1-2.256,1.983H364.963a2.388,2.388,0,0,1-2.256-1.846l-3.008-12.99-1.3-5.469h24.544Z" transform="translate(-113.368 -88.474)" fill="#70ba02"/>
        <path id="Path_1636" data-name="Path 1636" d="M384.341,278.182c0,1.778-6.358,3.213-14.221,3.213s-14.221-1.436-14.221-3.213c0-.342.205-.615.615-.957,1.778-1.367,7.179-2.325,13.605-2.325s11.828.957,13.605,2.325A1.415,1.415,0,0,1,384.341,278.182Z" transform="translate(-112.577 -86.955)" fill="#70ba02" stroke="#00a777" stroke-miterlimit="10" stroke-width="1"/>
        <path id="Path_1637" data-name="Path 1637" d="M382.973,277.3a.789.789,0,0,1,0,1.436c-2.461.957-7.042,1.641-12.238,1.641-5.675,0-10.6-.752-12.853-1.846a.513.513,0,0,1,0-.889c2.256-1.094,7.179-1.846,12.853-1.846C375.931,275.729,380.511,276.345,382.973,277.3Z" transform="translate(-113.123 -87.238)" fill="#00a777"/>
        <path id="Path_1638" data-name="Path 1638" d="M385.6,245.331s-4.786-14.152,11.554-14.631C397.152,230.632,400.707,245.6,385.6,245.331Z" transform="translate(-121.764 -72.974)" fill="#70ba02"/>
        <path id="Path_1639" data-name="Path 1639" d="M380.605,299.833l-.137.82a2.333,2.333,0,0,1-2.256,1.983H365.564a2.388,2.388,0,0,1-2.256-1.846L360.3,287.8c1.641,1.983,3.829,4.923,4.307,7.931C365.428,300.311,371.512,302.294,380.605,299.833Z" transform="translate(-113.969 -91.036)" fill="#00a777"/>
        <path id="Path_1640" data-name="Path 1640" d="M381.364,223.6s-9.845-18.87,4.376-24.2C385.74,199.4,394.764,219.705,381.364,223.6Z" transform="translate(-119.582 -63.074)" fill="#70ba02"/>
        <path id="Path_1641" data-name="Path 1641" d="M350.9,224.8s18.049,2.119,12.853,18.459C363.753,243.259,345.226,239.568,350.9,224.8Z" transform="translate(-110.654 -71.108)" fill="#70ba02"/>
        <path id="Path_1642" data-name="Path 1642" d="M345.3,249.568s9.777-5.948,12.375,6.974C357.743,256.473,347.214,261.6,345.3,249.568Z" transform="translate(-109.224 -78.51)" fill="#70ba02"/>
        <path id="Path_1643" data-name="Path 1643" d="M391.4,258.488s.684-9.572,9.572-5.88C400.972,252.54,399.467,262.316,391.4,258.488Z" transform="translate(-123.806 -79.636)" fill="#70ba02"/>
        <path id="Path_1644" data-name="Path 1644" d="M392.6,266.038s3.624-4.17,6.632,2.94C399.232,268.978,395.13,272.738,392.6,266.038Z" transform="translate(-124.186 -83.768)" fill="#70ba02"/>
        <g id="Group_336" data-name="Group 336" transform="translate(244.485 150.752)">
          <g id="Group_330" data-name="Group 330" transform="translate(16.527 13.605)">
            <path id="Path_1645" data-name="Path 1645" d="M381.792,266.859a63.975,63.975,0,0,1,1.367-14.426,31.592,31.592,0,0,1,2.325-6.905,14.749,14.749,0,0,1,1.983-3.077,6.77,6.77,0,0,1,2.94-2.051,7.314,7.314,0,0,0-2.666,2.325,13.845,13.845,0,0,0-1.778,3.077,39.59,39.59,0,0,0-2.119,6.837c-.547,2.324-.889,4.717-1.231,7.042-.137,1.162-.342,2.393-.41,3.555A32.656,32.656,0,0,0,381.792,266.859Z" transform="translate(-381.774 -240.4)" fill="#00a777"/>
          </g>
          <g id="Group_331" data-name="Group 331" transform="translate(3.418 12.033)">
            <path id="Path_1646" data-name="Path 1646" d="M362.6,238.1a46.311,46.311,0,0,1,3.965,6.29,60.811,60.811,0,0,1,3.145,6.768,37.425,37.425,0,0,1,2.051,7.179,22.742,22.742,0,0,1,.205,7.452v-1.846a4.514,4.514,0,0,0-.068-.957l-.068-.957-.068-.889-.137-.889c-.137-.615-.205-1.231-.342-1.846l-.41-1.778a17.657,17.657,0,0,0-.547-1.778,9.149,9.149,0,0,0-.615-1.778c-.205-.547-.41-1.162-.615-1.709-.889-2.324-1.914-4.581-3.008-6.768-.547-1.094-1.094-2.188-1.709-3.282C363.831,240.219,363.215,239.194,362.6,238.1Z" transform="translate(-362.6 -238.1)" fill="#00a777"/>
          </g>
          <g id="Group_332" data-name="Group 332" transform="translate(13.629)">
            <path id="Path_1647" data-name="Path 1647" d="M383.664,220.5l-1.162,4.923c-.41,1.641-.752,3.282-1.094,4.923-.684,3.282-1.367,6.632-1.914,9.913a98.634,98.634,0,0,0-1.367,10.05,41.687,41.687,0,0,0-.137,5.059,13.7,13.7,0,0,0,.957,4.923,13.468,13.468,0,0,1-1.3-4.923,42.779,42.779,0,0,1-.068-5.128,99.7,99.7,0,0,1,1.231-10.119c.615-3.35,1.3-6.632,2.119-9.913C381.75,226.995,382.638,223.713,383.664,220.5Z" transform="translate(-377.534 -220.5)" fill="#00a777"/>
          </g>
          <g id="Group_333" data-name="Group 333" transform="translate(0 23.587)">
            <path id="Path_1648" data-name="Path 1648" d="M357.6,255a32.708,32.708,0,0,1,3.692,3.213,28.258,28.258,0,0,1,3.213,3.76,15.868,15.868,0,0,1,2.325,4.376,7.744,7.744,0,0,1,.41,2.461,4.8,4.8,0,0,1-.615,2.393,5.66,5.66,0,0,0,.342-2.393,6.891,6.891,0,0,0-.615-2.324,19.41,19.41,0,0,0-2.393-4.17c-.957-1.3-1.983-2.53-3.008-3.76-.547-.615-1.094-1.231-1.641-1.778C358.694,256.162,358.147,255.615,357.6,255Z" transform="translate(-357.6 -255)" fill="#00a777"/>
          </g>
          <g id="Group_334" data-name="Group 334" transform="translate(17.366 24.739)">
            <path id="Path_1649" data-name="Path 1649" d="M383,270.3a44.01,44.01,0,0,1,1.641-4.17,32.191,32.191,0,0,1,2.188-3.965,22.874,22.874,0,0,1,2.8-3.555,7.191,7.191,0,0,1,1.846-1.367,4.166,4.166,0,0,1,2.188-.547,4.487,4.487,0,0,0-2.051.82,8.25,8.25,0,0,0-1.641,1.436,34.42,34.42,0,0,0-2.666,3.555,43.189,43.189,0,0,0-2.256,3.829c-.342.615-.752,1.3-1.094,1.983Z" transform="translate(-383 -256.685)" fill="#00a777"/>
          </g>
          <g id="Group_335" data-name="Group 335" transform="translate(20.305 30.971)">
            <path id="Path_1650" data-name="Path 1650" d="M387.3,267.1a5.776,5.776,0,0,1,1.846-.889,9.275,9.275,0,0,1,1.983-.41,5.147,5.147,0,0,1,2.051.273,2.7,2.7,0,0,1,1.5,1.367,4.525,4.525,0,0,0-3.555-.957C389.9,266.62,388.6,266.894,387.3,267.1Z" transform="translate(-387.3 -265.8)" fill="#00a777"/>
          </g>
        </g>
        <g id="Group_337" data-name="Group 337" transform="translate(96.81 103.988)">
          <path id="Path_1651" data-name="Path 1651" d="M141.6,152.1c.889.137,1.641.342,2.461.479a7.531,7.531,0,0,0,1.231.137,3.785,3.785,0,0,0,1.231-.137,1.966,1.966,0,0,1-1.231.479,4.138,4.138,0,0,1-1.3,0A5.7,5.7,0,0,1,141.6,152.1Z" transform="translate(-141.6 -152.1)" fill="#00217e"/>
        </g>
        <g id="Group_338" data-name="Group 338" transform="translate(96.81 99.681)">
          <path id="Path_1652" data-name="Path 1652" d="M141.6,147.441c.82-.205,1.641-.342,2.461-.615a5.818,5.818,0,0,0,1.162-.41,4.421,4.421,0,0,0,1.094-.615,2.979,2.979,0,0,1-.889.957,4.858,4.858,0,0,1-1.231.547A6.6,6.6,0,0,1,141.6,147.441Z" transform="translate(-141.6 -145.8)" fill="#00217e"/>
        </g>
        <g id="Group_339" data-name="Group 339" transform="translate(97.288 98.861)">
          <path id="Path_1653" data-name="Path 1653" d="M142.3,145.967a9.661,9.661,0,0,0,1.5-.41,2.771,2.771,0,0,0,.615-.342,1.391,1.391,0,0,0,.41-.615.945.945,0,0,1-.205.82,1.365,1.365,0,0,1-.684.547,1.82,1.82,0,0,1-.82.205A3.6,3.6,0,0,0,142.3,145.967Z" transform="translate(-142.3 -144.6)" fill="#00217e"/>
        </g>
        <g id="Group_340" data-name="Group 340">
          <rect id="Rectangle_845" data-name="Rectangle 845" width="378" height="235" fill="none"/>
        </g>
      </g>
    </g>
  </g>
</svg>
