<svg xmlns="http://www.w3.org/2000/svg" width="457" height="284.966" viewBox="0 0 457 284.966">
  <g id="use_case_illustration_5" data-name="use case illustration 5" transform="translate(-214 -2731)">
    <g id="use_case_4" transform="translate(214.5 2731.5)">
      <g id="Layer_3" transform="translate(35.928 4.643)">
        <path id="Path_1514" data-name="Path 1514" d="M114.687,142.968s-22.6-51.164,4.967-90.82C151.2,6.861,189.943,56.7,203.024,27.062S254.188,3.8,269.5,15.471c27.155,20.7,19.456-3.229,44.872-4.8C366.2,7.523,373.819,63.9,390.543,82.448c44.541,49.591-37.338,112.18-66.4,79.727-11.508-12.832-7.12-24.92-59.112-7.948-23.926,7.865-27.072-33.447-53.234-24.423-11.425,3.974-36.262.58-39.491-12.667C169.08,103.974,114.687,142.968,114.687,142.968Z" transform="translate(-54.251 -5.712)" fill="#f1f7ff"/>
        <path id="Path_1515" data-name="Path 1515" d="M152.111,232.251s-3.312,2.815-7.7,6.375a190.663,190.663,0,0,1-17.055,12.584c-4.471,2.815-7.368,3.808-6.126.745a4.667,4.667,0,0,0,.331-.993c.911-3.229.248-7.2-.911-11.177-.58-1.821-1.242-3.56-1.9-5.3a78.712,78.712,0,0,0-5.547-10.763l4.885-9.024,20.284,10.432Z" transform="translate(-55.495 -41.679)" fill="#f96701"/>
        <path id="Path_1516" data-name="Path 1516" d="M261.994,272.476s19.207-9.852,28.976-5.05-.993,21.774-34.606,15.4C256.364,282.825,251.48,273.883,261.994,272.476Z" transform="translate(-79.939 -50.526)" fill="#00217e"/>
        <path id="Path_1517" data-name="Path 1517" d="M175.649,112.111s17.386,22.188,34.358,1.325c15.151-18.628,8.693-34.523,8.693-34.523S165.88,72.206,175.649,112.111Z" transform="translate(-66.036 -18.237)" fill="#00217e"/>
        <path id="Path_1518" data-name="Path 1518" d="M215.967,77.23c-.083,2.484-.248,5.547-.58,8.859-1.656,14.405-7.2,33.447-25.416,32.371a21.538,21.538,0,0,1-3.229-.414c-11.094-1.987-11.177-8.2-6.458-15.482,4.057-6.292,11.756-13.412,18.959-19.29,2.98-2.4,5.8-4.636,8.362-6.54,3.063-2.318,5.63-4.139,7.12-5.133.5.5.993,1.076,1.407,1.573A30,30,0,0,0,215.967,77.23Z" transform="translate(-66.531 -17.051)" fill="#062260"/>
        <path id="Path_1519" data-name="Path 1519" d="M183.538,75.327a14.731,14.731,0,0,0-11.922,10.514C169.96,91.8,169.96,100,177.577,107.2c14.074,13.329,30.053,4.553,35.682-22.85C202.745,75.906,191.4,74.085,183.538,75.327Z" transform="translate(-65.397 -17.632)" fill="#ffacb6"/>
        <path id="Path_1520" data-name="Path 1520" d="M179.1,83.393s7.286-5.3,17.551,3.229c10.183,8.527,15.564,10.1,16.558,5.3C214.12,87.119,188.869,63.772,179.1,83.393Z" transform="translate(-66.837 -17.75)" fill="#ff9898"/>
        <path id="Path_1521" data-name="Path 1521" d="M213.48,75.627a25.807,25.807,0,0,1-3.808,8.445c-1.987,2.566-4.719,4.222-8.362,2.484a67.343,67.343,0,0,1-7.865-5.216,37.115,37.115,0,0,0-6.458-3.891,9.22,9.22,0,0,0-2.484-.662,14.384,14.384,0,0,0-14.985,9.272l-2.649,7.286c-17.883,26.576-33.2,5.713-11.922-16.144,26.41-27.072,45.2-16.558,53.9-7.451.5.5.993,1.076,1.407,1.573A26.158,26.158,0,0,1,213.48,75.627Z" transform="translate(-60.899 -15.035)" fill="#00217e"/>
        <path id="Path_1522" data-name="Path 1522" d="M177.662,84.514s-3.477-7.534-6.209.166,3.312,4.8,3.312,4.8Z" transform="translate(-65.399 -18.706)" fill="#ffacb6"/>
        <path id="Path_1523" data-name="Path 1523" d="M183.6,125.6s-4.305,27.652-24.34,27.652c-16.061,0-13.081-18.628-8.941-28.066a16.773,16.773,0,0,1,2.98-4.885c4.885-4.222,14.074-20.2,14.074-20.2a.641.641,0,0,1,.248.083c2.07.414,16.972,3.891,11.425,13.495-.248.5-.5.911-.745,1.325a10.56,10.56,0,0,0-.911,2.732C175.984,124.44,183.6,125.6,183.6,125.6Z" transform="translate(-61.32 -21.956)" fill="#ffacb6"/>
        <path id="Path_1524" data-name="Path 1524" d="M178.966,114.985a4.881,4.881,0,0,1-.662-.331c-7.865-3.394-9.769-10.183-10.1-14.571a.363.363,0,0,1-.248-.083s-9.19,15.9-14.074,20.2a14.247,14.247,0,0,0-2.98,4.885c16.227-13.081,21.194-6.458,27.072-7.451Z" transform="translate(-61.984 -21.939)" fill="#ff9898"/>
        <path id="Path_1525" data-name="Path 1525" d="M226.9,265.8s12.667,8.445,7.12,14.571-15.233,8.279-25,12c-11.508,4.388-35.186-.5,3.808-19.7Z" transform="translate(-68.939 -50.473)" fill="#00217e"/>
        <path id="Path_1526" data-name="Path 1526" d="M299.227,233.522c-1.739,3.56-7.782,8.941-15.564,14.9a85.534,85.534,0,0,1-42.8,17.386c-38.994,4.222-62.837-47.273-12.5-53.9,0,0,24.754-7.7,45.534-7.12C289.872,205.373,307.424,216.467,299.227,233.522Z" transform="translate(-70.396 -39.969)" fill="blue" stroke="#00217e" stroke-miterlimit="10" stroke-width="1"/>
        <path id="Path_1527" data-name="Path 1527" d="M214.924,193.408a41.87,41.87,0,0,1-17.8,15.4l-3.229.993-36.841,11.673c-11.425,3.643-23.678,1.987-34.275-3.726-2.815-1.49-6.623,2.566-14.074,4.553-5.8,1.573-9.355-7.782-9.107-21.36h0c.331-21.277,10.018-52.82,34.772-69.461a56.39,56.39,0,0,1,9.852-5.381s8.113,31.212,31.377,4.139c0,0,3.477,2.815,8.527,7.451,10.183,9.438,26.741,26.244,32.371,41.229A16.98,16.98,0,0,1,214.924,193.408Z" transform="translate(-53.152 -26.431)" fill="#f96701"/>
        <path id="Path_1528" data-name="Path 1528" d="M230.507,195.783a41.87,41.87,0,0,1-17.8,15.4l-12.75,5.05c-2.235-2.649-10.6-.911-9.769-3.229,0,0,55.718-9.6,32.454-43.051-11.508-16.558-20.863-25.582-23.181-30.053,10.183,9.438,26.741,26.244,32.371,41.229A16.4,16.4,0,0,1,230.507,195.783Z" transform="translate(-68.735 -28.806)" fill="#d64100"/>
        <path id="Path_1529" data-name="Path 1529" d="M123.111,252.1c.911-3.229.248-7.2-.911-11.177,1.573-1.821,30.384-24.506,40.07-18.628C172.536,228.425,124.932,252.6,123.111,252.1Z" transform="translate(-57.044 -42.82)" fill="#d64100"/>
        <g id="Group_307" data-name="Group 307" transform="translate(109.979 137.716)">
          <path id="Path_1530" data-name="Path 1530" d="M187.448,194.694l-.662-.166a1.271,1.271,0,0,1-.993-1.573L189.6,175.57l.414-1.739.166-.745a1.308,1.308,0,0,1,1.573-.993l.662.166a1.271,1.271,0,0,1,.993,1.573l-.166.662-.414,1.739-3.891,17.386A1.168,1.168,0,0,1,187.448,194.694Z" transform="translate(-177.962 -172.056)" fill="#a5d1fe"/>
          <path id="Path_1531" data-name="Path 1531" d="M196.342,201.594s3.974-8.693.083-12.418c-3.891-3.808-21.111,3.312-20.035,7.948C177.549,201.677,196.342,201.594,196.342,201.594Z" transform="translate(-176.342 -174.816)" fill="#ffacb6"/>
          <path id="Path_1532" data-name="Path 1532" d="M190.3,176.039l3.394.662.414-1.739c-1.242-.248-2.484-.414-3.394-.662Z" transform="translate(-178.744 -172.442)" fill="#00217e"/>
        </g>
        <g id="Group_310" data-name="Group 310" transform="translate(49.757 139.326)">
          <g id="Group_308" data-name="Group 308" transform="translate(0 38.332)">
            <path id="Path_1533" data-name="Path 1533" d="M103.6,235.616a5.778,5.778,0,0,0,4.139,2.235c.166,0,.414.083.58.083h.58a5.091,5.091,0,0,0,1.159-.083,11.873,11.873,0,0,0,2.318-.58,30.21,30.21,0,0,0,4.471-1.9,42.932,42.932,0,0,0,4.139-2.566l1.987-1.407,1.9-1.49,1.9-1.49c.58-.58,1.242-1.076,1.821-1.573,1.242-1.076,2.484-2.07,3.643-3.229,1.242-1.076,2.4-2.235,3.643-3.312-2.235,2.4-4.471,4.8-6.872,7.037-.58.58-1.242,1.159-1.821,1.656l-1.9,1.573-1.9,1.573-1.987,1.407a31.622,31.622,0,0,1-8.859,4.388,21.961,21.961,0,0,1-2.484.5,6.224,6.224,0,0,1-1.242,0h-.662c-.248,0-.414-.083-.662-.083a6.9,6.9,0,0,1-1.242-.331,7.569,7.569,0,0,1-1.159-.58A8.365,8.365,0,0,1,103.6,235.616Z" transform="translate(-103.6 -220.3)" fill="#d64100"/>
          </g>
          <g id="Group_309" data-name="Group 309" transform="translate(26.058)">
            <path id="Path_1534" data-name="Path 1534" d="M137.745,174c-.166,1.159-.414,2.318-.58,3.477l-.5,3.477c-.331,2.318-.58,4.636-.745,7.037a39.961,39.961,0,0,0,.083,7.037,11.984,11.984,0,0,0,.828,3.394,5.634,5.634,0,0,0,2.07,2.732,5.18,5.18,0,0,1-2.4-2.566,15.48,15.48,0,0,1-1.076-3.477,29.463,29.463,0,0,1-.248-7.12,65.371,65.371,0,0,1,.911-7.037A38.7,38.7,0,0,1,137.745,174Z" transform="translate(-135.075 -174)" fill="#d64100"/>
          </g>
        </g>
        <path id="Path_1535" data-name="Path 1535" d="M140.939,191.225,139.2,226.41a1.516,1.516,0,0,0,1.325,1.49l47.439,3.477a2.123,2.123,0,0,0,2.235-1.987l1.49-32.454a2.336,2.336,0,0,0-2.07-2.4l-47.19-4.636A1.4,1.4,0,0,0,140.939,191.225Z" transform="translate(-59.97 -37.411)" fill="#f1f7ff"/>
        <path id="Path_1536" data-name="Path 1536" d="M239.108,264.773l-2.153,10.6s-30.632-4.636-60.6,5.3c-.662.248-1.242.414-1.9.662-28.149,8.776-58.367,4.719-60.271-14.985a22.1,22.1,0,0,1,4.8-15.813h0c7.2-9.272,24.34-28.066,46.611-30.467C195.229,216.92,210.959,260.551,239.108,264.773Z" transform="translate(-55.646 -42.575)" fill="blue" stroke="#00217e" stroke-miterlimit="10" stroke-width="1"/>
        <path id="Path_1537" data-name="Path 1537" d="M115.7,276.672s13.826-1.573,35.434-22.27,40.07,26.576,87.426,19.373" transform="translate(-55.926 -47.602)" fill="none" stroke="#0b0b72" stroke-miterlimit="10" stroke-width="1"/>
        <path id="Path_1538" data-name="Path 1538" d="M117.4,280.048s13.495-1.076,35.186-21.774,36.262,25,85.522,19.124" transform="translate(-56.218 -48.246)" fill="none" stroke="#0b0b72" stroke-miterlimit="10" stroke-width="1"/>
        <path id="Path_1539" data-name="Path 1539" d="M295.117,222.1s-35.682,6.872-53.317,33.861" transform="translate(-77.628 -42.952)" fill="none" stroke="#0b0b72" stroke-miterlimit="10" stroke-width="1"/>
        <path id="Path_1540" data-name="Path 1540" d="M301.382,218.3c-.58.5-3.146,4.388-7.782,6.209" transform="translate(-86.543 -42.298)" fill="none" stroke="#0b0b72" stroke-miterlimit="10" stroke-width="1"/>
        <path id="Path_1541" data-name="Path 1541" d="M204.873,320.728c5.381-1.325,50.336-15.978,51.413-18.048,1.076-2.153,23.264,32.95,45.452,33.447H216.3S203.3,322.053,204.873,320.728Z" transform="translate(-71.25 -56.804)" fill="#f1f7ff" stroke="#a5d1fe" stroke-miterlimit="10" stroke-width="1"/>
        <path id="Path_1542" data-name="Path 1542" d="M368.782,272.2s-4.305,19.7-35.682,30.3l39.491,14.323s26.493-5.878,31.377-39.9C403.968,277,375.24,277.5,368.782,272.2Z" transform="translate(-93.341 -51.575)" fill="#f1f7ff" stroke="#a5d1fe" stroke-miterlimit="10" stroke-width="1"/>
        <path id="Path_1543" data-name="Path 1543" d="M79.762,242.7s-2.153,76.581,31.957,71.779L89.531,325.655H43.5V257.023Z" transform="translate(-43.5 -46.498)" fill="#f1f7ff" stroke="#a5d1fe" stroke-miterlimit="10" stroke-width="1"/>
        <path id="Path_1544" data-name="Path 1544" d="M78.273,19.9s3.643,16.475,29.97,25.416l-33.116,12S48.8,52.436,48.8,23.377C48.717,23.46,74.63,24.785,78.273,19.9Z" transform="translate(-44.412 -8.154)" fill="#f1f7ff" stroke="#a5d1fe" stroke-miterlimit="10" stroke-width="1"/>
        <path id="Path_1545" data-name="Path 1545" d="M50.4,267.648c.58-1.076,22.188-7.948,22.188-7.948" transform="translate(-44.688 -49.423)" fill="#f1f7ff"/>
        <line id="Line_101" data-name="Line 101" x1="20.615" y2="7.948" transform="translate(7.286 218.224)" fill="none" stroke="#a5d1fe" stroke-miterlimit="10" stroke-width="2"/>
        <line id="Line_102" data-name="Line 102" x1="20.615" y2="7.948" transform="translate(6.209 225.179)" fill="none" stroke="#a5d1fe" stroke-miterlimit="10" stroke-width="2"/>
        <line id="Line_103" data-name="Line 103" x1="20.615" y2="7.948" transform="translate(8.362 232.05)" fill="none" stroke="#a5d1fe" stroke-miterlimit="10" stroke-width="2"/>
        <line id="Line_104" data-name="Line 104" x1="20.532" y2="7.948" transform="translate(10.018 239.005)" fill="none" stroke="#a5d1fe" stroke-miterlimit="10" stroke-width="2"/>
        <line id="Line_105" data-name="Line 105" x1="20.532" y2="7.948" transform="translate(12.17 244.8)" fill="none" stroke="#a5d1fe" stroke-miterlimit="10" stroke-width="2"/>
        <line id="Line_106" data-name="Line 106" x1="20.615" y2="7.948" transform="translate(15.399 251.754)" fill="none" stroke="#a5d1fe" stroke-miterlimit="10" stroke-width="2"/>
        <g id="Group_311" data-name="Group 311" transform="translate(131.47 142.472)">
          <path id="Path_1546" data-name="Path 1546" d="M202.3,177.8c.828,1.573,1.573,3.229,2.318,4.8q1.118,2.484,1.987,4.967c.58,1.656,1.159,3.394,1.656,5.133.248.911.414,1.739.58,2.649.083.414.083.911.166,1.325A3.646,3.646,0,0,1,208.84,198a3.584,3.584,0,0,0-.083-1.325,10.3,10.3,0,0,0-.331-1.325c-.248-.828-.5-1.656-.745-2.566-.58-1.656-1.159-3.312-1.821-4.967l-1.821-5.05-.911-2.484C202.88,179.539,202.548,178.628,202.3,177.8Z" transform="translate(-202.3 -177.8)" fill="#d64100"/>
        </g>
        <path id="Path_1547" data-name="Path 1547" d="M53.6,28.753S68.171,30.905,76.864,26.6" transform="translate(-45.238 -9.307)" fill="none" stroke="#a5d1fe" stroke-miterlimit="10" stroke-width="1"/>
        <path id="Path_1548" data-name="Path 1548" d="M56.2,33.253S70.771,35.405,79.464,31.1" transform="translate(-45.686 -10.081)" fill="none" stroke="#a5d1fe" stroke-miterlimit="10" stroke-width="1"/>
        <path id="Path_1549" data-name="Path 1549" d="M58.2,37.753S72.771,39.905,81.464,35.6" transform="translate(-46.03 -10.856)" fill="none" stroke="#a5d1fe" stroke-miterlimit="10" stroke-width="1"/>
        <path id="Path_1550" data-name="Path 1550" d="M73.6,41.629s10.845.5,13.495-3.229c0,0,2.732,6.375,8.113,6.872a28.335,28.335,0,0,1-16.227,4.222Z" transform="translate(-48.68 -11.337)" fill="none" stroke="#a5d1fe" stroke-miterlimit="10" stroke-width="1"/>
        <path id="Path_1551" data-name="Path 1551" d="M257.743,309.4s-28.149,12.253-41.643,13.826" transform="translate(-73.205 -57.977)" fill="none" stroke="#a5d1fe" stroke-miterlimit="10" stroke-width="2"/>
        <path id="Path_1552" data-name="Path 1552" d="M260.943,314.6s-28.149,12.253-41.643,13.826" transform="translate(-73.755 -58.872)" fill="none" stroke="#a5d1fe" stroke-miterlimit="10" stroke-width="2"/>
        <path id="Path_1553" data-name="Path 1553" d="M263.643,319.1S235.495,331.353,222,332.926" transform="translate(-74.22 -59.646)" fill="none" stroke="#a5d1fe" stroke-miterlimit="10" stroke-width="2"/>
        <path id="Path_1554" data-name="Path 1554" d="M377.033,278s10.845,4.8,26.493,3.229c0,0-1.9,9.272-6.209,10.928,0,0-17.055,1.325-25.417-5.878C371.9,286.2,376.536,282.222,377.033,278Z" transform="translate(-100.018 -52.573)" fill="none" stroke="#a5d1fe" stroke-miterlimit="10" stroke-width="1"/>
        <path id="Path_1555" data-name="Path 1555" d="M369,290.2s9.19,9.024,27.072,6.872" transform="translate(-99.519 -54.673)" fill="none" stroke="#a5d1fe" stroke-miterlimit="10" stroke-width="1"/>
        <path id="Path_1556" data-name="Path 1556" d="M366.7,292.4s8.61,9.6,26.576,8.527" transform="translate(-99.123 -55.051)" fill="none" stroke="#a5d1fe" stroke-miterlimit="10" stroke-width="1"/>
        <path id="Path_1557" data-name="Path 1557" d="M363.7,294.8s8.113,10.018,26.079,9.935" transform="translate(-98.607 -55.464)" fill="none" stroke="#a5d1fe" stroke-miterlimit="10" stroke-width="1"/>
        <path id="Path_1558" data-name="Path 1558" d="M361.1,298.5" transform="translate(-98.159 -56.101)" fill="#f1f7ff" stroke="#a5d1fe" stroke-miterlimit="10" stroke-width="1"/>
        <path id="Path_1559" data-name="Path 1559" d="M359.758,297.9s5.961,7.948,14.074,7.948c0,0-3.229,6.375-7.037,6.872a19.5,19.5,0,0,1-13.495-9.6Z" transform="translate(-96.817 -55.998)" fill="#f1f7ff" stroke="#a5d1fe" stroke-miterlimit="10" stroke-width="1"/>
        <path id="Path_1560" data-name="Path 1560" d="M435.2,62.2s15.151,41.478,24.175,28.728C467.9,78.841,435.2,62.2,435.2,62.2Z" transform="translate(-110.912 -15.433)" fill="#f1f7ff"/>
        <path id="Path_1561" data-name="Path 1561" d="M98.929,107.9s-2.649,34.606,4.885,45.038C108.45,159.4,65.482,150.951,98.929,107.9Z" transform="translate(-50.828 -23.298)" fill="#f1f7ff"/>
        <path id="Path_1562" data-name="Path 1562" d="M163.2,30.476s45.617,14.571,43.465,1.325S163.2,30.476,163.2,30.476Z" transform="translate(-64.101 -9.126)" fill="#f1f7ff"/>
        <ellipse id="Ellipse_122" data-name="Ellipse 122" cx="7.037" cy="6.872" rx="7.037" ry="6.872" transform="translate(207.803 5.372)" fill="none" stroke="#ffd721" stroke-miterlimit="10" stroke-width="1"/>
        <ellipse id="Ellipse_123" data-name="Ellipse 123" cx="12.336" cy="12.087" rx="12.336" ry="12.087" transform="translate(336.789 90.148)" fill="none" stroke="#ffd721" stroke-miterlimit="10" stroke-width="1"/>
        <ellipse id="Ellipse_124" data-name="Ellipse 124" cx="21" cy="3.5" rx="21" ry="3.5" transform="translate(344.572 256.857)" fill="#f1f7ff"/>
        <ellipse id="Ellipse_125" data-name="Ellipse 125" cx="17.717" cy="17.386" rx="17.717" ry="17.386" transform="translate(199.938 69.948)" fill="none" stroke="#ffd721" stroke-miterlimit="10" stroke-width="1"/>
        <path id="Path_1563" data-name="Path 1563" d="M365.428,174.3,346.8,192.928l27.817,4.471Z" transform="translate(-95.698 -34.726)" fill="none" stroke="#ffd721" stroke-miterlimit="10" stroke-width="1"/>
        <path id="Path_1564" data-name="Path 1564" d="M384.6,17.114,397.184,42.53,416.557,16.7Z" transform="translate(-102.204 -7.603)" fill="none" stroke="#ffd721" stroke-miterlimit="10" stroke-width="1"/>
        <ellipse id="Ellipse_126" data-name="Ellipse 126" cx="7.037" cy="6.872" rx="7.037" ry="6.872" transform="translate(78.485 23.42)" fill="none" stroke="#ffd721" stroke-miterlimit="10" stroke-width="1"/>
        <path id="Path_1565" data-name="Path 1565" d="M134.272,132.5c-10.514,8.031-26.741,26.989-34.772,69.461C99.831,180.766,109.518,149.141,134.272,132.5Z" transform="translate(-53.138 -27.532)" fill="#d64100"/>
        <path id="Path_1566" data-name="Path 1566" d="M174.349,287.7c-28.149,8.776-58.367,4.719-60.271-14.985a22.1,22.1,0,0,1,4.8-15.813h0a.628.628,0,0,1,.331.166s-16.227,35.6,41.643,30.8A74.773,74.773,0,0,1,174.349,287.7Z" transform="translate(-55.628 -48.942)" fill="#00217e"/>
        <path id="Path_1567" data-name="Path 1567" d="M312.564,236.709c-3.56,4.388-8.445,8.031-13.495,11.839-.248-1.49,39.739-32.288-9.769-43.547,12.336.331,22.85,4.057,26.493,13.495A18.291,18.291,0,0,1,312.564,236.709Z" transform="translate(-85.803 -40.01)" fill="#00217e"/>
      </g>
      <g id="pot" transform="translate(-0.5 -0.5)">
        <g id="Group_313" data-name="Group 313" transform="translate(382.655 134.514)">
          <g id="Group_312" data-name="Group 312" transform="translate(5.216 13.431)">
            <path id="Path_1568" data-name="Path 1568" d="M468,178.2" transform="translate(-468 -178.2)" fill="none"/>
          </g>
          <path id="Path_1569" data-name="Path 1569" d="M482.149,241.888a32.15,32.15,0,0,1-3.643.5S471.469,176.733,461.7,163.9c0,0,1.656-3.56,3.808-.993,1.325,1.573,6.458,29.887,10.928,51.992,2.815,14.074,5.381,25.582,6.375,26C484.053,241.226,483.391,241.64,482.149,241.888Z" transform="translate(-461.7 -161.977)" fill="#00a777"/>
        </g>
        <path id="Path_1570" data-name="Path 1570" d="M450.664,206.71a5,5,0,0,0,1.242,3.477c6.375,7.534-1.573,9.024-1.573,9.024,0-5.3-8.113-10.6-3.808-4.8,4.305,5.878,2.153,7.2,0,7.451a11.713,11.713,0,0,0-6.458,2.649h-.083l-2.318-2.566a45.475,45.475,0,0,0-3.56-3.312c-2.815-2.318-2.235-4.388-1.407-5.63a5.471,5.471,0,0,1,1.987-1.656c.994-.414,2.732-1.325,3.974-1.987,1.407-.911,2.07-1.573-.414-1.407a12.211,12.211,0,0,0-5.878,2.318h0a7.759,7.759,0,0,0-2.732,2.98c0,.5-.5-.993-1.076-5.547v-.331c-.414-3.56,5.3-4.222,8.113-4.222a5.649,5.649,0,0,0,3.56-1.242c3.808-3.063-11.673,1.242-11.673,1.242a4.562,4.562,0,0,1-.083-2.4h0a6.9,6.9,0,0,1,.331-1.242,16.443,16.443,0,0,1,7.617-9.686c6.209-3.643,9.107-1.159,10.514,1.656h0a13.567,13.567,0,0,1,1.159,4.305c18.379-9.024,9.19,16.972,9.19,16.972C451.823,203.978,450.746,204.889,450.664,206.71Z" transform="translate(-73.308 -31.941)" fill="#70ba02"/>
        <path id="Path_1571" data-name="Path 1571" d="M503.136,205.927l-2.566,1.159h0c-1.242.58-2.318,1.242-3.477,1.9-2.484,1.656-3.974.662-4.8-.331a5.559,5.559,0,0,1-.828-1.9.3.3,0,0,0-.083-.248c-.331-2.07-1.076-6.54-1.821-3.229a12.532,12.532,0,0,0-.166,2.484c.248,3.063,1.987,5.3,2.318,5.381.414.083-.993.166-4.885-.58-2.9-.58-2.07-5.05-1.407-7.2,0-.083.083-.166.083-.248a4.454,4.454,0,0,0-.248-2.732c-.58-1.325-.993-.414-1.242,1.325-.414,2.9-.5,7.865-.5,7.865a5.026,5.026,0,0,1-2.815-1.076,13.274,13.274,0,0,1-5.878-8.113c-1.407-5.712,1.407-7.286,3.974-7.617a10.323,10.323,0,0,1,3.477.166c-2.815-16.144,15.564-2.98,15.564-2.98-8.279,2.153-7.782,3.229-6.375,3.726a4.584,4.584,0,0,0,2.98-.083c7.451-3.063,6.706,3.312,6.706,3.312-4.222-1.242-10.349,3.643-4.636,1.739,5.63-1.9,6.209.083,5.878,1.739A9.968,9.968,0,0,0,503.136,205.927Z" transform="translate(-81.239 -31.406)" fill="#70ba02"/>
        <path id="Path_1572" data-name="Path 1572" d="M466.176,241.083h0c-.166.828-.248,1.325-.248,1.325-3.808-4.8-4.388-4.139-4.305-3.063a3.18,3.18,0,0,0,.911,1.9l.414.414h0c2.07,2.153,1.49,3.477.662,4.139a3.089,3.089,0,0,1-1.407.745c-.331-3.063-5.464-5.712-2.484-2.566a9.924,9.924,0,0,1,1.407,1.9c.911,1.656,0,2.235-.993,2.4a6.958,6.958,0,0,0-3.643,1.987l-.166-.166L455,248.948a14.827,14.827,0,0,0-2.318-1.656c-1.821-1.159-1.573-2.4-1.159-3.229a3.342,3.342,0,0,1,1.076-1.076c1.242-.745,4.471-2.732,1.821-2.235a6.7,6.7,0,0,0-4.719,3.643c0,.331-.414-.58-.993-3.312-.5-2.07,2.815-2.815,4.471-2.98a3.659,3.659,0,0,0,1.987-.911c1.987-2.07-6.706,1.49-6.706,1.49a3.666,3.666,0,0,1-.083-2.153,9.346,9.346,0,0,1,3.808-6.126c5.878-4.388,7.2,2.732,7.2,2.732a9.993,9.993,0,0,1,3.146-1.407C467.418,230.569,466.673,237.937,466.176,241.083Z" transform="translate(-76.732 -38.993)" fill="#70ba02"/>
        <path id="Path_1573" data-name="Path 1573" d="M504.533,261.6l-8.279,42.14a7.594,7.594,0,0,1-.745,1.9,5.807,5.807,0,0,1-4.967,2.732H469.264a6.575,6.575,0,0,1-6.458-5.133l-8.527-38.828-.58-2.815Z" transform="translate(-77.668 -44.608)" fill="#70ba02"/>
        <g id="Group_314" data-name="Group 314" transform="translate(389.692 154.238)">
          <path id="Path_1574" data-name="Path 1574" d="M470.2,185.8c4.8,2.9,9.355,6.126,13.909,9.355,2.235,1.656,4.553,3.229,6.789,4.885l3.394,2.484c1.076.828,2.235,1.656,3.394,2.4a48.128,48.128,0,0,1-7.286-4.057q-3.477-2.235-6.954-4.719A145.86,145.86,0,0,1,470.2,185.8Z" transform="translate(-470.2 -185.8)" fill="#00a777"/>
        </g>
        <path id="Path_1575" data-name="Path 1575" d="M506.418,260.235v2.484a2.449,2.449,0,0,1-.166.828,2.183,2.183,0,0,1-2.07,1.325H452.935a2.226,2.226,0,0,1-2.235-2.235v-2.649a1.156,1.156,0,0,1,.248-.745A2.212,2.212,0,0,1,452.935,258h51.247A2.338,2.338,0,0,1,506.418,260.235Z" transform="translate(-77.152 -43.988)" fill="#00a777"/>
        <g id="Group_315" data-name="Group 315" transform="translate(379.592 185.035)">
          <path id="Path_1576" data-name="Path 1576" d="M474.144,223a18.658,18.658,0,0,0-3.643,1.159,16.549,16.549,0,0,0-1.739.828,10.959,10.959,0,0,0-1.656.993,20.157,20.157,0,0,0-5.3,5.3,16.127,16.127,0,0,0-1.656,3.394l-.331.911a4.035,4.035,0,0,0-.331.911c-.166.58-.331,1.242-.5,1.821a13.013,13.013,0,0,0-.331,1.9l-.248,1.9c-.083,1.242-.083,2.566-.248,3.891-.083-1.325-.166-2.566-.166-3.891l.166-1.9a13.256,13.256,0,0,1,.248-1.9c.166-.662.248-1.242.414-1.9.083-.331.166-.662.248-.911l.331-.911a20.206,20.206,0,0,1,1.739-3.56,17.745,17.745,0,0,1,5.63-5.464A16.072,16.072,0,0,1,474.144,223Z" transform="translate(-458 -223)" fill="#00a777"/>
        </g>
        <g id="Group_316" data-name="Group 316" transform="translate(368.912 149.518)">
          <path id="Path_1577" data-name="Path 1577" d="M445.1,214.623a50.187,50.187,0,0,1,1.407-10.514,48.334,48.334,0,0,1,3.394-10.1,32.411,32.411,0,0,1,2.566-4.719,23.725,23.725,0,0,1,3.394-4.222,16,16,0,0,1,9.355-4.967,18.373,18.373,0,0,0-8.362,5.878,35.207,35.207,0,0,0-5.381,8.776,98.494,98.494,0,0,0-3.643,9.769C446.756,207.752,445.928,211.146,445.1,214.623Z" transform="translate(-445.1 -180.1)" fill="#00a777"/>
        </g>
        <path id="Path_1578" data-name="Path 1578" d="M495.547,306.229a5.807,5.807,0,0,1-4.967,2.732H469.3a6.575,6.575,0,0,1-6.458-5.133L454.4,265C455.642,264.5,459.7,314.839,495.547,306.229Z" transform="translate(-77.789 -45.192)" fill="#028c5a"/>
        <path id="Path_1579" data-name="Path 1579" d="M447.079,191.481c-.331.083-13.743,3.312-18.379,9.355a6.9,6.9,0,0,1,.331-1.242,16.443,16.443,0,0,1,7.617-9.686C442.774,186.183,445.755,188.667,447.079,191.481Z" transform="translate(-73.366 -31.945)" fill="#028c5a"/>
        <path id="Path_1580" data-name="Path 1580" d="M434.181,209.919c-.414,1.159-.993,2.484-1.573,3.891h0a7.759,7.759,0,0,0-2.732,2.98c0,.5-.5-.993-1.076-5.547C431.284,209.588,435.34,206.939,434.181,209.919Z" transform="translate(-73.383 -35.481)" fill="#028c5a"/>
        <path id="Path_1581" data-name="Path 1581" d="M440.944,228.868h0l-2.318-2.484a45.474,45.474,0,0,0-3.56-3.312c-2.815-2.318-2.235-4.388-1.407-5.63a5.471,5.471,0,0,1,1.987-1.656c.993-.414,2.732-1.325,3.974-1.987.911.414.993,2.318-.911,7.7C438.709,221.5,438.709,226.55,440.944,228.868Z" transform="translate(-74.102 -36.381)" fill="#028c5a"/>
        <path id="Path_1582" data-name="Path 1582" d="M469.143,241.63c.331-4.222-2.4-7.948-3.643-9.355C470.385,231.115,469.639,238.484,469.143,241.63Z" transform="translate(-79.699 -39.54)" fill="#028c5a"/>
        <path id="Path_1583" data-name="Path 1583" d="M466.562,248.439c-.331-1.159-.414-2.98-.662-4.139C467.97,246.37,467.39,247.694,466.562,248.439Z" transform="translate(-79.768 -41.63)" fill="#028c5a"/>
        <path id="Path_1584" data-name="Path 1584" d="M461.808,251.9a6.958,6.958,0,0,0-3.643,1.987l-.166-.166c.662-1.407,2.235-3.808,4.719-4.222C463.713,251.073,462.8,251.653,461.808,251.9Z" transform="translate(-78.409 -42.525)" fill="#028c5a"/>
        <path id="Path_1585" data-name="Path 1585" d="M478.9,194.4a26.883,26.883,0,0,0,5.3,8.859c-.414,2.9-.5,7.865-.5,7.865a5.026,5.026,0,0,1-2.815-1.076,13.274,13.274,0,0,1-5.878-8.113C473.524,196.3,476.338,194.731,478.9,194.4Z" transform="translate(-81.265 -33.043)" fill="#028c5a"/>
        <path id="Path_1586" data-name="Path 1586" d="M489.274,214.351c-2.9-.58-2.07-5.05-1.407-7.2,0-.083.083-.166.083-.248a19.543,19.543,0,0,0,3.974,2.649c.248,3.063,1.987,5.3,2.318,5.381S493.165,215.013,489.274,214.351Z" transform="translate(-83.438 -35.194)" fill="#028c5a"/>
        <path id="Path_1587" data-name="Path 1587" d="M504.19,211.48c-1.242.58-2.318,1.242-3.477,1.9-2.484,1.656-3.974.662-4.8-.331a5.559,5.559,0,0,1-.828-1.9A.3.3,0,0,0,495,210.9,17.6,17.6,0,0,0,504.19,211.48Z" transform="translate(-84.776 -35.882)" fill="#028c5a"/>
        <path id="Path_1588" data-name="Path 1588" d="M506.252,264.06a2.183,2.183,0,0,1-2.07,1.325H452.935a2.226,2.226,0,0,1-2.235-2.235V260.5C453.432,262.735,464.278,266.13,506.252,264.06Z" transform="translate(-77.152 -44.418)" fill="#028c5a"/>
        <path id="Path_1589" data-name="Path 1589" d="M485.212,253.682c-3.643-4.967-5.133-17.551-5.712-25.582,2.815,13.329,5.381,24.175,6.375,24.589C487.117,253.1,486.454,253.516,485.212,253.682Z" transform="translate(-82.109 -38.842)" fill="#028c5a"/>
        <rect id="Rectangle_844" data-name="Rectangle 844" width="457" height="284" fill="none"/>
      </g>
    </g>
  </g>
</svg>
